%TF.GenerationSoftware,KiCad,Pcbnew,(6.0.0)*%
%TF.CreationDate,2022-03-13T20:59:25-04:00*%
%TF.ProjectId,Northstar SIO,4e6f7274-6873-4746-9172-2053494f2e6b,rev?*%
%TF.SameCoordinates,Original*%
%TF.FileFunction,Legend,Top*%
%TF.FilePolarity,Positive*%
%FSLAX46Y46*%
G04 Gerber Fmt 4.6, Leading zero omitted, Abs format (unit mm)*
G04 Created by KiCad (PCBNEW (6.0.0)) date 2022-03-13 20:59:25*
%MOMM*%
%LPD*%
G01*
G04 APERTURE LIST*
%ADD10C,0.150000*%
%ADD11C,0.120000*%
%ADD12C,0.300000*%
%ADD13C,0.100000*%
%ADD14C,1.600000*%
%ADD15O,1.600000X1.600000*%
%ADD16R,1.600000X1.600000*%
%ADD17C,2.000000*%
%ADD18C,1.500000*%
%ADD19C,4.800000*%
%ADD20C,3.200000*%
%ADD21C,1.700000*%
%ADD22R,1.700000X7.400000*%
%ADD23R,1.700000X1.700000*%
%ADD24O,1.700000X1.700000*%
G04 APERTURE END LIST*
D10*
X80131428Y-66553571D02*
X80374285Y-66634523D01*
X80455238Y-66715476D01*
X80536190Y-66877380D01*
X80536190Y-67120238D01*
X80455238Y-67282142D01*
X80374285Y-67363095D01*
X80212380Y-67444047D01*
X79564761Y-67444047D01*
X79564761Y-65744047D01*
X80131428Y-65744047D01*
X80293333Y-65825000D01*
X80374285Y-65905952D01*
X80455238Y-66067857D01*
X80455238Y-66229761D01*
X80374285Y-66391666D01*
X80293333Y-66472619D01*
X80131428Y-66553571D01*
X79564761Y-66553571D01*
X97623333Y-46712142D02*
X97575714Y-46759761D01*
X97432857Y-46807380D01*
X97337619Y-46807380D01*
X97194761Y-46759761D01*
X97099523Y-46664523D01*
X97051904Y-46569285D01*
X97004285Y-46378809D01*
X97004285Y-46235952D01*
X97051904Y-46045476D01*
X97099523Y-45950238D01*
X97194761Y-45855000D01*
X97337619Y-45807380D01*
X97432857Y-45807380D01*
X97575714Y-45855000D01*
X97623333Y-45902619D01*
X98575714Y-46807380D02*
X98004285Y-46807380D01*
X98290000Y-46807380D02*
X98290000Y-45807380D01*
X98194761Y-45950238D01*
X98099523Y-46045476D01*
X98004285Y-46093095D01*
X82335714Y-54427380D02*
X82002380Y-53951190D01*
X81764285Y-54427380D02*
X81764285Y-53427380D01*
X82145238Y-53427380D01*
X82240476Y-53475000D01*
X82288095Y-53522619D01*
X82335714Y-53617857D01*
X82335714Y-53760714D01*
X82288095Y-53855952D01*
X82240476Y-53903571D01*
X82145238Y-53951190D01*
X81764285Y-53951190D01*
X83478571Y-53379761D02*
X82621428Y-54665476D01*
X97623333Y-54332142D02*
X97575714Y-54379761D01*
X97432857Y-54427380D01*
X97337619Y-54427380D01*
X97194761Y-54379761D01*
X97099523Y-54284523D01*
X97051904Y-54189285D01*
X97004285Y-53998809D01*
X97004285Y-53855952D01*
X97051904Y-53665476D01*
X97099523Y-53570238D01*
X97194761Y-53475000D01*
X97337619Y-53427380D01*
X97432857Y-53427380D01*
X97575714Y-53475000D01*
X97623333Y-53522619D01*
X98480476Y-53760714D02*
X98480476Y-54427380D01*
X98242380Y-53379761D02*
X98004285Y-54094047D01*
X98623333Y-54094047D01*
X79605238Y-44098333D02*
X80414761Y-44098333D01*
X79443333Y-44584047D02*
X80010000Y-42884047D01*
X80576666Y-44584047D01*
X80536190Y-92682142D02*
X80455238Y-92763095D01*
X80212380Y-92844047D01*
X80050476Y-92844047D01*
X79807619Y-92763095D01*
X79645714Y-92601190D01*
X79564761Y-92439285D01*
X79483809Y-92115476D01*
X79483809Y-91872619D01*
X79564761Y-91548809D01*
X79645714Y-91386904D01*
X79807619Y-91225000D01*
X80050476Y-91144047D01*
X80212380Y-91144047D01*
X80455238Y-91225000D01*
X80536190Y-91305952D01*
X136646428Y-65283571D02*
X136889285Y-65364523D01*
X136970238Y-65445476D01*
X137051190Y-65607380D01*
X137051190Y-65850238D01*
X136970238Y-66012142D01*
X136889285Y-66093095D01*
X136727380Y-66174047D01*
X136079761Y-66174047D01*
X136079761Y-64474047D01*
X136646428Y-64474047D01*
X136808333Y-64555000D01*
X136889285Y-64635952D01*
X136970238Y-64797857D01*
X136970238Y-64959761D01*
X136889285Y-65121666D01*
X136808333Y-65202619D01*
X136646428Y-65283571D01*
X136079761Y-65283571D01*
X150765714Y-141483571D02*
X151332380Y-141483571D01*
X151575238Y-142374047D02*
X150765714Y-142374047D01*
X150765714Y-140674047D01*
X151575238Y-140674047D01*
X90455714Y-29027380D02*
X89884285Y-29027380D01*
X90170000Y-29027380D02*
X90170000Y-28027380D01*
X90074761Y-28170238D01*
X89979523Y-28265476D01*
X89884285Y-28313095D01*
X82335714Y-49347380D02*
X82002380Y-48871190D01*
X81764285Y-49347380D02*
X81764285Y-48347380D01*
X82145238Y-48347380D01*
X82240476Y-48395000D01*
X82288095Y-48442619D01*
X82335714Y-48537857D01*
X82335714Y-48680714D01*
X82288095Y-48775952D01*
X82240476Y-48823571D01*
X82145238Y-48871190D01*
X81764285Y-48871190D01*
X83478571Y-48299761D02*
X82621428Y-49585476D01*
X79645714Y-142753571D02*
X80212380Y-142753571D01*
X80455238Y-143644047D02*
X79645714Y-143644047D01*
X79645714Y-141944047D01*
X80455238Y-141944047D01*
X150566428Y-51363571D02*
X150709285Y-51411190D01*
X150756904Y-51458809D01*
X150804523Y-51554047D01*
X150804523Y-51696904D01*
X150756904Y-51792142D01*
X150709285Y-51839761D01*
X150614047Y-51887380D01*
X150233095Y-51887380D01*
X150233095Y-50887380D01*
X150566428Y-50887380D01*
X150661666Y-50935000D01*
X150709285Y-50982619D01*
X150756904Y-51077857D01*
X150756904Y-51173095D01*
X150709285Y-51268333D01*
X150661666Y-51315952D01*
X150566428Y-51363571D01*
X150233095Y-51363571D01*
X141279523Y-51792142D02*
X141231904Y-51839761D01*
X141089047Y-51887380D01*
X140993809Y-51887380D01*
X140850952Y-51839761D01*
X140755714Y-51744523D01*
X140708095Y-51649285D01*
X140660476Y-51458809D01*
X140660476Y-51315952D01*
X140708095Y-51125476D01*
X140755714Y-51030238D01*
X140850952Y-50935000D01*
X140993809Y-50887380D01*
X141089047Y-50887380D01*
X141231904Y-50935000D01*
X141279523Y-50982619D01*
X82335714Y-51887380D02*
X82002380Y-51411190D01*
X81764285Y-51887380D02*
X81764285Y-50887380D01*
X82145238Y-50887380D01*
X82240476Y-50935000D01*
X82288095Y-50982619D01*
X82335714Y-51077857D01*
X82335714Y-51220714D01*
X82288095Y-51315952D01*
X82240476Y-51363571D01*
X82145238Y-51411190D01*
X81764285Y-51411190D01*
X83478571Y-50839761D02*
X82621428Y-52125476D01*
X136416190Y-93952142D02*
X136335238Y-94033095D01*
X136092380Y-94114047D01*
X135930476Y-94114047D01*
X135687619Y-94033095D01*
X135525714Y-93871190D01*
X135444761Y-93709285D01*
X135363809Y-93385476D01*
X135363809Y-93142619D01*
X135444761Y-92818809D01*
X135525714Y-92656904D01*
X135687619Y-92495000D01*
X135930476Y-92414047D01*
X136092380Y-92414047D01*
X136335238Y-92495000D01*
X136416190Y-92575952D01*
X150725238Y-41558333D02*
X151534761Y-41558333D01*
X150563333Y-42044047D02*
X151130000Y-40344047D01*
X151696666Y-42044047D01*
X97623333Y-51792142D02*
X97575714Y-51839761D01*
X97432857Y-51887380D01*
X97337619Y-51887380D01*
X97194761Y-51839761D01*
X97099523Y-51744523D01*
X97051904Y-51649285D01*
X97004285Y-51458809D01*
X97004285Y-51315952D01*
X97051904Y-51125476D01*
X97099523Y-51030238D01*
X97194761Y-50935000D01*
X97337619Y-50887380D01*
X97432857Y-50887380D01*
X97575714Y-50935000D01*
X97623333Y-50982619D01*
X97956666Y-50887380D02*
X98575714Y-50887380D01*
X98242380Y-51268333D01*
X98385238Y-51268333D01*
X98480476Y-51315952D01*
X98528095Y-51363571D01*
X98575714Y-51458809D01*
X98575714Y-51696904D01*
X98528095Y-51792142D01*
X98480476Y-51839761D01*
X98385238Y-51887380D01*
X98099523Y-51887380D01*
X98004285Y-51839761D01*
X97956666Y-51792142D01*
X105124285Y-28122619D02*
X105171904Y-28075000D01*
X105267142Y-28027380D01*
X105505238Y-28027380D01*
X105600476Y-28075000D01*
X105648095Y-28122619D01*
X105695714Y-28217857D01*
X105695714Y-28313095D01*
X105648095Y-28455952D01*
X105076666Y-29027380D01*
X105695714Y-29027380D01*
X137290333Y-68113047D02*
X137290333Y-68589238D01*
X137004619Y-68017809D02*
X138004619Y-68351142D01*
X137004619Y-68684476D01*
X137004619Y-69017809D02*
X137671285Y-69017809D01*
X137576047Y-69017809D02*
X137623666Y-69065428D01*
X137671285Y-69160666D01*
X137671285Y-69303523D01*
X137623666Y-69398761D01*
X137528428Y-69446380D01*
X137004619Y-69446380D01*
X137528428Y-69446380D02*
X137623666Y-69494000D01*
X137671285Y-69589238D01*
X137671285Y-69732095D01*
X137623666Y-69827333D01*
X137528428Y-69874952D01*
X137004619Y-69874952D01*
X137671285Y-70351142D02*
X136671285Y-70351142D01*
X137623666Y-70351142D02*
X137671285Y-70446380D01*
X137671285Y-70636857D01*
X137623666Y-70732095D01*
X137576047Y-70779714D01*
X137480809Y-70827333D01*
X137195095Y-70827333D01*
X137099857Y-70779714D01*
X137052238Y-70732095D01*
X137004619Y-70636857D01*
X137004619Y-70446380D01*
X137052238Y-70351142D01*
X137004619Y-71255904D02*
X138004619Y-71255904D01*
X137004619Y-71684476D02*
X137528428Y-71684476D01*
X137623666Y-71636857D01*
X137671285Y-71541619D01*
X137671285Y-71398761D01*
X137623666Y-71303523D01*
X137576047Y-71255904D01*
X137052238Y-72541619D02*
X137004619Y-72446380D01*
X137004619Y-72255904D01*
X137052238Y-72160666D01*
X137147476Y-72113047D01*
X137528428Y-72113047D01*
X137623666Y-72160666D01*
X137671285Y-72255904D01*
X137671285Y-72446380D01*
X137623666Y-72541619D01*
X137528428Y-72589238D01*
X137433190Y-72589238D01*
X137337952Y-72113047D01*
X137671285Y-73017809D02*
X137004619Y-73017809D01*
X137576047Y-73017809D02*
X137623666Y-73065428D01*
X137671285Y-73160666D01*
X137671285Y-73303523D01*
X137623666Y-73398761D01*
X137528428Y-73446380D01*
X137004619Y-73446380D01*
X137004619Y-74065428D02*
X137052238Y-73970190D01*
X137099857Y-73922571D01*
X137195095Y-73874952D01*
X137480809Y-73874952D01*
X137576047Y-73922571D01*
X137623666Y-73970190D01*
X137671285Y-74065428D01*
X137671285Y-74208285D01*
X137623666Y-74303523D01*
X137576047Y-74351142D01*
X137480809Y-74398761D01*
X137195095Y-74398761D01*
X137099857Y-74351142D01*
X137052238Y-74303523D01*
X137004619Y-74208285D01*
X137004619Y-74065428D01*
X137004619Y-74970190D02*
X137052238Y-74874952D01*
X137147476Y-74827333D01*
X138004619Y-74827333D01*
X137004619Y-76589238D02*
X137004619Y-76113047D01*
X138004619Y-76113047D01*
X138004619Y-76827333D02*
X138004619Y-77494000D01*
X137004619Y-77065428D01*
X138004619Y-77779714D02*
X138004619Y-78446380D01*
X137004619Y-78017809D01*
X137052238Y-78779714D02*
X137004619Y-78922571D01*
X137004619Y-79160666D01*
X137052238Y-79255904D01*
X137099857Y-79303523D01*
X137195095Y-79351142D01*
X137290333Y-79351142D01*
X137385571Y-79303523D01*
X137433190Y-79255904D01*
X137480809Y-79160666D01*
X137528428Y-78970190D01*
X137576047Y-78874952D01*
X137623666Y-78827333D01*
X137718904Y-78779714D01*
X137814142Y-78779714D01*
X137909380Y-78827333D01*
X137957000Y-78874952D01*
X138004619Y-78970190D01*
X138004619Y-79208285D01*
X137957000Y-79351142D01*
X137004619Y-79779714D02*
X138004619Y-79779714D01*
X138004619Y-80017809D01*
X137957000Y-80160666D01*
X137861761Y-80255904D01*
X137766523Y-80303523D01*
X137576047Y-80351142D01*
X137433190Y-80351142D01*
X137242714Y-80303523D01*
X137147476Y-80255904D01*
X137052238Y-80160666D01*
X137004619Y-80017809D01*
X137004619Y-79779714D01*
X137528428Y-81113047D02*
X137480809Y-81255904D01*
X137433190Y-81303523D01*
X137337952Y-81351142D01*
X137195095Y-81351142D01*
X137099857Y-81303523D01*
X137052238Y-81255904D01*
X137004619Y-81160666D01*
X137004619Y-80779714D01*
X138004619Y-80779714D01*
X138004619Y-81113047D01*
X137957000Y-81208285D01*
X137909380Y-81255904D01*
X137814142Y-81303523D01*
X137718904Y-81303523D01*
X137623666Y-81255904D01*
X137576047Y-81208285D01*
X137528428Y-81113047D01*
X137528428Y-80779714D01*
X137909380Y-81732095D02*
X137957000Y-81779714D01*
X138004619Y-81874952D01*
X138004619Y-82113047D01*
X137957000Y-82208285D01*
X137909380Y-82255904D01*
X137814142Y-82303523D01*
X137718904Y-82303523D01*
X137576047Y-82255904D01*
X137004619Y-81684476D01*
X137004619Y-82303523D01*
X138004619Y-83208285D02*
X138004619Y-82732095D01*
X137528428Y-82684476D01*
X137576047Y-82732095D01*
X137623666Y-82827333D01*
X137623666Y-83065428D01*
X137576047Y-83160666D01*
X137528428Y-83208285D01*
X137433190Y-83255904D01*
X137195095Y-83255904D01*
X137099857Y-83208285D01*
X137052238Y-83160666D01*
X137004619Y-83065428D01*
X137004619Y-82827333D01*
X137052238Y-82732095D01*
X137099857Y-82684476D01*
X137052238Y-83636857D02*
X137004619Y-83779714D01*
X137004619Y-84017809D01*
X137052238Y-84113047D01*
X137099857Y-84160666D01*
X137195095Y-84208285D01*
X137290333Y-84208285D01*
X137385571Y-84160666D01*
X137433190Y-84113047D01*
X137480809Y-84017809D01*
X137528428Y-83827333D01*
X137576047Y-83732095D01*
X137623666Y-83684476D01*
X137718904Y-83636857D01*
X137814142Y-83636857D01*
X137909380Y-83684476D01*
X137957000Y-83732095D01*
X138004619Y-83827333D01*
X138004619Y-84065428D01*
X137957000Y-84208285D01*
X137004619Y-85160666D02*
X137004619Y-84589238D01*
X137004619Y-84874952D02*
X138004619Y-84874952D01*
X137861761Y-84779714D01*
X137766523Y-84684476D01*
X137718904Y-84589238D01*
X137290333Y-85541619D02*
X137290333Y-86017809D01*
X137004619Y-85446380D02*
X138004619Y-85779714D01*
X137004619Y-86113047D01*
X137099857Y-87017809D02*
X137052238Y-86970190D01*
X137004619Y-86827333D01*
X137004619Y-86732095D01*
X137052238Y-86589238D01*
X137147476Y-86494000D01*
X137242714Y-86446380D01*
X137433190Y-86398761D01*
X137576047Y-86398761D01*
X137766523Y-86446380D01*
X137861761Y-86494000D01*
X137957000Y-86589238D01*
X138004619Y-86732095D01*
X138004619Y-86827333D01*
X137957000Y-86970190D01*
X137909380Y-87017809D01*
X138004619Y-87636857D02*
X138004619Y-87827333D01*
X137957000Y-87922571D01*
X137861761Y-88017809D01*
X137671285Y-88065428D01*
X137337952Y-88065428D01*
X137147476Y-88017809D01*
X137052238Y-87922571D01*
X137004619Y-87827333D01*
X137004619Y-87636857D01*
X137052238Y-87541619D01*
X137147476Y-87446380D01*
X137337952Y-87398761D01*
X137671285Y-87398761D01*
X137861761Y-87446380D01*
X137957000Y-87541619D01*
X138004619Y-87636857D01*
X137671285Y-88922571D02*
X137004619Y-88922571D01*
X138052238Y-88684476D02*
X137337952Y-88446380D01*
X137337952Y-89065428D01*
X137528428Y-89779714D02*
X137528428Y-89446380D01*
X137004619Y-89446380D02*
X138004619Y-89446380D01*
X138004619Y-89922571D01*
X136394619Y-69803523D02*
X136394619Y-69993999D01*
X136347000Y-70089238D01*
X136251761Y-70184476D01*
X136061285Y-70232095D01*
X135727952Y-70232095D01*
X135537476Y-70184476D01*
X135442238Y-70089238D01*
X135394619Y-69993999D01*
X135394619Y-69803523D01*
X135442238Y-69708285D01*
X135537476Y-69613047D01*
X135727952Y-69565428D01*
X136061285Y-69565428D01*
X136251761Y-69613047D01*
X136347000Y-69708285D01*
X136394619Y-69803523D01*
X135394619Y-70660666D02*
X136061285Y-70660666D01*
X135870809Y-70660666D02*
X135966047Y-70708285D01*
X136013666Y-70755904D01*
X136061285Y-70851142D01*
X136061285Y-70946380D01*
X135442238Y-71327333D02*
X135394619Y-71327333D01*
X135299380Y-71279714D01*
X135251761Y-71232095D01*
X135680333Y-72470190D02*
X135680333Y-72946380D01*
X135394619Y-72374952D02*
X136394619Y-72708285D01*
X135394619Y-73041619D01*
X135394619Y-73374952D02*
X136394619Y-73374952D01*
X135680333Y-73708285D01*
X136394619Y-74041619D01*
X135394619Y-74041619D01*
X135394619Y-74517809D02*
X136394619Y-74517809D01*
X136394619Y-74898761D01*
X136347000Y-74994000D01*
X136299380Y-75041619D01*
X136204142Y-75089238D01*
X136061285Y-75089238D01*
X135966047Y-75041619D01*
X135918428Y-74994000D01*
X135870809Y-74898761D01*
X135870809Y-74517809D01*
X136394619Y-75708285D02*
X136394619Y-75803523D01*
X136347000Y-75898761D01*
X136299380Y-75946380D01*
X136204142Y-75994000D01*
X136013666Y-76041619D01*
X135775571Y-76041619D01*
X135585095Y-75994000D01*
X135489857Y-75946380D01*
X135442238Y-75898761D01*
X135394619Y-75803523D01*
X135394619Y-75708285D01*
X135442238Y-75613047D01*
X135489857Y-75565428D01*
X135585095Y-75517809D01*
X135775571Y-75470190D01*
X136013666Y-75470190D01*
X136204142Y-75517809D01*
X136299380Y-75565428D01*
X136347000Y-75613047D01*
X136394619Y-75708285D01*
X136299380Y-76422571D02*
X136347000Y-76470190D01*
X136394619Y-76565428D01*
X136394619Y-76803523D01*
X136347000Y-76898761D01*
X136299380Y-76946380D01*
X136204142Y-76994000D01*
X136108904Y-76994000D01*
X135966047Y-76946380D01*
X135394619Y-76374952D01*
X135394619Y-76994000D01*
X136299380Y-77374952D02*
X136347000Y-77422571D01*
X136394619Y-77517809D01*
X136394619Y-77755904D01*
X136347000Y-77851142D01*
X136299380Y-77898761D01*
X136204142Y-77946380D01*
X136108904Y-77946380D01*
X135966047Y-77898761D01*
X135394619Y-77327333D01*
X135394619Y-77946380D01*
X136394619Y-78851142D02*
X136394619Y-78374952D01*
X135918428Y-78327333D01*
X135966047Y-78374952D01*
X136013666Y-78470190D01*
X136013666Y-78708285D01*
X135966047Y-78803523D01*
X135918428Y-78851142D01*
X135823190Y-78898761D01*
X135585095Y-78898761D01*
X135489857Y-78851142D01*
X135442238Y-78803523D01*
X135394619Y-78708285D01*
X135394619Y-78470190D01*
X135442238Y-78374952D01*
X135489857Y-78327333D01*
X135680333Y-79279714D02*
X135680333Y-79755904D01*
X135394619Y-79184476D02*
X136394619Y-79517809D01*
X135394619Y-79851142D01*
X136394619Y-80851142D02*
X136394619Y-81517809D01*
X135394619Y-81089238D01*
X136061285Y-82327333D02*
X135394619Y-82327333D01*
X136442238Y-82089238D02*
X135727952Y-81851142D01*
X135727952Y-82470190D01*
X136394619Y-82755904D02*
X136394619Y-83422571D01*
X135394619Y-82994000D01*
X135966047Y-83946380D02*
X136013666Y-83851142D01*
X136061285Y-83803523D01*
X136156523Y-83755904D01*
X136204142Y-83755904D01*
X136299380Y-83803523D01*
X136347000Y-83851142D01*
X136394619Y-83946380D01*
X136394619Y-84136857D01*
X136347000Y-84232095D01*
X136299380Y-84279714D01*
X136204142Y-84327333D01*
X136156523Y-84327333D01*
X136061285Y-84279714D01*
X136013666Y-84232095D01*
X135966047Y-84136857D01*
X135966047Y-83946380D01*
X135918428Y-83851142D01*
X135870809Y-83803523D01*
X135775571Y-83755904D01*
X135585095Y-83755904D01*
X135489857Y-83803523D01*
X135442238Y-83851142D01*
X135394619Y-83946380D01*
X135394619Y-84136857D01*
X135442238Y-84232095D01*
X135489857Y-84279714D01*
X135585095Y-84327333D01*
X135775571Y-84327333D01*
X135870809Y-84279714D01*
X135918428Y-84232095D01*
X135966047Y-84136857D01*
X136061285Y-85184476D02*
X135394619Y-85184476D01*
X136442238Y-84946380D02*
X135727952Y-84708285D01*
X135727952Y-85327333D01*
X136394619Y-86136857D02*
X136394619Y-85946380D01*
X136347000Y-85851142D01*
X136299380Y-85803523D01*
X136156523Y-85708285D01*
X135966047Y-85660666D01*
X135585095Y-85660666D01*
X135489857Y-85708285D01*
X135442238Y-85755904D01*
X135394619Y-85851142D01*
X135394619Y-86041619D01*
X135442238Y-86136857D01*
X135489857Y-86184476D01*
X135585095Y-86232095D01*
X135823190Y-86232095D01*
X135918428Y-86184476D01*
X135966047Y-86136857D01*
X136013666Y-86041619D01*
X136013666Y-85851142D01*
X135966047Y-85755904D01*
X135918428Y-85708285D01*
X135823190Y-85660666D01*
X135775571Y-86660666D02*
X135775571Y-87422571D01*
X136394619Y-88327333D02*
X136394619Y-88136857D01*
X136347000Y-88041619D01*
X136299380Y-87994000D01*
X136156523Y-87898761D01*
X135966047Y-87851142D01*
X135585095Y-87851142D01*
X135489857Y-87898761D01*
X135442238Y-87946380D01*
X135394619Y-88041619D01*
X135394619Y-88232095D01*
X135442238Y-88327333D01*
X135489857Y-88374952D01*
X135585095Y-88422571D01*
X135823190Y-88422571D01*
X135918428Y-88374952D01*
X135966047Y-88327333D01*
X136013666Y-88232095D01*
X136013666Y-88041619D01*
X135966047Y-87946380D01*
X135918428Y-87898761D01*
X135823190Y-87851142D01*
X84915476Y-165822380D02*
X85534523Y-165822380D01*
X85201190Y-166203333D01*
X85344047Y-166203333D01*
X85439285Y-166250952D01*
X85486904Y-166298571D01*
X85534523Y-166393809D01*
X85534523Y-166631904D01*
X85486904Y-166727142D01*
X85439285Y-166774761D01*
X85344047Y-166822380D01*
X85058333Y-166822380D01*
X84963095Y-166774761D01*
X84915476Y-166727142D01*
X86153571Y-165822380D02*
X86248809Y-165822380D01*
X86344047Y-165870000D01*
X86391666Y-165917619D01*
X86439285Y-166012857D01*
X86486904Y-166203333D01*
X86486904Y-166441428D01*
X86439285Y-166631904D01*
X86391666Y-166727142D01*
X86344047Y-166774761D01*
X86248809Y-166822380D01*
X86153571Y-166822380D01*
X86058333Y-166774761D01*
X86010714Y-166727142D01*
X85963095Y-166631904D01*
X85915476Y-166441428D01*
X85915476Y-166203333D01*
X85963095Y-166012857D01*
X86010714Y-165917619D01*
X86058333Y-165870000D01*
X86153571Y-165822380D01*
X135604285Y-166552619D02*
X135651904Y-166505000D01*
X135747142Y-166457380D01*
X135985238Y-166457380D01*
X136080476Y-166505000D01*
X136128095Y-166552619D01*
X136175714Y-166647857D01*
X136175714Y-166743095D01*
X136128095Y-166885952D01*
X135556666Y-167457380D01*
X136175714Y-167457380D01*
X136080476Y-28360714D02*
X136080476Y-29027380D01*
X135842380Y-27979761D02*
X135604285Y-28694047D01*
X136223333Y-28694047D01*
X97623333Y-49252142D02*
X97575714Y-49299761D01*
X97432857Y-49347380D01*
X97337619Y-49347380D01*
X97194761Y-49299761D01*
X97099523Y-49204523D01*
X97051904Y-49109285D01*
X97004285Y-48918809D01*
X97004285Y-48775952D01*
X97051904Y-48585476D01*
X97099523Y-48490238D01*
X97194761Y-48395000D01*
X97337619Y-48347380D01*
X97432857Y-48347380D01*
X97575714Y-48395000D01*
X97623333Y-48442619D01*
X98004285Y-48442619D02*
X98051904Y-48395000D01*
X98147142Y-48347380D01*
X98385238Y-48347380D01*
X98480476Y-48395000D01*
X98528095Y-48442619D01*
X98575714Y-48537857D01*
X98575714Y-48633095D01*
X98528095Y-48775952D01*
X97956666Y-49347380D01*
X98575714Y-49347380D01*
X79564761Y-118244047D02*
X79564761Y-116544047D01*
X79969523Y-116544047D01*
X80212380Y-116625000D01*
X80374285Y-116786904D01*
X80455238Y-116948809D01*
X80536190Y-117272619D01*
X80536190Y-117515476D01*
X80455238Y-117839285D01*
X80374285Y-118001190D01*
X80212380Y-118163095D01*
X79969523Y-118244047D01*
X79564761Y-118244047D01*
X82335714Y-46807380D02*
X82002380Y-46331190D01*
X81764285Y-46807380D02*
X81764285Y-45807380D01*
X82145238Y-45807380D01*
X82240476Y-45855000D01*
X82288095Y-45902619D01*
X82335714Y-45997857D01*
X82335714Y-46140714D01*
X82288095Y-46235952D01*
X82240476Y-46283571D01*
X82145238Y-46331190D01*
X81764285Y-46331190D01*
X83478571Y-45759761D02*
X82621428Y-47045476D01*
X150684761Y-120784047D02*
X150684761Y-119084047D01*
X151089523Y-119084047D01*
X151332380Y-119165000D01*
X151494285Y-119326904D01*
X151575238Y-119488809D01*
X151656190Y-119812619D01*
X151656190Y-120055476D01*
X151575238Y-120379285D01*
X151494285Y-120541190D01*
X151332380Y-120703095D01*
X151089523Y-120784047D01*
X150684761Y-120784047D01*
X120316666Y-28027380D02*
X120935714Y-28027380D01*
X120602380Y-28408333D01*
X120745238Y-28408333D01*
X120840476Y-28455952D01*
X120888095Y-28503571D01*
X120935714Y-28598809D01*
X120935714Y-28836904D01*
X120888095Y-28932142D01*
X120840476Y-28979761D01*
X120745238Y-29027380D01*
X120459523Y-29027380D01*
X120364285Y-28979761D01*
X120316666Y-28932142D01*
%TO.C,R1*%
X80632380Y-74461666D02*
X80156190Y-74795000D01*
X80632380Y-75033095D02*
X79632380Y-75033095D01*
X79632380Y-74652142D01*
X79680000Y-74556904D01*
X79727619Y-74509285D01*
X79822857Y-74461666D01*
X79965714Y-74461666D01*
X80060952Y-74509285D01*
X80108571Y-74556904D01*
X80156190Y-74652142D01*
X80156190Y-75033095D01*
X80632380Y-73509285D02*
X80632380Y-74080714D01*
X80632380Y-73795000D02*
X79632380Y-73795000D01*
X79775238Y-73890238D01*
X79870476Y-73985476D01*
X79918095Y-74080714D01*
X83002380Y-75128333D02*
X83002380Y-75699761D01*
X83002380Y-75414047D02*
X82002380Y-75414047D01*
X82145238Y-75509285D01*
X82240476Y-75604523D01*
X82288095Y-75699761D01*
X82907142Y-74699761D02*
X82954761Y-74652142D01*
X83002380Y-74699761D01*
X82954761Y-74747380D01*
X82907142Y-74699761D01*
X83002380Y-74699761D01*
X82097619Y-74271190D02*
X82050000Y-74223571D01*
X82002380Y-74128333D01*
X82002380Y-73890238D01*
X82050000Y-73795000D01*
X82097619Y-73747380D01*
X82192857Y-73699761D01*
X82288095Y-73699761D01*
X82430952Y-73747380D01*
X83002380Y-74318809D01*
X83002380Y-73699761D01*
X83002380Y-73271190D02*
X82002380Y-73271190D01*
X82621428Y-73175952D02*
X83002380Y-72890238D01*
X82335714Y-72890238D02*
X82716666Y-73271190D01*
%TO.C,U2B1*%
X105560952Y-56967380D02*
X105084761Y-56967380D01*
X105084761Y-55967380D01*
X105846666Y-56919761D02*
X105989523Y-56967380D01*
X106227619Y-56967380D01*
X106322857Y-56919761D01*
X106370476Y-56872142D01*
X106418095Y-56776904D01*
X106418095Y-56681666D01*
X106370476Y-56586428D01*
X106322857Y-56538809D01*
X106227619Y-56491190D01*
X106037142Y-56443571D01*
X105941904Y-56395952D01*
X105894285Y-56348333D01*
X105846666Y-56253095D01*
X105846666Y-56157857D01*
X105894285Y-56062619D01*
X105941904Y-56015000D01*
X106037142Y-55967380D01*
X106275238Y-55967380D01*
X106418095Y-56015000D01*
X107037142Y-55967380D02*
X107132380Y-55967380D01*
X107227619Y-56015000D01*
X107275238Y-56062619D01*
X107322857Y-56157857D01*
X107370476Y-56348333D01*
X107370476Y-56586428D01*
X107322857Y-56776904D01*
X107275238Y-56872142D01*
X107227619Y-56919761D01*
X107132380Y-56967380D01*
X107037142Y-56967380D01*
X106941904Y-56919761D01*
X106894285Y-56872142D01*
X106846666Y-56776904D01*
X106799047Y-56586428D01*
X106799047Y-56348333D01*
X106846666Y-56157857D01*
X106894285Y-56062619D01*
X106941904Y-56015000D01*
X107037142Y-55967380D01*
X108227619Y-56300714D02*
X108227619Y-56967380D01*
X107989523Y-55919761D02*
X107751428Y-56634047D01*
X108370476Y-56634047D01*
%TO.C,C16*%
X81712380Y-137755000D02*
X81950476Y-137755000D01*
X81855238Y-137993095D02*
X81950476Y-137755000D01*
X81855238Y-137516904D01*
X82140952Y-137897857D02*
X81950476Y-137755000D01*
X82140952Y-137612142D01*
%TO.C,C15*%
X122595000Y-80097380D02*
X122595000Y-80335476D01*
X122356904Y-80240238D02*
X122595000Y-80335476D01*
X122833095Y-80240238D01*
X122452142Y-80525952D02*
X122595000Y-80335476D01*
X122737857Y-80525952D01*
%TO.C,U3D1*%
X116022380Y-112244047D02*
X116022380Y-112720238D01*
X115022380Y-112720238D01*
X115974761Y-111958333D02*
X116022380Y-111815476D01*
X116022380Y-111577380D01*
X115974761Y-111482142D01*
X115927142Y-111434523D01*
X115831904Y-111386904D01*
X115736666Y-111386904D01*
X115641428Y-111434523D01*
X115593809Y-111482142D01*
X115546190Y-111577380D01*
X115498571Y-111767857D01*
X115450952Y-111863095D01*
X115403333Y-111910714D01*
X115308095Y-111958333D01*
X115212857Y-111958333D01*
X115117619Y-111910714D01*
X115070000Y-111863095D01*
X115022380Y-111767857D01*
X115022380Y-111529761D01*
X115070000Y-111386904D01*
X115022380Y-110767857D02*
X115022380Y-110672619D01*
X115070000Y-110577380D01*
X115117619Y-110529761D01*
X115212857Y-110482142D01*
X115403333Y-110434523D01*
X115641428Y-110434523D01*
X115831904Y-110482142D01*
X115927142Y-110529761D01*
X115974761Y-110577380D01*
X116022380Y-110672619D01*
X116022380Y-110767857D01*
X115974761Y-110863095D01*
X115927142Y-110910714D01*
X115831904Y-110958333D01*
X115641428Y-111005952D01*
X115403333Y-111005952D01*
X115212857Y-110958333D01*
X115117619Y-110910714D01*
X115070000Y-110863095D01*
X115022380Y-110767857D01*
X115022380Y-110101190D02*
X115022380Y-109482142D01*
X115403333Y-109815476D01*
X115403333Y-109672619D01*
X115450952Y-109577380D01*
X115498571Y-109529761D01*
X115593809Y-109482142D01*
X115831904Y-109482142D01*
X115927142Y-109529761D01*
X115974761Y-109577380D01*
X116022380Y-109672619D01*
X116022380Y-109958333D01*
X115974761Y-110053571D01*
X115927142Y-110101190D01*
%TO.C,U2E1*%
X105084761Y-133167380D02*
X104608571Y-133167380D01*
X104608571Y-132167380D01*
X105370476Y-133119761D02*
X105513333Y-133167380D01*
X105751428Y-133167380D01*
X105846666Y-133119761D01*
X105894285Y-133072142D01*
X105941904Y-132976904D01*
X105941904Y-132881666D01*
X105894285Y-132786428D01*
X105846666Y-132738809D01*
X105751428Y-132691190D01*
X105560952Y-132643571D01*
X105465714Y-132595952D01*
X105418095Y-132548333D01*
X105370476Y-132453095D01*
X105370476Y-132357857D01*
X105418095Y-132262619D01*
X105465714Y-132215000D01*
X105560952Y-132167380D01*
X105799047Y-132167380D01*
X105941904Y-132215000D01*
X106322857Y-132262619D02*
X106370476Y-132215000D01*
X106465714Y-132167380D01*
X106703809Y-132167380D01*
X106799047Y-132215000D01*
X106846666Y-132262619D01*
X106894285Y-132357857D01*
X106894285Y-132453095D01*
X106846666Y-132595952D01*
X106275238Y-133167380D01*
X106894285Y-133167380D01*
X107751428Y-132500714D02*
X107751428Y-133167380D01*
X107513333Y-132119761D02*
X107275238Y-132834047D01*
X107894285Y-132834047D01*
X108180000Y-132167380D02*
X108799047Y-132167380D01*
X108465714Y-132548333D01*
X108608571Y-132548333D01*
X108703809Y-132595952D01*
X108751428Y-132643571D01*
X108799047Y-132738809D01*
X108799047Y-132976904D01*
X108751428Y-133072142D01*
X108703809Y-133119761D01*
X108608571Y-133167380D01*
X108322857Y-133167380D01*
X108227619Y-133119761D01*
X108180000Y-133072142D01*
%TO.C,U2A1*%
X105537142Y-31567380D02*
X104965714Y-31567380D01*
X105251428Y-31567380D02*
X105251428Y-30567380D01*
X105156190Y-30710238D01*
X105060952Y-30805476D01*
X104965714Y-30853095D01*
X106394285Y-30900714D02*
X106394285Y-31567380D01*
X106156190Y-30519761D02*
X105918095Y-31234047D01*
X106537142Y-31234047D01*
X107060952Y-30995952D02*
X106965714Y-30948333D01*
X106918095Y-30900714D01*
X106870476Y-30805476D01*
X106870476Y-30757857D01*
X106918095Y-30662619D01*
X106965714Y-30615000D01*
X107060952Y-30567380D01*
X107251428Y-30567380D01*
X107346666Y-30615000D01*
X107394285Y-30662619D01*
X107441904Y-30757857D01*
X107441904Y-30805476D01*
X107394285Y-30900714D01*
X107346666Y-30948333D01*
X107251428Y-30995952D01*
X107060952Y-30995952D01*
X106965714Y-31043571D01*
X106918095Y-31091190D01*
X106870476Y-31186428D01*
X106870476Y-31376904D01*
X106918095Y-31472142D01*
X106965714Y-31519761D01*
X107060952Y-31567380D01*
X107251428Y-31567380D01*
X107346666Y-31519761D01*
X107394285Y-31472142D01*
X107441904Y-31376904D01*
X107441904Y-31186428D01*
X107394285Y-31091190D01*
X107346666Y-31043571D01*
X107251428Y-30995952D01*
X107918095Y-31567380D02*
X108108571Y-31567380D01*
X108203809Y-31519761D01*
X108251428Y-31472142D01*
X108346666Y-31329285D01*
X108394285Y-31138809D01*
X108394285Y-30757857D01*
X108346666Y-30662619D01*
X108299047Y-30615000D01*
X108203809Y-30567380D01*
X108013333Y-30567380D01*
X107918095Y-30615000D01*
X107870476Y-30662619D01*
X107822857Y-30757857D01*
X107822857Y-30995952D01*
X107870476Y-31091190D01*
X107918095Y-31138809D01*
X108013333Y-31186428D01*
X108203809Y-31186428D01*
X108299047Y-31138809D01*
X108346666Y-31091190D01*
X108394285Y-30995952D01*
%TO.C,U4A1*%
X136017142Y-31567380D02*
X135445714Y-31567380D01*
X135731428Y-31567380D02*
X135731428Y-30567380D01*
X135636190Y-30710238D01*
X135540952Y-30805476D01*
X135445714Y-30853095D01*
X136874285Y-30900714D02*
X136874285Y-31567380D01*
X136636190Y-30519761D02*
X136398095Y-31234047D01*
X137017142Y-31234047D01*
X137540952Y-30995952D02*
X137445714Y-30948333D01*
X137398095Y-30900714D01*
X137350476Y-30805476D01*
X137350476Y-30757857D01*
X137398095Y-30662619D01*
X137445714Y-30615000D01*
X137540952Y-30567380D01*
X137731428Y-30567380D01*
X137826666Y-30615000D01*
X137874285Y-30662619D01*
X137921904Y-30757857D01*
X137921904Y-30805476D01*
X137874285Y-30900714D01*
X137826666Y-30948333D01*
X137731428Y-30995952D01*
X137540952Y-30995952D01*
X137445714Y-31043571D01*
X137398095Y-31091190D01*
X137350476Y-31186428D01*
X137350476Y-31376904D01*
X137398095Y-31472142D01*
X137445714Y-31519761D01*
X137540952Y-31567380D01*
X137731428Y-31567380D01*
X137826666Y-31519761D01*
X137874285Y-31472142D01*
X137921904Y-31376904D01*
X137921904Y-31186428D01*
X137874285Y-31091190D01*
X137826666Y-31043571D01*
X137731428Y-30995952D01*
X138493333Y-30995952D02*
X138398095Y-30948333D01*
X138350476Y-30900714D01*
X138302857Y-30805476D01*
X138302857Y-30757857D01*
X138350476Y-30662619D01*
X138398095Y-30615000D01*
X138493333Y-30567380D01*
X138683809Y-30567380D01*
X138779047Y-30615000D01*
X138826666Y-30662619D01*
X138874285Y-30757857D01*
X138874285Y-30805476D01*
X138826666Y-30900714D01*
X138779047Y-30948333D01*
X138683809Y-30995952D01*
X138493333Y-30995952D01*
X138398095Y-31043571D01*
X138350476Y-31091190D01*
X138302857Y-31186428D01*
X138302857Y-31376904D01*
X138350476Y-31472142D01*
X138398095Y-31519761D01*
X138493333Y-31567380D01*
X138683809Y-31567380D01*
X138779047Y-31519761D01*
X138826666Y-31472142D01*
X138874285Y-31376904D01*
X138874285Y-31186428D01*
X138826666Y-31091190D01*
X138779047Y-31043571D01*
X138683809Y-30995952D01*
%TO.C,C8*%
X128992380Y-130135000D02*
X129230476Y-130135000D01*
X129135238Y-130373095D02*
X129230476Y-130135000D01*
X129135238Y-129896904D01*
X129420952Y-130277857D02*
X129230476Y-130135000D01*
X129420952Y-129992142D01*
%TO.C,C7*%
X148677380Y-33695000D02*
X148915476Y-33695000D01*
X148820238Y-33933095D02*
X148915476Y-33695000D01*
X148820238Y-33456904D01*
X149105952Y-33837857D02*
X148915476Y-33695000D01*
X149105952Y-33552142D01*
%TO.C,C10*%
X123150000Y-105497380D02*
X123150000Y-105735476D01*
X122911904Y-105640238D02*
X123150000Y-105735476D01*
X123388095Y-105640238D01*
X123007142Y-105925952D02*
X123150000Y-105735476D01*
X123292857Y-105925952D01*
%TO.C,C3*%
X91293333Y-158472142D02*
X91245714Y-158519761D01*
X91102857Y-158567380D01*
X91007619Y-158567380D01*
X90864761Y-158519761D01*
X90769523Y-158424523D01*
X90721904Y-158329285D01*
X90674285Y-158138809D01*
X90674285Y-157995952D01*
X90721904Y-157805476D01*
X90769523Y-157710238D01*
X90864761Y-157615000D01*
X91007619Y-157567380D01*
X91102857Y-157567380D01*
X91245714Y-157615000D01*
X91293333Y-157662619D01*
X91626666Y-157567380D02*
X92245714Y-157567380D01*
X91912380Y-157948333D01*
X92055238Y-157948333D01*
X92150476Y-157995952D01*
X92198095Y-158043571D01*
X92245714Y-158138809D01*
X92245714Y-158376904D01*
X92198095Y-158472142D01*
X92150476Y-158519761D01*
X92055238Y-158567380D01*
X91769523Y-158567380D01*
X91674285Y-158519761D01*
X91626666Y-158472142D01*
X90055238Y-158837380D02*
X89864761Y-158837380D01*
X89769523Y-158885000D01*
X89721904Y-158932619D01*
X89626666Y-159075476D01*
X89579047Y-159265952D01*
X89579047Y-159646904D01*
X89626666Y-159742142D01*
X89674285Y-159789761D01*
X89769523Y-159837380D01*
X89960000Y-159837380D01*
X90055238Y-159789761D01*
X90102857Y-159742142D01*
X90150476Y-159646904D01*
X90150476Y-159408809D01*
X90102857Y-159313571D01*
X90055238Y-159265952D01*
X89960000Y-159218333D01*
X89769523Y-159218333D01*
X89674285Y-159265952D01*
X89626666Y-159313571D01*
X89579047Y-159408809D01*
X90579047Y-159742142D02*
X90626666Y-159789761D01*
X90579047Y-159837380D01*
X90531428Y-159789761D01*
X90579047Y-159742142D01*
X90579047Y-159837380D01*
X91198095Y-159265952D02*
X91102857Y-159218333D01*
X91055238Y-159170714D01*
X91007619Y-159075476D01*
X91007619Y-159027857D01*
X91055238Y-158932619D01*
X91102857Y-158885000D01*
X91198095Y-158837380D01*
X91388571Y-158837380D01*
X91483809Y-158885000D01*
X91531428Y-158932619D01*
X91579047Y-159027857D01*
X91579047Y-159075476D01*
X91531428Y-159170714D01*
X91483809Y-159218333D01*
X91388571Y-159265952D01*
X91198095Y-159265952D01*
X91102857Y-159313571D01*
X91055238Y-159361190D01*
X91007619Y-159456428D01*
X91007619Y-159646904D01*
X91055238Y-159742142D01*
X91102857Y-159789761D01*
X91198095Y-159837380D01*
X91388571Y-159837380D01*
X91483809Y-159789761D01*
X91531428Y-159742142D01*
X91579047Y-159646904D01*
X91579047Y-159456428D01*
X91531428Y-159361190D01*
X91483809Y-159313571D01*
X91388571Y-159265952D01*
X92436190Y-159170714D02*
X92436190Y-159837380D01*
X92007619Y-159170714D02*
X92007619Y-159694523D01*
X92055238Y-159789761D01*
X92150476Y-159837380D01*
X92293333Y-159837380D01*
X92388571Y-159789761D01*
X92436190Y-159742142D01*
X93245714Y-159313571D02*
X92912380Y-159313571D01*
X92912380Y-159837380D02*
X92912380Y-158837380D01*
X93388571Y-158837380D01*
%TO.C,C19*%
X82002380Y-61555000D02*
X82240476Y-61555000D01*
X82145238Y-61793095D02*
X82240476Y-61555000D01*
X82145238Y-61316904D01*
X82430952Y-61697857D02*
X82240476Y-61555000D01*
X82430952Y-61412142D01*
%TO.C,U2D1*%
X105084761Y-107767380D02*
X104608571Y-107767380D01*
X104608571Y-106767380D01*
X105370476Y-107719761D02*
X105513333Y-107767380D01*
X105751428Y-107767380D01*
X105846666Y-107719761D01*
X105894285Y-107672142D01*
X105941904Y-107576904D01*
X105941904Y-107481666D01*
X105894285Y-107386428D01*
X105846666Y-107338809D01*
X105751428Y-107291190D01*
X105560952Y-107243571D01*
X105465714Y-107195952D01*
X105418095Y-107148333D01*
X105370476Y-107053095D01*
X105370476Y-106957857D01*
X105418095Y-106862619D01*
X105465714Y-106815000D01*
X105560952Y-106767380D01*
X105799047Y-106767380D01*
X105941904Y-106815000D01*
X106894285Y-107767380D02*
X106322857Y-107767380D01*
X106608571Y-107767380D02*
X106608571Y-106767380D01*
X106513333Y-106910238D01*
X106418095Y-107005476D01*
X106322857Y-107053095D01*
X107227619Y-106767380D02*
X107894285Y-106767380D01*
X107465714Y-107767380D01*
X108751428Y-106767380D02*
X108275238Y-106767380D01*
X108227619Y-107243571D01*
X108275238Y-107195952D01*
X108370476Y-107148333D01*
X108608571Y-107148333D01*
X108703809Y-107195952D01*
X108751428Y-107243571D01*
X108799047Y-107338809D01*
X108799047Y-107576904D01*
X108751428Y-107672142D01*
X108703809Y-107719761D01*
X108608571Y-107767380D01*
X108370476Y-107767380D01*
X108275238Y-107719761D01*
X108227619Y-107672142D01*
%TO.C,C5*%
X143867142Y-41441666D02*
X143914761Y-41489285D01*
X143962380Y-41632142D01*
X143962380Y-41727380D01*
X143914761Y-41870238D01*
X143819523Y-41965476D01*
X143724285Y-42013095D01*
X143533809Y-42060714D01*
X143390952Y-42060714D01*
X143200476Y-42013095D01*
X143105238Y-41965476D01*
X143010000Y-41870238D01*
X142962380Y-41727380D01*
X142962380Y-41632142D01*
X143010000Y-41489285D01*
X143057619Y-41441666D01*
X142962380Y-40536904D02*
X142962380Y-41013095D01*
X143438571Y-41060714D01*
X143390952Y-41013095D01*
X143343333Y-40917857D01*
X143343333Y-40679761D01*
X143390952Y-40584523D01*
X143438571Y-40536904D01*
X143533809Y-40489285D01*
X143771904Y-40489285D01*
X143867142Y-40536904D01*
X143914761Y-40584523D01*
X143962380Y-40679761D01*
X143962380Y-40917857D01*
X143914761Y-41013095D01*
X143867142Y-41060714D01*
X143295714Y-47076904D02*
X143962380Y-47076904D01*
X142914761Y-47315000D02*
X143629047Y-47553095D01*
X143629047Y-46934047D01*
X142962380Y-46648333D02*
X142962380Y-45981666D01*
X143962380Y-46410238D01*
X142962380Y-45410238D02*
X142962380Y-45315000D01*
X143010000Y-45219761D01*
X143057619Y-45172142D01*
X143152857Y-45124523D01*
X143343333Y-45076904D01*
X143581428Y-45076904D01*
X143771904Y-45124523D01*
X143867142Y-45172142D01*
X143914761Y-45219761D01*
X143962380Y-45315000D01*
X143962380Y-45410238D01*
X143914761Y-45505476D01*
X143867142Y-45553095D01*
X143771904Y-45600714D01*
X143581428Y-45648333D01*
X143343333Y-45648333D01*
X143152857Y-45600714D01*
X143057619Y-45553095D01*
X143010000Y-45505476D01*
X142962380Y-45410238D01*
%TO.C,C6*%
X146407142Y-41441666D02*
X146454761Y-41489285D01*
X146502380Y-41632142D01*
X146502380Y-41727380D01*
X146454761Y-41870238D01*
X146359523Y-41965476D01*
X146264285Y-42013095D01*
X146073809Y-42060714D01*
X145930952Y-42060714D01*
X145740476Y-42013095D01*
X145645238Y-41965476D01*
X145550000Y-41870238D01*
X145502380Y-41727380D01*
X145502380Y-41632142D01*
X145550000Y-41489285D01*
X145597619Y-41441666D01*
X145502380Y-40584523D02*
X145502380Y-40775000D01*
X145550000Y-40870238D01*
X145597619Y-40917857D01*
X145740476Y-41013095D01*
X145930952Y-41060714D01*
X146311904Y-41060714D01*
X146407142Y-41013095D01*
X146454761Y-40965476D01*
X146502380Y-40870238D01*
X146502380Y-40679761D01*
X146454761Y-40584523D01*
X146407142Y-40536904D01*
X146311904Y-40489285D01*
X146073809Y-40489285D01*
X145978571Y-40536904D01*
X145930952Y-40584523D01*
X145883333Y-40679761D01*
X145883333Y-40870238D01*
X145930952Y-40965476D01*
X145978571Y-41013095D01*
X146073809Y-41060714D01*
X145835714Y-47076904D02*
X146502380Y-47076904D01*
X145454761Y-47315000D02*
X146169047Y-47553095D01*
X146169047Y-46934047D01*
X145502380Y-46648333D02*
X145502380Y-45981666D01*
X146502380Y-46410238D01*
X145502380Y-45410238D02*
X145502380Y-45315000D01*
X145550000Y-45219761D01*
X145597619Y-45172142D01*
X145692857Y-45124523D01*
X145883333Y-45076904D01*
X146121428Y-45076904D01*
X146311904Y-45124523D01*
X146407142Y-45172142D01*
X146454761Y-45219761D01*
X146502380Y-45315000D01*
X146502380Y-45410238D01*
X146454761Y-45505476D01*
X146407142Y-45553095D01*
X146311904Y-45600714D01*
X146121428Y-45648333D01*
X145883333Y-45648333D01*
X145692857Y-45600714D01*
X145597619Y-45553095D01*
X145550000Y-45505476D01*
X145502380Y-45410238D01*
%TO.C,C1*%
X137013333Y-158472142D02*
X136965714Y-158519761D01*
X136822857Y-158567380D01*
X136727619Y-158567380D01*
X136584761Y-158519761D01*
X136489523Y-158424523D01*
X136441904Y-158329285D01*
X136394285Y-158138809D01*
X136394285Y-157995952D01*
X136441904Y-157805476D01*
X136489523Y-157710238D01*
X136584761Y-157615000D01*
X136727619Y-157567380D01*
X136822857Y-157567380D01*
X136965714Y-157615000D01*
X137013333Y-157662619D01*
X137965714Y-158567380D02*
X137394285Y-158567380D01*
X137680000Y-158567380D02*
X137680000Y-157567380D01*
X137584761Y-157710238D01*
X137489523Y-157805476D01*
X137394285Y-157853095D01*
X135775238Y-158837380D02*
X135584761Y-158837380D01*
X135489523Y-158885000D01*
X135441904Y-158932619D01*
X135346666Y-159075476D01*
X135299047Y-159265952D01*
X135299047Y-159646904D01*
X135346666Y-159742142D01*
X135394285Y-159789761D01*
X135489523Y-159837380D01*
X135680000Y-159837380D01*
X135775238Y-159789761D01*
X135822857Y-159742142D01*
X135870476Y-159646904D01*
X135870476Y-159408809D01*
X135822857Y-159313571D01*
X135775238Y-159265952D01*
X135680000Y-159218333D01*
X135489523Y-159218333D01*
X135394285Y-159265952D01*
X135346666Y-159313571D01*
X135299047Y-159408809D01*
X136299047Y-159742142D02*
X136346666Y-159789761D01*
X136299047Y-159837380D01*
X136251428Y-159789761D01*
X136299047Y-159742142D01*
X136299047Y-159837380D01*
X136918095Y-159265952D02*
X136822857Y-159218333D01*
X136775238Y-159170714D01*
X136727619Y-159075476D01*
X136727619Y-159027857D01*
X136775238Y-158932619D01*
X136822857Y-158885000D01*
X136918095Y-158837380D01*
X137108571Y-158837380D01*
X137203809Y-158885000D01*
X137251428Y-158932619D01*
X137299047Y-159027857D01*
X137299047Y-159075476D01*
X137251428Y-159170714D01*
X137203809Y-159218333D01*
X137108571Y-159265952D01*
X136918095Y-159265952D01*
X136822857Y-159313571D01*
X136775238Y-159361190D01*
X136727619Y-159456428D01*
X136727619Y-159646904D01*
X136775238Y-159742142D01*
X136822857Y-159789761D01*
X136918095Y-159837380D01*
X137108571Y-159837380D01*
X137203809Y-159789761D01*
X137251428Y-159742142D01*
X137299047Y-159646904D01*
X137299047Y-159456428D01*
X137251428Y-159361190D01*
X137203809Y-159313571D01*
X137108571Y-159265952D01*
X138156190Y-159170714D02*
X138156190Y-159837380D01*
X137727619Y-159170714D02*
X137727619Y-159694523D01*
X137775238Y-159789761D01*
X137870476Y-159837380D01*
X138013333Y-159837380D01*
X138108571Y-159789761D01*
X138156190Y-159742142D01*
X138965714Y-159313571D02*
X138632380Y-159313571D01*
X138632380Y-159837380D02*
X138632380Y-158837380D01*
X139108571Y-158837380D01*
%TO.C,C4*%
X148947142Y-41441666D02*
X148994761Y-41489285D01*
X149042380Y-41632142D01*
X149042380Y-41727380D01*
X148994761Y-41870238D01*
X148899523Y-41965476D01*
X148804285Y-42013095D01*
X148613809Y-42060714D01*
X148470952Y-42060714D01*
X148280476Y-42013095D01*
X148185238Y-41965476D01*
X148090000Y-41870238D01*
X148042380Y-41727380D01*
X148042380Y-41632142D01*
X148090000Y-41489285D01*
X148137619Y-41441666D01*
X148375714Y-40584523D02*
X149042380Y-40584523D01*
X147994761Y-40822619D02*
X148709047Y-41060714D01*
X148709047Y-40441666D01*
X148375714Y-47076904D02*
X149042380Y-47076904D01*
X147994761Y-47315000D02*
X148709047Y-47553095D01*
X148709047Y-46934047D01*
X148042380Y-46648333D02*
X148042380Y-45981666D01*
X149042380Y-46410238D01*
X148042380Y-45410238D02*
X148042380Y-45315000D01*
X148090000Y-45219761D01*
X148137619Y-45172142D01*
X148232857Y-45124523D01*
X148423333Y-45076904D01*
X148661428Y-45076904D01*
X148851904Y-45124523D01*
X148947142Y-45172142D01*
X148994761Y-45219761D01*
X149042380Y-45315000D01*
X149042380Y-45410238D01*
X148994761Y-45505476D01*
X148947142Y-45553095D01*
X148851904Y-45600714D01*
X148661428Y-45648333D01*
X148423333Y-45648333D01*
X148232857Y-45600714D01*
X148137619Y-45553095D01*
X148090000Y-45505476D01*
X148042380Y-45410238D01*
%TO.C,C20*%
X145502380Y-33695000D02*
X145740476Y-33695000D01*
X145645238Y-33933095D02*
X145740476Y-33695000D01*
X145645238Y-33456904D01*
X145930952Y-33837857D02*
X145740476Y-33695000D01*
X145930952Y-33552142D01*
%TO.C,R3*%
X135723333Y-114117380D02*
X135390000Y-113641190D01*
X135151904Y-114117380D02*
X135151904Y-113117380D01*
X135532857Y-113117380D01*
X135628095Y-113165000D01*
X135675714Y-113212619D01*
X135723333Y-113307857D01*
X135723333Y-113450714D01*
X135675714Y-113545952D01*
X135628095Y-113593571D01*
X135532857Y-113641190D01*
X135151904Y-113641190D01*
X136056666Y-113117380D02*
X136675714Y-113117380D01*
X136342380Y-113498333D01*
X136485238Y-113498333D01*
X136580476Y-113545952D01*
X136628095Y-113593571D01*
X136675714Y-113688809D01*
X136675714Y-113926904D01*
X136628095Y-114022142D01*
X136580476Y-114069761D01*
X136485238Y-114117380D01*
X136199523Y-114117380D01*
X136104285Y-114069761D01*
X136056666Y-114022142D01*
X142271904Y-113212619D02*
X142319523Y-113165000D01*
X142414761Y-113117380D01*
X142652857Y-113117380D01*
X142748095Y-113165000D01*
X142795714Y-113212619D01*
X142843333Y-113307857D01*
X142843333Y-113403095D01*
X142795714Y-113545952D01*
X142224285Y-114117380D01*
X142843333Y-114117380D01*
X143224285Y-113212619D02*
X143271904Y-113165000D01*
X143367142Y-113117380D01*
X143605238Y-113117380D01*
X143700476Y-113165000D01*
X143748095Y-113212619D01*
X143795714Y-113307857D01*
X143795714Y-113403095D01*
X143748095Y-113545952D01*
X143176666Y-114117380D01*
X143795714Y-114117380D01*
X144414761Y-113117380D02*
X144510000Y-113117380D01*
X144605238Y-113165000D01*
X144652857Y-113212619D01*
X144700476Y-113307857D01*
X144748095Y-113498333D01*
X144748095Y-113736428D01*
X144700476Y-113926904D01*
X144652857Y-114022142D01*
X144605238Y-114069761D01*
X144510000Y-114117380D01*
X144414761Y-114117380D01*
X144319523Y-114069761D01*
X144271904Y-114022142D01*
X144224285Y-113926904D01*
X144176666Y-113736428D01*
X144176666Y-113498333D01*
X144224285Y-113307857D01*
X144271904Y-113212619D01*
X144319523Y-113165000D01*
X144414761Y-113117380D01*
%TO.C,R4*%
X135723333Y-111577380D02*
X135390000Y-111101190D01*
X135151904Y-111577380D02*
X135151904Y-110577380D01*
X135532857Y-110577380D01*
X135628095Y-110625000D01*
X135675714Y-110672619D01*
X135723333Y-110767857D01*
X135723333Y-110910714D01*
X135675714Y-111005952D01*
X135628095Y-111053571D01*
X135532857Y-111101190D01*
X135151904Y-111101190D01*
X136580476Y-110910714D02*
X136580476Y-111577380D01*
X136342380Y-110529761D02*
X136104285Y-111244047D01*
X136723333Y-111244047D01*
X142200476Y-111577380D02*
X142390952Y-111577380D01*
X142486190Y-111529761D01*
X142533809Y-111482142D01*
X142629047Y-111339285D01*
X142676666Y-111148809D01*
X142676666Y-110767857D01*
X142629047Y-110672619D01*
X142581428Y-110625000D01*
X142486190Y-110577380D01*
X142295714Y-110577380D01*
X142200476Y-110625000D01*
X142152857Y-110672619D01*
X142105238Y-110767857D01*
X142105238Y-111005952D01*
X142152857Y-111101190D01*
X142200476Y-111148809D01*
X142295714Y-111196428D01*
X142486190Y-111196428D01*
X142581428Y-111148809D01*
X142629047Y-111101190D01*
X142676666Y-111005952D01*
X143105238Y-111482142D02*
X143152857Y-111529761D01*
X143105238Y-111577380D01*
X143057619Y-111529761D01*
X143105238Y-111482142D01*
X143105238Y-111577380D01*
X144105238Y-111577380D02*
X143533809Y-111577380D01*
X143819523Y-111577380D02*
X143819523Y-110577380D01*
X143724285Y-110720238D01*
X143629047Y-110815476D01*
X143533809Y-110863095D01*
X144533809Y-111577380D02*
X144533809Y-110577380D01*
X144629047Y-111196428D02*
X144914761Y-111577380D01*
X144914761Y-110910714D02*
X144533809Y-111291666D01*
%TO.C,U1E1*%
X89844761Y-133167380D02*
X89368571Y-133167380D01*
X89368571Y-132167380D01*
X90130476Y-133119761D02*
X90273333Y-133167380D01*
X90511428Y-133167380D01*
X90606666Y-133119761D01*
X90654285Y-133072142D01*
X90701904Y-132976904D01*
X90701904Y-132881666D01*
X90654285Y-132786428D01*
X90606666Y-132738809D01*
X90511428Y-132691190D01*
X90320952Y-132643571D01*
X90225714Y-132595952D01*
X90178095Y-132548333D01*
X90130476Y-132453095D01*
X90130476Y-132357857D01*
X90178095Y-132262619D01*
X90225714Y-132215000D01*
X90320952Y-132167380D01*
X90559047Y-132167380D01*
X90701904Y-132215000D01*
X91654285Y-133167380D02*
X91082857Y-133167380D01*
X91368571Y-133167380D02*
X91368571Y-132167380D01*
X91273333Y-132310238D01*
X91178095Y-132405476D01*
X91082857Y-132453095D01*
X91987619Y-132167380D02*
X92654285Y-132167380D01*
X92225714Y-133167380D01*
X93463809Y-132500714D02*
X93463809Y-133167380D01*
X93225714Y-132119761D02*
X92987619Y-132834047D01*
X93606666Y-132834047D01*
%TO.C,U3C1*%
X116022380Y-87320238D02*
X116022380Y-87796428D01*
X115022380Y-87796428D01*
X115974761Y-87034523D02*
X116022380Y-86891666D01*
X116022380Y-86653571D01*
X115974761Y-86558333D01*
X115927142Y-86510714D01*
X115831904Y-86463095D01*
X115736666Y-86463095D01*
X115641428Y-86510714D01*
X115593809Y-86558333D01*
X115546190Y-86653571D01*
X115498571Y-86844047D01*
X115450952Y-86939285D01*
X115403333Y-86986904D01*
X115308095Y-87034523D01*
X115212857Y-87034523D01*
X115117619Y-86986904D01*
X115070000Y-86939285D01*
X115022380Y-86844047D01*
X115022380Y-86605952D01*
X115070000Y-86463095D01*
X116022380Y-85510714D02*
X116022380Y-86082142D01*
X116022380Y-85796428D02*
X115022380Y-85796428D01*
X115165238Y-85891666D01*
X115260476Y-85986904D01*
X115308095Y-86082142D01*
X115022380Y-85177380D02*
X115022380Y-84558333D01*
X115403333Y-84891666D01*
X115403333Y-84748809D01*
X115450952Y-84653571D01*
X115498571Y-84605952D01*
X115593809Y-84558333D01*
X115831904Y-84558333D01*
X115927142Y-84605952D01*
X115974761Y-84653571D01*
X116022380Y-84748809D01*
X116022380Y-85034523D01*
X115974761Y-85129761D01*
X115927142Y-85177380D01*
X115450952Y-83986904D02*
X115403333Y-84082142D01*
X115355714Y-84129761D01*
X115260476Y-84177380D01*
X115212857Y-84177380D01*
X115117619Y-84129761D01*
X115070000Y-84082142D01*
X115022380Y-83986904D01*
X115022380Y-83796428D01*
X115070000Y-83701190D01*
X115117619Y-83653571D01*
X115212857Y-83605952D01*
X115260476Y-83605952D01*
X115355714Y-83653571D01*
X115403333Y-83701190D01*
X115450952Y-83796428D01*
X115450952Y-83986904D01*
X115498571Y-84082142D01*
X115546190Y-84129761D01*
X115641428Y-84177380D01*
X115831904Y-84177380D01*
X115927142Y-84129761D01*
X115974761Y-84082142D01*
X116022380Y-83986904D01*
X116022380Y-83796428D01*
X115974761Y-83701190D01*
X115927142Y-83653571D01*
X115831904Y-83605952D01*
X115641428Y-83605952D01*
X115546190Y-83653571D01*
X115498571Y-83701190D01*
X115450952Y-83796428D01*
%TO.C,P.GND*%
X142756190Y-119197380D02*
X142756190Y-118197380D01*
X143137142Y-118197380D01*
X143232380Y-118245000D01*
X143280000Y-118292619D01*
X143327619Y-118387857D01*
X143327619Y-118530714D01*
X143280000Y-118625952D01*
X143232380Y-118673571D01*
X143137142Y-118721190D01*
X142756190Y-118721190D01*
X143756190Y-119102142D02*
X143803809Y-119149761D01*
X143756190Y-119197380D01*
X143708571Y-119149761D01*
X143756190Y-119102142D01*
X143756190Y-119197380D01*
X144756190Y-118245000D02*
X144660952Y-118197380D01*
X144518095Y-118197380D01*
X144375238Y-118245000D01*
X144280000Y-118340238D01*
X144232380Y-118435476D01*
X144184761Y-118625952D01*
X144184761Y-118768809D01*
X144232380Y-118959285D01*
X144280000Y-119054523D01*
X144375238Y-119149761D01*
X144518095Y-119197380D01*
X144613333Y-119197380D01*
X144756190Y-119149761D01*
X144803809Y-119102142D01*
X144803809Y-118768809D01*
X144613333Y-118768809D01*
X145232380Y-119197380D02*
X145232380Y-118197380D01*
X145803809Y-119197380D01*
X145803809Y-118197380D01*
X146280000Y-119197380D02*
X146280000Y-118197380D01*
X146518095Y-118197380D01*
X146660952Y-118245000D01*
X146756190Y-118340238D01*
X146803809Y-118435476D01*
X146851428Y-118625952D01*
X146851428Y-118768809D01*
X146803809Y-118959285D01*
X146756190Y-119054523D01*
X146660952Y-119149761D01*
X146518095Y-119197380D01*
X146280000Y-119197380D01*
%TO.C,C9*%
X123190000Y-130897380D02*
X123190000Y-131135476D01*
X122951904Y-131040238D02*
X123190000Y-131135476D01*
X123428095Y-131040238D01*
X123047142Y-131325952D02*
X123190000Y-131135476D01*
X123332857Y-131325952D01*
%TO.C,R5*%
X131262380Y-31916666D02*
X130786190Y-32250000D01*
X131262380Y-32488095D02*
X130262380Y-32488095D01*
X130262380Y-32107142D01*
X130310000Y-32011904D01*
X130357619Y-31964285D01*
X130452857Y-31916666D01*
X130595714Y-31916666D01*
X130690952Y-31964285D01*
X130738571Y-32011904D01*
X130786190Y-32107142D01*
X130786190Y-32488095D01*
X130262380Y-31011904D02*
X130262380Y-31488095D01*
X130738571Y-31535714D01*
X130690952Y-31488095D01*
X130643333Y-31392857D01*
X130643333Y-31154761D01*
X130690952Y-31059523D01*
X130738571Y-31011904D01*
X130833809Y-30964285D01*
X131071904Y-30964285D01*
X131167142Y-31011904D01*
X131214761Y-31059523D01*
X131262380Y-31154761D01*
X131262380Y-31392857D01*
X131214761Y-31488095D01*
X131167142Y-31535714D01*
X130262380Y-42155952D02*
X130262380Y-42632142D01*
X130738571Y-42679761D01*
X130690952Y-42632142D01*
X130643333Y-42536904D01*
X130643333Y-42298809D01*
X130690952Y-42203571D01*
X130738571Y-42155952D01*
X130833809Y-42108333D01*
X131071904Y-42108333D01*
X131167142Y-42155952D01*
X131214761Y-42203571D01*
X131262380Y-42298809D01*
X131262380Y-42536904D01*
X131214761Y-42632142D01*
X131167142Y-42679761D01*
X131167142Y-41679761D02*
X131214761Y-41632142D01*
X131262380Y-41679761D01*
X131214761Y-41727380D01*
X131167142Y-41679761D01*
X131262380Y-41679761D01*
X130262380Y-40775000D02*
X130262380Y-40965476D01*
X130310000Y-41060714D01*
X130357619Y-41108333D01*
X130500476Y-41203571D01*
X130690952Y-41251190D01*
X131071904Y-41251190D01*
X131167142Y-41203571D01*
X131214761Y-41155952D01*
X131262380Y-41060714D01*
X131262380Y-40870238D01*
X131214761Y-40775000D01*
X131167142Y-40727380D01*
X131071904Y-40679761D01*
X130833809Y-40679761D01*
X130738571Y-40727380D01*
X130690952Y-40775000D01*
X130643333Y-40870238D01*
X130643333Y-41060714D01*
X130690952Y-41155952D01*
X130738571Y-41203571D01*
X130833809Y-41251190D01*
X131262380Y-40251190D02*
X130262380Y-40251190D01*
X130881428Y-40155952D02*
X131262380Y-39870238D01*
X130595714Y-39870238D02*
X130976666Y-40251190D01*
%TO.C,R2*%
X135723333Y-116657380D02*
X135390000Y-116181190D01*
X135151904Y-116657380D02*
X135151904Y-115657380D01*
X135532857Y-115657380D01*
X135628095Y-115705000D01*
X135675714Y-115752619D01*
X135723333Y-115847857D01*
X135723333Y-115990714D01*
X135675714Y-116085952D01*
X135628095Y-116133571D01*
X135532857Y-116181190D01*
X135151904Y-116181190D01*
X136104285Y-115752619D02*
X136151904Y-115705000D01*
X136247142Y-115657380D01*
X136485238Y-115657380D01*
X136580476Y-115705000D01*
X136628095Y-115752619D01*
X136675714Y-115847857D01*
X136675714Y-115943095D01*
X136628095Y-116085952D01*
X136056666Y-116657380D01*
X136675714Y-116657380D01*
X142795714Y-115657380D02*
X142319523Y-115657380D01*
X142271904Y-116133571D01*
X142319523Y-116085952D01*
X142414761Y-116038333D01*
X142652857Y-116038333D01*
X142748095Y-116085952D01*
X142795714Y-116133571D01*
X142843333Y-116228809D01*
X142843333Y-116466904D01*
X142795714Y-116562142D01*
X142748095Y-116609761D01*
X142652857Y-116657380D01*
X142414761Y-116657380D01*
X142319523Y-116609761D01*
X142271904Y-116562142D01*
X143700476Y-115657380D02*
X143510000Y-115657380D01*
X143414761Y-115705000D01*
X143367142Y-115752619D01*
X143271904Y-115895476D01*
X143224285Y-116085952D01*
X143224285Y-116466904D01*
X143271904Y-116562142D01*
X143319523Y-116609761D01*
X143414761Y-116657380D01*
X143605238Y-116657380D01*
X143700476Y-116609761D01*
X143748095Y-116562142D01*
X143795714Y-116466904D01*
X143795714Y-116228809D01*
X143748095Y-116133571D01*
X143700476Y-116085952D01*
X143605238Y-116038333D01*
X143414761Y-116038333D01*
X143319523Y-116085952D01*
X143271904Y-116133571D01*
X143224285Y-116228809D01*
X144414761Y-115657380D02*
X144510000Y-115657380D01*
X144605238Y-115705000D01*
X144652857Y-115752619D01*
X144700476Y-115847857D01*
X144748095Y-116038333D01*
X144748095Y-116276428D01*
X144700476Y-116466904D01*
X144652857Y-116562142D01*
X144605238Y-116609761D01*
X144510000Y-116657380D01*
X144414761Y-116657380D01*
X144319523Y-116609761D01*
X144271904Y-116562142D01*
X144224285Y-116466904D01*
X144176666Y-116276428D01*
X144176666Y-116038333D01*
X144224285Y-115847857D01*
X144271904Y-115752619D01*
X144319523Y-115705000D01*
X144414761Y-115657380D01*
%TO.C,W1*%
X137525238Y-50887380D02*
X137763333Y-51887380D01*
X137953809Y-51173095D01*
X138144285Y-51887380D01*
X138382380Y-50887380D01*
X139287142Y-51887380D02*
X138715714Y-51887380D01*
X139001428Y-51887380D02*
X139001428Y-50887380D01*
X138906190Y-51030238D01*
X138810952Y-51125476D01*
X138715714Y-51173095D01*
%TO.C,C2*%
X144633333Y-158472142D02*
X144585714Y-158519761D01*
X144442857Y-158567380D01*
X144347619Y-158567380D01*
X144204761Y-158519761D01*
X144109523Y-158424523D01*
X144061904Y-158329285D01*
X144014285Y-158138809D01*
X144014285Y-157995952D01*
X144061904Y-157805476D01*
X144109523Y-157710238D01*
X144204761Y-157615000D01*
X144347619Y-157567380D01*
X144442857Y-157567380D01*
X144585714Y-157615000D01*
X144633333Y-157662619D01*
X145014285Y-157662619D02*
X145061904Y-157615000D01*
X145157142Y-157567380D01*
X145395238Y-157567380D01*
X145490476Y-157615000D01*
X145538095Y-157662619D01*
X145585714Y-157757857D01*
X145585714Y-157853095D01*
X145538095Y-157995952D01*
X144966666Y-158567380D01*
X145585714Y-158567380D01*
X143395238Y-158837380D02*
X143204761Y-158837380D01*
X143109523Y-158885000D01*
X143061904Y-158932619D01*
X142966666Y-159075476D01*
X142919047Y-159265952D01*
X142919047Y-159646904D01*
X142966666Y-159742142D01*
X143014285Y-159789761D01*
X143109523Y-159837380D01*
X143300000Y-159837380D01*
X143395238Y-159789761D01*
X143442857Y-159742142D01*
X143490476Y-159646904D01*
X143490476Y-159408809D01*
X143442857Y-159313571D01*
X143395238Y-159265952D01*
X143300000Y-159218333D01*
X143109523Y-159218333D01*
X143014285Y-159265952D01*
X142966666Y-159313571D01*
X142919047Y-159408809D01*
X143919047Y-159742142D02*
X143966666Y-159789761D01*
X143919047Y-159837380D01*
X143871428Y-159789761D01*
X143919047Y-159742142D01*
X143919047Y-159837380D01*
X144538095Y-159265952D02*
X144442857Y-159218333D01*
X144395238Y-159170714D01*
X144347619Y-159075476D01*
X144347619Y-159027857D01*
X144395238Y-158932619D01*
X144442857Y-158885000D01*
X144538095Y-158837380D01*
X144728571Y-158837380D01*
X144823809Y-158885000D01*
X144871428Y-158932619D01*
X144919047Y-159027857D01*
X144919047Y-159075476D01*
X144871428Y-159170714D01*
X144823809Y-159218333D01*
X144728571Y-159265952D01*
X144538095Y-159265952D01*
X144442857Y-159313571D01*
X144395238Y-159361190D01*
X144347619Y-159456428D01*
X144347619Y-159646904D01*
X144395238Y-159742142D01*
X144442857Y-159789761D01*
X144538095Y-159837380D01*
X144728571Y-159837380D01*
X144823809Y-159789761D01*
X144871428Y-159742142D01*
X144919047Y-159646904D01*
X144919047Y-159456428D01*
X144871428Y-159361190D01*
X144823809Y-159313571D01*
X144728571Y-159265952D01*
X145776190Y-159170714D02*
X145776190Y-159837380D01*
X145347619Y-159170714D02*
X145347619Y-159694523D01*
X145395238Y-159789761D01*
X145490476Y-159837380D01*
X145633333Y-159837380D01*
X145728571Y-159789761D01*
X145776190Y-159742142D01*
X146585714Y-159313571D02*
X146252380Y-159313571D01*
X146252380Y-159837380D02*
X146252380Y-158837380D01*
X146728571Y-158837380D01*
%TO.C,U4E1*%
X139017619Y-120530952D02*
X138922380Y-120483333D01*
X138874761Y-120435714D01*
X138827142Y-120340476D01*
X138827142Y-120292857D01*
X138874761Y-120197619D01*
X138922380Y-120150000D01*
X139017619Y-120102380D01*
X139208095Y-120102380D01*
X139303333Y-120150000D01*
X139350952Y-120197619D01*
X139398571Y-120292857D01*
X139398571Y-120340476D01*
X139350952Y-120435714D01*
X139303333Y-120483333D01*
X139208095Y-120530952D01*
X139017619Y-120530952D01*
X138922380Y-120578571D01*
X138874761Y-120626190D01*
X138827142Y-120721428D01*
X138827142Y-120911904D01*
X138874761Y-121007142D01*
X138922380Y-121054761D01*
X139017619Y-121102380D01*
X139208095Y-121102380D01*
X139303333Y-121054761D01*
X139350952Y-121007142D01*
X139398571Y-120911904D01*
X139398571Y-120721428D01*
X139350952Y-120626190D01*
X139303333Y-120578571D01*
X139208095Y-120530952D01*
X139779523Y-120197619D02*
X139827142Y-120150000D01*
X139922380Y-120102380D01*
X140160476Y-120102380D01*
X140255714Y-120150000D01*
X140303333Y-120197619D01*
X140350952Y-120292857D01*
X140350952Y-120388095D01*
X140303333Y-120530952D01*
X139731904Y-121102380D01*
X140350952Y-121102380D01*
X141255714Y-120102380D02*
X140779523Y-120102380D01*
X140731904Y-120578571D01*
X140779523Y-120530952D01*
X140874761Y-120483333D01*
X141112857Y-120483333D01*
X141208095Y-120530952D01*
X141255714Y-120578571D01*
X141303333Y-120673809D01*
X141303333Y-120911904D01*
X141255714Y-121007142D01*
X141208095Y-121054761D01*
X141112857Y-121102380D01*
X140874761Y-121102380D01*
X140779523Y-121054761D01*
X140731904Y-121007142D01*
X142255714Y-121102380D02*
X141684285Y-121102380D01*
X141970000Y-121102380D02*
X141970000Y-120102380D01*
X141874761Y-120245238D01*
X141779523Y-120340476D01*
X141684285Y-120388095D01*
X142636666Y-120816666D02*
X143112857Y-120816666D01*
X142541428Y-121102380D02*
X142874761Y-120102380D01*
X143208095Y-121102380D01*
%TO.C,U1C1*%
X89844761Y-82367380D02*
X89368571Y-82367380D01*
X89368571Y-81367380D01*
X90130476Y-82319761D02*
X90273333Y-82367380D01*
X90511428Y-82367380D01*
X90606666Y-82319761D01*
X90654285Y-82272142D01*
X90701904Y-82176904D01*
X90701904Y-82081666D01*
X90654285Y-81986428D01*
X90606666Y-81938809D01*
X90511428Y-81891190D01*
X90320952Y-81843571D01*
X90225714Y-81795952D01*
X90178095Y-81748333D01*
X90130476Y-81653095D01*
X90130476Y-81557857D01*
X90178095Y-81462619D01*
X90225714Y-81415000D01*
X90320952Y-81367380D01*
X90559047Y-81367380D01*
X90701904Y-81415000D01*
X91654285Y-82367380D02*
X91082857Y-82367380D01*
X91368571Y-82367380D02*
X91368571Y-81367380D01*
X91273333Y-81510238D01*
X91178095Y-81605476D01*
X91082857Y-81653095D01*
X92511428Y-81367380D02*
X92320952Y-81367380D01*
X92225714Y-81415000D01*
X92178095Y-81462619D01*
X92082857Y-81605476D01*
X92035238Y-81795952D01*
X92035238Y-82176904D01*
X92082857Y-82272142D01*
X92130476Y-82319761D01*
X92225714Y-82367380D01*
X92416190Y-82367380D01*
X92511428Y-82319761D01*
X92559047Y-82272142D01*
X92606666Y-82176904D01*
X92606666Y-81938809D01*
X92559047Y-81843571D01*
X92511428Y-81795952D01*
X92416190Y-81748333D01*
X92225714Y-81748333D01*
X92130476Y-81795952D01*
X92082857Y-81843571D01*
X92035238Y-81938809D01*
X93559047Y-82367380D02*
X92987619Y-82367380D01*
X93273333Y-82367380D02*
X93273333Y-81367380D01*
X93178095Y-81510238D01*
X93082857Y-81605476D01*
X92987619Y-81653095D01*
%TO.C,C18*%
X82002380Y-86955000D02*
X82240476Y-86955000D01*
X82145238Y-87193095D02*
X82240476Y-86955000D01*
X82145238Y-86716904D01*
X82430952Y-87097857D02*
X82240476Y-86955000D01*
X82430952Y-86812142D01*
%TO.C,C17*%
X82002380Y-112355000D02*
X82240476Y-112355000D01*
X82145238Y-112593095D02*
X82240476Y-112355000D01*
X82145238Y-112116904D01*
X82430952Y-112497857D02*
X82240476Y-112355000D01*
X82430952Y-112212142D01*
%TO.C,U3E1*%
X116657380Y-138120238D02*
X116657380Y-138596428D01*
X115657380Y-138596428D01*
X116609761Y-137834523D02*
X116657380Y-137691666D01*
X116657380Y-137453571D01*
X116609761Y-137358333D01*
X116562142Y-137310714D01*
X116466904Y-137263095D01*
X116371666Y-137263095D01*
X116276428Y-137310714D01*
X116228809Y-137358333D01*
X116181190Y-137453571D01*
X116133571Y-137644047D01*
X116085952Y-137739285D01*
X116038333Y-137786904D01*
X115943095Y-137834523D01*
X115847857Y-137834523D01*
X115752619Y-137786904D01*
X115705000Y-137739285D01*
X115657380Y-137644047D01*
X115657380Y-137405952D01*
X115705000Y-137263095D01*
X115752619Y-136882142D02*
X115705000Y-136834523D01*
X115657380Y-136739285D01*
X115657380Y-136501190D01*
X115705000Y-136405952D01*
X115752619Y-136358333D01*
X115847857Y-136310714D01*
X115943095Y-136310714D01*
X116085952Y-136358333D01*
X116657380Y-136929761D01*
X116657380Y-136310714D01*
X115990714Y-135453571D02*
X116657380Y-135453571D01*
X115609761Y-135691666D02*
X116324047Y-135929761D01*
X116324047Y-135310714D01*
X115657380Y-135025000D02*
X115657380Y-134405952D01*
X116038333Y-134739285D01*
X116038333Y-134596428D01*
X116085952Y-134501190D01*
X116133571Y-134453571D01*
X116228809Y-134405952D01*
X116466904Y-134405952D01*
X116562142Y-134453571D01*
X116609761Y-134501190D01*
X116657380Y-134596428D01*
X116657380Y-134882142D01*
X116609761Y-134977380D01*
X116562142Y-135025000D01*
%TO.C,GND*%
X147193095Y-157615000D02*
X147097857Y-157567380D01*
X146955000Y-157567380D01*
X146812142Y-157615000D01*
X146716904Y-157710238D01*
X146669285Y-157805476D01*
X146621666Y-157995952D01*
X146621666Y-158138809D01*
X146669285Y-158329285D01*
X146716904Y-158424523D01*
X146812142Y-158519761D01*
X146955000Y-158567380D01*
X147050238Y-158567380D01*
X147193095Y-158519761D01*
X147240714Y-158472142D01*
X147240714Y-158138809D01*
X147050238Y-158138809D01*
X147669285Y-158567380D02*
X147669285Y-157567380D01*
X148240714Y-158567380D01*
X148240714Y-157567380D01*
X148716904Y-158567380D02*
X148716904Y-157567380D01*
X148955000Y-157567380D01*
X149097857Y-157615000D01*
X149193095Y-157710238D01*
X149240714Y-157805476D01*
X149288333Y-157995952D01*
X149288333Y-158138809D01*
X149240714Y-158329285D01*
X149193095Y-158424523D01*
X149097857Y-158519761D01*
X148955000Y-158567380D01*
X148716904Y-158567380D01*
%TO.C,U3B1*%
X120800952Y-56967380D02*
X120324761Y-56967380D01*
X120324761Y-55967380D01*
X121086666Y-56919761D02*
X121229523Y-56967380D01*
X121467619Y-56967380D01*
X121562857Y-56919761D01*
X121610476Y-56872142D01*
X121658095Y-56776904D01*
X121658095Y-56681666D01*
X121610476Y-56586428D01*
X121562857Y-56538809D01*
X121467619Y-56491190D01*
X121277142Y-56443571D01*
X121181904Y-56395952D01*
X121134285Y-56348333D01*
X121086666Y-56253095D01*
X121086666Y-56157857D01*
X121134285Y-56062619D01*
X121181904Y-56015000D01*
X121277142Y-55967380D01*
X121515238Y-55967380D01*
X121658095Y-56015000D01*
X122277142Y-55967380D02*
X122372380Y-55967380D01*
X122467619Y-56015000D01*
X122515238Y-56062619D01*
X122562857Y-56157857D01*
X122610476Y-56348333D01*
X122610476Y-56586428D01*
X122562857Y-56776904D01*
X122515238Y-56872142D01*
X122467619Y-56919761D01*
X122372380Y-56967380D01*
X122277142Y-56967380D01*
X122181904Y-56919761D01*
X122134285Y-56872142D01*
X122086666Y-56776904D01*
X122039047Y-56586428D01*
X122039047Y-56348333D01*
X122086666Y-56157857D01*
X122134285Y-56062619D01*
X122181904Y-56015000D01*
X122277142Y-55967380D01*
X123229523Y-55967380D02*
X123324761Y-55967380D01*
X123420000Y-56015000D01*
X123467619Y-56062619D01*
X123515238Y-56157857D01*
X123562857Y-56348333D01*
X123562857Y-56586428D01*
X123515238Y-56776904D01*
X123467619Y-56872142D01*
X123420000Y-56919761D01*
X123324761Y-56967380D01*
X123229523Y-56967380D01*
X123134285Y-56919761D01*
X123086666Y-56872142D01*
X123039047Y-56776904D01*
X122991428Y-56586428D01*
X122991428Y-56348333D01*
X123039047Y-56157857D01*
X123086666Y-56062619D01*
X123134285Y-56015000D01*
X123229523Y-55967380D01*
%TO.C,J1A1*%
X89820952Y-31472142D02*
X89773333Y-31519761D01*
X89630476Y-31567380D01*
X89535238Y-31567380D01*
X89392380Y-31519761D01*
X89297142Y-31424523D01*
X89249523Y-31329285D01*
X89201904Y-31138809D01*
X89201904Y-30995952D01*
X89249523Y-30805476D01*
X89297142Y-30710238D01*
X89392380Y-30615000D01*
X89535238Y-30567380D01*
X89630476Y-30567380D01*
X89773333Y-30615000D01*
X89820952Y-30662619D01*
X90725714Y-31567380D02*
X90249523Y-31567380D01*
X90249523Y-30567380D01*
X91249523Y-30567380D02*
X91440000Y-30567380D01*
X91535238Y-30615000D01*
X91630476Y-30710238D01*
X91678095Y-30900714D01*
X91678095Y-31234047D01*
X91630476Y-31424523D01*
X91535238Y-31519761D01*
X91440000Y-31567380D01*
X91249523Y-31567380D01*
X91154285Y-31519761D01*
X91059047Y-31424523D01*
X91011428Y-31234047D01*
X91011428Y-30900714D01*
X91059047Y-30710238D01*
X91154285Y-30615000D01*
X91249523Y-30567380D01*
X92678095Y-31472142D02*
X92630476Y-31519761D01*
X92487619Y-31567380D01*
X92392380Y-31567380D01*
X92249523Y-31519761D01*
X92154285Y-31424523D01*
X92106666Y-31329285D01*
X92059047Y-31138809D01*
X92059047Y-30995952D01*
X92106666Y-30805476D01*
X92154285Y-30710238D01*
X92249523Y-30615000D01*
X92392380Y-30567380D01*
X92487619Y-30567380D01*
X92630476Y-30615000D01*
X92678095Y-30662619D01*
X93106666Y-31567380D02*
X93106666Y-30567380D01*
X93678095Y-31567380D02*
X93249523Y-30995952D01*
X93678095Y-30567380D02*
X93106666Y-31138809D01*
%TO.C,J3A1*%
X120015238Y-31472142D02*
X119967619Y-31519761D01*
X119824761Y-31567380D01*
X119729523Y-31567380D01*
X119586666Y-31519761D01*
X119491428Y-31424523D01*
X119443809Y-31329285D01*
X119396190Y-31138809D01*
X119396190Y-30995952D01*
X119443809Y-30805476D01*
X119491428Y-30710238D01*
X119586666Y-30615000D01*
X119729523Y-30567380D01*
X119824761Y-30567380D01*
X119967619Y-30615000D01*
X120015238Y-30662619D01*
X120634285Y-30567380D02*
X120824761Y-30567380D01*
X120920000Y-30615000D01*
X121015238Y-30710238D01*
X121062857Y-30900714D01*
X121062857Y-31234047D01*
X121015238Y-31424523D01*
X120920000Y-31519761D01*
X120824761Y-31567380D01*
X120634285Y-31567380D01*
X120539047Y-31519761D01*
X120443809Y-31424523D01*
X120396190Y-31234047D01*
X120396190Y-30900714D01*
X120443809Y-30710238D01*
X120539047Y-30615000D01*
X120634285Y-30567380D01*
X121491428Y-31567380D02*
X121491428Y-30567380D01*
X122062857Y-31567380D01*
X122062857Y-30567380D01*
X122872380Y-31043571D02*
X122539047Y-31043571D01*
X122539047Y-31567380D02*
X122539047Y-30567380D01*
X123015238Y-30567380D01*
X123396190Y-31567380D02*
X123396190Y-30567380D01*
X124396190Y-30615000D02*
X124300952Y-30567380D01*
X124158095Y-30567380D01*
X124015238Y-30615000D01*
X123920000Y-30710238D01*
X123872380Y-30805476D01*
X123824761Y-30995952D01*
X123824761Y-31138809D01*
X123872380Y-31329285D01*
X123920000Y-31424523D01*
X124015238Y-31519761D01*
X124158095Y-31567380D01*
X124253333Y-31567380D01*
X124396190Y-31519761D01*
X124443809Y-31472142D01*
X124443809Y-31138809D01*
X124253333Y-31138809D01*
%TO.C,R6*%
X116022380Y-49061666D02*
X115546190Y-49395000D01*
X116022380Y-49633095D02*
X115022380Y-49633095D01*
X115022380Y-49252142D01*
X115070000Y-49156904D01*
X115117619Y-49109285D01*
X115212857Y-49061666D01*
X115355714Y-49061666D01*
X115450952Y-49109285D01*
X115498571Y-49156904D01*
X115546190Y-49252142D01*
X115546190Y-49633095D01*
X115022380Y-48204523D02*
X115022380Y-48395000D01*
X115070000Y-48490238D01*
X115117619Y-48537857D01*
X115260476Y-48633095D01*
X115450952Y-48680714D01*
X115831904Y-48680714D01*
X115927142Y-48633095D01*
X115974761Y-48585476D01*
X116022380Y-48490238D01*
X116022380Y-48299761D01*
X115974761Y-48204523D01*
X115927142Y-48156904D01*
X115831904Y-48109285D01*
X115593809Y-48109285D01*
X115498571Y-48156904D01*
X115450952Y-48204523D01*
X115403333Y-48299761D01*
X115403333Y-48490238D01*
X115450952Y-48585476D01*
X115498571Y-48633095D01*
X115593809Y-48680714D01*
X116022380Y-38854047D02*
X116022380Y-39425476D01*
X116022380Y-39139761D02*
X115022380Y-39139761D01*
X115165238Y-39235000D01*
X115260476Y-39330238D01*
X115308095Y-39425476D01*
X116022380Y-38425476D02*
X115022380Y-38425476D01*
X115641428Y-38330238D02*
X116022380Y-38044523D01*
X115355714Y-38044523D02*
X115736666Y-38425476D01*
%TO.C,U2C1*%
X105084761Y-82367380D02*
X104608571Y-82367380D01*
X104608571Y-81367380D01*
X105370476Y-82319761D02*
X105513333Y-82367380D01*
X105751428Y-82367380D01*
X105846666Y-82319761D01*
X105894285Y-82272142D01*
X105941904Y-82176904D01*
X105941904Y-82081666D01*
X105894285Y-81986428D01*
X105846666Y-81938809D01*
X105751428Y-81891190D01*
X105560952Y-81843571D01*
X105465714Y-81795952D01*
X105418095Y-81748333D01*
X105370476Y-81653095D01*
X105370476Y-81557857D01*
X105418095Y-81462619D01*
X105465714Y-81415000D01*
X105560952Y-81367380D01*
X105799047Y-81367380D01*
X105941904Y-81415000D01*
X106894285Y-82367380D02*
X106322857Y-82367380D01*
X106608571Y-82367380D02*
X106608571Y-81367380D01*
X106513333Y-81510238D01*
X106418095Y-81605476D01*
X106322857Y-81653095D01*
X107513333Y-81367380D02*
X107608571Y-81367380D01*
X107703809Y-81415000D01*
X107751428Y-81462619D01*
X107799047Y-81557857D01*
X107846666Y-81748333D01*
X107846666Y-81986428D01*
X107799047Y-82176904D01*
X107751428Y-82272142D01*
X107703809Y-82319761D01*
X107608571Y-82367380D01*
X107513333Y-82367380D01*
X107418095Y-82319761D01*
X107370476Y-82272142D01*
X107322857Y-82176904D01*
X107275238Y-81986428D01*
X107275238Y-81748333D01*
X107322857Y-81557857D01*
X107370476Y-81462619D01*
X107418095Y-81415000D01*
X107513333Y-81367380D01*
X108322857Y-82367380D02*
X108513333Y-82367380D01*
X108608571Y-82319761D01*
X108656190Y-82272142D01*
X108751428Y-82129285D01*
X108799047Y-81938809D01*
X108799047Y-81557857D01*
X108751428Y-81462619D01*
X108703809Y-81415000D01*
X108608571Y-81367380D01*
X108418095Y-81367380D01*
X108322857Y-81415000D01*
X108275238Y-81462619D01*
X108227619Y-81557857D01*
X108227619Y-81795952D01*
X108275238Y-81891190D01*
X108322857Y-81938809D01*
X108418095Y-81986428D01*
X108608571Y-81986428D01*
X108703809Y-81938809D01*
X108751428Y-81891190D01*
X108799047Y-81795952D01*
%TO.C,U1B1*%
X89844761Y-56967380D02*
X89368571Y-56967380D01*
X89368571Y-55967380D01*
X90130476Y-56919761D02*
X90273333Y-56967380D01*
X90511428Y-56967380D01*
X90606666Y-56919761D01*
X90654285Y-56872142D01*
X90701904Y-56776904D01*
X90701904Y-56681666D01*
X90654285Y-56586428D01*
X90606666Y-56538809D01*
X90511428Y-56491190D01*
X90320952Y-56443571D01*
X90225714Y-56395952D01*
X90178095Y-56348333D01*
X90130476Y-56253095D01*
X90130476Y-56157857D01*
X90178095Y-56062619D01*
X90225714Y-56015000D01*
X90320952Y-55967380D01*
X90559047Y-55967380D01*
X90701904Y-56015000D01*
X91654285Y-56967380D02*
X91082857Y-56967380D01*
X91368571Y-56967380D02*
X91368571Y-55967380D01*
X91273333Y-56110238D01*
X91178095Y-56205476D01*
X91082857Y-56253095D01*
X92511428Y-55967380D02*
X92320952Y-55967380D01*
X92225714Y-56015000D01*
X92178095Y-56062619D01*
X92082857Y-56205476D01*
X92035238Y-56395952D01*
X92035238Y-56776904D01*
X92082857Y-56872142D01*
X92130476Y-56919761D01*
X92225714Y-56967380D01*
X92416190Y-56967380D01*
X92511428Y-56919761D01*
X92559047Y-56872142D01*
X92606666Y-56776904D01*
X92606666Y-56538809D01*
X92559047Y-56443571D01*
X92511428Y-56395952D01*
X92416190Y-56348333D01*
X92225714Y-56348333D01*
X92130476Y-56395952D01*
X92082857Y-56443571D01*
X92035238Y-56538809D01*
X93559047Y-56967380D02*
X92987619Y-56967380D01*
X93273333Y-56967380D02*
X93273333Y-55967380D01*
X93178095Y-56110238D01*
X93082857Y-56205476D01*
X92987619Y-56253095D01*
%TO.C,U1D1*%
X89844761Y-107767380D02*
X89368571Y-107767380D01*
X89368571Y-106767380D01*
X90130476Y-107719761D02*
X90273333Y-107767380D01*
X90511428Y-107767380D01*
X90606666Y-107719761D01*
X90654285Y-107672142D01*
X90701904Y-107576904D01*
X90701904Y-107481666D01*
X90654285Y-107386428D01*
X90606666Y-107338809D01*
X90511428Y-107291190D01*
X90320952Y-107243571D01*
X90225714Y-107195952D01*
X90178095Y-107148333D01*
X90130476Y-107053095D01*
X90130476Y-106957857D01*
X90178095Y-106862619D01*
X90225714Y-106815000D01*
X90320952Y-106767380D01*
X90559047Y-106767380D01*
X90701904Y-106815000D01*
X91654285Y-107767380D02*
X91082857Y-107767380D01*
X91368571Y-107767380D02*
X91368571Y-106767380D01*
X91273333Y-106910238D01*
X91178095Y-107005476D01*
X91082857Y-107053095D01*
X92511428Y-106767380D02*
X92320952Y-106767380D01*
X92225714Y-106815000D01*
X92178095Y-106862619D01*
X92082857Y-107005476D01*
X92035238Y-107195952D01*
X92035238Y-107576904D01*
X92082857Y-107672142D01*
X92130476Y-107719761D01*
X92225714Y-107767380D01*
X92416190Y-107767380D01*
X92511428Y-107719761D01*
X92559047Y-107672142D01*
X92606666Y-107576904D01*
X92606666Y-107338809D01*
X92559047Y-107243571D01*
X92511428Y-107195952D01*
X92416190Y-107148333D01*
X92225714Y-107148333D01*
X92130476Y-107195952D01*
X92082857Y-107243571D01*
X92035238Y-107338809D01*
X93559047Y-107767380D02*
X92987619Y-107767380D01*
X93273333Y-107767380D02*
X93273333Y-106767380D01*
X93178095Y-106910238D01*
X93082857Y-107005476D01*
X92987619Y-107053095D01*
D11*
%TO.C,R1*%
X83920000Y-77565000D02*
X83920000Y-71025000D01*
X82550000Y-80875000D02*
X82550000Y-77565000D01*
X82550000Y-67715000D02*
X82550000Y-71025000D01*
X81180000Y-71025000D02*
X81180000Y-77565000D01*
X81180000Y-77565000D02*
X83920000Y-77565000D01*
X83920000Y-71025000D02*
X81180000Y-71025000D01*
%TO.C,U2B1*%
X105680000Y-57725000D02*
X104030000Y-57725000D01*
X109330000Y-75625000D02*
X109330000Y-57725000D01*
X104030000Y-57725000D02*
X104030000Y-75625000D01*
X109330000Y-57725000D02*
X107680000Y-57725000D01*
X104030000Y-75625000D02*
X109330000Y-75625000D01*
X105680000Y-57725000D02*
G75*
G03*
X107680000Y-57725000I1000000J0D01*
G01*
%TO.C,C16*%
X81180000Y-133885000D02*
X81180000Y-141625000D01*
X83920000Y-141625000D02*
X81180000Y-141625000D01*
X83920000Y-133885000D02*
X81180000Y-133885000D01*
X83920000Y-133885000D02*
X83920000Y-141625000D01*
%TO.C,C15*%
X118725000Y-82015000D02*
X118725000Y-79275000D01*
X126465000Y-82015000D02*
X118725000Y-82015000D01*
X126465000Y-79275000D02*
X118725000Y-79275000D01*
X126465000Y-82015000D02*
X126465000Y-79275000D01*
%TO.C,C13*%
X88800000Y-52805000D02*
X96540000Y-52805000D01*
X88800000Y-50065000D02*
X96540000Y-50065000D01*
X88800000Y-50065000D02*
X88800000Y-52805000D01*
X96540000Y-50065000D02*
X96540000Y-52805000D01*
%TO.C,U3D1*%
X120920000Y-108525000D02*
X119270000Y-108525000D01*
X119270000Y-108525000D02*
X119270000Y-126425000D01*
X124570000Y-108525000D02*
X122920000Y-108525000D01*
X124570000Y-126425000D02*
X124570000Y-108525000D01*
X119270000Y-126425000D02*
X124570000Y-126425000D01*
X120920000Y-108525000D02*
G75*
G03*
X122920000Y-108525000I1000000J0D01*
G01*
%TO.C,C11*%
X88800000Y-47725000D02*
X96540000Y-47725000D01*
X88800000Y-44985000D02*
X88800000Y-47725000D01*
X88800000Y-44985000D02*
X96540000Y-44985000D01*
X96540000Y-44985000D02*
X96540000Y-47725000D01*
%TO.C,U2E1*%
X104030000Y-133925000D02*
X104030000Y-151825000D01*
X109330000Y-151825000D02*
X109330000Y-133925000D01*
X104030000Y-151825000D02*
X109330000Y-151825000D01*
X109330000Y-133925000D02*
X107680000Y-133925000D01*
X105680000Y-133925000D02*
X104030000Y-133925000D01*
X105680000Y-133925000D02*
G75*
G03*
X107680000Y-133925000I1000000J0D01*
G01*
%TO.C,U2A1*%
X104030000Y-50225000D02*
X109330000Y-50225000D01*
X109330000Y-50225000D02*
X109330000Y-32325000D01*
X104030000Y-32325000D02*
X104030000Y-50225000D01*
X109330000Y-32325000D02*
X107680000Y-32325000D01*
X105680000Y-32325000D02*
X104030000Y-32325000D01*
X105680000Y-32325000D02*
G75*
G03*
X107680000Y-32325000I1000000J0D01*
G01*
D12*
%TO.C,J1*%
X141706000Y-62745000D02*
X141706000Y-62745000D01*
X141706000Y-62845000D02*
X141706000Y-62845000D01*
D13*
X142476000Y-99985000D02*
X142476000Y-58985000D01*
X142476000Y-105985000D02*
X142476000Y-104985000D01*
X142476000Y-52945000D02*
X142476000Y-53985000D01*
X156546000Y-105985000D02*
X156546000Y-52945000D01*
X142476000Y-105985000D02*
X156546000Y-105985000D01*
X156546000Y-52945000D02*
X142476000Y-52945000D01*
D12*
X141706000Y-62845000D02*
G75*
G03*
X141706000Y-62745000I0J50000D01*
G01*
X141706000Y-62745000D02*
G75*
G03*
X141706000Y-62845000I0J-50000D01*
G01*
D11*
%TO.C,U4A1*%
X139810000Y-32325000D02*
X138160000Y-32325000D01*
X136160000Y-32325000D02*
X134510000Y-32325000D01*
X134510000Y-50225000D02*
X139810000Y-50225000D01*
X134510000Y-32325000D02*
X134510000Y-50225000D01*
X139810000Y-50225000D02*
X139810000Y-32325000D01*
X136160000Y-32325000D02*
G75*
G03*
X138160000Y-32325000I1000000J0D01*
G01*
%TO.C,C8*%
X130910000Y-126265000D02*
X128170000Y-126265000D01*
X130910000Y-134005000D02*
X128170000Y-134005000D01*
X128170000Y-126265000D02*
X128170000Y-134005000D01*
X130910000Y-126265000D02*
X130910000Y-134005000D01*
%TO.C,C7*%
X147855000Y-37565000D02*
X150595000Y-37565000D01*
X147855000Y-29825000D02*
X150595000Y-29825000D01*
X150595000Y-37565000D02*
X150595000Y-29825000D01*
X147855000Y-37565000D02*
X147855000Y-29825000D01*
%TO.C,C10*%
X127020000Y-107415000D02*
X119280000Y-107415000D01*
X127020000Y-104675000D02*
X119280000Y-104675000D01*
X119280000Y-107415000D02*
X119280000Y-104675000D01*
X127020000Y-107415000D02*
X127020000Y-104675000D01*
%TO.C,C3*%
X89219000Y-162155000D02*
X89219000Y-161876000D01*
X90900000Y-165715000D02*
X90900000Y-164235000D01*
X89659000Y-165059000D02*
X89659000Y-164235000D01*
X89419000Y-162155000D02*
X89419000Y-161590000D01*
X90579000Y-165623000D02*
X90579000Y-164235000D01*
X89739000Y-165132000D02*
X89739000Y-164235000D01*
X89699000Y-165096000D02*
X89699000Y-164235000D01*
X89259000Y-164578000D02*
X89259000Y-164235000D01*
X94014775Y-164920000D02*
X94014775Y-164420000D01*
X90459000Y-162155000D02*
X90459000Y-160813000D01*
X90539000Y-165609000D02*
X90539000Y-164235000D01*
X89379000Y-162155000D02*
X89379000Y-161641000D01*
X90860000Y-162155000D02*
X90860000Y-160684000D01*
X90379000Y-165543000D02*
X90379000Y-164235000D01*
X88939000Y-163872000D02*
X88939000Y-162518000D01*
X89699000Y-162155000D02*
X89699000Y-161294000D01*
X90339000Y-165524000D02*
X90339000Y-164235000D01*
X91140000Y-162155000D02*
X91140000Y-160634000D01*
X91020000Y-165738000D02*
X91020000Y-164235000D01*
X89619000Y-165021000D02*
X89619000Y-164235000D01*
X90459000Y-165577000D02*
X90459000Y-164235000D01*
X89139000Y-164373000D02*
X89139000Y-162017000D01*
X91220000Y-165764000D02*
X91220000Y-164235000D01*
X91420000Y-165775000D02*
X91420000Y-160615000D01*
X89019000Y-164110000D02*
X89019000Y-162280000D01*
X90739000Y-162155000D02*
X90739000Y-160715000D01*
X90299000Y-162155000D02*
X90299000Y-160885000D01*
X91220000Y-162155000D02*
X91220000Y-160626000D01*
X89459000Y-162155000D02*
X89459000Y-161542000D01*
X89259000Y-162155000D02*
X89259000Y-161812000D01*
X89819000Y-162155000D02*
X89819000Y-161191000D01*
X90780000Y-165686000D02*
X90780000Y-164235000D01*
X90980000Y-165731000D02*
X90980000Y-164235000D01*
X90860000Y-165706000D02*
X90860000Y-164235000D01*
X90940000Y-165723000D02*
X90940000Y-164235000D01*
X90099000Y-162155000D02*
X90099000Y-160995000D01*
X90900000Y-162155000D02*
X90900000Y-160675000D01*
X90059000Y-165370000D02*
X90059000Y-164235000D01*
X90739000Y-165675000D02*
X90739000Y-164235000D01*
X90419000Y-165560000D02*
X90419000Y-164235000D01*
X89899000Y-165260000D02*
X89899000Y-164235000D01*
X88979000Y-164000000D02*
X88979000Y-162390000D01*
X90699000Y-165663000D02*
X90699000Y-164235000D01*
X90619000Y-165637000D02*
X90619000Y-164235000D01*
X90940000Y-162155000D02*
X90940000Y-160667000D01*
X89779000Y-162155000D02*
X89779000Y-161224000D01*
X90139000Y-162155000D02*
X90139000Y-160971000D01*
X91180000Y-162155000D02*
X91180000Y-160630000D01*
X90259000Y-162155000D02*
X90259000Y-160905000D01*
X89059000Y-164206000D02*
X89059000Y-162184000D01*
X90659000Y-165650000D02*
X90659000Y-164235000D01*
X90339000Y-162155000D02*
X90339000Y-160866000D01*
X89179000Y-162155000D02*
X89179000Y-161944000D01*
X89099000Y-164293000D02*
X89099000Y-162097000D01*
X89539000Y-162155000D02*
X89539000Y-161452000D01*
X90019000Y-162155000D02*
X90019000Y-161046000D01*
X90099000Y-165395000D02*
X90099000Y-164235000D01*
X89339000Y-162155000D02*
X89339000Y-161695000D01*
X91140000Y-165756000D02*
X91140000Y-164235000D01*
X90259000Y-165485000D02*
X90259000Y-164235000D01*
X89179000Y-164446000D02*
X89179000Y-164235000D01*
X89499000Y-162155000D02*
X89499000Y-161496000D01*
X89899000Y-162155000D02*
X89899000Y-161130000D01*
X89299000Y-162155000D02*
X89299000Y-161752000D01*
X90379000Y-162155000D02*
X90379000Y-160847000D01*
X89859000Y-165230000D02*
X89859000Y-164235000D01*
X89939000Y-162155000D02*
X89939000Y-161100000D01*
X89619000Y-162155000D02*
X89619000Y-161369000D01*
X90299000Y-165505000D02*
X90299000Y-164235000D01*
X90539000Y-162155000D02*
X90539000Y-160781000D01*
X89579000Y-162155000D02*
X89579000Y-161410000D01*
X89819000Y-165199000D02*
X89819000Y-164235000D01*
X88899000Y-163713000D02*
X88899000Y-162677000D01*
X90019000Y-165344000D02*
X90019000Y-164235000D01*
X90179000Y-165442000D02*
X90179000Y-164235000D01*
X89499000Y-164894000D02*
X89499000Y-164235000D01*
X91060000Y-162155000D02*
X91060000Y-160645000D01*
X91100000Y-165751000D02*
X91100000Y-164235000D01*
X90219000Y-162155000D02*
X90219000Y-160927000D01*
X90139000Y-165419000D02*
X90139000Y-164235000D01*
X91340000Y-165773000D02*
X91340000Y-160617000D01*
X89299000Y-164638000D02*
X89299000Y-164235000D01*
X90980000Y-162155000D02*
X90980000Y-160659000D01*
X90820000Y-165696000D02*
X90820000Y-164235000D01*
X90780000Y-162155000D02*
X90780000Y-160704000D01*
X90579000Y-162155000D02*
X90579000Y-160767000D01*
X90219000Y-165463000D02*
X90219000Y-164235000D01*
X89979000Y-162155000D02*
X89979000Y-161073000D01*
X90659000Y-162155000D02*
X90659000Y-160740000D01*
X89659000Y-162155000D02*
X89659000Y-161331000D01*
X90699000Y-162155000D02*
X90699000Y-160727000D01*
X89379000Y-164749000D02*
X89379000Y-164235000D01*
X91380000Y-165774000D02*
X91380000Y-160616000D01*
X90499000Y-165593000D02*
X90499000Y-164235000D01*
X89779000Y-165166000D02*
X89779000Y-164235000D01*
X90820000Y-162155000D02*
X90820000Y-160694000D01*
X89419000Y-164800000D02*
X89419000Y-164235000D01*
X91460000Y-165775000D02*
X91460000Y-160615000D01*
X88859000Y-163479000D02*
X88859000Y-162911000D01*
X89579000Y-164980000D02*
X89579000Y-164235000D01*
X90619000Y-162155000D02*
X90619000Y-160753000D01*
X89739000Y-162155000D02*
X89739000Y-161258000D01*
X91100000Y-162155000D02*
X91100000Y-160639000D01*
X90419000Y-162155000D02*
X90419000Y-160830000D01*
X94264775Y-164670000D02*
X93764775Y-164670000D01*
X89939000Y-165290000D02*
X89939000Y-164235000D01*
X91180000Y-165760000D02*
X91180000Y-164235000D01*
X90059000Y-162155000D02*
X90059000Y-161020000D01*
X90179000Y-162155000D02*
X90179000Y-160948000D01*
X91300000Y-165771000D02*
X91300000Y-160619000D01*
X91060000Y-165745000D02*
X91060000Y-164235000D01*
X89539000Y-164938000D02*
X89539000Y-164235000D01*
X91260000Y-165768000D02*
X91260000Y-160622000D01*
X89219000Y-164514000D02*
X89219000Y-164235000D01*
X89979000Y-165317000D02*
X89979000Y-164235000D01*
X90499000Y-162155000D02*
X90499000Y-160797000D01*
X89339000Y-164695000D02*
X89339000Y-164235000D01*
X89459000Y-164848000D02*
X89459000Y-164235000D01*
X91020000Y-162155000D02*
X91020000Y-160652000D01*
X89859000Y-162155000D02*
X89859000Y-161160000D01*
X94080000Y-163195000D02*
G75*
G03*
X94080000Y-163195000I-2620000J0D01*
G01*
%TO.C,C19*%
X81180000Y-57685000D02*
X81180000Y-65425000D01*
X83920000Y-57685000D02*
X81180000Y-57685000D01*
X83920000Y-57685000D02*
X83920000Y-65425000D01*
X83920000Y-65425000D02*
X81180000Y-65425000D01*
%TO.C,U2D1*%
X104030000Y-128965000D02*
X109330000Y-128965000D01*
X109330000Y-128965000D02*
X109330000Y-108525000D01*
X109330000Y-108525000D02*
X107680000Y-108525000D01*
X105680000Y-108525000D02*
X104030000Y-108525000D01*
X104030000Y-108525000D02*
X104030000Y-128965000D01*
X105680000Y-108525000D02*
G75*
G03*
X107680000Y-108525000I1000000J0D01*
G01*
%TO.C,C5*%
X144880000Y-42445000D02*
X142140000Y-42445000D01*
X144880000Y-42445000D02*
X144880000Y-50185000D01*
X142140000Y-42445000D02*
X142140000Y-50185000D01*
X144880000Y-50185000D02*
X142140000Y-50185000D01*
%TO.C,C6*%
X147420000Y-42445000D02*
X147420000Y-50185000D01*
X147420000Y-50185000D02*
X144680000Y-50185000D01*
X147420000Y-42445000D02*
X144680000Y-42445000D01*
X144680000Y-42445000D02*
X144680000Y-50185000D01*
%TO.C,C1*%
X135699000Y-162155000D02*
X135699000Y-161073000D01*
X135139000Y-164800000D02*
X135139000Y-164235000D01*
X136580000Y-165706000D02*
X136580000Y-164235000D01*
X137180000Y-165775000D02*
X137180000Y-160615000D01*
X136379000Y-165650000D02*
X136379000Y-164235000D01*
X135219000Y-162155000D02*
X135219000Y-161496000D01*
X136379000Y-162155000D02*
X136379000Y-160740000D01*
X136259000Y-162155000D02*
X136259000Y-160781000D01*
X136059000Y-165524000D02*
X136059000Y-164235000D01*
X135659000Y-162155000D02*
X135659000Y-161100000D01*
X135779000Y-162155000D02*
X135779000Y-161020000D01*
X136019000Y-162155000D02*
X136019000Y-160885000D01*
X136820000Y-162155000D02*
X136820000Y-160639000D01*
X136019000Y-165505000D02*
X136019000Y-164235000D01*
X134899000Y-162155000D02*
X134899000Y-161944000D01*
X136780000Y-162155000D02*
X136780000Y-160645000D01*
X136059000Y-162155000D02*
X136059000Y-160866000D01*
X136980000Y-165768000D02*
X136980000Y-160622000D01*
X136620000Y-162155000D02*
X136620000Y-160675000D01*
X136139000Y-165560000D02*
X136139000Y-164235000D01*
X137100000Y-165774000D02*
X137100000Y-160616000D01*
X136500000Y-162155000D02*
X136500000Y-160704000D01*
X135379000Y-165059000D02*
X135379000Y-164235000D01*
X135019000Y-162155000D02*
X135019000Y-161752000D01*
X139734775Y-164920000D02*
X139734775Y-164420000D01*
X134619000Y-163713000D02*
X134619000Y-162677000D01*
X136580000Y-162155000D02*
X136580000Y-160684000D01*
X136099000Y-162155000D02*
X136099000Y-160847000D01*
X135939000Y-162155000D02*
X135939000Y-160927000D01*
X135299000Y-164980000D02*
X135299000Y-164235000D01*
X136900000Y-165760000D02*
X136900000Y-164235000D01*
X135259000Y-164938000D02*
X135259000Y-164235000D01*
X135579000Y-165230000D02*
X135579000Y-164235000D01*
X135659000Y-165290000D02*
X135659000Y-164235000D01*
X136259000Y-165609000D02*
X136259000Y-164235000D01*
X136740000Y-165738000D02*
X136740000Y-164235000D01*
X135299000Y-162155000D02*
X135299000Y-161410000D01*
X135219000Y-164894000D02*
X135219000Y-164235000D01*
X135499000Y-165166000D02*
X135499000Y-164235000D01*
X136940000Y-162155000D02*
X136940000Y-160626000D01*
X135019000Y-164638000D02*
X135019000Y-164235000D01*
X134979000Y-164578000D02*
X134979000Y-164235000D01*
X135819000Y-165395000D02*
X135819000Y-164235000D01*
X135539000Y-162155000D02*
X135539000Y-161191000D01*
X135059000Y-164695000D02*
X135059000Y-164235000D01*
X136219000Y-162155000D02*
X136219000Y-160797000D01*
X136540000Y-162155000D02*
X136540000Y-160694000D01*
X135899000Y-165442000D02*
X135899000Y-164235000D01*
X135179000Y-164848000D02*
X135179000Y-164235000D01*
X136339000Y-165637000D02*
X136339000Y-164235000D01*
X136099000Y-165543000D02*
X136099000Y-164235000D01*
X134739000Y-164110000D02*
X134739000Y-162280000D01*
X135539000Y-165199000D02*
X135539000Y-164235000D01*
X134939000Y-162155000D02*
X134939000Y-161876000D01*
X135739000Y-165344000D02*
X135739000Y-164235000D01*
X135259000Y-162155000D02*
X135259000Y-161452000D01*
X136620000Y-165715000D02*
X136620000Y-164235000D01*
X135099000Y-162155000D02*
X135099000Y-161641000D01*
X135139000Y-162155000D02*
X135139000Y-161590000D01*
X135419000Y-162155000D02*
X135419000Y-161294000D01*
X135619000Y-165260000D02*
X135619000Y-164235000D01*
X136219000Y-165593000D02*
X136219000Y-164235000D01*
X135619000Y-162155000D02*
X135619000Y-161130000D01*
X134779000Y-164206000D02*
X134779000Y-162184000D01*
X137140000Y-165775000D02*
X137140000Y-160615000D01*
X135419000Y-165096000D02*
X135419000Y-164235000D01*
X136540000Y-165696000D02*
X136540000Y-164235000D01*
X135699000Y-165317000D02*
X135699000Y-164235000D01*
X135859000Y-165419000D02*
X135859000Y-164235000D01*
X136660000Y-165723000D02*
X136660000Y-164235000D01*
X136419000Y-165663000D02*
X136419000Y-164235000D01*
X136299000Y-162155000D02*
X136299000Y-160767000D01*
X135059000Y-162155000D02*
X135059000Y-161695000D01*
X134859000Y-164373000D02*
X134859000Y-162017000D01*
X136900000Y-162155000D02*
X136900000Y-160630000D01*
X136459000Y-162155000D02*
X136459000Y-160715000D01*
X136860000Y-165756000D02*
X136860000Y-164235000D01*
X134979000Y-162155000D02*
X134979000Y-161812000D01*
X134939000Y-164514000D02*
X134939000Y-164235000D01*
X134819000Y-164293000D02*
X134819000Y-162097000D01*
X134899000Y-164446000D02*
X134899000Y-164235000D01*
X136179000Y-165577000D02*
X136179000Y-164235000D01*
X136139000Y-162155000D02*
X136139000Y-160830000D01*
X134579000Y-163479000D02*
X134579000Y-162911000D01*
X136820000Y-165751000D02*
X136820000Y-164235000D01*
X135739000Y-162155000D02*
X135739000Y-161046000D01*
X136700000Y-165731000D02*
X136700000Y-164235000D01*
X135459000Y-165132000D02*
X135459000Y-164235000D01*
X135899000Y-162155000D02*
X135899000Y-160948000D01*
X136660000Y-162155000D02*
X136660000Y-160667000D01*
X136459000Y-165675000D02*
X136459000Y-164235000D01*
X135579000Y-162155000D02*
X135579000Y-161160000D01*
X135819000Y-162155000D02*
X135819000Y-160995000D01*
X136339000Y-162155000D02*
X136339000Y-160753000D01*
X135979000Y-162155000D02*
X135979000Y-160905000D01*
X135099000Y-164749000D02*
X135099000Y-164235000D01*
X137020000Y-165771000D02*
X137020000Y-160619000D01*
X134659000Y-163872000D02*
X134659000Y-162518000D01*
X136299000Y-165623000D02*
X136299000Y-164235000D01*
X135339000Y-162155000D02*
X135339000Y-161369000D01*
X137060000Y-165773000D02*
X137060000Y-160617000D01*
X136860000Y-162155000D02*
X136860000Y-160634000D01*
X135859000Y-162155000D02*
X135859000Y-160971000D01*
X135979000Y-165485000D02*
X135979000Y-164235000D01*
X135339000Y-165021000D02*
X135339000Y-164235000D01*
X135779000Y-165370000D02*
X135779000Y-164235000D01*
X135179000Y-162155000D02*
X135179000Y-161542000D01*
X136740000Y-162155000D02*
X136740000Y-160652000D01*
X135459000Y-162155000D02*
X135459000Y-161258000D01*
X136500000Y-165686000D02*
X136500000Y-164235000D01*
X136780000Y-165745000D02*
X136780000Y-164235000D01*
X136940000Y-165764000D02*
X136940000Y-164235000D01*
X135939000Y-165463000D02*
X135939000Y-164235000D01*
X135379000Y-162155000D02*
X135379000Y-161331000D01*
X136700000Y-162155000D02*
X136700000Y-160659000D01*
X135499000Y-162155000D02*
X135499000Y-161224000D01*
X134699000Y-164000000D02*
X134699000Y-162390000D01*
X136419000Y-162155000D02*
X136419000Y-160727000D01*
X139984775Y-164670000D02*
X139484775Y-164670000D01*
X136179000Y-162155000D02*
X136179000Y-160813000D01*
X139800000Y-163195000D02*
G75*
G03*
X139800000Y-163195000I-2620000J0D01*
G01*
%TO.C,C4*%
X149960000Y-42445000D02*
X147220000Y-42445000D01*
X149960000Y-50185000D02*
X147220000Y-50185000D01*
X147220000Y-42445000D02*
X147220000Y-50185000D01*
X149960000Y-42445000D02*
X149960000Y-50185000D01*
%TO.C,C20*%
X147420000Y-37565000D02*
X147420000Y-29825000D01*
X144680000Y-29825000D02*
X147420000Y-29825000D01*
X144680000Y-37565000D02*
X147420000Y-37565000D01*
X144680000Y-37565000D02*
X144680000Y-29825000D01*
%TO.C,R3*%
X140240000Y-115035000D02*
X146780000Y-115035000D01*
X146780000Y-112295000D02*
X140240000Y-112295000D01*
X139470000Y-113665000D02*
X140240000Y-113665000D01*
X140240000Y-112295000D02*
X140240000Y-115035000D01*
X146780000Y-115035000D02*
X146780000Y-112295000D01*
X147550000Y-113665000D02*
X146780000Y-113665000D01*
%TO.C,R4*%
X140240000Y-112495000D02*
X146780000Y-112495000D01*
X146780000Y-109755000D02*
X140240000Y-109755000D01*
X139470000Y-111125000D02*
X140240000Y-111125000D01*
X140240000Y-109755000D02*
X140240000Y-112495000D01*
X147550000Y-111125000D02*
X146780000Y-111125000D01*
X146780000Y-112495000D02*
X146780000Y-109755000D01*
%TO.C,U1E1*%
X90440000Y-133925000D02*
X88790000Y-133925000D01*
X94090000Y-154365000D02*
X94090000Y-133925000D01*
X88790000Y-133925000D02*
X88790000Y-154365000D01*
X94090000Y-133925000D02*
X92440000Y-133925000D01*
X88790000Y-154365000D02*
X94090000Y-154365000D01*
X90440000Y-133925000D02*
G75*
G03*
X92440000Y-133925000I1000000J0D01*
G01*
%TO.C,U3C1*%
X124570000Y-83125000D02*
X122920000Y-83125000D01*
X124570000Y-103565000D02*
X124570000Y-83125000D01*
X119270000Y-83125000D02*
X119270000Y-103565000D01*
X119270000Y-103565000D02*
X124570000Y-103565000D01*
X120920000Y-83125000D02*
X119270000Y-83125000D01*
X120920000Y-83125000D02*
G75*
G03*
X122920000Y-83125000I1000000J0D01*
G01*
%TO.C,P.GND*%
X149920000Y-120015000D02*
X149920000Y-120075000D01*
X147260000Y-117415000D02*
X148590000Y-117415000D01*
X147260000Y-120075000D02*
X149920000Y-120075000D01*
X147260000Y-120015000D02*
X149920000Y-120015000D01*
X147260000Y-120015000D02*
X147260000Y-120075000D01*
X147260000Y-118745000D02*
X147260000Y-117415000D01*
%TO.C,C9*%
X127060000Y-132815000D02*
X119320000Y-132815000D01*
X127060000Y-132815000D02*
X127060000Y-130075000D01*
X127060000Y-130075000D02*
X119320000Y-130075000D01*
X119320000Y-132815000D02*
X119320000Y-130075000D01*
%TO.C,C14*%
X96540000Y-52605000D02*
X96540000Y-55345000D01*
X88800000Y-55345000D02*
X96540000Y-55345000D01*
X88800000Y-52605000D02*
X88800000Y-55345000D01*
X88800000Y-52605000D02*
X96540000Y-52605000D01*
%TO.C,R5*%
X130810000Y-47855000D02*
X130810000Y-44545000D01*
X130810000Y-34695000D02*
X130810000Y-38005000D01*
X132180000Y-38005000D02*
X129440000Y-38005000D01*
X132180000Y-44545000D02*
X132180000Y-38005000D01*
X129440000Y-38005000D02*
X129440000Y-44545000D01*
X129440000Y-44545000D02*
X132180000Y-44545000D01*
%TO.C,R2*%
X147550000Y-116205000D02*
X146780000Y-116205000D01*
X146780000Y-114835000D02*
X140240000Y-114835000D01*
X146780000Y-117575000D02*
X146780000Y-114835000D01*
X140240000Y-114835000D02*
X140240000Y-117575000D01*
X140240000Y-117575000D02*
X146780000Y-117575000D01*
X139470000Y-116205000D02*
X140240000Y-116205000D01*
%TO.C,W1*%
X147320000Y-50105000D02*
X147320000Y-52765000D01*
X147320000Y-50105000D02*
X142180000Y-50105000D01*
X142180000Y-50105000D02*
X142180000Y-52765000D01*
X148590000Y-50105000D02*
X149920000Y-50105000D01*
X149920000Y-50105000D02*
X149920000Y-51435000D01*
X147320000Y-52765000D02*
X142180000Y-52765000D01*
%TO.C,C2*%
X143839000Y-162155000D02*
X143839000Y-160797000D01*
X144360000Y-162155000D02*
X144360000Y-160652000D01*
X144120000Y-162155000D02*
X144120000Y-160704000D01*
X143999000Y-165650000D02*
X143999000Y-164235000D01*
X144480000Y-162155000D02*
X144480000Y-160634000D01*
X144240000Y-165715000D02*
X144240000Y-164235000D01*
X143199000Y-162155000D02*
X143199000Y-161160000D01*
X143319000Y-162155000D02*
X143319000Y-161073000D01*
X143959000Y-165637000D02*
X143959000Y-164235000D01*
X144280000Y-162155000D02*
X144280000Y-160667000D01*
X142599000Y-164578000D02*
X142599000Y-164235000D01*
X142719000Y-162155000D02*
X142719000Y-161641000D01*
X144360000Y-165738000D02*
X144360000Y-164235000D01*
X143999000Y-162155000D02*
X143999000Y-160740000D01*
X142839000Y-164894000D02*
X142839000Y-164235000D01*
X142519000Y-164446000D02*
X142519000Y-164235000D01*
X144720000Y-165774000D02*
X144720000Y-160616000D01*
X144400000Y-165745000D02*
X144400000Y-164235000D01*
X143719000Y-162155000D02*
X143719000Y-160847000D01*
X143439000Y-165395000D02*
X143439000Y-164235000D01*
X143959000Y-162155000D02*
X143959000Y-160753000D01*
X143559000Y-162155000D02*
X143559000Y-160927000D01*
X143239000Y-162155000D02*
X143239000Y-161130000D01*
X142639000Y-162155000D02*
X142639000Y-161752000D01*
X144800000Y-165775000D02*
X144800000Y-160615000D01*
X143919000Y-165623000D02*
X143919000Y-164235000D01*
X144680000Y-165773000D02*
X144680000Y-160617000D01*
X144320000Y-162155000D02*
X144320000Y-160659000D01*
X143119000Y-162155000D02*
X143119000Y-161224000D01*
X142879000Y-162155000D02*
X142879000Y-161452000D01*
X142199000Y-163479000D02*
X142199000Y-162911000D01*
X142719000Y-164749000D02*
X142719000Y-164235000D01*
X144560000Y-162155000D02*
X144560000Y-160626000D01*
X143759000Y-165560000D02*
X143759000Y-164235000D01*
X143719000Y-165543000D02*
X143719000Y-164235000D01*
X147354775Y-164920000D02*
X147354775Y-164420000D01*
X143919000Y-162155000D02*
X143919000Y-160767000D01*
X144440000Y-165751000D02*
X144440000Y-164235000D01*
X143519000Y-165442000D02*
X143519000Y-164235000D01*
X144200000Y-162155000D02*
X144200000Y-160684000D01*
X144160000Y-165696000D02*
X144160000Y-164235000D01*
X142919000Y-162155000D02*
X142919000Y-161410000D01*
X143879000Y-162155000D02*
X143879000Y-160781000D01*
X144760000Y-165775000D02*
X144760000Y-160615000D01*
X144280000Y-165723000D02*
X144280000Y-164235000D01*
X142239000Y-163713000D02*
X142239000Y-162677000D01*
X144079000Y-162155000D02*
X144079000Y-160715000D01*
X144200000Y-165706000D02*
X144200000Y-164235000D01*
X144600000Y-165768000D02*
X144600000Y-160622000D01*
X142559000Y-162155000D02*
X142559000Y-161876000D01*
X142799000Y-162155000D02*
X142799000Y-161542000D01*
X143439000Y-162155000D02*
X143439000Y-160995000D01*
X142399000Y-164206000D02*
X142399000Y-162184000D01*
X142479000Y-164373000D02*
X142479000Y-162017000D01*
X143039000Y-165096000D02*
X143039000Y-164235000D01*
X143479000Y-162155000D02*
X143479000Y-160971000D01*
X143239000Y-165260000D02*
X143239000Y-164235000D01*
X143799000Y-162155000D02*
X143799000Y-160813000D01*
X144400000Y-162155000D02*
X144400000Y-160645000D01*
X142999000Y-165059000D02*
X142999000Y-164235000D01*
X143039000Y-162155000D02*
X143039000Y-161294000D01*
X143279000Y-162155000D02*
X143279000Y-161100000D01*
X143119000Y-165166000D02*
X143119000Y-164235000D01*
X144079000Y-165675000D02*
X144079000Y-164235000D01*
X144560000Y-165764000D02*
X144560000Y-164235000D01*
X142799000Y-164848000D02*
X142799000Y-164235000D01*
X142959000Y-165021000D02*
X142959000Y-164235000D01*
X143879000Y-165609000D02*
X143879000Y-164235000D01*
X143359000Y-165344000D02*
X143359000Y-164235000D01*
X142959000Y-162155000D02*
X142959000Y-161369000D01*
X143679000Y-162155000D02*
X143679000Y-160866000D01*
X143839000Y-165593000D02*
X143839000Y-164235000D01*
X147604775Y-164670000D02*
X147104775Y-164670000D01*
X142319000Y-164000000D02*
X142319000Y-162390000D01*
X143159000Y-162155000D02*
X143159000Y-161191000D01*
X144480000Y-165756000D02*
X144480000Y-164235000D01*
X143799000Y-165577000D02*
X143799000Y-164235000D01*
X143679000Y-165524000D02*
X143679000Y-164235000D01*
X142839000Y-162155000D02*
X142839000Y-161496000D01*
X143319000Y-165317000D02*
X143319000Y-164235000D01*
X142999000Y-162155000D02*
X142999000Y-161331000D01*
X142439000Y-164293000D02*
X142439000Y-162097000D01*
X143079000Y-165132000D02*
X143079000Y-164235000D01*
X144039000Y-165663000D02*
X144039000Y-164235000D01*
X144640000Y-165771000D02*
X144640000Y-160619000D01*
X142279000Y-163872000D02*
X142279000Y-162518000D01*
X142599000Y-162155000D02*
X142599000Y-161812000D01*
X142679000Y-162155000D02*
X142679000Y-161695000D01*
X143519000Y-162155000D02*
X143519000Y-160948000D01*
X142759000Y-164800000D02*
X142759000Y-164235000D01*
X143399000Y-162155000D02*
X143399000Y-161020000D01*
X142519000Y-162155000D02*
X142519000Y-161944000D01*
X143599000Y-162155000D02*
X143599000Y-160905000D01*
X142919000Y-164980000D02*
X142919000Y-164235000D01*
X144160000Y-162155000D02*
X144160000Y-160694000D01*
X142359000Y-164110000D02*
X142359000Y-162280000D01*
X143079000Y-162155000D02*
X143079000Y-161258000D01*
X143479000Y-165419000D02*
X143479000Y-164235000D01*
X144120000Y-165686000D02*
X144120000Y-164235000D01*
X143599000Y-165485000D02*
X143599000Y-164235000D01*
X143639000Y-162155000D02*
X143639000Y-160885000D01*
X143759000Y-162155000D02*
X143759000Y-160830000D01*
X144240000Y-162155000D02*
X144240000Y-160675000D01*
X143559000Y-165463000D02*
X143559000Y-164235000D01*
X142639000Y-164638000D02*
X142639000Y-164235000D01*
X143279000Y-165290000D02*
X143279000Y-164235000D01*
X144520000Y-162155000D02*
X144520000Y-160630000D01*
X143399000Y-165370000D02*
X143399000Y-164235000D01*
X143159000Y-165199000D02*
X143159000Y-164235000D01*
X144320000Y-165731000D02*
X144320000Y-164235000D01*
X143639000Y-165505000D02*
X143639000Y-164235000D01*
X142759000Y-162155000D02*
X142759000Y-161590000D01*
X144520000Y-165760000D02*
X144520000Y-164235000D01*
X144440000Y-162155000D02*
X144440000Y-160639000D01*
X142559000Y-164514000D02*
X142559000Y-164235000D01*
X143199000Y-165230000D02*
X143199000Y-164235000D01*
X144039000Y-162155000D02*
X144039000Y-160727000D01*
X142679000Y-164695000D02*
X142679000Y-164235000D01*
X142879000Y-164938000D02*
X142879000Y-164235000D01*
X143359000Y-162155000D02*
X143359000Y-161046000D01*
X147420000Y-163195000D02*
G75*
G03*
X147420000Y-163195000I-2620000J0D01*
G01*
%TO.C,U4E1*%
X147430000Y-156905000D02*
X147430000Y-121225000D01*
X147430000Y-121225000D02*
X141970000Y-121225000D01*
X134510000Y-121225000D02*
X134510000Y-156905000D01*
X134510000Y-156905000D02*
X147430000Y-156905000D01*
X139970000Y-121225000D02*
X134510000Y-121225000D01*
X139970000Y-121225000D02*
G75*
G03*
X141970000Y-121225000I1000000J0D01*
G01*
%TO.C,U1C1*%
X90440000Y-83125000D02*
X88790000Y-83125000D01*
X88790000Y-83125000D02*
X88790000Y-103565000D01*
X88790000Y-103565000D02*
X94090000Y-103565000D01*
X94090000Y-83125000D02*
X92440000Y-83125000D01*
X94090000Y-103565000D02*
X94090000Y-83125000D01*
X90440000Y-83125000D02*
G75*
G03*
X92440000Y-83125000I1000000J0D01*
G01*
%TO.C,C18*%
X83920000Y-83085000D02*
X81180000Y-83085000D01*
X83920000Y-90825000D02*
X81180000Y-90825000D01*
X83920000Y-83085000D02*
X83920000Y-90825000D01*
X81180000Y-83085000D02*
X81180000Y-90825000D01*
%TO.C,C17*%
X83920000Y-116225000D02*
X81180000Y-116225000D01*
X83920000Y-108485000D02*
X81180000Y-108485000D01*
X81180000Y-108485000D02*
X81180000Y-116225000D01*
X83920000Y-108485000D02*
X83920000Y-116225000D01*
%TO.C,U3E1*%
X119270000Y-133925000D02*
X119270000Y-151825000D01*
X124570000Y-151825000D02*
X124570000Y-133925000D01*
X120920000Y-133925000D02*
X119270000Y-133925000D01*
X124570000Y-133925000D02*
X122920000Y-133925000D01*
X119270000Y-151825000D02*
X124570000Y-151825000D01*
X120920000Y-133925000D02*
G75*
G03*
X122920000Y-133925000I1000000J0D01*
G01*
%TO.C,GND*%
X148530000Y-161350000D02*
X151190000Y-161350000D01*
X148530000Y-158690000D02*
X149860000Y-158690000D01*
X148530000Y-161290000D02*
X151190000Y-161290000D01*
X148530000Y-160020000D02*
X148530000Y-158690000D01*
X151190000Y-161290000D02*
X151190000Y-161350000D01*
X148530000Y-161290000D02*
X148530000Y-161350000D01*
%TO.C,U3B1*%
X119270000Y-75625000D02*
X124570000Y-75625000D01*
X124570000Y-75625000D02*
X124570000Y-57725000D01*
X119270000Y-57725000D02*
X119270000Y-75625000D01*
X124570000Y-57725000D02*
X122920000Y-57725000D01*
X120920000Y-57725000D02*
X119270000Y-57725000D01*
X120920000Y-57725000D02*
G75*
G03*
X122920000Y-57725000I1000000J0D01*
G01*
%TO.C,J1A1*%
X88790000Y-32325000D02*
X88790000Y-42605000D01*
X90440000Y-32325000D02*
X88790000Y-32325000D01*
X88790000Y-42605000D02*
X94090000Y-42605000D01*
X94090000Y-32325000D02*
X92440000Y-32325000D01*
X94090000Y-42605000D02*
X94090000Y-32325000D01*
X90440000Y-32325000D02*
G75*
G03*
X92440000Y-32325000I1000000J0D01*
G01*
%TO.C,J3A1*%
X124570000Y-52765000D02*
X124570000Y-32325000D01*
X120920000Y-32325000D02*
X119270000Y-32325000D01*
X119270000Y-32325000D02*
X119270000Y-52765000D01*
X119270000Y-52765000D02*
X124570000Y-52765000D01*
X124570000Y-32325000D02*
X122920000Y-32325000D01*
X120920000Y-32325000D02*
G75*
G03*
X122920000Y-32325000I1000000J0D01*
G01*
%TO.C,R6*%
X115570000Y-45315000D02*
X115570000Y-42005000D01*
X116940000Y-42005000D02*
X116940000Y-35465000D01*
X114200000Y-35465000D02*
X114200000Y-42005000D01*
X115570000Y-32155000D02*
X115570000Y-35465000D01*
X114200000Y-42005000D02*
X116940000Y-42005000D01*
X116940000Y-35465000D02*
X114200000Y-35465000D01*
%TO.C,C12*%
X96540000Y-47525000D02*
X96540000Y-50265000D01*
X88800000Y-47525000D02*
X88800000Y-50265000D01*
X88800000Y-47525000D02*
X96540000Y-47525000D01*
X88800000Y-50265000D02*
X96540000Y-50265000D01*
%TO.C,U2C1*%
X105680000Y-83125000D02*
X104030000Y-83125000D01*
X109330000Y-103565000D02*
X109330000Y-83125000D01*
X104030000Y-103565000D02*
X109330000Y-103565000D01*
X104030000Y-83125000D02*
X104030000Y-103565000D01*
X109330000Y-83125000D02*
X107680000Y-83125000D01*
X105680000Y-83125000D02*
G75*
G03*
X107680000Y-83125000I1000000J0D01*
G01*
%TO.C,U1B1*%
X88790000Y-57725000D02*
X88790000Y-78165000D01*
X88790000Y-78165000D02*
X94090000Y-78165000D01*
X94090000Y-78165000D02*
X94090000Y-57725000D01*
X94090000Y-57725000D02*
X92440000Y-57725000D01*
X90440000Y-57725000D02*
X88790000Y-57725000D01*
X90440000Y-57725000D02*
G75*
G03*
X92440000Y-57725000I1000000J0D01*
G01*
%TO.C,U1D1*%
X90440000Y-108525000D02*
X88790000Y-108525000D01*
X94090000Y-128965000D02*
X94090000Y-108525000D01*
X88790000Y-128965000D02*
X94090000Y-128965000D01*
X94090000Y-108525000D02*
X92440000Y-108525000D01*
X88790000Y-108525000D02*
X88790000Y-128965000D01*
X90440000Y-108525000D02*
G75*
G03*
X92440000Y-108525000I1000000J0D01*
G01*
%TD*%
%LPC*%
D14*
%TO.C,R1*%
X82550000Y-81915000D03*
D15*
X82550000Y-66675000D03*
%TD*%
D16*
%TO.C,U2B1*%
X102870000Y-59055000D03*
D15*
X102870000Y-61595000D03*
X102870000Y-64135000D03*
X102870000Y-66675000D03*
X102870000Y-69215000D03*
X102870000Y-71755000D03*
X102870000Y-74295000D03*
X110490000Y-74295000D03*
X110490000Y-71755000D03*
X110490000Y-69215000D03*
X110490000Y-66675000D03*
X110490000Y-64135000D03*
X110490000Y-61595000D03*
X110490000Y-59055000D03*
%TD*%
D17*
%TO.C,C16*%
X82550000Y-135255000D03*
X82550000Y-140255000D03*
%TD*%
%TO.C,C15*%
X125095000Y-80645000D03*
X120095000Y-80645000D03*
%TD*%
%TO.C,C13*%
X90170000Y-51435000D03*
X95170000Y-51435000D03*
%TD*%
D16*
%TO.C,U3D1*%
X118110000Y-109855000D03*
D15*
X118110000Y-112395000D03*
X118110000Y-114935000D03*
X118110000Y-117475000D03*
X118110000Y-120015000D03*
X118110000Y-122555000D03*
X118110000Y-125095000D03*
X125730000Y-125095000D03*
X125730000Y-122555000D03*
X125730000Y-120015000D03*
X125730000Y-117475000D03*
X125730000Y-114935000D03*
X125730000Y-112395000D03*
X125730000Y-109855000D03*
%TD*%
D17*
%TO.C,C11*%
X90170000Y-46355000D03*
X95170000Y-46355000D03*
%TD*%
D16*
%TO.C,U2E1*%
X102870000Y-135255000D03*
D15*
X102870000Y-137795000D03*
X102870000Y-140335000D03*
X102870000Y-142875000D03*
X102870000Y-145415000D03*
X102870000Y-147955000D03*
X102870000Y-150495000D03*
X110490000Y-150495000D03*
X110490000Y-147955000D03*
X110490000Y-145415000D03*
X110490000Y-142875000D03*
X110490000Y-140335000D03*
X110490000Y-137795000D03*
X110490000Y-135255000D03*
%TD*%
D16*
%TO.C,U2A1*%
X102870000Y-33655000D03*
D15*
X102870000Y-36195000D03*
X102870000Y-38735000D03*
X102870000Y-41275000D03*
X102870000Y-43815000D03*
X102870000Y-46355000D03*
X102870000Y-48895000D03*
X110490000Y-48895000D03*
X110490000Y-46355000D03*
X110490000Y-43815000D03*
X110490000Y-41275000D03*
X110490000Y-38735000D03*
X110490000Y-36195000D03*
X110490000Y-33655000D03*
%TD*%
D18*
%TO.C,J1*%
X143706000Y-62845000D03*
X143706000Y-65615000D03*
X143706000Y-68385000D03*
X143706000Y-71155000D03*
X143706000Y-73925000D03*
X143706000Y-76695000D03*
X143706000Y-79465000D03*
X143706000Y-82235000D03*
X143706000Y-85005000D03*
X143706000Y-87775000D03*
X143706000Y-90545000D03*
X143706000Y-93315000D03*
X143706000Y-96085000D03*
X146246000Y-64230000D03*
X146246000Y-67000000D03*
X146246000Y-69770000D03*
X146246000Y-72540000D03*
X146246000Y-75310000D03*
X146246000Y-78080000D03*
X146246000Y-80850000D03*
X146246000Y-83620000D03*
X146246000Y-86390000D03*
X146246000Y-89160000D03*
X146246000Y-91930000D03*
X146246000Y-94700000D03*
D19*
X144976000Y-55945000D03*
X144976000Y-102985000D03*
%TD*%
D16*
%TO.C,U4A1*%
X133350000Y-33655000D03*
D15*
X133350000Y-36195000D03*
X133350000Y-38735000D03*
X133350000Y-41275000D03*
X133350000Y-43815000D03*
X133350000Y-46355000D03*
X133350000Y-48895000D03*
X140970000Y-48895000D03*
X140970000Y-46355000D03*
X140970000Y-43815000D03*
X140970000Y-41275000D03*
X140970000Y-38735000D03*
X140970000Y-36195000D03*
X140970000Y-33655000D03*
%TD*%
D17*
%TO.C,C8*%
X129540000Y-127635000D03*
X129540000Y-132635000D03*
%TD*%
%TO.C,C7*%
X149225000Y-36195000D03*
X149225000Y-31195000D03*
%TD*%
%TO.C,C10*%
X125650000Y-106045000D03*
X120650000Y-106045000D03*
%TD*%
D16*
%TO.C,C3*%
X92710000Y-163195000D03*
D14*
X90210000Y-163195000D03*
%TD*%
D17*
%TO.C,C19*%
X82550000Y-59055000D03*
X82550000Y-64055000D03*
%TD*%
D16*
%TO.C,U2D1*%
X102870000Y-109855000D03*
D15*
X102870000Y-112395000D03*
X102870000Y-114935000D03*
X102870000Y-117475000D03*
X102870000Y-120015000D03*
X102870000Y-122555000D03*
X102870000Y-125095000D03*
X102870000Y-127635000D03*
X110490000Y-127635000D03*
X110490000Y-125095000D03*
X110490000Y-122555000D03*
X110490000Y-120015000D03*
X110490000Y-117475000D03*
X110490000Y-114935000D03*
X110490000Y-112395000D03*
X110490000Y-109855000D03*
%TD*%
D17*
%TO.C,C5*%
X143510000Y-43815000D03*
X143510000Y-48815000D03*
%TD*%
D20*
%TO.C,REF\u002A\u002A*%
X151010000Y-164585000D03*
%TD*%
D17*
%TO.C,C6*%
X146050000Y-43815000D03*
X146050000Y-48815000D03*
%TD*%
D21*
%TO.C,REF\u002A\u002A*%
X85090000Y-53975000D03*
%TD*%
D16*
%TO.C,C1*%
X138430000Y-163195000D03*
D14*
X135930000Y-163195000D03*
%TD*%
D17*
%TO.C,C4*%
X148590000Y-43815000D03*
X148590000Y-48815000D03*
%TD*%
%TO.C,C20*%
X146050000Y-36195000D03*
X146050000Y-31195000D03*
%TD*%
D21*
%TO.C,REF\u002A\u002A*%
X85090000Y-48895000D03*
%TD*%
D14*
%TO.C,R3*%
X148590000Y-113665000D03*
D15*
X138430000Y-113665000D03*
%TD*%
D14*
%TO.C,R4*%
X148590000Y-111125000D03*
D15*
X138430000Y-111125000D03*
%TD*%
D16*
%TO.C,U1E1*%
X87630000Y-135255000D03*
D15*
X87630000Y-137795000D03*
X87630000Y-140335000D03*
X87630000Y-142875000D03*
X87630000Y-145415000D03*
X87630000Y-147955000D03*
X87630000Y-150495000D03*
X87630000Y-153035000D03*
X95250000Y-153035000D03*
X95250000Y-150495000D03*
X95250000Y-147955000D03*
X95250000Y-145415000D03*
X95250000Y-142875000D03*
X95250000Y-140335000D03*
X95250000Y-137795000D03*
X95250000Y-135255000D03*
%TD*%
D22*
%TO.C,J2*%
X133964400Y-171135000D03*
X130795600Y-171135000D03*
X127626700Y-171135000D03*
X124457800Y-171135000D03*
X121288900Y-171135000D03*
X118120000Y-171135000D03*
X114951100Y-171135000D03*
X111782200Y-171135000D03*
X108613300Y-171135000D03*
X105444400Y-171135000D03*
X102275600Y-171135000D03*
X99106700Y-171135000D03*
X95937780Y-171135000D03*
X92768890Y-171135000D03*
X89600000Y-171135000D03*
X89600000Y-171135000D03*
%TD*%
D16*
%TO.C,U3C1*%
X118110000Y-84455000D03*
D15*
X118110000Y-86995000D03*
X118110000Y-89535000D03*
X118110000Y-92075000D03*
X118110000Y-94615000D03*
X118110000Y-97155000D03*
X118110000Y-99695000D03*
X118110000Y-102235000D03*
X125730000Y-102235000D03*
X125730000Y-99695000D03*
X125730000Y-97155000D03*
X125730000Y-94615000D03*
X125730000Y-92075000D03*
X125730000Y-89535000D03*
X125730000Y-86995000D03*
X125730000Y-84455000D03*
%TD*%
D23*
%TO.C,P.GND*%
X148590000Y-118745000D03*
%TD*%
D17*
%TO.C,C9*%
X125690000Y-131445000D03*
X120690000Y-131445000D03*
%TD*%
D21*
%TO.C,REF\u002A\u002A*%
X85090000Y-51435000D03*
%TD*%
D20*
%TO.C,REF\u002A\u002A*%
X79880000Y-29975000D03*
%TD*%
D17*
%TO.C,C14*%
X90170000Y-53975000D03*
X95170000Y-53975000D03*
%TD*%
D21*
%TO.C,REF\u002A\u002A*%
X85090000Y-46355000D03*
%TD*%
D14*
%TO.C,R5*%
X130810000Y-33655000D03*
D15*
X130810000Y-48895000D03*
%TD*%
D14*
%TO.C,R2*%
X148590000Y-116205000D03*
D15*
X138430000Y-116205000D03*
%TD*%
D23*
%TO.C,W1*%
X148590000Y-51435000D03*
D24*
X146050000Y-51435000D03*
X143510000Y-51435000D03*
%TD*%
D16*
%TO.C,C2*%
X146050000Y-163195000D03*
D14*
X143550000Y-163195000D03*
%TD*%
D16*
%TO.C,U4E1*%
X133350000Y-122555000D03*
D15*
X133350000Y-125095000D03*
X133350000Y-127635000D03*
X133350000Y-130175000D03*
X133350000Y-132715000D03*
X133350000Y-135255000D03*
X133350000Y-137795000D03*
X133350000Y-140335000D03*
X133350000Y-142875000D03*
X133350000Y-145415000D03*
X133350000Y-147955000D03*
X133350000Y-150495000D03*
X133350000Y-153035000D03*
X133350000Y-155575000D03*
X148590000Y-155575000D03*
X148590000Y-153035000D03*
X148590000Y-150495000D03*
X148590000Y-147955000D03*
X148590000Y-145415000D03*
X148590000Y-142875000D03*
X148590000Y-140335000D03*
X148590000Y-137795000D03*
X148590000Y-135255000D03*
X148590000Y-132715000D03*
X148590000Y-130175000D03*
X148590000Y-127635000D03*
X148590000Y-125095000D03*
X148590000Y-122555000D03*
%TD*%
D16*
%TO.C,U1C1*%
X87630000Y-84455000D03*
D15*
X87630000Y-86995000D03*
X87630000Y-89535000D03*
X87630000Y-92075000D03*
X87630000Y-94615000D03*
X87630000Y-97155000D03*
X87630000Y-99695000D03*
X87630000Y-102235000D03*
X95250000Y-102235000D03*
X95250000Y-99695000D03*
X95250000Y-97155000D03*
X95250000Y-94615000D03*
X95250000Y-92075000D03*
X95250000Y-89535000D03*
X95250000Y-86995000D03*
X95250000Y-84455000D03*
%TD*%
D17*
%TO.C,C18*%
X82550000Y-84455000D03*
X82550000Y-89455000D03*
%TD*%
%TO.C,C17*%
X82550000Y-109855000D03*
X82550000Y-114855000D03*
%TD*%
D16*
%TO.C,U3E1*%
X118110000Y-135255000D03*
D15*
X118110000Y-137795000D03*
X118110000Y-140335000D03*
X118110000Y-142875000D03*
X118110000Y-145415000D03*
X118110000Y-147955000D03*
X118110000Y-150495000D03*
X125730000Y-150495000D03*
X125730000Y-147955000D03*
X125730000Y-145415000D03*
X125730000Y-142875000D03*
X125730000Y-140335000D03*
X125730000Y-137795000D03*
X125730000Y-135255000D03*
%TD*%
D23*
%TO.C,GND*%
X149860000Y-160020000D03*
%TD*%
D16*
%TO.C,U3B1*%
X118110000Y-59055000D03*
D15*
X118110000Y-61595000D03*
X118110000Y-64135000D03*
X118110000Y-66675000D03*
X118110000Y-69215000D03*
X118110000Y-71755000D03*
X118110000Y-74295000D03*
X125730000Y-74295000D03*
X125730000Y-71755000D03*
X125730000Y-69215000D03*
X125730000Y-66675000D03*
X125730000Y-64135000D03*
X125730000Y-61595000D03*
X125730000Y-59055000D03*
%TD*%
D16*
%TO.C,J1A1*%
X87630000Y-33655000D03*
D15*
X87630000Y-36195000D03*
X87630000Y-38735000D03*
X87630000Y-41275000D03*
X95250000Y-41275000D03*
X95250000Y-38735000D03*
X95250000Y-36195000D03*
X95250000Y-33655000D03*
%TD*%
D16*
%TO.C,J3A1*%
X118110000Y-33655000D03*
D15*
X118110000Y-36195000D03*
X118110000Y-38735000D03*
X118110000Y-41275000D03*
X118110000Y-43815000D03*
X118110000Y-46355000D03*
X118110000Y-48895000D03*
X118110000Y-51435000D03*
X125730000Y-51435000D03*
X125730000Y-48895000D03*
X125730000Y-46355000D03*
X125730000Y-43815000D03*
X125730000Y-41275000D03*
X125730000Y-38735000D03*
X125730000Y-36195000D03*
X125730000Y-33655000D03*
%TD*%
D14*
%TO.C,R6*%
X115570000Y-31115000D03*
D15*
X115570000Y-46355000D03*
%TD*%
D17*
%TO.C,C12*%
X90170000Y-48895000D03*
X95170000Y-48895000D03*
%TD*%
D16*
%TO.C,U2C1*%
X102870000Y-84455000D03*
D15*
X102870000Y-86995000D03*
X102870000Y-89535000D03*
X102870000Y-92075000D03*
X102870000Y-94615000D03*
X102870000Y-97155000D03*
X102870000Y-99695000D03*
X102870000Y-102235000D03*
X110490000Y-102235000D03*
X110490000Y-99695000D03*
X110490000Y-97155000D03*
X110490000Y-94615000D03*
X110490000Y-92075000D03*
X110490000Y-89535000D03*
X110490000Y-86995000D03*
X110490000Y-84455000D03*
%TD*%
D16*
%TO.C,U1B1*%
X87630000Y-59055000D03*
D15*
X87630000Y-61595000D03*
X87630000Y-64135000D03*
X87630000Y-66675000D03*
X87630000Y-69215000D03*
X87630000Y-71755000D03*
X87630000Y-74295000D03*
X87630000Y-76835000D03*
X95250000Y-76835000D03*
X95250000Y-74295000D03*
X95250000Y-71755000D03*
X95250000Y-69215000D03*
X95250000Y-66675000D03*
X95250000Y-64135000D03*
X95250000Y-61595000D03*
X95250000Y-59055000D03*
%TD*%
D16*
%TO.C,U1D1*%
X87630000Y-109855000D03*
D15*
X87630000Y-112395000D03*
X87630000Y-114935000D03*
X87630000Y-117475000D03*
X87630000Y-120015000D03*
X87630000Y-122555000D03*
X87630000Y-125095000D03*
X87630000Y-127635000D03*
X95250000Y-127635000D03*
X95250000Y-125095000D03*
X95250000Y-122555000D03*
X95250000Y-120015000D03*
X95250000Y-117475000D03*
X95250000Y-114935000D03*
X95250000Y-112395000D03*
X95250000Y-109855000D03*
%TD*%
M02*
