%TF.GenerationSoftware,KiCad,Pcbnew,(6.0.0)*%
%TF.CreationDate,2022-03-13T20:59:25-04:00*%
%TF.ProjectId,Northstar SIO,4e6f7274-6873-4746-9172-2053494f2e6b,rev?*%
%TF.SameCoordinates,Original*%
%TF.FileFunction,Soldermask,Top*%
%TF.FilePolarity,Negative*%
%FSLAX46Y46*%
G04 Gerber Fmt 4.6, Leading zero omitted, Abs format (unit mm)*
G04 Created by KiCad (PCBNEW (6.0.0)) date 2022-03-13 20:59:25*
%MOMM*%
%LPD*%
G01*
G04 APERTURE LIST*
%ADD10C,1.600000*%
%ADD11O,1.600000X1.600000*%
%ADD12R,1.600000X1.600000*%
%ADD13C,2.000000*%
%ADD14C,1.500000*%
%ADD15C,4.800000*%
%ADD16C,3.200000*%
%ADD17C,1.700000*%
%ADD18R,1.700000X7.400000*%
%ADD19R,1.700000X1.700000*%
%ADD20O,1.700000X1.700000*%
G04 APERTURE END LIST*
D10*
%TO.C,R1*%
X82550000Y-81915000D03*
D11*
X82550000Y-66675000D03*
%TD*%
D12*
%TO.C,U2B1*%
X102870000Y-59055000D03*
D11*
X102870000Y-61595000D03*
X102870000Y-64135000D03*
X102870000Y-66675000D03*
X102870000Y-69215000D03*
X102870000Y-71755000D03*
X102870000Y-74295000D03*
X110490000Y-74295000D03*
X110490000Y-71755000D03*
X110490000Y-69215000D03*
X110490000Y-66675000D03*
X110490000Y-64135000D03*
X110490000Y-61595000D03*
X110490000Y-59055000D03*
%TD*%
D13*
%TO.C,C16*%
X82550000Y-135255000D03*
X82550000Y-140255000D03*
%TD*%
%TO.C,C15*%
X125095000Y-80645000D03*
X120095000Y-80645000D03*
%TD*%
%TO.C,C13*%
X90170000Y-51435000D03*
X95170000Y-51435000D03*
%TD*%
D12*
%TO.C,U3D1*%
X118110000Y-109855000D03*
D11*
X118110000Y-112395000D03*
X118110000Y-114935000D03*
X118110000Y-117475000D03*
X118110000Y-120015000D03*
X118110000Y-122555000D03*
X118110000Y-125095000D03*
X125730000Y-125095000D03*
X125730000Y-122555000D03*
X125730000Y-120015000D03*
X125730000Y-117475000D03*
X125730000Y-114935000D03*
X125730000Y-112395000D03*
X125730000Y-109855000D03*
%TD*%
D13*
%TO.C,C11*%
X90170000Y-46355000D03*
X95170000Y-46355000D03*
%TD*%
D12*
%TO.C,U2E1*%
X102870000Y-135255000D03*
D11*
X102870000Y-137795000D03*
X102870000Y-140335000D03*
X102870000Y-142875000D03*
X102870000Y-145415000D03*
X102870000Y-147955000D03*
X102870000Y-150495000D03*
X110490000Y-150495000D03*
X110490000Y-147955000D03*
X110490000Y-145415000D03*
X110490000Y-142875000D03*
X110490000Y-140335000D03*
X110490000Y-137795000D03*
X110490000Y-135255000D03*
%TD*%
D12*
%TO.C,U2A1*%
X102870000Y-33655000D03*
D11*
X102870000Y-36195000D03*
X102870000Y-38735000D03*
X102870000Y-41275000D03*
X102870000Y-43815000D03*
X102870000Y-46355000D03*
X102870000Y-48895000D03*
X110490000Y-48895000D03*
X110490000Y-46355000D03*
X110490000Y-43815000D03*
X110490000Y-41275000D03*
X110490000Y-38735000D03*
X110490000Y-36195000D03*
X110490000Y-33655000D03*
%TD*%
D14*
%TO.C,J1*%
X143706000Y-62845000D03*
X143706000Y-65615000D03*
X143706000Y-68385000D03*
X143706000Y-71155000D03*
X143706000Y-73925000D03*
X143706000Y-76695000D03*
X143706000Y-79465000D03*
X143706000Y-82235000D03*
X143706000Y-85005000D03*
X143706000Y-87775000D03*
X143706000Y-90545000D03*
X143706000Y-93315000D03*
X143706000Y-96085000D03*
X146246000Y-64230000D03*
X146246000Y-67000000D03*
X146246000Y-69770000D03*
X146246000Y-72540000D03*
X146246000Y-75310000D03*
X146246000Y-78080000D03*
X146246000Y-80850000D03*
X146246000Y-83620000D03*
X146246000Y-86390000D03*
X146246000Y-89160000D03*
X146246000Y-91930000D03*
X146246000Y-94700000D03*
D15*
X144976000Y-55945000D03*
X144976000Y-102985000D03*
%TD*%
D12*
%TO.C,U4A1*%
X133350000Y-33655000D03*
D11*
X133350000Y-36195000D03*
X133350000Y-38735000D03*
X133350000Y-41275000D03*
X133350000Y-43815000D03*
X133350000Y-46355000D03*
X133350000Y-48895000D03*
X140970000Y-48895000D03*
X140970000Y-46355000D03*
X140970000Y-43815000D03*
X140970000Y-41275000D03*
X140970000Y-38735000D03*
X140970000Y-36195000D03*
X140970000Y-33655000D03*
%TD*%
D13*
%TO.C,C8*%
X129540000Y-127635000D03*
X129540000Y-132635000D03*
%TD*%
%TO.C,C7*%
X149225000Y-36195000D03*
X149225000Y-31195000D03*
%TD*%
%TO.C,C10*%
X125650000Y-106045000D03*
X120650000Y-106045000D03*
%TD*%
D12*
%TO.C,C3*%
X92710000Y-163195000D03*
D10*
X90210000Y-163195000D03*
%TD*%
D13*
%TO.C,C19*%
X82550000Y-59055000D03*
X82550000Y-64055000D03*
%TD*%
D12*
%TO.C,U2D1*%
X102870000Y-109855000D03*
D11*
X102870000Y-112395000D03*
X102870000Y-114935000D03*
X102870000Y-117475000D03*
X102870000Y-120015000D03*
X102870000Y-122555000D03*
X102870000Y-125095000D03*
X102870000Y-127635000D03*
X110490000Y-127635000D03*
X110490000Y-125095000D03*
X110490000Y-122555000D03*
X110490000Y-120015000D03*
X110490000Y-117475000D03*
X110490000Y-114935000D03*
X110490000Y-112395000D03*
X110490000Y-109855000D03*
%TD*%
D13*
%TO.C,C5*%
X143510000Y-43815000D03*
X143510000Y-48815000D03*
%TD*%
D16*
%TO.C,REF\u002A\u002A*%
X151010000Y-164585000D03*
%TD*%
D13*
%TO.C,C6*%
X146050000Y-43815000D03*
X146050000Y-48815000D03*
%TD*%
D17*
%TO.C,REF\u002A\u002A*%
X85090000Y-53975000D03*
%TD*%
D12*
%TO.C,C1*%
X138430000Y-163195000D03*
D10*
X135930000Y-163195000D03*
%TD*%
D13*
%TO.C,C4*%
X148590000Y-43815000D03*
X148590000Y-48815000D03*
%TD*%
%TO.C,C20*%
X146050000Y-36195000D03*
X146050000Y-31195000D03*
%TD*%
D17*
%TO.C,REF\u002A\u002A*%
X85090000Y-48895000D03*
%TD*%
D10*
%TO.C,R3*%
X148590000Y-113665000D03*
D11*
X138430000Y-113665000D03*
%TD*%
D10*
%TO.C,R4*%
X148590000Y-111125000D03*
D11*
X138430000Y-111125000D03*
%TD*%
D12*
%TO.C,U1E1*%
X87630000Y-135255000D03*
D11*
X87630000Y-137795000D03*
X87630000Y-140335000D03*
X87630000Y-142875000D03*
X87630000Y-145415000D03*
X87630000Y-147955000D03*
X87630000Y-150495000D03*
X87630000Y-153035000D03*
X95250000Y-153035000D03*
X95250000Y-150495000D03*
X95250000Y-147955000D03*
X95250000Y-145415000D03*
X95250000Y-142875000D03*
X95250000Y-140335000D03*
X95250000Y-137795000D03*
X95250000Y-135255000D03*
%TD*%
D18*
%TO.C,J2*%
X133964400Y-171135000D03*
X130795600Y-171135000D03*
X127626700Y-171135000D03*
X124457800Y-171135000D03*
X121288900Y-171135000D03*
X118120000Y-171135000D03*
X114951100Y-171135000D03*
X111782200Y-171135000D03*
X108613300Y-171135000D03*
X105444400Y-171135000D03*
X102275600Y-171135000D03*
X99106700Y-171135000D03*
X95937780Y-171135000D03*
X92768890Y-171135000D03*
X89600000Y-171135000D03*
X89600000Y-171135000D03*
%TD*%
D12*
%TO.C,U3C1*%
X118110000Y-84455000D03*
D11*
X118110000Y-86995000D03*
X118110000Y-89535000D03*
X118110000Y-92075000D03*
X118110000Y-94615000D03*
X118110000Y-97155000D03*
X118110000Y-99695000D03*
X118110000Y-102235000D03*
X125730000Y-102235000D03*
X125730000Y-99695000D03*
X125730000Y-97155000D03*
X125730000Y-94615000D03*
X125730000Y-92075000D03*
X125730000Y-89535000D03*
X125730000Y-86995000D03*
X125730000Y-84455000D03*
%TD*%
D19*
%TO.C,P.GND*%
X148590000Y-118745000D03*
%TD*%
D13*
%TO.C,C9*%
X125690000Y-131445000D03*
X120690000Y-131445000D03*
%TD*%
D17*
%TO.C,REF\u002A\u002A*%
X85090000Y-51435000D03*
%TD*%
D16*
%TO.C,REF\u002A\u002A*%
X79880000Y-29975000D03*
%TD*%
D13*
%TO.C,C14*%
X90170000Y-53975000D03*
X95170000Y-53975000D03*
%TD*%
D17*
%TO.C,REF\u002A\u002A*%
X85090000Y-46355000D03*
%TD*%
D10*
%TO.C,R5*%
X130810000Y-33655000D03*
D11*
X130810000Y-48895000D03*
%TD*%
D10*
%TO.C,R2*%
X148590000Y-116205000D03*
D11*
X138430000Y-116205000D03*
%TD*%
D19*
%TO.C,W1*%
X148590000Y-51435000D03*
D20*
X146050000Y-51435000D03*
X143510000Y-51435000D03*
%TD*%
D12*
%TO.C,C2*%
X146050000Y-163195000D03*
D10*
X143550000Y-163195000D03*
%TD*%
D12*
%TO.C,U4E1*%
X133350000Y-122555000D03*
D11*
X133350000Y-125095000D03*
X133350000Y-127635000D03*
X133350000Y-130175000D03*
X133350000Y-132715000D03*
X133350000Y-135255000D03*
X133350000Y-137795000D03*
X133350000Y-140335000D03*
X133350000Y-142875000D03*
X133350000Y-145415000D03*
X133350000Y-147955000D03*
X133350000Y-150495000D03*
X133350000Y-153035000D03*
X133350000Y-155575000D03*
X148590000Y-155575000D03*
X148590000Y-153035000D03*
X148590000Y-150495000D03*
X148590000Y-147955000D03*
X148590000Y-145415000D03*
X148590000Y-142875000D03*
X148590000Y-140335000D03*
X148590000Y-137795000D03*
X148590000Y-135255000D03*
X148590000Y-132715000D03*
X148590000Y-130175000D03*
X148590000Y-127635000D03*
X148590000Y-125095000D03*
X148590000Y-122555000D03*
%TD*%
D12*
%TO.C,U1C1*%
X87630000Y-84455000D03*
D11*
X87630000Y-86995000D03*
X87630000Y-89535000D03*
X87630000Y-92075000D03*
X87630000Y-94615000D03*
X87630000Y-97155000D03*
X87630000Y-99695000D03*
X87630000Y-102235000D03*
X95250000Y-102235000D03*
X95250000Y-99695000D03*
X95250000Y-97155000D03*
X95250000Y-94615000D03*
X95250000Y-92075000D03*
X95250000Y-89535000D03*
X95250000Y-86995000D03*
X95250000Y-84455000D03*
%TD*%
D13*
%TO.C,C18*%
X82550000Y-84455000D03*
X82550000Y-89455000D03*
%TD*%
%TO.C,C17*%
X82550000Y-109855000D03*
X82550000Y-114855000D03*
%TD*%
D12*
%TO.C,U3E1*%
X118110000Y-135255000D03*
D11*
X118110000Y-137795000D03*
X118110000Y-140335000D03*
X118110000Y-142875000D03*
X118110000Y-145415000D03*
X118110000Y-147955000D03*
X118110000Y-150495000D03*
X125730000Y-150495000D03*
X125730000Y-147955000D03*
X125730000Y-145415000D03*
X125730000Y-142875000D03*
X125730000Y-140335000D03*
X125730000Y-137795000D03*
X125730000Y-135255000D03*
%TD*%
D19*
%TO.C,GND*%
X149860000Y-160020000D03*
%TD*%
D12*
%TO.C,U3B1*%
X118110000Y-59055000D03*
D11*
X118110000Y-61595000D03*
X118110000Y-64135000D03*
X118110000Y-66675000D03*
X118110000Y-69215000D03*
X118110000Y-71755000D03*
X118110000Y-74295000D03*
X125730000Y-74295000D03*
X125730000Y-71755000D03*
X125730000Y-69215000D03*
X125730000Y-66675000D03*
X125730000Y-64135000D03*
X125730000Y-61595000D03*
X125730000Y-59055000D03*
%TD*%
D12*
%TO.C,J1A1*%
X87630000Y-33655000D03*
D11*
X87630000Y-36195000D03*
X87630000Y-38735000D03*
X87630000Y-41275000D03*
X95250000Y-41275000D03*
X95250000Y-38735000D03*
X95250000Y-36195000D03*
X95250000Y-33655000D03*
%TD*%
D12*
%TO.C,J3A1*%
X118110000Y-33655000D03*
D11*
X118110000Y-36195000D03*
X118110000Y-38735000D03*
X118110000Y-41275000D03*
X118110000Y-43815000D03*
X118110000Y-46355000D03*
X118110000Y-48895000D03*
X118110000Y-51435000D03*
X125730000Y-51435000D03*
X125730000Y-48895000D03*
X125730000Y-46355000D03*
X125730000Y-43815000D03*
X125730000Y-41275000D03*
X125730000Y-38735000D03*
X125730000Y-36195000D03*
X125730000Y-33655000D03*
%TD*%
D10*
%TO.C,R6*%
X115570000Y-31115000D03*
D11*
X115570000Y-46355000D03*
%TD*%
D13*
%TO.C,C12*%
X90170000Y-48895000D03*
X95170000Y-48895000D03*
%TD*%
D12*
%TO.C,U2C1*%
X102870000Y-84455000D03*
D11*
X102870000Y-86995000D03*
X102870000Y-89535000D03*
X102870000Y-92075000D03*
X102870000Y-94615000D03*
X102870000Y-97155000D03*
X102870000Y-99695000D03*
X102870000Y-102235000D03*
X110490000Y-102235000D03*
X110490000Y-99695000D03*
X110490000Y-97155000D03*
X110490000Y-94615000D03*
X110490000Y-92075000D03*
X110490000Y-89535000D03*
X110490000Y-86995000D03*
X110490000Y-84455000D03*
%TD*%
D12*
%TO.C,U1B1*%
X87630000Y-59055000D03*
D11*
X87630000Y-61595000D03*
X87630000Y-64135000D03*
X87630000Y-66675000D03*
X87630000Y-69215000D03*
X87630000Y-71755000D03*
X87630000Y-74295000D03*
X87630000Y-76835000D03*
X95250000Y-76835000D03*
X95250000Y-74295000D03*
X95250000Y-71755000D03*
X95250000Y-69215000D03*
X95250000Y-66675000D03*
X95250000Y-64135000D03*
X95250000Y-61595000D03*
X95250000Y-59055000D03*
%TD*%
D12*
%TO.C,U1D1*%
X87630000Y-109855000D03*
D11*
X87630000Y-112395000D03*
X87630000Y-114935000D03*
X87630000Y-117475000D03*
X87630000Y-120015000D03*
X87630000Y-122555000D03*
X87630000Y-125095000D03*
X87630000Y-127635000D03*
X95250000Y-127635000D03*
X95250000Y-125095000D03*
X95250000Y-122555000D03*
X95250000Y-120015000D03*
X95250000Y-117475000D03*
X95250000Y-114935000D03*
X95250000Y-112395000D03*
X95250000Y-109855000D03*
%TD*%
M02*
