%TF.GenerationSoftware,KiCad,Pcbnew,(6.0.0)*%
%TF.CreationDate,2022-03-13T20:59:25-04:00*%
%TF.ProjectId,Northstar SIO,4e6f7274-6873-4746-9172-2053494f2e6b,rev?*%
%TF.SameCoordinates,Original*%
%TF.FileFunction,Copper,L2,Bot*%
%TF.FilePolarity,Positive*%
%FSLAX46Y46*%
G04 Gerber Fmt 4.6, Leading zero omitted, Abs format (unit mm)*
G04 Created by KiCad (PCBNEW (6.0.0)) date 2022-03-13 20:59:25*
%MOMM*%
%LPD*%
G01*
G04 APERTURE LIST*
%ADD10C,0.300000*%
%TA.AperFunction,NonConductor*%
%ADD11C,0.300000*%
%TD*%
%TA.AperFunction,ComponentPad*%
%ADD12C,1.600000*%
%TD*%
%TA.AperFunction,ComponentPad*%
%ADD13O,1.600000X1.600000*%
%TD*%
%TA.AperFunction,ComponentPad*%
%ADD14R,1.600000X1.600000*%
%TD*%
%TA.AperFunction,ComponentPad*%
%ADD15C,2.000000*%
%TD*%
%TA.AperFunction,ComponentPad*%
%ADD16C,1.500000*%
%TD*%
%TA.AperFunction,ComponentPad*%
%ADD17C,4.800000*%
%TD*%
%TA.AperFunction,ComponentPad*%
%ADD18C,1.700000*%
%TD*%
%TA.AperFunction,SMDPad,CuDef*%
%ADD19R,1.700000X7.400000*%
%TD*%
%TA.AperFunction,ComponentPad*%
%ADD20R,1.700000X1.700000*%
%TD*%
%TA.AperFunction,ComponentPad*%
%ADD21O,1.700000X1.700000*%
%TD*%
%TA.AperFunction,ViaPad*%
%ADD22C,0.800000*%
%TD*%
%TA.AperFunction,Conductor*%
%ADD23C,0.250000*%
%TD*%
%TA.AperFunction,Conductor*%
%ADD24C,0.700000*%
%TD*%
%TA.AperFunction,Conductor*%
%ADD25C,1.500000*%
%TD*%
G04 APERTURE END LIST*
D10*
D11*
X150157714Y-63232285D02*
X150086285Y-63089428D01*
X150086285Y-62803714D01*
X150157714Y-62660857D01*
X150300571Y-62518000D01*
X150443428Y-62446571D01*
X150729142Y-62446571D01*
X150872000Y-62518000D01*
X151014857Y-62660857D01*
X151086285Y-62803714D01*
X151086285Y-63089428D01*
X151014857Y-63232285D01*
X149586285Y-62946571D02*
X149657714Y-62589428D01*
X149872000Y-62232285D01*
X150229142Y-62018000D01*
X150586285Y-61946571D01*
X150943428Y-62018000D01*
X151300571Y-62232285D01*
X151514857Y-62589428D01*
X151586285Y-62946571D01*
X151514857Y-63303714D01*
X151300571Y-63660857D01*
X150943428Y-63875142D01*
X150586285Y-63946571D01*
X150229142Y-63875142D01*
X149872000Y-63660857D01*
X149657714Y-63303714D01*
X149586285Y-62946571D01*
X151300571Y-65375142D02*
X151300571Y-64518000D01*
X151300571Y-64946571D02*
X149800571Y-64946571D01*
X150014857Y-64803714D01*
X150157714Y-64660857D01*
X150229142Y-64518000D01*
X151300571Y-66089428D02*
X151300571Y-66375142D01*
X151229142Y-66518000D01*
X151157714Y-66589428D01*
X150943428Y-66732285D01*
X150657714Y-66803714D01*
X150086285Y-66803714D01*
X149943428Y-66732285D01*
X149872000Y-66660857D01*
X149800571Y-66518000D01*
X149800571Y-66232285D01*
X149872000Y-66089428D01*
X149943428Y-66018000D01*
X150086285Y-65946571D01*
X150443428Y-65946571D01*
X150586285Y-66018000D01*
X150657714Y-66089428D01*
X150729142Y-66232285D01*
X150729142Y-66518000D01*
X150657714Y-66660857D01*
X150586285Y-66732285D01*
X150443428Y-66803714D01*
X150443428Y-67660857D02*
X150372000Y-67518000D01*
X150300571Y-67446571D01*
X150157714Y-67375142D01*
X150086285Y-67375142D01*
X149943428Y-67446571D01*
X149872000Y-67518000D01*
X149800571Y-67660857D01*
X149800571Y-67946571D01*
X149872000Y-68089428D01*
X149943428Y-68160857D01*
X150086285Y-68232285D01*
X150157714Y-68232285D01*
X150300571Y-68160857D01*
X150372000Y-68089428D01*
X150443428Y-67946571D01*
X150443428Y-67660857D01*
X150514857Y-67518000D01*
X150586285Y-67446571D01*
X150729142Y-67375142D01*
X151014857Y-67375142D01*
X151157714Y-67446571D01*
X151229142Y-67518000D01*
X151300571Y-67660857D01*
X151300571Y-67946571D01*
X151229142Y-68089428D01*
X151157714Y-68160857D01*
X151014857Y-68232285D01*
X150729142Y-68232285D01*
X150586285Y-68160857D01*
X150514857Y-68089428D01*
X150443428Y-67946571D01*
X151300571Y-69660857D02*
X151300571Y-68803714D01*
X151300571Y-69232285D02*
X149800571Y-69232285D01*
X150014857Y-69089428D01*
X150157714Y-68946571D01*
X150229142Y-68803714D01*
X151300571Y-71446571D02*
X149800571Y-71446571D01*
X151300571Y-72303714D01*
X149800571Y-72303714D01*
X149800571Y-73303714D02*
X149800571Y-73589428D01*
X149872000Y-73732285D01*
X150014857Y-73875142D01*
X150300571Y-73946571D01*
X150800571Y-73946571D01*
X151086285Y-73875142D01*
X151229142Y-73732285D01*
X151300571Y-73589428D01*
X151300571Y-73303714D01*
X151229142Y-73160857D01*
X151086285Y-73018000D01*
X150800571Y-72946571D01*
X150300571Y-72946571D01*
X150014857Y-73018000D01*
X149872000Y-73160857D01*
X149800571Y-73303714D01*
X151300571Y-75446571D02*
X150586285Y-74946571D01*
X151300571Y-74589428D02*
X149800571Y-74589428D01*
X149800571Y-75160857D01*
X149872000Y-75303714D01*
X149943428Y-75375142D01*
X150086285Y-75446571D01*
X150300571Y-75446571D01*
X150443428Y-75375142D01*
X150514857Y-75303714D01*
X150586285Y-75160857D01*
X150586285Y-74589428D01*
X149800571Y-75875142D02*
X149800571Y-76732285D01*
X151300571Y-76303714D02*
X149800571Y-76303714D01*
X151300571Y-77232285D02*
X149800571Y-77232285D01*
X150514857Y-77232285D02*
X150514857Y-78089428D01*
X151300571Y-78089428D02*
X149800571Y-78089428D01*
X151229142Y-79875142D02*
X151300571Y-80089428D01*
X151300571Y-80446571D01*
X151229142Y-80589428D01*
X151157714Y-80660857D01*
X151014857Y-80732285D01*
X150872000Y-80732285D01*
X150729142Y-80660857D01*
X150657714Y-80589428D01*
X150586285Y-80446571D01*
X150514857Y-80160857D01*
X150443428Y-80018000D01*
X150372000Y-79946571D01*
X150229142Y-79875142D01*
X150086285Y-79875142D01*
X149943428Y-79946571D01*
X149872000Y-80018000D01*
X149800571Y-80160857D01*
X149800571Y-80518000D01*
X149872000Y-80732285D01*
X149800571Y-81160857D02*
X149800571Y-82018000D01*
X151300571Y-81589428D02*
X149800571Y-81589428D01*
X150872000Y-82446571D02*
X150872000Y-83160857D01*
X151300571Y-82303714D02*
X149800571Y-82803714D01*
X151300571Y-83303714D01*
X151300571Y-84660857D02*
X150586285Y-84160857D01*
X151300571Y-83803714D02*
X149800571Y-83803714D01*
X149800571Y-84375142D01*
X149872000Y-84518000D01*
X149943428Y-84589428D01*
X150086285Y-84660857D01*
X150300571Y-84660857D01*
X150443428Y-84589428D01*
X150514857Y-84518000D01*
X150586285Y-84375142D01*
X150586285Y-83803714D01*
X151157714Y-87303714D02*
X151229142Y-87232285D01*
X151300571Y-87018000D01*
X151300571Y-86875142D01*
X151229142Y-86660857D01*
X151086285Y-86518000D01*
X150943428Y-86446571D01*
X150657714Y-86375142D01*
X150443428Y-86375142D01*
X150157714Y-86446571D01*
X150014857Y-86518000D01*
X149872000Y-86660857D01*
X149800571Y-86875142D01*
X149800571Y-87018000D01*
X149872000Y-87232285D01*
X149943428Y-87303714D01*
X149800571Y-88232285D02*
X149800571Y-88518000D01*
X149872000Y-88660857D01*
X150014857Y-88803714D01*
X150300571Y-88875142D01*
X150800571Y-88875142D01*
X151086285Y-88803714D01*
X151229142Y-88660857D01*
X151300571Y-88518000D01*
X151300571Y-88232285D01*
X151229142Y-88089428D01*
X151086285Y-87946571D01*
X150800571Y-87875142D01*
X150300571Y-87875142D01*
X150014857Y-87946571D01*
X149872000Y-88089428D01*
X149800571Y-88232285D01*
X151300571Y-89518000D02*
X149800571Y-89518000D01*
X150872000Y-90018000D01*
X149800571Y-90518000D01*
X151300571Y-90518000D01*
X151300571Y-91232285D02*
X149800571Y-91232285D01*
X149800571Y-91803714D01*
X149872000Y-91946571D01*
X149943428Y-92018000D01*
X150086285Y-92089428D01*
X150300571Y-92089428D01*
X150443428Y-92018000D01*
X150514857Y-91946571D01*
X150586285Y-91803714D01*
X150586285Y-91232285D01*
X149800571Y-92732285D02*
X151014857Y-92732285D01*
X151157714Y-92803714D01*
X151229142Y-92875142D01*
X151300571Y-93018000D01*
X151300571Y-93303714D01*
X151229142Y-93446571D01*
X151157714Y-93518000D01*
X151014857Y-93589428D01*
X149800571Y-93589428D01*
X149800571Y-94089428D02*
X149800571Y-94946571D01*
X151300571Y-94518000D02*
X149800571Y-94518000D01*
X150514857Y-95446571D02*
X150514857Y-95946571D01*
X151300571Y-96160857D02*
X151300571Y-95446571D01*
X149800571Y-95446571D01*
X149800571Y-96160857D01*
X151300571Y-97660857D02*
X150586285Y-97160857D01*
X151300571Y-96803714D02*
X149800571Y-96803714D01*
X149800571Y-97375142D01*
X149872000Y-97518000D01*
X149943428Y-97589428D01*
X150086285Y-97660857D01*
X150300571Y-97660857D01*
X150443428Y-97589428D01*
X150514857Y-97518000D01*
X150586285Y-97375142D01*
X150586285Y-96803714D01*
X151229142Y-98232285D02*
X151300571Y-98446571D01*
X151300571Y-98803714D01*
X151229142Y-98946571D01*
X151157714Y-99018000D01*
X151014857Y-99089428D01*
X150872000Y-99089428D01*
X150729142Y-99018000D01*
X150657714Y-98946571D01*
X150586285Y-98803714D01*
X150514857Y-98518000D01*
X150443428Y-98375142D01*
X150372000Y-98303714D01*
X150229142Y-98232285D01*
X150086285Y-98232285D01*
X149943428Y-98303714D01*
X149872000Y-98375142D01*
X149800571Y-98518000D01*
X149800571Y-98875142D01*
X149872000Y-99089428D01*
D10*
D11*
X82442857Y-36644285D02*
X82442857Y-36144285D01*
X83228571Y-36144285D02*
X81728571Y-36144285D01*
X81728571Y-36858571D01*
X82800000Y-37358571D02*
X82800000Y-38072857D01*
X83228571Y-37215714D02*
X81728571Y-37715714D01*
X83228571Y-38215714D01*
X82442857Y-39215714D02*
X82514285Y-39430000D01*
X82585714Y-39501428D01*
X82728571Y-39572857D01*
X82942857Y-39572857D01*
X83085714Y-39501428D01*
X83157142Y-39430000D01*
X83228571Y-39287142D01*
X83228571Y-38715714D01*
X81728571Y-38715714D01*
X81728571Y-39215714D01*
X81800000Y-39358571D01*
X81871428Y-39430000D01*
X82014285Y-39501428D01*
X82157142Y-39501428D01*
X82300000Y-39430000D01*
X82371428Y-39358571D01*
X82442857Y-39215714D01*
X82442857Y-38715714D01*
X81728571Y-41644285D02*
X81728571Y-41787142D01*
X81800000Y-41930000D01*
X81871428Y-42001428D01*
X82014285Y-42072857D01*
X82300000Y-42144285D01*
X82657142Y-42144285D01*
X82942857Y-42072857D01*
X83085714Y-42001428D01*
X83157142Y-41930000D01*
X83228571Y-41787142D01*
X83228571Y-41644285D01*
X83157142Y-41501428D01*
X83085714Y-41430000D01*
X82942857Y-41358571D01*
X82657142Y-41287142D01*
X82300000Y-41287142D01*
X82014285Y-41358571D01*
X81871428Y-41430000D01*
X81800000Y-41501428D01*
X81728571Y-41644285D01*
X81728571Y-43072857D02*
X81728571Y-43215714D01*
X81800000Y-43358571D01*
X81871428Y-43430000D01*
X82014285Y-43501428D01*
X82300000Y-43572857D01*
X82657142Y-43572857D01*
X82942857Y-43501428D01*
X83085714Y-43430000D01*
X83157142Y-43358571D01*
X83228571Y-43215714D01*
X83228571Y-43072857D01*
X83157142Y-42930000D01*
X83085714Y-42858571D01*
X82942857Y-42787142D01*
X82657142Y-42715714D01*
X82300000Y-42715714D01*
X82014285Y-42787142D01*
X81871428Y-42858571D01*
X81800000Y-42930000D01*
X81728571Y-43072857D01*
X83228571Y-45001428D02*
X83228571Y-44144285D01*
X83228571Y-44572857D02*
X81728571Y-44572857D01*
X81942857Y-44430000D01*
X82085714Y-44287142D01*
X82157142Y-44144285D01*
X83228571Y-46430000D02*
X83228571Y-45572857D01*
X83228571Y-46001428D02*
X81728571Y-46001428D01*
X81942857Y-45858571D01*
X82085714Y-45715714D01*
X82157142Y-45572857D01*
X81871428Y-47001428D02*
X81800000Y-47072857D01*
X81728571Y-47215714D01*
X81728571Y-47572857D01*
X81800000Y-47715714D01*
X81871428Y-47787142D01*
X82014285Y-47858571D01*
X82157142Y-47858571D01*
X82371428Y-47787142D01*
X83228571Y-46930000D01*
X83228571Y-47858571D01*
X82800000Y-49572857D02*
X82800000Y-50287142D01*
X83228571Y-49430000D02*
X81728571Y-49930000D01*
X83228571Y-50430000D01*
D12*
%TO.P,R1,1*%
%TO.N,+5V*%
X82550000Y-81915000D03*
D13*
%TO.P,R1,2*%
%TO.N,/PUP*%
X82550000Y-66675000D03*
%TD*%
D14*
%TO.P,U2B1,1*%
%TO.N,Net-(U1B1-Pad15)*%
X102870000Y-59055000D03*
D13*
%TO.P,U2B1,2*%
%TO.N,Net-(U1B1-Pad9)*%
X102870000Y-61595000D03*
%TO.P,U2B1,3*%
%TO.N,Net-(U1B1-Pad13)*%
X102870000Y-64135000D03*
%TO.P,U2B1,4*%
%TO.N,Net-(U2B1-Pad4)*%
X102870000Y-66675000D03*
%TO.P,U2B1,5*%
%TO.N,Net-(U2B1-Pad5)*%
X102870000Y-69215000D03*
%TO.P,U2B1,6*%
%TO.N,Net-(U2B1-Pad6)*%
X102870000Y-71755000D03*
%TO.P,U2B1,7,GND*%
%TO.N,GND*%
X102870000Y-74295000D03*
%TO.P,U2B1,8*%
%TO.N,Net-(U1B1-Pad2)*%
X110490000Y-74295000D03*
%TO.P,U2B1,9*%
%TO.N,/IO 8MHz*%
X110490000Y-71755000D03*
%TO.P,U2B1,10*%
%TO.N,Net-(U2B1-Pad10)*%
X110490000Y-69215000D03*
%TO.P,U2B1,11*%
%TO.N,/{slash}BRD*%
X110490000Y-66675000D03*
%TO.P,U2B1,12*%
%TO.N,Net-(U1C1-Pad9)*%
X110490000Y-64135000D03*
%TO.P,U2B1,13*%
%TO.N,Net-(U1C1-Pad15)*%
X110490000Y-61595000D03*
%TO.P,U2B1,14,VCC*%
%TO.N,+5V*%
X110490000Y-59055000D03*
%TD*%
D15*
%TO.P,C16,1*%
%TO.N,+5V*%
X82550000Y-135255000D03*
%TO.P,C16,2*%
%TO.N,GND*%
X82550000Y-140255000D03*
%TD*%
%TO.P,C15,1*%
%TO.N,+5V*%
X125095000Y-80645000D03*
%TO.P,C15,2*%
%TO.N,GND*%
X120095000Y-80645000D03*
%TD*%
%TO.P,C13,1*%
%TO.N,GND*%
X90170000Y-51435000D03*
%TO.P,C13,2*%
%TO.N,/RCB*%
X95170000Y-51435000D03*
%TD*%
D14*
%TO.P,U3D1,1*%
%TO.N,Net-(U3D1-Pad1)*%
X118110000Y-109855000D03*
D13*
%TO.P,U3D1,2*%
%TO.N,/INT 2*%
X118110000Y-112395000D03*
%TO.P,U3D1,3*%
%TO.N,/{slash}IO INT*%
X118110000Y-114935000D03*
%TO.P,U3D1,4*%
%TO.N,Net-(U3D1-Pad4)*%
X118110000Y-117475000D03*
%TO.P,U3D1,5*%
%TO.N,/INT 3*%
X118110000Y-120015000D03*
%TO.P,U3D1,6*%
%TO.N,/{slash}IO INT*%
X118110000Y-122555000D03*
%TO.P,U3D1,7,GND*%
%TO.N,GND*%
X118110000Y-125095000D03*
%TO.P,U3D1,8*%
%TO.N,/{slash}IO INT*%
X125730000Y-125095000D03*
%TO.P,U3D1,9*%
%TO.N,/INT 1*%
X125730000Y-122555000D03*
%TO.P,U3D1,10*%
%TO.N,Net-(U3D1-Pad10)*%
X125730000Y-120015000D03*
%TO.P,U3D1,11*%
%TO.N,/{slash}IO INT*%
X125730000Y-117475000D03*
%TO.P,U3D1,12*%
%TO.N,Net-(U3D1-Pad12)*%
X125730000Y-114935000D03*
%TO.P,U3D1,13*%
%TO.N,/INT 0*%
X125730000Y-112395000D03*
%TO.P,U3D1,14,VCC*%
%TO.N,+5V*%
X125730000Y-109855000D03*
%TD*%
D15*
%TO.P,C11,1*%
%TO.N,GND*%
X90170000Y-46355000D03*
%TO.P,C11,2*%
%TO.N,/RCA*%
X95170000Y-46355000D03*
%TD*%
D14*
%TO.P,U2E1,1,OEa*%
%TO.N,Net-(U2E1-Pad1)*%
X102870000Y-135255000D03*
D13*
%TO.P,U2E1,2*%
%TO.N,/IO5*%
X102870000Y-137795000D03*
%TO.P,U2E1,3,A0*%
%TO.N,/U3*%
X102870000Y-140335000D03*
%TO.P,U2E1,4,A1*%
%TO.N,/U2*%
X102870000Y-142875000D03*
%TO.P,U2E1,5,A2*%
%TO.N,/U1*%
X102870000Y-145415000D03*
%TO.P,U2E1,6,A3*%
%TO.N,/U0*%
X102870000Y-147955000D03*
%TO.P,U2E1,7,GND*%
%TO.N,GND*%
X102870000Y-150495000D03*
%TO.P,U2E1,8,B3*%
%TO.N,/IO0*%
X110490000Y-150495000D03*
%TO.P,U2E1,9,B2*%
%TO.N,/IO1*%
X110490000Y-147955000D03*
%TO.P,U2E1,10,B1*%
%TO.N,/IO2*%
X110490000Y-145415000D03*
%TO.P,U2E1,11,B0*%
%TO.N,/IO3*%
X110490000Y-142875000D03*
%TO.P,U2E1,12*%
%TO.N,/IO4*%
X110490000Y-140335000D03*
%TO.P,U2E1,13*%
%TO.N,Net-(U2E1-Pad13)*%
X110490000Y-137795000D03*
%TO.P,U2E1,14*%
%TO.N,+5V*%
X110490000Y-135255000D03*
%TD*%
D14*
%TO.P,U2A1,1,IN_A*%
%TO.N,Net-(J1A1-Pad7)*%
X102870000Y-33655000D03*
D13*
%TO.P,U2A1,2,RESPONSE_COTROL_A*%
%TO.N,/RCA*%
X102870000Y-36195000D03*
%TO.P,U2A1,3,OUT_A*%
%TO.N,Net-(J1A1-Pad5)*%
X102870000Y-38735000D03*
%TO.P,U2A1,4,IN_B*%
%TO.N,Net-(J3A1-Pad11)*%
X102870000Y-41275000D03*
%TO.P,U2A1,5,RESPONSE_COTROL_B*%
%TO.N,/RCB*%
X102870000Y-43815000D03*
%TO.P,U2A1,6,OUT_B*%
%TO.N,Net-(U2A1-Pad6)*%
X102870000Y-46355000D03*
%TO.P,U2A1,7,GND*%
%TO.N,GND*%
X102870000Y-48895000D03*
%TO.P,U2A1,8,OUT_C*%
%TO.N,Net-(U2A1-Pad8)*%
X110490000Y-48895000D03*
%TO.P,U2A1,9,RESPONSE_COTROL_C*%
%TO.N,/RCC*%
X110490000Y-46355000D03*
%TO.P,U2A1,10,IN_C*%
%TO.N,Net-(J3A1-Pad13)*%
X110490000Y-43815000D03*
%TO.P,U2A1,11,OUT_D*%
%TO.N,Net-(U2A1-Pad11)*%
X110490000Y-41275000D03*
%TO.P,U2A1,12,RESPONSE_COTROL_D*%
%TO.N,/RCD*%
X110490000Y-38735000D03*
%TO.P,U2A1,13,IN_D*%
%TO.N,Net-(J3A1-Pad15)*%
X110490000Y-36195000D03*
%TO.P,U2A1,14,VCC*%
%TO.N,+5V*%
X110490000Y-33655000D03*
%TD*%
D16*
%TO.P,J1,1,1*%
%TO.N,/Protective Gnd*%
X143706000Y-62845000D03*
%TO.P,J1,2,2*%
%TO.N,TxD*%
X143706000Y-65615000D03*
%TO.P,J1,3,3*%
%TO.N,Net-(J1-Pad3)*%
X143706000Y-68385000D03*
%TO.P,J1,4,4*%
%TO.N,Net-(J1-Pad4)*%
X143706000Y-71155000D03*
%TO.P,J1,5,5*%
%TO.N,Net-(J1-Pad5)*%
X143706000Y-73925000D03*
%TO.P,J1,6,6*%
%TO.N,Net-(J1-Pad6)*%
X143706000Y-76695000D03*
%TO.P,J1,7,7*%
%TO.N,GND*%
X143706000Y-79465000D03*
%TO.P,J1,8,8*%
%TO.N,Net-(J1-Pad8)*%
X143706000Y-82235000D03*
%TO.P,J1,9,9*%
%TO.N,Net-(J1-Pad9)*%
X143706000Y-85005000D03*
%TO.P,J1,10,10*%
%TO.N,Net-(J1-Pad10)*%
X143706000Y-87775000D03*
%TO.P,J1,11,11*%
%TO.N,unconnected-(J1-Pad11)*%
X143706000Y-90545000D03*
%TO.P,J1,12,12*%
%TO.N,unconnected-(J1-Pad12)*%
X143706000Y-93315000D03*
%TO.P,J1,13,13*%
%TO.N,unconnected-(J1-Pad13)*%
X143706000Y-96085000D03*
%TO.P,J1,14,P14*%
%TO.N,unconnected-(J1-Pad14)*%
X146246000Y-64230000D03*
%TO.P,J1,15,P15*%
%TO.N,unconnected-(J1-Pad15)*%
X146246000Y-67000000D03*
%TO.P,J1,16,P16*%
%TO.N,unconnected-(J1-Pad16)*%
X146246000Y-69770000D03*
%TO.P,J1,17,P17*%
%TO.N,Net-(J1-Pad17)*%
X146246000Y-72540000D03*
%TO.P,J1,18,P18*%
%TO.N,unconnected-(J1-Pad18)*%
X146246000Y-75310000D03*
%TO.P,J1,19,P19*%
%TO.N,/C*%
X146246000Y-78080000D03*
%TO.P,J1,20,P20*%
%TO.N,Net-(J3A1-Pad4)*%
X146246000Y-80850000D03*
%TO.P,J1,21,P21*%
%TO.N,unconnected-(J1-Pad21)*%
X146246000Y-83620000D03*
%TO.P,J1,22,P22*%
%TO.N,unconnected-(J1-Pad22)*%
X146246000Y-86390000D03*
%TO.P,J1,23,P23*%
%TO.N,unconnected-(J1-Pad23)*%
X146246000Y-89160000D03*
%TO.P,J1,24,P24*%
%TO.N,Net-(J1-Pad24)*%
X146246000Y-91930000D03*
%TO.P,J1,25,P25*%
%TO.N,unconnected-(J1-Pad25)*%
X146246000Y-94700000D03*
D17*
%TO.P,J1,MH1*%
%TO.N,N/C*%
X144976000Y-55945000D03*
%TO.P,J1,MH2*%
X144976000Y-102985000D03*
%TD*%
D14*
%TO.P,U4A1,1,VCC-*%
%TO.N,-12V*%
X133350000Y-33655000D03*
D13*
%TO.P,U4A1,2,1A*%
%TO.N,Net-(J1A1-Pad3)*%
X133350000Y-36195000D03*
%TO.P,U4A1,3,1Y*%
%TO.N,Net-(J1A1-Pad1)*%
X133350000Y-38735000D03*
%TO.P,U4A1,4,2A*%
%TO.N,Net-(R5-Pad1)*%
X133350000Y-41275000D03*
%TO.P,U4A1,5,2B*%
%TO.N,Net-(R5-Pad2)*%
X133350000Y-43815000D03*
%TO.P,U4A1,6,2Y*%
%TO.N,Net-(C4-Pad1)*%
X133350000Y-46355000D03*
%TO.P,U4A1,7,GND*%
%TO.N,GND*%
X133350000Y-48895000D03*
%TO.P,U4A1,8,3Y*%
%TO.N,Net-(C5-Pad1)*%
X140970000Y-48895000D03*
%TO.P,U4A1,9,3A*%
%TO.N,Net-(U4A1-Pad10)*%
X140970000Y-46355000D03*
%TO.P,U4A1,10,3B*%
X140970000Y-43815000D03*
%TO.P,U4A1,11,4Y*%
%TO.N,Net-(C6-Pad1)*%
X140970000Y-41275000D03*
%TO.P,U4A1,12,4A*%
%TO.N,+5V*%
X140970000Y-38735000D03*
%TO.P,U4A1,13,4B*%
%TO.N,Net-(U4A1-Pad13)*%
X140970000Y-36195000D03*
%TO.P,U4A1,14,VCC_+*%
%TO.N,+12V*%
X140970000Y-33655000D03*
%TD*%
D15*
%TO.P,C8,1*%
%TO.N,+5V*%
X129540000Y-127635000D03*
%TO.P,C8,2*%
%TO.N,GND*%
X129540000Y-132635000D03*
%TD*%
%TO.P,C7,1*%
%TO.N,-12V*%
X149225000Y-36195000D03*
%TO.P,C7,2*%
%TO.N,GND*%
X149225000Y-31195000D03*
%TD*%
%TO.P,C10,1*%
%TO.N,+5V*%
X125650000Y-106045000D03*
%TO.P,C10,2*%
%TO.N,GND*%
X120650000Y-106045000D03*
%TD*%
D14*
%TO.P,C3,1*%
%TO.N,+5V*%
X92710000Y-163195000D03*
D12*
%TO.P,C3,2*%
%TO.N,GND*%
X90210000Y-163195000D03*
%TD*%
D15*
%TO.P,C19,1*%
%TO.N,+5V*%
X82550000Y-59055000D03*
%TO.P,C19,2*%
%TO.N,GND*%
X82550000Y-64055000D03*
%TD*%
D14*
%TO.P,U2D1,1,~{Mr}*%
%TO.N,/{slash}BIO RES*%
X102870000Y-109855000D03*
D13*
%TO.P,U2D1,2,Q0*%
%TO.N,/INT 2*%
X102870000Y-112395000D03*
%TO.P,U2D1,3,~{Q0}*%
%TO.N,unconnected-(U2D1-Pad3)*%
X102870000Y-114935000D03*
%TO.P,U2D1,4,D0*%
%TO.N,/IO2*%
X102870000Y-117475000D03*
%TO.P,U2D1,5,D1*%
%TO.N,/IO3*%
X102870000Y-120015000D03*
%TO.P,U2D1,6,~{Q1}*%
%TO.N,unconnected-(U2D1-Pad6)*%
X102870000Y-122555000D03*
%TO.P,U2D1,7,Q1*%
%TO.N,/INT 3*%
X102870000Y-125095000D03*
%TO.P,U2D1,8,GND*%
%TO.N,GND*%
X102870000Y-127635000D03*
%TO.P,U2D1,9,Cp*%
%TO.N,Net-(U2D1-Pad9)*%
X110490000Y-127635000D03*
%TO.P,U2D1,10,Q2*%
%TO.N,/INT 1*%
X110490000Y-125095000D03*
%TO.P,U2D1,11,~{Q2}*%
%TO.N,unconnected-(U2D1-Pad11)*%
X110490000Y-122555000D03*
%TO.P,U2D1,12,D2*%
%TO.N,/IO1*%
X110490000Y-120015000D03*
%TO.P,U2D1,13,D3*%
%TO.N,/IO0*%
X110490000Y-117475000D03*
%TO.P,U2D1,14,~{Q3}*%
%TO.N,unconnected-(U2D1-Pad14)*%
X110490000Y-114935000D03*
%TO.P,U2D1,15,Q3*%
%TO.N,/INT 0*%
X110490000Y-112395000D03*
%TO.P,U2D1,16,VCC*%
%TO.N,+5V*%
X110490000Y-109855000D03*
%TD*%
D15*
%TO.P,C5,1*%
%TO.N,Net-(C5-Pad1)*%
X143510000Y-43815000D03*
%TO.P,C5,2*%
%TO.N,GND*%
X143510000Y-48815000D03*
%TD*%
%TO.P,C6,1*%
%TO.N,Net-(C6-Pad1)*%
X146050000Y-43815000D03*
%TO.P,C6,2*%
%TO.N,GND*%
X146050000Y-48815000D03*
%TD*%
D18*
%TO.P,REF\u002A\u002A,1*%
%TO.N,+5V*%
X85090000Y-53975000D03*
%TD*%
D14*
%TO.P,C1,1*%
%TO.N,GND*%
X138430000Y-163195000D03*
D12*
%TO.P,C1,2*%
%TO.N,-12V*%
X135930000Y-163195000D03*
%TD*%
D15*
%TO.P,C4,1*%
%TO.N,Net-(C4-Pad1)*%
X148590000Y-43815000D03*
%TO.P,C4,2*%
%TO.N,GND*%
X148590000Y-48815000D03*
%TD*%
%TO.P,C20,1*%
%TO.N,+12V*%
X146050000Y-36195000D03*
%TO.P,C20,2*%
%TO.N,GND*%
X146050000Y-31195000D03*
%TD*%
D18*
%TO.P,REF\u002A\u002A,1*%
%TO.N,+5V*%
X85090000Y-48895000D03*
%TD*%
D12*
%TO.P,R3,1*%
%TO.N,-12V*%
X148590000Y-113665000D03*
D13*
%TO.P,R3,2*%
%TO.N,Net-(J1-Pad10)*%
X138430000Y-113665000D03*
%TD*%
D12*
%TO.P,R4,1*%
%TO.N,+12V*%
X148590000Y-111125000D03*
D13*
%TO.P,R4,2*%
%TO.N,/C*%
X138430000Y-111125000D03*
%TD*%
D14*
%TO.P,U1E1,1,~{Mr}*%
%TO.N,/{slash}BIO RES*%
X87630000Y-135255000D03*
D13*
%TO.P,U1E1,2,Q0*%
%TO.N,Net-(U1D1-Pad6)*%
X87630000Y-137795000D03*
%TO.P,U1E1,3,D0*%
%TO.N,/IO3*%
X87630000Y-140335000D03*
%TO.P,U1E1,4,D1*%
%TO.N,/IO2*%
X87630000Y-142875000D03*
%TO.P,U1E1,5,Q1*%
%TO.N,Net-(U1D1-Pad5)*%
X87630000Y-145415000D03*
%TO.P,U1E1,6,D2*%
%TO.N,/IO1*%
X87630000Y-147955000D03*
%TO.P,U1E1,7,Q2*%
%TO.N,Net-(U1D1-Pad4)*%
X87630000Y-150495000D03*
%TO.P,U1E1,8,GND*%
%TO.N,GND*%
X87630000Y-153035000D03*
%TO.P,U1E1,9,Cp*%
%TO.N,Net-(U1E1-Pad9)*%
X95250000Y-153035000D03*
%TO.P,U1E1,10,Q3*%
%TO.N,Net-(U1D1-Pad3)*%
X95250000Y-150495000D03*
%TO.P,U1E1,11,D3*%
%TO.N,/IO0*%
X95250000Y-147955000D03*
%TO.P,U1E1,12,Q4*%
%TO.N,Net-(U1C1-Pad4)*%
X95250000Y-145415000D03*
%TO.P,U1E1,13,D4*%
%TO.N,/IO5*%
X95250000Y-142875000D03*
%TO.P,U1E1,14,D5*%
%TO.N,/IO4*%
X95250000Y-140335000D03*
%TO.P,U1E1,15,Q5*%
%TO.N,Net-(U1C1-Pad3)*%
X95250000Y-137795000D03*
%TO.P,U1E1,16,VCC*%
%TO.N,+5V*%
X95250000Y-135255000D03*
%TD*%
D19*
%TO.P,J2,1,Pin_1*%
%TO.N,GND*%
X133964400Y-171135000D03*
%TO.P,J2,3,Pin_3*%
%TO.N,/IO3*%
X130795600Y-171135000D03*
%TO.P,J2,5,Pin_5*%
%TO.N,+12V*%
X127626700Y-171135000D03*
%TO.P,J2,7,Pin_7*%
%TO.N,/{slash}IO INT*%
X124457800Y-171135000D03*
%TO.P,J2,9,Pin_9*%
%TO.N,/IO A2*%
X121288900Y-171135000D03*
%TO.P,J2,11,Pin_11*%
%TO.N,/IO A1*%
X118120000Y-171135000D03*
%TO.P,J2,13,Pin_13*%
%TO.N,/{slash}BRD*%
X114951100Y-171135000D03*
%TO.P,J2,15,Pin_15*%
%TO.N,/IO 8MHz*%
X111782200Y-171135000D03*
%TO.P,J2,17,Pin_17*%
%TO.N,/IO3*%
X108613300Y-171135000D03*
%TO.P,J2,19,Pin_19*%
%TO.N,/IO2*%
X105444400Y-171135000D03*
%TO.P,J2,21,Pin_21*%
%TO.N,unconnected-(J2-Pad21)*%
X102275600Y-171135000D03*
%TO.P,J2,23,Pin_23*%
%TO.N,/IO6*%
X99106700Y-171135000D03*
%TO.P,J2,25,Pin_25*%
%TO.N,/IO0*%
X95937780Y-171135000D03*
%TO.P,J2,27,Pin_27*%
%TO.N,+5V*%
X92768890Y-171135000D03*
%TO.P,J2,29,Pin_29*%
%TO.N,/{slash}SELECT*%
X89600000Y-171135000D03*
%TD*%
D14*
%TO.P,U3C1,1,A0*%
%TO.N,/IO A1*%
X118110000Y-84455000D03*
D13*
%TO.P,U3C1,2,A1*%
%TO.N,/IO A2*%
X118110000Y-86995000D03*
%TO.P,U3C1,3,A2*%
%TO.N,/IO A3*%
X118110000Y-89535000D03*
%TO.P,U3C1,4,E1*%
%TO.N,GND*%
X118110000Y-92075000D03*
%TO.P,U3C1,5,E2*%
%TO.N,/{slash}SELECT*%
X118110000Y-94615000D03*
%TO.P,U3C1,6,E3*%
%TO.N,Net-(U3B1-Pad6)*%
X118110000Y-97155000D03*
%TO.P,U3C1,7,O7*%
%TO.N,unconnected-(U3C1-Pad7)*%
X118110000Y-99695000D03*
%TO.P,U3C1,8,GND*%
%TO.N,GND*%
X118110000Y-102235000D03*
%TO.P,U3C1,9,O6*%
%TO.N,unconnected-(U3C1-Pad9)*%
X125730000Y-102235000D03*
%TO.P,U3C1,10,O5*%
%TO.N,Net-(U2D1-Pad9)*%
X125730000Y-99695000D03*
%TO.P,U3C1,11,O4*%
%TO.N,Net-(U1E1-Pad9)*%
X125730000Y-97155000D03*
%TO.P,U3C1,12,O3*%
%TO.N,unconnected-(U3C1-Pad12)*%
X125730000Y-94615000D03*
%TO.P,U3C1,13,O2*%
%TO.N,unconnected-(U3C1-Pad13)*%
X125730000Y-92075000D03*
%TO.P,U3C1,14,O1*%
%TO.N,unconnected-(U3C1-Pad14)*%
X125730000Y-89535000D03*
%TO.P,U3C1,15,O0*%
%TO.N,Net-(U2B1-Pad5)*%
X125730000Y-86995000D03*
%TO.P,U3C1,16,VCC*%
%TO.N,+5V*%
X125730000Y-84455000D03*
%TD*%
D20*
%TO.P,P.GND,1*%
%TO.N,/Protective Gnd*%
X148590000Y-118745000D03*
%TD*%
D15*
%TO.P,C9,1*%
%TO.N,+5V*%
X125690000Y-131445000D03*
%TO.P,C9,2*%
%TO.N,GND*%
X120690000Y-131445000D03*
%TD*%
D18*
%TO.P,REF\u002A\u002A,1*%
%TO.N,+5V*%
X85090000Y-51435000D03*
%TD*%
D15*
%TO.P,C14,1*%
%TO.N,GND*%
X90170000Y-53975000D03*
%TO.P,C14,2*%
%TO.N,/RCC*%
X95170000Y-53975000D03*
%TD*%
D18*
%TO.P,REF\u002A\u002A,1*%
%TO.N,+5V*%
X85090000Y-46355000D03*
%TD*%
D12*
%TO.P,R5,1*%
%TO.N,Net-(R5-Pad1)*%
X130810000Y-33655000D03*
D13*
%TO.P,R5,2*%
%TO.N,Net-(R5-Pad2)*%
X130810000Y-48895000D03*
%TD*%
D12*
%TO.P,R2,1*%
%TO.N,+12V*%
X148590000Y-116205000D03*
D13*
%TO.P,R2,2*%
%TO.N,Net-(J1-Pad9)*%
X138430000Y-116205000D03*
%TD*%
D20*
%TO.P,W1,1,Pin_1*%
%TO.N,Net-(J3A1-Pad4)*%
X148590000Y-51435000D03*
D21*
%TO.P,W1,2,Pin_2*%
X146050000Y-51435000D03*
%TO.P,W1,3,Pin_3*%
%TO.N,/C*%
X143510000Y-51435000D03*
%TD*%
D14*
%TO.P,C2,1*%
%TO.N,+12V*%
X146050000Y-163195000D03*
D12*
%TO.P,C2,2*%
%TO.N,GND*%
X143550000Y-163195000D03*
%TD*%
D14*
%TO.P,U4E1,1,D2*%
%TO.N,/U2*%
X133350000Y-122555000D03*
D13*
%TO.P,U4E1,2,D3*%
%TO.N,/U3*%
X133350000Y-125095000D03*
%TO.P,U4E1,3,RXD*%
%TO.N,Net-(U2A1-Pad6)*%
X133350000Y-127635000D03*
%TO.P,U4E1,4,GND*%
%TO.N,GND*%
X133350000Y-130175000D03*
%TO.P,U4E1,5,D4*%
%TO.N,/U4*%
X133350000Y-132715000D03*
%TO.P,U4E1,6,D5*%
%TO.N,/U5*%
X133350000Y-135255000D03*
%TO.P,U4E1,7,D6*%
%TO.N,/U6*%
X133350000Y-137795000D03*
%TO.P,U4E1,8,D7*%
%TO.N,/U7*%
X133350000Y-140335000D03*
%TO.P,U4E1,9,~{TXC}*%
%TO.N,Net-(J1A1-Pad6)*%
X133350000Y-142875000D03*
%TO.P,U4E1,10,~{WR}*%
%TO.N,/{slash}BWR*%
X133350000Y-145415000D03*
%TO.P,U4E1,11,~{CS}*%
%TO.N,Net-(U2B1-Pad5)*%
X133350000Y-147955000D03*
%TO.P,U4E1,12,C/~{D}*%
%TO.N,/IO A0*%
X133350000Y-150495000D03*
%TO.P,U4E1,13,~{RD}*%
%TO.N,Net-(U2E1-Pad1)*%
X133350000Y-153035000D03*
%TO.P,U4E1,14,RXRDY*%
%TO.N,Net-(U3D1-Pad1)*%
X133350000Y-155575000D03*
%TO.P,U4E1,15,TXRDY*%
%TO.N,Net-(U3D1-Pad10)*%
X148590000Y-155575000D03*
%TO.P,U4E1,16,SYNDET*%
%TO.N,Net-(U3D1-Pad4)*%
X148590000Y-153035000D03*
%TO.P,U4E1,17,~{CTS}*%
%TO.N,Net-(U2A1-Pad8)*%
X148590000Y-150495000D03*
%TO.P,U4E1,18,TXE*%
%TO.N,Net-(U3D1-Pad12)*%
X148590000Y-147955000D03*
%TO.P,U4E1,19,TXD*%
%TO.N,Net-(R5-Pad1)*%
X148590000Y-145415000D03*
%TO.P,U4E1,20,CLK*%
%TO.N,Net-(U2B1-Pad4)*%
X148590000Y-142875000D03*
%TO.P,U4E1,21,RESET*%
%TO.N,Net-(U3B1-Pad11)*%
X148590000Y-140335000D03*
%TO.P,U4E1,22,~{DSR}*%
%TO.N,Net-(U2A1-Pad11)*%
X148590000Y-137795000D03*
%TO.P,U4E1,23,~{RTS}*%
%TO.N,Net-(U4A1-Pad13)*%
X148590000Y-135255000D03*
%TO.P,U4E1,24,~{DTR}*%
%TO.N,Net-(U4A1-Pad10)*%
X148590000Y-132715000D03*
%TO.P,U4E1,25,~{RXC}*%
%TO.N,RxClock*%
X148590000Y-130175000D03*
%TO.P,U4E1,26,VCC*%
%TO.N,+5V*%
X148590000Y-127635000D03*
%TO.P,U4E1,27,D0*%
%TO.N,/U0*%
X148590000Y-125095000D03*
%TO.P,U4E1,28,D1*%
%TO.N,/U1*%
X148590000Y-122555000D03*
%TD*%
D14*
%TO.P,U1C1,1,~{MR}*%
%TO.N,/PUP*%
X87630000Y-84455000D03*
D13*
%TO.P,U1C1,2,CP*%
%TO.N,/615KHz*%
X87630000Y-86995000D03*
%TO.P,U1C1,3,D0*%
%TO.N,Net-(U1C1-Pad3)*%
X87630000Y-89535000D03*
%TO.P,U1C1,4,D1*%
%TO.N,Net-(U1C1-Pad4)*%
X87630000Y-92075000D03*
%TO.P,U1C1,5,D2*%
%TO.N,Net-(U1C1-Pad5)*%
X87630000Y-94615000D03*
%TO.P,U1C1,6,D3*%
%TO.N,/PUP*%
X87630000Y-97155000D03*
%TO.P,U1C1,7,CEP*%
%TO.N,Net-(U1C1-Pad10)*%
X87630000Y-99695000D03*
%TO.P,U1C1,8,GND*%
%TO.N,GND*%
X87630000Y-102235000D03*
%TO.P,U1C1,9,~{PE}*%
%TO.N,Net-(U1C1-Pad9)*%
X95250000Y-102235000D03*
%TO.P,U1C1,10,CET*%
%TO.N,Net-(U1C1-Pad10)*%
X95250000Y-99695000D03*
%TO.P,U1C1,11,Q3*%
%TO.N,unconnected-(U1C1-Pad11)*%
X95250000Y-97155000D03*
%TO.P,U1C1,12,Q2*%
%TO.N,unconnected-(U1C1-Pad12)*%
X95250000Y-94615000D03*
%TO.P,U1C1,13,Q1*%
%TO.N,unconnected-(U1C1-Pad13)*%
X95250000Y-92075000D03*
%TO.P,U1C1,14,Q0*%
%TO.N,unconnected-(U1C1-Pad14)*%
X95250000Y-89535000D03*
%TO.P,U1C1,15,TC*%
%TO.N,Net-(U1C1-Pad15)*%
X95250000Y-86995000D03*
%TO.P,U1C1,16,VCC*%
%TO.N,+5V*%
X95250000Y-84455000D03*
%TD*%
D15*
%TO.P,C18,1*%
%TO.N,+5V*%
X82550000Y-84455000D03*
%TO.P,C18,2*%
%TO.N,GND*%
X82550000Y-89455000D03*
%TD*%
%TO.P,C17,1*%
%TO.N,+5V*%
X82550000Y-109855000D03*
%TO.P,C17,2*%
%TO.N,GND*%
X82550000Y-114855000D03*
%TD*%
D14*
%TO.P,U3E1,1,OEa*%
%TO.N,Net-(U2E1-Pad1)*%
X118110000Y-135255000D03*
D13*
%TO.P,U3E1,2*%
%TO.N,N/C*%
X118110000Y-137795000D03*
%TO.P,U3E1,3,A0*%
%TO.N,/U4*%
X118110000Y-140335000D03*
%TO.P,U3E1,4,A1*%
%TO.N,/U5*%
X118110000Y-142875000D03*
%TO.P,U3E1,5,A2*%
%TO.N,/U6*%
X118110000Y-145415000D03*
%TO.P,U3E1,6,A3*%
%TO.N,/U7*%
X118110000Y-147955000D03*
%TO.P,U3E1,7,GND*%
%TO.N,GND*%
X118110000Y-150495000D03*
%TO.P,U3E1,8,B3*%
%TO.N,/IO7*%
X125730000Y-150495000D03*
%TO.P,U3E1,9,B2*%
%TO.N,/IO6*%
X125730000Y-147955000D03*
%TO.P,U3E1,10,B1*%
%TO.N,/IO5*%
X125730000Y-145415000D03*
%TO.P,U3E1,11,B0*%
%TO.N,/IO4*%
X125730000Y-142875000D03*
%TO.P,U3E1,12*%
%TO.N,/IO5*%
X125730000Y-140335000D03*
%TO.P,U3E1,13*%
%TO.N,Net-(U2E1-Pad13)*%
X125730000Y-137795000D03*
%TO.P,U3E1,14*%
%TO.N,+5V*%
X125730000Y-135255000D03*
%TD*%
D20*
%TO.P,GND,1*%
%TO.N,GND*%
X149860000Y-160020000D03*
%TD*%
D14*
%TO.P,U3B1,1*%
%TO.N,/PUP*%
X118110000Y-59055000D03*
D13*
%TO.P,U3B1,2*%
%TO.N,/{slash}BWR*%
X118110000Y-61595000D03*
%TO.P,U3B1,3*%
%TO.N,Net-(U2E1-Pad13)*%
X118110000Y-64135000D03*
%TO.P,U3B1,4*%
%TO.N,/{slash}BWR*%
X118110000Y-66675000D03*
%TO.P,U3B1,5*%
%TO.N,/IO A3*%
X118110000Y-69215000D03*
%TO.P,U3B1,6*%
%TO.N,Net-(U3B1-Pad6)*%
X118110000Y-71755000D03*
%TO.P,U3B1,7,GND*%
%TO.N,GND*%
X118110000Y-74295000D03*
%TO.P,U3B1,8*%
%TO.N,Net-(U2E1-Pad1)*%
X125730000Y-74295000D03*
%TO.P,U3B1,9*%
%TO.N,Net-(U2B1-Pad6)*%
X125730000Y-71755000D03*
%TO.P,U3B1,10*%
%TO.N,Net-(U2B1-Pad10)*%
X125730000Y-69215000D03*
%TO.P,U3B1,11*%
%TO.N,Net-(U3B1-Pad11)*%
X125730000Y-66675000D03*
%TO.P,U3B1,12*%
%TO.N,/{slash}BIO RES*%
X125730000Y-64135000D03*
%TO.P,U3B1,13*%
%TO.N,/PUP*%
X125730000Y-61595000D03*
%TO.P,U3B1,14,VCC*%
%TO.N,+5V*%
X125730000Y-59055000D03*
%TD*%
D14*
%TO.P,J1A1,1,Pin_1*%
%TO.N,Net-(J1A1-Pad1)*%
X87630000Y-33655000D03*
D13*
%TO.P,J1A1,2,Pin_2*%
%TO.N,Net-(J1-Pad24)*%
X87630000Y-36195000D03*
%TO.P,J1A1,3,Pin_3*%
%TO.N,Net-(J1A1-Pad3)*%
X87630000Y-38735000D03*
%TO.P,J1A1,4,Pin_4*%
%TO.N,RxClock*%
X87630000Y-41275000D03*
%TO.P,J1A1,5,Pin_5*%
%TO.N,Net-(J1A1-Pad5)*%
X95250000Y-41275000D03*
%TO.P,J1A1,6,Pin_6*%
%TO.N,Net-(J1A1-Pad6)*%
X95250000Y-38735000D03*
%TO.P,J1A1,7,Pin_7*%
%TO.N,Net-(J1A1-Pad7)*%
X95250000Y-36195000D03*
%TO.P,J1A1,8,Pin_8*%
%TO.N,Net-(J1-Pad17)*%
X95250000Y-33655000D03*
%TD*%
D14*
%TO.P,J3A1,1,Pin_1*%
%TO.N,Net-(C6-Pad1)*%
X118110000Y-33655000D03*
D13*
%TO.P,J3A1,2,Pin_2*%
%TO.N,Net-(J1-Pad4)*%
X118110000Y-36195000D03*
%TO.P,J3A1,3,Pin_3*%
%TO.N,Net-(C5-Pad1)*%
X118110000Y-38735000D03*
%TO.P,J3A1,4,Pin_4*%
%TO.N,Net-(J3A1-Pad4)*%
X118110000Y-41275000D03*
%TO.P,J3A1,5,Pin_5*%
%TO.N,Net-(C4-Pad1)*%
X118110000Y-43815000D03*
%TO.P,J3A1,6,Pin_6*%
%TO.N,TxD*%
X118110000Y-46355000D03*
%TO.P,J3A1,7,Pin_7*%
%TO.N,Net-(J1-Pad2)*%
X118110000Y-48895000D03*
%TO.P,J3A1,8,Pin_8*%
%TO.N,RxClock*%
X118110000Y-51435000D03*
%TO.P,J3A1,9,Pin_9*%
%TO.N,Net-(J1A1-Pad6)*%
X125730000Y-51435000D03*
%TO.P,J3A1,10,Pin_10*%
%TO.N,Net-(J1-Pad8)*%
X125730000Y-48895000D03*
%TO.P,J3A1,11,Pin_11*%
%TO.N,Net-(J3A1-Pad11)*%
X125730000Y-46355000D03*
%TO.P,J3A1,12,Pin_12*%
%TO.N,Net-(J1-Pad3)*%
X125730000Y-43815000D03*
%TO.P,J3A1,13,Pin_13*%
%TO.N,Net-(J3A1-Pad13)*%
X125730000Y-41275000D03*
%TO.P,J3A1,14,Pin_14*%
%TO.N,Net-(J1-Pad5)*%
X125730000Y-38735000D03*
%TO.P,J3A1,15,Pin_15*%
%TO.N,Net-(J3A1-Pad15)*%
X125730000Y-36195000D03*
%TO.P,J3A1,16,Pin_16*%
%TO.N,Net-(J1-Pad6)*%
X125730000Y-33655000D03*
%TD*%
D12*
%TO.P,R6,1*%
%TO.N,+12V*%
X115570000Y-31115000D03*
D13*
%TO.P,R6,2*%
%TO.N,Net-(J1-Pad2)*%
X115570000Y-46355000D03*
%TD*%
D15*
%TO.P,C12,1*%
%TO.N,GND*%
X90170000Y-48895000D03*
%TO.P,C12,2*%
%TO.N,/RCD*%
X95170000Y-48895000D03*
%TD*%
D14*
%TO.P,U2C1,1,~{R}*%
%TO.N,/{slash}BIO RES*%
X102870000Y-84455000D03*
D13*
%TO.P,U2C1,2,J*%
%TO.N,/IO6*%
X102870000Y-86995000D03*
%TO.P,U2C1,3,~{K}*%
X102870000Y-89535000D03*
%TO.P,U2C1,4,C*%
%TO.N,Net-(U1E1-Pad9)*%
X102870000Y-92075000D03*
%TO.P,U2C1,5,~{S}*%
%TO.N,/PUP*%
X102870000Y-94615000D03*
%TO.P,U2C1,6,Q*%
%TO.N,Net-(U1C1-Pad5)*%
X102870000Y-97155000D03*
%TO.P,U2C1,7,~{Q}*%
%TO.N,unconnected-(U2C1-Pad7)*%
X102870000Y-99695000D03*
%TO.P,U2C1,8,GND*%
%TO.N,GND*%
X102870000Y-102235000D03*
%TO.P,U2C1,9,~{Q}*%
%TO.N,unconnected-(U2C1-Pad9)*%
X110490000Y-102235000D03*
%TO.P,U2C1,10,Q*%
%TO.N,Net-(J1A1-Pad6)*%
X110490000Y-99695000D03*
%TO.P,U2C1,11,~{S}*%
%TO.N,/PUP*%
X110490000Y-97155000D03*
%TO.P,U2C1,12,C*%
%TO.N,/615KHz*%
X110490000Y-94615000D03*
%TO.P,U2C1,13,~{K}*%
%TO.N,Net-(U1C1-Pad9)*%
X110490000Y-92075000D03*
%TO.P,U2C1,14,J*%
%TO.N,Net-(U1C1-Pad15)*%
X110490000Y-89535000D03*
%TO.P,U2C1,15,~{R}*%
%TO.N,/PUP*%
X110490000Y-86995000D03*
%TO.P,U2C1,16,VCC*%
%TO.N,+5V*%
X110490000Y-84455000D03*
%TD*%
D14*
%TO.P,U1B1,1,~{MR}*%
%TO.N,/PUP*%
X87630000Y-59055000D03*
D13*
%TO.P,U1B1,2,CP*%
%TO.N,Net-(U1B1-Pad2)*%
X87630000Y-61595000D03*
%TO.P,U1B1,3,D0*%
%TO.N,/PUP*%
X87630000Y-64135000D03*
%TO.P,U1B1,4,D1*%
X87630000Y-66675000D03*
%TO.P,U1B1,5,D2*%
%TO.N,GND*%
X87630000Y-69215000D03*
%TO.P,U1B1,6,D3*%
X87630000Y-71755000D03*
%TO.P,U1B1,7,CEP*%
%TO.N,/PUP*%
X87630000Y-74295000D03*
%TO.P,U1B1,8,GND*%
%TO.N,GND*%
X87630000Y-76835000D03*
%TO.P,U1B1,9,~{PE}*%
%TO.N,Net-(U1B1-Pad9)*%
X95250000Y-76835000D03*
%TO.P,U1B1,10,CET*%
%TO.N,/PUP*%
X95250000Y-74295000D03*
%TO.P,U1B1,11,Q3*%
%TO.N,/615KHz*%
X95250000Y-71755000D03*
%TO.P,U1B1,12,Q2*%
%TO.N,unconnected-(U1B1-Pad12)*%
X95250000Y-69215000D03*
%TO.P,U1B1,13,Q1*%
%TO.N,Net-(U1B1-Pad13)*%
X95250000Y-66675000D03*
%TO.P,U1B1,14,Q0*%
%TO.N,unconnected-(U1B1-Pad14)*%
X95250000Y-64135000D03*
%TO.P,U1B1,15,TC*%
%TO.N,Net-(U1B1-Pad15)*%
X95250000Y-61595000D03*
%TO.P,U1B1,16,VCC*%
%TO.N,+5V*%
X95250000Y-59055000D03*
%TD*%
D14*
%TO.P,U1D1,1,~{MR}*%
%TO.N,/PUP*%
X87630000Y-109855000D03*
D13*
%TO.P,U1D1,2,CP*%
%TO.N,/615KHz*%
X87630000Y-112395000D03*
%TO.P,U1D1,3,D0*%
%TO.N,Net-(U1D1-Pad3)*%
X87630000Y-114935000D03*
%TO.P,U1D1,4,D1*%
%TO.N,Net-(U1D1-Pad4)*%
X87630000Y-117475000D03*
%TO.P,U1D1,5,D2*%
%TO.N,Net-(U1D1-Pad5)*%
X87630000Y-120015000D03*
%TO.P,U1D1,6,D3*%
%TO.N,Net-(U1D1-Pad6)*%
X87630000Y-122555000D03*
%TO.P,U1D1,7,CEP*%
%TO.N,/PUP*%
X87630000Y-125095000D03*
%TO.P,U1D1,8,GND*%
%TO.N,GND*%
X87630000Y-127635000D03*
%TO.P,U1D1,9,~{PE}*%
%TO.N,Net-(U1C1-Pad9)*%
X95250000Y-127635000D03*
%TO.P,U1D1,10,CET*%
%TO.N,/PUP*%
X95250000Y-125095000D03*
%TO.P,U1D1,11,Q3*%
%TO.N,unconnected-(U1D1-Pad11)*%
X95250000Y-122555000D03*
%TO.P,U1D1,12,Q2*%
%TO.N,unconnected-(U1D1-Pad12)*%
X95250000Y-120015000D03*
%TO.P,U1D1,13,Q1*%
%TO.N,unconnected-(U1D1-Pad13)*%
X95250000Y-117475000D03*
%TO.P,U1D1,14,Q0*%
%TO.N,unconnected-(U1D1-Pad14)*%
X95250000Y-114935000D03*
%TO.P,U1D1,15,TC*%
%TO.N,Net-(U1C1-Pad10)*%
X95250000Y-112395000D03*
%TO.P,U1D1,16,VCC*%
%TO.N,+5V*%
X95250000Y-109855000D03*
%TD*%
D22*
%TO.N,Net-(J1-Pad3)*%
X128905000Y-61595000D03*
%TO.N,Net-(J1-Pad4)*%
X121920000Y-76835000D03*
%TO.N,Net-(J1-Pad5)*%
X125730000Y-77470000D03*
%TO.N,Net-(J1-Pad6)*%
X123190000Y-80010000D03*
%TO.N,GND*%
X140335000Y-159385000D03*
X121920000Y-86995000D03*
X127000000Y-155575000D03*
X118110000Y-155575000D03*
%TO.N,Net-(J1-Pad8)*%
X129540000Y-57785000D03*
X137795000Y-58420000D03*
%TO.N,Net-(J1-Pad17)*%
X139700000Y-59944000D03*
X108585000Y-55880000D03*
%TO.N,Net-(J1-Pad24)*%
X135890000Y-54610000D03*
X141986000Y-54610000D03*
%TO.N,Net-(J1A1-Pad6)*%
X106680000Y-51435000D03*
X128759511Y-101110489D03*
X105410000Y-37465000D03*
%TO.N,Net-(J1A1-Pad3)*%
X108585000Y-35560000D03*
%TO.N,/IO3*%
X132080000Y-163830000D03*
X109855000Y-165100000D03*
%TO.N,/{slash}IO INT*%
X133350000Y-118110000D03*
%TO.N,/IO A3*%
X121920000Y-165100000D03*
%TO.N,/IO A0*%
X115570000Y-165100000D03*
X113665000Y-156845000D03*
X130810000Y-157480000D03*
%TO.N,/{slash}BWR*%
X123825000Y-165735000D03*
%TO.N,/{slash}BIO RES*%
X102870000Y-130810000D03*
X87630000Y-131445000D03*
X107315000Y-165100000D03*
X100965000Y-62865000D03*
%TO.N,/IO2*%
X106045000Y-144145000D03*
%TO.N,/IO4*%
X104140000Y-165100000D03*
%TO.N,/IO5*%
X100965000Y-165100000D03*
%TO.N,/IO6*%
X120650000Y-90805000D03*
X124460000Y-158750000D03*
X96520000Y-158115000D03*
%TO.N,/IO1*%
X98425000Y-165100000D03*
X99695000Y-159385000D03*
X107950000Y-159385000D03*
%TO.N,/IO7*%
X127000000Y-159385000D03*
%TO.N,/{slash}SELECT*%
X90170000Y-158115000D03*
X82550000Y-106045000D03*
X85725000Y-162560000D03*
%TO.N,Net-(J3A1-Pad4)*%
X121285000Y-55245000D03*
%TO.N,/PUP*%
X105410000Y-111125000D03*
%TO.N,Net-(U1C1-Pad9)*%
X107315000Y-99695000D03*
%TO.N,Net-(U1E1-Pad9)*%
X100330000Y-153035000D03*
X100330000Y-92075000D03*
%TO.N,Net-(U2A1-Pad6)*%
X118110000Y-80645000D03*
X93980000Y-80645000D03*
X125730000Y-128905000D03*
%TO.N,Net-(U2B1-Pad4)*%
X129540000Y-68580000D03*
%TO.N,Net-(U2B1-Pad5)*%
X105410000Y-84455000D03*
X129540000Y-89535000D03*
%TO.N,Net-(U2D1-Pad9)*%
X125730000Y-127635000D03*
%TO.N,Net-(U2E1-Pad1)*%
X115570000Y-157480000D03*
X115570000Y-73025000D03*
X130810000Y-159385000D03*
%TO.N,Net-(U2E1-Pad13)*%
X106045000Y-136525000D03*
X99695000Y-66675000D03*
%TO.N,Net-(U3B1-Pad11)*%
X129540000Y-66675000D03*
%TO.N,Net-(U3B1-Pad6)*%
X122555000Y-97155000D03*
%TO.N,Net-(U3D1-Pad1)*%
X130810000Y-106045000D03*
%TO.N,Net-(U3D1-Pad10)*%
X133350000Y-116205000D03*
%TO.N,Net-(U3D1-Pad4)*%
X133350000Y-113665000D03*
%TO.N,Net-(U3D1-Pad12)*%
X133350000Y-110490000D03*
%TO.N,TxD*%
X120650000Y-60325000D03*
%TO.N,RxClock*%
X139065000Y-47625000D03*
%TD*%
D23*
%TO.N,Net-(J3A1-Pad4)*%
X148590000Y-52070000D02*
X148590000Y-51435000D01*
X147955000Y-52705000D02*
X148590000Y-52070000D01*
X140970000Y-58166000D02*
X140970000Y-54178200D01*
X142748000Y-59944000D02*
X140970000Y-58166000D01*
X144780000Y-59944000D02*
X142748000Y-59944000D01*
X140970000Y-54178200D02*
X142443200Y-52705000D01*
X148277520Y-63441520D02*
X144780000Y-59944000D01*
X148277520Y-78818480D02*
X148277520Y-63441520D01*
X142443200Y-52705000D02*
X147955000Y-52705000D01*
X146246000Y-80850000D02*
X148277520Y-78818480D01*
%TO.N,/C*%
X140462000Y-59436000D02*
X140462000Y-53594000D01*
X141732000Y-60706000D02*
X140462000Y-59436000D01*
X142621000Y-51435000D02*
X143510000Y-51435000D01*
X147828000Y-63656693D02*
X144877307Y-60706000D01*
X147828000Y-76498000D02*
X147828000Y-63656693D01*
X140462000Y-53594000D02*
X142621000Y-51435000D01*
X146246000Y-78080000D02*
X147828000Y-76498000D01*
X144877307Y-60706000D02*
X141732000Y-60706000D01*
%TO.N,Net-(J1-Pad2)*%
X118110000Y-48895000D02*
X115570000Y-46355000D01*
%TO.N,Net-(J1-Pad3)*%
X127000000Y-57150000D02*
X128905000Y-59055000D01*
X124460000Y-53340000D02*
X127000000Y-55880000D01*
X125730000Y-43815000D02*
X124460000Y-45085000D01*
X124460000Y-45085000D02*
X124460000Y-53340000D01*
X127000000Y-55880000D02*
X127000000Y-57150000D01*
X128905000Y-59055000D02*
X128905000Y-61595000D01*
%TO.N,Net-(J1-Pad4)*%
X123111440Y-75643560D02*
X121920000Y-76835000D01*
X123111440Y-41196440D02*
X123111440Y-75643560D01*
X118110000Y-36195000D02*
X123111440Y-41196440D01*
%TO.N,Net-(J1-Pad5)*%
X124010480Y-57335480D02*
X124460000Y-57785000D01*
X124010480Y-40454520D02*
X124010480Y-57335480D01*
X125730000Y-38735000D02*
X124010480Y-40454520D01*
X124460000Y-76200000D02*
X125730000Y-77470000D01*
X124460000Y-57785000D02*
X124460000Y-76200000D01*
%TO.N,Net-(J1-Pad6)*%
X123560960Y-35824040D02*
X125730000Y-33655000D01*
X123190000Y-80010000D02*
X124010480Y-79189520D01*
X124010480Y-57971198D02*
X123560960Y-57521677D01*
X123560960Y-57521677D02*
X123560960Y-35824040D01*
X124010480Y-79189520D02*
X124010480Y-57971198D01*
D24*
%TO.N,GND*%
X128270000Y-133905000D02*
X128270000Y-154305000D01*
X144899511Y-164544511D02*
X147240489Y-164544511D01*
X129540000Y-132635000D02*
X128270000Y-133905000D01*
D23*
X118110000Y-102235000D02*
X119234511Y-101110489D01*
D24*
X143550000Y-163195000D02*
X144899511Y-164544511D01*
D23*
X121920000Y-86995000D02*
X121920000Y-82470000D01*
D24*
X139739520Y-52585480D02*
X143510000Y-48815000D01*
X137932989Y-59624823D02*
X139739520Y-57818292D01*
X139300000Y-79465000D02*
X143706000Y-79465000D01*
X120690000Y-147915000D02*
X118110000Y-150495000D01*
X118110000Y-155575000D02*
X118110000Y-150495000D01*
X140335000Y-159385000D02*
X140335000Y-163195000D01*
D23*
X119234511Y-93199511D02*
X118110000Y-92075000D01*
D24*
X149860000Y-161925000D02*
X149860000Y-160020000D01*
X139739520Y-57818292D02*
X139739520Y-52585480D01*
X133964400Y-171135000D02*
X133964400Y-167660600D01*
X133964400Y-167660600D02*
X138430000Y-163195000D01*
X128270000Y-154305000D02*
X127000000Y-155575000D01*
X137932989Y-78097989D02*
X137932989Y-59624823D01*
X139300000Y-79465000D02*
X137932989Y-78097989D01*
X118110000Y-125095000D02*
X119459511Y-123745489D01*
X119459511Y-123745489D02*
X119459511Y-107235489D01*
X120690000Y-131445000D02*
X120690000Y-147915000D01*
X140335000Y-163195000D02*
X143550000Y-163195000D01*
X119459511Y-107235489D02*
X120650000Y-106045000D01*
X147240489Y-164544511D02*
X149860000Y-161925000D01*
D23*
X121920000Y-82470000D02*
X120095000Y-80645000D01*
X119234511Y-101110489D02*
X119234511Y-93199511D01*
D24*
X138430000Y-163195000D02*
X140335000Y-163195000D01*
D23*
%TO.N,Net-(J1-Pad8)*%
X125730000Y-48895000D02*
X129540000Y-52705000D01*
X137160000Y-80095000D02*
X137160000Y-59055000D01*
X139300000Y-82235000D02*
X143706000Y-82235000D01*
X129540000Y-52705000D02*
X129540000Y-57785000D01*
X137160000Y-59055000D02*
X137795000Y-58420000D01*
X139300000Y-82235000D02*
X137160000Y-80095000D01*
%TO.N,Net-(J1-Pad17)*%
X95250000Y-33655000D02*
X96520000Y-32385000D01*
X107315000Y-50165000D02*
X108585000Y-51435000D01*
X141224000Y-61468000D02*
X139700000Y-59944000D01*
X96520000Y-32385000D02*
X106045000Y-32385000D01*
X107315000Y-33655000D02*
X107315000Y-50165000D01*
X146246000Y-72540000D02*
X147320511Y-71465489D01*
X147320511Y-71465489D02*
X147320511Y-63784922D01*
X145003589Y-61468000D02*
X141224000Y-61468000D01*
X147320511Y-63784922D02*
X145003589Y-61468000D01*
X106045000Y-32385000D02*
X107315000Y-33655000D01*
X108585000Y-51435000D02*
X108585000Y-55880000D01*
%TO.N,Net-(J1-Pad24)*%
X136525000Y-53975000D02*
X136525000Y-32424520D01*
X148844000Y-63372282D02*
X148844000Y-89332000D01*
X117795300Y-30480000D02*
X115890300Y-32385000D01*
X107950000Y-31115000D02*
X92710000Y-31115000D01*
X148844000Y-89332000D02*
X146246000Y-91930000D01*
X141986000Y-54610000D02*
X141986000Y-58166000D01*
X143314480Y-59494480D02*
X144966198Y-59494480D01*
X144966198Y-59494480D02*
X148844000Y-63372282D01*
X109220000Y-32385000D02*
X107950000Y-31115000D01*
X134580480Y-30480000D02*
X117795300Y-30480000D01*
X115890300Y-32385000D02*
X109220000Y-32385000D01*
X135890000Y-54610000D02*
X136525000Y-53975000D01*
X141986000Y-58166000D02*
X143314480Y-59494480D01*
X92710000Y-31115000D02*
X87630000Y-36195000D01*
X136525000Y-32424520D02*
X134580480Y-30480000D01*
%TO.N,Net-(J1A1-Pad6)*%
X132080000Y-141605000D02*
X133350000Y-142875000D01*
X128759511Y-119869511D02*
X132080000Y-123190000D01*
X106045000Y-90805000D02*
X107950000Y-88900000D01*
X107950000Y-58420000D02*
X106680000Y-57150000D01*
X105410000Y-37465000D02*
X105410000Y-50165000D01*
X109690001Y-100494999D02*
X107090385Y-100494999D01*
X106045000Y-99449614D02*
X106045000Y-90805000D01*
X107950000Y-88900000D02*
X107950000Y-58420000D01*
X106680000Y-57150000D02*
X106680000Y-51435000D01*
X132080000Y-123190000D02*
X132080000Y-141605000D01*
X107090385Y-100494999D02*
X106045000Y-99449614D01*
X110490000Y-99695000D02*
X109690001Y-100494999D01*
X105410000Y-50165000D02*
X106680000Y-51435000D01*
X128759511Y-101110489D02*
X128759511Y-119869511D01*
%TO.N,Net-(J1A1-Pad3)*%
X108585000Y-34289282D02*
X108585000Y-35560000D01*
X106231198Y-31935480D02*
X108585000Y-34289282D01*
X94429520Y-31935480D02*
X106231198Y-31935480D01*
X87630000Y-38735000D02*
X94429520Y-31935480D01*
%TO.N,Net-(J1A1-Pad7)*%
X96520000Y-36195000D02*
X99060000Y-33655000D01*
X99060000Y-33655000D02*
X102870000Y-33655000D01*
X95250000Y-36195000D02*
X96520000Y-36195000D01*
%TO.N,/IO3*%
X104775000Y-129540000D02*
X104775000Y-121920000D01*
X107764520Y-140149520D02*
X107764520Y-132529520D01*
X130795600Y-171135000D02*
X130795600Y-165114400D01*
X106494520Y-161739520D02*
X109855000Y-165100000D01*
X110490000Y-142875000D02*
X107764520Y-140149520D01*
X130795600Y-165114400D02*
X132080000Y-163830000D01*
X108613300Y-171135000D02*
X108613300Y-166341700D01*
X107764520Y-132529520D02*
X104775000Y-129540000D01*
X104775000Y-121920000D02*
X102870000Y-120015000D01*
X108613300Y-166341700D02*
X109855000Y-165100000D01*
X106494520Y-146870480D02*
X106494520Y-161739520D01*
X110490000Y-142875000D02*
X106494520Y-146870480D01*
D24*
%TO.N,+12V*%
X135255000Y-158115000D02*
X127626700Y-165743300D01*
X152400000Y-116205000D02*
X152400000Y-111125000D01*
X146050000Y-33655000D02*
X142200480Y-29805480D01*
X149860000Y-38100000D02*
X147955000Y-38100000D01*
X146050000Y-158115000D02*
X150495000Y-158115000D01*
X150495000Y-158115000D02*
X152400000Y-156210000D01*
X147955000Y-38100000D02*
X146050000Y-36195000D01*
X152400000Y-40640000D02*
X149860000Y-38100000D01*
X116879520Y-29805480D02*
X115570000Y-31115000D01*
X146050000Y-163195000D02*
X146050000Y-158115000D01*
X152400000Y-111125000D02*
X148590000Y-111125000D01*
X152400000Y-111125000D02*
X152400000Y-40640000D01*
X152400000Y-156210000D02*
X152400000Y-116205000D01*
X142200480Y-29805480D02*
X116879520Y-29805480D01*
X127626700Y-165743300D02*
X127626700Y-171135000D01*
X148590000Y-116205000D02*
X152400000Y-116205000D01*
X146050000Y-36195000D02*
X146050000Y-33655000D01*
X146050000Y-158115000D02*
X135255000Y-158115000D01*
D23*
%TO.N,/{slash}IO INT*%
X139065000Y-153035000D02*
X124457800Y-167642200D01*
X124457800Y-167642200D02*
X124457800Y-171135000D01*
X116985489Y-121430489D02*
X118110000Y-122555000D01*
X116985489Y-116059511D02*
X116985489Y-121430489D01*
X118110000Y-114935000D02*
X116985489Y-116059511D01*
X133350000Y-118110000D02*
X139065000Y-123825000D01*
X139065000Y-123825000D02*
X139065000Y-153035000D01*
%TO.N,/IO A2*%
X121195489Y-171041589D02*
X121195489Y-160744511D01*
X121920000Y-110490000D02*
X121974511Y-110435489D01*
X122464031Y-142965969D02*
X122464031Y-129449031D01*
X121974511Y-105133542D02*
X120650000Y-103809031D01*
X121195489Y-160744511D02*
X121920000Y-160020000D01*
X121920000Y-128905000D02*
X121920000Y-110490000D01*
X116535969Y-102886986D02*
X116535969Y-88569031D01*
X121288900Y-171135000D02*
X121195489Y-171041589D01*
X121920000Y-160020000D02*
X121920000Y-143510000D01*
X121920000Y-143510000D02*
X122464031Y-142965969D01*
X122464031Y-129449031D02*
X121920000Y-128905000D01*
X121974511Y-110435489D02*
X121974511Y-105133542D01*
X120650000Y-103809031D02*
X117458014Y-103809031D01*
X117458014Y-103809031D02*
X116535969Y-102886986D01*
X116535969Y-88569031D02*
X118110000Y-86995000D01*
%TO.N,/IO A3*%
X118110000Y-89535000D02*
X120015000Y-87630000D01*
X120015000Y-87630000D02*
X120015000Y-84110978D01*
X116985489Y-102700789D02*
X117644211Y-103359511D01*
X120015000Y-84110978D02*
X116840000Y-80935978D01*
X122913551Y-143786449D02*
X122913551Y-129262833D01*
X116840000Y-70485000D02*
X118110000Y-69215000D01*
X122555000Y-128904282D02*
X122555000Y-111125000D01*
X121920000Y-165100000D02*
X121920000Y-161925000D01*
X122913551Y-129262833D02*
X122555000Y-128904282D01*
X122555000Y-111125000D02*
X122555000Y-104775000D01*
X121139511Y-103359511D02*
X122555000Y-104775000D01*
X116985489Y-90659511D02*
X116985489Y-102700789D01*
X117644211Y-103359511D02*
X121139511Y-103359511D01*
X121920000Y-161925000D02*
X122555000Y-161290000D01*
X118110000Y-89535000D02*
X116985489Y-90659511D01*
X122555000Y-144145000D02*
X122913551Y-143786449D01*
X116840000Y-80935978D02*
X116840000Y-70485000D01*
X122555000Y-161290000D02*
X122555000Y-144145000D01*
%TO.N,/IO A1*%
X120650000Y-165755000D02*
X120650000Y-148908916D01*
X116535969Y-127330969D02*
X116535969Y-117170969D01*
X118110000Y-128905000D02*
X116535969Y-127330969D01*
X116535969Y-117170969D02*
X115570000Y-116205000D01*
X122014511Y-130896368D02*
X120023143Y-128905000D01*
X120650000Y-148908916D02*
X121364520Y-148194396D01*
X118120000Y-171135000D02*
X118120000Y-168285000D01*
X120023143Y-128905000D02*
X118110000Y-128905000D01*
X115570000Y-116205000D02*
X115570000Y-86995000D01*
X122014511Y-132700009D02*
X122014511Y-130896368D01*
X115570000Y-86995000D02*
X118110000Y-84455000D01*
X121364520Y-148194396D02*
X121364520Y-133350000D01*
X118120000Y-168285000D02*
X120650000Y-165755000D01*
X121364520Y-133350000D02*
X122014511Y-132700009D01*
%TO.N,/{slash}BRD*%
X114951100Y-171135000D02*
X114951100Y-168285000D01*
X114951100Y-168285000D02*
X112395000Y-165728900D01*
X112395000Y-165728900D02*
X112395000Y-155575000D01*
X112395000Y-155575000D02*
X114300000Y-153670000D01*
X114300000Y-153670000D02*
X114300000Y-70485000D01*
X114300000Y-70485000D02*
X110490000Y-66675000D01*
%TO.N,/IO A0*%
X133350000Y-150495000D02*
X130810000Y-153035000D01*
X115570000Y-158750000D02*
X113665000Y-156845000D01*
X115570000Y-165100000D02*
X115570000Y-158750000D01*
X130810000Y-153035000D02*
X130810000Y-157480000D01*
%TO.N,/IO 8MHz*%
X113665000Y-151174400D02*
X113665000Y-74930000D01*
X113665000Y-74930000D02*
X110490000Y-71755000D01*
X111782200Y-153057200D02*
X113665000Y-151174400D01*
X111782200Y-171135000D02*
X111782200Y-153057200D01*
%TO.N,/{slash}BWR*%
X133350000Y-145415000D02*
X137160000Y-141605000D01*
X119234511Y-62719511D02*
X119234511Y-65550489D01*
X127635000Y-83960879D02*
X125643632Y-81969511D01*
X122465489Y-80310103D02*
X122465489Y-79464511D01*
X125643632Y-81969511D02*
X124124897Y-81969511D01*
X120015000Y-76200000D02*
X120015000Y-68580000D01*
X127635000Y-97155000D02*
X127635000Y-83960879D01*
X137160000Y-124115978D02*
X134329022Y-121285000D01*
X132080000Y-121285000D02*
X129540000Y-118745000D01*
X129540000Y-160020000D02*
X129540000Y-149225000D01*
X129540000Y-99060000D02*
X127635000Y-97155000D01*
X119234511Y-65550489D02*
X118110000Y-66675000D01*
X120015000Y-68580000D02*
X118110000Y-66675000D01*
X134329022Y-121285000D02*
X132080000Y-121285000D01*
X122465489Y-78650489D02*
X120015000Y-76200000D01*
X118110000Y-61595000D02*
X119234511Y-62719511D01*
X129540000Y-149225000D02*
X133350000Y-145415000D01*
X124124897Y-81969511D02*
X122465489Y-80310103D01*
X122465489Y-79464511D02*
X122465489Y-78650489D01*
X129540000Y-118745000D02*
X129540000Y-99060000D01*
X137160000Y-141605000D02*
X137160000Y-124115978D01*
X123825000Y-165735000D02*
X129540000Y-160020000D01*
%TO.N,/{slash}BIO RES*%
X100965000Y-82550000D02*
X102870000Y-84455000D01*
X107315000Y-133350000D02*
X104775000Y-130810000D01*
X106045000Y-163830000D02*
X106045000Y-145415000D01*
X101745489Y-108730489D02*
X102870000Y-109855000D01*
X101745489Y-129685489D02*
X102870000Y-130810000D01*
X106045000Y-145415000D02*
X107315000Y-144145000D01*
X102870000Y-109855000D02*
X101745489Y-110979511D01*
X107315000Y-165100000D02*
X106045000Y-163830000D01*
X101745489Y-85579511D02*
X101745489Y-108730489D01*
X87630000Y-135255000D02*
X87630000Y-131445000D01*
X107315000Y-144145000D02*
X107315000Y-133350000D01*
X100965000Y-62865000D02*
X100965000Y-82550000D01*
X101745489Y-110979511D02*
X101745489Y-129685489D01*
X102870000Y-84455000D02*
X101745489Y-85579511D01*
X104775000Y-130810000D02*
X102870000Y-130810000D01*
%TO.N,/IO2*%
X111614511Y-144290489D02*
X111614511Y-134474511D01*
X105444400Y-158149400D02*
X104775000Y-157480000D01*
X104775000Y-157480000D02*
X104775000Y-145415000D01*
X104775000Y-145415000D02*
X106045000Y-144145000D01*
X105410000Y-120015000D02*
X102870000Y-117475000D01*
X110490000Y-145415000D02*
X111614511Y-144290489D01*
X105410000Y-128270000D02*
X105410000Y-120015000D01*
X111614511Y-134474511D02*
X105410000Y-128270000D01*
X105444400Y-171135000D02*
X105444400Y-158149400D01*
%TO.N,/IO4*%
X99060000Y-154940000D02*
X99060000Y-144145000D01*
X104140000Y-165100000D02*
X104140000Y-158750000D01*
X104140000Y-158750000D02*
X100965000Y-155575000D01*
X99695000Y-155575000D02*
X99060000Y-154940000D01*
X99060000Y-144145000D02*
X95250000Y-140335000D01*
X100965000Y-155575000D02*
X99695000Y-155575000D01*
%TO.N,/IO5*%
X100965000Y-165100000D02*
X102049520Y-164015480D01*
X102049520Y-164015480D02*
X102049520Y-157929520D01*
X97790000Y-145415000D02*
X95250000Y-142875000D01*
X97790000Y-155575000D02*
X97790000Y-145415000D01*
X124460000Y-141605000D02*
X124460000Y-144145000D01*
X100965000Y-156845000D02*
X99060000Y-156845000D01*
X125730000Y-140335000D02*
X124460000Y-141605000D01*
X124460000Y-144145000D02*
X125730000Y-145415000D01*
X102049520Y-157929520D02*
X100965000Y-156845000D01*
X99060000Y-156845000D02*
X97790000Y-155575000D01*
%TO.N,/IO6*%
X124605489Y-149079511D02*
X124605489Y-158260489D01*
X123825000Y-146050000D02*
X125730000Y-147955000D01*
X124460000Y-158750000D02*
X124605489Y-158604511D01*
X123375480Y-113479520D02*
X123190000Y-113665000D01*
X123825000Y-128905000D02*
X123825000Y-146050000D01*
X101600000Y-162949614D02*
X99106700Y-165442914D01*
X123190000Y-113665000D02*
X123190000Y-128270000D01*
X99106700Y-165442914D02*
X99106700Y-171135000D01*
X101600000Y-158750000D02*
X101600000Y-162949614D01*
X124605489Y-158604511D02*
X124605489Y-158260489D01*
X120650000Y-90805000D02*
X120650000Y-99060000D01*
X100965000Y-158115000D02*
X101600000Y-158750000D01*
X123190000Y-128270000D02*
X123825000Y-128905000D01*
X125730000Y-147955000D02*
X124605489Y-149079511D01*
X123375480Y-101785480D02*
X123375480Y-113479520D01*
X120650000Y-99060000D02*
X123375480Y-101785480D01*
X96520000Y-158115000D02*
X100965000Y-158115000D01*
D24*
X102870000Y-86995000D02*
X102870000Y-89535000D01*
D23*
%TO.N,/IO1*%
X107950000Y-159385000D02*
X107950000Y-150495000D01*
X98425000Y-165100000D02*
X98425000Y-160655000D01*
X98425000Y-160655000D02*
X99695000Y-159385000D01*
X112395000Y-134619282D02*
X112395000Y-146050000D01*
X112395000Y-146050000D02*
X110490000Y-147955000D01*
X107950000Y-130174282D02*
X112395000Y-134619282D01*
X107950000Y-122555000D02*
X107950000Y-130174282D01*
X107950000Y-150495000D02*
X110490000Y-147955000D01*
X110490000Y-120015000D02*
X107950000Y-122555000D01*
%TO.N,/IO0*%
X111760000Y-118745000D02*
X110490000Y-117475000D01*
X97155000Y-153670000D02*
X97155000Y-149860000D01*
X93345000Y-158750000D02*
X93345000Y-157480000D01*
X110490000Y-150495000D02*
X113030000Y-147955000D01*
X113030000Y-129540000D02*
X111760000Y-128270000D01*
X97155000Y-149860000D02*
X95250000Y-147955000D01*
X95937780Y-161342780D02*
X93345000Y-158750000D01*
X111760000Y-128270000D02*
X111760000Y-118745000D01*
X93345000Y-157480000D02*
X97155000Y-153670000D01*
X95937780Y-171135000D02*
X95937780Y-161342780D01*
X113030000Y-147955000D02*
X113030000Y-129540000D01*
D24*
%TO.N,+5V*%
X80010000Y-81915000D02*
X79375000Y-81280000D01*
D23*
X125650000Y-106045000D02*
X126854511Y-104840489D01*
D25*
X81915000Y-53975000D02*
X85090000Y-53975000D01*
X79375000Y-81280000D02*
X79375000Y-84455000D01*
X79375000Y-135255000D02*
X79375000Y-151130000D01*
X79375000Y-109220000D02*
X79375000Y-135255000D01*
D24*
X80010000Y-59055000D02*
X79375000Y-58420000D01*
X82550000Y-81915000D02*
X80010000Y-81915000D01*
D23*
X126854511Y-104840489D02*
X126854511Y-85579511D01*
D25*
X79375000Y-56515000D02*
X79375000Y-58420000D01*
D24*
X82550000Y-135255000D02*
X79375000Y-135255000D01*
X82550000Y-84455000D02*
X79375000Y-84455000D01*
D25*
X92710000Y-163195000D02*
X92710000Y-171076110D01*
X92710000Y-161925000D02*
X92710000Y-163195000D01*
X79375000Y-58420000D02*
X79375000Y-81280000D01*
D23*
X126854511Y-85579511D02*
X125730000Y-84455000D01*
D25*
X92710000Y-171076110D02*
X92768890Y-171135000D01*
D24*
X129500000Y-127635000D02*
X125690000Y-131445000D01*
X82550000Y-59055000D02*
X80010000Y-59055000D01*
D25*
X82550000Y-109855000D02*
X80010000Y-109855000D01*
X88900000Y-160655000D02*
X91440000Y-160655000D01*
X79375000Y-56515000D02*
X81915000Y-53975000D01*
D24*
X129540000Y-127635000D02*
X129500000Y-127635000D01*
D25*
X79375000Y-151130000D02*
X88900000Y-160655000D01*
X80010000Y-109855000D02*
X79375000Y-109220000D01*
X79375000Y-84455000D02*
X79375000Y-109220000D01*
X91440000Y-160655000D02*
X92710000Y-161925000D01*
D23*
%TO.N,/IO7*%
X125730000Y-158115000D02*
X127000000Y-159385000D01*
X125730000Y-150495000D02*
X125730000Y-158115000D01*
%TO.N,/{slash}SELECT*%
X83874511Y-107369511D02*
X83874511Y-151819511D01*
X82550000Y-106045000D02*
X83874511Y-107369511D01*
X89600000Y-166435000D02*
X85725000Y-162560000D01*
X83874511Y-151819511D02*
X90170000Y-158115000D01*
X89600000Y-171135000D02*
X89600000Y-166435000D01*
%TO.N,Net-(C5-Pad1)*%
X143510000Y-46355000D02*
X140970000Y-48895000D01*
X143510000Y-43815000D02*
X143510000Y-46355000D01*
%TO.N,Net-(J3A1-Pad4)*%
X121285000Y-44450000D02*
X121285000Y-55245000D01*
X118110000Y-41275000D02*
X121285000Y-44450000D01*
%TO.N,/PUP*%
X87630000Y-64135000D02*
X86505489Y-63010489D01*
X87630000Y-109855000D02*
X86505489Y-108730489D01*
X87630000Y-66675000D02*
X87630000Y-64135000D01*
X86505489Y-98279511D02*
X87630000Y-97155000D01*
X86505489Y-75419511D02*
X86505489Y-83330489D01*
X86505489Y-63010489D02*
X86505489Y-60179511D01*
X86505489Y-83330489D02*
X87630000Y-84455000D01*
X86505489Y-108730489D02*
X86505489Y-98279511D01*
X102870000Y-94615000D02*
X105410000Y-97155000D01*
X87630000Y-74295000D02*
X86505489Y-75419511D01*
X87630000Y-66675000D02*
X86505489Y-67799511D01*
X86505489Y-60179511D02*
X87630000Y-59055000D01*
X86505489Y-67799511D02*
X86505489Y-73170489D01*
X86505489Y-73170489D02*
X87630000Y-74295000D01*
X105410000Y-97155000D02*
X105410000Y-111125000D01*
%TO.N,Net-(U1B1-Pad9)*%
X95250000Y-76835000D02*
X94125489Y-75710489D01*
X94125489Y-58089031D02*
X94284031Y-57930489D01*
X94125489Y-75710489D02*
X94125489Y-58089031D01*
X94284031Y-57930489D02*
X99205489Y-57930489D01*
X99205489Y-57930489D02*
X102870000Y-61595000D01*
%TO.N,/615KHz*%
X87630000Y-112395000D02*
X86055969Y-110820969D01*
X96374511Y-79381859D02*
X96374511Y-72879511D01*
X86055969Y-88569031D02*
X87630000Y-86995000D01*
X96374511Y-72879511D02*
X95250000Y-71755000D01*
X88761370Y-86995000D02*
X96374511Y-79381859D01*
X87630000Y-86995000D02*
X88761370Y-86995000D01*
X86055969Y-110820969D02*
X86055969Y-88569031D01*
%TO.N,Net-(U1C1-Pad9)*%
X110024211Y-57930489D02*
X110344511Y-57930489D01*
X110955789Y-57930489D02*
X111760000Y-58734700D01*
X111760000Y-62865000D02*
X110490000Y-64135000D01*
X110344511Y-57930489D02*
X110955789Y-57930489D01*
X96374511Y-103359511D02*
X96374511Y-126510489D01*
X107315000Y-95250000D02*
X110490000Y-92075000D01*
X110024211Y-57930489D02*
X108585000Y-59369700D01*
X108585000Y-59369700D02*
X108585000Y-60960000D01*
X108585000Y-90170000D02*
X108585000Y-59690000D01*
X95250000Y-102235000D02*
X96374511Y-103359511D01*
X96374511Y-126510489D02*
X95250000Y-127635000D01*
X111760000Y-58734700D02*
X111760000Y-62865000D01*
X107315000Y-99695000D02*
X107315000Y-95250000D01*
X110490000Y-92075000D02*
X108585000Y-90170000D01*
%TO.N,Net-(U1C1-Pad10)*%
X93980000Y-111125000D02*
X93980000Y-100965000D01*
X95250000Y-112395000D02*
X93980000Y-111125000D01*
X93980000Y-100965000D02*
X95250000Y-99695000D01*
%TO.N,Net-(U1C1-Pad3)*%
X87630000Y-89535000D02*
X89535000Y-91440000D01*
X93980000Y-118110000D02*
X93980000Y-136525000D01*
X89535000Y-113665000D02*
X93980000Y-118110000D01*
X93980000Y-136525000D02*
X95250000Y-137795000D01*
X89535000Y-91440000D02*
X89535000Y-113665000D01*
%TO.N,Net-(U1C1-Pad4)*%
X88754511Y-93199511D02*
X87630000Y-92075000D01*
X95250000Y-145415000D02*
X92710000Y-142875000D01*
X88754511Y-114154511D02*
X88754511Y-93199511D01*
X92710000Y-142875000D02*
X92710000Y-118110000D01*
X92710000Y-118110000D02*
X88754511Y-114154511D01*
%TO.N,Net-(U1C1-Pad15)*%
X109365489Y-62719511D02*
X110490000Y-61595000D01*
X110490000Y-89535000D02*
X109365489Y-88410489D01*
X109365489Y-88410489D02*
X109365489Y-62719511D01*
%TO.N,Net-(U1D1-Pad3)*%
X91440000Y-146685000D02*
X91440000Y-118745000D01*
X95250000Y-150495000D02*
X91440000Y-146685000D01*
X91440000Y-118745000D02*
X87630000Y-114935000D01*
%TO.N,Net-(U1D1-Pad4)*%
X90170000Y-147955000D02*
X90170000Y-120015000D01*
X90170000Y-120015000D02*
X87630000Y-117475000D01*
X87630000Y-150495000D02*
X90170000Y-147955000D01*
%TO.N,Net-(U1D1-Pad5)*%
X89204031Y-121589031D02*
X87630000Y-120015000D01*
X89204031Y-143840969D02*
X89204031Y-121589031D01*
X87630000Y-145415000D02*
X89204031Y-143840969D01*
%TO.N,Net-(U1D1-Pad6)*%
X88754511Y-136670489D02*
X87630000Y-137795000D01*
X88754511Y-123679511D02*
X88754511Y-136670489D01*
X87630000Y-122555000D02*
X88754511Y-123679511D01*
%TO.N,Net-(U1E1-Pad9)*%
X99695000Y-135255000D02*
X99695000Y-92710000D01*
X100330000Y-135890000D02*
X99695000Y-135255000D01*
X99695000Y-92710000D02*
X100330000Y-92075000D01*
X100330000Y-153035000D02*
X100330000Y-135890000D01*
%TO.N,Net-(U2A1-Pad8)*%
X127635000Y-66040000D02*
X127635000Y-78740000D01*
X140970000Y-142875000D02*
X148590000Y-150495000D01*
X117796736Y-31750000D02*
X113030000Y-36516736D01*
X140970000Y-121920000D02*
X140970000Y-142875000D01*
X128905000Y-50800000D02*
X130810000Y-52705000D01*
X137160000Y-116205000D02*
X137160000Y-118110000D01*
X127635000Y-78740000D02*
X132080000Y-83185000D01*
X113030000Y-36516736D02*
X113030000Y-46355000D01*
X130810000Y-62865000D02*
X127635000Y-66040000D01*
X132080000Y-83185000D02*
X132080000Y-111125000D01*
X130810000Y-52705000D02*
X130810000Y-62865000D01*
X126365000Y-31750000D02*
X117796736Y-31750000D01*
X128905000Y-34290000D02*
X128905000Y-50800000D01*
X132080000Y-111125000D02*
X137160000Y-116205000D01*
X137160000Y-118110000D02*
X140970000Y-121920000D01*
X113030000Y-46355000D02*
X110490000Y-48895000D01*
X126365000Y-31750000D02*
X128905000Y-34290000D01*
%TO.N,Net-(U2A1-Pad11)*%
X134620000Y-54610000D02*
X134620000Y-101600000D01*
X142240000Y-109220000D02*
X142240000Y-117728282D01*
X144145000Y-119633282D02*
X144145000Y-133350000D01*
X117635509Y-31275509D02*
X134145509Y-31275509D01*
X134620000Y-101600000D02*
X142240000Y-109220000D01*
X142240000Y-117728282D02*
X144145000Y-119633282D01*
X111760000Y-40005000D02*
X111760000Y-37151018D01*
X110490000Y-41275000D02*
X111760000Y-40005000D01*
X135255000Y-53975000D02*
X134620000Y-54610000D01*
X135255000Y-32385000D02*
X135255000Y-53975000D01*
X111760000Y-37151018D02*
X117635509Y-31275509D01*
X134145509Y-31275509D02*
X135255000Y-32385000D01*
X144145000Y-133350000D02*
X148590000Y-137795000D01*
%TO.N,Net-(U2A1-Pad6)*%
X125730000Y-128905000D02*
X123825000Y-127000000D01*
X100965000Y-48260000D02*
X100965000Y-51435000D01*
X92075000Y-78740000D02*
X93980000Y-80645000D01*
X121830489Y-97700489D02*
X121830489Y-88810489D01*
X121830489Y-88810489D02*
X120650000Y-87630000D01*
X102870000Y-46355000D02*
X100965000Y-48260000D01*
X123825000Y-99695000D02*
X121830489Y-97700489D01*
X95885000Y-56515000D02*
X93345000Y-56515000D01*
X92075000Y-57785000D02*
X92075000Y-78740000D01*
X120650000Y-87630000D02*
X120650000Y-83185000D01*
X120650000Y-83185000D02*
X118110000Y-80645000D01*
X93345000Y-56515000D02*
X92075000Y-57785000D01*
X123825000Y-127000000D02*
X123825000Y-99695000D01*
X100965000Y-51435000D02*
X95885000Y-56515000D01*
%TO.N,Net-(U2B1-Pad4)*%
X148590000Y-142875000D02*
X142875000Y-137160000D01*
X133350000Y-102108000D02*
X133350000Y-72390000D01*
X133350000Y-72390000D02*
X129540000Y-68580000D01*
X142875000Y-120015000D02*
X141224000Y-118364000D01*
X141224000Y-109982000D02*
X133350000Y-102108000D01*
X141224000Y-118364000D02*
X141224000Y-109982000D01*
X142875000Y-137160000D02*
X142875000Y-120015000D01*
%TO.N,Net-(U2B1-Pad5)*%
X131534511Y-91529511D02*
X131534511Y-102324511D01*
X130085489Y-106590489D02*
X130085489Y-103773533D01*
X137795000Y-124115260D02*
X137795000Y-143510000D01*
X130175000Y-106680000D02*
X130085489Y-106590489D01*
X130085489Y-103773533D02*
X131534511Y-102324511D01*
X105410000Y-84455000D02*
X105410000Y-71755000D01*
X132715000Y-120650000D02*
X130175000Y-118110000D01*
X134329740Y-120650000D02*
X137795000Y-124115260D01*
X131445000Y-91440000D02*
X131534511Y-91529511D01*
X130175000Y-118110000D02*
X130175000Y-106680000D01*
X129540000Y-89535000D02*
X131445000Y-91440000D01*
X137795000Y-143510000D02*
X133350000Y-147955000D01*
X105410000Y-71755000D02*
X102870000Y-69215000D01*
X132715000Y-120650000D02*
X134329740Y-120650000D01*
%TO.N,Net-(U2D1-Pad9)*%
X124605489Y-116694511D02*
X124325489Y-116414511D01*
X124605489Y-126510489D02*
X124605489Y-116694511D01*
X124325489Y-116414511D02*
X124325489Y-101099511D01*
X124325489Y-101099511D02*
X125730000Y-99695000D01*
X125730000Y-127635000D02*
X124605489Y-126510489D01*
%TO.N,Net-(U2E1-Pad1)*%
X133350000Y-153035000D02*
X132080000Y-154305000D01*
X116086449Y-117991449D02*
X114935000Y-116840000D01*
X118110000Y-135255000D02*
X115570000Y-137795000D01*
X115570000Y-137795000D02*
X115570000Y-157480000D01*
X131445000Y-159385000D02*
X130810000Y-159385000D01*
X118110000Y-135255000D02*
X116086449Y-133231449D01*
X132080000Y-158750000D02*
X131445000Y-159385000D01*
X114935000Y-116840000D02*
X114935000Y-73660000D01*
X114935000Y-73660000D02*
X115570000Y-73025000D01*
X132080000Y-154305000D02*
X132080000Y-158750000D01*
X116086449Y-133231449D02*
X116086449Y-117991449D01*
%TO.N,Net-(U2E1-Pad13)*%
X101295969Y-106349031D02*
X100965000Y-106680000D01*
X99695000Y-66675000D02*
X100515480Y-67495480D01*
X106045000Y-136180978D02*
X100965000Y-131100978D01*
X106045000Y-136525000D02*
X106045000Y-136180978D01*
X100965000Y-131100978D02*
X100965000Y-106680000D01*
X101295969Y-91770969D02*
X101295969Y-106349031D01*
X100515480Y-67495480D02*
X100515480Y-90990480D01*
X100515480Y-90990480D02*
X101295969Y-91770969D01*
%TO.N,Net-(U3B1-Pad11)*%
X143510000Y-135255000D02*
X148590000Y-140335000D01*
X143510000Y-119634000D02*
X143510000Y-135255000D01*
X141732000Y-117856000D02*
X143510000Y-119634000D01*
X141732000Y-109474000D02*
X141732000Y-117856000D01*
X129540000Y-66675000D02*
X133985000Y-71120000D01*
X133985000Y-71120000D02*
X133985000Y-101727000D01*
X133985000Y-101727000D02*
X141732000Y-109474000D01*
%TO.N,Net-(U3B1-Pad6)*%
X119380000Y-76835000D02*
X119380000Y-73025000D01*
X123825000Y-82305332D02*
X121920000Y-80400332D01*
X119380000Y-73025000D02*
X118110000Y-71755000D01*
X123825000Y-95885000D02*
X123825000Y-82305332D01*
X122555000Y-97155000D02*
X123825000Y-95885000D01*
X121920000Y-80400332D02*
X121920000Y-79375000D01*
X121920000Y-79375000D02*
X119380000Y-76835000D01*
%TO.N,Net-(U3D1-Pad1)*%
X133350000Y-120015000D02*
X134330458Y-120015000D01*
X130810000Y-117475000D02*
X133350000Y-120015000D01*
X130810000Y-106045000D02*
X130810000Y-117475000D01*
X138430000Y-150495000D02*
X133350000Y-155575000D01*
X134330458Y-120015000D02*
X138430000Y-124114542D01*
X138430000Y-124114542D02*
X138430000Y-150495000D01*
%TO.N,Net-(U3D1-Pad10)*%
X139700000Y-123190000D02*
X134620000Y-118110000D01*
X148590000Y-155575000D02*
X139700000Y-146685000D01*
X134620000Y-118110000D02*
X134620000Y-117475000D01*
X139700000Y-146685000D02*
X139700000Y-123190000D01*
X134620000Y-117475000D02*
X133350000Y-116205000D01*
%TO.N,Net-(U3D1-Pad4)*%
X133350000Y-113665000D02*
X135890359Y-116205359D01*
X135890359Y-116205359D02*
X135890359Y-118109641D01*
X140335000Y-144780000D02*
X148590000Y-153035000D01*
X135890359Y-118109641D02*
X140335000Y-122554282D01*
X140335000Y-122554282D02*
X140335000Y-144780000D01*
%TO.N,Net-(U3D1-Pad12)*%
X139210489Y-110000489D02*
X133839511Y-110000489D01*
X139954000Y-110744000D02*
X139210489Y-110000489D01*
X141605000Y-140970000D02*
X141605000Y-120777000D01*
X139954000Y-119126000D02*
X139954000Y-110744000D01*
X133839511Y-110000489D02*
X133350000Y-110490000D01*
X148590000Y-147955000D02*
X141605000Y-140970000D01*
X141605000Y-120777000D02*
X139954000Y-119126000D01*
%TO.N,Net-(U4A1-Pad10)*%
X143256000Y-108458000D02*
X143256000Y-117231040D01*
X136260960Y-101462960D02*
X143256000Y-108458000D01*
X143256000Y-117231040D02*
X145600480Y-119575520D01*
X137795000Y-47625000D02*
X137795000Y-55880000D01*
X140970000Y-46355000D02*
X139065000Y-46355000D01*
X137795000Y-55880000D02*
X136260960Y-57414040D01*
D24*
X140970000Y-43815000D02*
X140970000Y-46355000D01*
D23*
X145600480Y-119575520D02*
X145600480Y-129725480D01*
X145600480Y-129725480D02*
X148590000Y-132715000D01*
X136260960Y-57414040D02*
X136260960Y-101462960D01*
X139065000Y-46355000D02*
X137795000Y-47625000D01*
%TO.N,Net-(R5-Pad1)*%
X148590000Y-145415000D02*
X142240000Y-139065000D01*
X131445000Y-52070000D02*
X129540000Y-50165000D01*
X131445000Y-63500000D02*
X131445000Y-52070000D01*
X142240000Y-120396000D02*
X140716000Y-118872000D01*
X128270000Y-76835000D02*
X128270000Y-66675000D01*
X129540000Y-50165000D02*
X129540000Y-45085000D01*
X140716000Y-110490000D02*
X132715000Y-102489000D01*
X140716000Y-118872000D02*
X140716000Y-110490000D01*
X128270000Y-66675000D02*
X131445000Y-63500000D01*
X132715000Y-81280000D02*
X128270000Y-76835000D01*
X142240000Y-139065000D02*
X142240000Y-120396000D01*
X129540000Y-45085000D02*
X133350000Y-41275000D01*
X132715000Y-102489000D02*
X132715000Y-81280000D01*
X130810000Y-33655000D02*
X130810000Y-38735000D01*
X130810000Y-38735000D02*
X133350000Y-41275000D01*
%TO.N,Net-(R5-Pad2)*%
X130810000Y-46355000D02*
X133350000Y-43815000D01*
X130810000Y-48895000D02*
X130810000Y-46355000D01*
%TO.N,Net-(U4A1-Pad13)*%
X136974520Y-40190480D02*
X136974520Y-55430480D01*
X135255000Y-101473000D02*
X142689520Y-108907520D01*
X144780000Y-119632564D02*
X144780000Y-131445000D01*
X144780000Y-131445000D02*
X148590000Y-135255000D01*
X135255000Y-57150000D02*
X135255000Y-101473000D01*
X136974520Y-55430480D02*
X135255000Y-57150000D01*
X140970000Y-36195000D02*
X136974520Y-40190480D01*
X142689520Y-117542084D02*
X144780000Y-119632564D01*
X142689520Y-108907520D02*
X142689520Y-117542084D01*
%TO.N,TxD*%
X118745000Y-55880000D02*
X120650000Y-57785000D01*
X118745000Y-53340000D02*
X118745000Y-55880000D01*
X120015000Y-48260000D02*
X120015000Y-52070000D01*
X118110000Y-46355000D02*
X120015000Y-48260000D01*
X120650000Y-57785000D02*
X120650000Y-60325000D01*
X120015000Y-52070000D02*
X118745000Y-53340000D01*
%TO.N,RxClock*%
X136710480Y-58234520D02*
X136710480Y-80830480D01*
X136710480Y-80830480D02*
X137160000Y-81280000D01*
X146595489Y-128180489D02*
X148590000Y-130175000D01*
X146595489Y-119596511D02*
X146595489Y-128180489D01*
X144018000Y-117019022D02*
X146595489Y-119596511D01*
X139065000Y-55880000D02*
X136710480Y-58234520D01*
X137160000Y-81280000D02*
X137160000Y-101346000D01*
X139065000Y-47625000D02*
X139065000Y-55880000D01*
X144018000Y-108204000D02*
X144018000Y-117019022D01*
X137160000Y-101346000D02*
X144018000Y-108204000D01*
%TD*%
M02*
