M48
; DRILL file {KiCad (6.0.0)} date Sun Mar 13 20:59:26 2022
; FORMAT={-:-/ absolute / metric / decimal}
; #@! TF.CreationDate,2022-03-13T20:59:26-04:00
; #@! TF.GenerationSoftware,Kicad,Pcbnew,(6.0.0)
; #@! TF.FileFunction,Plated,1,2,PTH
FMAT,2
METRIC
; #@! TA.AperFunction,Plated,PTH,ViaDrill
T1C0.400
; #@! TA.AperFunction,Plated,PTH,ComponentDrill
T2C0.800
; #@! TA.AperFunction,Plated,PTH,ComponentDrill
T3C1.000
; #@! TA.AperFunction,Plated,PTH,ComponentDrill
T4C3.200
%
G90
G05
T1
X82.55Y-106.045
X85.725Y-162.56
X87.63Y-131.445
X90.17Y-158.115
X93.98Y-80.645
X96.52Y-158.115
X98.425Y-165.1
X99.695Y-66.675
X99.695Y-159.385
X100.33Y-92.075
X100.33Y-153.035
X100.965Y-62.865
X100.965Y-165.1
X102.87Y-130.81
X104.14Y-165.1
X105.41Y-37.465
X105.41Y-84.455
X105.41Y-111.125
X106.045Y-136.525
X106.045Y-144.145
X106.68Y-51.435
X107.315Y-99.695
X107.315Y-165.1
X107.95Y-159.385
X108.585Y-35.56
X108.585Y-55.88
X109.855Y-165.1
X113.665Y-156.845
X115.57Y-73.025
X115.57Y-157.48
X115.57Y-165.1
X118.11Y-80.645
X118.11Y-155.575
X120.65Y-60.325
X120.65Y-90.805
X121.285Y-55.245
X121.92Y-76.835
X121.92Y-86.995
X121.92Y-165.1
X122.555Y-97.155
X123.19Y-80.01
X123.825Y-165.735
X124.46Y-158.75
X125.73Y-77.47
X125.73Y-127.635
X125.73Y-128.905
X127.0Y-155.575
X127.0Y-159.385
X128.76Y-101.11
X128.905Y-61.595
X129.54Y-57.785
X129.54Y-66.675
X129.54Y-68.58
X129.54Y-89.535
X130.81Y-106.045
X130.81Y-157.48
X130.81Y-159.385
X132.08Y-163.83
X133.35Y-110.49
X133.35Y-113.665
X133.35Y-116.205
X133.35Y-118.11
X135.89Y-54.61
X137.795Y-58.42
X139.065Y-47.625
X139.7Y-59.944
X140.335Y-159.385
X141.986Y-54.61
T2
X82.55Y-66.675
X82.55Y-81.915
X87.63Y-33.655
X87.63Y-36.195
X87.63Y-38.735
X87.63Y-41.275
X87.63Y-59.055
X87.63Y-61.595
X87.63Y-64.135
X87.63Y-66.675
X87.63Y-69.215
X87.63Y-71.755
X87.63Y-74.295
X87.63Y-76.835
X87.63Y-84.455
X87.63Y-86.995
X87.63Y-89.535
X87.63Y-92.075
X87.63Y-94.615
X87.63Y-97.155
X87.63Y-99.695
X87.63Y-102.235
X87.63Y-109.855
X87.63Y-112.395
X87.63Y-114.935
X87.63Y-117.475
X87.63Y-120.015
X87.63Y-122.555
X87.63Y-125.095
X87.63Y-127.635
X87.63Y-135.255
X87.63Y-137.795
X87.63Y-140.335
X87.63Y-142.875
X87.63Y-145.415
X87.63Y-147.955
X87.63Y-150.495
X87.63Y-153.035
X90.21Y-163.195
X92.71Y-163.195
X95.25Y-33.655
X95.25Y-36.195
X95.25Y-38.735
X95.25Y-41.275
X95.25Y-59.055
X95.25Y-61.595
X95.25Y-64.135
X95.25Y-66.675
X95.25Y-69.215
X95.25Y-71.755
X95.25Y-74.295
X95.25Y-76.835
X95.25Y-84.455
X95.25Y-86.995
X95.25Y-89.535
X95.25Y-92.075
X95.25Y-94.615
X95.25Y-97.155
X95.25Y-99.695
X95.25Y-102.235
X95.25Y-109.855
X95.25Y-112.395
X95.25Y-114.935
X95.25Y-117.475
X95.25Y-120.015
X95.25Y-122.555
X95.25Y-125.095
X95.25Y-127.635
X95.25Y-135.255
X95.25Y-137.795
X95.25Y-140.335
X95.25Y-142.875
X95.25Y-145.415
X95.25Y-147.955
X95.25Y-150.495
X95.25Y-153.035
X102.87Y-33.655
X102.87Y-36.195
X102.87Y-38.735
X102.87Y-41.275
X102.87Y-43.815
X102.87Y-46.355
X102.87Y-48.895
X102.87Y-59.055
X102.87Y-61.595
X102.87Y-64.135
X102.87Y-66.675
X102.87Y-69.215
X102.87Y-71.755
X102.87Y-74.295
X102.87Y-84.455
X102.87Y-86.995
X102.87Y-89.535
X102.87Y-92.075
X102.87Y-94.615
X102.87Y-97.155
X102.87Y-99.695
X102.87Y-102.235
X102.87Y-109.855
X102.87Y-112.395
X102.87Y-114.935
X102.87Y-117.475
X102.87Y-120.015
X102.87Y-122.555
X102.87Y-125.095
X102.87Y-127.635
X102.87Y-135.255
X102.87Y-137.795
X102.87Y-140.335
X102.87Y-142.875
X102.87Y-145.415
X102.87Y-147.955
X102.87Y-150.495
X110.49Y-33.655
X110.49Y-36.195
X110.49Y-38.735
X110.49Y-41.275
X110.49Y-43.815
X110.49Y-46.355
X110.49Y-48.895
X110.49Y-59.055
X110.49Y-61.595
X110.49Y-64.135
X110.49Y-66.675
X110.49Y-69.215
X110.49Y-71.755
X110.49Y-74.295
X110.49Y-84.455
X110.49Y-86.995
X110.49Y-89.535
X110.49Y-92.075
X110.49Y-94.615
X110.49Y-97.155
X110.49Y-99.695
X110.49Y-102.235
X110.49Y-109.855
X110.49Y-112.395
X110.49Y-114.935
X110.49Y-117.475
X110.49Y-120.015
X110.49Y-122.555
X110.49Y-125.095
X110.49Y-127.635
X110.49Y-135.255
X110.49Y-137.795
X110.49Y-140.335
X110.49Y-142.875
X110.49Y-145.415
X110.49Y-147.955
X110.49Y-150.495
X115.57Y-31.115
X115.57Y-46.355
X118.11Y-33.655
X118.11Y-36.195
X118.11Y-38.735
X118.11Y-41.275
X118.11Y-43.815
X118.11Y-46.355
X118.11Y-48.895
X118.11Y-51.435
X118.11Y-59.055
X118.11Y-61.595
X118.11Y-64.135
X118.11Y-66.675
X118.11Y-69.215
X118.11Y-71.755
X118.11Y-74.295
X118.11Y-84.455
X118.11Y-86.995
X118.11Y-89.535
X118.11Y-92.075
X118.11Y-94.615
X118.11Y-97.155
X118.11Y-99.695
X118.11Y-102.235
X118.11Y-109.855
X118.11Y-112.395
X118.11Y-114.935
X118.11Y-117.475
X118.11Y-120.015
X118.11Y-122.555
X118.11Y-125.095
X118.11Y-135.255
X118.11Y-137.795
X118.11Y-140.335
X118.11Y-142.875
X118.11Y-145.415
X118.11Y-147.955
X118.11Y-150.495
X125.73Y-33.655
X125.73Y-36.195
X125.73Y-38.735
X125.73Y-41.275
X125.73Y-43.815
X125.73Y-46.355
X125.73Y-48.895
X125.73Y-51.435
X125.73Y-59.055
X125.73Y-61.595
X125.73Y-64.135
X125.73Y-66.675
X125.73Y-69.215
X125.73Y-71.755
X125.73Y-74.295
X125.73Y-84.455
X125.73Y-86.995
X125.73Y-89.535
X125.73Y-92.075
X125.73Y-94.615
X125.73Y-97.155
X125.73Y-99.695
X125.73Y-102.235
X125.73Y-109.855
X125.73Y-112.395
X125.73Y-114.935
X125.73Y-117.475
X125.73Y-120.015
X125.73Y-122.555
X125.73Y-125.095
X125.73Y-135.255
X125.73Y-137.795
X125.73Y-140.335
X125.73Y-142.875
X125.73Y-145.415
X125.73Y-147.955
X125.73Y-150.495
X130.81Y-33.655
X130.81Y-48.895
X133.35Y-33.655
X133.35Y-36.195
X133.35Y-38.735
X133.35Y-41.275
X133.35Y-43.815
X133.35Y-46.355
X133.35Y-48.895
X133.35Y-122.555
X133.35Y-125.095
X133.35Y-127.635
X133.35Y-130.175
X133.35Y-132.715
X133.35Y-135.255
X133.35Y-137.795
X133.35Y-140.335
X133.35Y-142.875
X133.35Y-145.415
X133.35Y-147.955
X133.35Y-150.495
X133.35Y-153.035
X133.35Y-155.575
X135.93Y-163.195
X138.43Y-111.125
X138.43Y-113.665
X138.43Y-116.205
X138.43Y-163.195
X140.97Y-33.655
X140.97Y-36.195
X140.97Y-38.735
X140.97Y-41.275
X140.97Y-43.815
X140.97Y-46.355
X140.97Y-48.895
X143.55Y-163.195
X146.05Y-163.195
X148.59Y-111.125
X148.59Y-113.665
X148.59Y-116.205
X148.59Y-122.555
X148.59Y-125.095
X148.59Y-127.635
X148.59Y-130.175
X148.59Y-132.715
X148.59Y-135.255
X148.59Y-137.795
X148.59Y-140.335
X148.59Y-142.875
X148.59Y-145.415
X148.59Y-147.955
X148.59Y-150.495
X148.59Y-153.035
X148.59Y-155.575
T3
X82.55Y-59.055
X82.55Y-64.055
X82.55Y-84.455
X82.55Y-89.455
X82.55Y-109.855
X82.55Y-114.855
X82.55Y-135.255
X82.55Y-140.255
X85.09Y-46.355
X85.09Y-48.895
X85.09Y-51.435
X85.09Y-53.975
X90.17Y-46.355
X90.17Y-48.895
X90.17Y-51.435
X90.17Y-53.975
X95.17Y-46.355
X95.17Y-48.895
X95.17Y-51.435
X95.17Y-53.975
X120.095Y-80.645
X120.65Y-106.045
X120.69Y-131.445
X125.095Y-80.645
X125.65Y-106.045
X125.69Y-131.445
X129.54Y-127.635
X129.54Y-132.635
X143.51Y-43.815
X143.51Y-48.815
X143.51Y-51.435
X143.706Y-62.845
X143.706Y-65.615
X143.706Y-68.385
X143.706Y-71.155
X143.706Y-73.925
X143.706Y-76.695
X143.706Y-79.465
X143.706Y-82.235
X143.706Y-85.005
X143.706Y-87.775
X143.706Y-90.545
X143.706Y-93.315
X143.706Y-96.085
X146.05Y-31.195
X146.05Y-36.195
X146.05Y-43.815
X146.05Y-48.815
X146.05Y-51.435
X146.246Y-64.23
X146.246Y-67.0
X146.246Y-69.77
X146.246Y-72.54
X146.246Y-75.31
X146.246Y-78.08
X146.246Y-80.85
X146.246Y-83.62
X146.246Y-86.39
X146.246Y-89.16
X146.246Y-91.93
X146.246Y-94.7
X148.59Y-43.815
X148.59Y-48.815
X148.59Y-51.435
X148.59Y-118.745
X149.225Y-31.195
X149.225Y-36.195
X149.86Y-160.02
T4
X144.976Y-55.945
X144.976Y-102.985
T0
M30
