%TF.GenerationSoftware,KiCad,Pcbnew,(6.0.0)*%
%TF.CreationDate,2022-03-13T20:59:25-04:00*%
%TF.ProjectId,Northstar SIO,4e6f7274-6873-4746-9172-2053494f2e6b,rev?*%
%TF.SameCoordinates,Original*%
%TF.FileFunction,Copper,L1,Top*%
%TF.FilePolarity,Positive*%
%FSLAX46Y46*%
G04 Gerber Fmt 4.6, Leading zero omitted, Abs format (unit mm)*
G04 Created by KiCad (PCBNEW (6.0.0)) date 2022-03-13 20:59:25*
%MOMM*%
%LPD*%
G01*
G04 APERTURE LIST*
%TA.AperFunction,NonConductor*%
%ADD10C,0.200000*%
%TD*%
%ADD11C,0.200000*%
%ADD12C,0.300000*%
%TA.AperFunction,NonConductor*%
%ADD13C,0.300000*%
%TD*%
%TA.AperFunction,ComponentPad*%
%ADD14C,1.600000*%
%TD*%
%TA.AperFunction,ComponentPad*%
%ADD15O,1.600000X1.600000*%
%TD*%
%TA.AperFunction,ComponentPad*%
%ADD16R,1.600000X1.600000*%
%TD*%
%TA.AperFunction,ComponentPad*%
%ADD17C,2.000000*%
%TD*%
%TA.AperFunction,ComponentPad*%
%ADD18C,1.500000*%
%TD*%
%TA.AperFunction,ComponentPad*%
%ADD19C,4.800000*%
%TD*%
%TA.AperFunction,ComponentPad*%
%ADD20C,1.700000*%
%TD*%
%TA.AperFunction,SMDPad,CuDef*%
%ADD21R,1.700000X7.400000*%
%TD*%
%TA.AperFunction,ComponentPad*%
%ADD22R,1.700000X1.700000*%
%TD*%
%TA.AperFunction,ComponentPad*%
%ADD23O,1.700000X1.700000*%
%TD*%
%TA.AperFunction,ViaPad*%
%ADD24C,0.800000*%
%TD*%
%TA.AperFunction,Conductor*%
%ADD25C,0.250000*%
%TD*%
%TA.AperFunction,Conductor*%
%ADD26C,0.700000*%
%TD*%
%TA.AperFunction,Conductor*%
%ADD27C,1.500000*%
%TD*%
G04 APERTURE END LIST*
D10*
X85090000Y-127635000D02*
X81280000Y-127635000D01*
X81280000Y-127635000D02*
X81280000Y-117475000D01*
X81280000Y-117475000D02*
X85090000Y-117475000D01*
X85090000Y-117475000D02*
X85090000Y-127635000D01*
D11*
D10*
X82926333Y-157898333D02*
X82926333Y-157231666D01*
X83326333Y-158031666D02*
X81926333Y-157565000D01*
X83326333Y-157098333D01*
X83259666Y-156698333D02*
X83326333Y-156498333D01*
X83326333Y-156165000D01*
X83259666Y-156031666D01*
X83193000Y-155965000D01*
X83059666Y-155898333D01*
X82926333Y-155898333D01*
X82793000Y-155965000D01*
X82726333Y-156031666D01*
X82659666Y-156165000D01*
X82593000Y-156431666D01*
X82526333Y-156565000D01*
X82459666Y-156631666D01*
X82326333Y-156698333D01*
X82193000Y-156698333D01*
X82059666Y-156631666D01*
X81993000Y-156565000D01*
X81926333Y-156431666D01*
X81926333Y-156098333D01*
X81993000Y-155898333D01*
X83259666Y-155365000D02*
X83326333Y-155165000D01*
X83326333Y-154831666D01*
X83259666Y-154698333D01*
X83193000Y-154631666D01*
X83059666Y-154565000D01*
X82926333Y-154565000D01*
X82793000Y-154631666D01*
X82726333Y-154698333D01*
X82659666Y-154831666D01*
X82593000Y-155098333D01*
X82526333Y-155231666D01*
X82459666Y-155298333D01*
X82326333Y-155365000D01*
X82193000Y-155365000D01*
X82059666Y-155298333D01*
X81993000Y-155231666D01*
X81926333Y-155098333D01*
X81926333Y-154765000D01*
X81993000Y-154565000D01*
X82659666Y-153698333D02*
X83326333Y-153698333D01*
X81926333Y-154165000D02*
X82659666Y-153698333D01*
X81926333Y-153231666D01*
X81926333Y-151431666D02*
X81926333Y-151298333D01*
X81993000Y-151165000D01*
X82059666Y-151098333D01*
X82193000Y-151031666D01*
X82459666Y-150965000D01*
X82793000Y-150965000D01*
X83059666Y-151031666D01*
X83193000Y-151098333D01*
X83259666Y-151165000D01*
X83326333Y-151298333D01*
X83326333Y-151431666D01*
X83259666Y-151565000D01*
X83193000Y-151631666D01*
X83059666Y-151698333D01*
X82793000Y-151765000D01*
X82459666Y-151765000D01*
X82193000Y-151698333D01*
X82059666Y-151631666D01*
X81993000Y-151565000D01*
X81926333Y-151431666D01*
X81926333Y-150098333D02*
X81926333Y-149965000D01*
X81993000Y-149831666D01*
X82059666Y-149765000D01*
X82193000Y-149698333D01*
X82459666Y-149631666D01*
X82793000Y-149631666D01*
X83059666Y-149698333D01*
X83193000Y-149765000D01*
X83259666Y-149831666D01*
X83326333Y-149965000D01*
X83326333Y-150098333D01*
X83259666Y-150231666D01*
X83193000Y-150298333D01*
X83059666Y-150365000D01*
X82793000Y-150431666D01*
X82459666Y-150431666D01*
X82193000Y-150365000D01*
X82059666Y-150298333D01*
X81993000Y-150231666D01*
X81926333Y-150098333D01*
X83326333Y-148298333D02*
X83326333Y-149098333D01*
X83326333Y-148698333D02*
X81926333Y-148698333D01*
X82126333Y-148831666D01*
X82259666Y-148965000D01*
X82326333Y-149098333D01*
X83326333Y-146965000D02*
X83326333Y-147765000D01*
X83326333Y-147365000D02*
X81926333Y-147365000D01*
X82126333Y-147498333D01*
X82259666Y-147631666D01*
X82326333Y-147765000D01*
X81926333Y-146498333D02*
X81926333Y-145631666D01*
X82459666Y-146098333D01*
X82459666Y-145898333D01*
X82526333Y-145765000D01*
X82593000Y-145698333D01*
X82726333Y-145631666D01*
X83059666Y-145631666D01*
X83193000Y-145698333D01*
X83259666Y-145765000D01*
X83326333Y-145898333D01*
X83326333Y-146298333D01*
X83259666Y-146431666D01*
X83193000Y-146498333D01*
X85513666Y-153231666D02*
X85580333Y-153031666D01*
X85580333Y-152698333D01*
X85513666Y-152565000D01*
X85447000Y-152498333D01*
X85313666Y-152431666D01*
X85180333Y-152431666D01*
X85047000Y-152498333D01*
X84980333Y-152565000D01*
X84913666Y-152698333D01*
X84847000Y-152965000D01*
X84780333Y-153098333D01*
X84713666Y-153165000D01*
X84580333Y-153231666D01*
X84447000Y-153231666D01*
X84313666Y-153165000D01*
X84247000Y-153098333D01*
X84180333Y-152965000D01*
X84180333Y-152631666D01*
X84247000Y-152431666D01*
X85580333Y-151831666D02*
X84180333Y-151831666D01*
X84180333Y-150898333D02*
X84180333Y-150631666D01*
X84247000Y-150498333D01*
X84380333Y-150365000D01*
X84647000Y-150298333D01*
X85113666Y-150298333D01*
X85380333Y-150365000D01*
X85513666Y-150498333D01*
X85580333Y-150631666D01*
X85580333Y-150898333D01*
X85513666Y-151031666D01*
X85380333Y-151165000D01*
X85113666Y-151231666D01*
X84647000Y-151231666D01*
X84380333Y-151165000D01*
X84247000Y-151031666D01*
X84180333Y-150898333D01*
D12*
D13*
X151229142Y-87918857D02*
X151300571Y-87704571D01*
X151300571Y-87347428D01*
X151229142Y-87204571D01*
X151157714Y-87133142D01*
X151014857Y-87061714D01*
X150872000Y-87061714D01*
X150729142Y-87133142D01*
X150657714Y-87204571D01*
X150586285Y-87347428D01*
X150514857Y-87633142D01*
X150443428Y-87776000D01*
X150372000Y-87847428D01*
X150229142Y-87918857D01*
X150086285Y-87918857D01*
X149943428Y-87847428D01*
X149872000Y-87776000D01*
X149800571Y-87633142D01*
X149800571Y-87276000D01*
X149872000Y-87061714D01*
X149800571Y-85990285D02*
X150872000Y-85990285D01*
X151086285Y-86061714D01*
X151229142Y-86204571D01*
X151300571Y-86418857D01*
X151300571Y-86561714D01*
X151157714Y-84418857D02*
X151229142Y-84490285D01*
X151300571Y-84704571D01*
X151300571Y-84847428D01*
X151229142Y-85061714D01*
X151086285Y-85204571D01*
X150943428Y-85276000D01*
X150657714Y-85347428D01*
X150443428Y-85347428D01*
X150157714Y-85276000D01*
X150014857Y-85204571D01*
X149872000Y-85061714D01*
X149800571Y-84847428D01*
X149800571Y-84704571D01*
X149872000Y-84490285D01*
X149943428Y-84418857D01*
X150300571Y-83133142D02*
X151300571Y-83133142D01*
X149729142Y-83490285D02*
X150800571Y-83847428D01*
X150800571Y-82918857D01*
X150872000Y-82418857D02*
X150872000Y-81704571D01*
X151300571Y-82561714D02*
X149800571Y-82061714D01*
X151300571Y-81561714D01*
X149800571Y-81204571D02*
X149800571Y-80276000D01*
X150372000Y-80776000D01*
X150372000Y-80561714D01*
X150443428Y-80418857D01*
X150514857Y-80347428D01*
X150657714Y-80276000D01*
X151014857Y-80276000D01*
X151157714Y-80347428D01*
X151229142Y-80418857D01*
X151300571Y-80561714D01*
X151300571Y-80990285D01*
X151229142Y-81133142D01*
X151157714Y-81204571D01*
X150443428Y-79418857D02*
X150372000Y-79561714D01*
X150300571Y-79633142D01*
X150157714Y-79704571D01*
X150086285Y-79704571D01*
X149943428Y-79633142D01*
X149872000Y-79561714D01*
X149800571Y-79418857D01*
X149800571Y-79133142D01*
X149872000Y-78990285D01*
X149943428Y-78918857D01*
X150086285Y-78847428D01*
X150157714Y-78847428D01*
X150300571Y-78918857D01*
X150372000Y-78990285D01*
X150443428Y-79133142D01*
X150443428Y-79418857D01*
X150514857Y-79561714D01*
X150586285Y-79633142D01*
X150729142Y-79704571D01*
X151014857Y-79704571D01*
X151157714Y-79633142D01*
X151229142Y-79561714D01*
X151300571Y-79418857D01*
X151300571Y-79133142D01*
X151229142Y-78990285D01*
X151157714Y-78918857D01*
X151014857Y-78847428D01*
X150729142Y-78847428D01*
X150586285Y-78918857D01*
X150514857Y-78990285D01*
X150443428Y-79133142D01*
X150729142Y-78204571D02*
X150729142Y-77061714D01*
X150443428Y-76133142D02*
X150372000Y-76276000D01*
X150300571Y-76347428D01*
X150157714Y-76418857D01*
X150086285Y-76418857D01*
X149943428Y-76347428D01*
X149872000Y-76276000D01*
X149800571Y-76133142D01*
X149800571Y-75847428D01*
X149872000Y-75704571D01*
X149943428Y-75633142D01*
X150086285Y-75561714D01*
X150157714Y-75561714D01*
X150300571Y-75633142D01*
X150372000Y-75704571D01*
X150443428Y-75847428D01*
X150443428Y-76133142D01*
X150514857Y-76276000D01*
X150586285Y-76347428D01*
X150729142Y-76418857D01*
X151014857Y-76418857D01*
X151157714Y-76347428D01*
X151229142Y-76276000D01*
X151300571Y-76133142D01*
X151300571Y-75847428D01*
X151229142Y-75704571D01*
X151157714Y-75633142D01*
X151014857Y-75561714D01*
X150729142Y-75561714D01*
X150586285Y-75633142D01*
X150514857Y-75704571D01*
X150443428Y-75847428D01*
X151300571Y-74133142D02*
X151300571Y-74990285D01*
X151300571Y-74561714D02*
X149800571Y-74561714D01*
X150014857Y-74704571D01*
X150157714Y-74847428D01*
X150229142Y-74990285D01*
D11*
D10*
X83116666Y-104101666D02*
X83183333Y-103901666D01*
X83183333Y-103568333D01*
X83116666Y-103435000D01*
X83050000Y-103368333D01*
X82916666Y-103301666D01*
X82783333Y-103301666D01*
X82650000Y-103368333D01*
X82583333Y-103435000D01*
X82516666Y-103568333D01*
X82450000Y-103835000D01*
X82383333Y-103968333D01*
X82316666Y-104035000D01*
X82183333Y-104101666D01*
X82050000Y-104101666D01*
X81916666Y-104035000D01*
X81850000Y-103968333D01*
X81783333Y-103835000D01*
X81783333Y-103501666D01*
X81850000Y-103301666D01*
X81716666Y-101701666D02*
X83516666Y-102901666D01*
X83183333Y-101235000D02*
X81783333Y-101235000D01*
X83183333Y-100435000D01*
X81783333Y-100435000D01*
D14*
%TO.P,R1,1*%
%TO.N,+5V*%
X82550000Y-81915000D03*
D15*
%TO.P,R1,2*%
%TO.N,/PUP*%
X82550000Y-66675000D03*
%TD*%
D16*
%TO.P,U2B1,1*%
%TO.N,Net-(U1B1-Pad15)*%
X102870000Y-59055000D03*
D15*
%TO.P,U2B1,2*%
%TO.N,Net-(U1B1-Pad9)*%
X102870000Y-61595000D03*
%TO.P,U2B1,3*%
%TO.N,Net-(U1B1-Pad13)*%
X102870000Y-64135000D03*
%TO.P,U2B1,4*%
%TO.N,Net-(U2B1-Pad4)*%
X102870000Y-66675000D03*
%TO.P,U2B1,5*%
%TO.N,Net-(U2B1-Pad5)*%
X102870000Y-69215000D03*
%TO.P,U2B1,6*%
%TO.N,Net-(U2B1-Pad6)*%
X102870000Y-71755000D03*
%TO.P,U2B1,7,GND*%
%TO.N,GND*%
X102870000Y-74295000D03*
%TO.P,U2B1,8*%
%TO.N,Net-(U1B1-Pad2)*%
X110490000Y-74295000D03*
%TO.P,U2B1,9*%
%TO.N,/IO 8MHz*%
X110490000Y-71755000D03*
%TO.P,U2B1,10*%
%TO.N,Net-(U2B1-Pad10)*%
X110490000Y-69215000D03*
%TO.P,U2B1,11*%
%TO.N,/{slash}BRD*%
X110490000Y-66675000D03*
%TO.P,U2B1,12*%
%TO.N,Net-(U1C1-Pad9)*%
X110490000Y-64135000D03*
%TO.P,U2B1,13*%
%TO.N,Net-(U1C1-Pad15)*%
X110490000Y-61595000D03*
%TO.P,U2B1,14,VCC*%
%TO.N,+5V*%
X110490000Y-59055000D03*
%TD*%
D17*
%TO.P,C16,1*%
%TO.N,+5V*%
X82550000Y-135255000D03*
%TO.P,C16,2*%
%TO.N,GND*%
X82550000Y-140255000D03*
%TD*%
%TO.P,C15,1*%
%TO.N,+5V*%
X125095000Y-80645000D03*
%TO.P,C15,2*%
%TO.N,GND*%
X120095000Y-80645000D03*
%TD*%
%TO.P,C13,1*%
%TO.N,GND*%
X90170000Y-51435000D03*
%TO.P,C13,2*%
%TO.N,/RCB*%
X95170000Y-51435000D03*
%TD*%
D16*
%TO.P,U3D1,1*%
%TO.N,Net-(U3D1-Pad1)*%
X118110000Y-109855000D03*
D15*
%TO.P,U3D1,2*%
%TO.N,/INT 2*%
X118110000Y-112395000D03*
%TO.P,U3D1,3*%
%TO.N,/{slash}IO INT*%
X118110000Y-114935000D03*
%TO.P,U3D1,4*%
%TO.N,Net-(U3D1-Pad4)*%
X118110000Y-117475000D03*
%TO.P,U3D1,5*%
%TO.N,/INT 3*%
X118110000Y-120015000D03*
%TO.P,U3D1,6*%
%TO.N,/{slash}IO INT*%
X118110000Y-122555000D03*
%TO.P,U3D1,7,GND*%
%TO.N,GND*%
X118110000Y-125095000D03*
%TO.P,U3D1,8*%
%TO.N,/{slash}IO INT*%
X125730000Y-125095000D03*
%TO.P,U3D1,9*%
%TO.N,/INT 1*%
X125730000Y-122555000D03*
%TO.P,U3D1,10*%
%TO.N,Net-(U3D1-Pad10)*%
X125730000Y-120015000D03*
%TO.P,U3D1,11*%
%TO.N,/{slash}IO INT*%
X125730000Y-117475000D03*
%TO.P,U3D1,12*%
%TO.N,Net-(U3D1-Pad12)*%
X125730000Y-114935000D03*
%TO.P,U3D1,13*%
%TO.N,/INT 0*%
X125730000Y-112395000D03*
%TO.P,U3D1,14,VCC*%
%TO.N,+5V*%
X125730000Y-109855000D03*
%TD*%
D17*
%TO.P,C11,1*%
%TO.N,GND*%
X90170000Y-46355000D03*
%TO.P,C11,2*%
%TO.N,/RCA*%
X95170000Y-46355000D03*
%TD*%
D16*
%TO.P,U2E1,1,OEa*%
%TO.N,Net-(U2E1-Pad1)*%
X102870000Y-135255000D03*
D15*
%TO.P,U2E1,2*%
%TO.N,/IO5*%
X102870000Y-137795000D03*
%TO.P,U2E1,3,A0*%
%TO.N,/U3*%
X102870000Y-140335000D03*
%TO.P,U2E1,4,A1*%
%TO.N,/U2*%
X102870000Y-142875000D03*
%TO.P,U2E1,5,A2*%
%TO.N,/U1*%
X102870000Y-145415000D03*
%TO.P,U2E1,6,A3*%
%TO.N,/U0*%
X102870000Y-147955000D03*
%TO.P,U2E1,7,GND*%
%TO.N,GND*%
X102870000Y-150495000D03*
%TO.P,U2E1,8,B3*%
%TO.N,/IO0*%
X110490000Y-150495000D03*
%TO.P,U2E1,9,B2*%
%TO.N,/IO1*%
X110490000Y-147955000D03*
%TO.P,U2E1,10,B1*%
%TO.N,/IO2*%
X110490000Y-145415000D03*
%TO.P,U2E1,11,B0*%
%TO.N,/IO3*%
X110490000Y-142875000D03*
%TO.P,U2E1,12*%
%TO.N,/IO4*%
X110490000Y-140335000D03*
%TO.P,U2E1,13*%
%TO.N,Net-(U2E1-Pad13)*%
X110490000Y-137795000D03*
%TO.P,U2E1,14*%
%TO.N,+5V*%
X110490000Y-135255000D03*
%TD*%
D16*
%TO.P,U2A1,1,IN_A*%
%TO.N,Net-(J1A1-Pad7)*%
X102870000Y-33655000D03*
D15*
%TO.P,U2A1,2,RESPONSE_COTROL_A*%
%TO.N,/RCA*%
X102870000Y-36195000D03*
%TO.P,U2A1,3,OUT_A*%
%TO.N,Net-(J1A1-Pad5)*%
X102870000Y-38735000D03*
%TO.P,U2A1,4,IN_B*%
%TO.N,Net-(J3A1-Pad11)*%
X102870000Y-41275000D03*
%TO.P,U2A1,5,RESPONSE_COTROL_B*%
%TO.N,/RCB*%
X102870000Y-43815000D03*
%TO.P,U2A1,6,OUT_B*%
%TO.N,Net-(U2A1-Pad6)*%
X102870000Y-46355000D03*
%TO.P,U2A1,7,GND*%
%TO.N,GND*%
X102870000Y-48895000D03*
%TO.P,U2A1,8,OUT_C*%
%TO.N,Net-(U2A1-Pad8)*%
X110490000Y-48895000D03*
%TO.P,U2A1,9,RESPONSE_COTROL_C*%
%TO.N,/RCC*%
X110490000Y-46355000D03*
%TO.P,U2A1,10,IN_C*%
%TO.N,Net-(J3A1-Pad13)*%
X110490000Y-43815000D03*
%TO.P,U2A1,11,OUT_D*%
%TO.N,Net-(U2A1-Pad11)*%
X110490000Y-41275000D03*
%TO.P,U2A1,12,RESPONSE_COTROL_D*%
%TO.N,/RCD*%
X110490000Y-38735000D03*
%TO.P,U2A1,13,IN_D*%
%TO.N,Net-(J3A1-Pad15)*%
X110490000Y-36195000D03*
%TO.P,U2A1,14,VCC*%
%TO.N,+5V*%
X110490000Y-33655000D03*
%TD*%
D18*
%TO.P,J1,1,1*%
%TO.N,/Protective Gnd*%
X143706000Y-62845000D03*
%TO.P,J1,2,2*%
%TO.N,TxD*%
X143706000Y-65615000D03*
%TO.P,J1,3,3*%
%TO.N,Net-(J1-Pad3)*%
X143706000Y-68385000D03*
%TO.P,J1,4,4*%
%TO.N,Net-(J1-Pad4)*%
X143706000Y-71155000D03*
%TO.P,J1,5,5*%
%TO.N,Net-(J1-Pad5)*%
X143706000Y-73925000D03*
%TO.P,J1,6,6*%
%TO.N,Net-(J1-Pad6)*%
X143706000Y-76695000D03*
%TO.P,J1,7,7*%
%TO.N,GND*%
X143706000Y-79465000D03*
%TO.P,J1,8,8*%
%TO.N,Net-(J1-Pad8)*%
X143706000Y-82235000D03*
%TO.P,J1,9,9*%
%TO.N,Net-(J1-Pad9)*%
X143706000Y-85005000D03*
%TO.P,J1,10,10*%
%TO.N,Net-(J1-Pad10)*%
X143706000Y-87775000D03*
%TO.P,J1,11,11*%
%TO.N,unconnected-(J1-Pad11)*%
X143706000Y-90545000D03*
%TO.P,J1,12,12*%
%TO.N,unconnected-(J1-Pad12)*%
X143706000Y-93315000D03*
%TO.P,J1,13,13*%
%TO.N,unconnected-(J1-Pad13)*%
X143706000Y-96085000D03*
%TO.P,J1,14,P14*%
%TO.N,unconnected-(J1-Pad14)*%
X146246000Y-64230000D03*
%TO.P,J1,15,P15*%
%TO.N,unconnected-(J1-Pad15)*%
X146246000Y-67000000D03*
%TO.P,J1,16,P16*%
%TO.N,unconnected-(J1-Pad16)*%
X146246000Y-69770000D03*
%TO.P,J1,17,P17*%
%TO.N,Net-(J1-Pad17)*%
X146246000Y-72540000D03*
%TO.P,J1,18,P18*%
%TO.N,unconnected-(J1-Pad18)*%
X146246000Y-75310000D03*
%TO.P,J1,19,P19*%
%TO.N,/C*%
X146246000Y-78080000D03*
%TO.P,J1,20,P20*%
%TO.N,Net-(J3A1-Pad4)*%
X146246000Y-80850000D03*
%TO.P,J1,21,P21*%
%TO.N,unconnected-(J1-Pad21)*%
X146246000Y-83620000D03*
%TO.P,J1,22,P22*%
%TO.N,unconnected-(J1-Pad22)*%
X146246000Y-86390000D03*
%TO.P,J1,23,P23*%
%TO.N,unconnected-(J1-Pad23)*%
X146246000Y-89160000D03*
%TO.P,J1,24,P24*%
%TO.N,Net-(J1-Pad24)*%
X146246000Y-91930000D03*
%TO.P,J1,25,P25*%
%TO.N,unconnected-(J1-Pad25)*%
X146246000Y-94700000D03*
D19*
%TO.P,J1,MH1*%
%TO.N,N/C*%
X144976000Y-55945000D03*
%TO.P,J1,MH2*%
X144976000Y-102985000D03*
%TD*%
D16*
%TO.P,U4A1,1,VCC-*%
%TO.N,-12V*%
X133350000Y-33655000D03*
D15*
%TO.P,U4A1,2,1A*%
%TO.N,Net-(J1A1-Pad3)*%
X133350000Y-36195000D03*
%TO.P,U4A1,3,1Y*%
%TO.N,Net-(J1A1-Pad1)*%
X133350000Y-38735000D03*
%TO.P,U4A1,4,2A*%
%TO.N,Net-(R5-Pad1)*%
X133350000Y-41275000D03*
%TO.P,U4A1,5,2B*%
%TO.N,Net-(R5-Pad2)*%
X133350000Y-43815000D03*
%TO.P,U4A1,6,2Y*%
%TO.N,Net-(C4-Pad1)*%
X133350000Y-46355000D03*
%TO.P,U4A1,7,GND*%
%TO.N,GND*%
X133350000Y-48895000D03*
%TO.P,U4A1,8,3Y*%
%TO.N,Net-(C5-Pad1)*%
X140970000Y-48895000D03*
%TO.P,U4A1,9,3A*%
%TO.N,Net-(U4A1-Pad10)*%
X140970000Y-46355000D03*
%TO.P,U4A1,10,3B*%
X140970000Y-43815000D03*
%TO.P,U4A1,11,4Y*%
%TO.N,Net-(C6-Pad1)*%
X140970000Y-41275000D03*
%TO.P,U4A1,12,4A*%
%TO.N,+5V*%
X140970000Y-38735000D03*
%TO.P,U4A1,13,4B*%
%TO.N,Net-(U4A1-Pad13)*%
X140970000Y-36195000D03*
%TO.P,U4A1,14,VCC_+*%
%TO.N,+12V*%
X140970000Y-33655000D03*
%TD*%
D17*
%TO.P,C8,1*%
%TO.N,+5V*%
X129540000Y-127635000D03*
%TO.P,C8,2*%
%TO.N,GND*%
X129540000Y-132635000D03*
%TD*%
%TO.P,C7,1*%
%TO.N,-12V*%
X149225000Y-36195000D03*
%TO.P,C7,2*%
%TO.N,GND*%
X149225000Y-31195000D03*
%TD*%
%TO.P,C10,1*%
%TO.N,+5V*%
X125650000Y-106045000D03*
%TO.P,C10,2*%
%TO.N,GND*%
X120650000Y-106045000D03*
%TD*%
D16*
%TO.P,C3,1*%
%TO.N,+5V*%
X92710000Y-163195000D03*
D14*
%TO.P,C3,2*%
%TO.N,GND*%
X90210000Y-163195000D03*
%TD*%
D17*
%TO.P,C19,1*%
%TO.N,+5V*%
X82550000Y-59055000D03*
%TO.P,C19,2*%
%TO.N,GND*%
X82550000Y-64055000D03*
%TD*%
D16*
%TO.P,U2D1,1,~{Mr}*%
%TO.N,/{slash}BIO RES*%
X102870000Y-109855000D03*
D15*
%TO.P,U2D1,2,Q0*%
%TO.N,/INT 2*%
X102870000Y-112395000D03*
%TO.P,U2D1,3,~{Q0}*%
%TO.N,unconnected-(U2D1-Pad3)*%
X102870000Y-114935000D03*
%TO.P,U2D1,4,D0*%
%TO.N,/IO2*%
X102870000Y-117475000D03*
%TO.P,U2D1,5,D1*%
%TO.N,/IO3*%
X102870000Y-120015000D03*
%TO.P,U2D1,6,~{Q1}*%
%TO.N,unconnected-(U2D1-Pad6)*%
X102870000Y-122555000D03*
%TO.P,U2D1,7,Q1*%
%TO.N,/INT 3*%
X102870000Y-125095000D03*
%TO.P,U2D1,8,GND*%
%TO.N,GND*%
X102870000Y-127635000D03*
%TO.P,U2D1,9,Cp*%
%TO.N,Net-(U2D1-Pad9)*%
X110490000Y-127635000D03*
%TO.P,U2D1,10,Q2*%
%TO.N,/INT 1*%
X110490000Y-125095000D03*
%TO.P,U2D1,11,~{Q2}*%
%TO.N,unconnected-(U2D1-Pad11)*%
X110490000Y-122555000D03*
%TO.P,U2D1,12,D2*%
%TO.N,/IO1*%
X110490000Y-120015000D03*
%TO.P,U2D1,13,D3*%
%TO.N,/IO0*%
X110490000Y-117475000D03*
%TO.P,U2D1,14,~{Q3}*%
%TO.N,unconnected-(U2D1-Pad14)*%
X110490000Y-114935000D03*
%TO.P,U2D1,15,Q3*%
%TO.N,/INT 0*%
X110490000Y-112395000D03*
%TO.P,U2D1,16,VCC*%
%TO.N,+5V*%
X110490000Y-109855000D03*
%TD*%
D17*
%TO.P,C5,1*%
%TO.N,Net-(C5-Pad1)*%
X143510000Y-43815000D03*
%TO.P,C5,2*%
%TO.N,GND*%
X143510000Y-48815000D03*
%TD*%
%TO.P,C6,1*%
%TO.N,Net-(C6-Pad1)*%
X146050000Y-43815000D03*
%TO.P,C6,2*%
%TO.N,GND*%
X146050000Y-48815000D03*
%TD*%
D20*
%TO.P,REF\u002A\u002A,1*%
%TO.N,+5V*%
X85090000Y-53975000D03*
%TD*%
D16*
%TO.P,C1,1*%
%TO.N,GND*%
X138430000Y-163195000D03*
D14*
%TO.P,C1,2*%
%TO.N,-12V*%
X135930000Y-163195000D03*
%TD*%
D17*
%TO.P,C4,1*%
%TO.N,Net-(C4-Pad1)*%
X148590000Y-43815000D03*
%TO.P,C4,2*%
%TO.N,GND*%
X148590000Y-48815000D03*
%TD*%
%TO.P,C20,1*%
%TO.N,+12V*%
X146050000Y-36195000D03*
%TO.P,C20,2*%
%TO.N,GND*%
X146050000Y-31195000D03*
%TD*%
D20*
%TO.P,REF\u002A\u002A,1*%
%TO.N,+5V*%
X85090000Y-48895000D03*
%TD*%
D14*
%TO.P,R3,1*%
%TO.N,-12V*%
X148590000Y-113665000D03*
D15*
%TO.P,R3,2*%
%TO.N,Net-(J1-Pad10)*%
X138430000Y-113665000D03*
%TD*%
D14*
%TO.P,R4,1*%
%TO.N,+12V*%
X148590000Y-111125000D03*
D15*
%TO.P,R4,2*%
%TO.N,/C*%
X138430000Y-111125000D03*
%TD*%
D16*
%TO.P,U1E1,1,~{Mr}*%
%TO.N,/{slash}BIO RES*%
X87630000Y-135255000D03*
D15*
%TO.P,U1E1,2,Q0*%
%TO.N,Net-(U1D1-Pad6)*%
X87630000Y-137795000D03*
%TO.P,U1E1,3,D0*%
%TO.N,/IO3*%
X87630000Y-140335000D03*
%TO.P,U1E1,4,D1*%
%TO.N,/IO2*%
X87630000Y-142875000D03*
%TO.P,U1E1,5,Q1*%
%TO.N,Net-(U1D1-Pad5)*%
X87630000Y-145415000D03*
%TO.P,U1E1,6,D2*%
%TO.N,/IO1*%
X87630000Y-147955000D03*
%TO.P,U1E1,7,Q2*%
%TO.N,Net-(U1D1-Pad4)*%
X87630000Y-150495000D03*
%TO.P,U1E1,8,GND*%
%TO.N,GND*%
X87630000Y-153035000D03*
%TO.P,U1E1,9,Cp*%
%TO.N,Net-(U1E1-Pad9)*%
X95250000Y-153035000D03*
%TO.P,U1E1,10,Q3*%
%TO.N,Net-(U1D1-Pad3)*%
X95250000Y-150495000D03*
%TO.P,U1E1,11,D3*%
%TO.N,/IO0*%
X95250000Y-147955000D03*
%TO.P,U1E1,12,Q4*%
%TO.N,Net-(U1C1-Pad4)*%
X95250000Y-145415000D03*
%TO.P,U1E1,13,D4*%
%TO.N,/IO5*%
X95250000Y-142875000D03*
%TO.P,U1E1,14,D5*%
%TO.N,/IO4*%
X95250000Y-140335000D03*
%TO.P,U1E1,15,Q5*%
%TO.N,Net-(U1C1-Pad3)*%
X95250000Y-137795000D03*
%TO.P,U1E1,16,VCC*%
%TO.N,+5V*%
X95250000Y-135255000D03*
%TD*%
D21*
%TO.P,J2,2,Pin_2*%
%TO.N,unconnected-(J2-Pad2)*%
X133964400Y-171135000D03*
%TO.P,J2,4,Pin_4*%
%TO.N,unconnected-(J2-Pad4)*%
X130795600Y-171135000D03*
%TO.P,J2,6,Pin_6*%
%TO.N,unconnected-(J2-Pad6)*%
X127626700Y-171135000D03*
%TO.P,J2,8,Pin_8*%
%TO.N,unconnected-(J2-Pad8)*%
X124457800Y-171135000D03*
%TO.P,J2,10,Pin_10*%
%TO.N,/IO A3*%
X121288900Y-171135000D03*
%TO.P,J2,12,Pin_12*%
%TO.N,unconnected-(J2-Pad12)*%
X118120000Y-171135000D03*
%TO.P,J2,14,Pin_14*%
%TO.N,/IO A0*%
X114951100Y-171135000D03*
%TO.P,J2,16,Pin_16*%
%TO.N,/{slash}BWR*%
X111782200Y-171135000D03*
%TO.P,J2,18,Pin_18*%
%TO.N,/{slash}BIO RES*%
X108613300Y-171135000D03*
%TO.P,J2,20,Pin_20*%
%TO.N,/IO4*%
X105444400Y-171135000D03*
%TO.P,J2,22,Pin_22*%
%TO.N,/IO5*%
X102275600Y-171135000D03*
%TO.P,J2,24,Pin_24*%
%TO.N,/IO1*%
X99106700Y-171135000D03*
%TO.P,J2,26,Pin_26*%
%TO.N,-12V*%
X95937780Y-171135000D03*
%TO.P,J2,28,Pin_28*%
%TO.N,/IO7*%
X92768890Y-171135000D03*
%TO.P,J2,30,Pin_30*%
%TO.N,GND*%
X89600000Y-171135000D03*
%TD*%
D16*
%TO.P,U3C1,1,A0*%
%TO.N,/IO A1*%
X118110000Y-84455000D03*
D15*
%TO.P,U3C1,2,A1*%
%TO.N,/IO A2*%
X118110000Y-86995000D03*
%TO.P,U3C1,3,A2*%
%TO.N,/IO A3*%
X118110000Y-89535000D03*
%TO.P,U3C1,4,E1*%
%TO.N,GND*%
X118110000Y-92075000D03*
%TO.P,U3C1,5,E2*%
%TO.N,/{slash}SELECT*%
X118110000Y-94615000D03*
%TO.P,U3C1,6,E3*%
%TO.N,Net-(U3B1-Pad6)*%
X118110000Y-97155000D03*
%TO.P,U3C1,7,O7*%
%TO.N,unconnected-(U3C1-Pad7)*%
X118110000Y-99695000D03*
%TO.P,U3C1,8,GND*%
%TO.N,GND*%
X118110000Y-102235000D03*
%TO.P,U3C1,9,O6*%
%TO.N,unconnected-(U3C1-Pad9)*%
X125730000Y-102235000D03*
%TO.P,U3C1,10,O5*%
%TO.N,Net-(U2D1-Pad9)*%
X125730000Y-99695000D03*
%TO.P,U3C1,11,O4*%
%TO.N,Net-(U1E1-Pad9)*%
X125730000Y-97155000D03*
%TO.P,U3C1,12,O3*%
%TO.N,unconnected-(U3C1-Pad12)*%
X125730000Y-94615000D03*
%TO.P,U3C1,13,O2*%
%TO.N,unconnected-(U3C1-Pad13)*%
X125730000Y-92075000D03*
%TO.P,U3C1,14,O1*%
%TO.N,unconnected-(U3C1-Pad14)*%
X125730000Y-89535000D03*
%TO.P,U3C1,15,O0*%
%TO.N,Net-(U2B1-Pad5)*%
X125730000Y-86995000D03*
%TO.P,U3C1,16,VCC*%
%TO.N,+5V*%
X125730000Y-84455000D03*
%TD*%
D22*
%TO.P,P.GND,1*%
%TO.N,/Protective Gnd*%
X148590000Y-118745000D03*
%TD*%
D17*
%TO.P,C9,1*%
%TO.N,+5V*%
X125690000Y-131445000D03*
%TO.P,C9,2*%
%TO.N,GND*%
X120690000Y-131445000D03*
%TD*%
D20*
%TO.P,REF\u002A\u002A,1*%
%TO.N,+5V*%
X85090000Y-51435000D03*
%TD*%
D17*
%TO.P,C14,1*%
%TO.N,GND*%
X90170000Y-53975000D03*
%TO.P,C14,2*%
%TO.N,/RCC*%
X95170000Y-53975000D03*
%TD*%
D20*
%TO.P,REF\u002A\u002A,1*%
%TO.N,+5V*%
X85090000Y-46355000D03*
%TD*%
D14*
%TO.P,R5,1*%
%TO.N,Net-(R5-Pad1)*%
X130810000Y-33655000D03*
D15*
%TO.P,R5,2*%
%TO.N,Net-(R5-Pad2)*%
X130810000Y-48895000D03*
%TD*%
D14*
%TO.P,R2,1*%
%TO.N,+12V*%
X148590000Y-116205000D03*
D15*
%TO.P,R2,2*%
%TO.N,Net-(J1-Pad9)*%
X138430000Y-116205000D03*
%TD*%
D22*
%TO.P,W1,1,Pin_1*%
%TO.N,Net-(J3A1-Pad4)*%
X148590000Y-51435000D03*
D23*
%TO.P,W1,2,Pin_2*%
X146050000Y-51435000D03*
%TO.P,W1,3,Pin_3*%
%TO.N,/C*%
X143510000Y-51435000D03*
%TD*%
D16*
%TO.P,C2,1*%
%TO.N,+12V*%
X146050000Y-163195000D03*
D14*
%TO.P,C2,2*%
%TO.N,GND*%
X143550000Y-163195000D03*
%TD*%
D16*
%TO.P,U4E1,1,D2*%
%TO.N,/U2*%
X133350000Y-122555000D03*
D15*
%TO.P,U4E1,2,D3*%
%TO.N,/U3*%
X133350000Y-125095000D03*
%TO.P,U4E1,3,RXD*%
%TO.N,Net-(U2A1-Pad6)*%
X133350000Y-127635000D03*
%TO.P,U4E1,4,GND*%
%TO.N,GND*%
X133350000Y-130175000D03*
%TO.P,U4E1,5,D4*%
%TO.N,/U4*%
X133350000Y-132715000D03*
%TO.P,U4E1,6,D5*%
%TO.N,/U5*%
X133350000Y-135255000D03*
%TO.P,U4E1,7,D6*%
%TO.N,/U6*%
X133350000Y-137795000D03*
%TO.P,U4E1,8,D7*%
%TO.N,/U7*%
X133350000Y-140335000D03*
%TO.P,U4E1,9,~{TXC}*%
%TO.N,Net-(J1A1-Pad6)*%
X133350000Y-142875000D03*
%TO.P,U4E1,10,~{WR}*%
%TO.N,/{slash}BWR*%
X133350000Y-145415000D03*
%TO.P,U4E1,11,~{CS}*%
%TO.N,Net-(U2B1-Pad5)*%
X133350000Y-147955000D03*
%TO.P,U4E1,12,C/~{D}*%
%TO.N,/IO A0*%
X133350000Y-150495000D03*
%TO.P,U4E1,13,~{RD}*%
%TO.N,Net-(U2E1-Pad1)*%
X133350000Y-153035000D03*
%TO.P,U4E1,14,RXRDY*%
%TO.N,Net-(U3D1-Pad1)*%
X133350000Y-155575000D03*
%TO.P,U4E1,15,TXRDY*%
%TO.N,Net-(U3D1-Pad10)*%
X148590000Y-155575000D03*
%TO.P,U4E1,16,SYNDET*%
%TO.N,Net-(U3D1-Pad4)*%
X148590000Y-153035000D03*
%TO.P,U4E1,17,~{CTS}*%
%TO.N,Net-(U2A1-Pad8)*%
X148590000Y-150495000D03*
%TO.P,U4E1,18,TXE*%
%TO.N,Net-(U3D1-Pad12)*%
X148590000Y-147955000D03*
%TO.P,U4E1,19,TXD*%
%TO.N,Net-(R5-Pad1)*%
X148590000Y-145415000D03*
%TO.P,U4E1,20,CLK*%
%TO.N,Net-(U2B1-Pad4)*%
X148590000Y-142875000D03*
%TO.P,U4E1,21,RESET*%
%TO.N,Net-(U3B1-Pad11)*%
X148590000Y-140335000D03*
%TO.P,U4E1,22,~{DSR}*%
%TO.N,Net-(U2A1-Pad11)*%
X148590000Y-137795000D03*
%TO.P,U4E1,23,~{RTS}*%
%TO.N,Net-(U4A1-Pad13)*%
X148590000Y-135255000D03*
%TO.P,U4E1,24,~{DTR}*%
%TO.N,Net-(U4A1-Pad10)*%
X148590000Y-132715000D03*
%TO.P,U4E1,25,~{RXC}*%
%TO.N,RxClock*%
X148590000Y-130175000D03*
%TO.P,U4E1,26,VCC*%
%TO.N,+5V*%
X148590000Y-127635000D03*
%TO.P,U4E1,27,D0*%
%TO.N,/U0*%
X148590000Y-125095000D03*
%TO.P,U4E1,28,D1*%
%TO.N,/U1*%
X148590000Y-122555000D03*
%TD*%
D16*
%TO.P,U1C1,1,~{MR}*%
%TO.N,/PUP*%
X87630000Y-84455000D03*
D15*
%TO.P,U1C1,2,CP*%
%TO.N,/615KHz*%
X87630000Y-86995000D03*
%TO.P,U1C1,3,D0*%
%TO.N,Net-(U1C1-Pad3)*%
X87630000Y-89535000D03*
%TO.P,U1C1,4,D1*%
%TO.N,Net-(U1C1-Pad4)*%
X87630000Y-92075000D03*
%TO.P,U1C1,5,D2*%
%TO.N,Net-(U1C1-Pad5)*%
X87630000Y-94615000D03*
%TO.P,U1C1,6,D3*%
%TO.N,/PUP*%
X87630000Y-97155000D03*
%TO.P,U1C1,7,CEP*%
%TO.N,Net-(U1C1-Pad10)*%
X87630000Y-99695000D03*
%TO.P,U1C1,8,GND*%
%TO.N,GND*%
X87630000Y-102235000D03*
%TO.P,U1C1,9,~{PE}*%
%TO.N,Net-(U1C1-Pad9)*%
X95250000Y-102235000D03*
%TO.P,U1C1,10,CET*%
%TO.N,Net-(U1C1-Pad10)*%
X95250000Y-99695000D03*
%TO.P,U1C1,11,Q3*%
%TO.N,unconnected-(U1C1-Pad11)*%
X95250000Y-97155000D03*
%TO.P,U1C1,12,Q2*%
%TO.N,unconnected-(U1C1-Pad12)*%
X95250000Y-94615000D03*
%TO.P,U1C1,13,Q1*%
%TO.N,unconnected-(U1C1-Pad13)*%
X95250000Y-92075000D03*
%TO.P,U1C1,14,Q0*%
%TO.N,unconnected-(U1C1-Pad14)*%
X95250000Y-89535000D03*
%TO.P,U1C1,15,TC*%
%TO.N,Net-(U1C1-Pad15)*%
X95250000Y-86995000D03*
%TO.P,U1C1,16,VCC*%
%TO.N,+5V*%
X95250000Y-84455000D03*
%TD*%
D17*
%TO.P,C18,1*%
%TO.N,+5V*%
X82550000Y-84455000D03*
%TO.P,C18,2*%
%TO.N,GND*%
X82550000Y-89455000D03*
%TD*%
%TO.P,C17,1*%
%TO.N,+5V*%
X82550000Y-109855000D03*
%TO.P,C17,2*%
%TO.N,GND*%
X82550000Y-114855000D03*
%TD*%
D16*
%TO.P,U3E1,1,OEa*%
%TO.N,Net-(U2E1-Pad1)*%
X118110000Y-135255000D03*
D15*
%TO.P,U3E1,2*%
%TO.N,N/C*%
X118110000Y-137795000D03*
%TO.P,U3E1,3,A0*%
%TO.N,/U4*%
X118110000Y-140335000D03*
%TO.P,U3E1,4,A1*%
%TO.N,/U5*%
X118110000Y-142875000D03*
%TO.P,U3E1,5,A2*%
%TO.N,/U6*%
X118110000Y-145415000D03*
%TO.P,U3E1,6,A3*%
%TO.N,/U7*%
X118110000Y-147955000D03*
%TO.P,U3E1,7,GND*%
%TO.N,GND*%
X118110000Y-150495000D03*
%TO.P,U3E1,8,B3*%
%TO.N,/IO7*%
X125730000Y-150495000D03*
%TO.P,U3E1,9,B2*%
%TO.N,/IO6*%
X125730000Y-147955000D03*
%TO.P,U3E1,10,B1*%
%TO.N,/IO5*%
X125730000Y-145415000D03*
%TO.P,U3E1,11,B0*%
%TO.N,/IO4*%
X125730000Y-142875000D03*
%TO.P,U3E1,12*%
%TO.N,/IO5*%
X125730000Y-140335000D03*
%TO.P,U3E1,13*%
%TO.N,Net-(U2E1-Pad13)*%
X125730000Y-137795000D03*
%TO.P,U3E1,14*%
%TO.N,+5V*%
X125730000Y-135255000D03*
%TD*%
D22*
%TO.P,GND,1*%
%TO.N,GND*%
X149860000Y-160020000D03*
%TD*%
D16*
%TO.P,U3B1,1*%
%TO.N,/PUP*%
X118110000Y-59055000D03*
D15*
%TO.P,U3B1,2*%
%TO.N,/{slash}BWR*%
X118110000Y-61595000D03*
%TO.P,U3B1,3*%
%TO.N,Net-(U2E1-Pad13)*%
X118110000Y-64135000D03*
%TO.P,U3B1,4*%
%TO.N,/{slash}BWR*%
X118110000Y-66675000D03*
%TO.P,U3B1,5*%
%TO.N,/IO A3*%
X118110000Y-69215000D03*
%TO.P,U3B1,6*%
%TO.N,Net-(U3B1-Pad6)*%
X118110000Y-71755000D03*
%TO.P,U3B1,7,GND*%
%TO.N,GND*%
X118110000Y-74295000D03*
%TO.P,U3B1,8*%
%TO.N,Net-(U2E1-Pad1)*%
X125730000Y-74295000D03*
%TO.P,U3B1,9*%
%TO.N,Net-(U2B1-Pad6)*%
X125730000Y-71755000D03*
%TO.P,U3B1,10*%
%TO.N,Net-(U2B1-Pad10)*%
X125730000Y-69215000D03*
%TO.P,U3B1,11*%
%TO.N,Net-(U3B1-Pad11)*%
X125730000Y-66675000D03*
%TO.P,U3B1,12*%
%TO.N,/{slash}BIO RES*%
X125730000Y-64135000D03*
%TO.P,U3B1,13*%
%TO.N,/PUP*%
X125730000Y-61595000D03*
%TO.P,U3B1,14,VCC*%
%TO.N,+5V*%
X125730000Y-59055000D03*
%TD*%
D16*
%TO.P,J1A1,1,Pin_1*%
%TO.N,Net-(J1A1-Pad1)*%
X87630000Y-33655000D03*
D15*
%TO.P,J1A1,2,Pin_2*%
%TO.N,Net-(J1-Pad24)*%
X87630000Y-36195000D03*
%TO.P,J1A1,3,Pin_3*%
%TO.N,Net-(J1A1-Pad3)*%
X87630000Y-38735000D03*
%TO.P,J1A1,4,Pin_4*%
%TO.N,RxClock*%
X87630000Y-41275000D03*
%TO.P,J1A1,5,Pin_5*%
%TO.N,Net-(J1A1-Pad5)*%
X95250000Y-41275000D03*
%TO.P,J1A1,6,Pin_6*%
%TO.N,Net-(J1A1-Pad6)*%
X95250000Y-38735000D03*
%TO.P,J1A1,7,Pin_7*%
%TO.N,Net-(J1A1-Pad7)*%
X95250000Y-36195000D03*
%TO.P,J1A1,8,Pin_8*%
%TO.N,Net-(J1-Pad17)*%
X95250000Y-33655000D03*
%TD*%
D16*
%TO.P,J3A1,1,Pin_1*%
%TO.N,Net-(C6-Pad1)*%
X118110000Y-33655000D03*
D15*
%TO.P,J3A1,2,Pin_2*%
%TO.N,Net-(J1-Pad4)*%
X118110000Y-36195000D03*
%TO.P,J3A1,3,Pin_3*%
%TO.N,Net-(C5-Pad1)*%
X118110000Y-38735000D03*
%TO.P,J3A1,4,Pin_4*%
%TO.N,Net-(J3A1-Pad4)*%
X118110000Y-41275000D03*
%TO.P,J3A1,5,Pin_5*%
%TO.N,Net-(C4-Pad1)*%
X118110000Y-43815000D03*
%TO.P,J3A1,6,Pin_6*%
%TO.N,TxD*%
X118110000Y-46355000D03*
%TO.P,J3A1,7,Pin_7*%
%TO.N,Net-(J1-Pad2)*%
X118110000Y-48895000D03*
%TO.P,J3A1,8,Pin_8*%
%TO.N,RxClock*%
X118110000Y-51435000D03*
%TO.P,J3A1,9,Pin_9*%
%TO.N,Net-(J1A1-Pad6)*%
X125730000Y-51435000D03*
%TO.P,J3A1,10,Pin_10*%
%TO.N,Net-(J1-Pad8)*%
X125730000Y-48895000D03*
%TO.P,J3A1,11,Pin_11*%
%TO.N,Net-(J3A1-Pad11)*%
X125730000Y-46355000D03*
%TO.P,J3A1,12,Pin_12*%
%TO.N,Net-(J1-Pad3)*%
X125730000Y-43815000D03*
%TO.P,J3A1,13,Pin_13*%
%TO.N,Net-(J3A1-Pad13)*%
X125730000Y-41275000D03*
%TO.P,J3A1,14,Pin_14*%
%TO.N,Net-(J1-Pad5)*%
X125730000Y-38735000D03*
%TO.P,J3A1,15,Pin_15*%
%TO.N,Net-(J3A1-Pad15)*%
X125730000Y-36195000D03*
%TO.P,J3A1,16,Pin_16*%
%TO.N,Net-(J1-Pad6)*%
X125730000Y-33655000D03*
%TD*%
D14*
%TO.P,R6,1*%
%TO.N,+12V*%
X115570000Y-31115000D03*
D15*
%TO.P,R6,2*%
%TO.N,Net-(J1-Pad2)*%
X115570000Y-46355000D03*
%TD*%
D17*
%TO.P,C12,1*%
%TO.N,GND*%
X90170000Y-48895000D03*
%TO.P,C12,2*%
%TO.N,/RCD*%
X95170000Y-48895000D03*
%TD*%
D16*
%TO.P,U2C1,1,~{R}*%
%TO.N,/{slash}BIO RES*%
X102870000Y-84455000D03*
D15*
%TO.P,U2C1,2,J*%
%TO.N,/IO6*%
X102870000Y-86995000D03*
%TO.P,U2C1,3,~{K}*%
X102870000Y-89535000D03*
%TO.P,U2C1,4,C*%
%TO.N,Net-(U1E1-Pad9)*%
X102870000Y-92075000D03*
%TO.P,U2C1,5,~{S}*%
%TO.N,/PUP*%
X102870000Y-94615000D03*
%TO.P,U2C1,6,Q*%
%TO.N,Net-(U1C1-Pad5)*%
X102870000Y-97155000D03*
%TO.P,U2C1,7,~{Q}*%
%TO.N,unconnected-(U2C1-Pad7)*%
X102870000Y-99695000D03*
%TO.P,U2C1,8,GND*%
%TO.N,GND*%
X102870000Y-102235000D03*
%TO.P,U2C1,9,~{Q}*%
%TO.N,unconnected-(U2C1-Pad9)*%
X110490000Y-102235000D03*
%TO.P,U2C1,10,Q*%
%TO.N,Net-(J1A1-Pad6)*%
X110490000Y-99695000D03*
%TO.P,U2C1,11,~{S}*%
%TO.N,/PUP*%
X110490000Y-97155000D03*
%TO.P,U2C1,12,C*%
%TO.N,/615KHz*%
X110490000Y-94615000D03*
%TO.P,U2C1,13,~{K}*%
%TO.N,Net-(U1C1-Pad9)*%
X110490000Y-92075000D03*
%TO.P,U2C1,14,J*%
%TO.N,Net-(U1C1-Pad15)*%
X110490000Y-89535000D03*
%TO.P,U2C1,15,~{R}*%
%TO.N,/PUP*%
X110490000Y-86995000D03*
%TO.P,U2C1,16,VCC*%
%TO.N,+5V*%
X110490000Y-84455000D03*
%TD*%
D16*
%TO.P,U1B1,1,~{MR}*%
%TO.N,/PUP*%
X87630000Y-59055000D03*
D15*
%TO.P,U1B1,2,CP*%
%TO.N,Net-(U1B1-Pad2)*%
X87630000Y-61595000D03*
%TO.P,U1B1,3,D0*%
%TO.N,/PUP*%
X87630000Y-64135000D03*
%TO.P,U1B1,4,D1*%
X87630000Y-66675000D03*
%TO.P,U1B1,5,D2*%
%TO.N,GND*%
X87630000Y-69215000D03*
%TO.P,U1B1,6,D3*%
X87630000Y-71755000D03*
%TO.P,U1B1,7,CEP*%
%TO.N,/PUP*%
X87630000Y-74295000D03*
%TO.P,U1B1,8,GND*%
%TO.N,GND*%
X87630000Y-76835000D03*
%TO.P,U1B1,9,~{PE}*%
%TO.N,Net-(U1B1-Pad9)*%
X95250000Y-76835000D03*
%TO.P,U1B1,10,CET*%
%TO.N,/PUP*%
X95250000Y-74295000D03*
%TO.P,U1B1,11,Q3*%
%TO.N,/615KHz*%
X95250000Y-71755000D03*
%TO.P,U1B1,12,Q2*%
%TO.N,unconnected-(U1B1-Pad12)*%
X95250000Y-69215000D03*
%TO.P,U1B1,13,Q1*%
%TO.N,Net-(U1B1-Pad13)*%
X95250000Y-66675000D03*
%TO.P,U1B1,14,Q0*%
%TO.N,unconnected-(U1B1-Pad14)*%
X95250000Y-64135000D03*
%TO.P,U1B1,15,TC*%
%TO.N,Net-(U1B1-Pad15)*%
X95250000Y-61595000D03*
%TO.P,U1B1,16,VCC*%
%TO.N,+5V*%
X95250000Y-59055000D03*
%TD*%
D16*
%TO.P,U1D1,1,~{MR}*%
%TO.N,/PUP*%
X87630000Y-109855000D03*
D15*
%TO.P,U1D1,2,CP*%
%TO.N,/615KHz*%
X87630000Y-112395000D03*
%TO.P,U1D1,3,D0*%
%TO.N,Net-(U1D1-Pad3)*%
X87630000Y-114935000D03*
%TO.P,U1D1,4,D1*%
%TO.N,Net-(U1D1-Pad4)*%
X87630000Y-117475000D03*
%TO.P,U1D1,5,D2*%
%TO.N,Net-(U1D1-Pad5)*%
X87630000Y-120015000D03*
%TO.P,U1D1,6,D3*%
%TO.N,Net-(U1D1-Pad6)*%
X87630000Y-122555000D03*
%TO.P,U1D1,7,CEP*%
%TO.N,/PUP*%
X87630000Y-125095000D03*
%TO.P,U1D1,8,GND*%
%TO.N,GND*%
X87630000Y-127635000D03*
%TO.P,U1D1,9,~{PE}*%
%TO.N,Net-(U1C1-Pad9)*%
X95250000Y-127635000D03*
%TO.P,U1D1,10,CET*%
%TO.N,/PUP*%
X95250000Y-125095000D03*
%TO.P,U1D1,11,Q3*%
%TO.N,unconnected-(U1D1-Pad11)*%
X95250000Y-122555000D03*
%TO.P,U1D1,12,Q2*%
%TO.N,unconnected-(U1D1-Pad12)*%
X95250000Y-120015000D03*
%TO.P,U1D1,13,Q1*%
%TO.N,unconnected-(U1D1-Pad13)*%
X95250000Y-117475000D03*
%TO.P,U1D1,14,Q0*%
%TO.N,unconnected-(U1D1-Pad14)*%
X95250000Y-114935000D03*
%TO.P,U1D1,15,TC*%
%TO.N,Net-(U1C1-Pad10)*%
X95250000Y-112395000D03*
%TO.P,U1D1,16,VCC*%
%TO.N,+5V*%
X95250000Y-109855000D03*
%TD*%
D24*
%TO.N,Net-(J1-Pad3)*%
X128905000Y-61595000D03*
%TO.N,Net-(J1-Pad4)*%
X121920000Y-76835000D03*
%TO.N,Net-(J1-Pad5)*%
X125730000Y-77470000D03*
%TO.N,Net-(J1-Pad6)*%
X123190000Y-80010000D03*
%TO.N,GND*%
X140335000Y-159385000D03*
X121920000Y-86995000D03*
X127000000Y-155575000D03*
X118110000Y-155575000D03*
%TO.N,Net-(J1-Pad8)*%
X129540000Y-57785000D03*
X137795000Y-58420000D03*
%TO.N,Net-(J1-Pad17)*%
X139700000Y-59944000D03*
X108585000Y-55880000D03*
%TO.N,Net-(J1-Pad24)*%
X135890000Y-54610000D03*
X141986000Y-54610000D03*
%TO.N,Net-(J1A1-Pad6)*%
X106680000Y-51435000D03*
X128759511Y-101110489D03*
X105410000Y-37465000D03*
%TO.N,Net-(J1A1-Pad3)*%
X108585000Y-35560000D03*
%TO.N,/IO3*%
X132080000Y-163830000D03*
X109855000Y-165100000D03*
%TO.N,/{slash}IO INT*%
X133350000Y-118110000D03*
%TO.N,/IO A3*%
X121920000Y-165100000D03*
%TO.N,/IO A0*%
X115570000Y-165100000D03*
X113665000Y-156845000D03*
X130810000Y-157480000D03*
%TO.N,/{slash}BWR*%
X123825000Y-165735000D03*
%TO.N,/{slash}BIO RES*%
X102870000Y-130810000D03*
X87630000Y-131445000D03*
X107315000Y-165100000D03*
X100965000Y-62865000D03*
%TO.N,/IO2*%
X106045000Y-144145000D03*
%TO.N,/IO4*%
X104140000Y-165100000D03*
%TO.N,/IO5*%
X100965000Y-165100000D03*
%TO.N,/IO6*%
X120650000Y-90805000D03*
X124460000Y-158750000D03*
X96520000Y-158115000D03*
%TO.N,/IO1*%
X98425000Y-165100000D03*
X99695000Y-159385000D03*
X107950000Y-159385000D03*
%TO.N,/IO7*%
X127000000Y-159385000D03*
%TO.N,/{slash}SELECT*%
X90170000Y-158115000D03*
X82550000Y-106045000D03*
X85725000Y-162560000D03*
%TO.N,Net-(J3A1-Pad4)*%
X121285000Y-55245000D03*
%TO.N,/PUP*%
X105410000Y-111125000D03*
%TO.N,Net-(U1C1-Pad9)*%
X107315000Y-99695000D03*
%TO.N,Net-(U1E1-Pad9)*%
X100330000Y-153035000D03*
X100330000Y-92075000D03*
%TO.N,Net-(U2A1-Pad6)*%
X118110000Y-80645000D03*
X93980000Y-80645000D03*
X125730000Y-128905000D03*
%TO.N,Net-(U2B1-Pad4)*%
X129540000Y-68580000D03*
%TO.N,Net-(U2B1-Pad5)*%
X105410000Y-84455000D03*
X129540000Y-89535000D03*
%TO.N,Net-(U2D1-Pad9)*%
X125730000Y-127635000D03*
%TO.N,Net-(U2E1-Pad1)*%
X115570000Y-157480000D03*
X115570000Y-73025000D03*
X130810000Y-159385000D03*
%TO.N,Net-(U2E1-Pad13)*%
X106045000Y-136525000D03*
X99695000Y-66675000D03*
%TO.N,Net-(U3B1-Pad11)*%
X129540000Y-66675000D03*
%TO.N,Net-(U3B1-Pad6)*%
X122555000Y-97155000D03*
%TO.N,Net-(U3D1-Pad1)*%
X130810000Y-106045000D03*
%TO.N,Net-(U3D1-Pad10)*%
X133350000Y-116205000D03*
%TO.N,Net-(U3D1-Pad4)*%
X133350000Y-113665000D03*
%TO.N,Net-(U3D1-Pad12)*%
X133350000Y-110490000D03*
%TO.N,TxD*%
X120650000Y-60325000D03*
%TO.N,RxClock*%
X139065000Y-47625000D03*
%TD*%
D25*
%TO.N,Net-(J3A1-Pad4)*%
X142392400Y-52959000D02*
X142011400Y-53340000D01*
X146050000Y-51435000D02*
X144526000Y-52959000D01*
X136135386Y-53340000D02*
X142011400Y-53340000D01*
X144526000Y-52959000D02*
X142392400Y-52959000D01*
D26*
%TO.N,/Protective Gnd*%
X146685000Y-106553000D02*
X148590000Y-104648000D01*
X144526000Y-60198000D02*
X143706000Y-61018000D01*
X146685000Y-118745000D02*
X146685000Y-106553000D01*
X143706000Y-61018000D02*
X143706000Y-62845000D01*
X148590000Y-62230000D02*
X146558000Y-60198000D01*
X146558000Y-60198000D02*
X144526000Y-60198000D01*
X148590000Y-104648000D02*
X148590000Y-62230000D01*
X148590000Y-118745000D02*
X146685000Y-118745000D01*
D25*
%TO.N,Net-(J1-Pad3)*%
X139300000Y-68385000D02*
X143706000Y-68385000D01*
X139300000Y-68385000D02*
X132510000Y-61595000D01*
X132510000Y-61595000D02*
X128905000Y-61595000D01*
%TO.N,Net-(J1-Pad4)*%
X122555000Y-76200000D02*
X128905000Y-76200000D01*
X128905000Y-76200000D02*
X133950000Y-71155000D01*
X121920000Y-76835000D02*
X122555000Y-76200000D01*
X133950000Y-71155000D02*
X143706000Y-71155000D01*
%TO.N,Net-(J1-Pad5)*%
X125730000Y-77470000D02*
X129540000Y-77470000D01*
X133085000Y-73925000D02*
X143706000Y-73925000D01*
X129540000Y-77470000D02*
X133085000Y-73925000D01*
%TO.N,Net-(J1-Pad6)*%
X123190000Y-80010000D02*
X124460000Y-78740000D01*
X131445000Y-78740000D02*
X133490000Y-76695000D01*
X133490000Y-76695000D02*
X143706000Y-76695000D01*
X124460000Y-78740000D02*
X131445000Y-78740000D01*
D27*
%TO.N,GND*%
X79375000Y-89535000D02*
X79375000Y-107315000D01*
D26*
X148590000Y-48815000D02*
X143510000Y-48815000D01*
X87630000Y-104140000D02*
X102870000Y-104140000D01*
X79414520Y-56554520D02*
X79375000Y-56515000D01*
X90170000Y-48895000D02*
X90170000Y-46355000D01*
X133260000Y-79465000D02*
X143706000Y-79465000D01*
X120650000Y-106045000D02*
X120650000Y-104140000D01*
X117990489Y-128984511D02*
X102790489Y-128984511D01*
D25*
X118110000Y-92075000D02*
X120404614Y-92075000D01*
D26*
X133350000Y-50800000D02*
X129540000Y-50800000D01*
X130810000Y-155575000D02*
X134620000Y-159385000D01*
X87627886Y-29210000D02*
X79375000Y-37462886D01*
D27*
X79375000Y-107315000D02*
X79375000Y-114935000D01*
D26*
X118110000Y-104140000D02*
X118110000Y-102235000D01*
X82232500Y-163512500D02*
X80962500Y-163512500D01*
D27*
X80962500Y-163512500D02*
X82550000Y-165100000D01*
D26*
X102870000Y-74295000D02*
X102870000Y-79375000D01*
X102870000Y-128905000D02*
X102790489Y-128984511D01*
D27*
X79375000Y-37462886D02*
X79375000Y-56515000D01*
D26*
X132000000Y-130175000D02*
X129540000Y-132635000D01*
X87630000Y-76835000D02*
X79375000Y-76835000D01*
D27*
X79375000Y-114935000D02*
X79375000Y-140970000D01*
D26*
X90170000Y-155575000D02*
X82232500Y-163512500D01*
X102870000Y-104140000D02*
X118110000Y-104140000D01*
X102870000Y-79375000D02*
X118110000Y-79375000D01*
X87630000Y-127635000D02*
X87630000Y-128905000D01*
D27*
X79375000Y-56515000D02*
X79375000Y-64770000D01*
D26*
X130810000Y-81915000D02*
X133260000Y-79465000D01*
D27*
X79375000Y-140970000D02*
X79375000Y-161925000D01*
D26*
X102870000Y-102235000D02*
X102870000Y-104140000D01*
X87630000Y-71755000D02*
X80010000Y-71755000D01*
X82550000Y-64055000D02*
X80090000Y-64055000D01*
X118110000Y-79375000D02*
X118825000Y-79375000D01*
D27*
X90210000Y-164555000D02*
X90210000Y-163195000D01*
D26*
X102870000Y-53975000D02*
X102870000Y-48895000D01*
X148590000Y-31195000D02*
X146050000Y-31195000D01*
X102870000Y-155575000D02*
X102870000Y-150495000D01*
X82622812Y-107315000D02*
X85797812Y-104140000D01*
X141525000Y-50800000D02*
X133350000Y-50800000D01*
D27*
X79375000Y-72390000D02*
X79375000Y-76835000D01*
D26*
X79455000Y-89455000D02*
X79375000Y-89535000D01*
D27*
X79455000Y-114855000D02*
X79375000Y-114935000D01*
X79375000Y-161925000D02*
X80962500Y-163512500D01*
X89535000Y-165100000D02*
X89600000Y-165165000D01*
D26*
X82550000Y-89455000D02*
X79455000Y-89455000D01*
X118110000Y-128865000D02*
X120690000Y-131445000D01*
X90170000Y-53975000D02*
X90170000Y-55959040D01*
X98108916Y-53975000D02*
X95529395Y-56554520D01*
X95529395Y-56554520D02*
X89574520Y-56554520D01*
X80090000Y-64055000D02*
X79375000Y-64770000D01*
X126365000Y-53975000D02*
X102870000Y-53975000D01*
X118110000Y-104140000D02*
X120650000Y-104140000D01*
X127072812Y-104140000D02*
X130810000Y-100402812D01*
X129540000Y-50800000D02*
X126365000Y-53975000D01*
X90170000Y-48895000D02*
X90170000Y-53975000D01*
X118825000Y-79375000D02*
X120095000Y-80645000D01*
X87630000Y-76835000D02*
X90170000Y-79375000D01*
X134620000Y-159385000D02*
X140335000Y-159385000D01*
X130810000Y-100402812D02*
X130810000Y-81915000D01*
X90170000Y-155575000D02*
X102870000Y-155575000D01*
X90170000Y-55959040D02*
X89574520Y-56554520D01*
X120650000Y-104140000D02*
X127072812Y-104140000D01*
X102870000Y-127635000D02*
X102870000Y-128905000D01*
X87630000Y-128905000D02*
X87709511Y-128984511D01*
X118110000Y-125095000D02*
X118110000Y-128865000D01*
X90170000Y-79375000D02*
X102870000Y-79375000D01*
D27*
X79375000Y-64770000D02*
X79375000Y-72390000D01*
D26*
X133350000Y-130175000D02*
X132000000Y-130175000D01*
X102870000Y-53975000D02*
X98108916Y-53975000D01*
D25*
X120404614Y-92075000D02*
X121920000Y-90559614D01*
D26*
X102790489Y-128984511D02*
X87709511Y-128984511D01*
X118110000Y-74295000D02*
X118110000Y-79375000D01*
X118110000Y-128865000D02*
X117990489Y-128984511D01*
D27*
X80090000Y-140255000D02*
X79375000Y-140970000D01*
X79375000Y-76835000D02*
X79375000Y-89535000D01*
D26*
X87630000Y-69215000D02*
X87630000Y-71755000D01*
X133350000Y-50800000D02*
X133350000Y-48895000D01*
X102870000Y-155575000D02*
X118110000Y-155575000D01*
X89574520Y-56554520D02*
X79414520Y-56554520D01*
D27*
X89600000Y-165165000D02*
X89600000Y-171135000D01*
D26*
X143510000Y-48815000D02*
X141525000Y-50800000D01*
X87630000Y-102235000D02*
X87630000Y-104140000D01*
D27*
X82550000Y-140255000D02*
X80090000Y-140255000D01*
D26*
X80010000Y-71755000D02*
X79375000Y-72390000D01*
X144065000Y-29210000D02*
X87627886Y-29210000D01*
D25*
X121920000Y-90559614D02*
X121920000Y-86995000D01*
D26*
X87630000Y-153035000D02*
X90170000Y-155575000D01*
D27*
X89600000Y-165165000D02*
X90210000Y-164555000D01*
X82550000Y-114855000D02*
X79455000Y-114855000D01*
D26*
X146050000Y-31195000D02*
X144065000Y-29210000D01*
X85797812Y-104140000D02*
X87630000Y-104140000D01*
X79375000Y-107315000D02*
X82622812Y-107315000D01*
X87709511Y-128984511D02*
X79454511Y-128984511D01*
D27*
X82550000Y-165100000D02*
X89535000Y-165100000D01*
D26*
X118110000Y-155575000D02*
X130810000Y-155575000D01*
D25*
%TO.N,Net-(J1-Pad8)*%
X137160000Y-57785000D02*
X137795000Y-58420000D01*
X129540000Y-57785000D02*
X137160000Y-57785000D01*
%TO.N,Net-(J1-Pad9)*%
X134805480Y-89499520D02*
X139300000Y-85005000D01*
X134805480Y-112580480D02*
X134805480Y-89499520D01*
X139300000Y-85005000D02*
X143706000Y-85005000D01*
X138430000Y-116205000D02*
X134805480Y-112580480D01*
%TO.N,Net-(J1-Pad10)*%
X138430000Y-113665000D02*
X135255000Y-110490000D01*
X139300000Y-87775000D02*
X143706000Y-87775000D01*
X135255000Y-91820000D02*
X139300000Y-87775000D01*
X135255000Y-110490000D02*
X135255000Y-91820000D01*
%TO.N,Net-(J1-Pad17)*%
X108585000Y-55880000D02*
X109220000Y-56515000D01*
X109220000Y-56515000D02*
X137795000Y-56515000D01*
X139700000Y-59944000D02*
X139700000Y-58420000D01*
X139700000Y-58420000D02*
X138430000Y-57150000D01*
X137795000Y-56515000D02*
X138430000Y-57150000D01*
%TO.N,/C*%
X138430000Y-100330000D02*
X140462000Y-98298000D01*
X147828000Y-79662000D02*
X146246000Y-78080000D01*
X147828000Y-95504000D02*
X147828000Y-79662000D01*
X138430000Y-111125000D02*
X138430000Y-100330000D01*
X140462000Y-98298000D02*
X145034000Y-98298000D01*
X145034000Y-98298000D02*
X147828000Y-95504000D01*
%TO.N,Net-(J1-Pad24)*%
X141986000Y-54610000D02*
X135890000Y-54610000D01*
%TO.N,Net-(J1A1-Pad1)*%
X107315000Y-37465000D02*
X128270000Y-37465000D01*
X87630000Y-33655000D02*
X88900000Y-34925000D01*
X104775000Y-34925000D02*
X107315000Y-37465000D01*
X129540000Y-38735000D02*
X133350000Y-38735000D01*
X128270000Y-37465000D02*
X129540000Y-38735000D01*
X88900000Y-34925000D02*
X104775000Y-34925000D01*
%TO.N,Net-(J1A1-Pad5)*%
X97155000Y-41275000D02*
X99695000Y-38735000D01*
X95250000Y-41275000D02*
X97155000Y-41275000D01*
X99695000Y-38735000D02*
X102870000Y-38735000D01*
%TO.N,Net-(J1A1-Pad6)*%
X125730000Y-51435000D02*
X121285000Y-51435000D01*
X95250000Y-38735000D02*
X97790000Y-38735000D01*
X114935000Y-51435000D02*
X106680000Y-51435000D01*
X120160489Y-52559511D02*
X116059511Y-52559511D01*
X116059511Y-52559511D02*
X114935000Y-51435000D01*
X97790000Y-38735000D02*
X99060000Y-37465000D01*
X110490000Y-99695000D02*
X111905489Y-101110489D01*
X111905489Y-101110489D02*
X128759511Y-101110489D01*
X121285000Y-51435000D02*
X120160489Y-52559511D01*
X99060000Y-37465000D02*
X105410000Y-37465000D01*
%TO.N,Net-(J1A1-Pad3)*%
X125730000Y-31750000D02*
X117474282Y-31750000D01*
X130175000Y-36195000D02*
X125730000Y-31750000D01*
X133350000Y-36195000D02*
X130175000Y-36195000D01*
X117474282Y-31750000D02*
X114299282Y-34925000D01*
X109220000Y-34925000D02*
X108585000Y-35560000D01*
X114299282Y-34925000D02*
X109220000Y-34925000D01*
%TO.N,/IO3*%
X92075000Y-141605000D02*
X90805000Y-140335000D01*
X110490000Y-163830000D02*
X109855000Y-164465000D01*
X106680000Y-141605000D02*
X92075000Y-141605000D01*
X108585000Y-142875000D02*
X107950000Y-142875000D01*
X107950000Y-142875000D02*
X106680000Y-141605000D01*
X108585000Y-142875000D02*
X110490000Y-142875000D01*
X132080000Y-163830000D02*
X110490000Y-163830000D01*
X90805000Y-140335000D02*
X87630000Y-140335000D01*
X109855000Y-164465000D02*
X109855000Y-165100000D01*
D26*
%TO.N,+12V*%
X143510000Y-33655000D02*
X146050000Y-36195000D01*
X140970000Y-33655000D02*
X143510000Y-33655000D01*
D25*
%TO.N,/{slash}IO INT*%
X125730000Y-125095000D02*
X127000000Y-125095000D01*
X128270000Y-120650000D02*
X130810000Y-118110000D01*
X130810000Y-118110000D02*
X133350000Y-118110000D01*
X120650000Y-114935000D02*
X118110000Y-114935000D01*
X127000000Y-125095000D02*
X128270000Y-123825000D01*
X123190000Y-125095000D02*
X125730000Y-125095000D01*
X118110000Y-122555000D02*
X120650000Y-122555000D01*
X128270000Y-123825000D02*
X128270000Y-120650000D01*
X125730000Y-117475000D02*
X123190000Y-117475000D01*
X120650000Y-122555000D02*
X123190000Y-125095000D01*
X123190000Y-117475000D02*
X120650000Y-114935000D01*
%TO.N,/IO A3*%
X121288900Y-165731100D02*
X121920000Y-165100000D01*
X121288900Y-171135000D02*
X121288900Y-165731100D01*
%TO.N,/IO A0*%
X114951100Y-171135000D02*
X114951100Y-165718900D01*
X113665000Y-156845000D02*
X114260480Y-156249520D01*
X118070480Y-156845000D02*
X130175000Y-156845000D01*
X130175000Y-156845000D02*
X130810000Y-157480000D01*
X117475000Y-156249520D02*
X118070480Y-156845000D01*
X114260480Y-156249520D02*
X117475000Y-156249520D01*
X114951100Y-165718900D02*
X115570000Y-165100000D01*
%TO.N,/{slash}BWR*%
X111782200Y-167185000D02*
X114591711Y-164375489D01*
X114591711Y-164375489D02*
X122465489Y-164375489D01*
X111782200Y-171135000D02*
X111782200Y-167185000D01*
X122465489Y-164375489D02*
X123825000Y-165735000D01*
%TO.N,/{slash}BIO RES*%
X108613300Y-171135000D02*
X108613300Y-166398300D01*
X102870000Y-130810000D02*
X102235000Y-131445000D01*
X125730000Y-64135000D02*
X123190000Y-64135000D01*
X108613300Y-166398300D02*
X107315000Y-165100000D01*
X123190000Y-64135000D02*
X121920000Y-62865000D01*
X102235000Y-131445000D02*
X87630000Y-131445000D01*
X121920000Y-62865000D02*
X100965000Y-62865000D01*
%TO.N,/IO2*%
X91440000Y-144145000D02*
X106045000Y-144145000D01*
X106045000Y-144145000D02*
X107315000Y-145415000D01*
X107315000Y-145415000D02*
X110490000Y-145415000D01*
X90170000Y-142875000D02*
X91440000Y-144145000D01*
X87630000Y-142875000D02*
X90170000Y-142875000D01*
%TO.N,/IO4*%
X122555000Y-142875000D02*
X121285000Y-144145000D01*
X116840000Y-144145000D02*
X113030000Y-140335000D01*
X121285000Y-144145000D02*
X116840000Y-144145000D01*
X106680000Y-139065000D02*
X100330000Y-139065000D01*
X105444400Y-171135000D02*
X105444400Y-166404400D01*
X105444400Y-166404400D02*
X104140000Y-165100000D01*
X113030000Y-140335000D02*
X107950000Y-140335000D01*
X107950000Y-140335000D02*
X106680000Y-139065000D01*
X100330000Y-139065000D02*
X99060000Y-140335000D01*
X125730000Y-142875000D02*
X122555000Y-142875000D01*
X99060000Y-140335000D02*
X95250000Y-140335000D01*
%TO.N,/IO5*%
X91440000Y-142875000D02*
X95250000Y-142875000D01*
X121285000Y-141605000D02*
X116205000Y-141605000D01*
X86360000Y-137160000D02*
X86360000Y-140655300D01*
X90170000Y-141605000D02*
X91440000Y-142875000D01*
X86360000Y-140655300D02*
X87309700Y-141605000D01*
X86849511Y-136670489D02*
X86360000Y-137160000D01*
X122555000Y-140335000D02*
X121285000Y-141605000D01*
X107315000Y-137795000D02*
X100330000Y-137795000D01*
X122555000Y-140335000D02*
X125730000Y-140335000D01*
X100330000Y-137795000D02*
X99205489Y-136670489D01*
X99205489Y-136670489D02*
X86849511Y-136670489D01*
X102275600Y-171135000D02*
X102275600Y-166410600D01*
X87309700Y-141605000D02*
X90170000Y-141605000D01*
X108585000Y-139065000D02*
X107315000Y-137795000D01*
X113665000Y-139065000D02*
X108585000Y-139065000D01*
X102275600Y-166410600D02*
X100965000Y-165100000D01*
X116205000Y-141605000D02*
X113665000Y-139065000D01*
%TO.N,/IO6*%
X104775000Y-89535000D02*
X106045000Y-90805000D01*
X96520000Y-158115000D02*
X98385480Y-156249520D01*
X114300000Y-158750000D02*
X124460000Y-158750000D01*
X111799520Y-156249520D02*
X114300000Y-158750000D01*
X106045000Y-90805000D02*
X120650000Y-90805000D01*
X98385480Y-156249520D02*
X111799520Y-156249520D01*
X102870000Y-89535000D02*
X104775000Y-89535000D01*
%TO.N,/IO1*%
X99695000Y-159385000D02*
X107950000Y-159385000D01*
X106045000Y-146685000D02*
X107315000Y-147955000D01*
X99106700Y-165781700D02*
X98425000Y-165100000D01*
X91440000Y-146685000D02*
X106045000Y-146685000D01*
X107315000Y-147955000D02*
X110490000Y-147955000D01*
X90170000Y-147955000D02*
X91440000Y-146685000D01*
X99106700Y-171135000D02*
X99106700Y-165781700D01*
X87630000Y-147955000D02*
X90170000Y-147955000D01*
%TO.N,/IO0*%
X107315000Y-150495000D02*
X110490000Y-150495000D01*
X98425000Y-147955000D02*
X99695000Y-149225000D01*
X95250000Y-147955000D02*
X98425000Y-147955000D01*
X99695000Y-149225000D02*
X106045000Y-149225000D01*
X106045000Y-149225000D02*
X107315000Y-150495000D01*
D26*
%TO.N,-12V*%
X144700489Y-32305489D02*
X134699511Y-32305489D01*
X148590000Y-36195000D02*
X149225000Y-36195000D01*
X95937780Y-171135000D02*
X95937780Y-163142220D01*
X152400000Y-156210000D02*
X152400000Y-113665000D01*
X98425000Y-160655000D02*
X135890000Y-160655000D01*
X150495000Y-158115000D02*
X152400000Y-156210000D01*
X135930000Y-160695000D02*
X135890000Y-160655000D01*
X135930000Y-163195000D02*
X135930000Y-160695000D01*
X152400000Y-39370000D02*
X152400000Y-113665000D01*
X144700489Y-32305489D02*
X148590000Y-36195000D01*
X134699511Y-32305489D02*
X133350000Y-33655000D01*
X95937780Y-163142220D02*
X98425000Y-160655000D01*
X144145000Y-158115000D02*
X150495000Y-158115000D01*
X149225000Y-36195000D02*
X152400000Y-39370000D01*
X135890000Y-160655000D02*
X141605000Y-160655000D01*
X141605000Y-160655000D02*
X144145000Y-158115000D01*
X152400000Y-113665000D02*
X148590000Y-113665000D01*
%TO.N,+5V*%
X129540000Y-121285000D02*
X130175000Y-120650000D01*
X85090000Y-53975000D02*
X85090000Y-46355000D01*
X85090000Y-33020000D02*
X86995000Y-31115000D01*
X125690000Y-133390000D02*
X125690000Y-135215000D01*
X125730000Y-59055000D02*
X124380489Y-57705489D01*
X125730000Y-81280000D02*
X125095000Y-80645000D01*
X95250000Y-107950000D02*
X110490000Y-107950000D01*
X107950000Y-31115000D02*
X110490000Y-33655000D01*
X84455000Y-107950000D02*
X82550000Y-109855000D01*
X85090000Y-46355000D02*
X85090000Y-33020000D01*
X95250000Y-133430000D02*
X95210000Y-133390000D01*
X95250000Y-82550000D02*
X84455000Y-82550000D01*
X110490000Y-57785000D02*
X110569511Y-57705489D01*
X125730000Y-107950000D02*
X125650000Y-107870000D01*
X149225000Y-120650000D02*
X150495000Y-121920000D01*
X110490000Y-135255000D02*
X110490000Y-133430000D01*
X125730000Y-82550000D02*
X109855000Y-82550000D01*
D25*
X114620300Y-33655000D02*
X110490000Y-33655000D01*
D26*
X125730000Y-82550000D02*
X125730000Y-81280000D01*
X110490000Y-133430000D02*
X110530000Y-133390000D01*
X110490000Y-107950000D02*
X110490000Y-109855000D01*
D25*
X137014511Y-34779511D02*
X132225489Y-34779511D01*
D26*
X84455000Y-82550000D02*
X82550000Y-84455000D01*
X83899511Y-57705489D02*
X82550000Y-59055000D01*
X84415000Y-133390000D02*
X82550000Y-135255000D01*
D25*
X132225489Y-32530489D02*
X130995480Y-31300480D01*
D26*
X95250000Y-107950000D02*
X84455000Y-107950000D01*
X95329511Y-57705489D02*
X83899511Y-57705489D01*
X150495000Y-121920000D02*
X150495000Y-125730000D01*
D25*
X130995480Y-31300480D02*
X116974820Y-31300480D01*
D26*
X124380489Y-57705489D02*
X110569511Y-57705489D01*
X125650000Y-107870000D02*
X125650000Y-106045000D01*
X125690000Y-131445000D02*
X125690000Y-133390000D01*
X130175000Y-120650000D02*
X149225000Y-120650000D01*
X95250000Y-109855000D02*
X95250000Y-107950000D01*
X109855000Y-82550000D02*
X95250000Y-82550000D01*
X110490000Y-59055000D02*
X110490000Y-57785000D01*
X125730000Y-107950000D02*
X125730000Y-109855000D01*
X110490000Y-107950000D02*
X125730000Y-107950000D01*
D25*
X140970000Y-38735000D02*
X137014511Y-34779511D01*
D26*
X95250000Y-57785000D02*
X95329511Y-57705489D01*
X129540000Y-127635000D02*
X129540000Y-121285000D01*
D25*
X132225489Y-34779511D02*
X132225489Y-32530489D01*
D26*
X110490000Y-84455000D02*
X110490000Y-82550000D01*
D25*
X116974820Y-31300480D02*
X114620300Y-33655000D01*
D26*
X110569511Y-57705489D02*
X95329511Y-57705489D01*
X95210000Y-133390000D02*
X84415000Y-133390000D01*
X150495000Y-125730000D02*
X148590000Y-127635000D01*
X86995000Y-31115000D02*
X107950000Y-31115000D01*
X110530000Y-133390000D02*
X95210000Y-133390000D01*
X125690000Y-133390000D02*
X110530000Y-133390000D01*
X95250000Y-59055000D02*
X95250000Y-57785000D01*
X110490000Y-82550000D02*
X109855000Y-82550000D01*
X125730000Y-84455000D02*
X125730000Y-82550000D01*
X95250000Y-84455000D02*
X95250000Y-82550000D01*
X95250000Y-135255000D02*
X95250000Y-133430000D01*
X125690000Y-135215000D02*
X125730000Y-135255000D01*
D25*
%TO.N,/IO7*%
X99060000Y-156845000D02*
X93834511Y-162070489D01*
X127000000Y-159385000D02*
X126910489Y-159474511D01*
X113754511Y-159474511D02*
X111125000Y-156845000D01*
X93834511Y-165245489D02*
X92768890Y-166311110D01*
X93834511Y-162070489D02*
X93834511Y-165245489D01*
X92768890Y-166311110D02*
X92768890Y-171135000D01*
X126910489Y-159474511D02*
X113754511Y-159474511D01*
X111125000Y-156845000D02*
X99060000Y-156845000D01*
%TO.N,/{slash}SELECT*%
X86360000Y-98425000D02*
X86360000Y-102235000D01*
X118110000Y-94615000D02*
X114300000Y-98425000D01*
X114300000Y-98425000D02*
X86360000Y-98425000D01*
X85725000Y-162560000D02*
X90170000Y-158115000D01*
X86360000Y-102235000D02*
X82550000Y-106045000D01*
%TO.N,Net-(C6-Pad1)*%
X122065489Y-35070489D02*
X126854511Y-35070489D01*
X146050000Y-41910000D02*
X145415000Y-41275000D01*
X120650000Y-33655000D02*
X122065489Y-35070489D01*
X146050000Y-43815000D02*
X146050000Y-41910000D01*
X129394511Y-37610489D02*
X135400489Y-37610489D01*
X118110000Y-33655000D02*
X120650000Y-33655000D01*
X145415000Y-41275000D02*
X140970000Y-41275000D01*
X135400489Y-37610489D02*
X139065000Y-41275000D01*
X139065000Y-41275000D02*
X140970000Y-41275000D01*
X126854511Y-35070489D02*
X129394511Y-37610489D01*
%TO.N,Net-(C5-Pad1)*%
X136525000Y-40005000D02*
X138919511Y-42399511D01*
X122555000Y-40005000D02*
X136525000Y-40005000D01*
X121285000Y-38735000D02*
X122555000Y-40005000D01*
X118110000Y-38735000D02*
X121285000Y-38735000D01*
X138919511Y-42399511D02*
X142094511Y-42399511D01*
X142094511Y-42399511D02*
X143510000Y-43815000D01*
%TO.N,Net-(J3A1-Pad11)*%
X118430300Y-45085000D02*
X108585000Y-45085000D01*
X104775000Y-41275000D02*
X102870000Y-41275000D01*
X108585000Y-45085000D02*
X104775000Y-41275000D01*
X125730000Y-46355000D02*
X119700300Y-46355000D01*
X119700300Y-46355000D02*
X118430300Y-45085000D01*
%TO.N,Net-(J3A1-Pad4)*%
X121285000Y-55245000D02*
X134230386Y-55245000D01*
X146050000Y-51435000D02*
X148590000Y-51435000D01*
X134230386Y-55245000D02*
X136135386Y-53340000D01*
%TO.N,Net-(C4-Pad1)*%
X147265489Y-45139511D02*
X138375489Y-45139511D01*
X137160000Y-46355000D02*
X133350000Y-46355000D01*
X133350000Y-46355000D02*
X132225489Y-45230489D01*
X122700489Y-45230489D02*
X121285000Y-43815000D01*
X138375489Y-45139511D02*
X137160000Y-46355000D01*
X121285000Y-43815000D02*
X118110000Y-43815000D01*
X148590000Y-43815000D02*
X147265489Y-45139511D01*
X132225489Y-45230489D02*
X122700489Y-45230489D01*
%TO.N,Net-(J3A1-Pad13)*%
X119700300Y-41275000D02*
X118430300Y-40005000D01*
X114300000Y-40005000D02*
X110490000Y-43815000D01*
X118430300Y-40005000D02*
X114300000Y-40005000D01*
X125730000Y-41275000D02*
X119700300Y-41275000D01*
%TO.N,Net-(J3A1-Pad15)*%
X119700300Y-36195000D02*
X118575789Y-35070489D01*
X114789511Y-35070489D02*
X113665000Y-36195000D01*
X118575789Y-35070489D02*
X114789511Y-35070489D01*
X125730000Y-36195000D02*
X119700300Y-36195000D01*
X113665000Y-36195000D02*
X110490000Y-36195000D01*
%TO.N,/PUP*%
X87630000Y-59055000D02*
X88900000Y-59055000D01*
X123825000Y-61595000D02*
X125730000Y-61595000D01*
X114300000Y-60325000D02*
X115570000Y-59055000D01*
X91440000Y-111125000D02*
X105410000Y-111125000D01*
X87630000Y-109855000D02*
X90170000Y-109855000D01*
X88900000Y-59055000D02*
X92710000Y-62865000D01*
X99060000Y-62865000D02*
X101600000Y-60325000D01*
X110490000Y-97155000D02*
X107950000Y-97155000D01*
X101600000Y-60325000D02*
X114300000Y-60325000D01*
X86505489Y-123970489D02*
X86505489Y-110979511D01*
X115570000Y-59055000D02*
X118110000Y-59055000D01*
X90170000Y-84455000D02*
X91585489Y-85870489D01*
X87630000Y-84455000D02*
X86505489Y-85579511D01*
X87630000Y-125095000D02*
X86505489Y-123970489D01*
X90170000Y-109855000D02*
X91440000Y-111125000D01*
X105555489Y-85870489D02*
X106680000Y-86995000D01*
X95250000Y-74295000D02*
X87630000Y-74295000D01*
X118110000Y-59055000D02*
X121285000Y-59055000D01*
X87630000Y-66675000D02*
X82550000Y-66675000D01*
X107950000Y-97155000D02*
X105410000Y-94615000D01*
X106680000Y-86995000D02*
X110490000Y-86995000D01*
X86505489Y-110979511D02*
X87630000Y-109855000D01*
X105410000Y-94615000D02*
X102870000Y-94615000D01*
X92710000Y-62865000D02*
X99060000Y-62865000D01*
X91585489Y-85870489D02*
X105555489Y-85870489D01*
X86505489Y-85579511D02*
X86505489Y-96030489D01*
X86505489Y-96030489D02*
X87630000Y-97155000D01*
X87630000Y-84455000D02*
X90170000Y-84455000D01*
X121285000Y-59055000D02*
X123825000Y-61595000D01*
X87630000Y-125095000D02*
X95250000Y-125095000D01*
%TO.N,Net-(U1B1-Pad2)*%
X89535000Y-68580000D02*
X94125489Y-73170489D01*
X89535000Y-63500000D02*
X89535000Y-68580000D01*
X94125489Y-73170489D02*
X109365489Y-73170489D01*
X87630000Y-61595000D02*
X89535000Y-63500000D01*
X109365489Y-73170489D02*
X110490000Y-74295000D01*
%TO.N,/615KHz*%
X106190489Y-93490489D02*
X94125489Y-93490489D01*
X110490000Y-94615000D02*
X107315000Y-94615000D01*
X94125489Y-93490489D02*
X87630000Y-86995000D01*
X107315000Y-94615000D02*
X106190489Y-93490489D01*
%TO.N,Net-(U1B1-Pad13)*%
X102870000Y-64135000D02*
X99695000Y-64135000D01*
X97155000Y-66675000D02*
X95250000Y-66675000D01*
X99695000Y-64135000D02*
X97155000Y-66675000D01*
%TO.N,Net-(U1B1-Pad15)*%
X102870000Y-59055000D02*
X100965000Y-59055000D01*
X100965000Y-59055000D02*
X98425000Y-61595000D01*
X98425000Y-61595000D02*
X95250000Y-61595000D01*
%TO.N,Net-(U1C1-Pad9)*%
X99695000Y-100965000D02*
X105410000Y-100965000D01*
X105410000Y-100965000D02*
X106680000Y-99695000D01*
X98425000Y-102235000D02*
X99695000Y-100965000D01*
X106680000Y-99695000D02*
X107315000Y-99695000D01*
X95250000Y-102235000D02*
X98425000Y-102235000D01*
%TO.N,Net-(U1C1-Pad10)*%
X87630000Y-99695000D02*
X95250000Y-99695000D01*
%TO.N,Net-(U1C1-Pad5)*%
X87630000Y-94615000D02*
X90805000Y-94615000D01*
X98279511Y-95739511D02*
X99695000Y-97155000D01*
X99695000Y-97155000D02*
X102870000Y-97155000D01*
X90805000Y-94615000D02*
X91929511Y-95739511D01*
X91929511Y-95739511D02*
X98279511Y-95739511D01*
%TO.N,Net-(U1C1-Pad15)*%
X95250000Y-86995000D02*
X98425000Y-86995000D01*
X107315000Y-89535000D02*
X110490000Y-89535000D01*
X98425000Y-86995000D02*
X99549511Y-88119511D01*
X99549511Y-88119511D02*
X105899511Y-88119511D01*
X105899511Y-88119511D02*
X107315000Y-89535000D01*
%TO.N,Net-(U1E1-Pad9)*%
X102870000Y-92075000D02*
X106680000Y-92075000D01*
X124460000Y-97155000D02*
X125730000Y-97155000D01*
X95250000Y-153035000D02*
X100330000Y-153035000D01*
X120650000Y-93345000D02*
X124460000Y-97155000D01*
X102870000Y-92075000D02*
X100330000Y-92075000D01*
X106680000Y-92075000D02*
X107950000Y-93345000D01*
X107950000Y-93345000D02*
X120650000Y-93345000D01*
%TO.N,Net-(U2A1-Pad6)*%
X125784511Y-128959511D02*
X125730000Y-128905000D01*
X132025489Y-128959511D02*
X125784511Y-128959511D01*
X93980000Y-80645000D02*
X118110000Y-80645000D01*
X133350000Y-127635000D02*
X132025489Y-128959511D01*
%TO.N,Net-(U2B1-Pad10)*%
X110490000Y-69215000D02*
X113665000Y-69215000D01*
X122555000Y-69215000D02*
X125730000Y-69215000D01*
X114935000Y-67945000D02*
X121285000Y-67945000D01*
X113665000Y-69215000D02*
X114935000Y-67945000D01*
X121285000Y-67945000D02*
X122555000Y-69215000D01*
%TO.N,Net-(U2B1-Pad4)*%
X115570000Y-65405000D02*
X120015000Y-65405000D01*
X120015000Y-65405000D02*
X122555000Y-67945000D01*
X113030000Y-67945000D02*
X115570000Y-65405000D01*
X128905000Y-67945000D02*
X129540000Y-68580000D01*
X105410000Y-66675000D02*
X106680000Y-67945000D01*
X102870000Y-66675000D02*
X105410000Y-66675000D01*
X122555000Y-67945000D02*
X128905000Y-67945000D01*
X106680000Y-67945000D02*
X113030000Y-67945000D01*
%TO.N,Net-(U2B1-Pad5)*%
X106680000Y-84455000D02*
X105410000Y-84455000D01*
X127000000Y-86995000D02*
X129540000Y-89535000D01*
X124314511Y-85579511D02*
X107804511Y-85579511D01*
X125730000Y-86995000D02*
X127000000Y-86995000D01*
X107804511Y-85579511D02*
X106680000Y-84455000D01*
X125730000Y-86995000D02*
X124314511Y-85579511D01*
%TO.N,Net-(U2B1-Pad6)*%
X102870000Y-71755000D02*
X106045000Y-71755000D01*
X122555000Y-71755000D02*
X125730000Y-71755000D01*
X107315000Y-70485000D02*
X121285000Y-70485000D01*
X121285000Y-70485000D02*
X122555000Y-71755000D01*
X106045000Y-71755000D02*
X107315000Y-70485000D01*
%TO.N,Net-(U2D1-Pad9)*%
X110490000Y-127635000D02*
X113030000Y-127635000D01*
X123825000Y-127635000D02*
X125730000Y-127635000D01*
X116840000Y-123825000D02*
X120015000Y-123825000D01*
X120015000Y-123825000D02*
X123825000Y-127635000D01*
X113030000Y-127635000D02*
X116840000Y-123825000D01*
%TO.N,/INT 2*%
X102870000Y-112395000D02*
X104775000Y-112395000D01*
X113810489Y-113519511D02*
X114935000Y-112395000D01*
X104775000Y-112395000D02*
X105899511Y-113519511D01*
X105899511Y-113519511D02*
X113810489Y-113519511D01*
X114935000Y-112395000D02*
X118110000Y-112395000D01*
%TO.N,/INT 1*%
X110490000Y-125095000D02*
X113688722Y-125095000D01*
X117353233Y-121430489D02*
X121430489Y-121430489D01*
X122555000Y-122555000D02*
X125730000Y-122555000D01*
X113688722Y-125095000D02*
X117353233Y-121430489D01*
X121430489Y-121430489D02*
X122555000Y-122555000D01*
%TO.N,/INT 3*%
X102870000Y-125095000D02*
X106045000Y-125095000D01*
X112395000Y-123825000D02*
X116205000Y-120015000D01*
X107315000Y-123825000D02*
X112395000Y-123825000D01*
X116205000Y-120015000D02*
X118110000Y-120015000D01*
X106045000Y-125095000D02*
X107315000Y-123825000D01*
%TO.N,/INT 0*%
X110490000Y-112395000D02*
X113665000Y-112395000D01*
X113665000Y-112395000D02*
X114789511Y-111270489D01*
X120795489Y-111270489D02*
X121920000Y-112395000D01*
X114789511Y-111270489D02*
X120795489Y-111270489D01*
X125730000Y-112395000D02*
X121920000Y-112395000D01*
%TO.N,Net-(U2E1-Pad1)*%
X121920000Y-73025000D02*
X115570000Y-73025000D01*
X130810000Y-159385000D02*
X128905000Y-157480000D01*
X123190000Y-74295000D02*
X121920000Y-73025000D01*
X107315000Y-135255000D02*
X102870000Y-135255000D01*
X128905000Y-157480000D02*
X115570000Y-157480000D01*
X114300000Y-136525000D02*
X108585000Y-136525000D01*
X108585000Y-136525000D02*
X107315000Y-135255000D01*
X115570000Y-135255000D02*
X114300000Y-136525000D01*
X118110000Y-135255000D02*
X115570000Y-135255000D01*
X125730000Y-74295000D02*
X123190000Y-74295000D01*
%TO.N,/U3*%
X115570000Y-149225000D02*
X114935000Y-148590000D01*
X106680000Y-140335000D02*
X102870000Y-140335000D01*
X114935000Y-143510000D02*
X113030000Y-141605000D01*
X134474511Y-126219511D02*
X134474511Y-146171767D01*
X114935000Y-148590000D02*
X114935000Y-143510000D01*
X107950000Y-141605000D02*
X106680000Y-140335000D01*
X133815789Y-146830489D02*
X131299511Y-146830489D01*
X133350000Y-125095000D02*
X134474511Y-126219511D01*
X131299511Y-146830489D02*
X128905000Y-149225000D01*
X128905000Y-149225000D02*
X115570000Y-149225000D01*
X134474511Y-146171767D02*
X133815789Y-146830489D01*
X113030000Y-141605000D02*
X107950000Y-141605000D01*
%TO.N,/U2*%
X134924031Y-147971269D02*
X133524811Y-149370489D01*
X133524811Y-149370489D02*
X131299511Y-149370489D01*
X108095489Y-144290489D02*
X106680000Y-142875000D01*
X128905000Y-151765000D02*
X117474283Y-151765000D01*
X131299511Y-149370489D02*
X128905000Y-151765000D01*
X117474283Y-151765000D02*
X114300000Y-148590717D01*
X133350000Y-122555000D02*
X134924031Y-124129031D01*
X114300000Y-145415000D02*
X113175489Y-144290489D01*
X134924031Y-124129031D02*
X134924031Y-147971269D01*
X106680000Y-142875000D02*
X102870000Y-142875000D01*
X114300000Y-148590717D02*
X114300000Y-145415000D01*
X113175489Y-144290489D02*
X108095489Y-144290489D01*
%TO.N,/U1*%
X135373551Y-150061749D02*
X133669941Y-151765359D01*
X111125000Y-146685000D02*
X107315000Y-146685000D01*
X107315000Y-146685000D02*
X106045000Y-145415000D01*
X116840000Y-152400000D02*
X111125000Y-146685000D01*
X130174641Y-151765359D02*
X129540000Y-152400000D01*
X129540000Y-152400000D02*
X116840000Y-152400000D01*
X106045000Y-145415000D02*
X102870000Y-145415000D01*
X148590000Y-122555000D02*
X135373551Y-135771449D01*
X133669941Y-151765359D02*
X130174641Y-151765359D01*
X135373551Y-135771449D02*
X135373551Y-150061749D01*
%TO.N,/U0*%
X106359700Y-147955000D02*
X107629700Y-149225000D01*
X128905000Y-153035000D02*
X130320489Y-154450489D01*
X102870000Y-147955000D02*
X106359700Y-147955000D01*
X133815789Y-154450489D02*
X135823071Y-152443207D01*
X130320489Y-154450489D02*
X133815789Y-154450489D01*
X107629700Y-149225000D02*
X111125000Y-149225000D01*
X111125000Y-149225000D02*
X114935000Y-153035000D01*
X135823071Y-137861929D02*
X148590000Y-125095000D01*
X135823071Y-152443207D02*
X135823071Y-137861929D01*
X114935000Y-153035000D02*
X128905000Y-153035000D01*
%TO.N,Net-(U2E1-Pad13)*%
X113665000Y-137795000D02*
X114935000Y-139065000D01*
X120650000Y-139065000D02*
X121920000Y-137795000D01*
X114935000Y-64135000D02*
X113519511Y-65550489D01*
X107315000Y-136525000D02*
X106045000Y-136525000D01*
X113519511Y-65550489D02*
X100819511Y-65550489D01*
X110490000Y-137795000D02*
X108585000Y-137795000D01*
X114935000Y-139065000D02*
X120650000Y-139065000D01*
X121920000Y-137795000D02*
X125730000Y-137795000D01*
X100819511Y-65550489D02*
X99695000Y-66675000D01*
X108585000Y-137795000D02*
X107315000Y-136525000D01*
X110490000Y-137795000D02*
X113665000Y-137795000D01*
X118110000Y-64135000D02*
X114935000Y-64135000D01*
%TO.N,Net-(U3B1-Pad11)*%
X125730000Y-66675000D02*
X129540000Y-66675000D01*
%TO.N,Net-(U3B1-Pad6)*%
X118110000Y-97155000D02*
X122555000Y-97155000D01*
%TO.N,Net-(U3D1-Pad1)*%
X121285000Y-109855000D02*
X122555000Y-111125000D01*
X118110000Y-109855000D02*
X121285000Y-109855000D01*
X130810000Y-106680000D02*
X130810000Y-106045000D01*
X122555000Y-111125000D02*
X126365000Y-111125000D01*
X126365000Y-111125000D02*
X130810000Y-106680000D01*
%TO.N,Net-(U3D1-Pad10)*%
X127635000Y-120015000D02*
X131445000Y-116205000D01*
X125730000Y-120015000D02*
X127635000Y-120015000D01*
X131445000Y-116205000D02*
X133350000Y-116205000D01*
%TO.N,Net-(U3D1-Pad4)*%
X127145489Y-118599511D02*
X132080000Y-113665000D01*
X118110000Y-117475000D02*
X121285000Y-117475000D01*
X132080000Y-113665000D02*
X133350000Y-113665000D01*
X121285000Y-117475000D02*
X122409511Y-118599511D01*
X122409511Y-118599511D02*
X127145489Y-118599511D01*
%TO.N,Net-(U3D1-Pad12)*%
X128270000Y-114935000D02*
X132715000Y-110490000D01*
X125730000Y-114935000D02*
X128270000Y-114935000D01*
X132715000Y-110490000D02*
X133350000Y-110490000D01*
%TO.N,/U4*%
X121285000Y-140335000D02*
X118110000Y-140335000D01*
X122409511Y-139210489D02*
X121285000Y-140335000D01*
X126854511Y-139210489D02*
X122409511Y-139210489D01*
X133350000Y-132715000D02*
X126854511Y-139210489D01*
%TO.N,/U5*%
X121285000Y-142875000D02*
X118110000Y-142875000D01*
X133350000Y-135255000D02*
X127000000Y-141605000D01*
X127000000Y-141605000D02*
X122555000Y-141605000D01*
X122555000Y-141605000D02*
X121285000Y-142875000D01*
%TO.N,/U6*%
X133350000Y-137795000D02*
X127000000Y-144145000D01*
X127000000Y-144145000D02*
X122555000Y-144145000D01*
X121285000Y-145415000D02*
X118110000Y-145415000D01*
X122555000Y-144145000D02*
X121285000Y-145415000D01*
%TO.N,/U7*%
X122409511Y-146830489D02*
X121285000Y-147955000D01*
X126854511Y-146830489D02*
X122409511Y-146830489D01*
X133350000Y-140335000D02*
X126854511Y-146830489D01*
X121285000Y-147955000D02*
X118110000Y-147955000D01*
%TO.N,/RCA*%
X92710000Y-43895000D02*
X95170000Y-46355000D01*
X92710000Y-38735000D02*
X92710000Y-43895000D01*
X102870000Y-36195000D02*
X99694282Y-36195000D01*
X93980359Y-37464641D02*
X92710000Y-38735000D01*
X98424641Y-37464641D02*
X93980359Y-37464641D01*
X99694282Y-36195000D02*
X98424641Y-37464641D01*
%TO.N,/RCD*%
X101600000Y-40005000D02*
X106045000Y-40005000D01*
X106045000Y-40005000D02*
X107315000Y-38735000D01*
X97155000Y-46990000D02*
X97155000Y-44450000D01*
X97155000Y-44450000D02*
X101600000Y-40005000D01*
X95250000Y-48895000D02*
X97155000Y-46990000D01*
X107315000Y-38735000D02*
X110490000Y-38735000D01*
%TO.N,/RCB*%
X98610480Y-48074520D02*
X98610480Y-47438803D01*
X98610480Y-47438803D02*
X102234283Y-43815000D01*
X95250000Y-51435000D02*
X98610480Y-48074520D01*
X102234283Y-43815000D02*
X102870000Y-43815000D01*
%TO.N,/RCC*%
X99060000Y-47625000D02*
X101600000Y-45085000D01*
X99060000Y-50085000D02*
X99060000Y-47625000D01*
X101600000Y-45085000D02*
X106680000Y-45085000D01*
X106680000Y-45085000D02*
X107950000Y-46355000D01*
X95170000Y-53975000D02*
X99060000Y-50085000D01*
X107950000Y-46355000D02*
X110490000Y-46355000D01*
%TO.N,TxD*%
X126050300Y-62865000D02*
X123190000Y-62865000D01*
X127000000Y-61915300D02*
X126050300Y-62865000D01*
X123190000Y-62865000D02*
X120650000Y-60325000D01*
X139300000Y-65615000D02*
X134010000Y-60325000D01*
X127000000Y-60325000D02*
X127000000Y-61915300D01*
X134010000Y-60325000D02*
X127000000Y-60325000D01*
X139300000Y-65615000D02*
X143706000Y-65615000D01*
%TO.N,RxClock*%
X121920000Y-47625000D02*
X139065000Y-47625000D01*
X102089511Y-47770489D02*
X114445489Y-47770489D01*
X101745489Y-49384511D02*
X101745489Y-48114511D01*
X114445489Y-47770489D02*
X118110000Y-51435000D01*
X92710000Y-46355000D02*
X92710000Y-53975000D01*
X118110000Y-51435000D02*
X121920000Y-47625000D01*
X87630000Y-41275000D02*
X92710000Y-46355000D01*
X92710000Y-53975000D02*
X94615000Y-55880000D01*
X101745489Y-48114511D02*
X102089511Y-47770489D01*
X95250000Y-55880000D02*
X101745489Y-49384511D01*
X94615000Y-55880000D02*
X95250000Y-55880000D01*
%TD*%
M02*
