G04 #@! TF.GenerationSoftware,KiCad,Pcbnew,(6.0.0)*
G04 #@! TF.CreationDate,2022-08-18T21:51:09-04:00*
G04 #@! TF.ProjectId,Northstar PIO,4e6f7274-6873-4746-9172-2050494f2e6b,rev?*
G04 #@! TF.SameCoordinates,Original*
G04 #@! TF.FileFunction,Soldermask,Bot*
G04 #@! TF.FilePolarity,Negative*
%FSLAX46Y46*%
G04 Gerber Fmt 4.6, Leading zero omitted, Abs format (unit mm)*
G04 Created by KiCad (PCBNEW (6.0.0)) date 2022-08-18 21:51:09*
%MOMM*%
%LPD*%
G01*
G04 APERTURE LIST*
%ADD10C,3.200000*%
%ADD11R,1.600000X1.600000*%
%ADD12O,1.600000X1.600000*%
%ADD13C,2.000000*%
%ADD14R,1.650000X1.650000*%
%ADD15C,1.650000*%
%ADD16C,4.800000*%
%ADD17R,1.700000X1.700000*%
%ADD18O,1.700000X1.700000*%
%ADD19R,1.700000X7.400000*%
%ADD20C,1.600000*%
G04 APERTURE END LIST*
D10*
X152015373Y-164865486D03*
D11*
X103875373Y-84735486D03*
D12*
X103875373Y-87275486D03*
X103875373Y-89815486D03*
X103875373Y-92355486D03*
X103875373Y-94895486D03*
X103875373Y-97435486D03*
X103875373Y-99975486D03*
X103875373Y-102515486D03*
X111495373Y-102515486D03*
X111495373Y-99975486D03*
X111495373Y-97435486D03*
X111495373Y-94895486D03*
X111495373Y-92355486D03*
X111495373Y-89815486D03*
X111495373Y-87275486D03*
X111495373Y-84735486D03*
D11*
X119115373Y-117755486D03*
D12*
X119115373Y-120295486D03*
X119115373Y-122835486D03*
X119115373Y-125375486D03*
X119115373Y-127915486D03*
X119115373Y-130455486D03*
X119115373Y-132995486D03*
X119115373Y-135535486D03*
X119115373Y-138075486D03*
X119115373Y-140615486D03*
X126735373Y-140615486D03*
X126735373Y-138075486D03*
X126735373Y-135535486D03*
X126735373Y-132995486D03*
X126735373Y-130455486D03*
X126735373Y-127915486D03*
X126735373Y-125375486D03*
X126735373Y-122835486D03*
X126735373Y-120295486D03*
X126735373Y-117755486D03*
D11*
X88635373Y-110135486D03*
D12*
X88635373Y-112675486D03*
X88635373Y-115215486D03*
X88635373Y-117755486D03*
X88635373Y-120295486D03*
X88635373Y-122835486D03*
X88635373Y-125375486D03*
X96255373Y-125375486D03*
X96255373Y-122835486D03*
X96255373Y-120295486D03*
X96255373Y-117755486D03*
X96255373Y-115215486D03*
X96255373Y-112675486D03*
X96255373Y-110135486D03*
D11*
X119115373Y-84735486D03*
D12*
X119115373Y-87275486D03*
X119115373Y-89815486D03*
X119115373Y-92355486D03*
X119115373Y-94895486D03*
X119115373Y-97435486D03*
X119115373Y-99975486D03*
X119115373Y-102515486D03*
X119115373Y-105055486D03*
X119115373Y-107595486D03*
X126735373Y-107595486D03*
X126735373Y-105055486D03*
X126735373Y-102515486D03*
X126735373Y-99975486D03*
X126735373Y-97435486D03*
X126735373Y-94895486D03*
X126735373Y-92355486D03*
X126735373Y-89815486D03*
X126735373Y-87275486D03*
X126735373Y-84735486D03*
D11*
X103875373Y-33935486D03*
D12*
X103875373Y-36475486D03*
X103875373Y-39015486D03*
X103875373Y-41555486D03*
X103875373Y-44095486D03*
X103875373Y-46635486D03*
X103875373Y-49175486D03*
X111495373Y-49175486D03*
X111495373Y-46635486D03*
X111495373Y-44095486D03*
X111495373Y-41555486D03*
X111495373Y-39015486D03*
X111495373Y-36475486D03*
X111495373Y-33935486D03*
D13*
X83555373Y-135535486D03*
X83555373Y-140535486D03*
D14*
X145088642Y-63173286D03*
D15*
X145088642Y-65943286D03*
X145088642Y-68713286D03*
X145088642Y-71483286D03*
X145088642Y-74253286D03*
X145088642Y-77023286D03*
X145088642Y-79793286D03*
X145088642Y-82563286D03*
X147628642Y-64558286D03*
X147628642Y-67328286D03*
X147628642Y-70098286D03*
X147628642Y-72868286D03*
X147628642Y-75638286D03*
X147628642Y-78408286D03*
X147628642Y-81178286D03*
D16*
X146358642Y-56208286D03*
X146358642Y-89528286D03*
D17*
X147055373Y-138075486D03*
D18*
X149595373Y-138075486D03*
D13*
X115305373Y-117795486D03*
X115305373Y-122795486D03*
D10*
X80885373Y-30255486D03*
D13*
X115305373Y-35205486D03*
X115305373Y-40205486D03*
X115305373Y-59335486D03*
X115305373Y-64335486D03*
D11*
X103875373Y-59335486D03*
D12*
X103875373Y-61875486D03*
X103875373Y-64415486D03*
X103875373Y-66955486D03*
X103875373Y-69495486D03*
X103875373Y-72035486D03*
X103875373Y-74575486D03*
X103875373Y-77115486D03*
X111495373Y-77115486D03*
X111495373Y-74575486D03*
X111495373Y-72035486D03*
X111495373Y-69495486D03*
X111495373Y-66955486D03*
X111495373Y-64415486D03*
X111495373Y-61875486D03*
X111495373Y-59335486D03*
D11*
X119115373Y-33935486D03*
D12*
X119115373Y-36475486D03*
X119115373Y-39015486D03*
X119115373Y-41555486D03*
X119115373Y-44095486D03*
X119115373Y-46635486D03*
X119115373Y-49175486D03*
X126735373Y-49175486D03*
X126735373Y-46635486D03*
X126735373Y-44095486D03*
X126735373Y-41555486D03*
X126735373Y-39015486D03*
X126735373Y-36475486D03*
X126735373Y-33935486D03*
D11*
X88635373Y-33935486D03*
D12*
X88635373Y-36475486D03*
X88635373Y-39015486D03*
X88635373Y-41555486D03*
X88635373Y-44095486D03*
X88635373Y-46635486D03*
X88635373Y-49175486D03*
X88635373Y-51715486D03*
X96255373Y-51715486D03*
X96255373Y-49175486D03*
X96255373Y-46635486D03*
X96255373Y-44095486D03*
X96255373Y-41555486D03*
X96255373Y-39015486D03*
X96255373Y-36475486D03*
X96255373Y-33935486D03*
D11*
X128005373Y-80925486D03*
D12*
X125465373Y-80925486D03*
X122925373Y-80925486D03*
X120385373Y-80925486D03*
X117845373Y-80925486D03*
X115305373Y-80925486D03*
D13*
X115305373Y-84775486D03*
X115305373Y-89775486D03*
D19*
X134969773Y-171415486D03*
X131800973Y-171415486D03*
X128632073Y-171415486D03*
X125463173Y-171415486D03*
X122294273Y-171415486D03*
X119125373Y-171415486D03*
X115956473Y-171415486D03*
X112787573Y-171415486D03*
X109618673Y-171415486D03*
X106449773Y-171415486D03*
X103280973Y-171415486D03*
X100112073Y-171415486D03*
X96943153Y-171415486D03*
X93774263Y-171415486D03*
X90605373Y-171415486D03*
D13*
X83555373Y-35245486D03*
X83555373Y-40245486D03*
X83555373Y-84735486D03*
X83555373Y-89735486D03*
X130545373Y-138075486D03*
X130545373Y-143075486D03*
D20*
X149595373Y-41555486D03*
D12*
X134355373Y-41555486D03*
D20*
X149595373Y-36475486D03*
D12*
X134355373Y-36475486D03*
D17*
X147055373Y-140615486D03*
D18*
X149595373Y-140615486D03*
D11*
X103875373Y-110135486D03*
D12*
X103875373Y-112675486D03*
X103875373Y-115215486D03*
X103875373Y-117755486D03*
X103875373Y-120295486D03*
X103875373Y-122835486D03*
X103875373Y-125375486D03*
X111495373Y-125375486D03*
X111495373Y-122835486D03*
X111495373Y-120295486D03*
X111495373Y-117755486D03*
X111495373Y-115215486D03*
X111495373Y-112675486D03*
X111495373Y-110135486D03*
D13*
X83555373Y-110135486D03*
X83555373Y-115135486D03*
D20*
X134355373Y-39015486D03*
D12*
X149595373Y-39015486D03*
D11*
X88635373Y-59335486D03*
D12*
X88635373Y-61875486D03*
X88635373Y-64415486D03*
X88635373Y-66955486D03*
X88635373Y-69495486D03*
X88635373Y-72035486D03*
X88635373Y-74575486D03*
X96255373Y-74575486D03*
X96255373Y-72035486D03*
X96255373Y-69495486D03*
X96255373Y-66955486D03*
X96255373Y-64415486D03*
X96255373Y-61875486D03*
X96255373Y-59335486D03*
D11*
X88635373Y-84735486D03*
D12*
X88635373Y-87275486D03*
X88635373Y-89815486D03*
X88635373Y-92355486D03*
X88635373Y-94895486D03*
X88635373Y-97435486D03*
X88635373Y-99975486D03*
X96255373Y-99975486D03*
X96255373Y-97435486D03*
X96255373Y-94895486D03*
X96255373Y-92355486D03*
X96255373Y-89815486D03*
X96255373Y-87275486D03*
X96255373Y-84735486D03*
D11*
X103875373Y-135535486D03*
D12*
X103875373Y-138075486D03*
X103875373Y-140615486D03*
X103875373Y-143155486D03*
X103875373Y-145695486D03*
X103875373Y-148235486D03*
X103875373Y-150775486D03*
X103875373Y-153315486D03*
X111495373Y-153315486D03*
X111495373Y-150775486D03*
X111495373Y-148235486D03*
X111495373Y-145695486D03*
X111495373Y-143155486D03*
X111495373Y-140615486D03*
X111495373Y-138075486D03*
X111495373Y-135535486D03*
D13*
X83555373Y-59335486D03*
X83555373Y-64335486D03*
D17*
X147055373Y-46635486D03*
D18*
X149595373Y-46635486D03*
D11*
X93715373Y-163475486D03*
D20*
X91215373Y-163475486D03*
D14*
X145088642Y-103935486D03*
D15*
X145088642Y-106705486D03*
X145088642Y-109475486D03*
X145088642Y-112245486D03*
X145088642Y-115015486D03*
X145088642Y-117785486D03*
X145088642Y-120555486D03*
X145088642Y-123325486D03*
X147628642Y-105320486D03*
X147628642Y-108090486D03*
X147628642Y-110860486D03*
X147628642Y-113630486D03*
X147628642Y-116400486D03*
X147628642Y-119170486D03*
X147628642Y-121940486D03*
D16*
X146358642Y-96970486D03*
X146358642Y-130290486D03*
D17*
X147055373Y-49175486D03*
D18*
X149595373Y-49175486D03*
D11*
X119115373Y-59335486D03*
D12*
X119115373Y-61875486D03*
X119115373Y-64415486D03*
X119115373Y-66955486D03*
X119115373Y-69495486D03*
X119115373Y-72035486D03*
X119115373Y-74575486D03*
X126735373Y-74575486D03*
X126735373Y-72035486D03*
X126735373Y-69495486D03*
X126735373Y-66955486D03*
X126735373Y-64415486D03*
X126735373Y-61875486D03*
X126735373Y-59335486D03*
D20*
X134355373Y-33935486D03*
D12*
X149595373Y-33935486D03*
D11*
X139435373Y-163475486D03*
D20*
X136935373Y-163475486D03*
D17*
X147055373Y-143155486D03*
D18*
X149595373Y-143155486D03*
D17*
X147055373Y-44095486D03*
D18*
X149595373Y-44095486D03*
M02*
