%FSLAX45Y45*%
G04 Gerber Fmt 4.5, Leading zero omitted, Abs format (unit mm)*
G04 Created by KiCad (PCBNEW (6.0.0)) date 2022-03-14 15:32:52*
%MOMM*%
%LPD*%
G01*
G04 APERTURE LIST*
%TA.AperFunction,Profile*%
%ADD10C,0.100000*%
%TD*%
%ADD11C,0.200000*%
%ADD12C,0.040000*%
%ADD13C,0.080000*%
%ADD14C,0.100000*%
%ADD15C,0.110000*%
%ADD16C,0.320000*%
G04 APERTURE END LIST*
D10*
X7833537Y-16771549D02*
X7833537Y-2780549D01*
X15463537Y-16771549D02*
X13828537Y-16771549D01*
X15463537Y-16771549D02*
X15463537Y-2780549D01*
X7833537Y-2780549D02*
X15463537Y-2780549D01*
X8763537Y-16771549D02*
X7833537Y-16771549D01*
D11*
D12*
X8362000Y-5542600D02*
X8402000Y-5582600D01*
X8402000Y-5542600D02*
X8362000Y-5582600D01*
X8605840Y-16357920D02*
X8645840Y-16397920D01*
X8645840Y-16357920D02*
X8605840Y-16397920D01*
X8641400Y-6929440D02*
X8681400Y-6969440D01*
X8681400Y-6929440D02*
X8641400Y-6969440D01*
X8651451Y-6421549D02*
X8691451Y-6461549D01*
X8691451Y-6421549D02*
X8651451Y-6461549D01*
X8652143Y-4531098D02*
X8692143Y-4571098D01*
X8692143Y-4531098D02*
X8652143Y-4571098D01*
X8669340Y-4770440D02*
X8709340Y-4810440D01*
X8709340Y-4770440D02*
X8669340Y-4810440D01*
X8725220Y-4010980D02*
X8765220Y-4050980D01*
X8765220Y-4010980D02*
X8725220Y-4050980D01*
X9022400Y-3812860D02*
X9062400Y-3852860D01*
X9062400Y-3812860D02*
X9022400Y-3852860D01*
X9045369Y-12263549D02*
X9085369Y-12303549D01*
X9085369Y-12263549D02*
X9045369Y-12303549D01*
X9146860Y-12105960D02*
X9186860Y-12145960D01*
X9186860Y-12105960D02*
X9146860Y-12145960D01*
X9251000Y-5491800D02*
X9291000Y-5531800D01*
X9291000Y-5491800D02*
X9251000Y-5531800D01*
X9344871Y-8961549D02*
X9384871Y-9001549D01*
X9384871Y-8961549D02*
X9344871Y-9001549D01*
X9353183Y-6817097D02*
X9393183Y-6857097D01*
X9393183Y-6817097D02*
X9353183Y-6857097D01*
X9367840Y-8458520D02*
X9407840Y-8498520D01*
X9407840Y-8458520D02*
X9367840Y-8498520D01*
X9403400Y-9598980D02*
X9443400Y-9638980D01*
X9443400Y-9598980D02*
X9403400Y-9638980D01*
X9731060Y-13061000D02*
X9771060Y-13101000D01*
X9771060Y-13061000D02*
X9731060Y-13101000D01*
X9741220Y-7998780D02*
X9781220Y-8038780D01*
X9781220Y-7998780D02*
X9741220Y-8038780D01*
X9797100Y-6144580D02*
X9837100Y-6184580D01*
X9837100Y-6144580D02*
X9797100Y-6184580D01*
X9814880Y-5141280D02*
X9854880Y-5181280D01*
X9854880Y-5141280D02*
X9814880Y-5181280D01*
X9822391Y-4643549D02*
X9862391Y-4683549D01*
X9862391Y-4643549D02*
X9822391Y-4683549D01*
X9822500Y-11890060D02*
X9862500Y-11930060D01*
X9862500Y-11890060D02*
X9822500Y-11930060D01*
X9837740Y-9103680D02*
X9877740Y-9143680D01*
X9877740Y-9103680D02*
X9837740Y-9143680D01*
X9930184Y-12097336D02*
X9970184Y-12137336D01*
X9970184Y-12097336D02*
X9930184Y-12137336D01*
X9997557Y-14048857D02*
X10037557Y-14088857D01*
X10037557Y-14048857D02*
X9997557Y-14088857D01*
X10029008Y-11270300D02*
X10069008Y-11310300D01*
X10069008Y-11270300D02*
X10029008Y-11310300D01*
X10073960Y-4021140D02*
X10113960Y-4061140D01*
X10113960Y-4021140D02*
X10073960Y-4061140D01*
X10073960Y-16050580D02*
X10113960Y-16090580D01*
X10113960Y-16050580D02*
X10073960Y-16090580D01*
X10106980Y-8201980D02*
X10146980Y-8241980D01*
X10146980Y-8201980D02*
X10106980Y-8241980D01*
X10162860Y-16429040D02*
X10202860Y-16469040D01*
X10202860Y-16429040D02*
X10162860Y-16469040D01*
X10172911Y-6421549D02*
X10212911Y-6461549D01*
X10212911Y-6421549D02*
X10172911Y-6461549D01*
X10190800Y-5339400D02*
X10230800Y-5379400D01*
X10230800Y-5339400D02*
X10190800Y-5379400D01*
X10308097Y-16360003D02*
X10348097Y-16400003D01*
X10348097Y-16360003D02*
X10308097Y-16400003D01*
X10343200Y-5542600D02*
X10383200Y-5582600D01*
X10383200Y-5542600D02*
X10343200Y-5582600D01*
X10489457Y-16528209D02*
X10529457Y-16568209D01*
X10529457Y-16528209D02*
X10489457Y-16568209D01*
X10525498Y-4277098D02*
X10565498Y-4317098D01*
X10565498Y-4277098D02*
X10525498Y-4317098D01*
X10534283Y-7960097D02*
X10574283Y-8000097D01*
X10574283Y-7960097D02*
X10534283Y-8000097D01*
X10581960Y-12151680D02*
X10621960Y-12191680D01*
X10621960Y-12151680D02*
X10581960Y-12191680D01*
X10592120Y-12278680D02*
X10632120Y-12318680D01*
X10632120Y-12278680D02*
X10592120Y-12318680D01*
X10620060Y-3256600D02*
X10660060Y-3296600D01*
X10660060Y-3256600D02*
X10620060Y-3296600D01*
X10622600Y-5339400D02*
X10662600Y-5379400D01*
X10662600Y-5339400D02*
X10622600Y-5379400D01*
X10648000Y-16533180D02*
X10688000Y-16573180D01*
X10688000Y-16533180D02*
X10648000Y-16573180D01*
X10675940Y-4722180D02*
X10715940Y-4762180D01*
X10715940Y-4722180D02*
X10675940Y-4762180D01*
X10703880Y-16418880D02*
X10743880Y-16458880D01*
X10743880Y-16418880D02*
X10703880Y-16458880D01*
X10738170Y-16249970D02*
X10778170Y-16289970D01*
X10778170Y-16249970D02*
X10738170Y-16289970D01*
X10764840Y-3287080D02*
X10804840Y-3327080D01*
X10804840Y-3287080D02*
X10764840Y-3327080D01*
X10777540Y-4201480D02*
X10817540Y-4241480D01*
X10817540Y-4201480D02*
X10777540Y-4241480D01*
X10795320Y-6792280D02*
X10835320Y-6832280D01*
X10835320Y-6792280D02*
X10795320Y-6832280D01*
X10799600Y-14662000D02*
X10839600Y-14702000D01*
X10839600Y-14662000D02*
X10799600Y-14702000D01*
X10825800Y-7549200D02*
X10865800Y-7589200D01*
X10865800Y-7549200D02*
X10825800Y-7589200D01*
X10825800Y-11994200D02*
X10865800Y-12034200D01*
X10865800Y-11994200D02*
X10825800Y-12034200D01*
X10861360Y-4577400D02*
X10901360Y-4617400D01*
X10901360Y-4577400D02*
X10861360Y-4617400D01*
X10861360Y-4737420D02*
X10901360Y-4777420D01*
X10901360Y-4737420D02*
X10861360Y-4777420D01*
X10876600Y-6939600D02*
X10916600Y-6979600D01*
X10916600Y-6939600D02*
X10876600Y-6979600D01*
X10879140Y-6698300D02*
X10919140Y-6738300D01*
X10919140Y-6698300D02*
X10879140Y-6738300D01*
X10891731Y-15057549D02*
X10931731Y-15097549D01*
X10931731Y-15057549D02*
X10891731Y-15097549D01*
X10902000Y-7168200D02*
X10942000Y-7208200D01*
X10942000Y-7168200D02*
X10902000Y-7208200D01*
X10937451Y-4643549D02*
X10977451Y-4683549D01*
X10977451Y-4643549D02*
X10937451Y-4683549D01*
X10942640Y-4193860D02*
X10982640Y-4233860D01*
X10982640Y-4193860D02*
X10942640Y-4233860D01*
X10962960Y-16050580D02*
X11002960Y-16090580D01*
X11002960Y-16050580D02*
X10962960Y-16090580D01*
X10968040Y-11770680D02*
X11008040Y-11810680D01*
X11008040Y-11770680D02*
X10968040Y-11810680D01*
X10985820Y-3063560D02*
X11025820Y-3103560D01*
X11025820Y-3063560D02*
X10985820Y-3103560D01*
X11087420Y-3160080D02*
X11127420Y-3200080D01*
X11127420Y-3160080D02*
X11087420Y-3200080D01*
X11253790Y-12803190D02*
X11293790Y-12843190D01*
X11293790Y-12803190D02*
X11253790Y-12843190D01*
X11283000Y-15499400D02*
X11323000Y-15539400D01*
X11323000Y-15499400D02*
X11283000Y-15539400D01*
X11325597Y-9103098D02*
X11365597Y-9143098D01*
X11365597Y-9103098D02*
X11325597Y-9143098D01*
X11331151Y-13787549D02*
X11371151Y-13827549D01*
X11371151Y-13787549D02*
X11331151Y-13827549D01*
X11354120Y-6162360D02*
X11394120Y-6202360D01*
X11394120Y-6162360D02*
X11354120Y-6202360D01*
X11359200Y-7803200D02*
X11399200Y-7843200D01*
X11399200Y-7803200D02*
X11359200Y-7843200D01*
X11366820Y-16124240D02*
X11406820Y-16164240D01*
X11406820Y-16124240D02*
X11366820Y-16164240D01*
X11374440Y-3063560D02*
X11414440Y-3103560D01*
X11414440Y-3063560D02*
X11374440Y-3103560D01*
X11439271Y-15901929D02*
X11479271Y-15941929D01*
X11479271Y-15901929D02*
X11439271Y-15941929D01*
X11460800Y-5491800D02*
X11500800Y-5531800D01*
X11500800Y-5491800D02*
X11460800Y-5531800D01*
X11486200Y-7422200D02*
X11526200Y-7462200D01*
X11526200Y-7422200D02*
X11486200Y-7462200D01*
X11486200Y-9962200D02*
X11526200Y-10002200D01*
X11526200Y-9962200D02*
X11486200Y-10002200D01*
X11575647Y-15309447D02*
X11615647Y-15349447D01*
X11615647Y-15309447D02*
X11575647Y-15349447D01*
X11638600Y-11181400D02*
X11678600Y-11221400D01*
X11678600Y-11181400D02*
X11638600Y-11221400D01*
X11642988Y-7646412D02*
X11682988Y-7686412D01*
X11682988Y-7646412D02*
X11642988Y-7686412D01*
X11676700Y-3094040D02*
X11716700Y-3134040D01*
X11716700Y-3094040D02*
X11676700Y-3134040D01*
X11677871Y-5231549D02*
X11717871Y-5271549D01*
X11717871Y-5231549D02*
X11677871Y-5271549D01*
X11688130Y-12988610D02*
X11728130Y-13028610D01*
X11728130Y-12988610D02*
X11688130Y-13028610D01*
X11706597Y-5039098D02*
X11746597Y-5079098D01*
X11746597Y-5039098D02*
X11706597Y-5079098D01*
X11763060Y-14811060D02*
X11803060Y-14851060D01*
X11803060Y-14811060D02*
X11763060Y-14851060D01*
X11892537Y-16439263D02*
X11932537Y-16479263D01*
X11932537Y-16439263D02*
X11892537Y-16479263D01*
X11892600Y-11333800D02*
X11932600Y-11373800D01*
X11932600Y-11333800D02*
X11892600Y-11373800D01*
X11892600Y-15499400D02*
X11932600Y-15539400D01*
X11932600Y-15499400D02*
X11892600Y-15539400D01*
X11919270Y-7756210D02*
X11959270Y-7796210D01*
X11959270Y-7756210D02*
X11919270Y-7796210D01*
X11943400Y-5517200D02*
X11983400Y-5557200D01*
X11983400Y-5517200D02*
X11943400Y-5557200D01*
X12060447Y-16549799D02*
X12100447Y-16589799D01*
X12100447Y-16549799D02*
X12060447Y-16589799D01*
X12100989Y-9215549D02*
X12140989Y-9255549D01*
X12140989Y-9215549D02*
X12100989Y-9255549D01*
X12146600Y-15245400D02*
X12186600Y-15285400D01*
X12186600Y-15245400D02*
X12146600Y-15285400D01*
X12189780Y-10749600D02*
X12229780Y-10789600D01*
X12229780Y-10749600D02*
X12189780Y-10789600D01*
X12209427Y-16579573D02*
X12249427Y-16619573D01*
X12249427Y-16579573D02*
X12209427Y-16619573D01*
X12230000Y-3980000D02*
X12270000Y-4020000D01*
X12270000Y-3980000D02*
X12230000Y-4020000D01*
X12349800Y-5491800D02*
X12389800Y-5531800D01*
X12389800Y-5491800D02*
X12349800Y-5531800D01*
X12410760Y-12034840D02*
X12450760Y-12074840D01*
X12450760Y-12034840D02*
X12410760Y-12074840D01*
X12410760Y-14648500D02*
X12450760Y-14688500D01*
X12450760Y-14648500D02*
X12410760Y-14688500D01*
X12415840Y-4249740D02*
X12455840Y-4289740D01*
X12455840Y-4249740D02*
X12415840Y-4289740D01*
X12428540Y-13904280D02*
X12468540Y-13944280D01*
X12468540Y-13904280D02*
X12428540Y-13944280D01*
X12451400Y-15905800D02*
X12491400Y-15945800D01*
X12491400Y-15905800D02*
X12451400Y-15945800D01*
X12469180Y-9126540D02*
X12509180Y-9166540D01*
X12509180Y-9126540D02*
X12469180Y-9166540D01*
X12504740Y-14310680D02*
X12544740Y-14350680D01*
X12544740Y-14310680D02*
X12504740Y-14350680D01*
X12526317Y-16669083D02*
X12566317Y-16709083D01*
X12566317Y-16669083D02*
X12526317Y-16709083D01*
X12527600Y-7727000D02*
X12567600Y-7767000D01*
X12567600Y-7727000D02*
X12527600Y-7767000D01*
X12743500Y-15105700D02*
X12783500Y-15145700D01*
X12783500Y-15105700D02*
X12743500Y-15145700D01*
X12807000Y-5491800D02*
X12847000Y-5531800D01*
X12847000Y-5491800D02*
X12807000Y-5531800D01*
X12870500Y-16172500D02*
X12910500Y-16212500D01*
X12910500Y-16172500D02*
X12870500Y-16212500D01*
X12893251Y-10231549D02*
X12933251Y-10271549D01*
X12933251Y-10231549D02*
X12893251Y-10271549D01*
X12915216Y-16305584D02*
X12955216Y-16345584D01*
X12955216Y-16305584D02*
X12915216Y-16345584D01*
X12994851Y-12771549D02*
X13034851Y-12811549D01*
X13034851Y-12771549D02*
X12994851Y-12811549D01*
X13060200Y-7550000D02*
X13100200Y-7590000D01*
X13100200Y-7550000D02*
X13060200Y-7590000D01*
X13160097Y-16624583D02*
X13200097Y-16664583D01*
X13200097Y-16624583D02*
X13160097Y-16664583D01*
X13162600Y-16058200D02*
X13202600Y-16098200D01*
X13202600Y-16058200D02*
X13162600Y-16098200D01*
X13167680Y-15499400D02*
X13207680Y-15539400D01*
X13207680Y-15499400D02*
X13167680Y-15539400D01*
X13180380Y-15245400D02*
X13220380Y-15285400D01*
X13220380Y-15245400D02*
X13180380Y-15285400D01*
X13264200Y-7320600D02*
X13304200Y-7360600D01*
X13304200Y-7320600D02*
X13264200Y-7360600D01*
X13264200Y-16363000D02*
X13304200Y-16403000D01*
X13304200Y-16363000D02*
X13264200Y-16403000D01*
X13386702Y-4531098D02*
X13426702Y-4571098D01*
X13426702Y-4531098D02*
X13386702Y-4571098D01*
X13391200Y-5237800D02*
X13431200Y-5277800D01*
X13431200Y-5237800D02*
X13391200Y-5277800D01*
X13391200Y-5390200D02*
X13431200Y-5430200D01*
X13431200Y-5390200D02*
X13391200Y-5430200D01*
X13391200Y-6812600D02*
X13431200Y-6852600D01*
X13431200Y-6812600D02*
X13391200Y-6852600D01*
X13402569Y-15317851D02*
X13442569Y-15357851D01*
X13442569Y-15317851D02*
X13402569Y-15357851D01*
X13423011Y-15426949D02*
X13463011Y-15466949D01*
X13463011Y-15426949D02*
X13423011Y-15466949D01*
X13507931Y-14041549D02*
X13547931Y-14081549D01*
X13547931Y-14041549D02*
X13507931Y-14081549D01*
X13516242Y-10119098D02*
X13556242Y-10159098D01*
X13556242Y-10119098D02*
X13516242Y-10159098D01*
X13518200Y-12057700D02*
X13558200Y-12097700D01*
X13558200Y-12057700D02*
X13518200Y-12097700D01*
X13551111Y-12517549D02*
X13591111Y-12557549D01*
X13591111Y-12517549D02*
X13551111Y-12557549D01*
X13553651Y-12263549D02*
X13593651Y-12303549D01*
X13593651Y-12263549D02*
X13553651Y-12303549D01*
X13555500Y-13138000D02*
X13595500Y-13178000D01*
X13595500Y-13138000D02*
X13555500Y-13178000D01*
X13556882Y-12405097D02*
X13596882Y-12445097D01*
X13596882Y-12405097D02*
X13556882Y-12445097D01*
X13569000Y-11958640D02*
X13609000Y-11998640D01*
X13609000Y-11958640D02*
X13569000Y-11998640D01*
X13581591Y-13279549D02*
X13621591Y-13319549D01*
X13621591Y-13279549D02*
X13581591Y-13319549D01*
X13609640Y-11067100D02*
X13649640Y-11107100D01*
X13649640Y-11067100D02*
X13609640Y-11107100D01*
X13610831Y-10789049D02*
X13650831Y-10829049D01*
X13650831Y-10789049D02*
X13610831Y-10829049D01*
X13615302Y-13421097D02*
X13655302Y-13461097D01*
X13655302Y-13421097D02*
X13615302Y-13461097D01*
X13619800Y-4755200D02*
X13659800Y-4795200D01*
X13659800Y-4755200D02*
X13619800Y-4795200D01*
X13662871Y-13533549D02*
X13702871Y-13573549D01*
X13702871Y-13533549D02*
X13662871Y-13573549D01*
X13699122Y-12151097D02*
X13739122Y-12191097D01*
X13739122Y-12151097D02*
X13699122Y-12191097D01*
X13704531Y-11343049D02*
X13744531Y-11383049D01*
X13744531Y-11343049D02*
X13704531Y-11383049D01*
X13751771Y-6675549D02*
X13791771Y-6715549D01*
X13791771Y-6675549D02*
X13751771Y-6715549D01*
X13751771Y-7437549D02*
X13791771Y-7477549D01*
X13791771Y-7437549D02*
X13751771Y-7477549D01*
X13760082Y-6309097D02*
X13800082Y-6349097D01*
X13800082Y-6309097D02*
X13760082Y-6349097D01*
X13839731Y-7682329D02*
X13879731Y-7722329D01*
X13879731Y-7682329D02*
X13839731Y-7722329D01*
X13840671Y-9469549D02*
X13880671Y-9509549D01*
X13880671Y-9469549D02*
X13840671Y-9509549D01*
X13841362Y-7071097D02*
X13881362Y-7111097D01*
X13881362Y-7071097D02*
X13841362Y-7111097D01*
X13843211Y-9723549D02*
X13883211Y-9763549D01*
X13883211Y-9723549D02*
X13843211Y-9763549D01*
X13843211Y-10485549D02*
X13883211Y-10525549D01*
X13883211Y-10485549D02*
X13843211Y-10525549D01*
X13843320Y-9598980D02*
X13883320Y-9638980D01*
X13883320Y-9598980D02*
X13843320Y-9638980D01*
X13843902Y-10373098D02*
X13883902Y-10413098D01*
X13883902Y-10373098D02*
X13843902Y-10413098D01*
X13844531Y-8236329D02*
X13884531Y-8276329D01*
X13884531Y-8236329D02*
X13844531Y-8276329D01*
X13889622Y-9357098D02*
X13929622Y-9397098D01*
X13929622Y-9357098D02*
X13889622Y-9397098D01*
X13917831Y-6435829D02*
X13957831Y-6475829D01*
X13957831Y-6435829D02*
X13917831Y-6475829D01*
X13929571Y-8707549D02*
X13969571Y-8747549D01*
X13969571Y-8707549D02*
X13929571Y-8747549D01*
X13986271Y-6712829D02*
X14026271Y-6752829D01*
X14026271Y-6712829D02*
X13986271Y-6752829D01*
X14006462Y-8595098D02*
X14046462Y-8635098D01*
X14046462Y-8595098D02*
X14006462Y-8635098D01*
X14034391Y-6989829D02*
X14074391Y-7029829D01*
X14074391Y-6989829D02*
X14034391Y-7029829D01*
X14093934Y-7195294D02*
X14133934Y-7235294D01*
X14133934Y-7195294D02*
X14093934Y-7235294D01*
X14506260Y-10134920D02*
X14546260Y-10174920D01*
X14546260Y-10134920D02*
X14506260Y-10174920D01*
X14713270Y-12500930D02*
X14753270Y-12540930D01*
X14753270Y-12500930D02*
X14713270Y-12540930D01*
X14981240Y-5212400D02*
X15021240Y-5252400D01*
X15021240Y-5212400D02*
X14981240Y-5252400D01*
D13*
X8903537Y-3393549D02*
G75*
G03*
X8903537Y-3393549I-40000J0D01*
G01*
X8903537Y-3647549D02*
G75*
G03*
X8903537Y-3647549I-40000J0D01*
G01*
X8903537Y-3901549D02*
G75*
G03*
X8903537Y-3901549I-40000J0D01*
G01*
X8903537Y-4155549D02*
G75*
G03*
X8903537Y-4155549I-40000J0D01*
G01*
X8903537Y-4409549D02*
G75*
G03*
X8903537Y-4409549I-40000J0D01*
G01*
X8903537Y-4663549D02*
G75*
G03*
X8903537Y-4663549I-40000J0D01*
G01*
X8903537Y-4917549D02*
G75*
G03*
X8903537Y-4917549I-40000J0D01*
G01*
X8903537Y-5171549D02*
G75*
G03*
X8903537Y-5171549I-40000J0D01*
G01*
X8903537Y-5933549D02*
G75*
G03*
X8903537Y-5933549I-40000J0D01*
G01*
X8903537Y-6187549D02*
G75*
G03*
X8903537Y-6187549I-40000J0D01*
G01*
X8903537Y-6441549D02*
G75*
G03*
X8903537Y-6441549I-40000J0D01*
G01*
X8903537Y-6695549D02*
G75*
G03*
X8903537Y-6695549I-40000J0D01*
G01*
X8903537Y-6949549D02*
G75*
G03*
X8903537Y-6949549I-40000J0D01*
G01*
X8903537Y-7203549D02*
G75*
G03*
X8903537Y-7203549I-40000J0D01*
G01*
X8903537Y-7457549D02*
G75*
G03*
X8903537Y-7457549I-40000J0D01*
G01*
X8903537Y-8473549D02*
G75*
G03*
X8903537Y-8473549I-40000J0D01*
G01*
X8903537Y-8727549D02*
G75*
G03*
X8903537Y-8727549I-40000J0D01*
G01*
X8903537Y-8981549D02*
G75*
G03*
X8903537Y-8981549I-40000J0D01*
G01*
X8903537Y-9235549D02*
G75*
G03*
X8903537Y-9235549I-40000J0D01*
G01*
X8903537Y-9489549D02*
G75*
G03*
X8903537Y-9489549I-40000J0D01*
G01*
X8903537Y-9743549D02*
G75*
G03*
X8903537Y-9743549I-40000J0D01*
G01*
X8903537Y-9997549D02*
G75*
G03*
X8903537Y-9997549I-40000J0D01*
G01*
X8903537Y-11013549D02*
G75*
G03*
X8903537Y-11013549I-40000J0D01*
G01*
X8903537Y-11267549D02*
G75*
G03*
X8903537Y-11267549I-40000J0D01*
G01*
X8903537Y-11521549D02*
G75*
G03*
X8903537Y-11521549I-40000J0D01*
G01*
X8903537Y-11775549D02*
G75*
G03*
X8903537Y-11775549I-40000J0D01*
G01*
X8903537Y-12029549D02*
G75*
G03*
X8903537Y-12029549I-40000J0D01*
G01*
X8903537Y-12283549D02*
G75*
G03*
X8903537Y-12283549I-40000J0D01*
G01*
X8903537Y-12537549D02*
G75*
G03*
X8903537Y-12537549I-40000J0D01*
G01*
X9161537Y-16347549D02*
G75*
G03*
X9161537Y-16347549I-40000J0D01*
G01*
X9411537Y-16347549D02*
G75*
G03*
X9411537Y-16347549I-40000J0D01*
G01*
X9665537Y-3393549D02*
G75*
G03*
X9665537Y-3393549I-40000J0D01*
G01*
X9665537Y-3647549D02*
G75*
G03*
X9665537Y-3647549I-40000J0D01*
G01*
X9665537Y-3901549D02*
G75*
G03*
X9665537Y-3901549I-40000J0D01*
G01*
X9665537Y-4155549D02*
G75*
G03*
X9665537Y-4155549I-40000J0D01*
G01*
X9665537Y-4409549D02*
G75*
G03*
X9665537Y-4409549I-40000J0D01*
G01*
X9665537Y-4663549D02*
G75*
G03*
X9665537Y-4663549I-40000J0D01*
G01*
X9665537Y-4917549D02*
G75*
G03*
X9665537Y-4917549I-40000J0D01*
G01*
X9665537Y-5171549D02*
G75*
G03*
X9665537Y-5171549I-40000J0D01*
G01*
X9665537Y-5933549D02*
G75*
G03*
X9665537Y-5933549I-40000J0D01*
G01*
X9665537Y-6187549D02*
G75*
G03*
X9665537Y-6187549I-40000J0D01*
G01*
X9665537Y-6441549D02*
G75*
G03*
X9665537Y-6441549I-40000J0D01*
G01*
X9665537Y-6695549D02*
G75*
G03*
X9665537Y-6695549I-40000J0D01*
G01*
X9665537Y-6949549D02*
G75*
G03*
X9665537Y-6949549I-40000J0D01*
G01*
X9665537Y-7203549D02*
G75*
G03*
X9665537Y-7203549I-40000J0D01*
G01*
X9665537Y-7457549D02*
G75*
G03*
X9665537Y-7457549I-40000J0D01*
G01*
X9665537Y-8473549D02*
G75*
G03*
X9665537Y-8473549I-40000J0D01*
G01*
X9665537Y-8727549D02*
G75*
G03*
X9665537Y-8727549I-40000J0D01*
G01*
X9665537Y-8981549D02*
G75*
G03*
X9665537Y-8981549I-40000J0D01*
G01*
X9665537Y-9235549D02*
G75*
G03*
X9665537Y-9235549I-40000J0D01*
G01*
X9665537Y-9489549D02*
G75*
G03*
X9665537Y-9489549I-40000J0D01*
G01*
X9665537Y-9743549D02*
G75*
G03*
X9665537Y-9743549I-40000J0D01*
G01*
X9665537Y-9997549D02*
G75*
G03*
X9665537Y-9997549I-40000J0D01*
G01*
X9665537Y-11013549D02*
G75*
G03*
X9665537Y-11013549I-40000J0D01*
G01*
X9665537Y-11267549D02*
G75*
G03*
X9665537Y-11267549I-40000J0D01*
G01*
X9665537Y-11521549D02*
G75*
G03*
X9665537Y-11521549I-40000J0D01*
G01*
X9665537Y-11775549D02*
G75*
G03*
X9665537Y-11775549I-40000J0D01*
G01*
X9665537Y-12029549D02*
G75*
G03*
X9665537Y-12029549I-40000J0D01*
G01*
X9665537Y-12283549D02*
G75*
G03*
X9665537Y-12283549I-40000J0D01*
G01*
X9665537Y-12537549D02*
G75*
G03*
X9665537Y-12537549I-40000J0D01*
G01*
X10427537Y-3393549D02*
G75*
G03*
X10427537Y-3393549I-40000J0D01*
G01*
X10427537Y-3647549D02*
G75*
G03*
X10427537Y-3647549I-40000J0D01*
G01*
X10427537Y-3901549D02*
G75*
G03*
X10427537Y-3901549I-40000J0D01*
G01*
X10427537Y-4155549D02*
G75*
G03*
X10427537Y-4155549I-40000J0D01*
G01*
X10427537Y-4409549D02*
G75*
G03*
X10427537Y-4409549I-40000J0D01*
G01*
X10427537Y-4663549D02*
G75*
G03*
X10427537Y-4663549I-40000J0D01*
G01*
X10427537Y-4917549D02*
G75*
G03*
X10427537Y-4917549I-40000J0D01*
G01*
X10427537Y-5933549D02*
G75*
G03*
X10427537Y-5933549I-40000J0D01*
G01*
X10427537Y-6187549D02*
G75*
G03*
X10427537Y-6187549I-40000J0D01*
G01*
X10427537Y-6441549D02*
G75*
G03*
X10427537Y-6441549I-40000J0D01*
G01*
X10427537Y-6695549D02*
G75*
G03*
X10427537Y-6695549I-40000J0D01*
G01*
X10427537Y-6949549D02*
G75*
G03*
X10427537Y-6949549I-40000J0D01*
G01*
X10427537Y-7203549D02*
G75*
G03*
X10427537Y-7203549I-40000J0D01*
G01*
X10427537Y-7457549D02*
G75*
G03*
X10427537Y-7457549I-40000J0D01*
G01*
X10427537Y-7711549D02*
G75*
G03*
X10427537Y-7711549I-40000J0D01*
G01*
X10427537Y-8473549D02*
G75*
G03*
X10427537Y-8473549I-40000J0D01*
G01*
X10427537Y-8727549D02*
G75*
G03*
X10427537Y-8727549I-40000J0D01*
G01*
X10427537Y-8981549D02*
G75*
G03*
X10427537Y-8981549I-40000J0D01*
G01*
X10427537Y-9235549D02*
G75*
G03*
X10427537Y-9235549I-40000J0D01*
G01*
X10427537Y-9489549D02*
G75*
G03*
X10427537Y-9489549I-40000J0D01*
G01*
X10427537Y-9743549D02*
G75*
G03*
X10427537Y-9743549I-40000J0D01*
G01*
X10427537Y-9997549D02*
G75*
G03*
X10427537Y-9997549I-40000J0D01*
G01*
X10427537Y-10251549D02*
G75*
G03*
X10427537Y-10251549I-40000J0D01*
G01*
X10427537Y-11013549D02*
G75*
G03*
X10427537Y-11013549I-40000J0D01*
G01*
X10427537Y-11267549D02*
G75*
G03*
X10427537Y-11267549I-40000J0D01*
G01*
X10427537Y-11521549D02*
G75*
G03*
X10427537Y-11521549I-40000J0D01*
G01*
X10427537Y-11775549D02*
G75*
G03*
X10427537Y-11775549I-40000J0D01*
G01*
X10427537Y-12029549D02*
G75*
G03*
X10427537Y-12029549I-40000J0D01*
G01*
X10427537Y-12283549D02*
G75*
G03*
X10427537Y-12283549I-40000J0D01*
G01*
X10427537Y-12537549D02*
G75*
G03*
X10427537Y-12537549I-40000J0D01*
G01*
X10427537Y-13553549D02*
G75*
G03*
X10427537Y-13553549I-40000J0D01*
G01*
X10427537Y-13807549D02*
G75*
G03*
X10427537Y-13807549I-40000J0D01*
G01*
X10427537Y-14061549D02*
G75*
G03*
X10427537Y-14061549I-40000J0D01*
G01*
X10427537Y-14315549D02*
G75*
G03*
X10427537Y-14315549I-40000J0D01*
G01*
X10427537Y-14569549D02*
G75*
G03*
X10427537Y-14569549I-40000J0D01*
G01*
X10427537Y-14823549D02*
G75*
G03*
X10427537Y-14823549I-40000J0D01*
G01*
X10427537Y-15077549D02*
G75*
G03*
X10427537Y-15077549I-40000J0D01*
G01*
X10427537Y-15331549D02*
G75*
G03*
X10427537Y-15331549I-40000J0D01*
G01*
X11189537Y-3393549D02*
G75*
G03*
X11189537Y-3393549I-40000J0D01*
G01*
X11189537Y-3647549D02*
G75*
G03*
X11189537Y-3647549I-40000J0D01*
G01*
X11189537Y-3901549D02*
G75*
G03*
X11189537Y-3901549I-40000J0D01*
G01*
X11189537Y-4155549D02*
G75*
G03*
X11189537Y-4155549I-40000J0D01*
G01*
X11189537Y-4409549D02*
G75*
G03*
X11189537Y-4409549I-40000J0D01*
G01*
X11189537Y-4663549D02*
G75*
G03*
X11189537Y-4663549I-40000J0D01*
G01*
X11189537Y-4917549D02*
G75*
G03*
X11189537Y-4917549I-40000J0D01*
G01*
X11189537Y-5933549D02*
G75*
G03*
X11189537Y-5933549I-40000J0D01*
G01*
X11189537Y-6187549D02*
G75*
G03*
X11189537Y-6187549I-40000J0D01*
G01*
X11189537Y-6441549D02*
G75*
G03*
X11189537Y-6441549I-40000J0D01*
G01*
X11189537Y-6695549D02*
G75*
G03*
X11189537Y-6695549I-40000J0D01*
G01*
X11189537Y-6949549D02*
G75*
G03*
X11189537Y-6949549I-40000J0D01*
G01*
X11189537Y-7203549D02*
G75*
G03*
X11189537Y-7203549I-40000J0D01*
G01*
X11189537Y-7457549D02*
G75*
G03*
X11189537Y-7457549I-40000J0D01*
G01*
X11189537Y-7711549D02*
G75*
G03*
X11189537Y-7711549I-40000J0D01*
G01*
X11189537Y-8473549D02*
G75*
G03*
X11189537Y-8473549I-40000J0D01*
G01*
X11189537Y-8727549D02*
G75*
G03*
X11189537Y-8727549I-40000J0D01*
G01*
X11189537Y-8981549D02*
G75*
G03*
X11189537Y-8981549I-40000J0D01*
G01*
X11189537Y-9235549D02*
G75*
G03*
X11189537Y-9235549I-40000J0D01*
G01*
X11189537Y-9489549D02*
G75*
G03*
X11189537Y-9489549I-40000J0D01*
G01*
X11189537Y-9743549D02*
G75*
G03*
X11189537Y-9743549I-40000J0D01*
G01*
X11189537Y-9997549D02*
G75*
G03*
X11189537Y-9997549I-40000J0D01*
G01*
X11189537Y-10251549D02*
G75*
G03*
X11189537Y-10251549I-40000J0D01*
G01*
X11189537Y-11013549D02*
G75*
G03*
X11189537Y-11013549I-40000J0D01*
G01*
X11189537Y-11267549D02*
G75*
G03*
X11189537Y-11267549I-40000J0D01*
G01*
X11189537Y-11521549D02*
G75*
G03*
X11189537Y-11521549I-40000J0D01*
G01*
X11189537Y-11775549D02*
G75*
G03*
X11189537Y-11775549I-40000J0D01*
G01*
X11189537Y-12029549D02*
G75*
G03*
X11189537Y-12029549I-40000J0D01*
G01*
X11189537Y-12283549D02*
G75*
G03*
X11189537Y-12283549I-40000J0D01*
G01*
X11189537Y-12537549D02*
G75*
G03*
X11189537Y-12537549I-40000J0D01*
G01*
X11189537Y-13553549D02*
G75*
G03*
X11189537Y-13553549I-40000J0D01*
G01*
X11189537Y-13807549D02*
G75*
G03*
X11189537Y-13807549I-40000J0D01*
G01*
X11189537Y-14061549D02*
G75*
G03*
X11189537Y-14061549I-40000J0D01*
G01*
X11189537Y-14315549D02*
G75*
G03*
X11189537Y-14315549I-40000J0D01*
G01*
X11189537Y-14569549D02*
G75*
G03*
X11189537Y-14569549I-40000J0D01*
G01*
X11189537Y-14823549D02*
G75*
G03*
X11189537Y-14823549I-40000J0D01*
G01*
X11189537Y-15077549D02*
G75*
G03*
X11189537Y-15077549I-40000J0D01*
G01*
X11189537Y-15331549D02*
G75*
G03*
X11189537Y-15331549I-40000J0D01*
G01*
X11570537Y-8092549D02*
G75*
G03*
X11570537Y-8092549I-40000J0D01*
G01*
X11824537Y-8092549D02*
G75*
G03*
X11824537Y-8092549I-40000J0D01*
G01*
X11951537Y-3393549D02*
G75*
G03*
X11951537Y-3393549I-40000J0D01*
G01*
X11951537Y-3647549D02*
G75*
G03*
X11951537Y-3647549I-40000J0D01*
G01*
X11951537Y-3901549D02*
G75*
G03*
X11951537Y-3901549I-40000J0D01*
G01*
X11951537Y-4155549D02*
G75*
G03*
X11951537Y-4155549I-40000J0D01*
G01*
X11951537Y-4409549D02*
G75*
G03*
X11951537Y-4409549I-40000J0D01*
G01*
X11951537Y-4663549D02*
G75*
G03*
X11951537Y-4663549I-40000J0D01*
G01*
X11951537Y-4917549D02*
G75*
G03*
X11951537Y-4917549I-40000J0D01*
G01*
X11951537Y-5933549D02*
G75*
G03*
X11951537Y-5933549I-40000J0D01*
G01*
X11951537Y-6187549D02*
G75*
G03*
X11951537Y-6187549I-40000J0D01*
G01*
X11951537Y-6441549D02*
G75*
G03*
X11951537Y-6441549I-40000J0D01*
G01*
X11951537Y-6695549D02*
G75*
G03*
X11951537Y-6695549I-40000J0D01*
G01*
X11951537Y-6949549D02*
G75*
G03*
X11951537Y-6949549I-40000J0D01*
G01*
X11951537Y-7203549D02*
G75*
G03*
X11951537Y-7203549I-40000J0D01*
G01*
X11951537Y-7457549D02*
G75*
G03*
X11951537Y-7457549I-40000J0D01*
G01*
X11951537Y-8473549D02*
G75*
G03*
X11951537Y-8473549I-40000J0D01*
G01*
X11951537Y-8727549D02*
G75*
G03*
X11951537Y-8727549I-40000J0D01*
G01*
X11951537Y-8981549D02*
G75*
G03*
X11951537Y-8981549I-40000J0D01*
G01*
X11951537Y-9235549D02*
G75*
G03*
X11951537Y-9235549I-40000J0D01*
G01*
X11951537Y-9489549D02*
G75*
G03*
X11951537Y-9489549I-40000J0D01*
G01*
X11951537Y-9743549D02*
G75*
G03*
X11951537Y-9743549I-40000J0D01*
G01*
X11951537Y-9997549D02*
G75*
G03*
X11951537Y-9997549I-40000J0D01*
G01*
X11951537Y-10251549D02*
G75*
G03*
X11951537Y-10251549I-40000J0D01*
G01*
X11951537Y-10505549D02*
G75*
G03*
X11951537Y-10505549I-40000J0D01*
G01*
X11951537Y-10759549D02*
G75*
G03*
X11951537Y-10759549I-40000J0D01*
G01*
X11951537Y-11775549D02*
G75*
G03*
X11951537Y-11775549I-40000J0D01*
G01*
X11951537Y-12029549D02*
G75*
G03*
X11951537Y-12029549I-40000J0D01*
G01*
X11951537Y-12283549D02*
G75*
G03*
X11951537Y-12283549I-40000J0D01*
G01*
X11951537Y-12537549D02*
G75*
G03*
X11951537Y-12537549I-40000J0D01*
G01*
X11951537Y-12791549D02*
G75*
G03*
X11951537Y-12791549I-40000J0D01*
G01*
X11951537Y-13045549D02*
G75*
G03*
X11951537Y-13045549I-40000J0D01*
G01*
X11951537Y-13299549D02*
G75*
G03*
X11951537Y-13299549I-40000J0D01*
G01*
X11951537Y-13553549D02*
G75*
G03*
X11951537Y-13553549I-40000J0D01*
G01*
X11951537Y-13807549D02*
G75*
G03*
X11951537Y-13807549I-40000J0D01*
G01*
X11951537Y-14061549D02*
G75*
G03*
X11951537Y-14061549I-40000J0D01*
G01*
X12078537Y-8092549D02*
G75*
G03*
X12078537Y-8092549I-40000J0D01*
G01*
X12332537Y-8092549D02*
G75*
G03*
X12332537Y-8092549I-40000J0D01*
G01*
X12586537Y-8092549D02*
G75*
G03*
X12586537Y-8092549I-40000J0D01*
G01*
X12713537Y-3393549D02*
G75*
G03*
X12713537Y-3393549I-40000J0D01*
G01*
X12713537Y-3647549D02*
G75*
G03*
X12713537Y-3647549I-40000J0D01*
G01*
X12713537Y-3901549D02*
G75*
G03*
X12713537Y-3901549I-40000J0D01*
G01*
X12713537Y-4155549D02*
G75*
G03*
X12713537Y-4155549I-40000J0D01*
G01*
X12713537Y-4409549D02*
G75*
G03*
X12713537Y-4409549I-40000J0D01*
G01*
X12713537Y-4663549D02*
G75*
G03*
X12713537Y-4663549I-40000J0D01*
G01*
X12713537Y-4917549D02*
G75*
G03*
X12713537Y-4917549I-40000J0D01*
G01*
X12713537Y-5933549D02*
G75*
G03*
X12713537Y-5933549I-40000J0D01*
G01*
X12713537Y-6187549D02*
G75*
G03*
X12713537Y-6187549I-40000J0D01*
G01*
X12713537Y-6441549D02*
G75*
G03*
X12713537Y-6441549I-40000J0D01*
G01*
X12713537Y-6695549D02*
G75*
G03*
X12713537Y-6695549I-40000J0D01*
G01*
X12713537Y-6949549D02*
G75*
G03*
X12713537Y-6949549I-40000J0D01*
G01*
X12713537Y-7203549D02*
G75*
G03*
X12713537Y-7203549I-40000J0D01*
G01*
X12713537Y-7457549D02*
G75*
G03*
X12713537Y-7457549I-40000J0D01*
G01*
X12713537Y-8473549D02*
G75*
G03*
X12713537Y-8473549I-40000J0D01*
G01*
X12713537Y-8727549D02*
G75*
G03*
X12713537Y-8727549I-40000J0D01*
G01*
X12713537Y-8981549D02*
G75*
G03*
X12713537Y-8981549I-40000J0D01*
G01*
X12713537Y-9235549D02*
G75*
G03*
X12713537Y-9235549I-40000J0D01*
G01*
X12713537Y-9489549D02*
G75*
G03*
X12713537Y-9489549I-40000J0D01*
G01*
X12713537Y-9743549D02*
G75*
G03*
X12713537Y-9743549I-40000J0D01*
G01*
X12713537Y-9997549D02*
G75*
G03*
X12713537Y-9997549I-40000J0D01*
G01*
X12713537Y-10251549D02*
G75*
G03*
X12713537Y-10251549I-40000J0D01*
G01*
X12713537Y-10505549D02*
G75*
G03*
X12713537Y-10505549I-40000J0D01*
G01*
X12713537Y-10759549D02*
G75*
G03*
X12713537Y-10759549I-40000J0D01*
G01*
X12713537Y-11775549D02*
G75*
G03*
X12713537Y-11775549I-40000J0D01*
G01*
X12713537Y-12029549D02*
G75*
G03*
X12713537Y-12029549I-40000J0D01*
G01*
X12713537Y-12283549D02*
G75*
G03*
X12713537Y-12283549I-40000J0D01*
G01*
X12713537Y-12537549D02*
G75*
G03*
X12713537Y-12537549I-40000J0D01*
G01*
X12713537Y-12791549D02*
G75*
G03*
X12713537Y-12791549I-40000J0D01*
G01*
X12713537Y-13045549D02*
G75*
G03*
X12713537Y-13045549I-40000J0D01*
G01*
X12713537Y-13299549D02*
G75*
G03*
X12713537Y-13299549I-40000J0D01*
G01*
X12713537Y-13553549D02*
G75*
G03*
X12713537Y-13553549I-40000J0D01*
G01*
X12713537Y-13807549D02*
G75*
G03*
X12713537Y-13807549I-40000J0D01*
G01*
X12713537Y-14061549D02*
G75*
G03*
X12713537Y-14061549I-40000J0D01*
G01*
X12840537Y-8092549D02*
G75*
G03*
X12840537Y-8092549I-40000J0D01*
G01*
X13475537Y-3393549D02*
G75*
G03*
X13475537Y-3393549I-40000J0D01*
G01*
X13475537Y-3647549D02*
G75*
G03*
X13475537Y-3647549I-40000J0D01*
G01*
X13475537Y-3901549D02*
G75*
G03*
X13475537Y-3901549I-40000J0D01*
G01*
X13475537Y-4155549D02*
G75*
G03*
X13475537Y-4155549I-40000J0D01*
G01*
X13733537Y-16347549D02*
G75*
G03*
X13733537Y-16347549I-40000J0D01*
G01*
X13983537Y-16347549D02*
G75*
G03*
X13983537Y-16347549I-40000J0D01*
G01*
X14999537Y-3393549D02*
G75*
G03*
X14999537Y-3393549I-40000J0D01*
G01*
X14999537Y-3647549D02*
G75*
G03*
X14999537Y-3647549I-40000J0D01*
G01*
X14999537Y-3901549D02*
G75*
G03*
X14999537Y-3901549I-40000J0D01*
G01*
X14999537Y-4155549D02*
G75*
G03*
X14999537Y-4155549I-40000J0D01*
G01*
D14*
X8355537Y-3474549D02*
X8355537Y-3574549D01*
X8305537Y-3524549D02*
X8405537Y-3524549D01*
X8355537Y-3974549D02*
X8355537Y-4074549D01*
X8305537Y-4024549D02*
X8405537Y-4024549D01*
X8355537Y-5883549D02*
X8355537Y-5983549D01*
X8305537Y-5933549D02*
X8405537Y-5933549D01*
X8355537Y-6383549D02*
X8355537Y-6483549D01*
X8305537Y-6433549D02*
X8405537Y-6433549D01*
X8355537Y-8423549D02*
X8355537Y-8523549D01*
X8305537Y-8473549D02*
X8405537Y-8473549D01*
X8355537Y-8923549D02*
X8355537Y-9023549D01*
X8305537Y-8973549D02*
X8405537Y-8973549D01*
X8355537Y-10963549D02*
X8355537Y-11063549D01*
X8305537Y-11013549D02*
X8405537Y-11013549D01*
X8355537Y-11463549D02*
X8355537Y-11563549D01*
X8305537Y-11513549D02*
X8405537Y-11513549D01*
X8355537Y-13503549D02*
X8355537Y-13603549D01*
X8305537Y-13553549D02*
X8405537Y-13553549D01*
X8355537Y-14003549D02*
X8355537Y-14103549D01*
X8305537Y-14053549D02*
X8405537Y-14053549D01*
X11530537Y-3470549D02*
X11530537Y-3570549D01*
X11480537Y-3520549D02*
X11580537Y-3520549D01*
X11530537Y-3970549D02*
X11530537Y-4070549D01*
X11480537Y-4020549D02*
X11580537Y-4020549D01*
X11530537Y-5883549D02*
X11530537Y-5983549D01*
X11480537Y-5933549D02*
X11580537Y-5933549D01*
X11530537Y-6383549D02*
X11530537Y-6483549D01*
X11480537Y-6433549D02*
X11580537Y-6433549D01*
X11530537Y-8427549D02*
X11530537Y-8527549D01*
X11480537Y-8477549D02*
X11580537Y-8477549D01*
X11530537Y-8927549D02*
X11530537Y-9027549D01*
X11480537Y-8977549D02*
X11580537Y-8977549D01*
X11530537Y-11729549D02*
X11530537Y-11829549D01*
X11480537Y-11779549D02*
X11580537Y-11779549D01*
X11530537Y-12229549D02*
X11530537Y-12329549D01*
X11480537Y-12279549D02*
X11580537Y-12279549D01*
X13054537Y-13757549D02*
X13054537Y-13857549D01*
X13004537Y-13807549D02*
X13104537Y-13807549D01*
X13054537Y-14257549D02*
X13054537Y-14357549D01*
X13004537Y-14307549D02*
X13104537Y-14307549D01*
X14705537Y-4359549D02*
X14705537Y-4459549D01*
X14655537Y-4409549D02*
X14755537Y-4409549D01*
X14705537Y-4613549D02*
X14705537Y-4713549D01*
X14655537Y-4663549D02*
X14755537Y-4663549D01*
X14705537Y-4867549D02*
X14705537Y-4967549D01*
X14655537Y-4917549D02*
X14755537Y-4917549D01*
X14705537Y-13757549D02*
X14705537Y-13857549D01*
X14655537Y-13807549D02*
X14755537Y-13807549D01*
X14705537Y-14011549D02*
X14705537Y-14111549D01*
X14655537Y-14061549D02*
X14755537Y-14061549D01*
X14705537Y-14265549D02*
X14705537Y-14365549D01*
X14655537Y-14315549D02*
X14755537Y-14315549D01*
X14959537Y-4359549D02*
X14959537Y-4459549D01*
X14909537Y-4409549D02*
X15009537Y-4409549D01*
X14959537Y-4613549D02*
X14959537Y-4713549D01*
X14909537Y-4663549D02*
X15009537Y-4663549D01*
X14959537Y-4867549D02*
X14959537Y-4967549D01*
X14909537Y-4917549D02*
X15009537Y-4917549D01*
X14959537Y-13757549D02*
X14959537Y-13857549D01*
X14909537Y-13807549D02*
X15009537Y-13807549D01*
X14959537Y-14011549D02*
X14959537Y-14111549D01*
X14909537Y-14061549D02*
X15009537Y-14061549D01*
X14959537Y-14265549D02*
X14959537Y-14365549D01*
X14909537Y-14315549D02*
X15009537Y-14315549D01*
D15*
X14547755Y-6356220D02*
X14547755Y-6278437D01*
X14469973Y-6278437D01*
X14469973Y-6356220D01*
X14547755Y-6356220D01*
X14547755Y-6633220D02*
X14547755Y-6555437D01*
X14469973Y-6555437D01*
X14469973Y-6633220D01*
X14547755Y-6633220D01*
X14547755Y-6910220D02*
X14547755Y-6832437D01*
X14469973Y-6832437D01*
X14469973Y-6910220D01*
X14547755Y-6910220D01*
X14547755Y-7187220D02*
X14547755Y-7109437D01*
X14469973Y-7109437D01*
X14469973Y-7187220D01*
X14547755Y-7187220D01*
X14547755Y-7464220D02*
X14547755Y-7386437D01*
X14469973Y-7386437D01*
X14469973Y-7464220D01*
X14547755Y-7464220D01*
X14547755Y-7741220D02*
X14547755Y-7663437D01*
X14469973Y-7663437D01*
X14469973Y-7741220D01*
X14547755Y-7741220D01*
X14547755Y-8018220D02*
X14547755Y-7940437D01*
X14469973Y-7940437D01*
X14469973Y-8018220D01*
X14547755Y-8018220D01*
X14547755Y-8295220D02*
X14547755Y-8217437D01*
X14469973Y-8217437D01*
X14469973Y-8295220D01*
X14547755Y-8295220D01*
X14547755Y-10432440D02*
X14547755Y-10354657D01*
X14469973Y-10354657D01*
X14469973Y-10432440D01*
X14547755Y-10432440D01*
X14547755Y-10709440D02*
X14547755Y-10631657D01*
X14469973Y-10631657D01*
X14469973Y-10709440D01*
X14547755Y-10709440D01*
X14547755Y-10986440D02*
X14547755Y-10908657D01*
X14469973Y-10908657D01*
X14469973Y-10986440D01*
X14547755Y-10986440D01*
X14547755Y-11263440D02*
X14547755Y-11185657D01*
X14469973Y-11185657D01*
X14469973Y-11263440D01*
X14547755Y-11263440D01*
X14547755Y-11540440D02*
X14547755Y-11462657D01*
X14469973Y-11462657D01*
X14469973Y-11540440D01*
X14547755Y-11540440D01*
X14547755Y-11817440D02*
X14547755Y-11739657D01*
X14469973Y-11739657D01*
X14469973Y-11817440D01*
X14547755Y-11817440D01*
X14547755Y-12094440D02*
X14547755Y-12016657D01*
X14469973Y-12016657D01*
X14469973Y-12094440D01*
X14547755Y-12094440D01*
X14547755Y-12371440D02*
X14547755Y-12293657D01*
X14469973Y-12293657D01*
X14469973Y-12371440D01*
X14547755Y-12371440D01*
X14801755Y-6494720D02*
X14801755Y-6416937D01*
X14723973Y-6416937D01*
X14723973Y-6494720D01*
X14801755Y-6494720D01*
X14801755Y-6771720D02*
X14801755Y-6693937D01*
X14723973Y-6693937D01*
X14723973Y-6771720D01*
X14801755Y-6771720D01*
X14801755Y-7048720D02*
X14801755Y-6970937D01*
X14723973Y-6970937D01*
X14723973Y-7048720D01*
X14801755Y-7048720D01*
X14801755Y-7325720D02*
X14801755Y-7247937D01*
X14723973Y-7247937D01*
X14723973Y-7325720D01*
X14801755Y-7325720D01*
X14801755Y-7602720D02*
X14801755Y-7524937D01*
X14723973Y-7524937D01*
X14723973Y-7602720D01*
X14801755Y-7602720D01*
X14801755Y-7879720D02*
X14801755Y-7801937D01*
X14723973Y-7801937D01*
X14723973Y-7879720D01*
X14801755Y-7879720D01*
X14801755Y-8156720D02*
X14801755Y-8078937D01*
X14723973Y-8078937D01*
X14723973Y-8156720D01*
X14801755Y-8156720D01*
X14801755Y-10570940D02*
X14801755Y-10493157D01*
X14723973Y-10493157D01*
X14723973Y-10570940D01*
X14801755Y-10570940D01*
X14801755Y-10847940D02*
X14801755Y-10770157D01*
X14723973Y-10770157D01*
X14723973Y-10847940D01*
X14801755Y-10847940D01*
X14801755Y-11124940D02*
X14801755Y-11047157D01*
X14723973Y-11047157D01*
X14723973Y-11124940D01*
X14801755Y-11124940D01*
X14801755Y-11401940D02*
X14801755Y-11324157D01*
X14723973Y-11324157D01*
X14723973Y-11401940D01*
X14801755Y-11401940D01*
X14801755Y-11678940D02*
X14801755Y-11601157D01*
X14723973Y-11601157D01*
X14723973Y-11678940D01*
X14801755Y-11678940D01*
X14801755Y-11955940D02*
X14801755Y-11878157D01*
X14723973Y-11878157D01*
X14723973Y-11955940D01*
X14801755Y-11955940D01*
X14801755Y-12232940D02*
X14801755Y-12155157D01*
X14723973Y-12155157D01*
X14723973Y-12232940D01*
X14801755Y-12232940D01*
D16*
X14635864Y-5780829D02*
X14795864Y-5620829D01*
X14635864Y-5460829D01*
X14475864Y-5620829D01*
X14635864Y-5780829D01*
X14635864Y-9112829D02*
X14795864Y-8952829D01*
X14635864Y-8792829D01*
X14475864Y-8952829D01*
X14635864Y-9112829D01*
X14635864Y-9857049D02*
X14795864Y-9697049D01*
X14635864Y-9537049D01*
X14475864Y-9697049D01*
X14635864Y-9857049D01*
X14635864Y-13189049D02*
X14795864Y-13029049D01*
X14635864Y-12869049D01*
X14475864Y-13029049D01*
X14635864Y-13189049D01*
D11*
X8086156Y-17828025D02*
X8086156Y-17628025D01*
X8133775Y-17628025D01*
X8162347Y-17637549D01*
X8181394Y-17656596D01*
X8190918Y-17675644D01*
X8200442Y-17713739D01*
X8200442Y-17742311D01*
X8190918Y-17780406D01*
X8181394Y-17799453D01*
X8162347Y-17818501D01*
X8133775Y-17828025D01*
X8086156Y-17828025D01*
X8286156Y-17828025D02*
X8286156Y-17694691D01*
X8286156Y-17732787D02*
X8295680Y-17713739D01*
X8305204Y-17704215D01*
X8324251Y-17694691D01*
X8343299Y-17694691D01*
X8409966Y-17828025D02*
X8409966Y-17694691D01*
X8409966Y-17628025D02*
X8400442Y-17637549D01*
X8409966Y-17647072D01*
X8419490Y-17637549D01*
X8409966Y-17628025D01*
X8409966Y-17647072D01*
X8533775Y-17828025D02*
X8514728Y-17818501D01*
X8505204Y-17799453D01*
X8505204Y-17628025D01*
X8638537Y-17828025D02*
X8619490Y-17818501D01*
X8609966Y-17799453D01*
X8609966Y-17628025D01*
X8867109Y-17828025D02*
X8867109Y-17628025D01*
X8933775Y-17770882D01*
X9000442Y-17628025D01*
X9000442Y-17828025D01*
X9181394Y-17828025D02*
X9181394Y-17723263D01*
X9171871Y-17704215D01*
X9152823Y-17694691D01*
X9114728Y-17694691D01*
X9095680Y-17704215D01*
X9181394Y-17818501D02*
X9162347Y-17828025D01*
X9114728Y-17828025D01*
X9095680Y-17818501D01*
X9086156Y-17799453D01*
X9086156Y-17780406D01*
X9095680Y-17761358D01*
X9114728Y-17751834D01*
X9162347Y-17751834D01*
X9181394Y-17742311D01*
X9276633Y-17694691D02*
X9276633Y-17894691D01*
X9276633Y-17704215D02*
X9295680Y-17694691D01*
X9333775Y-17694691D01*
X9352823Y-17704215D01*
X9362347Y-17713739D01*
X9371871Y-17732787D01*
X9371871Y-17789930D01*
X9362347Y-17808977D01*
X9352823Y-17818501D01*
X9333775Y-17828025D01*
X9295680Y-17828025D01*
X9276633Y-17818501D01*
X9457585Y-17808977D02*
X9467109Y-17818501D01*
X9457585Y-17828025D01*
X9448061Y-17818501D01*
X9457585Y-17808977D01*
X9457585Y-17828025D01*
X9457585Y-17704215D02*
X9467109Y-17713739D01*
X9457585Y-17723263D01*
X9448061Y-17713739D01*
X9457585Y-17704215D01*
X9457585Y-17723263D01*
D12*
X7788537Y-18137549D02*
X7828537Y-18177549D01*
X7828537Y-18137549D02*
X7788537Y-18177549D01*
D11*
X8124251Y-18048025D02*
X8143299Y-18048025D01*
X8162347Y-18057549D01*
X8171871Y-18067072D01*
X8181394Y-18086120D01*
X8190918Y-18124215D01*
X8190918Y-18171834D01*
X8181394Y-18209930D01*
X8171871Y-18228977D01*
X8162347Y-18238501D01*
X8143299Y-18248025D01*
X8124251Y-18248025D01*
X8105204Y-18238501D01*
X8095680Y-18228977D01*
X8086156Y-18209930D01*
X8076632Y-18171834D01*
X8076632Y-18124215D01*
X8086156Y-18086120D01*
X8095680Y-18067072D01*
X8105204Y-18057549D01*
X8124251Y-18048025D01*
X8276632Y-18228977D02*
X8286156Y-18238501D01*
X8276632Y-18248025D01*
X8267109Y-18238501D01*
X8276632Y-18228977D01*
X8276632Y-18248025D01*
X8457585Y-18114691D02*
X8457585Y-18248025D01*
X8409966Y-18038501D02*
X8362347Y-18181358D01*
X8486156Y-18181358D01*
X8600442Y-18048025D02*
X8619490Y-18048025D01*
X8638537Y-18057549D01*
X8648061Y-18067072D01*
X8657585Y-18086120D01*
X8667109Y-18124215D01*
X8667109Y-18171834D01*
X8657585Y-18209930D01*
X8648061Y-18228977D01*
X8638537Y-18238501D01*
X8619490Y-18248025D01*
X8600442Y-18248025D01*
X8581394Y-18238501D01*
X8571871Y-18228977D01*
X8562347Y-18209930D01*
X8552823Y-18171834D01*
X8552823Y-18124215D01*
X8562347Y-18086120D01*
X8571871Y-18067072D01*
X8581394Y-18057549D01*
X8600442Y-18048025D01*
X8790918Y-18048025D02*
X8809966Y-18048025D01*
X8829013Y-18057549D01*
X8838537Y-18067072D01*
X8848061Y-18086120D01*
X8857585Y-18124215D01*
X8857585Y-18171834D01*
X8848061Y-18209930D01*
X8838537Y-18228977D01*
X8829013Y-18238501D01*
X8809966Y-18248025D01*
X8790918Y-18248025D01*
X8771871Y-18238501D01*
X8762347Y-18228977D01*
X8752823Y-18209930D01*
X8743299Y-18171834D01*
X8743299Y-18124215D01*
X8752823Y-18086120D01*
X8762347Y-18067072D01*
X8771871Y-18057549D01*
X8790918Y-18048025D01*
X8943299Y-18248025D02*
X8943299Y-18114691D01*
X8943299Y-18133739D02*
X8952823Y-18124215D01*
X8971871Y-18114691D01*
X9000442Y-18114691D01*
X9019490Y-18124215D01*
X9029013Y-18143263D01*
X9029013Y-18248025D01*
X9029013Y-18143263D02*
X9038537Y-18124215D01*
X9057585Y-18114691D01*
X9086156Y-18114691D01*
X9105204Y-18124215D01*
X9114728Y-18143263D01*
X9114728Y-18248025D01*
X9209966Y-18248025D02*
X9209966Y-18114691D01*
X9209966Y-18133739D02*
X9219490Y-18124215D01*
X9238537Y-18114691D01*
X9267109Y-18114691D01*
X9286156Y-18124215D01*
X9295680Y-18143263D01*
X9295680Y-18248025D01*
X9295680Y-18143263D02*
X9305204Y-18124215D01*
X9324252Y-18114691D01*
X9352823Y-18114691D01*
X9371871Y-18124215D01*
X9381394Y-18143263D01*
X9381394Y-18248025D01*
X9771871Y-18038501D02*
X9600442Y-18295644D01*
X10029013Y-18048025D02*
X10048061Y-18048025D01*
X10067109Y-18057549D01*
X10076633Y-18067072D01*
X10086156Y-18086120D01*
X10095680Y-18124215D01*
X10095680Y-18171834D01*
X10086156Y-18209930D01*
X10076633Y-18228977D01*
X10067109Y-18238501D01*
X10048061Y-18248025D01*
X10029013Y-18248025D01*
X10009966Y-18238501D01*
X10000442Y-18228977D01*
X9990918Y-18209930D01*
X9981394Y-18171834D01*
X9981394Y-18124215D01*
X9990918Y-18086120D01*
X10000442Y-18067072D01*
X10009966Y-18057549D01*
X10029013Y-18048025D01*
X10181394Y-18228977D02*
X10190918Y-18238501D01*
X10181394Y-18248025D01*
X10171871Y-18238501D01*
X10181394Y-18228977D01*
X10181394Y-18248025D01*
X10314728Y-18048025D02*
X10333775Y-18048025D01*
X10352823Y-18057549D01*
X10362347Y-18067072D01*
X10371871Y-18086120D01*
X10381394Y-18124215D01*
X10381394Y-18171834D01*
X10371871Y-18209930D01*
X10362347Y-18228977D01*
X10352823Y-18238501D01*
X10333775Y-18248025D01*
X10314728Y-18248025D01*
X10295680Y-18238501D01*
X10286156Y-18228977D01*
X10276633Y-18209930D01*
X10267109Y-18171834D01*
X10267109Y-18124215D01*
X10276633Y-18086120D01*
X10286156Y-18067072D01*
X10295680Y-18057549D01*
X10314728Y-18048025D01*
X10571871Y-18248025D02*
X10457585Y-18248025D01*
X10514728Y-18248025D02*
X10514728Y-18048025D01*
X10495680Y-18076596D01*
X10476633Y-18095644D01*
X10457585Y-18105168D01*
X10752823Y-18048025D02*
X10657585Y-18048025D01*
X10648061Y-18143263D01*
X10657585Y-18133739D01*
X10676633Y-18124215D01*
X10724252Y-18124215D01*
X10743299Y-18133739D01*
X10752823Y-18143263D01*
X10762347Y-18162311D01*
X10762347Y-18209930D01*
X10752823Y-18228977D01*
X10743299Y-18238501D01*
X10724252Y-18248025D01*
X10676633Y-18248025D01*
X10657585Y-18238501D01*
X10648061Y-18228977D01*
X10829013Y-18048025D02*
X10962347Y-18048025D01*
X10876633Y-18248025D01*
X11029013Y-18048025D02*
X11029013Y-18086120D01*
X11105204Y-18048025D02*
X11105204Y-18086120D01*
X11400442Y-18324215D02*
X11390918Y-18314691D01*
X11371871Y-18286120D01*
X11362347Y-18267072D01*
X11352823Y-18238501D01*
X11343299Y-18190882D01*
X11343299Y-18152787D01*
X11352823Y-18105168D01*
X11362347Y-18076596D01*
X11371871Y-18057549D01*
X11390918Y-18028977D01*
X11400442Y-18019453D01*
X11581394Y-18248025D02*
X11467109Y-18248025D01*
X11524251Y-18248025D02*
X11524251Y-18048025D01*
X11505204Y-18076596D01*
X11486156Y-18095644D01*
X11467109Y-18105168D01*
X11762347Y-18048025D02*
X11667109Y-18048025D01*
X11657585Y-18143263D01*
X11667109Y-18133739D01*
X11686156Y-18124215D01*
X11733775Y-18124215D01*
X11752823Y-18133739D01*
X11762347Y-18143263D01*
X11771871Y-18162311D01*
X11771871Y-18209930D01*
X11762347Y-18228977D01*
X11752823Y-18238501D01*
X11733775Y-18248025D01*
X11686156Y-18248025D01*
X11667109Y-18238501D01*
X11657585Y-18228977D01*
X11867109Y-18248025D02*
X11905204Y-18248025D01*
X11924251Y-18238501D01*
X11933775Y-18228977D01*
X11952823Y-18200406D01*
X11962347Y-18162311D01*
X11962347Y-18086120D01*
X11952823Y-18067072D01*
X11943299Y-18057549D01*
X11924251Y-18048025D01*
X11886156Y-18048025D01*
X11867109Y-18057549D01*
X11857585Y-18067072D01*
X11848061Y-18086120D01*
X11848061Y-18133739D01*
X11857585Y-18152787D01*
X11867109Y-18162311D01*
X11886156Y-18171834D01*
X11924251Y-18171834D01*
X11943299Y-18162311D01*
X11952823Y-18152787D01*
X11962347Y-18133739D01*
X12200442Y-18248025D02*
X12200442Y-18048025D01*
X12286156Y-18248025D02*
X12286156Y-18143263D01*
X12276632Y-18124215D01*
X12257585Y-18114691D01*
X12229013Y-18114691D01*
X12209966Y-18124215D01*
X12200442Y-18133739D01*
X12409966Y-18248025D02*
X12390918Y-18238501D01*
X12381394Y-18228977D01*
X12371871Y-18209930D01*
X12371871Y-18152787D01*
X12381394Y-18133739D01*
X12390918Y-18124215D01*
X12409966Y-18114691D01*
X12438537Y-18114691D01*
X12457585Y-18124215D01*
X12467109Y-18133739D01*
X12476632Y-18152787D01*
X12476632Y-18209930D01*
X12467109Y-18228977D01*
X12457585Y-18238501D01*
X12438537Y-18248025D01*
X12409966Y-18248025D01*
X12590918Y-18248025D02*
X12571871Y-18238501D01*
X12562347Y-18219453D01*
X12562347Y-18048025D01*
X12743299Y-18238501D02*
X12724251Y-18248025D01*
X12686156Y-18248025D01*
X12667109Y-18238501D01*
X12657585Y-18219453D01*
X12657585Y-18143263D01*
X12667109Y-18124215D01*
X12686156Y-18114691D01*
X12724251Y-18114691D01*
X12743299Y-18124215D01*
X12752823Y-18143263D01*
X12752823Y-18162311D01*
X12657585Y-18181358D01*
X12829013Y-18238501D02*
X12848061Y-18248025D01*
X12886156Y-18248025D01*
X12905204Y-18238501D01*
X12914728Y-18219453D01*
X12914728Y-18209930D01*
X12905204Y-18190882D01*
X12886156Y-18181358D01*
X12857585Y-18181358D01*
X12838537Y-18171834D01*
X12829013Y-18152787D01*
X12829013Y-18143263D01*
X12838537Y-18124215D01*
X12857585Y-18114691D01*
X12886156Y-18114691D01*
X12905204Y-18124215D01*
X12981394Y-18324215D02*
X12990918Y-18314691D01*
X13009966Y-18286120D01*
X13019490Y-18267072D01*
X13029013Y-18238501D01*
X13038537Y-18190882D01*
X13038537Y-18152787D01*
X13029013Y-18105168D01*
X13019490Y-18076596D01*
X13009966Y-18057549D01*
X12990918Y-18028977D01*
X12981394Y-18019453D01*
D13*
X7828537Y-18421549D02*
G75*
G03*
X7828537Y-18421549I-40000J0D01*
G01*
D11*
X8124251Y-18312025D02*
X8143299Y-18312025D01*
X8162347Y-18321549D01*
X8171871Y-18331072D01*
X8181394Y-18350120D01*
X8190918Y-18388215D01*
X8190918Y-18435834D01*
X8181394Y-18473930D01*
X8171871Y-18492977D01*
X8162347Y-18502501D01*
X8143299Y-18512025D01*
X8124251Y-18512025D01*
X8105204Y-18502501D01*
X8095680Y-18492977D01*
X8086156Y-18473930D01*
X8076632Y-18435834D01*
X8076632Y-18388215D01*
X8086156Y-18350120D01*
X8095680Y-18331072D01*
X8105204Y-18321549D01*
X8124251Y-18312025D01*
X8276632Y-18492977D02*
X8286156Y-18502501D01*
X8276632Y-18512025D01*
X8267109Y-18502501D01*
X8276632Y-18492977D01*
X8276632Y-18512025D01*
X8400442Y-18397739D02*
X8381394Y-18388215D01*
X8371871Y-18378691D01*
X8362347Y-18359644D01*
X8362347Y-18350120D01*
X8371871Y-18331072D01*
X8381394Y-18321549D01*
X8400442Y-18312025D01*
X8438537Y-18312025D01*
X8457585Y-18321549D01*
X8467109Y-18331072D01*
X8476633Y-18350120D01*
X8476633Y-18359644D01*
X8467109Y-18378691D01*
X8457585Y-18388215D01*
X8438537Y-18397739D01*
X8400442Y-18397739D01*
X8381394Y-18407263D01*
X8371871Y-18416787D01*
X8362347Y-18435834D01*
X8362347Y-18473930D01*
X8371871Y-18492977D01*
X8381394Y-18502501D01*
X8400442Y-18512025D01*
X8438537Y-18512025D01*
X8457585Y-18502501D01*
X8467109Y-18492977D01*
X8476633Y-18473930D01*
X8476633Y-18435834D01*
X8467109Y-18416787D01*
X8457585Y-18407263D01*
X8438537Y-18397739D01*
X8600442Y-18312025D02*
X8619490Y-18312025D01*
X8638537Y-18321549D01*
X8648061Y-18331072D01*
X8657585Y-18350120D01*
X8667109Y-18388215D01*
X8667109Y-18435834D01*
X8657585Y-18473930D01*
X8648061Y-18492977D01*
X8638537Y-18502501D01*
X8619490Y-18512025D01*
X8600442Y-18512025D01*
X8581394Y-18502501D01*
X8571871Y-18492977D01*
X8562347Y-18473930D01*
X8552823Y-18435834D01*
X8552823Y-18388215D01*
X8562347Y-18350120D01*
X8571871Y-18331072D01*
X8581394Y-18321549D01*
X8600442Y-18312025D01*
X8790918Y-18312025D02*
X8809966Y-18312025D01*
X8829013Y-18321549D01*
X8838537Y-18331072D01*
X8848061Y-18350120D01*
X8857585Y-18388215D01*
X8857585Y-18435834D01*
X8848061Y-18473930D01*
X8838537Y-18492977D01*
X8829013Y-18502501D01*
X8809966Y-18512025D01*
X8790918Y-18512025D01*
X8771871Y-18502501D01*
X8762347Y-18492977D01*
X8752823Y-18473930D01*
X8743299Y-18435834D01*
X8743299Y-18388215D01*
X8752823Y-18350120D01*
X8762347Y-18331072D01*
X8771871Y-18321549D01*
X8790918Y-18312025D01*
X8943299Y-18512025D02*
X8943299Y-18378691D01*
X8943299Y-18397739D02*
X8952823Y-18388215D01*
X8971871Y-18378691D01*
X9000442Y-18378691D01*
X9019490Y-18388215D01*
X9029013Y-18407263D01*
X9029013Y-18512025D01*
X9029013Y-18407263D02*
X9038537Y-18388215D01*
X9057585Y-18378691D01*
X9086156Y-18378691D01*
X9105204Y-18388215D01*
X9114728Y-18407263D01*
X9114728Y-18512025D01*
X9209966Y-18512025D02*
X9209966Y-18378691D01*
X9209966Y-18397739D02*
X9219490Y-18388215D01*
X9238537Y-18378691D01*
X9267109Y-18378691D01*
X9286156Y-18388215D01*
X9295680Y-18407263D01*
X9295680Y-18512025D01*
X9295680Y-18407263D02*
X9305204Y-18388215D01*
X9324252Y-18378691D01*
X9352823Y-18378691D01*
X9371871Y-18388215D01*
X9381394Y-18407263D01*
X9381394Y-18512025D01*
X9771871Y-18302501D02*
X9600442Y-18559644D01*
X10029013Y-18312025D02*
X10048061Y-18312025D01*
X10067109Y-18321549D01*
X10076633Y-18331072D01*
X10086156Y-18350120D01*
X10095680Y-18388215D01*
X10095680Y-18435834D01*
X10086156Y-18473930D01*
X10076633Y-18492977D01*
X10067109Y-18502501D01*
X10048061Y-18512025D01*
X10029013Y-18512025D01*
X10009966Y-18502501D01*
X10000442Y-18492977D01*
X9990918Y-18473930D01*
X9981394Y-18435834D01*
X9981394Y-18388215D01*
X9990918Y-18350120D01*
X10000442Y-18331072D01*
X10009966Y-18321549D01*
X10029013Y-18312025D01*
X10181394Y-18492977D02*
X10190918Y-18502501D01*
X10181394Y-18512025D01*
X10171871Y-18502501D01*
X10181394Y-18492977D01*
X10181394Y-18512025D01*
X10314728Y-18312025D02*
X10333775Y-18312025D01*
X10352823Y-18321549D01*
X10362347Y-18331072D01*
X10371871Y-18350120D01*
X10381394Y-18388215D01*
X10381394Y-18435834D01*
X10371871Y-18473930D01*
X10362347Y-18492977D01*
X10352823Y-18502501D01*
X10333775Y-18512025D01*
X10314728Y-18512025D01*
X10295680Y-18502501D01*
X10286156Y-18492977D01*
X10276633Y-18473930D01*
X10267109Y-18435834D01*
X10267109Y-18388215D01*
X10276633Y-18350120D01*
X10286156Y-18331072D01*
X10295680Y-18321549D01*
X10314728Y-18312025D01*
X10448061Y-18312025D02*
X10571871Y-18312025D01*
X10505204Y-18388215D01*
X10533775Y-18388215D01*
X10552823Y-18397739D01*
X10562347Y-18407263D01*
X10571871Y-18426311D01*
X10571871Y-18473930D01*
X10562347Y-18492977D01*
X10552823Y-18502501D01*
X10533775Y-18512025D01*
X10476633Y-18512025D01*
X10457585Y-18502501D01*
X10448061Y-18492977D01*
X10762347Y-18512025D02*
X10648061Y-18512025D01*
X10705204Y-18512025D02*
X10705204Y-18312025D01*
X10686156Y-18340596D01*
X10667109Y-18359644D01*
X10648061Y-18369168D01*
X10943299Y-18312025D02*
X10848061Y-18312025D01*
X10838537Y-18407263D01*
X10848061Y-18397739D01*
X10867109Y-18388215D01*
X10914728Y-18388215D01*
X10933775Y-18397739D01*
X10943299Y-18407263D01*
X10952823Y-18426311D01*
X10952823Y-18473930D01*
X10943299Y-18492977D01*
X10933775Y-18502501D01*
X10914728Y-18512025D01*
X10867109Y-18512025D01*
X10848061Y-18502501D01*
X10838537Y-18492977D01*
X11029013Y-18312025D02*
X11029013Y-18350120D01*
X11105204Y-18312025D02*
X11105204Y-18350120D01*
X11400442Y-18588215D02*
X11390918Y-18578691D01*
X11371871Y-18550120D01*
X11362347Y-18531072D01*
X11352823Y-18502501D01*
X11343299Y-18454882D01*
X11343299Y-18416787D01*
X11352823Y-18369168D01*
X11362347Y-18340596D01*
X11371871Y-18321549D01*
X11390918Y-18292977D01*
X11400442Y-18283453D01*
X11467109Y-18331072D02*
X11476632Y-18321549D01*
X11495680Y-18312025D01*
X11543299Y-18312025D01*
X11562347Y-18321549D01*
X11571871Y-18331072D01*
X11581394Y-18350120D01*
X11581394Y-18369168D01*
X11571871Y-18397739D01*
X11457585Y-18512025D01*
X11581394Y-18512025D01*
X11657585Y-18331072D02*
X11667109Y-18321549D01*
X11686156Y-18312025D01*
X11733775Y-18312025D01*
X11752823Y-18321549D01*
X11762347Y-18331072D01*
X11771871Y-18350120D01*
X11771871Y-18369168D01*
X11762347Y-18397739D01*
X11648061Y-18512025D01*
X11771871Y-18512025D01*
X11895680Y-18312025D02*
X11914728Y-18312025D01*
X11933775Y-18321549D01*
X11943299Y-18331072D01*
X11952823Y-18350120D01*
X11962347Y-18388215D01*
X11962347Y-18435834D01*
X11952823Y-18473930D01*
X11943299Y-18492977D01*
X11933775Y-18502501D01*
X11914728Y-18512025D01*
X11895680Y-18512025D01*
X11876632Y-18502501D01*
X11867109Y-18492977D01*
X11857585Y-18473930D01*
X11848061Y-18435834D01*
X11848061Y-18388215D01*
X11857585Y-18350120D01*
X11867109Y-18331072D01*
X11876632Y-18321549D01*
X11895680Y-18312025D01*
X12200442Y-18512025D02*
X12200442Y-18312025D01*
X12286156Y-18512025D02*
X12286156Y-18407263D01*
X12276632Y-18388215D01*
X12257585Y-18378691D01*
X12229013Y-18378691D01*
X12209966Y-18388215D01*
X12200442Y-18397739D01*
X12409966Y-18512025D02*
X12390918Y-18502501D01*
X12381394Y-18492977D01*
X12371871Y-18473930D01*
X12371871Y-18416787D01*
X12381394Y-18397739D01*
X12390918Y-18388215D01*
X12409966Y-18378691D01*
X12438537Y-18378691D01*
X12457585Y-18388215D01*
X12467109Y-18397739D01*
X12476632Y-18416787D01*
X12476632Y-18473930D01*
X12467109Y-18492977D01*
X12457585Y-18502501D01*
X12438537Y-18512025D01*
X12409966Y-18512025D01*
X12590918Y-18512025D02*
X12571871Y-18502501D01*
X12562347Y-18483453D01*
X12562347Y-18312025D01*
X12743299Y-18502501D02*
X12724251Y-18512025D01*
X12686156Y-18512025D01*
X12667109Y-18502501D01*
X12657585Y-18483453D01*
X12657585Y-18407263D01*
X12667109Y-18388215D01*
X12686156Y-18378691D01*
X12724251Y-18378691D01*
X12743299Y-18388215D01*
X12752823Y-18407263D01*
X12752823Y-18426311D01*
X12657585Y-18445358D01*
X12829013Y-18502501D02*
X12848061Y-18512025D01*
X12886156Y-18512025D01*
X12905204Y-18502501D01*
X12914728Y-18483453D01*
X12914728Y-18473930D01*
X12905204Y-18454882D01*
X12886156Y-18445358D01*
X12857585Y-18445358D01*
X12838537Y-18435834D01*
X12829013Y-18416787D01*
X12829013Y-18407263D01*
X12838537Y-18388215D01*
X12857585Y-18378691D01*
X12886156Y-18378691D01*
X12905204Y-18388215D01*
X12981394Y-18588215D02*
X12990918Y-18578691D01*
X13009966Y-18550120D01*
X13019490Y-18531072D01*
X13029013Y-18502501D01*
X13038537Y-18454882D01*
X13038537Y-18416787D01*
X13029013Y-18369168D01*
X13019490Y-18340596D01*
X13009966Y-18321549D01*
X12990918Y-18292977D01*
X12981394Y-18283453D01*
D14*
X7778537Y-18635549D02*
X7778537Y-18735549D01*
X7728537Y-18685549D02*
X7828537Y-18685549D01*
D11*
X8190918Y-18776025D02*
X8076632Y-18776025D01*
X8133775Y-18776025D02*
X8133775Y-18576025D01*
X8114728Y-18604596D01*
X8095680Y-18623644D01*
X8076632Y-18633168D01*
X8276632Y-18756977D02*
X8286156Y-18766501D01*
X8276632Y-18776025D01*
X8267109Y-18766501D01*
X8276632Y-18756977D01*
X8276632Y-18776025D01*
X8409966Y-18576025D02*
X8429013Y-18576025D01*
X8448061Y-18585549D01*
X8457585Y-18595072D01*
X8467109Y-18614120D01*
X8476633Y-18652215D01*
X8476633Y-18699834D01*
X8467109Y-18737930D01*
X8457585Y-18756977D01*
X8448061Y-18766501D01*
X8429013Y-18776025D01*
X8409966Y-18776025D01*
X8390918Y-18766501D01*
X8381394Y-18756977D01*
X8371871Y-18737930D01*
X8362347Y-18699834D01*
X8362347Y-18652215D01*
X8371871Y-18614120D01*
X8381394Y-18595072D01*
X8390918Y-18585549D01*
X8409966Y-18576025D01*
X8600442Y-18576025D02*
X8619490Y-18576025D01*
X8638537Y-18585549D01*
X8648061Y-18595072D01*
X8657585Y-18614120D01*
X8667109Y-18652215D01*
X8667109Y-18699834D01*
X8657585Y-18737930D01*
X8648061Y-18756977D01*
X8638537Y-18766501D01*
X8619490Y-18776025D01*
X8600442Y-18776025D01*
X8581394Y-18766501D01*
X8571871Y-18756977D01*
X8562347Y-18737930D01*
X8552823Y-18699834D01*
X8552823Y-18652215D01*
X8562347Y-18614120D01*
X8571871Y-18595072D01*
X8581394Y-18585549D01*
X8600442Y-18576025D01*
X8790918Y-18576025D02*
X8809966Y-18576025D01*
X8829013Y-18585549D01*
X8838537Y-18595072D01*
X8848061Y-18614120D01*
X8857585Y-18652215D01*
X8857585Y-18699834D01*
X8848061Y-18737930D01*
X8838537Y-18756977D01*
X8829013Y-18766501D01*
X8809966Y-18776025D01*
X8790918Y-18776025D01*
X8771871Y-18766501D01*
X8762347Y-18756977D01*
X8752823Y-18737930D01*
X8743299Y-18699834D01*
X8743299Y-18652215D01*
X8752823Y-18614120D01*
X8762347Y-18595072D01*
X8771871Y-18585549D01*
X8790918Y-18576025D01*
X8943299Y-18776025D02*
X8943299Y-18642691D01*
X8943299Y-18661739D02*
X8952823Y-18652215D01*
X8971871Y-18642691D01*
X9000442Y-18642691D01*
X9019490Y-18652215D01*
X9029013Y-18671263D01*
X9029013Y-18776025D01*
X9029013Y-18671263D02*
X9038537Y-18652215D01*
X9057585Y-18642691D01*
X9086156Y-18642691D01*
X9105204Y-18652215D01*
X9114728Y-18671263D01*
X9114728Y-18776025D01*
X9209966Y-18776025D02*
X9209966Y-18642691D01*
X9209966Y-18661739D02*
X9219490Y-18652215D01*
X9238537Y-18642691D01*
X9267109Y-18642691D01*
X9286156Y-18652215D01*
X9295680Y-18671263D01*
X9295680Y-18776025D01*
X9295680Y-18671263D02*
X9305204Y-18652215D01*
X9324252Y-18642691D01*
X9352823Y-18642691D01*
X9371871Y-18652215D01*
X9381394Y-18671263D01*
X9381394Y-18776025D01*
X9771871Y-18566501D02*
X9600442Y-18823644D01*
X10029013Y-18576025D02*
X10048061Y-18576025D01*
X10067109Y-18585549D01*
X10076633Y-18595072D01*
X10086156Y-18614120D01*
X10095680Y-18652215D01*
X10095680Y-18699834D01*
X10086156Y-18737930D01*
X10076633Y-18756977D01*
X10067109Y-18766501D01*
X10048061Y-18776025D01*
X10029013Y-18776025D01*
X10009966Y-18766501D01*
X10000442Y-18756977D01*
X9990918Y-18737930D01*
X9981394Y-18699834D01*
X9981394Y-18652215D01*
X9990918Y-18614120D01*
X10000442Y-18595072D01*
X10009966Y-18585549D01*
X10029013Y-18576025D01*
X10181394Y-18756977D02*
X10190918Y-18766501D01*
X10181394Y-18776025D01*
X10171871Y-18766501D01*
X10181394Y-18756977D01*
X10181394Y-18776025D01*
X10314728Y-18576025D02*
X10333775Y-18576025D01*
X10352823Y-18585549D01*
X10362347Y-18595072D01*
X10371871Y-18614120D01*
X10381394Y-18652215D01*
X10381394Y-18699834D01*
X10371871Y-18737930D01*
X10362347Y-18756977D01*
X10352823Y-18766501D01*
X10333775Y-18776025D01*
X10314728Y-18776025D01*
X10295680Y-18766501D01*
X10286156Y-18756977D01*
X10276633Y-18737930D01*
X10267109Y-18699834D01*
X10267109Y-18652215D01*
X10276633Y-18614120D01*
X10286156Y-18595072D01*
X10295680Y-18585549D01*
X10314728Y-18576025D01*
X10448061Y-18576025D02*
X10571871Y-18576025D01*
X10505204Y-18652215D01*
X10533775Y-18652215D01*
X10552823Y-18661739D01*
X10562347Y-18671263D01*
X10571871Y-18690311D01*
X10571871Y-18737930D01*
X10562347Y-18756977D01*
X10552823Y-18766501D01*
X10533775Y-18776025D01*
X10476633Y-18776025D01*
X10457585Y-18766501D01*
X10448061Y-18756977D01*
X10667109Y-18776025D02*
X10705204Y-18776025D01*
X10724252Y-18766501D01*
X10733775Y-18756977D01*
X10752823Y-18728406D01*
X10762347Y-18690311D01*
X10762347Y-18614120D01*
X10752823Y-18595072D01*
X10743299Y-18585549D01*
X10724252Y-18576025D01*
X10686156Y-18576025D01*
X10667109Y-18585549D01*
X10657585Y-18595072D01*
X10648061Y-18614120D01*
X10648061Y-18661739D01*
X10657585Y-18680787D01*
X10667109Y-18690311D01*
X10686156Y-18699834D01*
X10724252Y-18699834D01*
X10743299Y-18690311D01*
X10752823Y-18680787D01*
X10762347Y-18661739D01*
X10933775Y-18642691D02*
X10933775Y-18776025D01*
X10886156Y-18566501D02*
X10838537Y-18709358D01*
X10962347Y-18709358D01*
X11029013Y-18576025D02*
X11029013Y-18614120D01*
X11105204Y-18576025D02*
X11105204Y-18614120D01*
X11400442Y-18852215D02*
X11390918Y-18842691D01*
X11371871Y-18814120D01*
X11362347Y-18795072D01*
X11352823Y-18766501D01*
X11343299Y-18718882D01*
X11343299Y-18680787D01*
X11352823Y-18633168D01*
X11362347Y-18604596D01*
X11371871Y-18585549D01*
X11390918Y-18556977D01*
X11400442Y-18547453D01*
X11457585Y-18576025D02*
X11581394Y-18576025D01*
X11514728Y-18652215D01*
X11543299Y-18652215D01*
X11562347Y-18661739D01*
X11571871Y-18671263D01*
X11581394Y-18690311D01*
X11581394Y-18737930D01*
X11571871Y-18756977D01*
X11562347Y-18766501D01*
X11543299Y-18776025D01*
X11486156Y-18776025D01*
X11467109Y-18766501D01*
X11457585Y-18756977D01*
X11657585Y-18595072D02*
X11667109Y-18585549D01*
X11686156Y-18576025D01*
X11733775Y-18576025D01*
X11752823Y-18585549D01*
X11762347Y-18595072D01*
X11771871Y-18614120D01*
X11771871Y-18633168D01*
X11762347Y-18661739D01*
X11648061Y-18776025D01*
X11771871Y-18776025D01*
X12009966Y-18776025D02*
X12009966Y-18576025D01*
X12095680Y-18776025D02*
X12095680Y-18671263D01*
X12086156Y-18652215D01*
X12067109Y-18642691D01*
X12038537Y-18642691D01*
X12019490Y-18652215D01*
X12009966Y-18661739D01*
X12219490Y-18776025D02*
X12200442Y-18766501D01*
X12190918Y-18756977D01*
X12181394Y-18737930D01*
X12181394Y-18680787D01*
X12190918Y-18661739D01*
X12200442Y-18652215D01*
X12219490Y-18642691D01*
X12248061Y-18642691D01*
X12267109Y-18652215D01*
X12276632Y-18661739D01*
X12286156Y-18680787D01*
X12286156Y-18737930D01*
X12276632Y-18756977D01*
X12267109Y-18766501D01*
X12248061Y-18776025D01*
X12219490Y-18776025D01*
X12400442Y-18776025D02*
X12381394Y-18766501D01*
X12371871Y-18747453D01*
X12371871Y-18576025D01*
X12552823Y-18766501D02*
X12533775Y-18776025D01*
X12495680Y-18776025D01*
X12476632Y-18766501D01*
X12467109Y-18747453D01*
X12467109Y-18671263D01*
X12476632Y-18652215D01*
X12495680Y-18642691D01*
X12533775Y-18642691D01*
X12552823Y-18652215D01*
X12562347Y-18671263D01*
X12562347Y-18690311D01*
X12467109Y-18709358D01*
X12638537Y-18766501D02*
X12657585Y-18776025D01*
X12695680Y-18776025D01*
X12714728Y-18766501D01*
X12724251Y-18747453D01*
X12724251Y-18737930D01*
X12714728Y-18718882D01*
X12695680Y-18709358D01*
X12667109Y-18709358D01*
X12648061Y-18699834D01*
X12638537Y-18680787D01*
X12638537Y-18671263D01*
X12648061Y-18652215D01*
X12667109Y-18642691D01*
X12695680Y-18642691D01*
X12714728Y-18652215D01*
X12790918Y-18852215D02*
X12800442Y-18842691D01*
X12819490Y-18814120D01*
X12829013Y-18795072D01*
X12838537Y-18766501D01*
X12848061Y-18718882D01*
X12848061Y-18680787D01*
X12838537Y-18633168D01*
X12829013Y-18604596D01*
X12819490Y-18585549D01*
X12800442Y-18556977D01*
X12790918Y-18547453D01*
D15*
X7812428Y-18988440D02*
X7812428Y-18910657D01*
X7734646Y-18910657D01*
X7734646Y-18988440D01*
X7812428Y-18988440D01*
D11*
X8190918Y-19040025D02*
X8076632Y-19040025D01*
X8133775Y-19040025D02*
X8133775Y-18840025D01*
X8114728Y-18868596D01*
X8095680Y-18887644D01*
X8076632Y-18897168D01*
X8276632Y-19020977D02*
X8286156Y-19030501D01*
X8276632Y-19040025D01*
X8267109Y-19030501D01*
X8276632Y-19020977D01*
X8276632Y-19040025D01*
X8476633Y-19040025D02*
X8362347Y-19040025D01*
X8419490Y-19040025D02*
X8419490Y-18840025D01*
X8400442Y-18868596D01*
X8381394Y-18887644D01*
X8362347Y-18897168D01*
X8600442Y-18840025D02*
X8619490Y-18840025D01*
X8638537Y-18849549D01*
X8648061Y-18859072D01*
X8657585Y-18878120D01*
X8667109Y-18916215D01*
X8667109Y-18963834D01*
X8657585Y-19001930D01*
X8648061Y-19020977D01*
X8638537Y-19030501D01*
X8619490Y-19040025D01*
X8600442Y-19040025D01*
X8581394Y-19030501D01*
X8571871Y-19020977D01*
X8562347Y-19001930D01*
X8552823Y-18963834D01*
X8552823Y-18916215D01*
X8562347Y-18878120D01*
X8571871Y-18859072D01*
X8581394Y-18849549D01*
X8600442Y-18840025D01*
X8790918Y-18840025D02*
X8809966Y-18840025D01*
X8829013Y-18849549D01*
X8838537Y-18859072D01*
X8848061Y-18878120D01*
X8857585Y-18916215D01*
X8857585Y-18963834D01*
X8848061Y-19001930D01*
X8838537Y-19020977D01*
X8829013Y-19030501D01*
X8809966Y-19040025D01*
X8790918Y-19040025D01*
X8771871Y-19030501D01*
X8762347Y-19020977D01*
X8752823Y-19001930D01*
X8743299Y-18963834D01*
X8743299Y-18916215D01*
X8752823Y-18878120D01*
X8762347Y-18859072D01*
X8771871Y-18849549D01*
X8790918Y-18840025D01*
X8943299Y-19040025D02*
X8943299Y-18906691D01*
X8943299Y-18925739D02*
X8952823Y-18916215D01*
X8971871Y-18906691D01*
X9000442Y-18906691D01*
X9019490Y-18916215D01*
X9029013Y-18935263D01*
X9029013Y-19040025D01*
X9029013Y-18935263D02*
X9038537Y-18916215D01*
X9057585Y-18906691D01*
X9086156Y-18906691D01*
X9105204Y-18916215D01*
X9114728Y-18935263D01*
X9114728Y-19040025D01*
X9209966Y-19040025D02*
X9209966Y-18906691D01*
X9209966Y-18925739D02*
X9219490Y-18916215D01*
X9238537Y-18906691D01*
X9267109Y-18906691D01*
X9286156Y-18916215D01*
X9295680Y-18935263D01*
X9295680Y-19040025D01*
X9295680Y-18935263D02*
X9305204Y-18916215D01*
X9324252Y-18906691D01*
X9352823Y-18906691D01*
X9371871Y-18916215D01*
X9381394Y-18935263D01*
X9381394Y-19040025D01*
X9771871Y-18830501D02*
X9600442Y-19087644D01*
X10029013Y-18840025D02*
X10048061Y-18840025D01*
X10067109Y-18849549D01*
X10076633Y-18859072D01*
X10086156Y-18878120D01*
X10095680Y-18916215D01*
X10095680Y-18963834D01*
X10086156Y-19001930D01*
X10076633Y-19020977D01*
X10067109Y-19030501D01*
X10048061Y-19040025D01*
X10029013Y-19040025D01*
X10009966Y-19030501D01*
X10000442Y-19020977D01*
X9990918Y-19001930D01*
X9981394Y-18963834D01*
X9981394Y-18916215D01*
X9990918Y-18878120D01*
X10000442Y-18859072D01*
X10009966Y-18849549D01*
X10029013Y-18840025D01*
X10181394Y-19020977D02*
X10190918Y-19030501D01*
X10181394Y-19040025D01*
X10171871Y-19030501D01*
X10181394Y-19020977D01*
X10181394Y-19040025D01*
X10314728Y-18840025D02*
X10333775Y-18840025D01*
X10352823Y-18849549D01*
X10362347Y-18859072D01*
X10371871Y-18878120D01*
X10381394Y-18916215D01*
X10381394Y-18963834D01*
X10371871Y-19001930D01*
X10362347Y-19020977D01*
X10352823Y-19030501D01*
X10333775Y-19040025D01*
X10314728Y-19040025D01*
X10295680Y-19030501D01*
X10286156Y-19020977D01*
X10276633Y-19001930D01*
X10267109Y-18963834D01*
X10267109Y-18916215D01*
X10276633Y-18878120D01*
X10286156Y-18859072D01*
X10295680Y-18849549D01*
X10314728Y-18840025D01*
X10552823Y-18906691D02*
X10552823Y-19040025D01*
X10505204Y-18830501D02*
X10457585Y-18973358D01*
X10581394Y-18973358D01*
X10638537Y-18840025D02*
X10762347Y-18840025D01*
X10695680Y-18916215D01*
X10724252Y-18916215D01*
X10743299Y-18925739D01*
X10752823Y-18935263D01*
X10762347Y-18954311D01*
X10762347Y-19001930D01*
X10752823Y-19020977D01*
X10743299Y-19030501D01*
X10724252Y-19040025D01*
X10667109Y-19040025D01*
X10648061Y-19030501D01*
X10638537Y-19020977D01*
X10829013Y-18840025D02*
X10952823Y-18840025D01*
X10886156Y-18916215D01*
X10914728Y-18916215D01*
X10933775Y-18925739D01*
X10943299Y-18935263D01*
X10952823Y-18954311D01*
X10952823Y-19001930D01*
X10943299Y-19020977D01*
X10933775Y-19030501D01*
X10914728Y-19040025D01*
X10857585Y-19040025D01*
X10838537Y-19030501D01*
X10829013Y-19020977D01*
X11029013Y-18840025D02*
X11029013Y-18878120D01*
X11105204Y-18840025D02*
X11105204Y-18878120D01*
X11400442Y-19116215D02*
X11390918Y-19106691D01*
X11371871Y-19078120D01*
X11362347Y-19059072D01*
X11352823Y-19030501D01*
X11343299Y-18982882D01*
X11343299Y-18944787D01*
X11352823Y-18897168D01*
X11362347Y-18868596D01*
X11371871Y-18849549D01*
X11390918Y-18820977D01*
X11400442Y-18811453D01*
X11457585Y-18840025D02*
X11581394Y-18840025D01*
X11514728Y-18916215D01*
X11543299Y-18916215D01*
X11562347Y-18925739D01*
X11571871Y-18935263D01*
X11581394Y-18954311D01*
X11581394Y-19001930D01*
X11571871Y-19020977D01*
X11562347Y-19030501D01*
X11543299Y-19040025D01*
X11486156Y-19040025D01*
X11467109Y-19030501D01*
X11457585Y-19020977D01*
X11705204Y-18840025D02*
X11724251Y-18840025D01*
X11743299Y-18849549D01*
X11752823Y-18859072D01*
X11762347Y-18878120D01*
X11771871Y-18916215D01*
X11771871Y-18963834D01*
X11762347Y-19001930D01*
X11752823Y-19020977D01*
X11743299Y-19030501D01*
X11724251Y-19040025D01*
X11705204Y-19040025D01*
X11686156Y-19030501D01*
X11676632Y-19020977D01*
X11667109Y-19001930D01*
X11657585Y-18963834D01*
X11657585Y-18916215D01*
X11667109Y-18878120D01*
X11676632Y-18859072D01*
X11686156Y-18849549D01*
X11705204Y-18840025D01*
X12009966Y-19040025D02*
X12009966Y-18840025D01*
X12095680Y-19040025D02*
X12095680Y-18935263D01*
X12086156Y-18916215D01*
X12067109Y-18906691D01*
X12038537Y-18906691D01*
X12019490Y-18916215D01*
X12009966Y-18925739D01*
X12219490Y-19040025D02*
X12200442Y-19030501D01*
X12190918Y-19020977D01*
X12181394Y-19001930D01*
X12181394Y-18944787D01*
X12190918Y-18925739D01*
X12200442Y-18916215D01*
X12219490Y-18906691D01*
X12248061Y-18906691D01*
X12267109Y-18916215D01*
X12276632Y-18925739D01*
X12286156Y-18944787D01*
X12286156Y-19001930D01*
X12276632Y-19020977D01*
X12267109Y-19030501D01*
X12248061Y-19040025D01*
X12219490Y-19040025D01*
X12400442Y-19040025D02*
X12381394Y-19030501D01*
X12371871Y-19011453D01*
X12371871Y-18840025D01*
X12552823Y-19030501D02*
X12533775Y-19040025D01*
X12495680Y-19040025D01*
X12476632Y-19030501D01*
X12467109Y-19011453D01*
X12467109Y-18935263D01*
X12476632Y-18916215D01*
X12495680Y-18906691D01*
X12533775Y-18906691D01*
X12552823Y-18916215D01*
X12562347Y-18935263D01*
X12562347Y-18954311D01*
X12467109Y-18973358D01*
X12638537Y-19030501D02*
X12657585Y-19040025D01*
X12695680Y-19040025D01*
X12714728Y-19030501D01*
X12724251Y-19011453D01*
X12724251Y-19001930D01*
X12714728Y-18982882D01*
X12695680Y-18973358D01*
X12667109Y-18973358D01*
X12648061Y-18963834D01*
X12638537Y-18944787D01*
X12638537Y-18935263D01*
X12648061Y-18916215D01*
X12667109Y-18906691D01*
X12695680Y-18906691D01*
X12714728Y-18916215D01*
X12790918Y-19116215D02*
X12800442Y-19106691D01*
X12819490Y-19078120D01*
X12829013Y-19059072D01*
X12838537Y-19030501D01*
X12848061Y-18982882D01*
X12848061Y-18944787D01*
X12838537Y-18897168D01*
X12829013Y-18868596D01*
X12819490Y-18849549D01*
X12800442Y-18820977D01*
X12790918Y-18811453D01*
X7728537Y-19313549D02*
X7828537Y-19213549D01*
X7728537Y-19113549D01*
X7628537Y-19213549D01*
X7728537Y-19313549D01*
X8067109Y-19104025D02*
X8190918Y-19104025D01*
X8124251Y-19180215D01*
X8152823Y-19180215D01*
X8171871Y-19189739D01*
X8181394Y-19199263D01*
X8190918Y-19218311D01*
X8190918Y-19265930D01*
X8181394Y-19284977D01*
X8171871Y-19294501D01*
X8152823Y-19304025D01*
X8095680Y-19304025D01*
X8076632Y-19294501D01*
X8067109Y-19284977D01*
X8276632Y-19284977D02*
X8286156Y-19294501D01*
X8276632Y-19304025D01*
X8267109Y-19294501D01*
X8276632Y-19284977D01*
X8276632Y-19304025D01*
X8362347Y-19123072D02*
X8371871Y-19113549D01*
X8390918Y-19104025D01*
X8438537Y-19104025D01*
X8457585Y-19113549D01*
X8467109Y-19123072D01*
X8476633Y-19142120D01*
X8476633Y-19161168D01*
X8467109Y-19189739D01*
X8352823Y-19304025D01*
X8476633Y-19304025D01*
X8600442Y-19104025D02*
X8619490Y-19104025D01*
X8638537Y-19113549D01*
X8648061Y-19123072D01*
X8657585Y-19142120D01*
X8667109Y-19180215D01*
X8667109Y-19227834D01*
X8657585Y-19265930D01*
X8648061Y-19284977D01*
X8638537Y-19294501D01*
X8619490Y-19304025D01*
X8600442Y-19304025D01*
X8581394Y-19294501D01*
X8571871Y-19284977D01*
X8562347Y-19265930D01*
X8552823Y-19227834D01*
X8552823Y-19180215D01*
X8562347Y-19142120D01*
X8571871Y-19123072D01*
X8581394Y-19113549D01*
X8600442Y-19104025D01*
X8790918Y-19104025D02*
X8809966Y-19104025D01*
X8829013Y-19113549D01*
X8838537Y-19123072D01*
X8848061Y-19142120D01*
X8857585Y-19180215D01*
X8857585Y-19227834D01*
X8848061Y-19265930D01*
X8838537Y-19284977D01*
X8829013Y-19294501D01*
X8809966Y-19304025D01*
X8790918Y-19304025D01*
X8771871Y-19294501D01*
X8762347Y-19284977D01*
X8752823Y-19265930D01*
X8743299Y-19227834D01*
X8743299Y-19180215D01*
X8752823Y-19142120D01*
X8762347Y-19123072D01*
X8771871Y-19113549D01*
X8790918Y-19104025D01*
X8943299Y-19304025D02*
X8943299Y-19170691D01*
X8943299Y-19189739D02*
X8952823Y-19180215D01*
X8971871Y-19170691D01*
X9000442Y-19170691D01*
X9019490Y-19180215D01*
X9029013Y-19199263D01*
X9029013Y-19304025D01*
X9029013Y-19199263D02*
X9038537Y-19180215D01*
X9057585Y-19170691D01*
X9086156Y-19170691D01*
X9105204Y-19180215D01*
X9114728Y-19199263D01*
X9114728Y-19304025D01*
X9209966Y-19304025D02*
X9209966Y-19170691D01*
X9209966Y-19189739D02*
X9219490Y-19180215D01*
X9238537Y-19170691D01*
X9267109Y-19170691D01*
X9286156Y-19180215D01*
X9295680Y-19199263D01*
X9295680Y-19304025D01*
X9295680Y-19199263D02*
X9305204Y-19180215D01*
X9324252Y-19170691D01*
X9352823Y-19170691D01*
X9371871Y-19180215D01*
X9381394Y-19199263D01*
X9381394Y-19304025D01*
X9771871Y-19094501D02*
X9600442Y-19351644D01*
X10029013Y-19104025D02*
X10048061Y-19104025D01*
X10067109Y-19113549D01*
X10076633Y-19123072D01*
X10086156Y-19142120D01*
X10095680Y-19180215D01*
X10095680Y-19227834D01*
X10086156Y-19265930D01*
X10076633Y-19284977D01*
X10067109Y-19294501D01*
X10048061Y-19304025D01*
X10029013Y-19304025D01*
X10009966Y-19294501D01*
X10000442Y-19284977D01*
X9990918Y-19265930D01*
X9981394Y-19227834D01*
X9981394Y-19180215D01*
X9990918Y-19142120D01*
X10000442Y-19123072D01*
X10009966Y-19113549D01*
X10029013Y-19104025D01*
X10181394Y-19284977D02*
X10190918Y-19294501D01*
X10181394Y-19304025D01*
X10171871Y-19294501D01*
X10181394Y-19284977D01*
X10181394Y-19304025D01*
X10381394Y-19304025D02*
X10267109Y-19304025D01*
X10324252Y-19304025D02*
X10324252Y-19104025D01*
X10305204Y-19132596D01*
X10286156Y-19151644D01*
X10267109Y-19161168D01*
X10457585Y-19123072D02*
X10467109Y-19113549D01*
X10486156Y-19104025D01*
X10533775Y-19104025D01*
X10552823Y-19113549D01*
X10562347Y-19123072D01*
X10571871Y-19142120D01*
X10571871Y-19161168D01*
X10562347Y-19189739D01*
X10448061Y-19304025D01*
X10571871Y-19304025D01*
X10743299Y-19104025D02*
X10705204Y-19104025D01*
X10686156Y-19113549D01*
X10676633Y-19123072D01*
X10657585Y-19151644D01*
X10648061Y-19189739D01*
X10648061Y-19265930D01*
X10657585Y-19284977D01*
X10667109Y-19294501D01*
X10686156Y-19304025D01*
X10724252Y-19304025D01*
X10743299Y-19294501D01*
X10752823Y-19284977D01*
X10762347Y-19265930D01*
X10762347Y-19218311D01*
X10752823Y-19199263D01*
X10743299Y-19189739D01*
X10724252Y-19180215D01*
X10686156Y-19180215D01*
X10667109Y-19189739D01*
X10657585Y-19199263D01*
X10648061Y-19218311D01*
X10886156Y-19104025D02*
X10905204Y-19104025D01*
X10924252Y-19113549D01*
X10933775Y-19123072D01*
X10943299Y-19142120D01*
X10952823Y-19180215D01*
X10952823Y-19227834D01*
X10943299Y-19265930D01*
X10933775Y-19284977D01*
X10924252Y-19294501D01*
X10905204Y-19304025D01*
X10886156Y-19304025D01*
X10867109Y-19294501D01*
X10857585Y-19284977D01*
X10848061Y-19265930D01*
X10838537Y-19227834D01*
X10838537Y-19180215D01*
X10848061Y-19142120D01*
X10857585Y-19123072D01*
X10867109Y-19113549D01*
X10886156Y-19104025D01*
X11029013Y-19104025D02*
X11029013Y-19142120D01*
X11105204Y-19104025D02*
X11105204Y-19142120D01*
X11400442Y-19380215D02*
X11390918Y-19370691D01*
X11371871Y-19342120D01*
X11362347Y-19323072D01*
X11352823Y-19294501D01*
X11343299Y-19246882D01*
X11343299Y-19208787D01*
X11352823Y-19161168D01*
X11362347Y-19132596D01*
X11371871Y-19113549D01*
X11390918Y-19084977D01*
X11400442Y-19075453D01*
X11562347Y-19170691D02*
X11562347Y-19304025D01*
X11514728Y-19094501D02*
X11467109Y-19237358D01*
X11590918Y-19237358D01*
X11819490Y-19304025D02*
X11819490Y-19104025D01*
X11905204Y-19304025D02*
X11905204Y-19199263D01*
X11895680Y-19180215D01*
X11876632Y-19170691D01*
X11848061Y-19170691D01*
X11829013Y-19180215D01*
X11819490Y-19189739D01*
X12029013Y-19304025D02*
X12009966Y-19294501D01*
X12000442Y-19284977D01*
X11990918Y-19265930D01*
X11990918Y-19208787D01*
X12000442Y-19189739D01*
X12009966Y-19180215D01*
X12029013Y-19170691D01*
X12057585Y-19170691D01*
X12076632Y-19180215D01*
X12086156Y-19189739D01*
X12095680Y-19208787D01*
X12095680Y-19265930D01*
X12086156Y-19284977D01*
X12076632Y-19294501D01*
X12057585Y-19304025D01*
X12029013Y-19304025D01*
X12209966Y-19304025D02*
X12190918Y-19294501D01*
X12181394Y-19275453D01*
X12181394Y-19104025D01*
X12362347Y-19294501D02*
X12343299Y-19304025D01*
X12305204Y-19304025D01*
X12286156Y-19294501D01*
X12276632Y-19275453D01*
X12276632Y-19199263D01*
X12286156Y-19180215D01*
X12305204Y-19170691D01*
X12343299Y-19170691D01*
X12362347Y-19180215D01*
X12371871Y-19199263D01*
X12371871Y-19218311D01*
X12276632Y-19237358D01*
X12448061Y-19294501D02*
X12467109Y-19304025D01*
X12505204Y-19304025D01*
X12524251Y-19294501D01*
X12533775Y-19275453D01*
X12533775Y-19265930D01*
X12524251Y-19246882D01*
X12505204Y-19237358D01*
X12476632Y-19237358D01*
X12457585Y-19227834D01*
X12448061Y-19208787D01*
X12448061Y-19199263D01*
X12457585Y-19180215D01*
X12476632Y-19170691D01*
X12505204Y-19170691D01*
X12524251Y-19180215D01*
X12600442Y-19380215D02*
X12609966Y-19370691D01*
X12629013Y-19342120D01*
X12638537Y-19323072D01*
X12648061Y-19294501D01*
X12657585Y-19246882D01*
X12657585Y-19208787D01*
X12648061Y-19161168D01*
X12638537Y-19132596D01*
X12629013Y-19113549D01*
X12609966Y-19084977D01*
X12600442Y-19075453D01*
M02*
