%FSLAX45Y45*%
G04 Gerber Fmt 4.5, Leading zero omitted, Abs format (unit mm)*
G04 Created by KiCad (PCBNEW (6.0.0)) date 2022-03-14 15:32:52*
%MOMM*%
%LPD*%
G01*
G04 APERTURE LIST*
%TA.AperFunction,Profile*%
%ADD10C,0.100000*%
%TD*%
%ADD11C,0.200000*%
%ADD12C,0.320000*%
G04 APERTURE END LIST*
D10*
X7833537Y-16771549D02*
X7833537Y-2780549D01*
X15463537Y-16771549D02*
X13828537Y-16771549D01*
X15463537Y-16771549D02*
X15463537Y-2780549D01*
X7833537Y-2780549D02*
X15463537Y-2780549D01*
X8763537Y-16771549D02*
X7833537Y-16771549D01*
D11*
D12*
X7928537Y-2865549D02*
X8248537Y-3185549D01*
X8248537Y-2865549D02*
X7928537Y-3185549D01*
X15041537Y-16326549D02*
X15361537Y-16646549D01*
X15361537Y-16326549D02*
X15041537Y-16646549D01*
D11*
X8086156Y-17828025D02*
X8086156Y-17628025D01*
X8133775Y-17628025D01*
X8162347Y-17637549D01*
X8181394Y-17656596D01*
X8190918Y-17675644D01*
X8200442Y-17713739D01*
X8200442Y-17742311D01*
X8190918Y-17780406D01*
X8181394Y-17799453D01*
X8162347Y-17818501D01*
X8133775Y-17828025D01*
X8086156Y-17828025D01*
X8286156Y-17828025D02*
X8286156Y-17694691D01*
X8286156Y-17732787D02*
X8295680Y-17713739D01*
X8305204Y-17704215D01*
X8324251Y-17694691D01*
X8343299Y-17694691D01*
X8409966Y-17828025D02*
X8409966Y-17694691D01*
X8409966Y-17628025D02*
X8400442Y-17637549D01*
X8409966Y-17647072D01*
X8419490Y-17637549D01*
X8409966Y-17628025D01*
X8409966Y-17647072D01*
X8533775Y-17828025D02*
X8514728Y-17818501D01*
X8505204Y-17799453D01*
X8505204Y-17628025D01*
X8638537Y-17828025D02*
X8619490Y-17818501D01*
X8609966Y-17799453D01*
X8609966Y-17628025D01*
X8867109Y-17828025D02*
X8867109Y-17628025D01*
X8933775Y-17770882D01*
X9000442Y-17628025D01*
X9000442Y-17828025D01*
X9181394Y-17828025D02*
X9181394Y-17723263D01*
X9171871Y-17704215D01*
X9152823Y-17694691D01*
X9114728Y-17694691D01*
X9095680Y-17704215D01*
X9181394Y-17818501D02*
X9162347Y-17828025D01*
X9114728Y-17828025D01*
X9095680Y-17818501D01*
X9086156Y-17799453D01*
X9086156Y-17780406D01*
X9095680Y-17761358D01*
X9114728Y-17751834D01*
X9162347Y-17751834D01*
X9181394Y-17742311D01*
X9276633Y-17694691D02*
X9276633Y-17894691D01*
X9276633Y-17704215D02*
X9295680Y-17694691D01*
X9333775Y-17694691D01*
X9352823Y-17704215D01*
X9362347Y-17713739D01*
X9371871Y-17732787D01*
X9371871Y-17789930D01*
X9362347Y-17808977D01*
X9352823Y-17818501D01*
X9333775Y-17828025D01*
X9295680Y-17828025D01*
X9276633Y-17818501D01*
X9457585Y-17808977D02*
X9467109Y-17818501D01*
X9457585Y-17828025D01*
X9448061Y-17818501D01*
X9457585Y-17808977D01*
X9457585Y-17828025D01*
X9457585Y-17704215D02*
X9467109Y-17713739D01*
X9457585Y-17723263D01*
X9448061Y-17713739D01*
X9457585Y-17704215D01*
X9457585Y-17723263D01*
X7628537Y-18057549D02*
X7828537Y-18257549D01*
X7828537Y-18057549D02*
X7628537Y-18257549D01*
X8067109Y-18048025D02*
X8190918Y-18048025D01*
X8124251Y-18124215D01*
X8152823Y-18124215D01*
X8171871Y-18133739D01*
X8181394Y-18143263D01*
X8190918Y-18162311D01*
X8190918Y-18209930D01*
X8181394Y-18228977D01*
X8171871Y-18238501D01*
X8152823Y-18248025D01*
X8095680Y-18248025D01*
X8076632Y-18238501D01*
X8067109Y-18228977D01*
X8276632Y-18228977D02*
X8286156Y-18238501D01*
X8276632Y-18248025D01*
X8267109Y-18238501D01*
X8276632Y-18228977D01*
X8276632Y-18248025D01*
X8362347Y-18067072D02*
X8371871Y-18057549D01*
X8390918Y-18048025D01*
X8438537Y-18048025D01*
X8457585Y-18057549D01*
X8467109Y-18067072D01*
X8476633Y-18086120D01*
X8476633Y-18105168D01*
X8467109Y-18133739D01*
X8352823Y-18248025D01*
X8476633Y-18248025D01*
X8600442Y-18048025D02*
X8619490Y-18048025D01*
X8638537Y-18057549D01*
X8648061Y-18067072D01*
X8657585Y-18086120D01*
X8667109Y-18124215D01*
X8667109Y-18171834D01*
X8657585Y-18209930D01*
X8648061Y-18228977D01*
X8638537Y-18238501D01*
X8619490Y-18248025D01*
X8600442Y-18248025D01*
X8581394Y-18238501D01*
X8571871Y-18228977D01*
X8562347Y-18209930D01*
X8552823Y-18171834D01*
X8552823Y-18124215D01*
X8562347Y-18086120D01*
X8571871Y-18067072D01*
X8581394Y-18057549D01*
X8600442Y-18048025D01*
X8790918Y-18048025D02*
X8809966Y-18048025D01*
X8829013Y-18057549D01*
X8838537Y-18067072D01*
X8848061Y-18086120D01*
X8857585Y-18124215D01*
X8857585Y-18171834D01*
X8848061Y-18209930D01*
X8838537Y-18228977D01*
X8829013Y-18238501D01*
X8809966Y-18248025D01*
X8790918Y-18248025D01*
X8771871Y-18238501D01*
X8762347Y-18228977D01*
X8752823Y-18209930D01*
X8743299Y-18171834D01*
X8743299Y-18124215D01*
X8752823Y-18086120D01*
X8762347Y-18067072D01*
X8771871Y-18057549D01*
X8790918Y-18048025D01*
X8943299Y-18248025D02*
X8943299Y-18114691D01*
X8943299Y-18133739D02*
X8952823Y-18124215D01*
X8971871Y-18114691D01*
X9000442Y-18114691D01*
X9019490Y-18124215D01*
X9029013Y-18143263D01*
X9029013Y-18248025D01*
X9029013Y-18143263D02*
X9038537Y-18124215D01*
X9057585Y-18114691D01*
X9086156Y-18114691D01*
X9105204Y-18124215D01*
X9114728Y-18143263D01*
X9114728Y-18248025D01*
X9209966Y-18248025D02*
X9209966Y-18114691D01*
X9209966Y-18133739D02*
X9219490Y-18124215D01*
X9238537Y-18114691D01*
X9267109Y-18114691D01*
X9286156Y-18124215D01*
X9295680Y-18143263D01*
X9295680Y-18248025D01*
X9295680Y-18143263D02*
X9305204Y-18124215D01*
X9324252Y-18114691D01*
X9352823Y-18114691D01*
X9371871Y-18124215D01*
X9381394Y-18143263D01*
X9381394Y-18248025D01*
X9771871Y-18038501D02*
X9600442Y-18295644D01*
X10029013Y-18048025D02*
X10048061Y-18048025D01*
X10067109Y-18057549D01*
X10076633Y-18067072D01*
X10086156Y-18086120D01*
X10095680Y-18124215D01*
X10095680Y-18171834D01*
X10086156Y-18209930D01*
X10076633Y-18228977D01*
X10067109Y-18238501D01*
X10048061Y-18248025D01*
X10029013Y-18248025D01*
X10009966Y-18238501D01*
X10000442Y-18228977D01*
X9990918Y-18209930D01*
X9981394Y-18171834D01*
X9981394Y-18124215D01*
X9990918Y-18086120D01*
X10000442Y-18067072D01*
X10009966Y-18057549D01*
X10029013Y-18048025D01*
X10181394Y-18228977D02*
X10190918Y-18238501D01*
X10181394Y-18248025D01*
X10171871Y-18238501D01*
X10181394Y-18228977D01*
X10181394Y-18248025D01*
X10381394Y-18248025D02*
X10267109Y-18248025D01*
X10324252Y-18248025D02*
X10324252Y-18048025D01*
X10305204Y-18076596D01*
X10286156Y-18095644D01*
X10267109Y-18105168D01*
X10457585Y-18067072D02*
X10467109Y-18057549D01*
X10486156Y-18048025D01*
X10533775Y-18048025D01*
X10552823Y-18057549D01*
X10562347Y-18067072D01*
X10571871Y-18086120D01*
X10571871Y-18105168D01*
X10562347Y-18133739D01*
X10448061Y-18248025D01*
X10571871Y-18248025D01*
X10743299Y-18048025D02*
X10705204Y-18048025D01*
X10686156Y-18057549D01*
X10676633Y-18067072D01*
X10657585Y-18095644D01*
X10648061Y-18133739D01*
X10648061Y-18209930D01*
X10657585Y-18228977D01*
X10667109Y-18238501D01*
X10686156Y-18248025D01*
X10724252Y-18248025D01*
X10743299Y-18238501D01*
X10752823Y-18228977D01*
X10762347Y-18209930D01*
X10762347Y-18162311D01*
X10752823Y-18143263D01*
X10743299Y-18133739D01*
X10724252Y-18124215D01*
X10686156Y-18124215D01*
X10667109Y-18133739D01*
X10657585Y-18143263D01*
X10648061Y-18162311D01*
X10886156Y-18048025D02*
X10905204Y-18048025D01*
X10924252Y-18057549D01*
X10933775Y-18067072D01*
X10943299Y-18086120D01*
X10952823Y-18124215D01*
X10952823Y-18171834D01*
X10943299Y-18209930D01*
X10933775Y-18228977D01*
X10924252Y-18238501D01*
X10905204Y-18248025D01*
X10886156Y-18248025D01*
X10867109Y-18238501D01*
X10857585Y-18228977D01*
X10848061Y-18209930D01*
X10838537Y-18171834D01*
X10838537Y-18124215D01*
X10848061Y-18086120D01*
X10857585Y-18067072D01*
X10867109Y-18057549D01*
X10886156Y-18048025D01*
X11029013Y-18048025D02*
X11029013Y-18086120D01*
X11105204Y-18048025D02*
X11105204Y-18086120D01*
X11400442Y-18324215D02*
X11390918Y-18314691D01*
X11371871Y-18286120D01*
X11362347Y-18267072D01*
X11352823Y-18238501D01*
X11343299Y-18190882D01*
X11343299Y-18152787D01*
X11352823Y-18105168D01*
X11362347Y-18076596D01*
X11371871Y-18057549D01*
X11390918Y-18028977D01*
X11400442Y-18019453D01*
X11467109Y-18067072D02*
X11476632Y-18057549D01*
X11495680Y-18048025D01*
X11543299Y-18048025D01*
X11562347Y-18057549D01*
X11571871Y-18067072D01*
X11581394Y-18086120D01*
X11581394Y-18105168D01*
X11571871Y-18133739D01*
X11457585Y-18248025D01*
X11581394Y-18248025D01*
X11819490Y-18248025D02*
X11819490Y-18048025D01*
X11905204Y-18248025D02*
X11905204Y-18143263D01*
X11895680Y-18124215D01*
X11876632Y-18114691D01*
X11848061Y-18114691D01*
X11829013Y-18124215D01*
X11819490Y-18133739D01*
X12029013Y-18248025D02*
X12009966Y-18238501D01*
X12000442Y-18228977D01*
X11990918Y-18209930D01*
X11990918Y-18152787D01*
X12000442Y-18133739D01*
X12009966Y-18124215D01*
X12029013Y-18114691D01*
X12057585Y-18114691D01*
X12076632Y-18124215D01*
X12086156Y-18133739D01*
X12095680Y-18152787D01*
X12095680Y-18209930D01*
X12086156Y-18228977D01*
X12076632Y-18238501D01*
X12057585Y-18248025D01*
X12029013Y-18248025D01*
X12209966Y-18248025D02*
X12190918Y-18238501D01*
X12181394Y-18219453D01*
X12181394Y-18048025D01*
X12362347Y-18238501D02*
X12343299Y-18248025D01*
X12305204Y-18248025D01*
X12286156Y-18238501D01*
X12276632Y-18219453D01*
X12276632Y-18143263D01*
X12286156Y-18124215D01*
X12305204Y-18114691D01*
X12343299Y-18114691D01*
X12362347Y-18124215D01*
X12371871Y-18143263D01*
X12371871Y-18162311D01*
X12276632Y-18181358D01*
X12448061Y-18238501D02*
X12467109Y-18248025D01*
X12505204Y-18248025D01*
X12524251Y-18238501D01*
X12533775Y-18219453D01*
X12533775Y-18209930D01*
X12524251Y-18190882D01*
X12505204Y-18181358D01*
X12476632Y-18181358D01*
X12457585Y-18171834D01*
X12448061Y-18152787D01*
X12448061Y-18143263D01*
X12457585Y-18124215D01*
X12476632Y-18114691D01*
X12505204Y-18114691D01*
X12524251Y-18124215D01*
X12600442Y-18324215D02*
X12609966Y-18314691D01*
X12629013Y-18286120D01*
X12638537Y-18267072D01*
X12648061Y-18238501D01*
X12657585Y-18190882D01*
X12657585Y-18152787D01*
X12648061Y-18105168D01*
X12638537Y-18076596D01*
X12629013Y-18057549D01*
X12609966Y-18028977D01*
X12600442Y-18019453D01*
X12962347Y-18324215D02*
X12952823Y-18314691D01*
X12933775Y-18286120D01*
X12924251Y-18267072D01*
X12914728Y-18238501D01*
X12905204Y-18190882D01*
X12905204Y-18152787D01*
X12914728Y-18105168D01*
X12924251Y-18076596D01*
X12933775Y-18057549D01*
X12952823Y-18028977D01*
X12962347Y-18019453D01*
X13038537Y-18114691D02*
X13038537Y-18248025D01*
X13038537Y-18133739D02*
X13048061Y-18124215D01*
X13067109Y-18114691D01*
X13095680Y-18114691D01*
X13114728Y-18124215D01*
X13124251Y-18143263D01*
X13124251Y-18248025D01*
X13248061Y-18248025D02*
X13229013Y-18238501D01*
X13219490Y-18228977D01*
X13209966Y-18209930D01*
X13209966Y-18152787D01*
X13219490Y-18133739D01*
X13229013Y-18124215D01*
X13248061Y-18114691D01*
X13276632Y-18114691D01*
X13295680Y-18124215D01*
X13305204Y-18133739D01*
X13314728Y-18152787D01*
X13314728Y-18209930D01*
X13305204Y-18228977D01*
X13295680Y-18238501D01*
X13276632Y-18248025D01*
X13248061Y-18248025D01*
X13371871Y-18114691D02*
X13448061Y-18114691D01*
X13400442Y-18048025D02*
X13400442Y-18219453D01*
X13409966Y-18238501D01*
X13429013Y-18248025D01*
X13448061Y-18248025D01*
X13667109Y-18114691D02*
X13667109Y-18314691D01*
X13667109Y-18124215D02*
X13686156Y-18114691D01*
X13724251Y-18114691D01*
X13743299Y-18124215D01*
X13752823Y-18133739D01*
X13762347Y-18152787D01*
X13762347Y-18209930D01*
X13752823Y-18228977D01*
X13743299Y-18238501D01*
X13724251Y-18248025D01*
X13686156Y-18248025D01*
X13667109Y-18238501D01*
X13876632Y-18248025D02*
X13857585Y-18238501D01*
X13848061Y-18219453D01*
X13848061Y-18048025D01*
X14038537Y-18248025D02*
X14038537Y-18143263D01*
X14029013Y-18124215D01*
X14009966Y-18114691D01*
X13971871Y-18114691D01*
X13952823Y-18124215D01*
X14038537Y-18238501D02*
X14019490Y-18248025D01*
X13971871Y-18248025D01*
X13952823Y-18238501D01*
X13943299Y-18219453D01*
X13943299Y-18200406D01*
X13952823Y-18181358D01*
X13971871Y-18171834D01*
X14019490Y-18171834D01*
X14038537Y-18162311D01*
X14105204Y-18114691D02*
X14181394Y-18114691D01*
X14133775Y-18048025D02*
X14133775Y-18219453D01*
X14143299Y-18238501D01*
X14162347Y-18248025D01*
X14181394Y-18248025D01*
X14324251Y-18238501D02*
X14305204Y-18248025D01*
X14267109Y-18248025D01*
X14248061Y-18238501D01*
X14238537Y-18219453D01*
X14238537Y-18143263D01*
X14248061Y-18124215D01*
X14267109Y-18114691D01*
X14305204Y-18114691D01*
X14324251Y-18124215D01*
X14333775Y-18143263D01*
X14333775Y-18162311D01*
X14238537Y-18181358D01*
X14505204Y-18248025D02*
X14505204Y-18048025D01*
X14505204Y-18238501D02*
X14486156Y-18248025D01*
X14448061Y-18248025D01*
X14429013Y-18238501D01*
X14419490Y-18228977D01*
X14409966Y-18209930D01*
X14409966Y-18152787D01*
X14419490Y-18133739D01*
X14429013Y-18124215D01*
X14448061Y-18114691D01*
X14486156Y-18114691D01*
X14505204Y-18124215D01*
X14581394Y-18324215D02*
X14590918Y-18314691D01*
X14609966Y-18286120D01*
X14619490Y-18267072D01*
X14629013Y-18238501D01*
X14638537Y-18190882D01*
X14638537Y-18152787D01*
X14629013Y-18105168D01*
X14619490Y-18076596D01*
X14609966Y-18057549D01*
X14590918Y-18028977D01*
X14581394Y-18019453D01*
M02*
