%TF.GenerationSoftware,KiCad,Pcbnew,(6.0.0)*%
%TF.CreationDate,2022-03-14T15:32:50-04:00*%
%TF.ProjectId,Northstar PIO,4e6f7274-6873-4746-9172-2050494f2e6b,rev?*%
%TF.SameCoordinates,Original*%
%TF.FileFunction,Legend,Top*%
%TF.FilePolarity,Positive*%
%FSLAX46Y46*%
G04 Gerber Fmt 4.6, Leading zero omitted, Abs format (unit mm)*
G04 Created by KiCad (PCBNEW (6.0.0)) date 2022-03-14 15:32:50*
%MOMM*%
%LPD*%
G01*
G04 APERTURE LIST*
%ADD10C,0.200000*%
%ADD11C,0.150000*%
%ADD12C,0.254000*%
%ADD13C,0.100000*%
%ADD14C,0.120000*%
%ADD15R,1.650000X1.650000*%
%ADD16C,1.650000*%
%ADD17C,4.800000*%
%ADD18C,3.200000*%
%ADD19R,1.600000X1.600000*%
%ADD20O,1.600000X1.600000*%
%ADD21C,2.000000*%
%ADD22R,1.700000X1.700000*%
%ADD23O,1.700000X1.700000*%
%ADD24R,1.700000X7.400000*%
%ADD25C,1.600000*%
G04 APERTURE END LIST*
D10*
X152135373Y-145695486D02*
X130545373Y-145695486D01*
X130545373Y-145695486D02*
X130545373Y-153315486D01*
X130545373Y-153315486D02*
X152135373Y-153315486D01*
X152135373Y-153315486D02*
X152135373Y-145695486D01*
D11*
X80651087Y-143034057D02*
X81217753Y-143034057D01*
X81460611Y-143924533D02*
X80651087Y-143924533D01*
X80651087Y-142224533D01*
X81460611Y-142224533D01*
D10*
X126138706Y-150072152D02*
X126338706Y-150138819D01*
X126672039Y-150138819D01*
X126805373Y-150072152D01*
X126872039Y-150005486D01*
X126938706Y-149872152D01*
X126938706Y-149738819D01*
X126872039Y-149605486D01*
X126805373Y-149538819D01*
X126672039Y-149472152D01*
X126405373Y-149405486D01*
X126272039Y-149338819D01*
X126205373Y-149272152D01*
X126138706Y-149138819D01*
X126138706Y-149005486D01*
X126205373Y-148872152D01*
X126272039Y-148805486D01*
X126405373Y-148738819D01*
X126738706Y-148738819D01*
X126938706Y-148805486D01*
X128538706Y-148672152D02*
X127338706Y-150472152D01*
X129005373Y-150138819D02*
X129005373Y-148738819D01*
X129805373Y-150138819D01*
X129805373Y-148738819D01*
D11*
X122592039Y-155307866D02*
X123211087Y-155307866D01*
X122877753Y-155688819D01*
X123020611Y-155688819D01*
X123115849Y-155736438D01*
X123163468Y-155784057D01*
X123211087Y-155879295D01*
X123211087Y-156117390D01*
X123163468Y-156212628D01*
X123115849Y-156260247D01*
X123020611Y-156307866D01*
X122734896Y-156307866D01*
X122639658Y-156260247D01*
X122592039Y-156212628D01*
X80610611Y-44378819D02*
X81420134Y-44378819D01*
X80448706Y-44864533D02*
X81015373Y-43164533D01*
X81582039Y-44864533D01*
X136609658Y-166833105D02*
X136657277Y-166785486D01*
X136752515Y-166737866D01*
X136990611Y-166737866D01*
X137085849Y-166785486D01*
X137133468Y-166833105D01*
X137181087Y-166928343D01*
X137181087Y-167023581D01*
X137133468Y-167166438D01*
X136562039Y-167737866D01*
X137181087Y-167737866D01*
X81541563Y-92962628D02*
X81460611Y-93043581D01*
X81217753Y-93124533D01*
X81055849Y-93124533D01*
X80812992Y-93043581D01*
X80651087Y-92881676D01*
X80570134Y-92719771D01*
X80489182Y-92395962D01*
X80489182Y-92153105D01*
X80570134Y-91829295D01*
X80651087Y-91667390D01*
X80812992Y-91505486D01*
X81055849Y-91424533D01*
X81217753Y-91424533D01*
X81460611Y-91505486D01*
X81541563Y-91586438D01*
X81136801Y-66834057D02*
X81379658Y-66915009D01*
X81460611Y-66995962D01*
X81541563Y-67157866D01*
X81541563Y-67400724D01*
X81460611Y-67562628D01*
X81379658Y-67643581D01*
X81217753Y-67724533D01*
X80570134Y-67724533D01*
X80570134Y-66024533D01*
X81136801Y-66024533D01*
X81298706Y-66105486D01*
X81379658Y-66186438D01*
X81460611Y-66348343D01*
X81460611Y-66510247D01*
X81379658Y-66672152D01*
X81298706Y-66753105D01*
X81136801Y-66834057D01*
X80570134Y-66834057D01*
X92731087Y-156307866D02*
X92159658Y-156307866D01*
X92445373Y-156307866D02*
X92445373Y-155307866D01*
X92350134Y-155450724D01*
X92254896Y-155545962D01*
X92159658Y-155593581D01*
X80570134Y-118524533D02*
X80570134Y-116824533D01*
X80974896Y-116824533D01*
X81217753Y-116905486D01*
X81379658Y-117067390D01*
X81460611Y-117229295D01*
X81541563Y-117553105D01*
X81541563Y-117795962D01*
X81460611Y-118119771D01*
X81379658Y-118281676D01*
X81217753Y-118443581D01*
X80974896Y-118524533D01*
X80570134Y-118524533D01*
X107399658Y-155403105D02*
X107447277Y-155355486D01*
X107542515Y-155307866D01*
X107780611Y-155307866D01*
X107875849Y-155355486D01*
X107923468Y-155403105D01*
X107971087Y-155498343D01*
X107971087Y-155593581D01*
X107923468Y-155736438D01*
X107352039Y-156307866D01*
X107971087Y-156307866D01*
X134818380Y-105377142D02*
X134294571Y-105377142D01*
X134199333Y-105424761D01*
X134151714Y-105520000D01*
X134151714Y-105710476D01*
X134199333Y-105805714D01*
X134770761Y-105377142D02*
X134818380Y-105472380D01*
X134818380Y-105710476D01*
X134770761Y-105805714D01*
X134675523Y-105853333D01*
X134580285Y-105853333D01*
X134485047Y-105805714D01*
X134437428Y-105710476D01*
X134437428Y-105472380D01*
X134389809Y-105377142D01*
X134818380Y-104900952D02*
X133818380Y-104900952D01*
X134199333Y-104900952D02*
X134151714Y-104805714D01*
X134151714Y-104615238D01*
X134199333Y-104520000D01*
X134246952Y-104472380D01*
X134342190Y-104424761D01*
X134627904Y-104424761D01*
X134723142Y-104472380D01*
X134770761Y-104520000D01*
X134818380Y-104615238D01*
X134818380Y-104805714D01*
X134770761Y-104900952D01*
X134151714Y-104091428D02*
X134151714Y-103567619D01*
X134818380Y-104091428D01*
X134818380Y-103567619D01*
X134818380Y-103186666D02*
X134151714Y-103186666D01*
X134246952Y-103186666D02*
X134199333Y-103139047D01*
X134151714Y-103043809D01*
X134151714Y-102900952D01*
X134199333Y-102805714D01*
X134294571Y-102758095D01*
X134818380Y-102758095D01*
X134294571Y-102758095D02*
X134199333Y-102710476D01*
X134151714Y-102615238D01*
X134151714Y-102472380D01*
X134199333Y-102377142D01*
X134294571Y-102329523D01*
X134818380Y-102329523D01*
X134818380Y-101424761D02*
X134294571Y-101424761D01*
X134199333Y-101472380D01*
X134151714Y-101567619D01*
X134151714Y-101758095D01*
X134199333Y-101853333D01*
X134770761Y-101424761D02*
X134818380Y-101520000D01*
X134818380Y-101758095D01*
X134770761Y-101853333D01*
X134675523Y-101900952D01*
X134580285Y-101900952D01*
X134485047Y-101853333D01*
X134437428Y-101758095D01*
X134437428Y-101520000D01*
X134389809Y-101424761D01*
X134151714Y-100948571D02*
X134818380Y-100948571D01*
X134246952Y-100948571D02*
X134199333Y-100900952D01*
X134151714Y-100805714D01*
X134151714Y-100662857D01*
X134199333Y-100567619D01*
X134294571Y-100520000D01*
X134818380Y-100520000D01*
X133913619Y-100091428D02*
X133866000Y-100043809D01*
X133818380Y-99948571D01*
X133818380Y-99710476D01*
X133866000Y-99615238D01*
X133913619Y-99567619D01*
X134008857Y-99520000D01*
X134104095Y-99520000D01*
X134246952Y-99567619D01*
X134818380Y-100139047D01*
X134818380Y-99520000D01*
X134818380Y-99091428D02*
X133818380Y-99091428D01*
X134437428Y-98996190D02*
X134818380Y-98710476D01*
X134151714Y-98710476D02*
X134532666Y-99091428D01*
X134723142Y-98281904D02*
X134770761Y-98234285D01*
X134818380Y-98281904D01*
X134770761Y-98329523D01*
X134723142Y-98281904D01*
X134818380Y-98281904D01*
X134151714Y-97900952D02*
X134818380Y-97710476D01*
X134342190Y-97520000D01*
X134818380Y-97329523D01*
X134151714Y-97139047D01*
X134818380Y-96615238D02*
X134770761Y-96710476D01*
X134723142Y-96758095D01*
X134627904Y-96805714D01*
X134342190Y-96805714D01*
X134246952Y-96758095D01*
X134199333Y-96710476D01*
X134151714Y-96615238D01*
X134151714Y-96472380D01*
X134199333Y-96377142D01*
X134246952Y-96329523D01*
X134342190Y-96281904D01*
X134627904Y-96281904D01*
X134723142Y-96329523D01*
X134770761Y-96377142D01*
X134818380Y-96472380D01*
X134818380Y-96615238D01*
X134818380Y-95853333D02*
X134151714Y-95853333D01*
X134342190Y-95853333D02*
X134246952Y-95805714D01*
X134199333Y-95758095D01*
X134151714Y-95662857D01*
X134151714Y-95567619D01*
X134818380Y-94805714D02*
X133818380Y-94805714D01*
X134770761Y-94805714D02*
X134818380Y-94900952D01*
X134818380Y-95091428D01*
X134770761Y-95186666D01*
X134723142Y-95234285D01*
X134627904Y-95281904D01*
X134342190Y-95281904D01*
X134246952Y-95234285D01*
X134199333Y-95186666D01*
X134151714Y-95091428D01*
X134151714Y-94900952D01*
X134199333Y-94805714D01*
X134151714Y-94329523D02*
X135151714Y-94329523D01*
X134199333Y-94329523D02*
X134151714Y-94234285D01*
X134151714Y-94043809D01*
X134199333Y-93948571D01*
X134246952Y-93900952D01*
X134342190Y-93853333D01*
X134627904Y-93853333D01*
X134723142Y-93900952D01*
X134770761Y-93948571D01*
X134818380Y-94043809D01*
X134818380Y-94234285D01*
X134770761Y-94329523D01*
X134818380Y-93424761D02*
X134151714Y-93424761D01*
X134342190Y-93424761D02*
X134246952Y-93377142D01*
X134199333Y-93329523D01*
X134151714Y-93234285D01*
X134151714Y-93139047D01*
X134770761Y-92424761D02*
X134818380Y-92520000D01*
X134818380Y-92710476D01*
X134770761Y-92805714D01*
X134675523Y-92853333D01*
X134294571Y-92853333D01*
X134199333Y-92805714D01*
X134151714Y-92710476D01*
X134151714Y-92520000D01*
X134199333Y-92424761D01*
X134294571Y-92377142D01*
X134389809Y-92377142D01*
X134485047Y-92853333D01*
X134770761Y-91996190D02*
X134818380Y-91900952D01*
X134818380Y-91710476D01*
X134770761Y-91615238D01*
X134675523Y-91567619D01*
X134627904Y-91567619D01*
X134532666Y-91615238D01*
X134485047Y-91710476D01*
X134485047Y-91853333D01*
X134437428Y-91948571D01*
X134342190Y-91996190D01*
X134294571Y-91996190D01*
X134199333Y-91948571D01*
X134151714Y-91853333D01*
X134151714Y-91710476D01*
X134199333Y-91615238D01*
X134770761Y-91186666D02*
X134818380Y-91091428D01*
X134818380Y-90900952D01*
X134770761Y-90805714D01*
X134675523Y-90758095D01*
X134627904Y-90758095D01*
X134532666Y-90805714D01*
X134485047Y-90900952D01*
X134485047Y-91043809D01*
X134437428Y-91139047D01*
X134342190Y-91186666D01*
X134294571Y-91186666D01*
X134199333Y-91139047D01*
X134151714Y-91043809D01*
X134151714Y-90900952D01*
X134199333Y-90805714D01*
X134723142Y-90329523D02*
X134770761Y-90281904D01*
X134818380Y-90329523D01*
X134770761Y-90377142D01*
X134723142Y-90329523D01*
X134818380Y-90329523D01*
X134770761Y-89424761D02*
X134818380Y-89520000D01*
X134818380Y-89710476D01*
X134770761Y-89805714D01*
X134723142Y-89853333D01*
X134627904Y-89900952D01*
X134342190Y-89900952D01*
X134246952Y-89853333D01*
X134199333Y-89805714D01*
X134151714Y-89710476D01*
X134151714Y-89520000D01*
X134199333Y-89424761D01*
X134818380Y-88853333D02*
X134770761Y-88948571D01*
X134723142Y-88996190D01*
X134627904Y-89043809D01*
X134342190Y-89043809D01*
X134246952Y-88996190D01*
X134199333Y-88948571D01*
X134151714Y-88853333D01*
X134151714Y-88710476D01*
X134199333Y-88615238D01*
X134246952Y-88567619D01*
X134342190Y-88520000D01*
X134627904Y-88520000D01*
X134723142Y-88567619D01*
X134770761Y-88615238D01*
X134818380Y-88710476D01*
X134818380Y-88853333D01*
X134818380Y-88091428D02*
X134151714Y-88091428D01*
X134246952Y-88091428D02*
X134199333Y-88043809D01*
X134151714Y-87948571D01*
X134151714Y-87805714D01*
X134199333Y-87710476D01*
X134294571Y-87662857D01*
X134818380Y-87662857D01*
X134294571Y-87662857D02*
X134199333Y-87615238D01*
X134151714Y-87520000D01*
X134151714Y-87377142D01*
X134199333Y-87281904D01*
X134294571Y-87234285D01*
X134818380Y-87234285D01*
X85920849Y-166102866D02*
X86539896Y-166102866D01*
X86206563Y-166483819D01*
X86349420Y-166483819D01*
X86444658Y-166531438D01*
X86492277Y-166579057D01*
X86539896Y-166674295D01*
X86539896Y-166912390D01*
X86492277Y-167007628D01*
X86444658Y-167055247D01*
X86349420Y-167102866D01*
X86063706Y-167102866D01*
X85968468Y-167055247D01*
X85920849Y-167007628D01*
X87158944Y-166102866D02*
X87254182Y-166102866D01*
X87349420Y-166150486D01*
X87397039Y-166198105D01*
X87444658Y-166293343D01*
X87492277Y-166483819D01*
X87492277Y-166721914D01*
X87444658Y-166912390D01*
X87397039Y-167007628D01*
X87349420Y-167055247D01*
X87254182Y-167102866D01*
X87158944Y-167102866D01*
X87063706Y-167055247D01*
X87016087Y-167007628D01*
X86968468Y-166912390D01*
X86920849Y-166721914D01*
X86920849Y-166483819D01*
X86968468Y-166293343D01*
X87016087Y-166198105D01*
X87063706Y-166150486D01*
X87158944Y-166102866D01*
X131516380Y-114464666D02*
X130516380Y-114464666D01*
X131516380Y-113893238D01*
X130516380Y-113893238D01*
X131516380Y-113274190D02*
X131468761Y-113369428D01*
X131421142Y-113417047D01*
X131325904Y-113464666D01*
X131040190Y-113464666D01*
X130944952Y-113417047D01*
X130897333Y-113369428D01*
X130849714Y-113274190D01*
X130849714Y-113131333D01*
X130897333Y-113036095D01*
X130944952Y-112988476D01*
X131040190Y-112940857D01*
X131325904Y-112940857D01*
X131421142Y-112988476D01*
X131468761Y-113036095D01*
X131516380Y-113131333D01*
X131516380Y-113274190D01*
X131516380Y-112512285D02*
X130849714Y-112512285D01*
X131040190Y-112512285D02*
X130944952Y-112464666D01*
X130897333Y-112417047D01*
X130849714Y-112321809D01*
X130849714Y-112226571D01*
X130849714Y-112036095D02*
X130849714Y-111655142D01*
X130516380Y-111893238D02*
X131373523Y-111893238D01*
X131468761Y-111845619D01*
X131516380Y-111750380D01*
X131516380Y-111655142D01*
X131516380Y-111321809D02*
X130516380Y-111321809D01*
X131516380Y-110893238D02*
X130992571Y-110893238D01*
X130897333Y-110940857D01*
X130849714Y-111036095D01*
X130849714Y-111178952D01*
X130897333Y-111274190D01*
X130944952Y-111321809D01*
X131468761Y-110464666D02*
X131516380Y-110369428D01*
X131516380Y-110178952D01*
X131468761Y-110083714D01*
X131373523Y-110036095D01*
X131325904Y-110036095D01*
X131230666Y-110083714D01*
X131183047Y-110178952D01*
X131183047Y-110321809D01*
X131135428Y-110417047D01*
X131040190Y-110464666D01*
X130992571Y-110464666D01*
X130897333Y-110417047D01*
X130849714Y-110321809D01*
X130849714Y-110178952D01*
X130897333Y-110083714D01*
X130849714Y-109750380D02*
X130849714Y-109369428D01*
X130516380Y-109607523D02*
X131373523Y-109607523D01*
X131468761Y-109559904D01*
X131516380Y-109464666D01*
X131516380Y-109369428D01*
X131516380Y-108607523D02*
X130992571Y-108607523D01*
X130897333Y-108655142D01*
X130849714Y-108750380D01*
X130849714Y-108940857D01*
X130897333Y-109036095D01*
X131468761Y-108607523D02*
X131516380Y-108702761D01*
X131516380Y-108940857D01*
X131468761Y-109036095D01*
X131373523Y-109083714D01*
X131278285Y-109083714D01*
X131183047Y-109036095D01*
X131135428Y-108940857D01*
X131135428Y-108702761D01*
X131087809Y-108607523D01*
X131516380Y-108131333D02*
X130849714Y-108131333D01*
X131040190Y-108131333D02*
X130944952Y-108083714D01*
X130897333Y-108036095D01*
X130849714Y-107940857D01*
X130849714Y-107845619D01*
X131230666Y-106798000D02*
X131230666Y-106321809D01*
X131516380Y-106893238D02*
X130516380Y-106559904D01*
X131516380Y-106226571D01*
X131516380Y-105464666D02*
X130516380Y-105464666D01*
X131468761Y-105464666D02*
X131516380Y-105559904D01*
X131516380Y-105750380D01*
X131468761Y-105845619D01*
X131421142Y-105893238D01*
X131325904Y-105940857D01*
X131040190Y-105940857D01*
X130944952Y-105893238D01*
X130897333Y-105845619D01*
X130849714Y-105750380D01*
X130849714Y-105559904D01*
X130897333Y-105464666D01*
X130849714Y-105083714D02*
X131516380Y-104845619D01*
X130849714Y-104607523D01*
X131516380Y-103798000D02*
X130992571Y-103798000D01*
X130897333Y-103845619D01*
X130849714Y-103940857D01*
X130849714Y-104131333D01*
X130897333Y-104226571D01*
X131468761Y-103798000D02*
X131516380Y-103893238D01*
X131516380Y-104131333D01*
X131468761Y-104226571D01*
X131373523Y-104274190D01*
X131278285Y-104274190D01*
X131183047Y-104226571D01*
X131135428Y-104131333D01*
X131135428Y-103893238D01*
X131087809Y-103798000D01*
X130849714Y-103321809D02*
X131516380Y-103321809D01*
X130944952Y-103321809D02*
X130897333Y-103274190D01*
X130849714Y-103178952D01*
X130849714Y-103036095D01*
X130897333Y-102940857D01*
X130992571Y-102893238D01*
X131516380Y-102893238D01*
X130849714Y-102559904D02*
X130849714Y-102178952D01*
X130516380Y-102417047D02*
X131373523Y-102417047D01*
X131468761Y-102369428D01*
X131516380Y-102274190D01*
X131516380Y-102178952D01*
X131516380Y-101417047D02*
X130992571Y-101417047D01*
X130897333Y-101464666D01*
X130849714Y-101559904D01*
X130849714Y-101750380D01*
X130897333Y-101845619D01*
X131468761Y-101417047D02*
X131516380Y-101512285D01*
X131516380Y-101750380D01*
X131468761Y-101845619D01*
X131373523Y-101893238D01*
X131278285Y-101893238D01*
X131183047Y-101845619D01*
X131135428Y-101750380D01*
X131135428Y-101512285D01*
X131087809Y-101417047D01*
X130849714Y-100512285D02*
X131659238Y-100512285D01*
X131754476Y-100559904D01*
X131802095Y-100607523D01*
X131849714Y-100702761D01*
X131849714Y-100845619D01*
X131802095Y-100940857D01*
X131468761Y-100512285D02*
X131516380Y-100607523D01*
X131516380Y-100798000D01*
X131468761Y-100893238D01*
X131421142Y-100940857D01*
X131325904Y-100988476D01*
X131040190Y-100988476D01*
X130944952Y-100940857D01*
X130897333Y-100893238D01*
X130849714Y-100798000D01*
X130849714Y-100607523D01*
X130897333Y-100512285D01*
X131468761Y-99655142D02*
X131516380Y-99750380D01*
X131516380Y-99940857D01*
X131468761Y-100036095D01*
X131373523Y-100083714D01*
X130992571Y-100083714D01*
X130897333Y-100036095D01*
X130849714Y-99940857D01*
X130849714Y-99750380D01*
X130897333Y-99655142D01*
X130992571Y-99607523D01*
X131087809Y-99607523D01*
X131183047Y-100083714D01*
X131516380Y-98417047D02*
X130849714Y-98417047D01*
X131040190Y-98417047D02*
X130944952Y-98369428D01*
X130897333Y-98321809D01*
X130849714Y-98226571D01*
X130849714Y-98131333D01*
X131468761Y-97417047D02*
X131516380Y-97512285D01*
X131516380Y-97702761D01*
X131468761Y-97798000D01*
X131373523Y-97845619D01*
X130992571Y-97845619D01*
X130897333Y-97798000D01*
X130849714Y-97702761D01*
X130849714Y-97512285D01*
X130897333Y-97417047D01*
X130992571Y-97369428D01*
X131087809Y-97369428D01*
X131183047Y-97845619D01*
X130849714Y-96940857D02*
X131849714Y-96940857D01*
X130897333Y-96940857D02*
X130849714Y-96845619D01*
X130849714Y-96655142D01*
X130897333Y-96559904D01*
X130944952Y-96512285D01*
X131040190Y-96464666D01*
X131325904Y-96464666D01*
X131421142Y-96512285D01*
X131468761Y-96559904D01*
X131516380Y-96655142D01*
X131516380Y-96845619D01*
X131468761Y-96940857D01*
X131516380Y-96036095D02*
X130849714Y-96036095D01*
X131040190Y-96036095D02*
X130944952Y-95988476D01*
X130897333Y-95940857D01*
X130849714Y-95845619D01*
X130849714Y-95750380D01*
X131516380Y-95274190D02*
X131468761Y-95369428D01*
X131421142Y-95417047D01*
X131325904Y-95464666D01*
X131040190Y-95464666D01*
X130944952Y-95417047D01*
X130897333Y-95369428D01*
X130849714Y-95274190D01*
X130849714Y-95131333D01*
X130897333Y-95036095D01*
X130944952Y-94988476D01*
X131040190Y-94940857D01*
X131325904Y-94940857D01*
X131421142Y-94988476D01*
X131468761Y-95036095D01*
X131516380Y-95131333D01*
X131516380Y-95274190D01*
X131516380Y-94083714D02*
X130516380Y-94083714D01*
X131468761Y-94083714D02*
X131516380Y-94178952D01*
X131516380Y-94369428D01*
X131468761Y-94464666D01*
X131421142Y-94512285D01*
X131325904Y-94559904D01*
X131040190Y-94559904D01*
X130944952Y-94512285D01*
X130897333Y-94464666D01*
X130849714Y-94369428D01*
X130849714Y-94178952D01*
X130897333Y-94083714D01*
X130849714Y-93178952D02*
X131516380Y-93178952D01*
X130849714Y-93607523D02*
X131373523Y-93607523D01*
X131468761Y-93559904D01*
X131516380Y-93464666D01*
X131516380Y-93321809D01*
X131468761Y-93226571D01*
X131421142Y-93178952D01*
X131468761Y-92274190D02*
X131516380Y-92369428D01*
X131516380Y-92559904D01*
X131468761Y-92655142D01*
X131421142Y-92702761D01*
X131325904Y-92750380D01*
X131040190Y-92750380D01*
X130944952Y-92702761D01*
X130897333Y-92655142D01*
X130849714Y-92559904D01*
X130849714Y-92369428D01*
X130897333Y-92274190D01*
X130849714Y-91988476D02*
X130849714Y-91607523D01*
X130516380Y-91845619D02*
X131373523Y-91845619D01*
X131468761Y-91798000D01*
X131516380Y-91702761D01*
X131516380Y-91607523D01*
X131516380Y-91274190D02*
X130849714Y-91274190D01*
X130516380Y-91274190D02*
X130564000Y-91321809D01*
X130611619Y-91274190D01*
X130564000Y-91226571D01*
X130516380Y-91274190D01*
X130611619Y-91274190D01*
X131516380Y-90655142D02*
X131468761Y-90750380D01*
X131421142Y-90798000D01*
X131325904Y-90845619D01*
X131040190Y-90845619D01*
X130944952Y-90798000D01*
X130897333Y-90750380D01*
X130849714Y-90655142D01*
X130849714Y-90512285D01*
X130897333Y-90417047D01*
X130944952Y-90369428D01*
X131040190Y-90321809D01*
X131325904Y-90321809D01*
X131421142Y-90369428D01*
X131468761Y-90417047D01*
X131516380Y-90512285D01*
X131516380Y-90655142D01*
X130849714Y-89893238D02*
X131516380Y-89893238D01*
X130944952Y-89893238D02*
X130897333Y-89845619D01*
X130849714Y-89750380D01*
X130849714Y-89607523D01*
X130897333Y-89512285D01*
X130992571Y-89464666D01*
X131516380Y-89464666D01*
X131516380Y-88226571D02*
X130516380Y-88226571D01*
X130516380Y-87845619D01*
X130564000Y-87750380D01*
X130611619Y-87702761D01*
X130706857Y-87655142D01*
X130849714Y-87655142D01*
X130944952Y-87702761D01*
X130992571Y-87750380D01*
X131040190Y-87845619D01*
X131040190Y-88226571D01*
X131516380Y-87226571D02*
X130516380Y-87226571D01*
X130516380Y-86559904D02*
X130516380Y-86369428D01*
X130564000Y-86274190D01*
X130659238Y-86178952D01*
X130849714Y-86131333D01*
X131183047Y-86131333D01*
X131373523Y-86178952D01*
X131468761Y-86274190D01*
X131516380Y-86369428D01*
X131516380Y-86559904D01*
X131468761Y-86655142D01*
X131373523Y-86750380D01*
X131183047Y-86798000D01*
X130849714Y-86798000D01*
X130659238Y-86750380D01*
X130564000Y-86655142D01*
X130516380Y-86559904D01*
X131468761Y-84512285D02*
X131516380Y-84607523D01*
X131516380Y-84798000D01*
X131468761Y-84893238D01*
X131421142Y-84940857D01*
X131325904Y-84988476D01*
X131040190Y-84988476D01*
X130944952Y-84940857D01*
X130897333Y-84893238D01*
X130849714Y-84798000D01*
X130849714Y-84607523D01*
X130897333Y-84512285D01*
X131516380Y-83655142D02*
X130992571Y-83655142D01*
X130897333Y-83702761D01*
X130849714Y-83798000D01*
X130849714Y-83988476D01*
X130897333Y-84083714D01*
X131468761Y-83655142D02*
X131516380Y-83750380D01*
X131516380Y-83988476D01*
X131468761Y-84083714D01*
X131373523Y-84131333D01*
X131278285Y-84131333D01*
X131183047Y-84083714D01*
X131135428Y-83988476D01*
X131135428Y-83750380D01*
X131087809Y-83655142D01*
X131516380Y-83178952D02*
X130849714Y-83178952D01*
X131040190Y-83178952D02*
X130944952Y-83131333D01*
X130897333Y-83083714D01*
X130849714Y-82988476D01*
X130849714Y-82893238D01*
X131516380Y-82131333D02*
X130516380Y-82131333D01*
X131468761Y-82131333D02*
X131516380Y-82226571D01*
X131516380Y-82417047D01*
X131468761Y-82512285D01*
X131421142Y-82559904D01*
X131325904Y-82607523D01*
X131040190Y-82607523D01*
X130944952Y-82559904D01*
X130897333Y-82512285D01*
X130849714Y-82417047D01*
X130849714Y-82226571D01*
X130897333Y-82131333D01*
D12*
%TO.C,P1*%
X154203165Y-114567866D02*
X152933165Y-114567866D01*
X152933165Y-114084057D01*
X152993642Y-113963105D01*
X153054118Y-113902628D01*
X153175070Y-113842152D01*
X153356499Y-113842152D01*
X153477451Y-113902628D01*
X153537927Y-113963105D01*
X153598403Y-114084057D01*
X153598403Y-114567866D01*
X154203165Y-112632628D02*
X154203165Y-113358343D01*
X154203165Y-112995486D02*
X152933165Y-112995486D01*
X153114594Y-113116438D01*
X153235546Y-113237390D01*
X153296022Y-113358343D01*
%TO.C,P2*%
X154203165Y-73805666D02*
X152933165Y-73805666D01*
X152933165Y-73321857D01*
X152993642Y-73200905D01*
X153054118Y-73140428D01*
X153175070Y-73079952D01*
X153356499Y-73079952D01*
X153477451Y-73140428D01*
X153537927Y-73200905D01*
X153598403Y-73321857D01*
X153598403Y-73805666D01*
X153054118Y-72596143D02*
X152993642Y-72535666D01*
X152933165Y-72414714D01*
X152933165Y-72112333D01*
X152993642Y-71991381D01*
X153054118Y-71930905D01*
X153175070Y-71870428D01*
X153296022Y-71870428D01*
X153477451Y-71930905D01*
X154203165Y-72656619D01*
X154203165Y-71870428D01*
D11*
%TO.C,U2C1*%
X106090134Y-82647866D02*
X105613944Y-82647866D01*
X105613944Y-81647866D01*
X106375849Y-82600247D02*
X106518706Y-82647866D01*
X106756801Y-82647866D01*
X106852039Y-82600247D01*
X106899658Y-82552628D01*
X106947277Y-82457390D01*
X106947277Y-82362152D01*
X106899658Y-82266914D01*
X106852039Y-82219295D01*
X106756801Y-82171676D01*
X106566325Y-82124057D01*
X106471087Y-82076438D01*
X106423468Y-82028819D01*
X106375849Y-81933581D01*
X106375849Y-81838343D01*
X106423468Y-81743105D01*
X106471087Y-81695486D01*
X106566325Y-81647866D01*
X106804420Y-81647866D01*
X106947277Y-81695486D01*
X107899658Y-82647866D02*
X107328230Y-82647866D01*
X107613944Y-82647866D02*
X107613944Y-81647866D01*
X107518706Y-81790724D01*
X107423468Y-81885962D01*
X107328230Y-81933581D01*
X108232992Y-81647866D02*
X108899658Y-81647866D01*
X108471087Y-82647866D01*
X109756801Y-81647866D02*
X109280611Y-81647866D01*
X109232992Y-82124057D01*
X109280611Y-82076438D01*
X109375849Y-82028819D01*
X109613944Y-82028819D01*
X109709182Y-82076438D01*
X109756801Y-82124057D01*
X109804420Y-82219295D01*
X109804420Y-82457390D01*
X109756801Y-82552628D01*
X109709182Y-82600247D01*
X109613944Y-82647866D01*
X109375849Y-82647866D01*
X109280611Y-82600247D01*
X109232992Y-82552628D01*
%TO.C,U3D1*%
X121330134Y-115667866D02*
X120853944Y-115667866D01*
X120853944Y-114667866D01*
X121615849Y-115620247D02*
X121758706Y-115667866D01*
X121996801Y-115667866D01*
X122092039Y-115620247D01*
X122139658Y-115572628D01*
X122187277Y-115477390D01*
X122187277Y-115382152D01*
X122139658Y-115286914D01*
X122092039Y-115239295D01*
X121996801Y-115191676D01*
X121806325Y-115144057D01*
X121711087Y-115096438D01*
X121663468Y-115048819D01*
X121615849Y-114953581D01*
X121615849Y-114858343D01*
X121663468Y-114763105D01*
X121711087Y-114715486D01*
X121806325Y-114667866D01*
X122044420Y-114667866D01*
X122187277Y-114715486D01*
X122520611Y-114667866D02*
X123139658Y-114667866D01*
X122806325Y-115048819D01*
X122949182Y-115048819D01*
X123044420Y-115096438D01*
X123092039Y-115144057D01*
X123139658Y-115239295D01*
X123139658Y-115477390D01*
X123092039Y-115572628D01*
X123044420Y-115620247D01*
X122949182Y-115667866D01*
X122663468Y-115667866D01*
X122568230Y-115620247D01*
X122520611Y-115572628D01*
X123472992Y-114667866D02*
X124139658Y-114667866D01*
X123711087Y-115667866D01*
X124425373Y-114667866D02*
X125044420Y-114667866D01*
X124711087Y-115048819D01*
X124853944Y-115048819D01*
X124949182Y-115096438D01*
X124996801Y-115144057D01*
X125044420Y-115239295D01*
X125044420Y-115477390D01*
X124996801Y-115572628D01*
X124949182Y-115620247D01*
X124853944Y-115667866D01*
X124568230Y-115667866D01*
X124472992Y-115620247D01*
X124425373Y-115572628D01*
%TO.C,U1D1*%
X90850134Y-107969866D02*
X90373944Y-107969866D01*
X90373944Y-106969866D01*
X91135849Y-107922247D02*
X91278706Y-107969866D01*
X91516801Y-107969866D01*
X91612039Y-107922247D01*
X91659658Y-107874628D01*
X91707277Y-107779390D01*
X91707277Y-107684152D01*
X91659658Y-107588914D01*
X91612039Y-107541295D01*
X91516801Y-107493676D01*
X91326325Y-107446057D01*
X91231087Y-107398438D01*
X91183468Y-107350819D01*
X91135849Y-107255581D01*
X91135849Y-107160343D01*
X91183468Y-107065105D01*
X91231087Y-107017486D01*
X91326325Y-106969866D01*
X91564420Y-106969866D01*
X91707277Y-107017486D01*
X92659658Y-107969866D02*
X92088230Y-107969866D01*
X92373944Y-107969866D02*
X92373944Y-106969866D01*
X92278706Y-107112724D01*
X92183468Y-107207962D01*
X92088230Y-107255581D01*
X93516801Y-106969866D02*
X93326325Y-106969866D01*
X93231087Y-107017486D01*
X93183468Y-107065105D01*
X93088230Y-107207962D01*
X93040611Y-107398438D01*
X93040611Y-107779390D01*
X93088230Y-107874628D01*
X93135849Y-107922247D01*
X93231087Y-107969866D01*
X93421563Y-107969866D01*
X93516801Y-107922247D01*
X93564420Y-107874628D01*
X93612039Y-107779390D01*
X93612039Y-107541295D01*
X93564420Y-107446057D01*
X93516801Y-107398438D01*
X93421563Y-107350819D01*
X93231087Y-107350819D01*
X93135849Y-107398438D01*
X93088230Y-107446057D01*
X93040611Y-107541295D01*
X94469182Y-107303200D02*
X94469182Y-107969866D01*
X94231087Y-106922247D02*
X93992992Y-107636533D01*
X94612039Y-107636533D01*
%TO.C,U3C1*%
X121330134Y-110587866D02*
X120853944Y-110587866D01*
X120853944Y-109587866D01*
X121615849Y-110540247D02*
X121758706Y-110587866D01*
X121996801Y-110587866D01*
X122092039Y-110540247D01*
X122139658Y-110492628D01*
X122187277Y-110397390D01*
X122187277Y-110302152D01*
X122139658Y-110206914D01*
X122092039Y-110159295D01*
X121996801Y-110111676D01*
X121806325Y-110064057D01*
X121711087Y-110016438D01*
X121663468Y-109968819D01*
X121615849Y-109873581D01*
X121615849Y-109778343D01*
X121663468Y-109683105D01*
X121711087Y-109635486D01*
X121806325Y-109587866D01*
X122044420Y-109587866D01*
X122187277Y-109635486D01*
X122520611Y-109587866D02*
X123139658Y-109587866D01*
X122806325Y-109968819D01*
X122949182Y-109968819D01*
X123044420Y-110016438D01*
X123092039Y-110064057D01*
X123139658Y-110159295D01*
X123139658Y-110397390D01*
X123092039Y-110492628D01*
X123044420Y-110540247D01*
X122949182Y-110587866D01*
X122663468Y-110587866D01*
X122568230Y-110540247D01*
X122520611Y-110492628D01*
X123472992Y-109587866D02*
X124139658Y-109587866D01*
X123711087Y-110587866D01*
X124425373Y-109587866D02*
X125044420Y-109587866D01*
X124711087Y-109968819D01*
X124853944Y-109968819D01*
X124949182Y-110016438D01*
X124996801Y-110064057D01*
X125044420Y-110159295D01*
X125044420Y-110397390D01*
X124996801Y-110492628D01*
X124949182Y-110540247D01*
X124853944Y-110587866D01*
X124568230Y-110587866D01*
X124472992Y-110540247D01*
X124425373Y-110492628D01*
%TO.C,U2A1*%
X106566325Y-31847866D02*
X106090134Y-31847866D01*
X106090134Y-30847866D01*
X106852039Y-31800247D02*
X106994896Y-31847866D01*
X107232992Y-31847866D01*
X107328230Y-31800247D01*
X107375849Y-31752628D01*
X107423468Y-31657390D01*
X107423468Y-31562152D01*
X107375849Y-31466914D01*
X107328230Y-31419295D01*
X107232992Y-31371676D01*
X107042515Y-31324057D01*
X106947277Y-31276438D01*
X106899658Y-31228819D01*
X106852039Y-31133581D01*
X106852039Y-31038343D01*
X106899658Y-30943105D01*
X106947277Y-30895486D01*
X107042515Y-30847866D01*
X107280611Y-30847866D01*
X107423468Y-30895486D01*
X107756801Y-30847866D02*
X108375849Y-30847866D01*
X108042515Y-31228819D01*
X108185373Y-31228819D01*
X108280611Y-31276438D01*
X108328230Y-31324057D01*
X108375849Y-31419295D01*
X108375849Y-31657390D01*
X108328230Y-31752628D01*
X108280611Y-31800247D01*
X108185373Y-31847866D01*
X107899658Y-31847866D01*
X107804420Y-31800247D01*
X107756801Y-31752628D01*
X108756801Y-30943105D02*
X108804420Y-30895486D01*
X108899658Y-30847866D01*
X109137753Y-30847866D01*
X109232992Y-30895486D01*
X109280611Y-30943105D01*
X109328230Y-31038343D01*
X109328230Y-31133581D01*
X109280611Y-31276438D01*
X108709182Y-31847866D01*
X109328230Y-31847866D01*
%TO.C,C11*%
X82717753Y-138035486D02*
X82955849Y-138035486D01*
X82860611Y-138273581D02*
X82955849Y-138035486D01*
X82860611Y-137797390D01*
X83146325Y-138178343D02*
X82955849Y-138035486D01*
X83146325Y-137892628D01*
%TO.C,J4*%
X151802039Y-137527866D02*
X151802039Y-138242152D01*
X151754420Y-138385009D01*
X151659182Y-138480247D01*
X151516325Y-138527866D01*
X151421087Y-138527866D01*
X152706801Y-137861200D02*
X152706801Y-138527866D01*
X152468706Y-137480247D02*
X152230611Y-138194533D01*
X152849658Y-138194533D01*
%TO.C,C10*%
X114301753Y-120295486D02*
X114539849Y-120295486D01*
X114444611Y-120533581D02*
X114539849Y-120295486D01*
X114444611Y-120057390D01*
X114730325Y-120438343D02*
X114539849Y-120295486D01*
X114730325Y-120152628D01*
%TO.C,C4*%
X114757753Y-37705486D02*
X114995849Y-37705486D01*
X114900611Y-37943581D02*
X114995849Y-37705486D01*
X114900611Y-37467390D01*
X115186325Y-37848343D02*
X114995849Y-37705486D01*
X115186325Y-37562628D01*
%TO.C,C6*%
X114555528Y-61835486D02*
X114793624Y-61835486D01*
X114698386Y-62073581D02*
X114793624Y-61835486D01*
X114698386Y-61597390D01*
X114984100Y-61978343D02*
X114793624Y-61835486D01*
X114984100Y-61692628D01*
%TO.C,U2B1*%
X106090134Y-57247866D02*
X105613944Y-57247866D01*
X105613944Y-56247866D01*
X106375849Y-57200247D02*
X106518706Y-57247866D01*
X106756801Y-57247866D01*
X106852039Y-57200247D01*
X106899658Y-57152628D01*
X106947277Y-57057390D01*
X106947277Y-56962152D01*
X106899658Y-56866914D01*
X106852039Y-56819295D01*
X106756801Y-56771676D01*
X106566325Y-56724057D01*
X106471087Y-56676438D01*
X106423468Y-56628819D01*
X106375849Y-56533581D01*
X106375849Y-56438343D01*
X106423468Y-56343105D01*
X106471087Y-56295486D01*
X106566325Y-56247866D01*
X106804420Y-56247866D01*
X106947277Y-56295486D01*
X107899658Y-57247866D02*
X107328230Y-57247866D01*
X107613944Y-57247866D02*
X107613944Y-56247866D01*
X107518706Y-56390724D01*
X107423468Y-56485962D01*
X107328230Y-56533581D01*
X108232992Y-56247866D02*
X108852039Y-56247866D01*
X108518706Y-56628819D01*
X108661563Y-56628819D01*
X108756801Y-56676438D01*
X108804420Y-56724057D01*
X108852039Y-56819295D01*
X108852039Y-57057390D01*
X108804420Y-57152628D01*
X108756801Y-57200247D01*
X108661563Y-57247866D01*
X108375849Y-57247866D01*
X108280611Y-57200247D01*
X108232992Y-57152628D01*
X109423468Y-56676438D02*
X109328230Y-56628819D01*
X109280611Y-56581200D01*
X109232992Y-56485962D01*
X109232992Y-56438343D01*
X109280611Y-56343105D01*
X109328230Y-56295486D01*
X109423468Y-56247866D01*
X109613944Y-56247866D01*
X109709182Y-56295486D01*
X109756801Y-56343105D01*
X109804420Y-56438343D01*
X109804420Y-56485962D01*
X109756801Y-56581200D01*
X109709182Y-56628819D01*
X109613944Y-56676438D01*
X109423468Y-56676438D01*
X109328230Y-56724057D01*
X109280611Y-56771676D01*
X109232992Y-56866914D01*
X109232992Y-57057390D01*
X109280611Y-57152628D01*
X109328230Y-57200247D01*
X109423468Y-57247866D01*
X109613944Y-57247866D01*
X109709182Y-57200247D01*
X109756801Y-57152628D01*
X109804420Y-57057390D01*
X109804420Y-56866914D01*
X109756801Y-56771676D01*
X109709182Y-56724057D01*
X109613944Y-56676438D01*
%TO.C,U3A1*%
X121806325Y-31847866D02*
X121330134Y-31847866D01*
X121330134Y-30847866D01*
X122092039Y-31800247D02*
X122234896Y-31847866D01*
X122472992Y-31847866D01*
X122568230Y-31800247D01*
X122615849Y-31752628D01*
X122663468Y-31657390D01*
X122663468Y-31562152D01*
X122615849Y-31466914D01*
X122568230Y-31419295D01*
X122472992Y-31371676D01*
X122282515Y-31324057D01*
X122187277Y-31276438D01*
X122139658Y-31228819D01*
X122092039Y-31133581D01*
X122092039Y-31038343D01*
X122139658Y-30943105D01*
X122187277Y-30895486D01*
X122282515Y-30847866D01*
X122520611Y-30847866D01*
X122663468Y-30895486D01*
X123615849Y-31847866D02*
X123044420Y-31847866D01*
X123330134Y-31847866D02*
X123330134Y-30847866D01*
X123234896Y-30990724D01*
X123139658Y-31085962D01*
X123044420Y-31133581D01*
X124472992Y-31181200D02*
X124472992Y-31847866D01*
X124234896Y-30800247D02*
X123996801Y-31514533D01*
X124615849Y-31514533D01*
%TO.C,J1A1*%
X88540611Y-31752628D02*
X88492992Y-31800247D01*
X88350134Y-31847866D01*
X88254896Y-31847866D01*
X88112039Y-31800247D01*
X88016801Y-31705009D01*
X87969182Y-31609771D01*
X87921563Y-31419295D01*
X87921563Y-31276438D01*
X87969182Y-31085962D01*
X88016801Y-30990724D01*
X88112039Y-30895486D01*
X88254896Y-30847866D01*
X88350134Y-30847866D01*
X88492992Y-30895486D01*
X88540611Y-30943105D01*
X89159658Y-30847866D02*
X89350134Y-30847866D01*
X89445373Y-30895486D01*
X89540611Y-30990724D01*
X89588230Y-31181200D01*
X89588230Y-31514533D01*
X89540611Y-31705009D01*
X89445373Y-31800247D01*
X89350134Y-31847866D01*
X89159658Y-31847866D01*
X89064420Y-31800247D01*
X88969182Y-31705009D01*
X88921563Y-31514533D01*
X88921563Y-31181200D01*
X88969182Y-30990724D01*
X89064420Y-30895486D01*
X89159658Y-30847866D01*
X90016801Y-31847866D02*
X90016801Y-30847866D01*
X90588230Y-31847866D01*
X90588230Y-30847866D01*
X91397753Y-31324057D02*
X91064420Y-31324057D01*
X91064420Y-31847866D02*
X91064420Y-30847866D01*
X91540611Y-30847866D01*
X91921563Y-31847866D02*
X91921563Y-30847866D01*
X92921563Y-30895486D02*
X92826325Y-30847866D01*
X92683468Y-30847866D01*
X92540611Y-30895486D01*
X92445373Y-30990724D01*
X92397753Y-31085962D01*
X92350134Y-31276438D01*
X92350134Y-31419295D01*
X92397753Y-31609771D01*
X92445373Y-31705009D01*
X92540611Y-31800247D01*
X92683468Y-31847866D01*
X92778706Y-31847866D01*
X92921563Y-31800247D01*
X92969182Y-31752628D01*
X92969182Y-31419295D01*
X92778706Y-31419295D01*
X93397753Y-31752628D02*
X93445373Y-31800247D01*
X93397753Y-31847866D01*
X93350134Y-31800247D01*
X93397753Y-31752628D01*
X93397753Y-31847866D01*
X93873944Y-31847866D02*
X93873944Y-30847866D01*
X93873944Y-31324057D02*
X94445373Y-31324057D01*
X94445373Y-31847866D02*
X94445373Y-30847866D01*
X94921563Y-31847866D02*
X94921563Y-30847866D01*
X95159658Y-30847866D01*
X95302515Y-30895486D01*
X95397753Y-30990724D01*
X95445373Y-31085962D01*
X95492992Y-31276438D01*
X95492992Y-31419295D01*
X95445373Y-31609771D01*
X95397753Y-31705009D01*
X95302515Y-31800247D01*
X95159658Y-31847866D01*
X94921563Y-31847866D01*
X96492992Y-31847866D02*
X96159658Y-31371676D01*
X95921563Y-31847866D02*
X95921563Y-30847866D01*
X96302515Y-30847866D01*
X96397753Y-30895486D01*
X96445373Y-30943105D01*
X96492992Y-31038343D01*
X96492992Y-31181200D01*
X96445373Y-31276438D01*
X96397753Y-31324057D01*
X96302515Y-31371676D01*
X95921563Y-31371676D01*
X96921563Y-31752628D02*
X96969182Y-31800247D01*
X96921563Y-31847866D01*
X96873944Y-31800247D01*
X96921563Y-31752628D01*
X96921563Y-31847866D01*
%TO.C,RN1*%
X115304896Y-78837866D02*
X114971563Y-78361676D01*
X114733468Y-78837866D02*
X114733468Y-77837866D01*
X115114420Y-77837866D01*
X115209658Y-77885486D01*
X115257277Y-77933105D01*
X115304896Y-78028343D01*
X115304896Y-78171200D01*
X115257277Y-78266438D01*
X115209658Y-78314057D01*
X115114420Y-78361676D01*
X114733468Y-78361676D01*
X115733468Y-78837866D02*
X115733468Y-77837866D01*
X116304896Y-78837866D01*
X116304896Y-77837866D01*
X117304896Y-78837866D02*
X116733468Y-78837866D01*
X117019182Y-78837866D02*
X117019182Y-77837866D01*
X116923944Y-77980724D01*
X116828706Y-78075962D01*
X116733468Y-78123581D01*
X128560611Y-77933105D02*
X128608230Y-77885486D01*
X128703468Y-77837866D01*
X128941563Y-77837866D01*
X129036801Y-77885486D01*
X129084420Y-77933105D01*
X129132039Y-78028343D01*
X129132039Y-78123581D01*
X129084420Y-78266438D01*
X128512992Y-78837866D01*
X129132039Y-78837866D01*
X129560611Y-78742628D02*
X129608230Y-78790247D01*
X129560611Y-78837866D01*
X129512992Y-78790247D01*
X129560611Y-78742628D01*
X129560611Y-78837866D01*
X129989182Y-77933105D02*
X130036801Y-77885486D01*
X130132039Y-77837866D01*
X130370134Y-77837866D01*
X130465373Y-77885486D01*
X130512992Y-77933105D01*
X130560611Y-78028343D01*
X130560611Y-78123581D01*
X130512992Y-78266438D01*
X129941563Y-78837866D01*
X130560611Y-78837866D01*
X130989182Y-78837866D02*
X130989182Y-77837866D01*
X131084420Y-78456914D02*
X131370134Y-78837866D01*
X131370134Y-78171200D02*
X130989182Y-78552152D01*
%TO.C,C8*%
X114601753Y-87275486D02*
X114839849Y-87275486D01*
X114744611Y-87513581D02*
X114839849Y-87275486D01*
X114744611Y-87037390D01*
X115030325Y-87418343D02*
X114839849Y-87275486D01*
X115030325Y-87132628D01*
%TO.C,C3*%
X83007753Y-37745486D02*
X83245849Y-37745486D01*
X83150611Y-37983581D02*
X83245849Y-37745486D01*
X83150611Y-37507390D01*
X83436325Y-37888343D02*
X83245849Y-37745486D01*
X83436325Y-37602628D01*
%TO.C,C7*%
X83007753Y-87235486D02*
X83245849Y-87235486D01*
X83150611Y-87473581D02*
X83245849Y-87235486D01*
X83150611Y-86997390D01*
X83436325Y-87378343D02*
X83245849Y-87235486D01*
X83436325Y-87092628D01*
%TO.C,C12*%
X130008380Y-140575486D02*
X130246476Y-140575486D01*
X130151238Y-140813581D02*
X130246476Y-140575486D01*
X130151238Y-140337390D01*
X130436952Y-140718343D02*
X130246476Y-140575486D01*
X130436952Y-140432628D01*
%TO.C,R4*%
X152026481Y-42333866D02*
X151693148Y-41857676D01*
X151455052Y-42333866D02*
X151455052Y-41333866D01*
X151836005Y-41333866D01*
X151931243Y-41381486D01*
X151978862Y-41429105D01*
X152026481Y-41524343D01*
X152026481Y-41667200D01*
X151978862Y-41762438D01*
X151931243Y-41810057D01*
X151836005Y-41857676D01*
X151455052Y-41857676D01*
X152883624Y-41667200D02*
X152883624Y-42333866D01*
X152645528Y-41286247D02*
X152407433Y-42000533D01*
X153026481Y-42000533D01*
%TO.C,R2*%
X151968706Y-36927866D02*
X151635373Y-36451676D01*
X151397277Y-36927866D02*
X151397277Y-35927866D01*
X151778230Y-35927866D01*
X151873468Y-35975486D01*
X151921087Y-36023105D01*
X151968706Y-36118343D01*
X151968706Y-36261200D01*
X151921087Y-36356438D01*
X151873468Y-36404057D01*
X151778230Y-36451676D01*
X151397277Y-36451676D01*
X152349658Y-36023105D02*
X152397277Y-35975486D01*
X152492515Y-35927866D01*
X152730611Y-35927866D01*
X152825849Y-35975486D01*
X152873468Y-36023105D01*
X152921087Y-36118343D01*
X152921087Y-36213581D01*
X152873468Y-36356438D01*
X152302039Y-36927866D01*
X152921087Y-36927866D01*
%TO.C,J5*%
X151802039Y-140067866D02*
X151802039Y-140782152D01*
X151754420Y-140925009D01*
X151659182Y-141020247D01*
X151516325Y-141067866D01*
X151421087Y-141067866D01*
X152754420Y-140067866D02*
X152278230Y-140067866D01*
X152230611Y-140544057D01*
X152278230Y-140496438D01*
X152373468Y-140448819D01*
X152611563Y-140448819D01*
X152706801Y-140496438D01*
X152754420Y-140544057D01*
X152802039Y-140639295D01*
X152802039Y-140877390D01*
X152754420Y-140972628D01*
X152706801Y-141020247D01*
X152611563Y-141067866D01*
X152373468Y-141067866D01*
X152278230Y-141020247D01*
X152230611Y-140972628D01*
%TO.C,U2D1*%
X106566325Y-107969866D02*
X106090134Y-107969866D01*
X106090134Y-106969866D01*
X106852039Y-107922247D02*
X106994896Y-107969866D01*
X107232992Y-107969866D01*
X107328230Y-107922247D01*
X107375849Y-107874628D01*
X107423468Y-107779390D01*
X107423468Y-107684152D01*
X107375849Y-107588914D01*
X107328230Y-107541295D01*
X107232992Y-107493676D01*
X107042515Y-107446057D01*
X106947277Y-107398438D01*
X106899658Y-107350819D01*
X106852039Y-107255581D01*
X106852039Y-107160343D01*
X106899658Y-107065105D01*
X106947277Y-107017486D01*
X107042515Y-106969866D01*
X107280611Y-106969866D01*
X107423468Y-107017486D01*
X108042515Y-106969866D02*
X108137753Y-106969866D01*
X108232992Y-107017486D01*
X108280611Y-107065105D01*
X108328230Y-107160343D01*
X108375849Y-107350819D01*
X108375849Y-107588914D01*
X108328230Y-107779390D01*
X108280611Y-107874628D01*
X108232992Y-107922247D01*
X108137753Y-107969866D01*
X108042515Y-107969866D01*
X107947277Y-107922247D01*
X107899658Y-107874628D01*
X107852039Y-107779390D01*
X107804420Y-107588914D01*
X107804420Y-107350819D01*
X107852039Y-107160343D01*
X107899658Y-107065105D01*
X107947277Y-107017486D01*
X108042515Y-106969866D01*
X108709182Y-106969866D02*
X109328230Y-106969866D01*
X108994896Y-107350819D01*
X109137753Y-107350819D01*
X109232992Y-107398438D01*
X109280611Y-107446057D01*
X109328230Y-107541295D01*
X109328230Y-107779390D01*
X109280611Y-107874628D01*
X109232992Y-107922247D01*
X109137753Y-107969866D01*
X108852039Y-107969866D01*
X108756801Y-107922247D01*
X108709182Y-107874628D01*
%TO.C,C9*%
X83007753Y-112635486D02*
X83245849Y-112635486D01*
X83150611Y-112873581D02*
X83245849Y-112635486D01*
X83150611Y-112397390D01*
X83436325Y-112778343D02*
X83245849Y-112635486D01*
X83436325Y-112492628D01*
%TO.C,R3*%
X151968706Y-39467866D02*
X151635373Y-38991676D01*
X151397277Y-39467866D02*
X151397277Y-38467866D01*
X151778230Y-38467866D01*
X151873468Y-38515486D01*
X151921087Y-38563105D01*
X151968706Y-38658343D01*
X151968706Y-38801200D01*
X151921087Y-38896438D01*
X151873468Y-38944057D01*
X151778230Y-38991676D01*
X151397277Y-38991676D01*
X152302039Y-38467866D02*
X152921087Y-38467866D01*
X152587753Y-38848819D01*
X152730611Y-38848819D01*
X152825849Y-38896438D01*
X152873468Y-38944057D01*
X152921087Y-39039295D01*
X152921087Y-39277390D01*
X152873468Y-39372628D01*
X152825849Y-39420247D01*
X152730611Y-39467866D01*
X152444896Y-39467866D01*
X152349658Y-39420247D01*
X152302039Y-39372628D01*
X141856325Y-39467866D02*
X141284896Y-39467866D01*
X141570611Y-39467866D02*
X141570611Y-38467866D01*
X141475373Y-38610724D01*
X141380134Y-38705962D01*
X141284896Y-38753581D01*
X142284896Y-39467866D02*
X142284896Y-38467866D01*
X142380134Y-39086914D02*
X142665849Y-39467866D01*
X142665849Y-38801200D02*
X142284896Y-39182152D01*
%TO.C,U1B1*%
X91326325Y-57247866D02*
X90850134Y-57247866D01*
X90850134Y-56247866D01*
X91612039Y-57200247D02*
X91754896Y-57247866D01*
X91992992Y-57247866D01*
X92088230Y-57200247D01*
X92135849Y-57152628D01*
X92183468Y-57057390D01*
X92183468Y-56962152D01*
X92135849Y-56866914D01*
X92088230Y-56819295D01*
X91992992Y-56771676D01*
X91802515Y-56724057D01*
X91707277Y-56676438D01*
X91659658Y-56628819D01*
X91612039Y-56533581D01*
X91612039Y-56438343D01*
X91659658Y-56343105D01*
X91707277Y-56295486D01*
X91802515Y-56247866D01*
X92040611Y-56247866D01*
X92183468Y-56295486D01*
X92516801Y-56247866D02*
X93183468Y-56247866D01*
X92754896Y-57247866D01*
X93992992Y-56581200D02*
X93992992Y-57247866D01*
X93754896Y-56200247D02*
X93516801Y-56914533D01*
X94135849Y-56914533D01*
%TO.C,U1C1*%
X91326325Y-82647866D02*
X90850134Y-82647866D01*
X90850134Y-81647866D01*
X91612039Y-82600247D02*
X91754896Y-82647866D01*
X91992992Y-82647866D01*
X92088230Y-82600247D01*
X92135849Y-82552628D01*
X92183468Y-82457390D01*
X92183468Y-82362152D01*
X92135849Y-82266914D01*
X92088230Y-82219295D01*
X91992992Y-82171676D01*
X91802515Y-82124057D01*
X91707277Y-82076438D01*
X91659658Y-82028819D01*
X91612039Y-81933581D01*
X91612039Y-81838343D01*
X91659658Y-81743105D01*
X91707277Y-81695486D01*
X91802515Y-81647866D01*
X92040611Y-81647866D01*
X92183468Y-81695486D01*
X92516801Y-81647866D02*
X93183468Y-81647866D01*
X92754896Y-82647866D01*
X93992992Y-81981200D02*
X93992992Y-82647866D01*
X93754896Y-81600247D02*
X93516801Y-82314533D01*
X94135849Y-82314533D01*
%TO.C,U2E1*%
X106090134Y-133623866D02*
X105613944Y-133623866D01*
X105613944Y-132623866D01*
X106375849Y-133576247D02*
X106518706Y-133623866D01*
X106756801Y-133623866D01*
X106852039Y-133576247D01*
X106899658Y-133528628D01*
X106947277Y-133433390D01*
X106947277Y-133338152D01*
X106899658Y-133242914D01*
X106852039Y-133195295D01*
X106756801Y-133147676D01*
X106566325Y-133100057D01*
X106471087Y-133052438D01*
X106423468Y-133004819D01*
X106375849Y-132909581D01*
X106375849Y-132814343D01*
X106423468Y-132719105D01*
X106471087Y-132671486D01*
X106566325Y-132623866D01*
X106804420Y-132623866D01*
X106947277Y-132671486D01*
X107280611Y-132623866D02*
X107899658Y-132623866D01*
X107566325Y-133004819D01*
X107709182Y-133004819D01*
X107804420Y-133052438D01*
X107852039Y-133100057D01*
X107899658Y-133195295D01*
X107899658Y-133433390D01*
X107852039Y-133528628D01*
X107804420Y-133576247D01*
X107709182Y-133623866D01*
X107423468Y-133623866D01*
X107328230Y-133576247D01*
X107280611Y-133528628D01*
X108756801Y-132623866D02*
X108566325Y-132623866D01*
X108471087Y-132671486D01*
X108423468Y-132719105D01*
X108328230Y-132861962D01*
X108280611Y-133052438D01*
X108280611Y-133433390D01*
X108328230Y-133528628D01*
X108375849Y-133576247D01*
X108471087Y-133623866D01*
X108661563Y-133623866D01*
X108756801Y-133576247D01*
X108804420Y-133528628D01*
X108852039Y-133433390D01*
X108852039Y-133195295D01*
X108804420Y-133100057D01*
X108756801Y-133052438D01*
X108661563Y-133004819D01*
X108471087Y-133004819D01*
X108375849Y-133052438D01*
X108328230Y-133100057D01*
X108280611Y-133195295D01*
X109185373Y-132623866D02*
X109852039Y-132623866D01*
X109423468Y-133623866D01*
%TO.C,C5*%
X83007753Y-61835486D02*
X83245849Y-61835486D01*
X83150611Y-62073581D02*
X83245849Y-61835486D01*
X83150611Y-61597390D01*
X83436325Y-61978343D02*
X83245849Y-61835486D01*
X83436325Y-61692628D01*
%TO.C,J2*%
X151802039Y-46087866D02*
X151802039Y-46802152D01*
X151754420Y-46945009D01*
X151659182Y-47040247D01*
X151516325Y-47087866D01*
X151421087Y-47087866D01*
X152230611Y-46183105D02*
X152278230Y-46135486D01*
X152373468Y-46087866D01*
X152611563Y-46087866D01*
X152706801Y-46135486D01*
X152754420Y-46183105D01*
X152802039Y-46278343D01*
X152802039Y-46373581D01*
X152754420Y-46516438D01*
X152182992Y-47087866D01*
X152802039Y-47087866D01*
%TO.C,C2*%
X92298706Y-158752628D02*
X92251087Y-158800247D01*
X92108230Y-158847866D01*
X92012992Y-158847866D01*
X91870134Y-158800247D01*
X91774896Y-158705009D01*
X91727277Y-158609771D01*
X91679658Y-158419295D01*
X91679658Y-158276438D01*
X91727277Y-158085962D01*
X91774896Y-157990724D01*
X91870134Y-157895486D01*
X92012992Y-157847866D01*
X92108230Y-157847866D01*
X92251087Y-157895486D01*
X92298706Y-157943105D01*
X92679658Y-157943105D02*
X92727277Y-157895486D01*
X92822515Y-157847866D01*
X93060611Y-157847866D01*
X93155849Y-157895486D01*
X93203468Y-157943105D01*
X93251087Y-158038343D01*
X93251087Y-158133581D01*
X93203468Y-158276438D01*
X92632039Y-158847866D01*
X93251087Y-158847866D01*
X91060611Y-159117866D02*
X90870134Y-159117866D01*
X90774896Y-159165486D01*
X90727277Y-159213105D01*
X90632039Y-159355962D01*
X90584420Y-159546438D01*
X90584420Y-159927390D01*
X90632039Y-160022628D01*
X90679658Y-160070247D01*
X90774896Y-160117866D01*
X90965373Y-160117866D01*
X91060611Y-160070247D01*
X91108230Y-160022628D01*
X91155849Y-159927390D01*
X91155849Y-159689295D01*
X91108230Y-159594057D01*
X91060611Y-159546438D01*
X90965373Y-159498819D01*
X90774896Y-159498819D01*
X90679658Y-159546438D01*
X90632039Y-159594057D01*
X90584420Y-159689295D01*
X91584420Y-160022628D02*
X91632039Y-160070247D01*
X91584420Y-160117866D01*
X91536801Y-160070247D01*
X91584420Y-160022628D01*
X91584420Y-160117866D01*
X92203468Y-159546438D02*
X92108230Y-159498819D01*
X92060611Y-159451200D01*
X92012992Y-159355962D01*
X92012992Y-159308343D01*
X92060611Y-159213105D01*
X92108230Y-159165486D01*
X92203468Y-159117866D01*
X92393944Y-159117866D01*
X92489182Y-159165486D01*
X92536801Y-159213105D01*
X92584420Y-159308343D01*
X92584420Y-159355962D01*
X92536801Y-159451200D01*
X92489182Y-159498819D01*
X92393944Y-159546438D01*
X92203468Y-159546438D01*
X92108230Y-159594057D01*
X92060611Y-159641676D01*
X92012992Y-159736914D01*
X92012992Y-159927390D01*
X92060611Y-160022628D01*
X92108230Y-160070247D01*
X92203468Y-160117866D01*
X92393944Y-160117866D01*
X92489182Y-160070247D01*
X92536801Y-160022628D01*
X92584420Y-159927390D01*
X92584420Y-159736914D01*
X92536801Y-159641676D01*
X92489182Y-159594057D01*
X92393944Y-159546438D01*
X93441563Y-159451200D02*
X93441563Y-160117866D01*
X93012992Y-159451200D02*
X93012992Y-159975009D01*
X93060611Y-160070247D01*
X93155849Y-160117866D01*
X93298706Y-160117866D01*
X93393944Y-160070247D01*
X93441563Y-160022628D01*
X94251087Y-159594057D02*
X93917753Y-159594057D01*
X93917753Y-160117866D02*
X93917753Y-159117866D01*
X94393944Y-159117866D01*
%TO.C,J3*%
X151802039Y-48627866D02*
X151802039Y-49342152D01*
X151754420Y-49485009D01*
X151659182Y-49580247D01*
X151516325Y-49627866D01*
X151421087Y-49627866D01*
X152182992Y-48627866D02*
X152802039Y-48627866D01*
X152468706Y-49008819D01*
X152611563Y-49008819D01*
X152706801Y-49056438D01*
X152754420Y-49104057D01*
X152802039Y-49199295D01*
X152802039Y-49437390D01*
X152754420Y-49532628D01*
X152706801Y-49580247D01*
X152611563Y-49627866D01*
X152325849Y-49627866D01*
X152230611Y-49580247D01*
X152182992Y-49532628D01*
%TO.C,U3B1*%
X121163468Y-56247866D02*
X121830134Y-56247866D01*
X121401563Y-57247866D01*
X122639658Y-56581200D02*
X122639658Y-57247866D01*
X122401563Y-56200247D02*
X122163468Y-56914533D01*
X122782515Y-56914533D01*
X123068230Y-56247866D02*
X123687277Y-56247866D01*
X123353944Y-56628819D01*
X123496801Y-56628819D01*
X123592039Y-56676438D01*
X123639658Y-56724057D01*
X123687277Y-56819295D01*
X123687277Y-57057390D01*
X123639658Y-57152628D01*
X123592039Y-57200247D01*
X123496801Y-57247866D01*
X123211087Y-57247866D01*
X123115849Y-57200247D01*
X123068230Y-57152628D01*
X124020611Y-56247866D02*
X124687277Y-56247866D01*
X124258706Y-57247866D01*
%TO.C,R1*%
X151968706Y-34387866D02*
X151635373Y-33911676D01*
X151397277Y-34387866D02*
X151397277Y-33387866D01*
X151778230Y-33387866D01*
X151873468Y-33435486D01*
X151921087Y-33483105D01*
X151968706Y-33578343D01*
X151968706Y-33721200D01*
X151921087Y-33816438D01*
X151873468Y-33864057D01*
X151778230Y-33911676D01*
X151397277Y-33911676D01*
X152921087Y-34387866D02*
X152349658Y-34387866D01*
X152635373Y-34387866D02*
X152635373Y-33387866D01*
X152540134Y-33530724D01*
X152444896Y-33625962D01*
X152349658Y-33673581D01*
X141856325Y-34387866D02*
X141284896Y-34387866D01*
X141570611Y-34387866D02*
X141570611Y-33387866D01*
X141475373Y-33530724D01*
X141380134Y-33625962D01*
X141284896Y-33673581D01*
X142284896Y-34387866D02*
X142284896Y-33387866D01*
X142380134Y-34006914D02*
X142665849Y-34387866D01*
X142665849Y-33721200D02*
X142284896Y-34102152D01*
%TO.C,C1*%
X138018706Y-158752628D02*
X137971087Y-158800247D01*
X137828230Y-158847866D01*
X137732992Y-158847866D01*
X137590134Y-158800247D01*
X137494896Y-158705009D01*
X137447277Y-158609771D01*
X137399658Y-158419295D01*
X137399658Y-158276438D01*
X137447277Y-158085962D01*
X137494896Y-157990724D01*
X137590134Y-157895486D01*
X137732992Y-157847866D01*
X137828230Y-157847866D01*
X137971087Y-157895486D01*
X138018706Y-157943105D01*
X138971087Y-158847866D02*
X138399658Y-158847866D01*
X138685373Y-158847866D02*
X138685373Y-157847866D01*
X138590134Y-157990724D01*
X138494896Y-158085962D01*
X138399658Y-158133581D01*
X136780611Y-159117866D02*
X136590134Y-159117866D01*
X136494896Y-159165486D01*
X136447277Y-159213105D01*
X136352039Y-159355962D01*
X136304420Y-159546438D01*
X136304420Y-159927390D01*
X136352039Y-160022628D01*
X136399658Y-160070247D01*
X136494896Y-160117866D01*
X136685373Y-160117866D01*
X136780611Y-160070247D01*
X136828230Y-160022628D01*
X136875849Y-159927390D01*
X136875849Y-159689295D01*
X136828230Y-159594057D01*
X136780611Y-159546438D01*
X136685373Y-159498819D01*
X136494896Y-159498819D01*
X136399658Y-159546438D01*
X136352039Y-159594057D01*
X136304420Y-159689295D01*
X137304420Y-160022628D02*
X137352039Y-160070247D01*
X137304420Y-160117866D01*
X137256801Y-160070247D01*
X137304420Y-160022628D01*
X137304420Y-160117866D01*
X137923468Y-159546438D02*
X137828230Y-159498819D01*
X137780611Y-159451200D01*
X137732992Y-159355962D01*
X137732992Y-159308343D01*
X137780611Y-159213105D01*
X137828230Y-159165486D01*
X137923468Y-159117866D01*
X138113944Y-159117866D01*
X138209182Y-159165486D01*
X138256801Y-159213105D01*
X138304420Y-159308343D01*
X138304420Y-159355962D01*
X138256801Y-159451200D01*
X138209182Y-159498819D01*
X138113944Y-159546438D01*
X137923468Y-159546438D01*
X137828230Y-159594057D01*
X137780611Y-159641676D01*
X137732992Y-159736914D01*
X137732992Y-159927390D01*
X137780611Y-160022628D01*
X137828230Y-160070247D01*
X137923468Y-160117866D01*
X138113944Y-160117866D01*
X138209182Y-160070247D01*
X138256801Y-160022628D01*
X138304420Y-159927390D01*
X138304420Y-159736914D01*
X138256801Y-159641676D01*
X138209182Y-159594057D01*
X138113944Y-159546438D01*
X139161563Y-159451200D02*
X139161563Y-160117866D01*
X138732992Y-159451200D02*
X138732992Y-159975009D01*
X138780611Y-160070247D01*
X138875849Y-160117866D01*
X139018706Y-160117866D01*
X139113944Y-160070247D01*
X139161563Y-160022628D01*
X139971087Y-159594057D02*
X139637753Y-159594057D01*
X139637753Y-160117866D02*
X139637753Y-159117866D01*
X140113944Y-159117866D01*
%TO.C,J6*%
X151802039Y-142607866D02*
X151802039Y-143322152D01*
X151754420Y-143465009D01*
X151659182Y-143560247D01*
X151516325Y-143607866D01*
X151421087Y-143607866D01*
X152706801Y-142607866D02*
X152516325Y-142607866D01*
X152421087Y-142655486D01*
X152373468Y-142703105D01*
X152278230Y-142845962D01*
X152230611Y-143036438D01*
X152230611Y-143417390D01*
X152278230Y-143512628D01*
X152325849Y-143560247D01*
X152421087Y-143607866D01*
X152611563Y-143607866D01*
X152706801Y-143560247D01*
X152754420Y-143512628D01*
X152802039Y-143417390D01*
X152802039Y-143179295D01*
X152754420Y-143084057D01*
X152706801Y-143036438D01*
X152611563Y-142988819D01*
X152421087Y-142988819D01*
X152325849Y-143036438D01*
X152278230Y-143084057D01*
X152230611Y-143179295D01*
%TO.C,J1*%
X151802039Y-43547866D02*
X151802039Y-44262152D01*
X151754420Y-44405009D01*
X151659182Y-44500247D01*
X151516325Y-44547866D01*
X151421087Y-44547866D01*
X152802039Y-44547866D02*
X152230611Y-44547866D01*
X152516325Y-44547866D02*
X152516325Y-43547866D01*
X152421087Y-43690724D01*
X152325849Y-43785962D01*
X152230611Y-43833581D01*
D10*
%TO.C,P1*%
X163828642Y-101300486D02*
X163828642Y-125960486D01*
X158028642Y-101300486D02*
X163828642Y-101300486D01*
X158028642Y-94035486D02*
X158028642Y-133225486D01*
D13*
X142788642Y-103935486D02*
X142788642Y-103935486D01*
X142888642Y-103935486D02*
X142888642Y-103935486D01*
D10*
X143428642Y-94035486D02*
X158028642Y-94035486D01*
X158028642Y-125960486D02*
X158028642Y-101300486D01*
X158028642Y-133225486D02*
X143428642Y-133225486D01*
X143428642Y-133225486D02*
X143428642Y-94035486D01*
X163828642Y-125960486D02*
X158028642Y-125960486D01*
D13*
X142788642Y-103935486D02*
G75*
G03*
X142888642Y-103935486I50000J0D01*
G01*
X142888642Y-103935486D02*
G75*
G03*
X142788642Y-103935486I-50000J0D01*
G01*
D10*
%TO.C,P2*%
X163828642Y-60538286D02*
X163828642Y-85198286D01*
X158028642Y-60538286D02*
X163828642Y-60538286D01*
X158028642Y-53273286D02*
X158028642Y-92463286D01*
D13*
X142788642Y-63173286D02*
X142788642Y-63173286D01*
X142888642Y-63173286D02*
X142888642Y-63173286D01*
D10*
X143428642Y-53273286D02*
X158028642Y-53273286D01*
X158028642Y-85198286D02*
X158028642Y-60538286D01*
X158028642Y-92463286D02*
X143428642Y-92463286D01*
X143428642Y-92463286D02*
X143428642Y-53273286D01*
X163828642Y-85198286D02*
X158028642Y-85198286D01*
D13*
X142788642Y-63173286D02*
G75*
G03*
X142888642Y-63173286I50000J0D01*
G01*
X142888642Y-63173286D02*
G75*
G03*
X142788642Y-63173286I-50000J0D01*
G01*
D14*
%TO.C,U2C1*%
X110335373Y-103845486D02*
X110335373Y-83405486D01*
X106685373Y-83405486D02*
X105035373Y-83405486D01*
X110335373Y-83405486D02*
X108685373Y-83405486D01*
X105035373Y-83405486D02*
X105035373Y-103845486D01*
X105035373Y-103845486D02*
X110335373Y-103845486D01*
X106685373Y-83405486D02*
G75*
G03*
X108685373Y-83405486I1000000J0D01*
G01*
%TO.C,U3D1*%
X125575373Y-116425486D02*
X123925373Y-116425486D01*
X121925373Y-116425486D02*
X120275373Y-116425486D01*
X120275373Y-116425486D02*
X120275373Y-141945486D01*
X125575373Y-141945486D02*
X125575373Y-116425486D01*
X120275373Y-141945486D02*
X125575373Y-141945486D01*
X121925373Y-116425486D02*
G75*
G03*
X123925373Y-116425486I1000000J0D01*
G01*
%TO.C,U1D1*%
X95095373Y-108805486D02*
X93445373Y-108805486D01*
X89795373Y-126705486D02*
X95095373Y-126705486D01*
X91445373Y-108805486D02*
X89795373Y-108805486D01*
X89795373Y-108805486D02*
X89795373Y-126705486D01*
X95095373Y-126705486D02*
X95095373Y-108805486D01*
X91445373Y-108805486D02*
G75*
G03*
X93445373Y-108805486I1000000J0D01*
G01*
%TO.C,U3C1*%
X121925373Y-83405486D02*
X120275373Y-83405486D01*
X125575373Y-83405486D02*
X123925373Y-83405486D01*
X120275373Y-83405486D02*
X120275373Y-108925486D01*
X120275373Y-108925486D02*
X125575373Y-108925486D01*
X125575373Y-108925486D02*
X125575373Y-83405486D01*
X121925373Y-83405486D02*
G75*
G03*
X123925373Y-83405486I1000000J0D01*
G01*
%TO.C,U2A1*%
X110335373Y-50505486D02*
X110335373Y-32605486D01*
X110335373Y-32605486D02*
X108685373Y-32605486D01*
X106685373Y-32605486D02*
X105035373Y-32605486D01*
X105035373Y-50505486D02*
X110335373Y-50505486D01*
X105035373Y-32605486D02*
X105035373Y-50505486D01*
X106685373Y-32605486D02*
G75*
G03*
X108685373Y-32605486I1000000J0D01*
G01*
%TO.C,C11*%
X82185373Y-134165486D02*
X82185373Y-141905486D01*
X84925373Y-141905486D02*
X82185373Y-141905486D01*
X84925373Y-134165486D02*
X82185373Y-134165486D01*
X84925373Y-134165486D02*
X84925373Y-141905486D01*
%TO.C,J4*%
X145725373Y-139405486D02*
X145725373Y-138075486D01*
X148325373Y-139405486D02*
X150925373Y-139405486D01*
X148325373Y-139405486D02*
X148325373Y-136745486D01*
X148325373Y-136745486D02*
X150925373Y-136745486D01*
X150925373Y-139405486D02*
X150925373Y-136745486D01*
X147055373Y-139405486D02*
X145725373Y-139405486D01*
%TO.C,C10*%
X116675373Y-124165486D02*
X113935373Y-124165486D01*
X116675373Y-116425486D02*
X113935373Y-116425486D01*
X113935373Y-116425486D02*
X113935373Y-124165486D01*
X116675373Y-116425486D02*
X116675373Y-124165486D01*
%TO.C,C4*%
X116675373Y-33835486D02*
X113935373Y-33835486D01*
X116675373Y-33835486D02*
X116675373Y-41575486D01*
X116675373Y-41575486D02*
X113935373Y-41575486D01*
X113935373Y-33835486D02*
X113935373Y-41575486D01*
%TO.C,C6*%
X113935373Y-57965486D02*
X113935373Y-65705486D01*
X116675373Y-65705486D02*
X113935373Y-65705486D01*
X116675373Y-57965486D02*
X116675373Y-65705486D01*
X116675373Y-57965486D02*
X113935373Y-57965486D01*
%TO.C,U2B1*%
X110335373Y-78445486D02*
X110335373Y-58005486D01*
X105035373Y-58005486D02*
X105035373Y-78445486D01*
X110335373Y-58005486D02*
X108685373Y-58005486D01*
X105035373Y-78445486D02*
X110335373Y-78445486D01*
X106685373Y-58005486D02*
X105035373Y-58005486D01*
X106685373Y-58005486D02*
G75*
G03*
X108685373Y-58005486I1000000J0D01*
G01*
%TO.C,U3A1*%
X120275373Y-32605486D02*
X120275373Y-50505486D01*
X121925373Y-32605486D02*
X120275373Y-32605486D01*
X125575373Y-32605486D02*
X123925373Y-32605486D01*
X125575373Y-50505486D02*
X125575373Y-32605486D01*
X120275373Y-50505486D02*
X125575373Y-50505486D01*
X121925373Y-32605486D02*
G75*
G03*
X123925373Y-32605486I1000000J0D01*
G01*
%TO.C,J1A1*%
X89795373Y-53045486D02*
X95095373Y-53045486D01*
X89795373Y-32605486D02*
X89795373Y-53045486D01*
X95095373Y-32605486D02*
X93445373Y-32605486D01*
X95095373Y-53045486D02*
X95095373Y-32605486D01*
X91445373Y-32605486D02*
X89795373Y-32605486D01*
X91445373Y-32605486D02*
G75*
G03*
X93445373Y-32605486I1000000J0D01*
G01*
%TO.C,RN1*%
X113865373Y-79525486D02*
X113865373Y-82325486D01*
X129445373Y-82325486D02*
X129445373Y-79525486D01*
X126735373Y-82325486D02*
X126735373Y-79525486D01*
X113865373Y-82325486D02*
X129445373Y-82325486D01*
X129445373Y-79525486D02*
X113865373Y-79525486D01*
%TO.C,C8*%
X113935373Y-83405486D02*
X113935373Y-91145486D01*
X116675373Y-83405486D02*
X113935373Y-83405486D01*
X116675373Y-91145486D02*
X113935373Y-91145486D01*
X116675373Y-83405486D02*
X116675373Y-91145486D01*
%TO.C,G\u002A\u002A\u002A*%
G36*
X138601924Y-47847908D02*
G01*
X138612378Y-47812103D01*
X138628249Y-47781849D01*
X138650248Y-47754975D01*
X138659719Y-47745789D01*
X138699089Y-47717134D01*
X138742116Y-47699034D01*
X138787003Y-47691129D01*
X138831955Y-47693056D01*
X138875176Y-47704456D01*
X138914871Y-47724967D01*
X138949243Y-47754228D01*
X138976497Y-47791878D01*
X138985926Y-47811377D01*
X138993106Y-47836811D01*
X138998084Y-47871300D01*
X139000863Y-47911595D01*
X139001445Y-47954443D01*
X138999834Y-47996595D01*
X138996031Y-48034798D01*
X138990041Y-48065802D01*
X138985695Y-48078896D01*
X138963178Y-48118289D01*
X138932097Y-48151732D01*
X138895070Y-48176783D01*
X138869483Y-48187277D01*
X138832255Y-48195121D01*
X138791686Y-48197788D01*
X138756458Y-48195036D01*
X138711470Y-48180863D01*
X138670457Y-48155032D01*
X138654899Y-48141091D01*
X138631617Y-48113840D01*
X138614568Y-48083065D01*
X138603113Y-48046692D01*
X138596611Y-48002644D01*
X138594424Y-47948846D01*
X138594416Y-47944860D01*
X138697566Y-47944860D01*
X138698347Y-47985214D01*
X138701187Y-48015524D01*
X138706830Y-48038180D01*
X138716023Y-48055574D01*
X138729509Y-48070094D01*
X138738969Y-48077678D01*
X138766617Y-48091083D01*
X138799090Y-48095697D01*
X138832301Y-48091496D01*
X138862158Y-48078454D01*
X138862193Y-48078431D01*
X138877929Y-48063791D01*
X138889182Y-48042494D01*
X138896390Y-48013015D01*
X138899991Y-47973827D01*
X138900604Y-47944622D01*
X138900359Y-47911832D01*
X138899189Y-47888421D01*
X138896657Y-47871273D01*
X138892328Y-47857271D01*
X138886675Y-47845059D01*
X138867162Y-47819171D01*
X138841431Y-47802271D01*
X138811961Y-47794361D01*
X138781228Y-47795446D01*
X138751709Y-47805528D01*
X138725882Y-47824609D01*
X138710407Y-47844856D01*
X138704893Y-47855818D01*
X138701198Y-47868236D01*
X138698976Y-47884807D01*
X138697882Y-47908228D01*
X138697568Y-47941198D01*
X138697566Y-47944860D01*
X138594416Y-47944860D01*
X138596174Y-47891437D01*
X138601924Y-47847908D01*
G37*
G36*
X142438023Y-48577243D02*
G01*
X142465117Y-48537736D01*
X142499701Y-48507773D01*
X142541421Y-48487742D01*
X142589924Y-48478027D01*
X142596192Y-48477572D01*
X142648552Y-48479762D01*
X142694924Y-48492766D01*
X142734865Y-48516336D01*
X142767934Y-48550225D01*
X142789860Y-48586040D01*
X142798994Y-48605609D01*
X142805105Y-48622495D01*
X142808949Y-48640369D01*
X142811280Y-48662901D01*
X142812853Y-48693763D01*
X142813051Y-48698836D01*
X142815777Y-48770063D01*
X142506232Y-48770063D01*
X142509723Y-48796091D01*
X142519956Y-48827845D01*
X142540246Y-48854784D01*
X142568449Y-48874814D01*
X142601567Y-48885702D01*
X142629311Y-48885929D01*
X142661054Y-48879553D01*
X142691300Y-48868108D01*
X142712837Y-48854629D01*
X142731080Y-48839278D01*
X142764828Y-48867952D01*
X142781777Y-48882762D01*
X142794471Y-48894625D01*
X142800301Y-48901097D01*
X142800374Y-48901256D01*
X142797209Y-48908774D01*
X142785698Y-48920394D01*
X142768413Y-48934124D01*
X142747925Y-48947974D01*
X142726807Y-48959955D01*
X142720716Y-48962895D01*
X142689620Y-48973135D01*
X142652094Y-48979480D01*
X142612902Y-48981604D01*
X142576808Y-48979181D01*
X142554765Y-48974229D01*
X142514568Y-48957912D01*
X142483273Y-48937475D01*
X142457364Y-48910242D01*
X142442506Y-48888842D01*
X142423988Y-48849828D01*
X142411521Y-48802463D01*
X142405588Y-48749588D01*
X142406669Y-48694044D01*
X142407715Y-48683349D01*
X142407871Y-48682541D01*
X142506232Y-48682541D01*
X142713867Y-48682541D01*
X142709995Y-48662224D01*
X142697943Y-48625287D01*
X142678100Y-48597292D01*
X142651408Y-48579018D01*
X142618808Y-48571240D01*
X142600083Y-48571577D01*
X142565879Y-48580467D01*
X142538280Y-48599012D01*
X142518919Y-48625679D01*
X142509723Y-48656513D01*
X142506232Y-48682541D01*
X142407871Y-48682541D01*
X142418771Y-48625909D01*
X142438023Y-48577243D01*
G37*
G36*
X141790230Y-47866023D02*
G01*
X141790826Y-47917054D01*
X141791463Y-47957104D01*
X141792263Y-47987694D01*
X141793342Y-48010346D01*
X141794819Y-48026580D01*
X141796814Y-48037918D01*
X141799445Y-48045882D01*
X141802831Y-48051993D01*
X141804967Y-48054994D01*
X141826121Y-48078186D01*
X141848753Y-48091097D01*
X141876631Y-48095738D01*
X141881515Y-48095845D01*
X141916195Y-48091554D01*
X141943314Y-48077627D01*
X141964032Y-48053387D01*
X141968683Y-48044980D01*
X141972974Y-48036003D01*
X141976291Y-48026969D01*
X141978759Y-48016197D01*
X141980504Y-48002008D01*
X141981649Y-47982721D01*
X141982321Y-47956655D01*
X141982644Y-47922131D01*
X141982744Y-47877468D01*
X141982749Y-47856014D01*
X141982749Y-47694798D01*
X142082774Y-47694798D01*
X142082774Y-48194921D01*
X141982749Y-48194921D01*
X141982749Y-48145754D01*
X141951699Y-48166650D01*
X141910748Y-48187917D01*
X141868322Y-48198291D01*
X141826687Y-48197289D01*
X141817083Y-48195307D01*
X141773802Y-48178638D01*
X141737647Y-48151845D01*
X141709395Y-48115573D01*
X141700235Y-48098022D01*
X141696111Y-48088638D01*
X141692862Y-48079436D01*
X141690383Y-48068855D01*
X141688569Y-48055328D01*
X141687318Y-48037292D01*
X141686523Y-48013183D01*
X141686080Y-47981436D01*
X141685886Y-47940487D01*
X141685835Y-47888771D01*
X141685833Y-47882344D01*
X141685801Y-47697924D01*
X141737092Y-47696113D01*
X141788384Y-47694302D01*
X141790230Y-47866023D01*
G37*
G36*
X139569497Y-48769197D02*
G01*
X139587051Y-48737966D01*
X139598538Y-48725071D01*
X139615312Y-48711137D01*
X139633137Y-48700814D01*
X139654320Y-48693508D01*
X139681170Y-48688623D01*
X139715996Y-48685565D01*
X139758765Y-48683805D01*
X139850975Y-48681179D01*
X139850975Y-48647065D01*
X139849762Y-48625354D01*
X139846660Y-48607205D01*
X139844220Y-48600331D01*
X139830268Y-48586349D01*
X139806852Y-48576125D01*
X139776706Y-48570657D01*
X139761310Y-48570014D01*
X139726413Y-48571474D01*
X139700847Y-48576342D01*
X139681730Y-48585351D01*
X139672723Y-48592518D01*
X139656834Y-48607244D01*
X139619496Y-48578248D01*
X139601604Y-48563767D01*
X139588389Y-48551955D01*
X139582307Y-48545031D01*
X139582159Y-48544491D01*
X139586539Y-48538123D01*
X139597830Y-48526729D01*
X139608560Y-48517132D01*
X139634909Y-48498543D01*
X139664575Y-48486034D01*
X139699985Y-48479008D01*
X139743568Y-48476870D01*
X139769980Y-48477479D01*
X139802514Y-48479268D01*
X139826330Y-48481986D01*
X139845213Y-48486373D01*
X139862947Y-48493171D01*
X139872099Y-48497477D01*
X139906718Y-48519763D01*
X139931557Y-48548681D01*
X139945002Y-48576265D01*
X139947708Y-48587811D01*
X139949988Y-48607444D01*
X139951887Y-48636040D01*
X139953452Y-48674473D01*
X139954725Y-48723620D01*
X139955753Y-48784355D01*
X139955792Y-48787255D01*
X139958349Y-48976364D01*
X139850975Y-48976364D01*
X139850975Y-48937743D01*
X139832026Y-48953687D01*
X139812683Y-48966380D01*
X139791309Y-48975657D01*
X139789828Y-48976088D01*
X139760599Y-48980875D01*
X139725582Y-48981812D01*
X139690842Y-48979020D01*
X139665455Y-48973616D01*
X139625089Y-48955586D01*
X139592420Y-48929802D01*
X139569078Y-48897757D01*
X139560723Y-48877740D01*
X139555322Y-48843167D01*
X139556501Y-48829599D01*
X139651257Y-48829599D01*
X139658156Y-48850733D01*
X139673535Y-48868711D01*
X139696359Y-48880911D01*
X139704418Y-48883036D01*
X139723672Y-48885214D01*
X139749293Y-48885796D01*
X139776829Y-48884946D01*
X139801831Y-48882827D01*
X139819845Y-48879600D01*
X139822549Y-48878712D01*
X139835665Y-48867439D01*
X139845275Y-48846494D01*
X139850396Y-48818452D01*
X139850975Y-48804272D01*
X139850975Y-48769094D01*
X139767063Y-48771141D01*
X139732897Y-48772111D01*
X139708852Y-48773340D01*
X139692551Y-48775238D01*
X139681613Y-48778213D01*
X139673659Y-48782676D01*
X139667039Y-48788344D01*
X139653873Y-48807929D01*
X139651257Y-48829599D01*
X139556501Y-48829599D01*
X139558583Y-48805625D01*
X139569497Y-48769197D01*
G37*
G36*
X140404236Y-48732554D02*
G01*
X140404534Y-48681432D01*
X140405735Y-48640955D01*
X140408295Y-48609270D01*
X140412671Y-48584528D01*
X140419322Y-48564877D01*
X140428704Y-48548465D01*
X140441274Y-48533443D01*
X140457188Y-48518230D01*
X140488730Y-48494925D01*
X140522105Y-48481481D01*
X140561283Y-48476433D01*
X140570627Y-48476302D01*
X140598083Y-48479443D01*
X140627133Y-48487674D01*
X140653405Y-48499342D01*
X140672526Y-48512796D01*
X140675380Y-48515881D01*
X140684540Y-48524273D01*
X140689314Y-48526253D01*
X140691033Y-48520315D01*
X140692695Y-48503758D01*
X140694193Y-48478464D01*
X140695420Y-48446317D01*
X140696268Y-48409201D01*
X140696363Y-48402785D01*
X140698058Y-48279317D01*
X140746508Y-48277491D01*
X140794957Y-48275665D01*
X140794957Y-48976364D01*
X140694932Y-48976364D01*
X140694932Y-48954483D01*
X140693274Y-48938086D01*
X140687775Y-48933470D01*
X140677648Y-48940290D01*
X140673171Y-48944975D01*
X140656795Y-48957019D01*
X140632305Y-48968148D01*
X140604078Y-48976859D01*
X140576487Y-48981651D01*
X140564978Y-48982122D01*
X140540154Y-48979683D01*
X140515202Y-48974243D01*
X140509795Y-48972505D01*
X140476657Y-48955135D01*
X140446302Y-48929005D01*
X140422805Y-48897791D01*
X140418851Y-48890388D01*
X140413907Y-48879724D01*
X140410223Y-48869291D01*
X140407615Y-48857095D01*
X140405897Y-48841143D01*
X140404886Y-48819442D01*
X140404396Y-48789999D01*
X140404278Y-48759486D01*
X140502056Y-48759486D01*
X140506603Y-48801552D01*
X140516300Y-48833685D01*
X140531431Y-48856740D01*
X140552281Y-48871566D01*
X140558451Y-48874097D01*
X140591227Y-48881449D01*
X140622004Y-48877832D01*
X140642365Y-48869811D01*
X140660363Y-48859296D01*
X140673519Y-48846413D01*
X140682537Y-48829164D01*
X140688121Y-48805550D01*
X140690976Y-48773573D01*
X140691804Y-48731233D01*
X140691805Y-48729428D01*
X140691546Y-48694439D01*
X140690547Y-48669222D01*
X140688476Y-48651052D01*
X140685003Y-48637206D01*
X140679794Y-48624958D01*
X140678875Y-48623152D01*
X140660249Y-48599231D01*
X140635259Y-48583665D01*
X140606662Y-48576486D01*
X140577212Y-48577724D01*
X140549665Y-48587411D01*
X140526776Y-48605578D01*
X140516028Y-48621312D01*
X140509445Y-48640902D01*
X140504862Y-48671000D01*
X140502372Y-48706638D01*
X140502056Y-48759486D01*
X140404278Y-48759486D01*
X140404244Y-48750820D01*
X140404236Y-48732554D01*
G37*
G36*
X141195506Y-47886460D02*
G01*
X141200502Y-47847000D01*
X141208405Y-47815404D01*
X141210555Y-47809796D01*
X141233754Y-47769152D01*
X141264843Y-47736667D01*
X141302002Y-47712621D01*
X141343414Y-47697294D01*
X141387257Y-47690968D01*
X141431715Y-47693922D01*
X141474966Y-47706438D01*
X141515192Y-47728796D01*
X141547529Y-47757813D01*
X141565421Y-47779655D01*
X141578676Y-47801350D01*
X141587932Y-47825289D01*
X141593824Y-47853867D01*
X141596988Y-47889476D01*
X141598061Y-47934509D01*
X141598076Y-47947986D01*
X141597784Y-47985881D01*
X141596898Y-48013993D01*
X141595118Y-48035039D01*
X141592143Y-48051735D01*
X141587674Y-48066799D01*
X141583811Y-48077035D01*
X141565370Y-48110013D01*
X141538392Y-48141539D01*
X141506615Y-48167797D01*
X141480858Y-48182182D01*
X141446214Y-48192546D01*
X141405970Y-48197441D01*
X141366045Y-48196265D01*
X141356256Y-48194858D01*
X141310169Y-48180832D01*
X141269489Y-48156331D01*
X141236048Y-48122762D01*
X141213063Y-48084669D01*
X141203981Y-48056055D01*
X141197654Y-48018582D01*
X141194112Y-47975596D01*
X141193614Y-47944622D01*
X141295217Y-47944622D01*
X141296648Y-47990243D01*
X141301290Y-48025237D01*
X141309962Y-48051248D01*
X141323484Y-48069919D01*
X141342675Y-48082895D01*
X141368355Y-48091820D01*
X141368593Y-48091881D01*
X141405133Y-48095735D01*
X141438176Y-48088316D01*
X141457136Y-48077466D01*
X141473187Y-48063558D01*
X141484564Y-48048017D01*
X141492008Y-48028462D01*
X141496256Y-48002510D01*
X141498048Y-47967778D01*
X141498255Y-47944860D01*
X141497996Y-47910861D01*
X141496989Y-47886662D01*
X141494888Y-47869566D01*
X141491345Y-47856874D01*
X141486015Y-47845891D01*
X141485414Y-47844856D01*
X141462888Y-47817289D01*
X141434170Y-47800568D01*
X141399487Y-47794825D01*
X141398771Y-47794823D01*
X141362643Y-47799473D01*
X141334344Y-47813670D01*
X141313209Y-47837788D01*
X141309146Y-47845059D01*
X141302871Y-47858870D01*
X141298778Y-47873081D01*
X141296430Y-47890809D01*
X141295393Y-47915170D01*
X141295217Y-47944622D01*
X141193614Y-47944622D01*
X141193386Y-47930440D01*
X141195506Y-47886460D01*
G37*
G36*
X140958993Y-47692866D02*
G01*
X140994637Y-47698275D01*
X141027668Y-47705958D01*
X141050464Y-47713902D01*
X141074117Y-47725462D01*
X141095322Y-47737807D01*
X141111357Y-47749151D01*
X141119498Y-47757712D01*
X141119994Y-47759442D01*
X141116224Y-47766483D01*
X141106270Y-47780032D01*
X141092238Y-47797233D01*
X141091362Y-47798261D01*
X141062687Y-47831826D01*
X141027984Y-47812241D01*
X140997154Y-47799083D01*
X140962288Y-47790912D01*
X140927299Y-47788109D01*
X140896099Y-47791058D01*
X140877074Y-47797511D01*
X140857593Y-47812755D01*
X140847470Y-47831678D01*
X140846969Y-47851409D01*
X140856354Y-47869077D01*
X140869585Y-47879017D01*
X140884993Y-47884231D01*
X140907941Y-47888876D01*
X140933470Y-47891950D01*
X140933572Y-47891958D01*
X140985511Y-47897225D01*
X141026705Y-47904565D01*
X141058838Y-47914699D01*
X141083596Y-47928351D01*
X141102663Y-47946241D01*
X141117725Y-47969092D01*
X141118924Y-47971383D01*
X141130066Y-48003406D01*
X141134401Y-48039819D01*
X141131763Y-48075604D01*
X141123302Y-48103098D01*
X141101979Y-48134060D01*
X141070943Y-48159812D01*
X141032152Y-48179634D01*
X140987563Y-48192800D01*
X140939133Y-48198589D01*
X140888821Y-48196276D01*
X140876227Y-48194356D01*
X140851655Y-48188252D01*
X140823134Y-48178572D01*
X140802164Y-48169800D01*
X140779295Y-48157956D01*
X140756422Y-48144200D01*
X140736168Y-48130355D01*
X140721159Y-48118242D01*
X140714020Y-48109685D01*
X140713766Y-48108437D01*
X140718172Y-48102578D01*
X140729719Y-48090995D01*
X140746020Y-48076063D01*
X140748092Y-48074239D01*
X140782338Y-48044204D01*
X140810459Y-48063552D01*
X140848532Y-48085264D01*
X140887364Y-48097304D01*
X140931777Y-48101144D01*
X140933478Y-48101148D01*
X140974015Y-48098206D01*
X141003687Y-48089297D01*
X141022679Y-48074300D01*
X141031179Y-48053094D01*
X141031327Y-48037399D01*
X141027565Y-48022105D01*
X141018649Y-48010542D01*
X141002918Y-48001940D01*
X140978711Y-47995525D01*
X140944366Y-47990527D01*
X140926439Y-47988656D01*
X140875491Y-47981892D01*
X140835236Y-47972022D01*
X140804083Y-47958253D01*
X140780437Y-47939793D01*
X140762707Y-47915849D01*
X140756760Y-47904225D01*
X140749509Y-47881819D01*
X140745411Y-47856215D01*
X140745082Y-47848686D01*
X140750006Y-47804007D01*
X140765189Y-47766461D01*
X140790596Y-47736083D01*
X140826194Y-47712908D01*
X140871948Y-47696969D01*
X140898966Y-47691672D01*
X140925511Y-47690432D01*
X140958993Y-47692866D01*
G37*
G36*
X140304442Y-47694882D02*
G01*
X140340102Y-47705112D01*
X140347972Y-47708819D01*
X140382855Y-47731184D01*
X140408806Y-47759025D01*
X140427344Y-47791697D01*
X140431470Y-47801130D01*
X140434745Y-47810541D01*
X140437289Y-47821486D01*
X140439218Y-47835524D01*
X140440651Y-47854211D01*
X140441704Y-47879104D01*
X140442497Y-47911759D01*
X140443146Y-47953735D01*
X140443770Y-48006587D01*
X140443799Y-48009199D01*
X140445853Y-48195443D01*
X140393787Y-48193619D01*
X140341720Y-48191796D01*
X140338595Y-48023004D01*
X140337575Y-47971895D01*
X140336549Y-47931741D01*
X140335394Y-47900997D01*
X140333989Y-47878116D01*
X140332209Y-47861551D01*
X140329933Y-47849755D01*
X140327038Y-47841182D01*
X140323681Y-47834742D01*
X140303871Y-47811841D01*
X140277501Y-47798765D01*
X140245109Y-47794823D01*
X140211441Y-47798614D01*
X140185657Y-47810786D01*
X140165404Y-47832537D01*
X140162592Y-47836869D01*
X140158193Y-47844343D01*
X140154752Y-47851994D01*
X140152127Y-47861420D01*
X140150179Y-47874222D01*
X140148768Y-47892000D01*
X140147755Y-47916355D01*
X140146999Y-47948886D01*
X140146361Y-47991193D01*
X140145906Y-48027693D01*
X140143890Y-48194921D01*
X140044772Y-48194921D01*
X140044772Y-47694798D01*
X140144797Y-47694798D01*
X140144797Y-47719804D01*
X140146096Y-47737629D01*
X140150851Y-47743696D01*
X140160349Y-47738500D01*
X140169655Y-47729339D01*
X140195534Y-47710183D01*
X140228838Y-47697800D01*
X140266247Y-47692572D01*
X140304442Y-47694882D01*
G37*
G36*
X142755509Y-47690847D02*
G01*
X142779168Y-47694973D01*
X142789236Y-47697443D01*
X142829930Y-47711886D01*
X142868014Y-47732751D01*
X142898813Y-47757425D01*
X142901551Y-47760254D01*
X142911071Y-47771261D01*
X142912440Y-47778479D01*
X142906160Y-47787144D01*
X142904316Y-47789195D01*
X142891847Y-47801426D01*
X142875083Y-47816039D01*
X142869342Y-47820697D01*
X142846336Y-47838942D01*
X142817527Y-47818636D01*
X142798529Y-47806754D01*
X142780578Y-47800086D01*
X142758017Y-47796829D01*
X142746761Y-47796096D01*
X142706789Y-47797986D01*
X142674968Y-47808800D01*
X142650104Y-47829155D01*
X142633468Y-47854574D01*
X142625785Y-47871631D01*
X142621075Y-47888228D01*
X142618651Y-47908334D01*
X142617823Y-47935915D01*
X142617784Y-47944860D01*
X142618284Y-47975618D01*
X142620301Y-47997822D01*
X142624469Y-48015391D01*
X142631424Y-48032244D01*
X142632192Y-48033825D01*
X142652541Y-48062264D01*
X142680235Y-48082349D01*
X142712967Y-48093672D01*
X142748431Y-48095831D01*
X142784322Y-48088417D01*
X142818332Y-48071027D01*
X142823273Y-48067423D01*
X142845728Y-48050296D01*
X142869038Y-48068782D01*
X142886005Y-48083044D01*
X142900622Y-48096658D01*
X142904257Y-48100459D01*
X142912232Y-48110513D01*
X142911684Y-48117808D01*
X142904257Y-48126882D01*
X142879455Y-48148747D01*
X142847092Y-48169273D01*
X142812013Y-48185538D01*
X142800201Y-48189619D01*
X142771901Y-48197074D01*
X142746670Y-48199908D01*
X142718978Y-48198394D01*
X142694997Y-48194867D01*
X142657084Y-48183771D01*
X142618798Y-48164577D01*
X142585687Y-48140200D01*
X142579283Y-48134062D01*
X142552355Y-48098354D01*
X142532320Y-48054106D01*
X142519743Y-48003558D01*
X142515187Y-47948952D01*
X142518978Y-47894132D01*
X142532010Y-47837468D01*
X142553298Y-47790168D01*
X142582973Y-47752091D01*
X142621166Y-47723097D01*
X142668008Y-47703047D01*
X142706129Y-47694238D01*
X142733430Y-47690690D01*
X142755509Y-47690847D01*
G37*
G36*
X142441295Y-47693486D02*
G01*
X142478683Y-47701594D01*
X142506158Y-47714421D01*
X142526720Y-47727129D01*
X142514520Y-47743784D01*
X142503374Y-47758055D01*
X142488083Y-47776505D01*
X142478309Y-47787863D01*
X142454297Y-47815286D01*
X142434512Y-47805054D01*
X142409575Y-47797096D01*
X142380885Y-47795181D01*
X142353775Y-47799232D01*
X142337180Y-47806468D01*
X142326270Y-47813898D01*
X142317622Y-47821178D01*
X142310943Y-47829801D01*
X142305940Y-47841263D01*
X142302320Y-47857055D01*
X142299791Y-47878674D01*
X142298058Y-47907612D01*
X142296830Y-47945364D01*
X142295813Y-47993424D01*
X142295326Y-48019878D01*
X142292200Y-48191796D01*
X142240625Y-48193611D01*
X142189050Y-48195427D01*
X142189050Y-47694293D01*
X142240625Y-47696108D01*
X142292200Y-47697924D01*
X142295326Y-47722400D01*
X142297804Y-47737413D01*
X142300912Y-47741819D01*
X142306185Y-47737481D01*
X142306969Y-47736542D01*
X142332175Y-47715131D01*
X142364995Y-47700593D01*
X142402384Y-47693265D01*
X142441295Y-47693486D01*
G37*
G36*
X140348604Y-48486084D02*
G01*
X140362038Y-48491643D01*
X140379721Y-48500697D01*
X140391637Y-48508371D01*
X140394859Y-48512103D01*
X140391110Y-48518956D01*
X140381104Y-48532800D01*
X140366699Y-48551116D01*
X140360211Y-48559025D01*
X140325564Y-48600766D01*
X140305510Y-48588539D01*
X140276073Y-48577323D01*
X140245339Y-48577030D01*
X140216211Y-48586808D01*
X140191596Y-48605807D01*
X140177618Y-48626039D01*
X140173326Y-48635062D01*
X140170009Y-48644136D01*
X140167541Y-48654943D01*
X140165797Y-48669165D01*
X140164651Y-48688483D01*
X140163980Y-48714579D01*
X140163657Y-48749135D01*
X140163557Y-48793833D01*
X140163552Y-48815148D01*
X140163552Y-48976364D01*
X140063527Y-48976364D01*
X140063527Y-48482492D01*
X140163552Y-48482492D01*
X140163552Y-48533479D01*
X140188510Y-48512115D01*
X140223677Y-48489909D01*
X140263812Y-48477965D01*
X140306320Y-48476588D01*
X140348604Y-48486084D01*
G37*
G36*
X139577894Y-47811101D02*
G01*
X139599798Y-47770073D01*
X139620152Y-47745288D01*
X139656052Y-47717782D01*
X139697372Y-47700143D01*
X139741907Y-47692332D01*
X139787448Y-47694312D01*
X139831787Y-47706044D01*
X139872717Y-47727489D01*
X139900090Y-47750165D01*
X139926648Y-47782759D01*
X139945600Y-47820594D01*
X139957514Y-47865407D01*
X139962960Y-47918930D01*
X139963455Y-47943297D01*
X139963502Y-47982369D01*
X139650359Y-47982369D01*
X139654532Y-48005812D01*
X139665862Y-48041670D01*
X139685116Y-48070031D01*
X139710314Y-48088645D01*
X139746809Y-48099639D01*
X139786307Y-48099834D01*
X139826179Y-48089592D01*
X139863796Y-48069275D01*
X139866864Y-48067052D01*
X139874121Y-48062788D01*
X139881438Y-48062842D01*
X139891584Y-48068362D01*
X139907330Y-48080494D01*
X139915488Y-48087185D01*
X139951349Y-48116777D01*
X139922857Y-48142966D01*
X139900872Y-48160007D01*
X139875673Y-48175062D01*
X139861701Y-48181376D01*
X139826580Y-48191114D01*
X139786941Y-48196766D01*
X139748307Y-48197811D01*
X139720516Y-48194715D01*
X139677452Y-48180874D01*
X139638373Y-48158949D01*
X139615209Y-48139443D01*
X139589244Y-48104730D01*
X139570207Y-48062000D01*
X139558068Y-48013625D01*
X139552797Y-47961975D01*
X139554364Y-47909424D01*
X139555729Y-47901099D01*
X139651238Y-47901099D01*
X139857226Y-47901099D01*
X139857226Y-47883328D01*
X139852339Y-47859179D01*
X139839667Y-47833635D01*
X139822195Y-47811653D01*
X139807156Y-47800170D01*
X139778414Y-47790494D01*
X139746499Y-47788741D01*
X139716371Y-47794794D01*
X139700299Y-47802720D01*
X139678016Y-47824597D01*
X139661796Y-47855361D01*
X139654906Y-47880781D01*
X139651238Y-47901099D01*
X139555729Y-47901099D01*
X139562740Y-47858342D01*
X139577894Y-47811101D01*
G37*
G36*
X141035147Y-43981406D02*
G01*
X141085844Y-43981508D01*
X141126396Y-43981748D01*
X141157982Y-43982181D01*
X141181781Y-43982864D01*
X141198972Y-43983854D01*
X141210734Y-43985207D01*
X141218246Y-43986980D01*
X141222686Y-43989228D01*
X141225235Y-43992010D01*
X141226108Y-43993505D01*
X141228678Y-44002210D01*
X141233204Y-44021795D01*
X141239398Y-44050839D01*
X141246971Y-44087921D01*
X141255633Y-44131621D01*
X141265095Y-44180520D01*
X141275068Y-44233196D01*
X141276715Y-44242004D01*
X141286763Y-44294967D01*
X141296416Y-44344209D01*
X141305379Y-44388339D01*
X141313355Y-44425968D01*
X141320050Y-44455705D01*
X141325165Y-44476161D01*
X141328407Y-44485946D01*
X141328759Y-44486457D01*
X141337050Y-44491406D01*
X141355149Y-44500103D01*
X141381202Y-44511788D01*
X141413352Y-44525700D01*
X141449746Y-44541079D01*
X141488530Y-44557166D01*
X141527848Y-44573200D01*
X141565846Y-44588422D01*
X141600669Y-44602071D01*
X141630463Y-44613387D01*
X141653374Y-44621611D01*
X141667546Y-44625981D01*
X141670449Y-44626485D01*
X141679327Y-44623783D01*
X141696018Y-44615093D01*
X141720931Y-44600158D01*
X141754477Y-44578719D01*
X141797064Y-44550517D01*
X141849103Y-44515294D01*
X141879329Y-44494601D01*
X141931697Y-44458641D01*
X141974738Y-44429134D01*
X142009437Y-44405465D01*
X142036782Y-44387019D01*
X142057759Y-44373181D01*
X142073353Y-44363336D01*
X142084552Y-44356870D01*
X142092342Y-44353169D01*
X142097709Y-44351616D01*
X142101639Y-44351597D01*
X142105120Y-44352499D01*
X142106570Y-44352967D01*
X142114560Y-44358500D01*
X142129784Y-44371775D01*
X142151068Y-44391596D01*
X142177237Y-44416767D01*
X142207115Y-44446092D01*
X142239527Y-44478373D01*
X142273298Y-44512415D01*
X142307254Y-44547023D01*
X142340218Y-44580999D01*
X142371015Y-44613147D01*
X142398472Y-44642271D01*
X142421411Y-44667176D01*
X142438659Y-44686664D01*
X142449040Y-44699539D01*
X142451615Y-44704199D01*
X142448175Y-44712076D01*
X142438375Y-44729008D01*
X142422993Y-44753784D01*
X142402809Y-44785195D01*
X142378600Y-44822031D01*
X142351147Y-44863082D01*
X142321227Y-44907138D01*
X142317207Y-44913009D01*
X142276854Y-44972317D01*
X142243586Y-45022165D01*
X142217476Y-45062440D01*
X142198595Y-45093026D01*
X142187018Y-45113809D01*
X142182815Y-45124674D01*
X142182798Y-45125039D01*
X142185265Y-45136109D01*
X142192147Y-45156451D01*
X142202667Y-45184271D01*
X142216049Y-45217776D01*
X142231517Y-45255174D01*
X142248294Y-45294672D01*
X142265604Y-45334476D01*
X142282669Y-45372794D01*
X142298714Y-45407833D01*
X142312962Y-45437799D01*
X142324636Y-45460900D01*
X142332960Y-45475343D01*
X142336200Y-45479235D01*
X142345142Y-45482301D01*
X142364912Y-45487253D01*
X142394031Y-45493780D01*
X142431017Y-45501570D01*
X142474392Y-45510311D01*
X142522676Y-45519689D01*
X142570633Y-45528699D01*
X142622208Y-45538325D01*
X142670311Y-45547474D01*
X142713453Y-45555851D01*
X142750144Y-45563158D01*
X142778892Y-45569099D01*
X142798209Y-45573378D01*
X142806389Y-45575600D01*
X142820455Y-45581510D01*
X142820455Y-45831037D01*
X142820424Y-45893644D01*
X142820298Y-45944903D01*
X142820026Y-45985969D01*
X142819559Y-46017997D01*
X142818848Y-46042144D01*
X142817842Y-46059563D01*
X142816492Y-46071409D01*
X142814748Y-46078839D01*
X142812561Y-46083007D01*
X142809881Y-46085069D01*
X142809515Y-46085233D01*
X142801027Y-46087428D01*
X142781696Y-46091615D01*
X142752973Y-46097504D01*
X142716310Y-46104806D01*
X142673156Y-46113233D01*
X142624964Y-46122496D01*
X142573886Y-46132173D01*
X142511302Y-46144073D01*
X142460124Y-46154106D01*
X142419429Y-46162480D01*
X142388294Y-46169406D01*
X142365796Y-46175095D01*
X142351011Y-46179757D01*
X142343017Y-46183601D01*
X142341399Y-46185108D01*
X142337171Y-46193448D01*
X142328987Y-46211875D01*
X142317493Y-46238850D01*
X142303333Y-46272836D01*
X142287154Y-46312294D01*
X142269600Y-46355684D01*
X142263757Y-46370250D01*
X142240766Y-46428390D01*
X142222743Y-46475565D01*
X142209535Y-46512215D01*
X142200988Y-46538780D01*
X142196947Y-46555701D01*
X142196675Y-46561813D01*
X142200784Y-46570820D01*
X142211228Y-46588777D01*
X142227175Y-46614391D01*
X142247791Y-46646366D01*
X142272245Y-46683409D01*
X142299704Y-46724226D01*
X142325526Y-46762001D01*
X142354757Y-46804746D01*
X142381592Y-46844557D01*
X142405223Y-46880192D01*
X142424844Y-46910411D01*
X142439648Y-46933972D01*
X142448828Y-46949635D01*
X142451615Y-46955948D01*
X142447317Y-46962628D01*
X142435062Y-46977065D01*
X142415804Y-46998246D01*
X142390498Y-47025158D01*
X142360098Y-47056790D01*
X142325561Y-47092130D01*
X142287840Y-47130165D01*
X142277656Y-47140343D01*
X142232398Y-47185362D01*
X142195083Y-47222140D01*
X142164928Y-47251390D01*
X142141149Y-47273827D01*
X142122962Y-47290161D01*
X142109583Y-47301106D01*
X142100229Y-47307376D01*
X142094115Y-47309681D01*
X142091673Y-47309458D01*
X142083838Y-47304975D01*
X142066983Y-47294229D01*
X142042375Y-47278066D01*
X142011281Y-47257330D01*
X141974970Y-47232865D01*
X141934708Y-47205514D01*
X141898985Y-47181082D01*
X141856442Y-47152128D01*
X141816776Y-47125574D01*
X141781250Y-47102232D01*
X141751128Y-47082915D01*
X141727673Y-47068434D01*
X141712149Y-47059601D01*
X141706152Y-47057141D01*
X141696529Y-47059990D01*
X141678245Y-47067827D01*
X141653579Y-47079591D01*
X141624814Y-47094219D01*
X141611747Y-47101128D01*
X141582011Y-47116520D01*
X141555454Y-47129313D01*
X141534329Y-47138494D01*
X141520887Y-47143047D01*
X141517996Y-47143325D01*
X141514606Y-47140452D01*
X141509281Y-47132185D01*
X141501738Y-47117879D01*
X141491691Y-47096888D01*
X141478857Y-47068569D01*
X141462951Y-47032276D01*
X141443691Y-46987365D01*
X141420790Y-46933190D01*
X141393967Y-46869107D01*
X141362935Y-46794472D01*
X141341390Y-46742449D01*
X141313701Y-46675343D01*
X141287469Y-46611434D01*
X141263081Y-46551689D01*
X141240927Y-46497076D01*
X141221393Y-46448561D01*
X141204869Y-46407111D01*
X141191743Y-46373694D01*
X141182403Y-46349276D01*
X141177237Y-46334824D01*
X141176301Y-46331273D01*
X141181759Y-46319847D01*
X141196657Y-46306321D01*
X141202870Y-46302067D01*
X141220656Y-46290132D01*
X141244060Y-46273793D01*
X141268684Y-46256131D01*
X141274392Y-46251960D01*
X141335133Y-46199961D01*
X141386184Y-46140842D01*
X141427213Y-46075777D01*
X141457886Y-46005939D01*
X141477874Y-45932501D01*
X141486842Y-45856636D01*
X141484458Y-45779516D01*
X141470391Y-45702314D01*
X141448669Y-45636684D01*
X141429103Y-45593811D01*
X141406112Y-45555186D01*
X141377393Y-45517485D01*
X141340644Y-45477386D01*
X141332589Y-45469248D01*
X141277189Y-45419993D01*
X141219487Y-45381533D01*
X141156639Y-45352173D01*
X141110660Y-45336870D01*
X141065965Y-45327565D01*
X141013790Y-45322421D01*
X140958444Y-45321439D01*
X140904236Y-45324619D01*
X140855475Y-45331961D01*
X140835592Y-45336870D01*
X140761943Y-45364327D01*
X140693930Y-45402104D01*
X140632567Y-45449119D01*
X140578869Y-45504286D01*
X140533850Y-45566523D01*
X140498525Y-45634745D01*
X140473907Y-45707870D01*
X140469233Y-45728288D01*
X140459205Y-45806841D01*
X140461194Y-45884763D01*
X140474726Y-45960831D01*
X140499328Y-46033825D01*
X140534528Y-46102520D01*
X140579853Y-46165696D01*
X140634829Y-46222131D01*
X140671860Y-46251960D01*
X140696114Y-46269478D01*
X140720222Y-46286425D01*
X140739788Y-46299721D01*
X140743382Y-46302067D01*
X140760766Y-46315750D01*
X140769398Y-46328090D01*
X140769951Y-46331273D01*
X140767612Y-46338954D01*
X140760855Y-46357210D01*
X140750067Y-46385075D01*
X140735637Y-46421580D01*
X140717953Y-46465760D01*
X140697403Y-46516647D01*
X140674376Y-46573273D01*
X140649260Y-46634673D01*
X140622443Y-46699880D01*
X140604862Y-46742449D01*
X140571071Y-46823973D01*
X140541664Y-46894543D01*
X140516357Y-46954804D01*
X140494866Y-47005400D01*
X140476907Y-47046977D01*
X140462197Y-47080179D01*
X140450450Y-47105651D01*
X140441383Y-47124039D01*
X140434712Y-47135986D01*
X140430152Y-47142138D01*
X140428256Y-47143325D01*
X140418888Y-47141117D01*
X140400850Y-47133838D01*
X140376394Y-47122502D01*
X140347773Y-47108123D01*
X140334504Y-47101128D01*
X140304676Y-47085594D01*
X140277967Y-47072468D01*
X140256659Y-47062812D01*
X140243031Y-47057687D01*
X140240100Y-47057141D01*
X140232246Y-47060579D01*
X140215396Y-47070350D01*
X140190813Y-47085642D01*
X140159761Y-47105644D01*
X140123503Y-47129542D01*
X140083302Y-47156526D01*
X140047267Y-47181082D01*
X140004677Y-47210193D01*
X139964980Y-47237125D01*
X139929443Y-47261033D01*
X139899333Y-47281073D01*
X139875918Y-47296400D01*
X139860464Y-47306169D01*
X139854578Y-47309458D01*
X139850034Y-47309190D01*
X139842720Y-47305387D01*
X139831852Y-47297336D01*
X139816647Y-47284324D01*
X139796321Y-47265638D01*
X139770090Y-47240566D01*
X139737169Y-47208395D01*
X139696776Y-47168412D01*
X139668595Y-47140343D01*
X139630205Y-47101775D01*
X139594750Y-47065639D01*
X139563186Y-47032948D01*
X139536468Y-47004715D01*
X139515549Y-46981950D01*
X139501386Y-46965668D01*
X139494934Y-46956879D01*
X139494637Y-46955948D01*
X139498080Y-46948434D01*
X139507871Y-46931907D01*
X139523204Y-46907609D01*
X139543271Y-46876781D01*
X139567266Y-46840662D01*
X139594383Y-46800495D01*
X139620726Y-46762001D01*
X139650129Y-46718944D01*
X139677256Y-46678529D01*
X139701274Y-46642050D01*
X139721351Y-46610802D01*
X139736653Y-46586078D01*
X139746348Y-46569173D01*
X139749576Y-46561813D01*
X139748435Y-46551039D01*
X139742889Y-46530911D01*
X139732786Y-46500990D01*
X139717969Y-46460836D01*
X139698286Y-46410008D01*
X139682495Y-46370250D01*
X139664635Y-46325920D01*
X139647942Y-46285027D01*
X139633062Y-46249110D01*
X139620638Y-46219708D01*
X139611317Y-46198358D01*
X139605744Y-46186600D01*
X139604853Y-46185108D01*
X139599591Y-46181560D01*
X139587950Y-46177289D01*
X139569007Y-46172085D01*
X139541839Y-46165736D01*
X139505523Y-46158034D01*
X139459136Y-46148767D01*
X139401755Y-46137726D01*
X139372366Y-46132173D01*
X139320623Y-46122369D01*
X139272488Y-46113116D01*
X139229411Y-46104702D01*
X139192843Y-46097416D01*
X139164235Y-46091547D01*
X139145039Y-46087385D01*
X139136736Y-46085233D01*
X139133992Y-46083351D01*
X139131747Y-46079504D01*
X139129952Y-46072537D01*
X139128556Y-46061295D01*
X139127511Y-46044623D01*
X139126766Y-46021366D01*
X139126272Y-45990368D01*
X139125979Y-45950474D01*
X139125837Y-45900530D01*
X139125797Y-45839380D01*
X139125796Y-45831037D01*
X139125796Y-45581510D01*
X139139862Y-45575600D01*
X139149116Y-45573125D01*
X139169181Y-45568713D01*
X139198568Y-45562660D01*
X139235787Y-45555264D01*
X139279347Y-45546820D01*
X139327759Y-45537626D01*
X139375618Y-45528699D01*
X139427136Y-45519008D01*
X139475120Y-45509665D01*
X139518090Y-45500982D01*
X139554567Y-45493271D01*
X139583070Y-45486846D01*
X139602119Y-45482017D01*
X139610051Y-45479235D01*
X139615787Y-45471366D01*
X139625377Y-45453676D01*
X139638044Y-45427958D01*
X139653012Y-45396004D01*
X139669504Y-45359609D01*
X139686744Y-45320564D01*
X139703955Y-45280663D01*
X139720360Y-45241699D01*
X139735183Y-45205465D01*
X139747648Y-45173753D01*
X139756978Y-45148357D01*
X139762397Y-45131070D01*
X139763453Y-45125039D01*
X139759739Y-45114831D01*
X139748645Y-45094699D01*
X139730244Y-45064756D01*
X139704608Y-45025116D01*
X139671810Y-44975896D01*
X139631922Y-44917208D01*
X139629045Y-44913009D01*
X139598863Y-44868652D01*
X139571045Y-44827143D01*
X139546372Y-44789693D01*
X139525622Y-44757510D01*
X139509573Y-44731805D01*
X139499005Y-44713787D01*
X139494697Y-44704667D01*
X139494637Y-44704199D01*
X139498916Y-44697244D01*
X139510968Y-44682754D01*
X139529619Y-44661924D01*
X139553693Y-44635950D01*
X139582016Y-44606030D01*
X139613412Y-44573359D01*
X139646706Y-44539134D01*
X139680722Y-44504550D01*
X139714287Y-44470804D01*
X139746224Y-44439093D01*
X139775359Y-44410611D01*
X139800516Y-44386557D01*
X139820520Y-44368125D01*
X139834196Y-44356512D01*
X139839682Y-44352967D01*
X139843344Y-44351885D01*
X139847143Y-44351541D01*
X139852065Y-44352549D01*
X139859096Y-44355523D01*
X139869224Y-44361079D01*
X139883434Y-44369831D01*
X139902712Y-44382393D01*
X139928047Y-44399381D01*
X139960424Y-44421409D01*
X140000830Y-44449091D01*
X140050252Y-44483042D01*
X140067606Y-44494970D01*
X140124558Y-44533858D01*
X140171848Y-44565582D01*
X140209878Y-44590396D01*
X140239052Y-44608554D01*
X140259772Y-44620311D01*
X140272440Y-44625922D01*
X140275797Y-44626505D01*
X140285764Y-44623986D01*
X140305254Y-44617293D01*
X140332412Y-44607186D01*
X140365379Y-44594425D01*
X140402298Y-44579772D01*
X140441311Y-44563987D01*
X140480561Y-44547832D01*
X140518190Y-44532066D01*
X140552340Y-44517451D01*
X140581153Y-44504748D01*
X140602773Y-44494716D01*
X140615342Y-44488118D01*
X140617437Y-44486591D01*
X140620367Y-44478782D01*
X140625213Y-44460058D01*
X140631680Y-44431812D01*
X140639470Y-44395436D01*
X140648288Y-44352320D01*
X140657836Y-44303856D01*
X140667818Y-44251436D01*
X140669559Y-44242108D01*
X140679562Y-44188957D01*
X140689106Y-44139349D01*
X140697901Y-44094706D01*
X140705659Y-44056450D01*
X140712091Y-44026002D01*
X140716906Y-44004783D01*
X140719818Y-43994217D01*
X140720087Y-43993610D01*
X140722149Y-43990535D01*
X140725509Y-43988024D01*
X140731345Y-43986019D01*
X140740837Y-43984464D01*
X140755166Y-43983302D01*
X140775510Y-43982476D01*
X140803048Y-43981928D01*
X140838962Y-43981603D01*
X140884430Y-43981442D01*
X140940631Y-43981388D01*
X140973126Y-43981385D01*
X141035147Y-43981406D01*
G37*
G36*
X139188312Y-47694798D02*
G01*
X139188312Y-47743965D01*
X139219362Y-47723070D01*
X139259543Y-47702547D01*
X139301145Y-47692892D01*
X139342346Y-47693514D01*
X139381328Y-47703821D01*
X139416270Y-47723222D01*
X139445352Y-47751125D01*
X139466756Y-47786939D01*
X139473452Y-47805668D01*
X139477827Y-47828517D01*
X139480986Y-47860754D01*
X139482928Y-47899334D01*
X139483651Y-47941209D01*
X139483156Y-47983333D01*
X139481441Y-48022661D01*
X139478505Y-48056146D01*
X139474348Y-48080742D01*
X139473536Y-48083763D01*
X139456086Y-48122746D01*
X139429496Y-48154870D01*
X139395758Y-48178972D01*
X139356864Y-48193887D01*
X139314806Y-48198451D01*
X139283771Y-48194693D01*
X139261560Y-48187327D01*
X139236338Y-48175433D01*
X139221132Y-48166443D01*
X139188312Y-48144781D01*
X139188312Y-48335886D01*
X139188410Y-48391612D01*
X139188734Y-48435893D01*
X139189329Y-48469785D01*
X139190239Y-48494346D01*
X139191508Y-48510631D01*
X139193180Y-48519698D01*
X139195299Y-48522602D01*
X139196126Y-48522376D01*
X139206225Y-48515746D01*
X139220666Y-48505586D01*
X139222695Y-48504116D01*
X139258462Y-48485430D01*
X139298609Y-48476657D01*
X139340208Y-48477566D01*
X139380329Y-48487927D01*
X139416044Y-48507508D01*
X139431206Y-48520557D01*
X139443897Y-48533460D01*
X139454116Y-48545126D01*
X139462145Y-48557054D01*
X139468265Y-48570744D01*
X139472760Y-48587694D01*
X139475912Y-48609404D01*
X139478002Y-48637373D01*
X139479314Y-48673100D01*
X139480129Y-48718085D01*
X139480729Y-48773827D01*
X139480827Y-48784129D01*
X139482646Y-48976364D01*
X139382109Y-48976364D01*
X139382100Y-48812261D01*
X139381966Y-48757995D01*
X139381397Y-48714721D01*
X139380127Y-48680927D01*
X139377893Y-48655103D01*
X139374429Y-48635738D01*
X139369472Y-48621322D01*
X139362756Y-48610344D01*
X139354018Y-48601294D01*
X139343751Y-48593214D01*
X139316380Y-48580325D01*
X139285479Y-48577062D01*
X139254488Y-48582771D01*
X139226851Y-48596799D01*
X139206008Y-48618494D01*
X139205397Y-48619461D01*
X139201203Y-48626706D01*
X139197920Y-48634412D01*
X139195413Y-48644172D01*
X139193549Y-48657577D01*
X139192195Y-48676222D01*
X139191217Y-48701697D01*
X139190481Y-48735597D01*
X139189855Y-48779512D01*
X139189502Y-48809135D01*
X139187566Y-48976364D01*
X139088287Y-48976364D01*
X139088287Y-47957623D01*
X139187912Y-47957623D01*
X139191243Y-47997414D01*
X139199033Y-48033046D01*
X139211301Y-48061379D01*
X139217296Y-48069764D01*
X139237881Y-48085372D01*
X139265349Y-48094293D01*
X139295777Y-48096127D01*
X139325244Y-48090480D01*
X139342309Y-48082429D01*
X139355924Y-48072073D01*
X139365790Y-48059347D01*
X139372468Y-48042193D01*
X139376518Y-48018556D01*
X139378502Y-47986380D01*
X139378984Y-47947986D01*
X139378699Y-47910724D01*
X139377677Y-47883514D01*
X139375669Y-47863916D01*
X139372425Y-47849489D01*
X139367714Y-47837828D01*
X139351298Y-47814914D01*
X139328605Y-47801064D01*
X139298142Y-47795596D01*
X139275847Y-47796032D01*
X139253125Y-47798336D01*
X139238522Y-47802372D01*
X139227655Y-47809959D01*
X139218800Y-47819694D01*
X139204484Y-47844709D01*
X139194551Y-47878130D01*
X139189021Y-47916815D01*
X139187912Y-47957623D01*
X139088287Y-47957623D01*
X139088287Y-47694798D01*
X139188312Y-47694798D01*
G37*
G36*
X141566160Y-48787731D02*
G01*
X141583204Y-48750661D01*
X141610470Y-48720461D01*
X141645166Y-48698873D01*
X141658641Y-48693518D01*
X141673849Y-48689665D01*
X141693330Y-48686992D01*
X141719625Y-48685178D01*
X141755272Y-48683901D01*
X141765508Y-48683639D01*
X141857718Y-48681395D01*
X141857718Y-48645151D01*
X141855906Y-48618354D01*
X141850080Y-48600986D01*
X141846778Y-48596416D01*
X141827483Y-48582661D01*
X141800317Y-48573843D01*
X141768722Y-48569950D01*
X141736142Y-48570970D01*
X141706017Y-48576890D01*
X141681791Y-48587698D01*
X141671083Y-48597041D01*
X141665803Y-48601568D01*
X141659094Y-48601431D01*
X141648425Y-48595615D01*
X141631263Y-48583106D01*
X141625759Y-48578889D01*
X141607957Y-48564545D01*
X141594878Y-48552775D01*
X141589007Y-48545840D01*
X141588902Y-48545369D01*
X141594034Y-48535735D01*
X141607395Y-48522921D01*
X141625931Y-48509137D01*
X141646592Y-48496593D01*
X141666323Y-48487500D01*
X141670934Y-48485971D01*
X141704419Y-48479434D01*
X141744894Y-48476642D01*
X141787431Y-48477574D01*
X141827099Y-48482206D01*
X141847603Y-48486788D01*
X141880910Y-48500802D01*
X141910988Y-48522037D01*
X141934895Y-48547853D01*
X141949686Y-48575610D01*
X141950832Y-48579391D01*
X141952948Y-48593792D01*
X141954719Y-48619654D01*
X141956110Y-48655939D01*
X141957087Y-48701609D01*
X141957618Y-48755627D01*
X141957708Y-48790380D01*
X141957743Y-48976364D01*
X141857718Y-48976364D01*
X141857718Y-48937743D01*
X141838770Y-48953687D01*
X141819426Y-48966380D01*
X141798052Y-48975657D01*
X141796572Y-48976088D01*
X141765789Y-48981122D01*
X141729335Y-48981914D01*
X141693050Y-48978670D01*
X141662775Y-48971592D01*
X141662277Y-48971415D01*
X141622546Y-48951309D01*
X141591830Y-48923522D01*
X141570896Y-48889519D01*
X141560511Y-48850767D01*
X141561018Y-48827890D01*
X141657868Y-48827890D01*
X141662943Y-48852406D01*
X141677430Y-48870436D01*
X141696582Y-48879062D01*
X141714019Y-48882948D01*
X141723310Y-48885129D01*
X141741551Y-48886973D01*
X141765875Y-48886227D01*
X141791737Y-48883400D01*
X141814592Y-48879004D01*
X141829897Y-48873552D01*
X141830727Y-48873041D01*
X141846007Y-48857765D01*
X141854746Y-48835220D01*
X141857708Y-48803370D01*
X141857718Y-48800914D01*
X141857718Y-48770063D01*
X141779163Y-48770063D01*
X141736674Y-48770933D01*
X141705100Y-48774020D01*
X141682942Y-48780037D01*
X141668704Y-48789699D01*
X141660887Y-48803719D01*
X141657994Y-48822813D01*
X141657868Y-48827890D01*
X141561018Y-48827890D01*
X141561442Y-48808733D01*
X141566160Y-48787731D01*
G37*
G36*
X142950994Y-47863537D02*
G01*
X142968106Y-47810495D01*
X142993239Y-47766780D01*
X143026169Y-47732633D01*
X143066671Y-47708291D01*
X143109267Y-47694995D01*
X143158392Y-47691200D01*
X143206096Y-47699477D01*
X143250916Y-47719394D01*
X143288516Y-47747789D01*
X143312249Y-47773071D01*
X143329270Y-47799451D01*
X143340639Y-47829731D01*
X143347417Y-47866718D01*
X143350622Y-47912039D01*
X143353186Y-47982369D01*
X143045511Y-47982369D01*
X143045511Y-47999799D01*
X143049703Y-48021144D01*
X143060490Y-48045823D01*
X143075184Y-48068790D01*
X143090750Y-48084748D01*
X143110254Y-48093555D01*
X143137149Y-48098956D01*
X143166681Y-48100513D01*
X143194095Y-48097786D01*
X143203955Y-48095217D01*
X143224103Y-48086624D01*
X143245265Y-48074850D01*
X143248816Y-48072524D01*
X143271443Y-48057169D01*
X143305388Y-48086170D01*
X143322093Y-48101098D01*
X143334211Y-48113179D01*
X143339302Y-48119966D01*
X143339333Y-48120207D01*
X143334910Y-48126868D01*
X143323731Y-48137882D01*
X143317250Y-48143447D01*
X143271918Y-48172941D01*
X143221452Y-48191787D01*
X143168105Y-48199426D01*
X143114130Y-48195295D01*
X143111152Y-48194708D01*
X143062788Y-48179074D01*
X143022048Y-48153624D01*
X142989298Y-48118724D01*
X142964903Y-48074741D01*
X142952300Y-48035969D01*
X142948012Y-48009379D01*
X142945549Y-47975025D01*
X142944946Y-47937519D01*
X142946238Y-47901472D01*
X142946278Y-47901099D01*
X143045511Y-47901099D01*
X143253203Y-47901099D01*
X143248909Y-47877656D01*
X143237114Y-47841713D01*
X143217028Y-47814311D01*
X143189667Y-47796359D01*
X143156051Y-47788768D01*
X143149202Y-47788571D01*
X143120697Y-47791620D01*
X143096480Y-47799698D01*
X143095581Y-47800170D01*
X143076437Y-47815933D01*
X143059765Y-47839124D01*
X143048550Y-47864786D01*
X143045511Y-47883328D01*
X143045511Y-47901099D01*
X142946278Y-47901099D01*
X142949460Y-47871494D01*
X142950994Y-47863537D01*
G37*
G36*
X142358657Y-48487579D02*
G01*
X142394685Y-48506426D01*
X142397377Y-48511283D01*
X142394490Y-48519879D01*
X142385049Y-48533992D01*
X142368080Y-48555397D01*
X142367301Y-48556346D01*
X142331206Y-48600221D01*
X142306728Y-48587462D01*
X142275401Y-48577525D01*
X142243879Y-48578753D01*
X142214887Y-48590292D01*
X142191153Y-48611290D01*
X142181245Y-48626722D01*
X142177882Y-48634595D01*
X142175277Y-48644474D01*
X142173335Y-48657944D01*
X142171964Y-48676591D01*
X142171070Y-48702000D01*
X142170559Y-48735757D01*
X142170338Y-48779446D01*
X142170305Y-48812261D01*
X142170295Y-48976364D01*
X142070271Y-48976364D01*
X142070271Y-48482492D01*
X142170295Y-48482492D01*
X142170295Y-48526889D01*
X142192163Y-48510210D01*
X142230140Y-48488756D01*
X142272323Y-48477800D01*
X142316050Y-48477391D01*
X142358657Y-48487579D01*
G37*
G36*
X141292897Y-48651002D02*
G01*
X141307066Y-48694228D01*
X141320158Y-48733047D01*
X141331658Y-48766018D01*
X141341048Y-48791696D01*
X141347813Y-48808638D01*
X141351434Y-48815400D01*
X141351744Y-48815395D01*
X141354441Y-48808314D01*
X141359879Y-48790806D01*
X141367581Y-48764524D01*
X141377070Y-48731124D01*
X141387867Y-48692260D01*
X141398192Y-48654409D01*
X141409730Y-48611880D01*
X141420300Y-48573149D01*
X141429434Y-48539913D01*
X141436664Y-48513867D01*
X141441522Y-48496707D01*
X141443463Y-48490306D01*
X141450500Y-48485953D01*
X141468142Y-48483390D01*
X141497263Y-48482495D01*
X141499593Y-48482492D01*
X141526597Y-48482977D01*
X141542722Y-48484595D01*
X141549557Y-48487595D01*
X141549810Y-48490306D01*
X141547068Y-48498505D01*
X141541194Y-48516612D01*
X141532836Y-48542618D01*
X141522638Y-48574513D01*
X141511248Y-48610288D01*
X141511133Y-48610649D01*
X141497173Y-48654526D01*
X141480840Y-48705767D01*
X141463585Y-48759832D01*
X141446855Y-48812180D01*
X141434824Y-48849770D01*
X141394272Y-48976364D01*
X141304124Y-48976364D01*
X141254625Y-48810315D01*
X141241580Y-48766932D01*
X141229537Y-48727601D01*
X141218992Y-48693880D01*
X141210436Y-48667325D01*
X141204366Y-48649492D01*
X141201274Y-48641938D01*
X141201145Y-48641806D01*
X141198412Y-48646899D01*
X141192679Y-48662504D01*
X141184431Y-48687128D01*
X141174155Y-48719276D01*
X141162337Y-48757454D01*
X141149463Y-48800166D01*
X141147643Y-48806291D01*
X141098123Y-48973238D01*
X141052726Y-48975076D01*
X141026579Y-48975366D01*
X141011095Y-48973492D01*
X141004583Y-48969237D01*
X141004413Y-48968825D01*
X141001099Y-48958944D01*
X140994681Y-48939200D01*
X140985648Y-48911135D01*
X140974488Y-48876289D01*
X140961692Y-48836204D01*
X140947747Y-48792421D01*
X140933143Y-48746480D01*
X140918369Y-48699923D01*
X140903913Y-48654290D01*
X140890265Y-48611123D01*
X140877914Y-48571962D01*
X140867348Y-48538349D01*
X140859056Y-48511824D01*
X140853528Y-48493929D01*
X140851252Y-48486205D01*
X140851221Y-48486029D01*
X140856992Y-48484426D01*
X140872387Y-48483203D01*
X140894526Y-48482550D01*
X140904065Y-48482492D01*
X140956909Y-48482492D01*
X140962448Y-48502810D01*
X140965600Y-48514430D01*
X140971486Y-48536182D01*
X140979582Y-48566124D01*
X140989362Y-48602316D01*
X141000303Y-48642819D01*
X141008065Y-48671565D01*
X141019233Y-48712475D01*
X141029456Y-48749062D01*
X141038258Y-48779694D01*
X141045165Y-48802741D01*
X141049701Y-48816573D01*
X141051270Y-48819917D01*
X141053908Y-48814185D01*
X141059805Y-48798040D01*
X141068449Y-48772989D01*
X141079330Y-48740542D01*
X141091936Y-48702207D01*
X141105757Y-48659491D01*
X141107927Y-48652724D01*
X141161459Y-48485618D01*
X141199839Y-48483764D01*
X141238219Y-48481911D01*
X141292897Y-48651002D01*
G37*
%TO.C,C3*%
X84925373Y-33875486D02*
X82185373Y-33875486D01*
X84925373Y-33875486D02*
X84925373Y-41615486D01*
X82185373Y-33875486D02*
X82185373Y-41615486D01*
X84925373Y-41615486D02*
X82185373Y-41615486D01*
%TO.C,C7*%
X84925373Y-83365486D02*
X82185373Y-83365486D01*
X84925373Y-91105486D02*
X82185373Y-91105486D01*
X84925373Y-83365486D02*
X84925373Y-91105486D01*
X82185373Y-83365486D02*
X82185373Y-91105486D01*
%TO.C,C12*%
X129175373Y-136705486D02*
X129175373Y-144445486D01*
X131915373Y-136705486D02*
X129175373Y-136705486D01*
X131915373Y-136705486D02*
X131915373Y-144445486D01*
X131915373Y-144445486D02*
X129175373Y-144445486D01*
%TO.C,R4*%
X138705373Y-42925486D02*
X145245373Y-42925486D01*
X148555373Y-41555486D02*
X145245373Y-41555486D01*
X138705373Y-40185486D02*
X138705373Y-42925486D01*
X145245373Y-42925486D02*
X145245373Y-40185486D01*
X145245373Y-40185486D02*
X138705373Y-40185486D01*
X135395373Y-41555486D02*
X138705373Y-41555486D01*
%TO.C,R2*%
X135395373Y-36475486D02*
X138705373Y-36475486D01*
X145245373Y-37845486D02*
X145245373Y-35105486D01*
X145245373Y-35105486D02*
X138705373Y-35105486D01*
X148555373Y-36475486D02*
X145245373Y-36475486D01*
X138705373Y-37845486D02*
X145245373Y-37845486D01*
X138705373Y-35105486D02*
X138705373Y-37845486D01*
%TO.C,J5*%
X148325373Y-141945486D02*
X148325373Y-139285486D01*
X148325373Y-141945486D02*
X150925373Y-141945486D01*
X150925373Y-141945486D02*
X150925373Y-139285486D01*
X145725373Y-141945486D02*
X145725373Y-140615486D01*
X147055373Y-141945486D02*
X145725373Y-141945486D01*
X148325373Y-139285486D02*
X150925373Y-139285486D01*
%TO.C,U2D1*%
X105035373Y-108805486D02*
X105035373Y-126705486D01*
X110335373Y-108805486D02*
X108685373Y-108805486D01*
X105035373Y-126705486D02*
X110335373Y-126705486D01*
X110335373Y-126705486D02*
X110335373Y-108805486D01*
X106685373Y-108805486D02*
X105035373Y-108805486D01*
X106685373Y-108805486D02*
G75*
G03*
X108685373Y-108805486I1000000J0D01*
G01*
%TO.C,C9*%
X84925373Y-116505486D02*
X82185373Y-116505486D01*
X84925373Y-108765486D02*
X82185373Y-108765486D01*
X82185373Y-108765486D02*
X82185373Y-116505486D01*
X84925373Y-108765486D02*
X84925373Y-116505486D01*
%TO.C,R3*%
X145245373Y-37645486D02*
X138705373Y-37645486D01*
X135395373Y-39015486D02*
X138705373Y-39015486D01*
X148555373Y-39015486D02*
X145245373Y-39015486D01*
X138705373Y-37645486D02*
X138705373Y-40385486D01*
X138705373Y-40385486D02*
X145245373Y-40385486D01*
X145245373Y-40385486D02*
X145245373Y-37645486D01*
%TO.C,U1B1*%
X95095373Y-75905486D02*
X95095373Y-58005486D01*
X89795373Y-58005486D02*
X89795373Y-75905486D01*
X91445373Y-58005486D02*
X89795373Y-58005486D01*
X89795373Y-75905486D02*
X95095373Y-75905486D01*
X95095373Y-58005486D02*
X93445373Y-58005486D01*
X91445373Y-58005486D02*
G75*
G03*
X93445373Y-58005486I1000000J0D01*
G01*
%TO.C,U1C1*%
X89795373Y-83405486D02*
X89795373Y-101305486D01*
X91445373Y-83405486D02*
X89795373Y-83405486D01*
X95095373Y-83405486D02*
X93445373Y-83405486D01*
X95095373Y-101305486D02*
X95095373Y-83405486D01*
X89795373Y-101305486D02*
X95095373Y-101305486D01*
X91445373Y-83405486D02*
G75*
G03*
X93445373Y-83405486I1000000J0D01*
G01*
%TO.C,U2E1*%
X105035373Y-134205486D02*
X105035373Y-154645486D01*
X105035373Y-154645486D02*
X110335373Y-154645486D01*
X106685373Y-134205486D02*
X105035373Y-134205486D01*
X110335373Y-134205486D02*
X108685373Y-134205486D01*
X110335373Y-154645486D02*
X110335373Y-134205486D01*
X106685373Y-134205486D02*
G75*
G03*
X108685373Y-134205486I1000000J0D01*
G01*
%TO.C,G\u002A\u002A\u002A*%
G36*
X136739558Y-109932166D02*
G01*
X136760902Y-109957448D01*
X136784459Y-109986196D01*
X136791595Y-109995102D01*
X136805331Y-110012299D01*
X136827827Y-110040375D01*
X136856961Y-110076683D01*
X136890607Y-110118576D01*
X136926643Y-110163407D01*
X136934060Y-110172630D01*
X136968679Y-110215697D01*
X136999793Y-110254452D01*
X137025690Y-110286755D01*
X137044657Y-110310471D01*
X137054981Y-110323461D01*
X137056157Y-110324974D01*
X137051764Y-110333153D01*
X137035643Y-110352628D01*
X137008534Y-110382612D01*
X136971179Y-110422322D01*
X136924320Y-110470974D01*
X136868697Y-110527782D01*
X136805053Y-110591962D01*
X136783386Y-110613656D01*
X136503717Y-110893226D01*
X136351898Y-110770918D01*
X136306922Y-110734665D01*
X136265653Y-110701364D01*
X136230306Y-110672804D01*
X136203094Y-110650774D01*
X136186231Y-110637064D01*
X136182686Y-110634150D01*
X136168508Y-110622567D01*
X136144712Y-110603334D01*
X136115248Y-110579637D01*
X136097647Y-110565527D01*
X136030000Y-110511363D01*
X135954444Y-110549645D01*
X135914217Y-110569639D01*
X135872696Y-110589644D01*
X135836989Y-110606254D01*
X135827176Y-110610636D01*
X135775463Y-110633347D01*
X135521178Y-110379171D01*
X135466573Y-110324446D01*
X135415987Y-110273469D01*
X135370702Y-110227555D01*
X135331999Y-110188015D01*
X135301163Y-110156164D01*
X135279474Y-110133313D01*
X135268216Y-110120776D01*
X135266893Y-110118823D01*
X135274527Y-110113665D01*
X135293466Y-110108586D01*
X135299446Y-110107542D01*
X135431415Y-110079410D01*
X135557660Y-110037769D01*
X135675138Y-109983745D01*
X135746462Y-109941810D01*
X135805644Y-109903525D01*
X136714787Y-109903525D01*
X136739558Y-109932166D01*
G37*
G36*
X135530529Y-106654739D02*
G01*
X135533364Y-106676970D01*
X135537266Y-106711232D01*
X135541654Y-106752273D01*
X135544757Y-106782780D01*
X135550149Y-106834688D01*
X135556705Y-106894336D01*
X135563369Y-106952247D01*
X135566475Y-106978098D01*
X135572273Y-107028157D01*
X135577928Y-107081631D01*
X135582622Y-107130596D01*
X135584648Y-107154638D01*
X135588436Y-107190589D01*
X135593262Y-107217741D01*
X135598413Y-107232464D01*
X135600188Y-107234017D01*
X135632643Y-107243764D01*
X135674966Y-107257457D01*
X135720770Y-107272946D01*
X135763666Y-107288083D01*
X135789911Y-107297844D01*
X135848506Y-107320397D01*
X135848506Y-107683116D01*
X135848415Y-107760573D01*
X135848156Y-107832375D01*
X135847748Y-107896722D01*
X135847211Y-107951817D01*
X135846563Y-107995863D01*
X135845825Y-108027060D01*
X135845016Y-108043613D01*
X135844582Y-108045836D01*
X135836113Y-108041214D01*
X135817212Y-108028968D01*
X135791602Y-108011526D01*
X135785471Y-108007258D01*
X135712605Y-107961095D01*
X135632100Y-107918134D01*
X135552711Y-107882980D01*
X135540338Y-107878255D01*
X135501143Y-107864686D01*
X135457289Y-107851121D01*
X135413114Y-107838726D01*
X135372955Y-107828663D01*
X135341149Y-107822097D01*
X135323809Y-107820135D01*
X135312983Y-107813999D01*
X135290569Y-107795557D01*
X135256513Y-107764758D01*
X135210761Y-107721550D01*
X135153258Y-107665882D01*
X135083950Y-107597702D01*
X135002783Y-107516959D01*
X134990442Y-107504621D01*
X134675016Y-107189106D01*
X134680576Y-107137857D01*
X134683882Y-107108032D01*
X134688542Y-107066859D01*
X134693885Y-107020230D01*
X134698261Y-106982438D01*
X134704358Y-106928732D01*
X134710902Y-106868945D01*
X134716922Y-106812031D01*
X134719900Y-106782780D01*
X134724287Y-106740115D01*
X134728603Y-106700482D01*
X134732265Y-106669133D01*
X134734152Y-106654739D01*
X134738891Y-106622186D01*
X135525791Y-106622186D01*
X135530529Y-106654739D01*
G37*
G36*
X133938622Y-108236863D02*
G01*
X134010574Y-108237006D01*
X134075074Y-108237230D01*
X134130329Y-108237527D01*
X134174546Y-108237883D01*
X134205930Y-108238290D01*
X134222690Y-108238736D01*
X134225030Y-108238983D01*
X134220347Y-108246565D01*
X134207881Y-108265208D01*
X134189776Y-108291730D01*
X134176755Y-108310600D01*
X134106675Y-108426690D01*
X134050275Y-108552294D01*
X134008608Y-108685007D01*
X134003648Y-108705576D01*
X133988563Y-108770682D01*
X133666359Y-109094056D01*
X133344154Y-109417431D01*
X133300722Y-109412581D01*
X133274377Y-109409603D01*
X133236232Y-109405246D01*
X133191732Y-109400132D01*
X133153120Y-109395673D01*
X133099411Y-109389604D01*
X133039621Y-109383082D01*
X132982705Y-109377075D01*
X132953462Y-109374100D01*
X132910796Y-109369713D01*
X132871163Y-109365397D01*
X132839815Y-109361735D01*
X132825420Y-109359848D01*
X132792867Y-109355109D01*
X132792867Y-108568209D01*
X132825420Y-108563471D01*
X132847651Y-108560636D01*
X132881914Y-108556734D01*
X132922954Y-108552346D01*
X132953462Y-108549243D01*
X133005369Y-108543851D01*
X133065018Y-108537295D01*
X133122929Y-108530631D01*
X133148780Y-108527525D01*
X133198838Y-108521727D01*
X133252312Y-108516072D01*
X133301277Y-108511378D01*
X133325320Y-108509352D01*
X133361289Y-108505562D01*
X133388435Y-108500736D01*
X133403136Y-108495582D01*
X133404677Y-108493812D01*
X133412428Y-108468087D01*
X133424049Y-108432292D01*
X133437895Y-108391206D01*
X133452318Y-108349603D01*
X133465674Y-108312261D01*
X133476315Y-108283956D01*
X133480531Y-108273706D01*
X133496824Y-108236813D01*
X133861011Y-108236813D01*
X133938622Y-108236863D01*
G37*
G36*
X136503835Y-107042236D02*
G01*
X136523309Y-107058357D01*
X136553294Y-107085466D01*
X136593004Y-107122821D01*
X136641655Y-107169680D01*
X136698463Y-107225303D01*
X136762643Y-107288947D01*
X136784337Y-107310614D01*
X137063908Y-107590283D01*
X136941599Y-107742102D01*
X136905347Y-107787078D01*
X136872046Y-107828347D01*
X136843486Y-107863694D01*
X136821456Y-107890906D01*
X136807745Y-107907769D01*
X136804832Y-107911314D01*
X136793249Y-107925492D01*
X136774016Y-107949288D01*
X136750318Y-107978752D01*
X136736208Y-107996353D01*
X136682045Y-108064000D01*
X136720326Y-108139556D01*
X136740184Y-108179486D01*
X136759928Y-108220420D01*
X136776220Y-108255399D01*
X136780591Y-108265180D01*
X136802575Y-108315249D01*
X136546269Y-108571993D01*
X136491448Y-108626723D01*
X136440451Y-108677278D01*
X136394568Y-108722405D01*
X136355090Y-108760854D01*
X136323304Y-108791370D01*
X136300503Y-108812703D01*
X136287976Y-108823598D01*
X136285957Y-108824731D01*
X136282624Y-108814713D01*
X136277860Y-108792489D01*
X136273102Y-108765321D01*
X136243751Y-108636007D01*
X136197530Y-108508822D01*
X136134905Y-108384967D01*
X136107601Y-108340115D01*
X136065526Y-108274142D01*
X136065937Y-107827949D01*
X136066347Y-107381755D01*
X136115643Y-107342691D01*
X136142886Y-107321039D01*
X136166910Y-107301833D01*
X136182508Y-107289237D01*
X136196210Y-107278123D01*
X136220100Y-107258852D01*
X136251769Y-107233360D01*
X136288806Y-107203582D01*
X136328801Y-107171453D01*
X136369344Y-107138907D01*
X136408025Y-107107879D01*
X136442434Y-107080304D01*
X136470160Y-107058117D01*
X136488794Y-107043254D01*
X136495656Y-107037843D01*
X136503835Y-107042236D01*
G37*
G36*
X134805170Y-109480521D02*
G01*
X134726627Y-109435085D01*
X134652349Y-109375297D01*
X134632742Y-109356635D01*
X134567793Y-109283373D01*
X134517972Y-109205009D01*
X134481108Y-109117918D01*
X134471691Y-109087607D01*
X134461276Y-109049112D01*
X134454919Y-109017721D01*
X134451961Y-108987102D01*
X134451736Y-108950920D01*
X134452277Y-108936236D01*
X134619305Y-108936236D01*
X134623451Y-108991614D01*
X134637245Y-109042922D01*
X134645067Y-109060236D01*
X134683970Y-109117433D01*
X134736330Y-109167287D01*
X134798999Y-109207522D01*
X134868827Y-109235859D01*
X134898233Y-109243389D01*
X134927636Y-109249720D01*
X134952802Y-109255227D01*
X134960895Y-109257038D01*
X134980427Y-109261477D01*
X134980378Y-109024760D01*
X134980044Y-108958539D01*
X134979122Y-108897517D01*
X134977695Y-108844191D01*
X134975846Y-108801057D01*
X134973656Y-108770613D01*
X134971536Y-108756383D01*
X134956391Y-108724810D01*
X134930702Y-108704602D01*
X134892768Y-108694771D01*
X134863236Y-108693443D01*
X134801517Y-108702417D01*
X134744158Y-108727079D01*
X134693575Y-108765868D01*
X134652184Y-108817218D01*
X134640458Y-108837598D01*
X134624932Y-108882870D01*
X134619305Y-108936236D01*
X134452277Y-108936236D01*
X134453209Y-108910906D01*
X134460002Y-108834920D01*
X134473862Y-108769820D01*
X134496449Y-108709995D01*
X134529419Y-108649833D01*
X134531214Y-108646964D01*
X134582327Y-108581535D01*
X134646467Y-108525696D01*
X134721253Y-108481034D01*
X134804304Y-108449140D01*
X134841534Y-108439838D01*
X134884089Y-108433327D01*
X134932630Y-108429834D01*
X134982999Y-108429225D01*
X135031038Y-108431367D01*
X135072590Y-108436124D01*
X135103497Y-108443364D01*
X135114905Y-108448645D01*
X135136681Y-108462914D01*
X135136681Y-109261147D01*
X135173575Y-109260842D01*
X135256333Y-109252327D01*
X135333712Y-109228999D01*
X135403660Y-109192083D01*
X135464123Y-109142803D01*
X135513049Y-109082383D01*
X135533690Y-109046080D01*
X135547478Y-109017604D01*
X135556715Y-108995222D01*
X135562312Y-108974174D01*
X135565181Y-108949698D01*
X135566233Y-108917034D01*
X135566380Y-108875315D01*
X135566056Y-108829498D01*
X135564620Y-108796486D01*
X135561375Y-108771726D01*
X135555626Y-108750668D01*
X135546676Y-108728758D01*
X135542626Y-108719977D01*
X135522771Y-108683971D01*
X135495265Y-108642253D01*
X135464290Y-108600548D01*
X135434027Y-108564582D01*
X135415417Y-108545806D01*
X135401128Y-108528147D01*
X135399219Y-108509626D01*
X135410277Y-108486981D01*
X135430542Y-108461791D01*
X135463979Y-108424112D01*
X135513656Y-108454164D01*
X135594246Y-108512504D01*
X135662289Y-108581979D01*
X135716702Y-108661265D01*
X135756405Y-108749035D01*
X135757994Y-108753651D01*
X135769109Y-108789664D01*
X135776480Y-108823324D01*
X135780992Y-108860504D01*
X135783533Y-108907075D01*
X135784126Y-108926936D01*
X135784519Y-108972899D01*
X135783520Y-109017299D01*
X135781331Y-109054559D01*
X135778755Y-109076052D01*
X135760088Y-109147017D01*
X135730187Y-109220598D01*
X135692074Y-109289495D01*
X135687647Y-109296268D01*
X135631628Y-109365169D01*
X135562762Y-109423929D01*
X135482683Y-109471991D01*
X135393020Y-109508796D01*
X135295408Y-109533785D01*
X135191477Y-109546399D01*
X135082859Y-109546080D01*
X134989108Y-109535395D01*
X134980427Y-109533436D01*
X134891491Y-109513370D01*
X134805170Y-109480521D01*
G37*
G36*
X136960204Y-108510239D02*
G01*
X136988214Y-108513435D01*
X137027812Y-108517982D01*
X137073338Y-108523228D01*
X137111562Y-108527646D01*
X137165271Y-108533715D01*
X137225060Y-108540236D01*
X137281977Y-108546244D01*
X137311220Y-108549218D01*
X137353885Y-108553606D01*
X137393518Y-108557922D01*
X137424867Y-108561583D01*
X137439261Y-108563471D01*
X137471814Y-108568209D01*
X137471814Y-109355109D01*
X137439261Y-109359848D01*
X137417030Y-109362682D01*
X137382768Y-109366585D01*
X137341727Y-109370973D01*
X137311220Y-109374075D01*
X137259312Y-109379468D01*
X137199664Y-109386023D01*
X137141753Y-109392687D01*
X137115902Y-109395793D01*
X137065843Y-109401592D01*
X137012369Y-109407246D01*
X136963404Y-109411940D01*
X136939362Y-109413966D01*
X136903393Y-109417756D01*
X136876247Y-109422583D01*
X136861545Y-109427736D01*
X136860004Y-109429507D01*
X136852254Y-109455232D01*
X136840632Y-109491026D01*
X136826787Y-109532113D01*
X136812363Y-109573716D01*
X136799008Y-109611058D01*
X136788367Y-109639363D01*
X136784151Y-109649612D01*
X136767858Y-109686505D01*
X136403158Y-109686505D01*
X136311036Y-109686409D01*
X136235002Y-109686094D01*
X136173781Y-109685522D01*
X136126100Y-109684654D01*
X136090686Y-109683452D01*
X136066265Y-109681877D01*
X136051565Y-109679890D01*
X136045310Y-109677454D01*
X136045143Y-109675654D01*
X136053189Y-109663508D01*
X136068119Y-109641679D01*
X136086838Y-109614689D01*
X136088574Y-109612204D01*
X136132323Y-109543057D01*
X136173821Y-109465561D01*
X136208426Y-109388564D01*
X136215745Y-109369657D01*
X136228119Y-109333939D01*
X136240990Y-109292697D01*
X136253177Y-109250241D01*
X136263502Y-109210881D01*
X136270782Y-109178927D01*
X136273837Y-109158689D01*
X136273865Y-109157468D01*
X136279842Y-109148876D01*
X136297008Y-109129264D01*
X136324216Y-109099826D01*
X136360318Y-109061760D01*
X136404168Y-109016260D01*
X136454618Y-108964523D01*
X136510520Y-108907745D01*
X136570728Y-108847120D01*
X136593441Y-108824380D01*
X136913016Y-108504892D01*
X136960204Y-108510239D01*
G37*
G36*
X133979601Y-109095284D02*
G01*
X133984453Y-109115017D01*
X133986664Y-109128765D01*
X133993141Y-109164693D01*
X134003772Y-109211266D01*
X134017030Y-109262721D01*
X134031387Y-109313298D01*
X134045316Y-109357235D01*
X134052578Y-109377360D01*
X134074823Y-109429103D01*
X134103198Y-109486849D01*
X134133761Y-109542961D01*
X134161083Y-109587575D01*
X134190475Y-109631877D01*
X134190475Y-110552588D01*
X134169991Y-110566010D01*
X134150040Y-110580403D01*
X134137438Y-110591043D01*
X134126665Y-110600351D01*
X134105006Y-110618276D01*
X134075155Y-110642617D01*
X134039803Y-110671172D01*
X134021199Y-110686105D01*
X133979657Y-110719419D01*
X133937937Y-110752936D01*
X133900214Y-110783298D01*
X133870662Y-110807147D01*
X133864208Y-110812373D01*
X133834827Y-110835856D01*
X133807078Y-110857473D01*
X133786627Y-110872815D01*
X133785494Y-110873626D01*
X133759602Y-110892063D01*
X133201540Y-110333225D01*
X133242436Y-110279961D01*
X133259380Y-110258255D01*
X133284852Y-110226076D01*
X133316493Y-110186363D01*
X133351943Y-110142053D01*
X133388845Y-110096085D01*
X133424837Y-110051397D01*
X133457561Y-110010926D01*
X133484657Y-109977611D01*
X133503766Y-109954391D01*
X133506318Y-109951340D01*
X133519992Y-109934623D01*
X133539099Y-109910750D01*
X133551454Y-109895119D01*
X133581942Y-109856330D01*
X133548960Y-109795290D01*
X133528444Y-109755437D01*
X133506224Y-109709376D01*
X133487075Y-109667006D01*
X133486898Y-109666594D01*
X133457817Y-109598938D01*
X133713411Y-109343235D01*
X133768287Y-109288475D01*
X133819411Y-109237729D01*
X133865474Y-109192277D01*
X133905168Y-109153397D01*
X133937185Y-109122368D01*
X133960216Y-109100467D01*
X133972953Y-109088975D01*
X133975038Y-109087531D01*
X133979601Y-109095284D01*
G37*
G36*
X133778655Y-107045441D02*
G01*
X133799371Y-107061971D01*
X133828735Y-107085477D01*
X133864313Y-107114001D01*
X133903668Y-107145587D01*
X133944363Y-107178277D01*
X133983962Y-107210115D01*
X134020029Y-107239143D01*
X134050128Y-107263405D01*
X134071821Y-107280944D01*
X134081995Y-107289237D01*
X134096179Y-107300795D01*
X134119974Y-107320004D01*
X134149426Y-107343678D01*
X134166917Y-107357697D01*
X134234447Y-107411766D01*
X134327481Y-107365272D01*
X134367476Y-107345689D01*
X134405103Y-107327983D01*
X134435804Y-107314259D01*
X134453341Y-107307190D01*
X134486166Y-107295603D01*
X134737637Y-107546962D01*
X134791923Y-107601357D01*
X134842185Y-107651977D01*
X134887133Y-107697504D01*
X134925478Y-107736619D01*
X134955931Y-107768007D01*
X134977202Y-107790348D01*
X134988003Y-107802326D01*
X134989108Y-107803959D01*
X134982224Y-107811482D01*
X134975376Y-107814866D01*
X134955365Y-107819242D01*
X134942288Y-107820135D01*
X134920138Y-107822813D01*
X134885975Y-107830066D01*
X134844170Y-107840725D01*
X134799092Y-107853619D01*
X134755113Y-107867580D01*
X134724343Y-107878471D01*
X134650207Y-107908901D01*
X134583571Y-107942476D01*
X134517904Y-107982012D01*
X134459038Y-108019793D01*
X133549895Y-108019793D01*
X133525123Y-107991153D01*
X133503779Y-107965888D01*
X133480197Y-107937154D01*
X133473018Y-107928217D01*
X133459504Y-107911342D01*
X133437119Y-107883483D01*
X133407896Y-107847166D01*
X133373870Y-107804919D01*
X133337073Y-107759267D01*
X133323230Y-107742102D01*
X133200774Y-107590283D01*
X133480344Y-107310614D01*
X133546691Y-107244588D01*
X133605914Y-107186350D01*
X133657228Y-107136641D01*
X133699850Y-107096202D01*
X133732993Y-107065774D01*
X133755875Y-107046099D01*
X133767709Y-107037919D01*
X133769026Y-107037843D01*
X133778655Y-107045441D01*
G37*
G36*
X134430492Y-109882507D02*
G01*
X134452321Y-109897437D01*
X134479311Y-109916157D01*
X134481796Y-109917892D01*
X134550943Y-109961642D01*
X134628439Y-110003139D01*
X134705436Y-110037745D01*
X134724343Y-110045064D01*
X134760061Y-110057437D01*
X134801303Y-110070308D01*
X134843759Y-110082496D01*
X134883119Y-110092820D01*
X134915073Y-110100100D01*
X134935311Y-110103156D01*
X134936532Y-110103184D01*
X134946052Y-110109204D01*
X134966154Y-110126326D01*
X134995439Y-110153138D01*
X135032505Y-110188228D01*
X135075954Y-110230187D01*
X135124385Y-110277604D01*
X135176400Y-110329066D01*
X135230597Y-110383164D01*
X135285578Y-110438487D01*
X135339943Y-110493623D01*
X135392292Y-110547162D01*
X135441225Y-110597693D01*
X135485343Y-110643804D01*
X135523246Y-110684086D01*
X135553534Y-110717126D01*
X135574807Y-110741515D01*
X135585666Y-110755841D01*
X135586782Y-110758627D01*
X135584805Y-110780226D01*
X135582464Y-110801987D01*
X135573458Y-110879921D01*
X135566164Y-110943508D01*
X135560261Y-110995643D01*
X135555427Y-111039221D01*
X135551340Y-111077136D01*
X135547678Y-111112284D01*
X135544820Y-111140538D01*
X135540417Y-111183203D01*
X135536088Y-111222835D01*
X135532419Y-111254184D01*
X135530529Y-111268580D01*
X135525791Y-111301133D01*
X134738891Y-111301133D01*
X134734152Y-111268580D01*
X134731318Y-111246349D01*
X134727415Y-111212086D01*
X134723027Y-111171046D01*
X134719925Y-111140538D01*
X134714532Y-111088631D01*
X134707977Y-111028982D01*
X134701313Y-110971071D01*
X134698207Y-110945220D01*
X134692408Y-110895162D01*
X134686754Y-110841688D01*
X134682060Y-110792723D01*
X134680034Y-110768680D01*
X134676244Y-110732711D01*
X134671417Y-110705565D01*
X134666264Y-110690864D01*
X134664493Y-110689323D01*
X134638768Y-110681572D01*
X134602974Y-110669951D01*
X134561887Y-110656105D01*
X134520284Y-110641682D01*
X134482942Y-110628326D01*
X134454637Y-110617685D01*
X134444388Y-110613469D01*
X134407495Y-110597176D01*
X134407495Y-110232477D01*
X134407591Y-110140355D01*
X134407906Y-110064320D01*
X134408478Y-110003099D01*
X134409346Y-109955418D01*
X134410548Y-109920004D01*
X134412123Y-109895584D01*
X134414110Y-109880883D01*
X134416546Y-109874629D01*
X134418346Y-109874462D01*
X134430492Y-109882507D01*
G37*
%TO.C,C5*%
X82185373Y-57965486D02*
X82185373Y-65705486D01*
X84925373Y-57965486D02*
X82185373Y-57965486D01*
X84925373Y-57965486D02*
X84925373Y-65705486D01*
X84925373Y-65705486D02*
X82185373Y-65705486D01*
%TO.C,J2*%
X150925373Y-47965486D02*
X150925373Y-45305486D01*
X148325373Y-47965486D02*
X148325373Y-45305486D01*
X145725373Y-47965486D02*
X145725373Y-46635486D01*
X148325373Y-47965486D02*
X150925373Y-47965486D01*
X147055373Y-47965486D02*
X145725373Y-47965486D01*
X148325373Y-45305486D02*
X150925373Y-45305486D01*
%TO.C,C2*%
X90224373Y-162435486D02*
X90224373Y-162156486D01*
X91905373Y-165995486D02*
X91905373Y-164515486D01*
X90664373Y-165339486D02*
X90664373Y-164515486D01*
X90424373Y-162435486D02*
X90424373Y-161870486D01*
X91584373Y-165903486D02*
X91584373Y-164515486D01*
X90744373Y-165412486D02*
X90744373Y-164515486D01*
X90704373Y-165376486D02*
X90704373Y-164515486D01*
X90264373Y-164858486D02*
X90264373Y-164515486D01*
X95020148Y-165200486D02*
X95020148Y-164700486D01*
X91464373Y-162435486D02*
X91464373Y-161093486D01*
X91544373Y-165889486D02*
X91544373Y-164515486D01*
X90384373Y-162435486D02*
X90384373Y-161921486D01*
X91865373Y-162435486D02*
X91865373Y-160964486D01*
X91384373Y-165823486D02*
X91384373Y-164515486D01*
X89944373Y-164152486D02*
X89944373Y-162798486D01*
X90704373Y-162435486D02*
X90704373Y-161574486D01*
X91344373Y-165804486D02*
X91344373Y-164515486D01*
X92145373Y-162435486D02*
X92145373Y-160914486D01*
X92025373Y-166018486D02*
X92025373Y-164515486D01*
X90624373Y-165301486D02*
X90624373Y-164515486D01*
X91464373Y-165857486D02*
X91464373Y-164515486D01*
X90144373Y-164653486D02*
X90144373Y-162297486D01*
X92225373Y-166044486D02*
X92225373Y-164515486D01*
X92425373Y-166055486D02*
X92425373Y-160895486D01*
X90024373Y-164390486D02*
X90024373Y-162560486D01*
X91744373Y-162435486D02*
X91744373Y-160995486D01*
X91304373Y-162435486D02*
X91304373Y-161165486D01*
X92225373Y-162435486D02*
X92225373Y-160906486D01*
X90464373Y-162435486D02*
X90464373Y-161822486D01*
X90264373Y-162435486D02*
X90264373Y-162092486D01*
X90824373Y-162435486D02*
X90824373Y-161471486D01*
X91785373Y-165966486D02*
X91785373Y-164515486D01*
X91985373Y-166011486D02*
X91985373Y-164515486D01*
X91865373Y-165986486D02*
X91865373Y-164515486D01*
X91945373Y-166003486D02*
X91945373Y-164515486D01*
X91104373Y-162435486D02*
X91104373Y-161275486D01*
X91905373Y-162435486D02*
X91905373Y-160955486D01*
X91064373Y-165650486D02*
X91064373Y-164515486D01*
X91744373Y-165955486D02*
X91744373Y-164515486D01*
X91424373Y-165840486D02*
X91424373Y-164515486D01*
X90904373Y-165540486D02*
X90904373Y-164515486D01*
X89984373Y-164280486D02*
X89984373Y-162670486D01*
X91704373Y-165943486D02*
X91704373Y-164515486D01*
X91624373Y-165917486D02*
X91624373Y-164515486D01*
X91945373Y-162435486D02*
X91945373Y-160947486D01*
X90784373Y-162435486D02*
X90784373Y-161504486D01*
X91144373Y-162435486D02*
X91144373Y-161251486D01*
X92185373Y-162435486D02*
X92185373Y-160910486D01*
X91264373Y-162435486D02*
X91264373Y-161185486D01*
X90064373Y-164486486D02*
X90064373Y-162464486D01*
X91664373Y-165930486D02*
X91664373Y-164515486D01*
X91344373Y-162435486D02*
X91344373Y-161146486D01*
X90184373Y-162435486D02*
X90184373Y-162224486D01*
X90104373Y-164573486D02*
X90104373Y-162377486D01*
X90544373Y-162435486D02*
X90544373Y-161732486D01*
X91024373Y-162435486D02*
X91024373Y-161326486D01*
X91104373Y-165675486D02*
X91104373Y-164515486D01*
X90344373Y-162435486D02*
X90344373Y-161975486D01*
X92145373Y-166036486D02*
X92145373Y-164515486D01*
X91264373Y-165765486D02*
X91264373Y-164515486D01*
X90184373Y-164726486D02*
X90184373Y-164515486D01*
X90504373Y-162435486D02*
X90504373Y-161776486D01*
X90904373Y-162435486D02*
X90904373Y-161410486D01*
X90304373Y-162435486D02*
X90304373Y-162032486D01*
X91384373Y-162435486D02*
X91384373Y-161127486D01*
X90864373Y-165510486D02*
X90864373Y-164515486D01*
X90944373Y-162435486D02*
X90944373Y-161380486D01*
X90624373Y-162435486D02*
X90624373Y-161649486D01*
X91304373Y-165785486D02*
X91304373Y-164515486D01*
X91544373Y-162435486D02*
X91544373Y-161061486D01*
X90584373Y-162435486D02*
X90584373Y-161690486D01*
X90824373Y-165479486D02*
X90824373Y-164515486D01*
X89904373Y-163993486D02*
X89904373Y-162957486D01*
X91024373Y-165624486D02*
X91024373Y-164515486D01*
X91184373Y-165722486D02*
X91184373Y-164515486D01*
X90504373Y-165174486D02*
X90504373Y-164515486D01*
X92065373Y-162435486D02*
X92065373Y-160925486D01*
X92105373Y-166031486D02*
X92105373Y-164515486D01*
X91224373Y-162435486D02*
X91224373Y-161207486D01*
X91144373Y-165699486D02*
X91144373Y-164515486D01*
X92345373Y-166053486D02*
X92345373Y-160897486D01*
X90304373Y-164918486D02*
X90304373Y-164515486D01*
X91985373Y-162435486D02*
X91985373Y-160939486D01*
X91825373Y-165976486D02*
X91825373Y-164515486D01*
X91785373Y-162435486D02*
X91785373Y-160984486D01*
X91584373Y-162435486D02*
X91584373Y-161047486D01*
X91224373Y-165743486D02*
X91224373Y-164515486D01*
X90984373Y-162435486D02*
X90984373Y-161353486D01*
X91664373Y-162435486D02*
X91664373Y-161020486D01*
X90664373Y-162435486D02*
X90664373Y-161611486D01*
X91704373Y-162435486D02*
X91704373Y-161007486D01*
X90384373Y-165029486D02*
X90384373Y-164515486D01*
X92385373Y-166054486D02*
X92385373Y-160896486D01*
X91504373Y-165873486D02*
X91504373Y-164515486D01*
X90784373Y-165446486D02*
X90784373Y-164515486D01*
X91825373Y-162435486D02*
X91825373Y-160974486D01*
X90424373Y-165080486D02*
X90424373Y-164515486D01*
X92465373Y-166055486D02*
X92465373Y-160895486D01*
X89864373Y-163759486D02*
X89864373Y-163191486D01*
X90584373Y-165260486D02*
X90584373Y-164515486D01*
X91624373Y-162435486D02*
X91624373Y-161033486D01*
X90744373Y-162435486D02*
X90744373Y-161538486D01*
X92105373Y-162435486D02*
X92105373Y-160919486D01*
X91424373Y-162435486D02*
X91424373Y-161110486D01*
X95270148Y-164950486D02*
X94770148Y-164950486D01*
X90944373Y-165570486D02*
X90944373Y-164515486D01*
X92185373Y-166040486D02*
X92185373Y-164515486D01*
X91064373Y-162435486D02*
X91064373Y-161300486D01*
X91184373Y-162435486D02*
X91184373Y-161228486D01*
X92305373Y-166051486D02*
X92305373Y-160899486D01*
X92065373Y-166025486D02*
X92065373Y-164515486D01*
X90544373Y-165218486D02*
X90544373Y-164515486D01*
X92265373Y-166048486D02*
X92265373Y-160902486D01*
X90224373Y-164794486D02*
X90224373Y-164515486D01*
X90984373Y-165597486D02*
X90984373Y-164515486D01*
X91504373Y-162435486D02*
X91504373Y-161077486D01*
X90344373Y-164975486D02*
X90344373Y-164515486D01*
X90464373Y-165128486D02*
X90464373Y-164515486D01*
X92025373Y-162435486D02*
X92025373Y-160932486D01*
X90864373Y-162435486D02*
X90864373Y-161440486D01*
X95085373Y-163475486D02*
G75*
G03*
X95085373Y-163475486I-2620000J0D01*
G01*
%TO.C,J3*%
X145725373Y-50505486D02*
X145725373Y-49175486D01*
X148325373Y-50505486D02*
X148325373Y-47845486D01*
X147055373Y-50505486D02*
X145725373Y-50505486D01*
X148325373Y-50505486D02*
X150925373Y-50505486D01*
X148325373Y-47845486D02*
X150925373Y-47845486D01*
X150925373Y-50505486D02*
X150925373Y-47845486D01*
%TO.C,U3B1*%
X125575373Y-75905486D02*
X125575373Y-58005486D01*
X121925373Y-58005486D02*
X120275373Y-58005486D01*
X120275373Y-58005486D02*
X120275373Y-75905486D01*
X125575373Y-58005486D02*
X123925373Y-58005486D01*
X120275373Y-75905486D02*
X125575373Y-75905486D01*
X121925373Y-58005486D02*
G75*
G03*
X123925373Y-58005486I1000000J0D01*
G01*
%TO.C,R1*%
X145245373Y-35305486D02*
X145245373Y-32565486D01*
X138705373Y-35305486D02*
X145245373Y-35305486D01*
X135395373Y-33935486D02*
X138705373Y-33935486D01*
X145245373Y-32565486D02*
X138705373Y-32565486D01*
X138705373Y-32565486D02*
X138705373Y-35305486D01*
X148555373Y-33935486D02*
X145245373Y-33935486D01*
%TO.C,C1*%
X136704373Y-162435486D02*
X136704373Y-161353486D01*
X136144373Y-165080486D02*
X136144373Y-164515486D01*
X137585373Y-165986486D02*
X137585373Y-164515486D01*
X138185373Y-166055486D02*
X138185373Y-160895486D01*
X137384373Y-165930486D02*
X137384373Y-164515486D01*
X136224373Y-162435486D02*
X136224373Y-161776486D01*
X137384373Y-162435486D02*
X137384373Y-161020486D01*
X137264373Y-162435486D02*
X137264373Y-161061486D01*
X137064373Y-165804486D02*
X137064373Y-164515486D01*
X136664373Y-162435486D02*
X136664373Y-161380486D01*
X136784373Y-162435486D02*
X136784373Y-161300486D01*
X137024373Y-162435486D02*
X137024373Y-161165486D01*
X137825373Y-162435486D02*
X137825373Y-160919486D01*
X137024373Y-165785486D02*
X137024373Y-164515486D01*
X135904373Y-162435486D02*
X135904373Y-162224486D01*
X137785373Y-162435486D02*
X137785373Y-160925486D01*
X137064373Y-162435486D02*
X137064373Y-161146486D01*
X137985373Y-166048486D02*
X137985373Y-160902486D01*
X137625373Y-162435486D02*
X137625373Y-160955486D01*
X137144373Y-165840486D02*
X137144373Y-164515486D01*
X138105373Y-166054486D02*
X138105373Y-160896486D01*
X137505373Y-162435486D02*
X137505373Y-160984486D01*
X136384373Y-165339486D02*
X136384373Y-164515486D01*
X136024373Y-162435486D02*
X136024373Y-162032486D01*
X140740148Y-165200486D02*
X140740148Y-164700486D01*
X135624373Y-163993486D02*
X135624373Y-162957486D01*
X137585373Y-162435486D02*
X137585373Y-160964486D01*
X137104373Y-162435486D02*
X137104373Y-161127486D01*
X136944373Y-162435486D02*
X136944373Y-161207486D01*
X136304373Y-165260486D02*
X136304373Y-164515486D01*
X137905373Y-166040486D02*
X137905373Y-164515486D01*
X136264373Y-165218486D02*
X136264373Y-164515486D01*
X136584373Y-165510486D02*
X136584373Y-164515486D01*
X136664373Y-165570486D02*
X136664373Y-164515486D01*
X137264373Y-165889486D02*
X137264373Y-164515486D01*
X137745373Y-166018486D02*
X137745373Y-164515486D01*
X136304373Y-162435486D02*
X136304373Y-161690486D01*
X136224373Y-165174486D02*
X136224373Y-164515486D01*
X136504373Y-165446486D02*
X136504373Y-164515486D01*
X137945373Y-162435486D02*
X137945373Y-160906486D01*
X136024373Y-164918486D02*
X136024373Y-164515486D01*
X135984373Y-164858486D02*
X135984373Y-164515486D01*
X136824373Y-165675486D02*
X136824373Y-164515486D01*
X136544373Y-162435486D02*
X136544373Y-161471486D01*
X136064373Y-164975486D02*
X136064373Y-164515486D01*
X137224373Y-162435486D02*
X137224373Y-161077486D01*
X137545373Y-162435486D02*
X137545373Y-160974486D01*
X136904373Y-165722486D02*
X136904373Y-164515486D01*
X136184373Y-165128486D02*
X136184373Y-164515486D01*
X137344373Y-165917486D02*
X137344373Y-164515486D01*
X137104373Y-165823486D02*
X137104373Y-164515486D01*
X135744373Y-164390486D02*
X135744373Y-162560486D01*
X136544373Y-165479486D02*
X136544373Y-164515486D01*
X135944373Y-162435486D02*
X135944373Y-162156486D01*
X136744373Y-165624486D02*
X136744373Y-164515486D01*
X136264373Y-162435486D02*
X136264373Y-161732486D01*
X137625373Y-165995486D02*
X137625373Y-164515486D01*
X136104373Y-162435486D02*
X136104373Y-161921486D01*
X136144373Y-162435486D02*
X136144373Y-161870486D01*
X136424373Y-162435486D02*
X136424373Y-161574486D01*
X136624373Y-165540486D02*
X136624373Y-164515486D01*
X137224373Y-165873486D02*
X137224373Y-164515486D01*
X136624373Y-162435486D02*
X136624373Y-161410486D01*
X135784373Y-164486486D02*
X135784373Y-162464486D01*
X138145373Y-166055486D02*
X138145373Y-160895486D01*
X136424373Y-165376486D02*
X136424373Y-164515486D01*
X137545373Y-165976486D02*
X137545373Y-164515486D01*
X136704373Y-165597486D02*
X136704373Y-164515486D01*
X136864373Y-165699486D02*
X136864373Y-164515486D01*
X137665373Y-166003486D02*
X137665373Y-164515486D01*
X137424373Y-165943486D02*
X137424373Y-164515486D01*
X137304373Y-162435486D02*
X137304373Y-161047486D01*
X136064373Y-162435486D02*
X136064373Y-161975486D01*
X135864373Y-164653486D02*
X135864373Y-162297486D01*
X137905373Y-162435486D02*
X137905373Y-160910486D01*
X137464373Y-162435486D02*
X137464373Y-160995486D01*
X137865373Y-166036486D02*
X137865373Y-164515486D01*
X135984373Y-162435486D02*
X135984373Y-162092486D01*
X135944373Y-164794486D02*
X135944373Y-164515486D01*
X135824373Y-164573486D02*
X135824373Y-162377486D01*
X135904373Y-164726486D02*
X135904373Y-164515486D01*
X137184373Y-165857486D02*
X137184373Y-164515486D01*
X137144373Y-162435486D02*
X137144373Y-161110486D01*
X135584373Y-163759486D02*
X135584373Y-163191486D01*
X137825373Y-166031486D02*
X137825373Y-164515486D01*
X136744373Y-162435486D02*
X136744373Y-161326486D01*
X137705373Y-166011486D02*
X137705373Y-164515486D01*
X136464373Y-165412486D02*
X136464373Y-164515486D01*
X136904373Y-162435486D02*
X136904373Y-161228486D01*
X137665373Y-162435486D02*
X137665373Y-160947486D01*
X137464373Y-165955486D02*
X137464373Y-164515486D01*
X136584373Y-162435486D02*
X136584373Y-161440486D01*
X136824373Y-162435486D02*
X136824373Y-161275486D01*
X137344373Y-162435486D02*
X137344373Y-161033486D01*
X136984373Y-162435486D02*
X136984373Y-161185486D01*
X136104373Y-165029486D02*
X136104373Y-164515486D01*
X138025373Y-166051486D02*
X138025373Y-160899486D01*
X135664373Y-164152486D02*
X135664373Y-162798486D01*
X137304373Y-165903486D02*
X137304373Y-164515486D01*
X136344373Y-162435486D02*
X136344373Y-161649486D01*
X138065373Y-166053486D02*
X138065373Y-160897486D01*
X137865373Y-162435486D02*
X137865373Y-160914486D01*
X136864373Y-162435486D02*
X136864373Y-161251486D01*
X136984373Y-165765486D02*
X136984373Y-164515486D01*
X136344373Y-165301486D02*
X136344373Y-164515486D01*
X136784373Y-165650486D02*
X136784373Y-164515486D01*
X136184373Y-162435486D02*
X136184373Y-161822486D01*
X137745373Y-162435486D02*
X137745373Y-160932486D01*
X136464373Y-162435486D02*
X136464373Y-161538486D01*
X137505373Y-165966486D02*
X137505373Y-164515486D01*
X137785373Y-166025486D02*
X137785373Y-164515486D01*
X137945373Y-166044486D02*
X137945373Y-164515486D01*
X136944373Y-165743486D02*
X136944373Y-164515486D01*
X136384373Y-162435486D02*
X136384373Y-161611486D01*
X137705373Y-162435486D02*
X137705373Y-160939486D01*
X136504373Y-162435486D02*
X136504373Y-161504486D01*
X135704373Y-164280486D02*
X135704373Y-162670486D01*
X137424373Y-162435486D02*
X137424373Y-161007486D01*
X140990148Y-164950486D02*
X140490148Y-164950486D01*
X137184373Y-162435486D02*
X137184373Y-161093486D01*
X140805373Y-163475486D02*
G75*
G03*
X140805373Y-163475486I-2620000J0D01*
G01*
%TO.C,J6*%
X148325373Y-144485486D02*
X150925373Y-144485486D01*
X150925373Y-144485486D02*
X150925373Y-141825486D01*
X147055373Y-144485486D02*
X145725373Y-144485486D01*
X148325373Y-141825486D02*
X150925373Y-141825486D01*
X148325373Y-144485486D02*
X148325373Y-141825486D01*
X145725373Y-144485486D02*
X145725373Y-143155486D01*
%TO.C,J1*%
X145725373Y-45425486D02*
X145725373Y-44095486D01*
X150925373Y-45425486D02*
X150925373Y-42765486D01*
X148325373Y-42765486D02*
X150925373Y-42765486D01*
X148325373Y-45425486D02*
X148325373Y-42765486D01*
X147055373Y-45425486D02*
X145725373Y-45425486D01*
X148325373Y-45425486D02*
X150925373Y-45425486D01*
%TD*%
%LPC*%
D15*
%TO.C,P1*%
X145088642Y-103935486D03*
D16*
X145088642Y-106705486D03*
X145088642Y-109475486D03*
X145088642Y-112245486D03*
X145088642Y-115015486D03*
X145088642Y-117785486D03*
X145088642Y-120555486D03*
X145088642Y-123325486D03*
X147628642Y-105320486D03*
X147628642Y-108090486D03*
X147628642Y-110860486D03*
X147628642Y-113630486D03*
X147628642Y-116400486D03*
X147628642Y-119170486D03*
X147628642Y-121940486D03*
D17*
X146358642Y-96970486D03*
X146358642Y-130290486D03*
%TD*%
D15*
%TO.C,P2*%
X145088642Y-63173286D03*
D16*
X145088642Y-65943286D03*
X145088642Y-68713286D03*
X145088642Y-71483286D03*
X145088642Y-74253286D03*
X145088642Y-77023286D03*
X145088642Y-79793286D03*
X145088642Y-82563286D03*
X147628642Y-64558286D03*
X147628642Y-67328286D03*
X147628642Y-70098286D03*
X147628642Y-72868286D03*
X147628642Y-75638286D03*
X147628642Y-78408286D03*
X147628642Y-81178286D03*
D17*
X146358642Y-56208286D03*
X146358642Y-89528286D03*
%TD*%
D18*
%TO.C,REF\u002A\u002A*%
X152015373Y-164865486D03*
%TD*%
D19*
%TO.C,U2C1*%
X103875373Y-84735486D03*
D20*
X103875373Y-87275486D03*
X103875373Y-89815486D03*
X103875373Y-92355486D03*
X103875373Y-94895486D03*
X103875373Y-97435486D03*
X103875373Y-99975486D03*
X103875373Y-102515486D03*
X111495373Y-102515486D03*
X111495373Y-99975486D03*
X111495373Y-97435486D03*
X111495373Y-94895486D03*
X111495373Y-92355486D03*
X111495373Y-89815486D03*
X111495373Y-87275486D03*
X111495373Y-84735486D03*
%TD*%
D19*
%TO.C,U3D1*%
X119115373Y-117755486D03*
D20*
X119115373Y-120295486D03*
X119115373Y-122835486D03*
X119115373Y-125375486D03*
X119115373Y-127915486D03*
X119115373Y-130455486D03*
X119115373Y-132995486D03*
X119115373Y-135535486D03*
X119115373Y-138075486D03*
X119115373Y-140615486D03*
X126735373Y-140615486D03*
X126735373Y-138075486D03*
X126735373Y-135535486D03*
X126735373Y-132995486D03*
X126735373Y-130455486D03*
X126735373Y-127915486D03*
X126735373Y-125375486D03*
X126735373Y-122835486D03*
X126735373Y-120295486D03*
X126735373Y-117755486D03*
%TD*%
D19*
%TO.C,U1D1*%
X88635373Y-110135486D03*
D20*
X88635373Y-112675486D03*
X88635373Y-115215486D03*
X88635373Y-117755486D03*
X88635373Y-120295486D03*
X88635373Y-122835486D03*
X88635373Y-125375486D03*
X96255373Y-125375486D03*
X96255373Y-122835486D03*
X96255373Y-120295486D03*
X96255373Y-117755486D03*
X96255373Y-115215486D03*
X96255373Y-112675486D03*
X96255373Y-110135486D03*
%TD*%
D19*
%TO.C,U3C1*%
X119115373Y-84735486D03*
D20*
X119115373Y-87275486D03*
X119115373Y-89815486D03*
X119115373Y-92355486D03*
X119115373Y-94895486D03*
X119115373Y-97435486D03*
X119115373Y-99975486D03*
X119115373Y-102515486D03*
X119115373Y-105055486D03*
X119115373Y-107595486D03*
X126735373Y-107595486D03*
X126735373Y-105055486D03*
X126735373Y-102515486D03*
X126735373Y-99975486D03*
X126735373Y-97435486D03*
X126735373Y-94895486D03*
X126735373Y-92355486D03*
X126735373Y-89815486D03*
X126735373Y-87275486D03*
X126735373Y-84735486D03*
%TD*%
D19*
%TO.C,U2A1*%
X103875373Y-33935486D03*
D20*
X103875373Y-36475486D03*
X103875373Y-39015486D03*
X103875373Y-41555486D03*
X103875373Y-44095486D03*
X103875373Y-46635486D03*
X103875373Y-49175486D03*
X111495373Y-49175486D03*
X111495373Y-46635486D03*
X111495373Y-44095486D03*
X111495373Y-41555486D03*
X111495373Y-39015486D03*
X111495373Y-36475486D03*
X111495373Y-33935486D03*
%TD*%
D21*
%TO.C,C11*%
X83555373Y-135535486D03*
X83555373Y-140535486D03*
%TD*%
D22*
%TO.C,J4*%
X147055373Y-138075486D03*
D23*
X149595373Y-138075486D03*
%TD*%
D21*
%TO.C,C10*%
X115305373Y-117795486D03*
X115305373Y-122795486D03*
%TD*%
D18*
%TO.C,REF\u002A\u002A*%
X80885373Y-30255486D03*
%TD*%
D21*
%TO.C,C4*%
X115305373Y-35205486D03*
X115305373Y-40205486D03*
%TD*%
%TO.C,C6*%
X115305373Y-59335486D03*
X115305373Y-64335486D03*
%TD*%
D19*
%TO.C,U2B1*%
X103875373Y-59335486D03*
D20*
X103875373Y-61875486D03*
X103875373Y-64415486D03*
X103875373Y-66955486D03*
X103875373Y-69495486D03*
X103875373Y-72035486D03*
X103875373Y-74575486D03*
X103875373Y-77115486D03*
X111495373Y-77115486D03*
X111495373Y-74575486D03*
X111495373Y-72035486D03*
X111495373Y-69495486D03*
X111495373Y-66955486D03*
X111495373Y-64415486D03*
X111495373Y-61875486D03*
X111495373Y-59335486D03*
%TD*%
D19*
%TO.C,U3A1*%
X119115373Y-33935486D03*
D20*
X119115373Y-36475486D03*
X119115373Y-39015486D03*
X119115373Y-41555486D03*
X119115373Y-44095486D03*
X119115373Y-46635486D03*
X119115373Y-49175486D03*
X126735373Y-49175486D03*
X126735373Y-46635486D03*
X126735373Y-44095486D03*
X126735373Y-41555486D03*
X126735373Y-39015486D03*
X126735373Y-36475486D03*
X126735373Y-33935486D03*
%TD*%
D19*
%TO.C,J1A1*%
X88635373Y-33935486D03*
D20*
X88635373Y-36475486D03*
X88635373Y-39015486D03*
X88635373Y-41555486D03*
X88635373Y-44095486D03*
X88635373Y-46635486D03*
X88635373Y-49175486D03*
X88635373Y-51715486D03*
X96255373Y-51715486D03*
X96255373Y-49175486D03*
X96255373Y-46635486D03*
X96255373Y-44095486D03*
X96255373Y-41555486D03*
X96255373Y-39015486D03*
X96255373Y-36475486D03*
X96255373Y-33935486D03*
%TD*%
D19*
%TO.C,RN1*%
X128005373Y-80925486D03*
D20*
X125465373Y-80925486D03*
X122925373Y-80925486D03*
X120385373Y-80925486D03*
X117845373Y-80925486D03*
X115305373Y-80925486D03*
%TD*%
D21*
%TO.C,C8*%
X115305373Y-84775486D03*
X115305373Y-89775486D03*
%TD*%
D24*
%TO.C,J7*%
X134969773Y-171415486D03*
X131800973Y-171415486D03*
X128632073Y-171415486D03*
X125463173Y-171415486D03*
X122294273Y-171415486D03*
X119125373Y-171415486D03*
X115956473Y-171415486D03*
X112787573Y-171415486D03*
X109618673Y-171415486D03*
X106449773Y-171415486D03*
X103280973Y-171415486D03*
X100112073Y-171415486D03*
X96943153Y-171415486D03*
X93774263Y-171415486D03*
X90605373Y-171415486D03*
X90605373Y-171415486D03*
%TD*%
D21*
%TO.C,C3*%
X83555373Y-35245486D03*
X83555373Y-40245486D03*
%TD*%
%TO.C,C7*%
X83555373Y-84735486D03*
X83555373Y-89735486D03*
%TD*%
%TO.C,C12*%
X130545373Y-138075486D03*
X130545373Y-143075486D03*
%TD*%
D25*
%TO.C,R4*%
X149595373Y-41555486D03*
D20*
X134355373Y-41555486D03*
%TD*%
D25*
%TO.C,R2*%
X149595373Y-36475486D03*
D20*
X134355373Y-36475486D03*
%TD*%
D22*
%TO.C,J5*%
X147055373Y-140615486D03*
D23*
X149595373Y-140615486D03*
%TD*%
D19*
%TO.C,U2D1*%
X103875373Y-110135486D03*
D20*
X103875373Y-112675486D03*
X103875373Y-115215486D03*
X103875373Y-117755486D03*
X103875373Y-120295486D03*
X103875373Y-122835486D03*
X103875373Y-125375486D03*
X111495373Y-125375486D03*
X111495373Y-122835486D03*
X111495373Y-120295486D03*
X111495373Y-117755486D03*
X111495373Y-115215486D03*
X111495373Y-112675486D03*
X111495373Y-110135486D03*
%TD*%
D21*
%TO.C,C9*%
X83555373Y-110135486D03*
X83555373Y-115135486D03*
%TD*%
D25*
%TO.C,R3*%
X134355373Y-39015486D03*
D20*
X149595373Y-39015486D03*
%TD*%
D19*
%TO.C,U1B1*%
X88635373Y-59335486D03*
D20*
X88635373Y-61875486D03*
X88635373Y-64415486D03*
X88635373Y-66955486D03*
X88635373Y-69495486D03*
X88635373Y-72035486D03*
X88635373Y-74575486D03*
X96255373Y-74575486D03*
X96255373Y-72035486D03*
X96255373Y-69495486D03*
X96255373Y-66955486D03*
X96255373Y-64415486D03*
X96255373Y-61875486D03*
X96255373Y-59335486D03*
%TD*%
D19*
%TO.C,U1C1*%
X88635373Y-84735486D03*
D20*
X88635373Y-87275486D03*
X88635373Y-89815486D03*
X88635373Y-92355486D03*
X88635373Y-94895486D03*
X88635373Y-97435486D03*
X88635373Y-99975486D03*
X96255373Y-99975486D03*
X96255373Y-97435486D03*
X96255373Y-94895486D03*
X96255373Y-92355486D03*
X96255373Y-89815486D03*
X96255373Y-87275486D03*
X96255373Y-84735486D03*
%TD*%
D19*
%TO.C,U2E1*%
X103875373Y-135535486D03*
D20*
X103875373Y-138075486D03*
X103875373Y-140615486D03*
X103875373Y-143155486D03*
X103875373Y-145695486D03*
X103875373Y-148235486D03*
X103875373Y-150775486D03*
X103875373Y-153315486D03*
X111495373Y-153315486D03*
X111495373Y-150775486D03*
X111495373Y-148235486D03*
X111495373Y-145695486D03*
X111495373Y-143155486D03*
X111495373Y-140615486D03*
X111495373Y-138075486D03*
X111495373Y-135535486D03*
%TD*%
D21*
%TO.C,C5*%
X83555373Y-59335486D03*
X83555373Y-64335486D03*
%TD*%
D22*
%TO.C,J2*%
X147055373Y-46635486D03*
D23*
X149595373Y-46635486D03*
%TD*%
D19*
%TO.C,C2*%
X93715373Y-163475486D03*
D25*
X91215373Y-163475486D03*
%TD*%
D22*
%TO.C,J3*%
X147055373Y-49175486D03*
D23*
X149595373Y-49175486D03*
%TD*%
D19*
%TO.C,U3B1*%
X119115373Y-59335486D03*
D20*
X119115373Y-61875486D03*
X119115373Y-64415486D03*
X119115373Y-66955486D03*
X119115373Y-69495486D03*
X119115373Y-72035486D03*
X119115373Y-74575486D03*
X126735373Y-74575486D03*
X126735373Y-72035486D03*
X126735373Y-69495486D03*
X126735373Y-66955486D03*
X126735373Y-64415486D03*
X126735373Y-61875486D03*
X126735373Y-59335486D03*
%TD*%
D25*
%TO.C,R1*%
X134355373Y-33935486D03*
D20*
X149595373Y-33935486D03*
%TD*%
D19*
%TO.C,C1*%
X139435373Y-163475486D03*
D25*
X136935373Y-163475486D03*
%TD*%
D22*
%TO.C,J6*%
X147055373Y-143155486D03*
D23*
X149595373Y-143155486D03*
%TD*%
D22*
%TO.C,J1*%
X147055373Y-44095486D03*
D23*
X149595373Y-44095486D03*
%TD*%
M02*
