M48
; DRILL file {KiCad (6.0.0)} date Mon Mar 14 15:32:51 2022
; FORMAT={-:-/ absolute / metric / decimal}
; #@! TF.CreationDate,2022-03-14T15:32:51-04:00
; #@! TF.GenerationSoftware,Kicad,Pcbnew,(6.0.0)
; #@! TF.FileFunction,Plated,1,2,PTH
FMAT,2
METRIC
; #@! TA.AperFunction,Plated,PTH,ViaDrill
T1C0.400
; #@! TA.AperFunction,Plated,PTH,ComponentDrill
T2C0.800
; #@! TA.AperFunction,Plated,PTH,ComponentDrill
T3C1.000
; #@! TA.AperFunction,Plated,PTH,ComponentDrill
T4C1.100
; #@! TA.AperFunction,Plated,PTH,ComponentDrill
T5C3.200
%
G90
G05
T1
X83.82Y-55.626
X86.258Y-163.779
X86.614Y-69.494
X86.715Y-64.415
X86.721Y-45.511
X86.893Y-47.904
X87.452Y-40.31
X90.424Y-38.329
X90.654Y-122.835
X91.669Y-121.26
X92.71Y-55.118
X93.649Y-89.815
X93.732Y-68.371
X93.878Y-84.785
X94.234Y-96.19
X97.511Y-130.81
X97.612Y-80.188
X98.171Y-61.646
X98.349Y-51.613
X98.424Y-46.635
X98.425Y-119.101
X98.577Y-91.237
X99.502Y-121.173
X100.176Y-140.689
X100.49Y-112.903
X100.94Y-40.411
X100.94Y-160.706
X101.27Y-82.22
X101.829Y-164.49
X101.929Y-64.415
X102.108Y-53.594
X103.281Y-163.8
X103.632Y-55.626
X105.095Y-165.482
X105.455Y-42.971
X105.543Y-79.801
X106.02Y-121.717
X106.121Y-122.987
X106.401Y-32.766
X106.426Y-53.594
X106.68Y-165.532
X106.959Y-47.422
X107.239Y-164.389
X107.582Y-162.7
X107.848Y-33.071
X107.975Y-42.215
X108.153Y-68.123
X108.196Y-146.82
X108.458Y-75.692
X108.458Y-120.142
X108.814Y-45.974
X108.814Y-47.574
X108.966Y-69.596
X108.991Y-67.183
X109.117Y-150.775
X109.22Y-71.882
X109.575Y-46.635
X109.626Y-42.139
X109.83Y-160.706
X109.88Y-117.907
X110.058Y-30.836
X111.074Y-31.801
X112.738Y-128.232
X113.03Y-155.194
X113.456Y-91.231
X113.512Y-138.075
X113.741Y-61.824
X113.792Y-78.232
X113.868Y-161.442
X113.944Y-30.836
X114.593Y-159.219
X114.808Y-55.118
X115.062Y-74.422
X115.062Y-99.822
X115.956Y-153.294
X116.586Y-112.014
X116.63Y-76.664
X116.967Y-31.14
X116.979Y-52.515
X117.081Y-130.086
X117.266Y-50.591
X117.831Y-148.311
X119.125Y-164.593
X119.126Y-113.538
X119.126Y-155.194
X119.393Y-77.762
X119.634Y-55.372
X120.804Y-165.698
X121.21Y-92.355
X121.666Y-152.654
X122.098Y-107.696
X122.294Y-165.996
X122.5Y-40.0
X123.698Y-55.118
X124.308Y-120.548
X124.308Y-146.685
X124.358Y-42.697
X124.485Y-139.243
X124.714Y-159.258
X124.892Y-91.465
X125.247Y-143.307
X125.463Y-166.891
X125.476Y-77.47
X127.635Y-151.257
X128.27Y-55.118
X128.905Y-161.925
X129.133Y-102.515
X129.352Y-163.256
X130.149Y-127.915
X130.802Y-75.7
X131.801Y-166.446
X131.826Y-160.782
X131.877Y-155.194
X132.004Y-152.654
X132.842Y-73.406
X132.842Y-163.83
X134.067Y-45.511
X134.112Y-52.578
X134.112Y-54.102
X134.112Y-68.326
X134.226Y-153.379
X134.43Y-154.469
X135.279Y-140.615
X135.362Y-101.391
X135.382Y-120.777
X135.711Y-125.375
X135.737Y-122.835
X135.755Y-131.58
X135.769Y-124.251
X135.89Y-119.786
X136.016Y-132.995
X136.296Y-110.871
X136.308Y-108.09
X136.353Y-134.411
X136.398Y-47.752
X136.829Y-135.535
X137.191Y-121.711
X137.245Y-113.63
X137.718Y-66.955
X137.718Y-74.575
X137.801Y-63.291
X138.597Y-77.023
X138.607Y-94.895
X138.614Y-70.911
X138.632Y-97.435
X138.632Y-105.055
X138.633Y-96.19
X138.639Y-103.931
X138.645Y-82.563
X139.096Y-93.771
X139.378Y-64.558
X139.496Y-87.275
X140.063Y-67.328
X140.265Y-86.151
X140.544Y-70.098
X141.139Y-72.153
X145.263Y-101.549
X147.333Y-125.209
X150.012Y-52.324
T2
X88.635Y-33.935
X88.635Y-36.475
X88.635Y-39.015
X88.635Y-41.555
X88.635Y-44.095
X88.635Y-46.635
X88.635Y-49.175
X88.635Y-51.715
X88.635Y-59.335
X88.635Y-61.875
X88.635Y-64.415
X88.635Y-66.955
X88.635Y-69.495
X88.635Y-72.035
X88.635Y-74.575
X88.635Y-84.735
X88.635Y-87.275
X88.635Y-89.815
X88.635Y-92.355
X88.635Y-94.895
X88.635Y-97.435
X88.635Y-99.975
X88.635Y-110.135
X88.635Y-112.675
X88.635Y-115.215
X88.635Y-117.755
X88.635Y-120.295
X88.635Y-122.835
X88.635Y-125.375
X91.215Y-163.475
X93.715Y-163.475
X96.255Y-33.935
X96.255Y-36.475
X96.255Y-39.015
X96.255Y-41.555
X96.255Y-44.095
X96.255Y-46.635
X96.255Y-49.175
X96.255Y-51.715
X96.255Y-59.335
X96.255Y-61.875
X96.255Y-64.415
X96.255Y-66.955
X96.255Y-69.495
X96.255Y-72.035
X96.255Y-74.575
X96.255Y-84.735
X96.255Y-87.275
X96.255Y-89.815
X96.255Y-92.355
X96.255Y-94.895
X96.255Y-97.435
X96.255Y-99.975
X96.255Y-110.135
X96.255Y-112.675
X96.255Y-115.215
X96.255Y-117.755
X96.255Y-120.295
X96.255Y-122.835
X96.255Y-125.375
X103.875Y-33.935
X103.875Y-36.475
X103.875Y-39.015
X103.875Y-41.555
X103.875Y-44.095
X103.875Y-46.635
X103.875Y-49.175
X103.875Y-59.335
X103.875Y-61.875
X103.875Y-64.415
X103.875Y-66.955
X103.875Y-69.495
X103.875Y-72.035
X103.875Y-74.575
X103.875Y-77.115
X103.875Y-84.735
X103.875Y-87.275
X103.875Y-89.815
X103.875Y-92.355
X103.875Y-94.895
X103.875Y-97.435
X103.875Y-99.975
X103.875Y-102.515
X103.875Y-110.135
X103.875Y-112.675
X103.875Y-115.215
X103.875Y-117.755
X103.875Y-120.295
X103.875Y-122.835
X103.875Y-125.375
X103.875Y-135.535
X103.875Y-138.075
X103.875Y-140.615
X103.875Y-143.155
X103.875Y-145.695
X103.875Y-148.235
X103.875Y-150.775
X103.875Y-153.315
X111.495Y-33.935
X111.495Y-36.475
X111.495Y-39.015
X111.495Y-41.555
X111.495Y-44.095
X111.495Y-46.635
X111.495Y-49.175
X111.495Y-59.335
X111.495Y-61.875
X111.495Y-64.415
X111.495Y-66.955
X111.495Y-69.495
X111.495Y-72.035
X111.495Y-74.575
X111.495Y-77.115
X111.495Y-84.735
X111.495Y-87.275
X111.495Y-89.815
X111.495Y-92.355
X111.495Y-94.895
X111.495Y-97.435
X111.495Y-99.975
X111.495Y-102.515
X111.495Y-110.135
X111.495Y-112.675
X111.495Y-115.215
X111.495Y-117.755
X111.495Y-120.295
X111.495Y-122.835
X111.495Y-125.375
X111.495Y-135.535
X111.495Y-138.075
X111.495Y-140.615
X111.495Y-143.155
X111.495Y-145.695
X111.495Y-148.235
X111.495Y-150.775
X111.495Y-153.315
X115.305Y-80.925
X117.845Y-80.925
X119.115Y-33.935
X119.115Y-36.475
X119.115Y-39.015
X119.115Y-41.555
X119.115Y-44.095
X119.115Y-46.635
X119.115Y-49.175
X119.115Y-59.335
X119.115Y-61.875
X119.115Y-64.415
X119.115Y-66.955
X119.115Y-69.495
X119.115Y-72.035
X119.115Y-74.575
X119.115Y-84.735
X119.115Y-87.275
X119.115Y-89.815
X119.115Y-92.355
X119.115Y-94.895
X119.115Y-97.435
X119.115Y-99.975
X119.115Y-102.515
X119.115Y-105.055
X119.115Y-107.595
X119.115Y-117.755
X119.115Y-120.295
X119.115Y-122.835
X119.115Y-125.375
X119.115Y-127.915
X119.115Y-130.455
X119.115Y-132.995
X119.115Y-135.535
X119.115Y-138.075
X119.115Y-140.615
X120.385Y-80.925
X122.925Y-80.925
X125.465Y-80.925
X126.735Y-33.935
X126.735Y-36.475
X126.735Y-39.015
X126.735Y-41.555
X126.735Y-44.095
X126.735Y-46.635
X126.735Y-49.175
X126.735Y-59.335
X126.735Y-61.875
X126.735Y-64.415
X126.735Y-66.955
X126.735Y-69.495
X126.735Y-72.035
X126.735Y-74.575
X126.735Y-84.735
X126.735Y-87.275
X126.735Y-89.815
X126.735Y-92.355
X126.735Y-94.895
X126.735Y-97.435
X126.735Y-99.975
X126.735Y-102.515
X126.735Y-105.055
X126.735Y-107.595
X126.735Y-117.755
X126.735Y-120.295
X126.735Y-122.835
X126.735Y-125.375
X126.735Y-127.915
X126.735Y-130.455
X126.735Y-132.995
X126.735Y-135.535
X126.735Y-138.075
X126.735Y-140.615
X128.005Y-80.925
X134.355Y-33.935
X134.355Y-36.475
X134.355Y-39.015
X134.355Y-41.555
X136.935Y-163.475
X139.435Y-163.475
X149.595Y-33.935
X149.595Y-36.475
X149.595Y-39.015
X149.595Y-41.555
T3
X83.555Y-35.245
X83.555Y-40.245
X83.555Y-59.335
X83.555Y-64.335
X83.555Y-84.735
X83.555Y-89.735
X83.555Y-110.135
X83.555Y-115.135
X83.555Y-135.535
X83.555Y-140.535
X115.305Y-35.205
X115.305Y-40.205
X115.305Y-59.335
X115.305Y-64.335
X115.305Y-84.775
X115.305Y-89.775
X115.305Y-117.795
X115.305Y-122.795
X130.545Y-138.075
X130.545Y-143.075
X147.055Y-44.095
X147.055Y-46.635
X147.055Y-49.175
X147.055Y-138.075
X147.055Y-140.615
X147.055Y-143.155
X149.595Y-44.095
X149.595Y-46.635
X149.595Y-49.175
X149.595Y-138.075
X149.595Y-140.615
X149.595Y-143.155
T4
X145.089Y-63.173
X145.089Y-65.943
X145.089Y-68.713
X145.089Y-71.483
X145.089Y-74.253
X145.089Y-77.023
X145.089Y-79.793
X145.089Y-82.563
X145.089Y-103.935
X145.089Y-106.705
X145.089Y-109.475
X145.089Y-112.245
X145.089Y-115.015
X145.089Y-117.785
X145.089Y-120.555
X145.089Y-123.325
X147.629Y-64.558
X147.629Y-67.328
X147.629Y-70.098
X147.629Y-72.868
X147.629Y-75.638
X147.629Y-78.408
X147.629Y-81.178
X147.629Y-105.32
X147.629Y-108.09
X147.629Y-110.86
X147.629Y-113.63
X147.629Y-116.4
X147.629Y-119.17
X147.629Y-121.94
T5
X146.359Y-56.208
X146.359Y-89.528
X146.359Y-96.97
X146.359Y-130.29
T0
M30
