%TF.GenerationSoftware,KiCad,Pcbnew,(6.0.0)*%
%TF.CreationDate,2022-03-13T19:33:12-04:00*%
%TF.ProjectId,Northstar Protoboard,4e6f7274-6873-4746-9172-2050726f746f,rev?*%
%TF.SameCoordinates,Original*%
%TF.FileFunction,Copper,L1,Top*%
%TF.FilePolarity,Positive*%
%FSLAX46Y46*%
G04 Gerber Fmt 4.6, Leading zero omitted, Abs format (unit mm)*
G04 Created by KiCad (PCBNEW (6.0.0)) date 2022-03-13 19:33:12*
%MOMM*%
%LPD*%
G01*
G04 APERTURE LIST*
%ADD10C,0.200000*%
%TA.AperFunction,NonConductor*%
%ADD11C,0.200000*%
%TD*%
%TA.AperFunction,ComponentPad*%
%ADD12C,1.700000*%
%TD*%
%TA.AperFunction,ComponentPad*%
%ADD13C,2.000000*%
%TD*%
%TA.AperFunction,ComponentPad*%
%ADD14R,1.600000X1.600000*%
%TD*%
%TA.AperFunction,ComponentPad*%
%ADD15C,1.600000*%
%TD*%
%TA.AperFunction,ComponentPad*%
%ADD16R,1.700000X1.700000*%
%TD*%
%TA.AperFunction,ComponentPad*%
%ADD17O,1.700000X1.700000*%
%TD*%
%TA.AperFunction,ComponentPad*%
%ADD18R,2.000000X1.905000*%
%TD*%
%TA.AperFunction,ComponentPad*%
%ADD19O,2.000000X1.905000*%
%TD*%
%TA.AperFunction,SMDPad,CuDef*%
%ADD20R,1.700000X7.400000*%
%TD*%
%TA.AperFunction,ComponentPad*%
%ADD21O,1.600000X1.600000*%
%TD*%
%TA.AperFunction,ComponentPad*%
%ADD22C,1.500000*%
%TD*%
%TA.AperFunction,ComponentPad*%
%ADD23C,4.800000*%
%TD*%
%TA.AperFunction,ViaPad*%
%ADD24C,0.800000*%
%TD*%
%TA.AperFunction,Conductor*%
%ADD25C,1.500000*%
%TD*%
%TA.AperFunction,Conductor*%
%ADD26C,0.700000*%
%TD*%
%TA.AperFunction,Conductor*%
%ADD27C,0.250000*%
%TD*%
%TA.AperFunction,Conductor*%
%ADD28C,0.400000*%
%TD*%
G04 APERTURE END LIST*
D10*
D11*
X62606333Y-145833333D02*
X62606333Y-145166666D01*
X63006333Y-145966666D02*
X61606333Y-145500000D01*
X63006333Y-145033333D01*
X62939666Y-144633333D02*
X63006333Y-144433333D01*
X63006333Y-144100000D01*
X62939666Y-143966666D01*
X62873000Y-143900000D01*
X62739666Y-143833333D01*
X62606333Y-143833333D01*
X62473000Y-143900000D01*
X62406333Y-143966666D01*
X62339666Y-144100000D01*
X62273000Y-144366666D01*
X62206333Y-144500000D01*
X62139666Y-144566666D01*
X62006333Y-144633333D01*
X61873000Y-144633333D01*
X61739666Y-144566666D01*
X61673000Y-144500000D01*
X61606333Y-144366666D01*
X61606333Y-144033333D01*
X61673000Y-143833333D01*
X62939666Y-143300000D02*
X63006333Y-143100000D01*
X63006333Y-142766666D01*
X62939666Y-142633333D01*
X62873000Y-142566666D01*
X62739666Y-142500000D01*
X62606333Y-142500000D01*
X62473000Y-142566666D01*
X62406333Y-142633333D01*
X62339666Y-142766666D01*
X62273000Y-143033333D01*
X62206333Y-143166666D01*
X62139666Y-143233333D01*
X62006333Y-143300000D01*
X61873000Y-143300000D01*
X61739666Y-143233333D01*
X61673000Y-143166666D01*
X61606333Y-143033333D01*
X61606333Y-142700000D01*
X61673000Y-142500000D01*
X62339666Y-141633333D02*
X63006333Y-141633333D01*
X61606333Y-142100000D02*
X62339666Y-141633333D01*
X61606333Y-141166666D01*
X63006333Y-138900000D02*
X63006333Y-139700000D01*
X63006333Y-139300000D02*
X61606333Y-139300000D01*
X61806333Y-139433333D01*
X61939666Y-139566666D01*
X62006333Y-139700000D01*
X61606333Y-138033333D02*
X61606333Y-137900000D01*
X61673000Y-137766666D01*
X61739666Y-137700000D01*
X61873000Y-137633333D01*
X62139666Y-137566666D01*
X62473000Y-137566666D01*
X62739666Y-137633333D01*
X62873000Y-137700000D01*
X62939666Y-137766666D01*
X63006333Y-137900000D01*
X63006333Y-138033333D01*
X62939666Y-138166666D01*
X62873000Y-138233333D01*
X62739666Y-138300000D01*
X62473000Y-138366666D01*
X62139666Y-138366666D01*
X61873000Y-138300000D01*
X61739666Y-138233333D01*
X61673000Y-138166666D01*
X61606333Y-138033333D01*
X63006333Y-136233333D02*
X63006333Y-137033333D01*
X63006333Y-136633333D02*
X61606333Y-136633333D01*
X61806333Y-136766666D01*
X61939666Y-136900000D01*
X62006333Y-137033333D01*
X62073000Y-135033333D02*
X63006333Y-135033333D01*
X61539666Y-135366666D02*
X62539666Y-135700000D01*
X62539666Y-134833333D01*
X61739666Y-134366666D02*
X61673000Y-134300000D01*
X61606333Y-134166666D01*
X61606333Y-133833333D01*
X61673000Y-133700000D01*
X61739666Y-133633333D01*
X61873000Y-133566666D01*
X62006333Y-133566666D01*
X62206333Y-133633333D01*
X63006333Y-134433333D01*
X63006333Y-133566666D01*
X65260333Y-142766666D02*
X63860333Y-142766666D01*
X63860333Y-142233333D01*
X63927000Y-142100000D01*
X63993666Y-142033333D01*
X64127000Y-141966666D01*
X64327000Y-141966666D01*
X64460333Y-142033333D01*
X64527000Y-142100000D01*
X64593666Y-142233333D01*
X64593666Y-142766666D01*
X65260333Y-140566666D02*
X64593666Y-141033333D01*
X65260333Y-141366666D02*
X63860333Y-141366666D01*
X63860333Y-140833333D01*
X63927000Y-140700000D01*
X63993666Y-140633333D01*
X64127000Y-140566666D01*
X64327000Y-140566666D01*
X64460333Y-140633333D01*
X64527000Y-140700000D01*
X64593666Y-140833333D01*
X64593666Y-141366666D01*
X63860333Y-139700000D02*
X63860333Y-139433333D01*
X63927000Y-139300000D01*
X64060333Y-139166666D01*
X64327000Y-139100000D01*
X64793666Y-139100000D01*
X65060333Y-139166666D01*
X65193666Y-139300000D01*
X65260333Y-139433333D01*
X65260333Y-139700000D01*
X65193666Y-139833333D01*
X65060333Y-139966666D01*
X64793666Y-140033333D01*
X64327000Y-140033333D01*
X64060333Y-139966666D01*
X63927000Y-139833333D01*
X63860333Y-139700000D01*
X63860333Y-138700000D02*
X63860333Y-137900000D01*
X65260333Y-138300000D02*
X63860333Y-138300000D01*
X63860333Y-137166666D02*
X63860333Y-136900000D01*
X63927000Y-136766666D01*
X64060333Y-136633333D01*
X64327000Y-136566666D01*
X64793666Y-136566666D01*
X65060333Y-136633333D01*
X65193666Y-136766666D01*
X65260333Y-136900000D01*
X65260333Y-137166666D01*
X65193666Y-137300000D01*
X65060333Y-137433333D01*
X64793666Y-137500000D01*
X64327000Y-137500000D01*
X64060333Y-137433333D01*
X63927000Y-137300000D01*
X63860333Y-137166666D01*
D12*
%TO.P,REF\u002A\u002A,1*%
%TO.N,N/C*%
X76200000Y-35560000D03*
%TD*%
%TO.P,REF\u002A\u002A,1*%
%TO.N,N/C*%
X104140000Y-66040000D03*
%TD*%
%TO.P,REF\u002A\u002A,1*%
%TO.N,N/C*%
X104140000Y-73660000D03*
%TD*%
%TO.P,REF\u002A\u002A,1*%
%TO.N,N/C*%
X73660000Y-81280000D03*
%TD*%
%TO.P,REF\u002A\u002A,1*%
%TO.N,N/C*%
X93980000Y-81280000D03*
%TD*%
%TO.P,REF\u002A\u002A,1*%
%TO.N,N/C*%
X63500000Y-71120000D03*
%TD*%
%TO.P,REF\u002A\u002A,1*%
%TO.N,N/C*%
X96520000Y-78740000D03*
%TD*%
%TO.P,REF\u002A\u002A,1*%
%TO.N,N/C*%
X78740000Y-99060000D03*
%TD*%
%TO.P,REF\u002A\u002A,1*%
%TO.N,N/C*%
X76200000Y-104140000D03*
%TD*%
D13*
%TO.P,J6,1,Pin_1*%
%TO.N,Net-(U3-Pad2)*%
X103632000Y-113538000D03*
%TD*%
%TO.P,J41,1,Pin_1*%
%TO.N,Net-(J40-Pad25)*%
X118110000Y-95250000D03*
%TD*%
D12*
%TO.P,REF\u002A\u002A,1*%
%TO.N,N/C*%
X66040000Y-55880000D03*
%TD*%
D13*
%TO.P,J26,1,Pin_1*%
%TO.N,-9V*%
X123190000Y-111125000D03*
%TD*%
D12*
%TO.P,REF\u002A\u002A,1*%
%TO.N,N/C*%
X106680000Y-58420000D03*
%TD*%
%TO.P,REF\u002A\u002A,1*%
%TO.N,N/C*%
X93980000Y-78740000D03*
%TD*%
%TO.P,REF\u002A\u002A,1*%
%TO.N,N/C*%
X91440000Y-43180000D03*
%TD*%
D13*
%TO.P,J28,1,Pin_1*%
%TO.N,Net-(U5-Pad8)*%
X111252000Y-112268000D03*
%TD*%
D12*
%TO.P,REF\u002A\u002A,1*%
%TO.N,N/C*%
X111760000Y-40640000D03*
%TD*%
%TO.P,REF\u002A\u002A,1*%
%TO.N,N/C*%
X93980000Y-33020000D03*
%TD*%
%TO.P,REF\u002A\u002A,1*%
%TO.N,N/C*%
X104140000Y-93980000D03*
%TD*%
%TO.P,REF\u002A\u002A,1*%
%TO.N,N/C*%
X106680000Y-40640000D03*
%TD*%
%TO.P,REF\u002A\u002A,1*%
%TO.N,N/C*%
X119380000Y-45720000D03*
%TD*%
%TO.P,REF\u002A\u002A,1*%
%TO.N,N/C*%
X88900000Y-43180000D03*
%TD*%
D13*
%TO.P,J45,1,Pin_1*%
%TO.N,Net-(J40-Pad23)*%
X118110000Y-87630000D03*
%TD*%
D12*
%TO.P,REF\u002A\u002A,1*%
%TO.N,N/C*%
X116840000Y-35560000D03*
%TD*%
%TO.P,REF\u002A\u002A,1*%
%TO.N,N/C*%
X104140000Y-45720000D03*
%TD*%
%TO.P,REF\u002A\u002A,1*%
%TO.N,N/C*%
X96520000Y-30480000D03*
%TD*%
D13*
%TO.P,J12,1,Pin_1*%
%TO.N,Net-(U3-Pad6)*%
X93472000Y-113538000D03*
%TD*%
D12*
%TO.P,REF\u002A\u002A,1*%
%TO.N,N/C*%
X66040000Y-60960000D03*
%TD*%
%TO.P,REF\u002A\u002A,1*%
%TO.N,N/C*%
X63500000Y-88900000D03*
%TD*%
%TO.P,REF\u002A\u002A,1*%
%TO.N,N/C*%
X109220000Y-73660000D03*
%TD*%
%TO.P,REF\u002A\u002A,1*%
%TO.N,N/C*%
X86360000Y-50800000D03*
%TD*%
%TO.P,REF\u002A\u002A,1*%
%TO.N,N/C*%
X63500000Y-78740000D03*
%TD*%
%TO.P,REF\u002A\u002A,1*%
%TO.N,N/C*%
X63500000Y-38100000D03*
%TD*%
%TO.P,REF\u002A\u002A,1*%
%TO.N,N/C*%
X111760000Y-33020000D03*
%TD*%
%TO.P,REF\u002A\u002A,1*%
%TO.N,N/C*%
X114300000Y-45720000D03*
%TD*%
%TO.P,REF\u002A\u002A,1*%
%TO.N,N/C*%
X124460000Y-30480000D03*
%TD*%
%TO.P,REF\u002A\u002A,1*%
%TO.N,N/C*%
X83820000Y-27940000D03*
%TD*%
%TO.P,REF\u002A\u002A,1*%
%TO.N,N/C*%
X127000000Y-43180000D03*
%TD*%
%TO.P,REF\u002A\u002A,1*%
%TO.N,N/C*%
X109220000Y-43180000D03*
%TD*%
%TO.P,REF\u002A\u002A,1*%
%TO.N,N/C*%
X76200000Y-58420000D03*
%TD*%
%TO.P,REF\u002A\u002A,1*%
%TO.N,N/C*%
X88900000Y-78740000D03*
%TD*%
%TO.P,REF\u002A\u002A,1*%
%TO.N,N/C*%
X91440000Y-60960000D03*
%TD*%
%TO.P,REF\u002A\u002A,1*%
%TO.N,N/C*%
X104140000Y-43180000D03*
%TD*%
%TO.P,REF\u002A\u002A,1*%
%TO.N,N/C*%
X88900000Y-76200000D03*
%TD*%
%TO.P,REF\u002A\u002A,1*%
%TO.N,N/C*%
X101600000Y-86360000D03*
%TD*%
%TO.P,REF\u002A\u002A,1*%
%TO.N,N/C*%
X60960000Y-76200000D03*
%TD*%
%TO.P,REF\u002A\u002A,1*%
%TO.N,N/C*%
X111760000Y-25400000D03*
%TD*%
%TO.P,REF\u002A\u002A,1*%
%TO.N,N/C*%
X63500000Y-96520000D03*
%TD*%
%TO.P,REF\u002A\u002A,1*%
%TO.N,N/C*%
X73660000Y-96520000D03*
%TD*%
%TO.P,REF\u002A\u002A,1*%
%TO.N,N/C*%
X99060000Y-25400000D03*
%TD*%
%TO.P,REF\u002A\u002A,1*%
%TO.N,N/C*%
X88900000Y-99060000D03*
%TD*%
%TO.P,REF\u002A\u002A,1*%
%TO.N,N/C*%
X60960000Y-88900000D03*
%TD*%
%TO.P,REF\u002A\u002A,1*%
%TO.N,N/C*%
X63500000Y-45720000D03*
%TD*%
%TO.P,REF\u002A\u002A,1*%
%TO.N,N/C*%
X104140000Y-55880000D03*
%TD*%
%TO.P,REF\u002A\u002A,1*%
%TO.N,N/C*%
X76200000Y-63500000D03*
%TD*%
%TO.P,REF\u002A\u002A,1*%
%TO.N,N/C*%
X68580000Y-76200000D03*
%TD*%
%TO.P,REF\u002A\u002A,1*%
%TO.N,N/C*%
X86360000Y-55880000D03*
%TD*%
%TO.P,REF\u002A\u002A,1*%
%TO.N,N/C*%
X106680000Y-76200000D03*
%TD*%
%TO.P,REF\u002A\u002A,1*%
%TO.N,N/C*%
X93980000Y-50800000D03*
%TD*%
D13*
%TO.P,J3,1,Pin_1*%
%TO.N,+5V*%
X62865000Y-117475000D03*
%TD*%
D12*
%TO.P,REF\u002A\u002A,1*%
%TO.N,N/C*%
X109220000Y-71120000D03*
%TD*%
%TO.P,REF\u002A\u002A,1*%
%TO.N,N/C*%
X119380000Y-27940000D03*
%TD*%
%TO.P,REF\u002A\u002A,1*%
%TO.N,N/C*%
X76200000Y-53340000D03*
%TD*%
%TO.P,REF\u002A\u002A,1*%
%TO.N,N/C*%
X76200000Y-48260000D03*
%TD*%
%TO.P,REF\u002A\u002A,1*%
%TO.N,N/C*%
X88900000Y-96520000D03*
%TD*%
%TO.P,REF\u002A\u002A,1*%
%TO.N,N/C*%
X106680000Y-33020000D03*
%TD*%
%TO.P,REF\u002A\u002A,1*%
%TO.N,N/C*%
X66040000Y-101600000D03*
%TD*%
%TO.P,REF\u002A\u002A,1*%
%TO.N,N/C*%
X99060000Y-33020000D03*
%TD*%
%TO.P,REF\u002A\u002A,1*%
%TO.N,N/C*%
X60960000Y-96520000D03*
%TD*%
%TO.P,REF\u002A\u002A,1*%
%TO.N,N/C*%
X96520000Y-101600000D03*
%TD*%
%TO.P,REF\u002A\u002A,1*%
%TO.N,N/C*%
X104140000Y-35560000D03*
%TD*%
%TO.P,REF\u002A\u002A,1*%
%TO.N,N/C*%
X111760000Y-45720000D03*
%TD*%
%TO.P,REF\u002A\u002A,1*%
%TO.N,N/C*%
X60960000Y-71120000D03*
%TD*%
%TO.P,REF\u002A\u002A,1*%
%TO.N,N/C*%
X78740000Y-48260000D03*
%TD*%
%TO.P,REF\u002A\u002A,1*%
%TO.N,N/C*%
X96520000Y-96520000D03*
%TD*%
%TO.P,REF\u002A\u002A,1*%
%TO.N,N/C*%
X68580000Y-83820000D03*
%TD*%
%TO.P,REF\u002A\u002A,1*%
%TO.N,N/C*%
X106680000Y-86360000D03*
%TD*%
%TO.P,REF\u002A\u002A,1*%
%TO.N,N/C*%
X66040000Y-33020000D03*
%TD*%
%TO.P,REF\u002A\u002A,1*%
%TO.N,N/C*%
X119380000Y-30480000D03*
%TD*%
%TO.P,REF\u002A\u002A,1*%
%TO.N,N/C*%
X104140000Y-71120000D03*
%TD*%
%TO.P,REF\u002A\u002A,1*%
%TO.N,N/C*%
X121920000Y-30480000D03*
%TD*%
%TO.P,REF\u002A\u002A,1*%
%TO.N,N/C*%
X71120000Y-58420000D03*
%TD*%
%TO.P,REF\u002A\u002A,1*%
%TO.N,N/C*%
X60960000Y-30480000D03*
%TD*%
%TO.P,REF\u002A\u002A,1*%
%TO.N,N/C*%
X63500000Y-63500000D03*
%TD*%
%TO.P,REF\u002A\u002A,1*%
%TO.N,N/C*%
X93980000Y-43180000D03*
%TD*%
%TO.P,REF\u002A\u002A,1*%
%TO.N,N/C*%
X73660000Y-33020000D03*
%TD*%
%TO.P,REF\u002A\u002A,1*%
%TO.N,N/C*%
X63500000Y-33020000D03*
%TD*%
%TO.P,REF\u002A\u002A,1*%
%TO.N,N/C*%
X83820000Y-55880000D03*
%TD*%
%TO.P,REF\u002A\u002A,1*%
%TO.N,N/C*%
X66040000Y-88900000D03*
%TD*%
%TO.P,REF\u002A\u002A,1*%
%TO.N,N/C*%
X76200000Y-93980000D03*
%TD*%
%TO.P,REF\u002A\u002A,1*%
%TO.N,N/C*%
X101600000Y-91440000D03*
%TD*%
%TO.P,REF\u002A\u002A,1*%
%TO.N,N/C*%
X88900000Y-106680000D03*
%TD*%
%TO.P,REF\u002A\u002A,1*%
%TO.N,N/C*%
X71120000Y-35560000D03*
%TD*%
%TO.P,REF\u002A\u002A,1*%
%TO.N,N/C*%
X101600000Y-48260000D03*
%TD*%
%TO.P,REF\u002A\u002A,1*%
%TO.N,N/C*%
X76200000Y-25400000D03*
%TD*%
%TO.P,REF\u002A\u002A,1*%
%TO.N,N/C*%
X78740000Y-30480000D03*
%TD*%
%TO.P,REF\u002A\u002A,1*%
%TO.N,N/C*%
X121920000Y-38100000D03*
%TD*%
%TO.P,REF\u002A\u002A,1*%
%TO.N,N/C*%
X111760000Y-30480000D03*
%TD*%
%TO.P,REF\u002A\u002A,1*%
%TO.N,N/C*%
X129540000Y-30480000D03*
%TD*%
%TO.P,REF\u002A\u002A,1*%
%TO.N,N/C*%
X93980000Y-25400000D03*
%TD*%
%TO.P,REF\u002A\u002A,1*%
%TO.N,N/C*%
X66040000Y-63500000D03*
%TD*%
%TO.P,REF\u002A\u002A,1*%
%TO.N,N/C*%
X76200000Y-91440000D03*
%TD*%
%TO.P,REF\u002A\u002A,1*%
%TO.N,N/C*%
X71120000Y-45720000D03*
%TD*%
D13*
%TO.P,J58,1,Pin_1*%
%TO.N,Net-(J40-Pad4)*%
X114300000Y-62230000D03*
%TD*%
D12*
%TO.P,REF\u002A\u002A,1*%
%TO.N,N/C*%
X78740000Y-86360000D03*
%TD*%
%TO.P,REF\u002A\u002A,1*%
%TO.N,N/C*%
X81280000Y-78740000D03*
%TD*%
%TO.P,REF\u002A\u002A,1*%
%TO.N,N/C*%
X76200000Y-27940000D03*
%TD*%
%TO.P,REF\u002A\u002A,1*%
%TO.N,N/C*%
X71120000Y-63500000D03*
%TD*%
%TO.P,REF\u002A\u002A,1*%
%TO.N,N/C*%
X88900000Y-60960000D03*
%TD*%
%TO.P,REF\u002A\u002A,1*%
%TO.N,N/C*%
X116840000Y-43180000D03*
%TD*%
%TO.P,REF\u002A\u002A,1*%
%TO.N,N/C*%
X99060000Y-73660000D03*
%TD*%
%TO.P,REF\u002A\u002A,1*%
%TO.N,N/C*%
X114300000Y-38100000D03*
%TD*%
%TO.P,REF\u002A\u002A,1*%
%TO.N,N/C*%
X86360000Y-35560000D03*
%TD*%
%TO.P,REF\u002A\u002A,1*%
%TO.N,N/C*%
X104140000Y-83820000D03*
%TD*%
%TO.P,REF\u002A\u002A,1*%
%TO.N,N/C*%
X127000000Y-38100000D03*
%TD*%
%TO.P,REF\u002A\u002A,1*%
%TO.N,N/C*%
X121920000Y-27940000D03*
%TD*%
%TO.P,REF\u002A\u002A,1*%
%TO.N,N/C*%
X91440000Y-91440000D03*
%TD*%
%TO.P,REF\u002A\u002A,1*%
%TO.N,N/C*%
X68580000Y-30480000D03*
%TD*%
%TO.P,REF\u002A\u002A,1*%
%TO.N,N/C*%
X93980000Y-27940000D03*
%TD*%
%TO.P,REF\u002A\u002A,1*%
%TO.N,N/C*%
X106680000Y-30480000D03*
%TD*%
%TO.P,REF\u002A\u002A,1*%
%TO.N,N/C*%
X101600000Y-35560000D03*
%TD*%
%TO.P,REF\u002A\u002A,1*%
%TO.N,N/C*%
X88900000Y-40640000D03*
%TD*%
%TO.P,REF\u002A\u002A,1*%
%TO.N,N/C*%
X86360000Y-27940000D03*
%TD*%
%TO.P,REF\u002A\u002A,1*%
%TO.N,N/C*%
X104140000Y-27940000D03*
%TD*%
%TO.P,REF\u002A\u002A,1*%
%TO.N,N/C*%
X106680000Y-81280000D03*
%TD*%
%TO.P,REF\u002A\u002A,1*%
%TO.N,N/C*%
X68580000Y-66040000D03*
%TD*%
%TO.P,REF\u002A\u002A,1*%
%TO.N,N/C*%
X83820000Y-25400000D03*
%TD*%
%TO.P,REF\u002A\u002A,1*%
%TO.N,N/C*%
X104140000Y-106680000D03*
%TD*%
%TO.P,REF\u002A\u002A,1*%
%TO.N,N/C*%
X63500000Y-68580000D03*
%TD*%
%TO.P,REF\u002A\u002A,1*%
%TO.N,N/C*%
X71120000Y-76200000D03*
%TD*%
%TO.P,REF\u002A\u002A,1*%
%TO.N,N/C*%
X109220000Y-86360000D03*
%TD*%
%TO.P,REF\u002A\u002A,1*%
%TO.N,N/C*%
X106680000Y-78740000D03*
%TD*%
%TO.P,REF\u002A\u002A,1*%
%TO.N,N/C*%
X60960000Y-50800000D03*
%TD*%
%TO.P,REF\u002A\u002A,1*%
%TO.N,N/C*%
X81280000Y-71120000D03*
%TD*%
%TO.P,REF\u002A\u002A,1*%
%TO.N,N/C*%
X88900000Y-30480000D03*
%TD*%
%TO.P,REF\u002A\u002A,1*%
%TO.N,N/C*%
X91440000Y-66040000D03*
%TD*%
%TO.P,REF\u002A\u002A,1*%
%TO.N,N/C*%
X96520000Y-35560000D03*
%TD*%
%TO.P,REF\u002A\u002A,1*%
%TO.N,N/C*%
X91440000Y-83820000D03*
%TD*%
%TO.P,REF\u002A\u002A,1*%
%TO.N,N/C*%
X101600000Y-45720000D03*
%TD*%
%TO.P,REF\u002A\u002A,1*%
%TO.N,N/C*%
X86360000Y-45720000D03*
%TD*%
%TO.P,REF\u002A\u002A,1*%
%TO.N,N/C*%
X83820000Y-63500000D03*
%TD*%
%TO.P,REF\u002A\u002A,1*%
%TO.N,N/C*%
X101600000Y-38100000D03*
%TD*%
%TO.P,REF\u002A\u002A,1*%
%TO.N,N/C*%
X81280000Y-58420000D03*
%TD*%
%TO.P,REF\u002A\u002A,1*%
%TO.N,N/C*%
X109220000Y-58420000D03*
%TD*%
%TO.P,REF\u002A\u002A,1*%
%TO.N,N/C*%
X104140000Y-50800000D03*
%TD*%
%TO.P,REF\u002A\u002A,1*%
%TO.N,N/C*%
X101600000Y-66040000D03*
%TD*%
%TO.P,REF\u002A\u002A,1*%
%TO.N,N/C*%
X81280000Y-33020000D03*
%TD*%
%TO.P,REF\u002A\u002A,1*%
%TO.N,N/C*%
X76200000Y-106680000D03*
%TD*%
%TO.P,REF\u002A\u002A,1*%
%TO.N,N/C*%
X78740000Y-50800000D03*
%TD*%
%TO.P,REF\u002A\u002A,1*%
%TO.N,N/C*%
X78740000Y-76200000D03*
%TD*%
%TO.P,REF\u002A\u002A,1*%
%TO.N,N/C*%
X78740000Y-38100000D03*
%TD*%
%TO.P,REF\u002A\u002A,1*%
%TO.N,N/C*%
X106680000Y-45720000D03*
%TD*%
%TO.P,REF\u002A\u002A,1*%
%TO.N,N/C*%
X86360000Y-66040000D03*
%TD*%
%TO.P,REF\u002A\u002A,1*%
%TO.N,N/C*%
X83820000Y-40640000D03*
%TD*%
D13*
%TO.P,J37,1,Pin_1*%
%TO.N,Net-(U5-Pad13)*%
X108712000Y-110998000D03*
%TD*%
D12*
%TO.P,REF\u002A\u002A,1*%
%TO.N,N/C*%
X88900000Y-104140000D03*
%TD*%
%TO.P,REF\u002A\u002A,1*%
%TO.N,N/C*%
X99060000Y-45720000D03*
%TD*%
%TO.P,REF\u002A\u002A,1*%
%TO.N,N/C*%
X127000000Y-40640000D03*
%TD*%
%TO.P,REF\u002A\u002A,1*%
%TO.N,N/C*%
X68580000Y-48260000D03*
%TD*%
%TO.P,REF\u002A\u002A,1*%
%TO.N,N/C*%
X83820000Y-81280000D03*
%TD*%
%TO.P,REF\u002A\u002A,1*%
%TO.N,N/C*%
X78740000Y-106680000D03*
%TD*%
%TO.P,REF\u002A\u002A,1*%
%TO.N,N/C*%
X101600000Y-60960000D03*
%TD*%
%TO.P,REF\u002A\u002A,1*%
%TO.N,N/C*%
X66040000Y-73660000D03*
%TD*%
%TO.P,REF\u002A\u002A,1*%
%TO.N,N/C*%
X83820000Y-48260000D03*
%TD*%
%TO.P,REF\u002A\u002A,1*%
%TO.N,N/C*%
X86360000Y-76200000D03*
%TD*%
%TO.P,REF\u002A\u002A,1*%
%TO.N,N/C*%
X114300000Y-35560000D03*
%TD*%
D13*
%TO.P,J52,1,Pin_1*%
%TO.N,Net-(J40-Pad7)*%
X114300000Y-73660000D03*
%TD*%
D14*
%TO.P,C8,1*%
%TO.N,GND*%
X104140000Y-143510000D03*
D15*
%TO.P,C8,2*%
%TO.N,-9V*%
X104140000Y-146010000D03*
%TD*%
D12*
%TO.P,REF\u002A\u002A,1*%
%TO.N,N/C*%
X93980000Y-55880000D03*
%TD*%
%TO.P,REF\u002A\u002A,1*%
%TO.N,N/C*%
X66040000Y-104140000D03*
%TD*%
D13*
%TO.P,J29,1,Pin_1*%
%TO.N,Net-(U3-Pad17)*%
X101130002Y-112268000D03*
%TD*%
D12*
%TO.P,REF\u002A\u002A,1*%
%TO.N,N/C*%
X68580000Y-71120000D03*
%TD*%
D13*
%TO.P,C5,1*%
%TO.N,+12V*%
X127000000Y-151130000D03*
%TO.P,C5,2*%
%TO.N,GND*%
X122000000Y-151130000D03*
%TD*%
D12*
%TO.P,REF\u002A\u002A,1*%
%TO.N,N/C*%
X83820000Y-58420000D03*
%TD*%
%TO.P,REF\u002A\u002A,1*%
%TO.N,N/C*%
X86360000Y-63500000D03*
%TD*%
%TO.P,REF\u002A\u002A,1*%
%TO.N,N/C*%
X96520000Y-86360000D03*
%TD*%
D13*
%TO.P,C13,1*%
%TO.N,+5V*%
X94020000Y-120650000D03*
%TO.P,C13,2*%
%TO.N,GND*%
X99020000Y-120650000D03*
%TD*%
D12*
%TO.P,REF\u002A\u002A,1*%
%TO.N,N/C*%
X78740000Y-81280000D03*
%TD*%
%TO.P,REF\u002A\u002A,1*%
%TO.N,N/C*%
X124460000Y-40640000D03*
%TD*%
%TO.P,REF\u002A\u002A,1*%
%TO.N,N/C*%
X129540000Y-35560000D03*
%TD*%
%TO.P,REF\u002A\u002A,1*%
%TO.N,N/C*%
X104140000Y-63500000D03*
%TD*%
%TO.P,REF\u002A\u002A,1*%
%TO.N,N/C*%
X91440000Y-78740000D03*
%TD*%
%TO.P,REF\u002A\u002A,1*%
%TO.N,N/C*%
X73660000Y-38100000D03*
%TD*%
%TO.P,REF\u002A\u002A,1*%
%TO.N,N/C*%
X99060000Y-53340000D03*
%TD*%
D13*
%TO.P,J4,1,Pin_1*%
%TO.N,GND*%
X120650000Y-114300000D03*
%TD*%
D12*
%TO.P,REF\u002A\u002A,1*%
%TO.N,N/C*%
X63500000Y-53340000D03*
%TD*%
%TO.P,REF\u002A\u002A,1*%
%TO.N,N/C*%
X116840000Y-33020000D03*
%TD*%
%TO.P,REF\u002A\u002A,1*%
%TO.N,N/C*%
X101600000Y-96520000D03*
%TD*%
%TO.P,REF\u002A\u002A,1*%
%TO.N,N/C*%
X86360000Y-58420000D03*
%TD*%
%TO.P,REF\u002A\u002A,1*%
%TO.N,N/C*%
X86360000Y-60960000D03*
%TD*%
%TO.P,REF\u002A\u002A,1*%
%TO.N,N/C*%
X66040000Y-99060000D03*
%TD*%
D13*
%TO.P,J25,1,Pin_1*%
%TO.N,+9V*%
X116840000Y-120650000D03*
%TD*%
D12*
%TO.P,REF\u002A\u002A,1*%
%TO.N,N/C*%
X86360000Y-101600000D03*
%TD*%
%TO.P,REF\u002A\u002A,1*%
%TO.N,N/C*%
X68580000Y-35560000D03*
%TD*%
%TO.P,REF\u002A\u002A,1*%
%TO.N,N/C*%
X96520000Y-48260000D03*
%TD*%
%TO.P,REF\u002A\u002A,1*%
%TO.N,N/C*%
X109220000Y-66040000D03*
%TD*%
%TO.P,REF\u002A\u002A,1*%
%TO.N,N/C*%
X68580000Y-88900000D03*
%TD*%
%TO.P,REF\u002A\u002A,1*%
%TO.N,N/C*%
X93980000Y-40640000D03*
%TD*%
%TO.P,REF\u002A\u002A,1*%
%TO.N,N/C*%
X91440000Y-63500000D03*
%TD*%
%TO.P,REF\u002A\u002A,1*%
%TO.N,N/C*%
X93980000Y-60960000D03*
%TD*%
%TO.P,REF\u002A\u002A,1*%
%TO.N,N/C*%
X91440000Y-27940000D03*
%TD*%
%TO.P,REF\u002A\u002A,1*%
%TO.N,N/C*%
X101600000Y-71120000D03*
%TD*%
%TO.P,REF\u002A\u002A,1*%
%TO.N,N/C*%
X71120000Y-27940000D03*
%TD*%
%TO.P,REF\u002A\u002A,1*%
%TO.N,N/C*%
X106680000Y-50800000D03*
%TD*%
%TO.P,REF\u002A\u002A,1*%
%TO.N,N/C*%
X71120000Y-68580000D03*
%TD*%
%TO.P,REF\u002A\u002A,1*%
%TO.N,N/C*%
X101600000Y-106680000D03*
%TD*%
%TO.P,REF\u002A\u002A,1*%
%TO.N,N/C*%
X93980000Y-83820000D03*
%TD*%
%TO.P,REF\u002A\u002A,1*%
%TO.N,N/C*%
X106680000Y-27940000D03*
%TD*%
D16*
%TO.P,J27,1,Pin_1*%
%TO.N,GND*%
X77470000Y-110490000D03*
D17*
%TO.P,J27,2,Pin_2*%
%TO.N,Net-(J27-Pad2)*%
X77470000Y-113030000D03*
%TO.P,J27,3,Pin_3*%
%TO.N,+5V*%
X77470000Y-115570000D03*
%TD*%
D12*
%TO.P,REF\u002A\u002A,1*%
%TO.N,N/C*%
X93980000Y-101600000D03*
%TD*%
%TO.P,REF\u002A\u002A,1*%
%TO.N,N/C*%
X91440000Y-38100000D03*
%TD*%
%TO.P,REF\u002A\u002A,1*%
%TO.N,N/C*%
X96520000Y-76200000D03*
%TD*%
D13*
%TO.P,J35,1,Pin_1*%
%TO.N,Net-(U5-Pad15)*%
X106172000Y-114808000D03*
%TD*%
D12*
%TO.P,REF\u002A\u002A,1*%
%TO.N,N/C*%
X73660000Y-30480000D03*
%TD*%
%TO.P,REF\u002A\u002A,1*%
%TO.N,N/C*%
X109220000Y-25400000D03*
%TD*%
%TO.P,REF\u002A\u002A,1*%
%TO.N,N/C*%
X109220000Y-63500000D03*
%TD*%
%TO.P,REF\u002A\u002A,1*%
%TO.N,N/C*%
X66040000Y-50800000D03*
%TD*%
%TO.P,REF\u002A\u002A,1*%
%TO.N,N/C*%
X109220000Y-38100000D03*
%TD*%
%TO.P,REF\u002A\u002A,1*%
%TO.N,N/C*%
X78740000Y-78740000D03*
%TD*%
%TO.P,REF\u002A\u002A,1*%
%TO.N,N/C*%
X60960000Y-60960000D03*
%TD*%
D13*
%TO.P,J47,1,Pin_1*%
%TO.N,Net-(J40-Pad22)*%
X118110000Y-83820000D03*
%TD*%
D12*
%TO.P,REF\u002A\u002A,1*%
%TO.N,N/C*%
X96520000Y-88900000D03*
%TD*%
%TO.P,REF\u002A\u002A,1*%
%TO.N,N/C*%
X101600000Y-104140000D03*
%TD*%
%TO.P,REF\u002A\u002A,1*%
%TO.N,N/C*%
X71120000Y-50800000D03*
%TD*%
%TO.P,REF\u002A\u002A,1*%
%TO.N,N/C*%
X78740000Y-33020000D03*
%TD*%
%TO.P,REF\u002A\u002A,1*%
%TO.N,N/C*%
X116840000Y-25400000D03*
%TD*%
%TO.P,REF\u002A\u002A,1*%
%TO.N,N/C*%
X109220000Y-93980000D03*
%TD*%
%TO.P,REF\u002A\u002A,1*%
%TO.N,N/C*%
X78740000Y-58420000D03*
%TD*%
%TO.P,REF\u002A\u002A,1*%
%TO.N,N/C*%
X71120000Y-93980000D03*
%TD*%
%TO.P,REF\u002A\u002A,1*%
%TO.N,N/C*%
X83820000Y-91440000D03*
%TD*%
%TO.P,REF\u002A\u002A,1*%
%TO.N,N/C*%
X60960000Y-83820000D03*
%TD*%
%TO.P,REF\u002A\u002A,1*%
%TO.N,N/C*%
X106680000Y-91440000D03*
%TD*%
%TO.P,REF\u002A\u002A,1*%
%TO.N,N/C*%
X76200000Y-66040000D03*
%TD*%
%TO.P,REF\u002A\u002A,1*%
%TO.N,N/C*%
X73660000Y-53340000D03*
%TD*%
D13*
%TO.P,C4,1*%
%TO.N,+5V*%
X63500000Y-149900000D03*
%TO.P,C4,2*%
%TO.N,GND*%
X63500000Y-154900000D03*
%TD*%
D14*
%TO.P,C2,1*%
%TO.N,+12V*%
X125262000Y-156796000D03*
D15*
%TO.P,C2,2*%
%TO.N,GND*%
X122762000Y-156796000D03*
%TD*%
D12*
%TO.P,REF\u002A\u002A,1*%
%TO.N,N/C*%
X60960000Y-33020000D03*
%TD*%
%TO.P,REF\u002A\u002A,1*%
%TO.N,N/C*%
X68580000Y-40640000D03*
%TD*%
%TO.P,REF\u002A\u002A,1*%
%TO.N,N/C*%
X66040000Y-106680000D03*
%TD*%
%TO.P,REF\u002A\u002A,1*%
%TO.N,N/C*%
X86360000Y-43180000D03*
%TD*%
%TO.P,REF\u002A\u002A,1*%
%TO.N,N/C*%
X71120000Y-55880000D03*
%TD*%
%TO.P,REF\u002A\u002A,1*%
%TO.N,N/C*%
X101600000Y-27940000D03*
%TD*%
D13*
%TO.P,J39,1,Pin_1*%
%TO.N,Net-(J40-Pad13)*%
X114300000Y-96520000D03*
%TD*%
D12*
%TO.P,REF\u002A\u002A,1*%
%TO.N,N/C*%
X106680000Y-63500000D03*
%TD*%
D13*
%TO.P,J55,1,Pin_1*%
%TO.N,Net-(J40-Pad18)*%
X118110000Y-68580000D03*
%TD*%
%TO.P,J2,1,Pin_1*%
%TO.N,+12V*%
X115570000Y-124460000D03*
%TD*%
%TO.P,J56,1,Pin_1*%
%TO.N,Net-(J40-Pad5)*%
X114300000Y-66040000D03*
%TD*%
D12*
%TO.P,REF\u002A\u002A,1*%
%TO.N,N/C*%
X71120000Y-25400000D03*
%TD*%
%TO.P,REF\u002A\u002A,1*%
%TO.N,N/C*%
X99060000Y-27940000D03*
%TD*%
%TO.P,REF\u002A\u002A,1*%
%TO.N,N/C*%
X76200000Y-101600000D03*
%TD*%
%TO.P,REF\u002A\u002A,1*%
%TO.N,N/C*%
X91440000Y-73660000D03*
%TD*%
%TO.P,REF\u002A\u002A,1*%
%TO.N,N/C*%
X81280000Y-81280000D03*
%TD*%
%TO.P,REF\u002A\u002A,1*%
%TO.N,N/C*%
X63500000Y-76200000D03*
%TD*%
%TO.P,REF\u002A\u002A,1*%
%TO.N,N/C*%
X101600000Y-78740000D03*
%TD*%
%TO.P,REF\u002A\u002A,1*%
%TO.N,N/C*%
X96520000Y-25400000D03*
%TD*%
%TO.P,REF\u002A\u002A,1*%
%TO.N,N/C*%
X71120000Y-81280000D03*
%TD*%
%TO.P,REF\u002A\u002A,1*%
%TO.N,N/C*%
X104140000Y-88900000D03*
%TD*%
%TO.P,REF\u002A\u002A,1*%
%TO.N,N/C*%
X109220000Y-27940000D03*
%TD*%
%TO.P,REF\u002A\u002A,1*%
%TO.N,N/C*%
X88900000Y-68580000D03*
%TD*%
%TO.P,REF\u002A\u002A,1*%
%TO.N,N/C*%
X93980000Y-66040000D03*
%TD*%
%TO.P,REF\u002A\u002A,1*%
%TO.N,N/C*%
X127000000Y-33020000D03*
%TD*%
%TO.P,REF\u002A\u002A,1*%
%TO.N,N/C*%
X109220000Y-68580000D03*
%TD*%
%TO.P,REF\u002A\u002A,1*%
%TO.N,N/C*%
X119380000Y-38100000D03*
%TD*%
D13*
%TO.P,J30,1,Pin_1*%
%TO.N,Net-(U3-Pad15)*%
X96012000Y-112014000D03*
%TD*%
D12*
%TO.P,REF\u002A\u002A,1*%
%TO.N,N/C*%
X124460000Y-27940000D03*
%TD*%
%TO.P,REF\u002A\u002A,1*%
%TO.N,N/C*%
X104140000Y-30480000D03*
%TD*%
%TO.P,REF\u002A\u002A,1*%
%TO.N,N/C*%
X66040000Y-40640000D03*
%TD*%
%TO.P,REF\u002A\u002A,1*%
%TO.N,N/C*%
X68580000Y-101600000D03*
%TD*%
%TO.P,REF\u002A\u002A,1*%
%TO.N,N/C*%
X114300000Y-30480000D03*
%TD*%
%TO.P,REF\u002A\u002A,1*%
%TO.N,N/C*%
X86360000Y-40640000D03*
%TD*%
%TO.P,REF\u002A\u002A,1*%
%TO.N,N/C*%
X109220000Y-45720000D03*
%TD*%
%TO.P,REF\u002A\u002A,1*%
%TO.N,N/C*%
X71120000Y-33020000D03*
%TD*%
%TO.P,REF\u002A\u002A,1*%
%TO.N,N/C*%
X68580000Y-73660000D03*
%TD*%
%TO.P,REF\u002A\u002A,1*%
%TO.N,N/C*%
X81280000Y-50800000D03*
%TD*%
%TO.P,REF\u002A\u002A,1*%
%TO.N,N/C*%
X66040000Y-68580000D03*
%TD*%
%TO.P,REF\u002A\u002A,1*%
%TO.N,N/C*%
X96520000Y-60960000D03*
%TD*%
%TO.P,REF\u002A\u002A,1*%
%TO.N,N/C*%
X73660000Y-45720000D03*
%TD*%
%TO.P,REF\u002A\u002A,1*%
%TO.N,N/C*%
X78740000Y-68580000D03*
%TD*%
D13*
%TO.P,C6,1*%
%TO.N,-12V*%
X114300000Y-151130000D03*
%TO.P,C6,2*%
%TO.N,GND*%
X119300000Y-151130000D03*
%TD*%
D12*
%TO.P,REF\u002A\u002A,1*%
%TO.N,N/C*%
X91440000Y-25400000D03*
%TD*%
%TO.P,REF\u002A\u002A,1*%
%TO.N,N/C*%
X83820000Y-35560000D03*
%TD*%
%TO.P,REF\u002A\u002A,1*%
%TO.N,N/C*%
X73660000Y-58420000D03*
%TD*%
%TO.P,REF\u002A\u002A,1*%
%TO.N,N/C*%
X71120000Y-43180000D03*
%TD*%
D13*
%TO.P,J9,1,Pin_1*%
%TO.N,Net-(U5-Pad17)*%
X113576002Y-113792000D03*
%TD*%
D12*
%TO.P,REF\u002A\u002A,1*%
%TO.N,N/C*%
X124460000Y-35560000D03*
%TD*%
%TO.P,REF\u002A\u002A,1*%
%TO.N,N/C*%
X68580000Y-99060000D03*
%TD*%
%TO.P,REF\u002A\u002A,1*%
%TO.N,N/C*%
X129540000Y-43180000D03*
%TD*%
%TO.P,REF\u002A\u002A,1*%
%TO.N,N/C*%
X63500000Y-40640000D03*
%TD*%
%TO.P,REF\u002A\u002A,1*%
%TO.N,N/C*%
X91440000Y-71120000D03*
%TD*%
%TO.P,REF\u002A\u002A,1*%
%TO.N,N/C*%
X60960000Y-45720000D03*
%TD*%
%TO.P,REF\u002A\u002A,1*%
%TO.N,N/C*%
X83820000Y-43180000D03*
%TD*%
%TO.P,REF\u002A\u002A,1*%
%TO.N,N/C*%
X91440000Y-33020000D03*
%TD*%
%TO.P,REF\u002A\u002A,1*%
%TO.N,N/C*%
X96520000Y-66040000D03*
%TD*%
%TO.P,REF\u002A\u002A,1*%
%TO.N,N/C*%
X71120000Y-78740000D03*
%TD*%
%TO.P,REF\u002A\u002A,1*%
%TO.N,N/C*%
X86360000Y-53340000D03*
%TD*%
%TO.P,REF\u002A\u002A,1*%
%TO.N,N/C*%
X81280000Y-76200000D03*
%TD*%
%TO.P,REF\u002A\u002A,1*%
%TO.N,N/C*%
X101600000Y-101600000D03*
%TD*%
%TO.P,REF\u002A\u002A,1*%
%TO.N,N/C*%
X73660000Y-40640000D03*
%TD*%
%TO.P,REF\u002A\u002A,1*%
%TO.N,N/C*%
X63500000Y-99060000D03*
%TD*%
%TO.P,REF\u002A\u002A,1*%
%TO.N,N/C*%
X104140000Y-91440000D03*
%TD*%
%TO.P,REF\u002A\u002A,1*%
%TO.N,N/C*%
X81280000Y-53340000D03*
%TD*%
D13*
%TO.P,J21,1,Pin_1*%
%TO.N,Net-(U4-Pad14)*%
X71120000Y-115570000D03*
%TD*%
D12*
%TO.P,REF\u002A\u002A,1*%
%TO.N,N/C*%
X93980000Y-48260000D03*
%TD*%
D14*
%TO.P,C1,1*%
%TO.N,GND*%
X117642000Y-156796000D03*
D15*
%TO.P,C1,2*%
%TO.N,-12V*%
X115142000Y-156796000D03*
%TD*%
D12*
%TO.P,REF\u002A\u002A,1*%
%TO.N,N/C*%
X66040000Y-27940000D03*
%TD*%
D13*
%TO.P,J63,1,Pin_1*%
%TO.N,Net-(J40-Pad14)*%
X118110000Y-53340000D03*
%TD*%
D12*
%TO.P,REF\u002A\u002A,1*%
%TO.N,N/C*%
X60960000Y-66040000D03*
%TD*%
%TO.P,REF\u002A\u002A,1*%
%TO.N,N/C*%
X91440000Y-45720000D03*
%TD*%
D18*
%TO.P,U1,1,GND*%
%TO.N,GND*%
X111420000Y-140970000D03*
D19*
%TO.P,U1,2,VI*%
%TO.N,-12V*%
X111420000Y-143510000D03*
%TO.P,U1,3,VO*%
%TO.N,-9V*%
X111420000Y-146050000D03*
%TD*%
D12*
%TO.P,REF\u002A\u002A,1*%
%TO.N,N/C*%
X63500000Y-83820000D03*
%TD*%
%TO.P,REF\u002A\u002A,1*%
%TO.N,N/C*%
X96520000Y-55880000D03*
%TD*%
%TO.P,REF\u002A\u002A,1*%
%TO.N,N/C*%
X93980000Y-91440000D03*
%TD*%
%TO.P,REF\u002A\u002A,1*%
%TO.N,N/C*%
X101600000Y-40640000D03*
%TD*%
%TO.P,REF\u002A\u002A,1*%
%TO.N,N/C*%
X63500000Y-104140000D03*
%TD*%
%TO.P,REF\u002A\u002A,1*%
%TO.N,N/C*%
X71120000Y-30480000D03*
%TD*%
%TO.P,REF\u002A\u002A,1*%
%TO.N,N/C*%
X88900000Y-101600000D03*
%TD*%
%TO.P,REF\u002A\u002A,1*%
%TO.N,N/C*%
X106680000Y-38100000D03*
%TD*%
%TO.P,REF\u002A\u002A,1*%
%TO.N,N/C*%
X73660000Y-99060000D03*
%TD*%
D13*
%TO.P,J57,1,Pin_1*%
%TO.N,Net-(J40-Pad17)*%
X118110000Y-64770000D03*
%TD*%
D12*
%TO.P,REF\u002A\u002A,1*%
%TO.N,N/C*%
X81280000Y-83820000D03*
%TD*%
%TO.P,REF\u002A\u002A,1*%
%TO.N,N/C*%
X109220000Y-88900000D03*
%TD*%
%TO.P,REF\u002A\u002A,1*%
%TO.N,N/C*%
X93980000Y-63500000D03*
%TD*%
%TO.P,REF\u002A\u002A,1*%
%TO.N,N/C*%
X66040000Y-45720000D03*
%TD*%
%TO.P,REF\u002A\u002A,1*%
%TO.N,N/C*%
X106680000Y-101600000D03*
%TD*%
%TO.P,REF\u002A\u002A,1*%
%TO.N,N/C*%
X81280000Y-55880000D03*
%TD*%
%TO.P,REF\u002A\u002A,1*%
%TO.N,N/C*%
X96520000Y-68580000D03*
%TD*%
%TO.P,REF\u002A\u002A,1*%
%TO.N,N/C*%
X88900000Y-63500000D03*
%TD*%
%TO.P,REF\u002A\u002A,1*%
%TO.N,N/C*%
X73660000Y-86360000D03*
%TD*%
D13*
%TO.P,J66,1,Pin_1*%
%TO.N,+5V*%
X118110000Y-117475000D03*
%TD*%
D12*
%TO.P,REF\u002A\u002A,1*%
%TO.N,N/C*%
X81280000Y-38100000D03*
%TD*%
%TO.P,REF\u002A\u002A,1*%
%TO.N,N/C*%
X68580000Y-106680000D03*
%TD*%
%TO.P,REF\u002A\u002A,1*%
%TO.N,N/C*%
X93980000Y-73660000D03*
%TD*%
%TO.P,REF\u002A\u002A,1*%
%TO.N,N/C*%
X119380000Y-33020000D03*
%TD*%
%TO.P,REF\u002A\u002A,1*%
%TO.N,N/C*%
X104140000Y-104140000D03*
%TD*%
%TO.P,REF\u002A\u002A,1*%
%TO.N,N/C*%
X109220000Y-60960000D03*
%TD*%
%TO.P,REF\u002A\u002A,1*%
%TO.N,N/C*%
X99060000Y-78740000D03*
%TD*%
%TO.P,REF\u002A\u002A,1*%
%TO.N,N/C*%
X121920000Y-35560000D03*
%TD*%
%TO.P,REF\u002A\u002A,1*%
%TO.N,N/C*%
X104140000Y-101600000D03*
%TD*%
%TO.P,REF\u002A\u002A,1*%
%TO.N,N/C*%
X73660000Y-106680000D03*
%TD*%
%TO.P,REF\u002A\u002A,1*%
%TO.N,N/C*%
X83820000Y-83820000D03*
%TD*%
%TO.P,REF\u002A\u002A,1*%
%TO.N,N/C*%
X91440000Y-30480000D03*
%TD*%
%TO.P,REF\u002A\u002A,1*%
%TO.N,N/C*%
X96520000Y-81280000D03*
%TD*%
%TO.P,REF\u002A\u002A,1*%
%TO.N,N/C*%
X63500000Y-43180000D03*
%TD*%
%TO.P,REF\u002A\u002A,1*%
%TO.N,N/C*%
X109220000Y-55880000D03*
%TD*%
%TO.P,REF\u002A\u002A,1*%
%TO.N,N/C*%
X68580000Y-53340000D03*
%TD*%
%TO.P,REF\u002A\u002A,1*%
%TO.N,N/C*%
X93980000Y-76200000D03*
%TD*%
%TO.P,REF\u002A\u002A,1*%
%TO.N,N/C*%
X88900000Y-81280000D03*
%TD*%
%TO.P,REF\u002A\u002A,1*%
%TO.N,N/C*%
X93980000Y-88900000D03*
%TD*%
%TO.P,REF\u002A\u002A,1*%
%TO.N,N/C*%
X66040000Y-35560000D03*
%TD*%
%TO.P,REF\u002A\u002A,1*%
%TO.N,N/C*%
X104140000Y-33020000D03*
%TD*%
%TO.P,REF\u002A\u002A,1*%
%TO.N,N/C*%
X104140000Y-60960000D03*
%TD*%
%TO.P,REF\u002A\u002A,1*%
%TO.N,N/C*%
X109220000Y-81280000D03*
%TD*%
%TO.P,REF\u002A\u002A,1*%
%TO.N,N/C*%
X63500000Y-60960000D03*
%TD*%
%TO.P,REF\u002A\u002A,1*%
%TO.N,N/C*%
X73660000Y-48260000D03*
%TD*%
%TO.P,REF\u002A\u002A,1*%
%TO.N,N/C*%
X99060000Y-60960000D03*
%TD*%
%TO.P,REF\u002A\u002A,1*%
%TO.N,N/C*%
X104140000Y-96520000D03*
%TD*%
%TO.P,REF\u002A\u002A,1*%
%TO.N,N/C*%
X109220000Y-30480000D03*
%TD*%
%TO.P,REF\u002A\u002A,1*%
%TO.N,N/C*%
X66040000Y-96520000D03*
%TD*%
%TO.P,REF\u002A\u002A,1*%
%TO.N,N/C*%
X81280000Y-88900000D03*
%TD*%
%TO.P,REF\u002A\u002A,1*%
%TO.N,N/C*%
X106680000Y-25400000D03*
%TD*%
%TO.P,REF\u002A\u002A,1*%
%TO.N,N/C*%
X71120000Y-60960000D03*
%TD*%
D13*
%TO.P,J65,1,Pin_1*%
%TO.N,GND*%
X62865000Y-114300000D03*
%TD*%
D12*
%TO.P,REF\u002A\u002A,1*%
%TO.N,N/C*%
X99060000Y-93980000D03*
%TD*%
%TO.P,REF\u002A\u002A,1*%
%TO.N,N/C*%
X93980000Y-99060000D03*
%TD*%
%TO.P,REF\u002A\u002A,1*%
%TO.N,N/C*%
X73660000Y-63500000D03*
%TD*%
%TO.P,REF\u002A\u002A,1*%
%TO.N,N/C*%
X81280000Y-104140000D03*
%TD*%
%TO.P,REF\u002A\u002A,1*%
%TO.N,N/C*%
X99060000Y-71120000D03*
%TD*%
%TO.P,REF\u002A\u002A,1*%
%TO.N,N/C*%
X81280000Y-99060000D03*
%TD*%
%TO.P,REF\u002A\u002A,1*%
%TO.N,N/C*%
X106680000Y-43180000D03*
%TD*%
%TO.P,REF\u002A\u002A,1*%
%TO.N,N/C*%
X99060000Y-40640000D03*
%TD*%
%TO.P,REF\u002A\u002A,1*%
%TO.N,N/C*%
X101600000Y-55880000D03*
%TD*%
%TO.P,REF\u002A\u002A,1*%
%TO.N,N/C*%
X68580000Y-68580000D03*
%TD*%
%TO.P,REF\u002A\u002A,1*%
%TO.N,N/C*%
X99060000Y-58420000D03*
%TD*%
%TO.P,REF\u002A\u002A,1*%
%TO.N,N/C*%
X104140000Y-38100000D03*
%TD*%
%TO.P,REF\u002A\u002A,1*%
%TO.N,N/C*%
X86360000Y-93980000D03*
%TD*%
%TO.P,REF\u002A\u002A,1*%
%TO.N,N/C*%
X96520000Y-45720000D03*
%TD*%
%TO.P,REF\u002A\u002A,1*%
%TO.N,N/C*%
X88900000Y-73660000D03*
%TD*%
%TO.P,REF\u002A\u002A,1*%
%TO.N,N/C*%
X68580000Y-58420000D03*
%TD*%
%TO.P,REF\u002A\u002A,1*%
%TO.N,N/C*%
X93980000Y-86360000D03*
%TD*%
%TO.P,REF\u002A\u002A,1*%
%TO.N,N/C*%
X63500000Y-35560000D03*
%TD*%
%TO.P,REF\u002A\u002A,1*%
%TO.N,N/C*%
X86360000Y-30480000D03*
%TD*%
%TO.P,REF\u002A\u002A,1*%
%TO.N,N/C*%
X104140000Y-76200000D03*
%TD*%
D13*
%TO.P,J13,1,Pin_1*%
%TO.N,Net-(U3-Pad5)*%
X96012000Y-114808000D03*
%TD*%
%TO.P,C9,1*%
%TO.N,+9V*%
X108585000Y-135850000D03*
%TO.P,C9,2*%
%TO.N,GND*%
X108585000Y-130850000D03*
%TD*%
D12*
%TO.P,REF\u002A\u002A,1*%
%TO.N,N/C*%
X91440000Y-76200000D03*
%TD*%
%TO.P,REF\u002A\u002A,1*%
%TO.N,N/C*%
X106680000Y-66040000D03*
%TD*%
%TO.P,REF\u002A\u002A,1*%
%TO.N,N/C*%
X78740000Y-25400000D03*
%TD*%
%TO.P,REF\u002A\u002A,1*%
%TO.N,N/C*%
X73660000Y-71120000D03*
%TD*%
%TO.P,REF\u002A\u002A,1*%
%TO.N,N/C*%
X71120000Y-99060000D03*
%TD*%
%TO.P,REF\u002A\u002A,1*%
%TO.N,N/C*%
X86360000Y-88900000D03*
%TD*%
%TO.P,REF\u002A\u002A,1*%
%TO.N,N/C*%
X83820000Y-33020000D03*
%TD*%
%TO.P,REF\u002A\u002A,1*%
%TO.N,N/C*%
X76200000Y-99060000D03*
%TD*%
%TO.P,REF\u002A\u002A,1*%
%TO.N,N/C*%
X68580000Y-93980000D03*
%TD*%
%TO.P,REF\u002A\u002A,1*%
%TO.N,N/C*%
X63500000Y-50800000D03*
%TD*%
%TO.P,REF\u002A\u002A,1*%
%TO.N,N/C*%
X106680000Y-60960000D03*
%TD*%
%TO.P,REF\u002A\u002A,1*%
%TO.N,N/C*%
X76200000Y-43180000D03*
%TD*%
%TO.P,REF\u002A\u002A,1*%
%TO.N,N/C*%
X68580000Y-55880000D03*
%TD*%
%TO.P,REF\u002A\u002A,1*%
%TO.N,N/C*%
X91440000Y-99060000D03*
%TD*%
%TO.P,REF\u002A\u002A,1*%
%TO.N,N/C*%
X86360000Y-68580000D03*
%TD*%
%TO.P,REF\u002A\u002A,1*%
%TO.N,N/C*%
X71120000Y-91440000D03*
%TD*%
%TO.P,REF\u002A\u002A,1*%
%TO.N,N/C*%
X93980000Y-68580000D03*
%TD*%
%TO.P,REF\u002A\u002A,1*%
%TO.N,N/C*%
X76200000Y-73660000D03*
%TD*%
%TO.P,REF\u002A\u002A,1*%
%TO.N,N/C*%
X76200000Y-55880000D03*
%TD*%
%TO.P,REF\u002A\u002A,1*%
%TO.N,N/C*%
X119380000Y-35560000D03*
%TD*%
%TO.P,REF\u002A\u002A,1*%
%TO.N,N/C*%
X83820000Y-106680000D03*
%TD*%
%TO.P,REF\u002A\u002A,1*%
%TO.N,N/C*%
X96520000Y-99060000D03*
%TD*%
D13*
%TO.P,C10,1*%
%TO.N,-9V*%
X108585000Y-147280000D03*
%TO.P,C10,2*%
%TO.N,GND*%
X108585000Y-142280000D03*
%TD*%
D18*
%TO.P,U2,1,VI*%
%TO.N,+12V*%
X111420000Y-129540000D03*
D19*
%TO.P,U2,2,GND*%
%TO.N,GND*%
X111420000Y-132080000D03*
%TO.P,U2,3,VO*%
%TO.N,+9V*%
X111420000Y-134620000D03*
%TD*%
D12*
%TO.P,REF\u002A\u002A,1*%
%TO.N,N/C*%
X78740000Y-73660000D03*
%TD*%
%TO.P,REF\u002A\u002A,1*%
%TO.N,N/C*%
X129540000Y-33020000D03*
%TD*%
%TO.P,REF\u002A\u002A,1*%
%TO.N,N/C*%
X121920000Y-43180000D03*
%TD*%
D20*
%TO.P,J1,2,Pin_2*%
%TO.N,unconnected-(J1-Pad2)*%
X113176400Y-164736000D03*
%TO.P,J1,4,Pin_4*%
%TO.N,+5V*%
X110007600Y-164736000D03*
%TO.P,J1,6,Pin_6*%
%TO.N,unconnected-(J1-Pad6)*%
X106838700Y-164736000D03*
%TO.P,J1,8,Pin_8*%
%TO.N,unconnected-(J1-Pad8)*%
X103669800Y-164736000D03*
%TO.P,J1,10,Pin_10*%
%TO.N,/IO A3*%
X100500900Y-164736000D03*
%TO.P,J1,12,Pin_12*%
%TO.N,GND*%
X97332000Y-164736000D03*
%TO.P,J1,14,Pin_14*%
%TO.N,/IO A0*%
X94163100Y-164736000D03*
%TO.P,J1,16,Pin_16*%
%TO.N,/{slash}BWR*%
X90994200Y-164736000D03*
%TO.P,J1,18,Pin_18*%
%TO.N,/{slash}BIO RES*%
X87825300Y-164736000D03*
%TO.P,J1,20,Pin_20*%
%TO.N,/IO4*%
X84656400Y-164736000D03*
%TO.P,J1,22,Pin_22*%
%TO.N,/IO5*%
X81487600Y-164736000D03*
%TO.P,J1,24,Pin_24*%
%TO.N,/IO1*%
X78318700Y-164736000D03*
%TO.P,J1,26,Pin_26*%
%TO.N,-12V*%
X75149780Y-164736000D03*
%TO.P,J1,28,Pin_28*%
%TO.N,/IO7*%
X71980890Y-164736000D03*
%TO.P,J1,30,Pin_30*%
%TO.N,GND*%
X68812000Y-164736000D03*
%TD*%
D12*
%TO.P,REF\u002A\u002A,1*%
%TO.N,N/C*%
X78740000Y-104140000D03*
%TD*%
D13*
%TO.P,J33,1,Pin_1*%
%TO.N,Net-(U3-Pad12)*%
X88392000Y-113538000D03*
%TD*%
D12*
%TO.P,REF\u002A\u002A,1*%
%TO.N,N/C*%
X104140000Y-40640000D03*
%TD*%
%TO.P,REF\u002A\u002A,1*%
%TO.N,N/C*%
X68580000Y-38100000D03*
%TD*%
D13*
%TO.P,J59,1,Pin_1*%
%TO.N,Net-(J40-Pad16)*%
X118110000Y-60960000D03*
%TD*%
D12*
%TO.P,REF\u002A\u002A,1*%
%TO.N,N/C*%
X68580000Y-96520000D03*
%TD*%
%TO.P,REF\u002A\u002A,1*%
%TO.N,N/C*%
X66040000Y-48260000D03*
%TD*%
D13*
%TO.P,J15,1,Pin_1*%
%TO.N,Net-(U3-Pad18)*%
X103670002Y-110998000D03*
%TD*%
D12*
%TO.P,REF\u002A\u002A,1*%
%TO.N,N/C*%
X91440000Y-101600000D03*
%TD*%
%TO.P,REF\u002A\u002A,1*%
%TO.N,N/C*%
X66040000Y-83820000D03*
%TD*%
%TO.P,REF\u002A\u002A,1*%
%TO.N,N/C*%
X60960000Y-73660000D03*
%TD*%
%TO.P,REF\u002A\u002A,1*%
%TO.N,N/C*%
X68580000Y-45720000D03*
%TD*%
D13*
%TO.P,C11,1*%
%TO.N,+5V*%
X68620000Y-120650000D03*
%TO.P,C11,2*%
%TO.N,GND*%
X73620000Y-120650000D03*
%TD*%
D12*
%TO.P,REF\u002A\u002A,1*%
%TO.N,N/C*%
X99060000Y-50800000D03*
%TD*%
%TO.P,REF\u002A\u002A,1*%
%TO.N,N/C*%
X99060000Y-30480000D03*
%TD*%
%TO.P,REF\u002A\u002A,1*%
%TO.N,N/C*%
X127000000Y-35560000D03*
%TD*%
%TO.P,REF\u002A\u002A,1*%
%TO.N,N/C*%
X81280000Y-63500000D03*
%TD*%
%TO.P,REF\u002A\u002A,1*%
%TO.N,N/C*%
X60960000Y-40640000D03*
%TD*%
%TO.P,REF\u002A\u002A,1*%
%TO.N,N/C*%
X76200000Y-76200000D03*
%TD*%
%TO.P,REF\u002A\u002A,1*%
%TO.N,N/C*%
X96520000Y-83820000D03*
%TD*%
%TO.P,REF\u002A\u002A,1*%
%TO.N,N/C*%
X83820000Y-104140000D03*
%TD*%
%TO.P,REF\u002A\u002A,1*%
%TO.N,N/C*%
X83820000Y-99060000D03*
%TD*%
%TO.P,REF\u002A\u002A,1*%
%TO.N,N/C*%
X73660000Y-73660000D03*
%TD*%
%TO.P,REF\u002A\u002A,1*%
%TO.N,N/C*%
X66040000Y-86360000D03*
%TD*%
%TO.P,REF\u002A\u002A,1*%
%TO.N,N/C*%
X99060000Y-66040000D03*
%TD*%
D13*
%TO.P,C12,1*%
%TO.N,+5V*%
X81320000Y-120650000D03*
%TO.P,C12,2*%
%TO.N,GND*%
X86320000Y-120650000D03*
%TD*%
D12*
%TO.P,REF\u002A\u002A,1*%
%TO.N,N/C*%
X60960000Y-27940000D03*
%TD*%
%TO.P,REF\u002A\u002A,1*%
%TO.N,N/C*%
X106680000Y-93980000D03*
%TD*%
%TO.P,REF\u002A\u002A,1*%
%TO.N,N/C*%
X78740000Y-83820000D03*
%TD*%
%TO.P,REF\u002A\u002A,1*%
%TO.N,N/C*%
X88900000Y-83820000D03*
%TD*%
%TO.P,REF\u002A\u002A,1*%
%TO.N,N/C*%
X83820000Y-71120000D03*
%TD*%
%TO.P,REF\u002A\u002A,1*%
%TO.N,N/C*%
X101600000Y-88900000D03*
%TD*%
%TO.P,REF\u002A\u002A,1*%
%TO.N,N/C*%
X76200000Y-68580000D03*
%TD*%
%TO.P,REF\u002A\u002A,1*%
%TO.N,N/C*%
X88900000Y-55880000D03*
%TD*%
%TO.P,REF\u002A\u002A,1*%
%TO.N,N/C*%
X76200000Y-30480000D03*
%TD*%
%TO.P,REF\u002A\u002A,1*%
%TO.N,N/C*%
X109220000Y-101600000D03*
%TD*%
%TO.P,REF\u002A\u002A,1*%
%TO.N,N/C*%
X86360000Y-38100000D03*
%TD*%
%TO.P,REF\u002A\u002A,1*%
%TO.N,N/C*%
X68580000Y-63500000D03*
%TD*%
%TO.P,REF\u002A\u002A,1*%
%TO.N,N/C*%
X73660000Y-35560000D03*
%TD*%
%TO.P,REF\u002A\u002A,1*%
%TO.N,N/C*%
X81280000Y-68580000D03*
%TD*%
%TO.P,REF\u002A\u002A,1*%
%TO.N,N/C*%
X63500000Y-55880000D03*
%TD*%
%TO.P,REF\u002A\u002A,1*%
%TO.N,N/C*%
X76200000Y-50800000D03*
%TD*%
%TO.P,REF\u002A\u002A,1*%
%TO.N,N/C*%
X93980000Y-45720000D03*
%TD*%
%TO.P,REF\u002A\u002A,1*%
%TO.N,N/C*%
X86360000Y-78740000D03*
%TD*%
D13*
%TO.P,J50,1,Pin_1*%
%TO.N,Net-(J40-Pad8)*%
X114300000Y-77470000D03*
%TD*%
D12*
%TO.P,REF\u002A\u002A,1*%
%TO.N,N/C*%
X78740000Y-60960000D03*
%TD*%
%TO.P,REF\u002A\u002A,1*%
%TO.N,N/C*%
X106680000Y-48260000D03*
%TD*%
%TO.P,REF\u002A\u002A,1*%
%TO.N,N/C*%
X83820000Y-38100000D03*
%TD*%
%TO.P,REF\u002A\u002A,1*%
%TO.N,N/C*%
X73660000Y-27940000D03*
%TD*%
%TO.P,REF\u002A\u002A,1*%
%TO.N,N/C*%
X76200000Y-83820000D03*
%TD*%
%TO.P,REF\u002A\u002A,1*%
%TO.N,N/C*%
X66040000Y-78740000D03*
%TD*%
%TO.P,REF\u002A\u002A,1*%
%TO.N,N/C*%
X71120000Y-66040000D03*
%TD*%
%TO.P,REF\u002A\u002A,1*%
%TO.N,N/C*%
X73660000Y-66040000D03*
%TD*%
%TO.P,REF\u002A\u002A,1*%
%TO.N,N/C*%
X63500000Y-101600000D03*
%TD*%
%TO.P,REF\u002A\u002A,1*%
%TO.N,N/C*%
X81280000Y-86360000D03*
%TD*%
%TO.P,REF\u002A\u002A,1*%
%TO.N,N/C*%
X86360000Y-99060000D03*
%TD*%
%TO.P,REF\u002A\u002A,1*%
%TO.N,N/C*%
X106680000Y-68580000D03*
%TD*%
%TO.P,REF\u002A\u002A,1*%
%TO.N,N/C*%
X73660000Y-83820000D03*
%TD*%
%TO.P,REF\u002A\u002A,1*%
%TO.N,N/C*%
X66040000Y-25400000D03*
%TD*%
%TO.P,REF\u002A\u002A,1*%
%TO.N,N/C*%
X99060000Y-101600000D03*
%TD*%
%TO.P,REF\u002A\u002A,1*%
%TO.N,N/C*%
X78740000Y-66040000D03*
%TD*%
%TO.P,REF\u002A\u002A,1*%
%TO.N,N/C*%
X109220000Y-33020000D03*
%TD*%
%TO.P,REF\u002A\u002A,1*%
%TO.N,N/C*%
X93980000Y-96520000D03*
%TD*%
%TO.P,REF\u002A\u002A,1*%
%TO.N,N/C*%
X116840000Y-45720000D03*
%TD*%
%TO.P,REF\u002A\u002A,1*%
%TO.N,N/C*%
X78740000Y-55880000D03*
%TD*%
%TO.P,REF\u002A\u002A,1*%
%TO.N,N/C*%
X119380000Y-40640000D03*
%TD*%
%TO.P,REF\u002A\u002A,1*%
%TO.N,N/C*%
X96520000Y-27940000D03*
%TD*%
%TO.P,REF\u002A\u002A,1*%
%TO.N,N/C*%
X91440000Y-40640000D03*
%TD*%
%TO.P,REF\u002A\u002A,1*%
%TO.N,N/C*%
X101600000Y-30480000D03*
%TD*%
%TO.P,REF\u002A\u002A,1*%
%TO.N,N/C*%
X73660000Y-93980000D03*
%TD*%
%TO.P,REF\u002A\u002A,1*%
%TO.N,N/C*%
X83820000Y-60960000D03*
%TD*%
%TO.P,REF\u002A\u002A,1*%
%TO.N,N/C*%
X106680000Y-83820000D03*
%TD*%
%TO.P,REF\u002A\u002A,1*%
%TO.N,N/C*%
X78740000Y-71120000D03*
%TD*%
%TO.P,REF\u002A\u002A,1*%
%TO.N,N/C*%
X109220000Y-78740000D03*
%TD*%
%TO.P,REF\u002A\u002A,1*%
%TO.N,N/C*%
X121920000Y-25400000D03*
%TD*%
%TO.P,REF\u002A\u002A,1*%
%TO.N,N/C*%
X83820000Y-86360000D03*
%TD*%
%TO.P,REF\u002A\u002A,1*%
%TO.N,N/C*%
X73660000Y-25400000D03*
%TD*%
%TO.P,REF\u002A\u002A,1*%
%TO.N,N/C*%
X63500000Y-93980000D03*
%TD*%
%TO.P,REF\u002A\u002A,1*%
%TO.N,N/C*%
X81280000Y-40640000D03*
%TD*%
%TO.P,REF\u002A\u002A,1*%
%TO.N,N/C*%
X106680000Y-55880000D03*
%TD*%
%TO.P,REF\u002A\u002A,1*%
%TO.N,N/C*%
X60960000Y-91440000D03*
%TD*%
%TO.P,REF\u002A\u002A,1*%
%TO.N,N/C*%
X88900000Y-35560000D03*
%TD*%
%TO.P,REF\u002A\u002A,1*%
%TO.N,N/C*%
X88900000Y-38100000D03*
%TD*%
%TO.P,REF\u002A\u002A,1*%
%TO.N,N/C*%
X99060000Y-63500000D03*
%TD*%
D13*
%TO.P,J60,1,Pin_1*%
%TO.N,Net-(J40-Pad3)*%
X114300000Y-58420000D03*
%TD*%
D12*
%TO.P,REF\u002A\u002A,1*%
%TO.N,N/C*%
X86360000Y-71120000D03*
%TD*%
%TO.P,REF\u002A\u002A,1*%
%TO.N,N/C*%
X91440000Y-93980000D03*
%TD*%
%TO.P,REF\u002A\u002A,1*%
%TO.N,N/C*%
X93980000Y-71120000D03*
%TD*%
D13*
%TO.P,J61,1,Pin_1*%
%TO.N,Net-(J40-Pad15)*%
X118110000Y-57150000D03*
%TD*%
D12*
%TO.P,REF\u002A\u002A,1*%
%TO.N,N/C*%
X78740000Y-43180000D03*
%TD*%
%TO.P,REF\u002A\u002A,1*%
%TO.N,N/C*%
X116840000Y-30480000D03*
%TD*%
%TO.P,REF\u002A\u002A,1*%
%TO.N,N/C*%
X71120000Y-106680000D03*
%TD*%
D14*
%TO.P,C7,1*%
%TO.N,+9V*%
X104140000Y-136079113D03*
D15*
%TO.P,C7,2*%
%TO.N,GND*%
X104140000Y-133579113D03*
%TD*%
D13*
%TO.P,J23,1,Pin_1*%
%TO.N,Net-(U4-Pad12)*%
X66040000Y-113030000D03*
%TD*%
D12*
%TO.P,REF\u002A\u002A,1*%
%TO.N,N/C*%
X99060000Y-43180000D03*
%TD*%
%TO.P,REF\u002A\u002A,1*%
%TO.N,N/C*%
X96520000Y-53340000D03*
%TD*%
%TO.P,REF\u002A\u002A,1*%
%TO.N,N/C*%
X106680000Y-88900000D03*
%TD*%
D13*
%TO.P,J24,1,Pin_1*%
%TO.N,Net-(J24-Pad1)*%
X73660000Y-114300000D03*
%TD*%
D12*
%TO.P,REF\u002A\u002A,1*%
%TO.N,N/C*%
X88900000Y-50800000D03*
%TD*%
%TO.P,REF\u002A\u002A,1*%
%TO.N,N/C*%
X93980000Y-93980000D03*
%TD*%
%TO.P,REF\u002A\u002A,1*%
%TO.N,N/C*%
X88900000Y-48260000D03*
%TD*%
%TO.P,REF\u002A\u002A,1*%
%TO.N,N/C*%
X91440000Y-88900000D03*
%TD*%
%TO.P,REF\u002A\u002A,1*%
%TO.N,N/C*%
X68580000Y-25400000D03*
%TD*%
%TO.P,REF\u002A\u002A,1*%
%TO.N,N/C*%
X101600000Y-50800000D03*
%TD*%
%TO.P,REF\u002A\u002A,1*%
%TO.N,N/C*%
X83820000Y-30480000D03*
%TD*%
%TO.P,REF\u002A\u002A,1*%
%TO.N,N/C*%
X73660000Y-60960000D03*
%TD*%
%TO.P,REF\u002A\u002A,1*%
%TO.N,N/C*%
X96520000Y-93980000D03*
%TD*%
%TO.P,REF\u002A\u002A,1*%
%TO.N,N/C*%
X106680000Y-96520000D03*
%TD*%
%TO.P,REF\u002A\u002A,1*%
%TO.N,N/C*%
X114300000Y-27940000D03*
%TD*%
%TO.P,REF\u002A\u002A,1*%
%TO.N,N/C*%
X114300000Y-25400000D03*
%TD*%
%TO.P,REF\u002A\u002A,1*%
%TO.N,N/C*%
X68580000Y-91440000D03*
%TD*%
%TO.P,REF\u002A\u002A,1*%
%TO.N,N/C*%
X81280000Y-27940000D03*
%TD*%
%TO.P,REF\u002A\u002A,1*%
%TO.N,N/C*%
X109220000Y-91440000D03*
%TD*%
%TO.P,REF\u002A\u002A,1*%
%TO.N,N/C*%
X109220000Y-99060000D03*
%TD*%
%TO.P,REF\u002A\u002A,1*%
%TO.N,N/C*%
X99060000Y-38100000D03*
%TD*%
D14*
%TO.P,U5,1,A->B*%
%TO.N,+5V*%
X100320000Y-147315000D03*
D21*
%TO.P,U5,2,A0*%
%TO.N,/{slash}BWR*%
X100320000Y-144775000D03*
%TO.P,U5,3,A1*%
%TO.N,/{slash}BRD*%
X100320000Y-142235000D03*
%TO.P,U5,4,A2*%
%TO.N,/IO A0*%
X100320000Y-139695000D03*
%TO.P,U5,5,A3*%
%TO.N,/IO A1*%
X100320000Y-137155000D03*
%TO.P,U5,6,A4*%
%TO.N,/IO A3*%
X100320000Y-134615000D03*
%TO.P,U5,7,A5*%
%TO.N,/IO A2*%
X100320000Y-132075000D03*
%TO.P,U5,8,A6*%
%TO.N,Net-(U5-Pad8)*%
X100320000Y-129535000D03*
%TO.P,U5,9,A7*%
%TO.N,/{slash}ID REQ*%
X100320000Y-126995000D03*
%TO.P,U5,10,GND*%
%TO.N,GND*%
X100320000Y-124455000D03*
%TO.P,U5,11,B7*%
%TO.N,Net-(U5-Pad11)*%
X92700000Y-124455000D03*
%TO.P,U5,12,B6*%
%TO.N,/{slash}IO INT*%
X92700000Y-126995000D03*
%TO.P,U5,13,B5*%
%TO.N,Net-(U5-Pad13)*%
X92700000Y-129535000D03*
%TO.P,U5,14,B4*%
%TO.N,Net-(U5-Pad14)*%
X92700000Y-132075000D03*
%TO.P,U5,15,B3*%
%TO.N,Net-(U5-Pad15)*%
X92700000Y-134615000D03*
%TO.P,U5,16,B2*%
%TO.N,Net-(U5-Pad16)*%
X92700000Y-137155000D03*
%TO.P,U5,17,B1*%
%TO.N,Net-(U5-Pad17)*%
X92700000Y-139695000D03*
%TO.P,U5,18,B0*%
%TO.N,Net-(U5-Pad18)*%
X92700000Y-142235000D03*
%TO.P,U5,19,CE*%
%TO.N,Net-(U3-Pad19)*%
X92700000Y-144775000D03*
%TO.P,U5,20,VCC*%
%TO.N,+5V*%
X92700000Y-147315000D03*
%TD*%
D12*
%TO.P,REF\u002A\u002A,1*%
%TO.N,N/C*%
X88900000Y-71120000D03*
%TD*%
D13*
%TO.P,J48,1,Pin_1*%
%TO.N,Net-(J40-Pad9)*%
X114300000Y-81280000D03*
%TD*%
D12*
%TO.P,REF\u002A\u002A,1*%
%TO.N,N/C*%
X78740000Y-101600000D03*
%TD*%
%TO.P,REF\u002A\u002A,1*%
%TO.N,N/C*%
X76200000Y-38100000D03*
%TD*%
%TO.P,REF\u002A\u002A,1*%
%TO.N,N/C*%
X66040000Y-93980000D03*
%TD*%
%TO.P,REF\u002A\u002A,1*%
%TO.N,N/C*%
X73660000Y-55880000D03*
%TD*%
%TO.P,REF\u002A\u002A,1*%
%TO.N,N/C*%
X71120000Y-38100000D03*
%TD*%
%TO.P,REF\u002A\u002A,1*%
%TO.N,N/C*%
X63500000Y-81280000D03*
%TD*%
D13*
%TO.P,J19,1,Pin_1*%
%TO.N,Net-(U4-Pad16)*%
X66040000Y-115570000D03*
%TD*%
D12*
%TO.P,REF\u002A\u002A,1*%
%TO.N,N/C*%
X71120000Y-73660000D03*
%TD*%
%TO.P,REF\u002A\u002A,1*%
%TO.N,N/C*%
X63500000Y-27940000D03*
%TD*%
%TO.P,REF\u002A\u002A,1*%
%TO.N,N/C*%
X101600000Y-25400000D03*
%TD*%
%TO.P,REF\u002A\u002A,1*%
%TO.N,N/C*%
X76200000Y-96520000D03*
%TD*%
%TO.P,REF\u002A\u002A,1*%
%TO.N,N/C*%
X88900000Y-93980000D03*
%TD*%
%TO.P,REF\u002A\u002A,1*%
%TO.N,N/C*%
X116840000Y-40640000D03*
%TD*%
%TO.P,REF\u002A\u002A,1*%
%TO.N,N/C*%
X104140000Y-25400000D03*
%TD*%
%TO.P,REF\u002A\u002A,1*%
%TO.N,N/C*%
X68580000Y-43180000D03*
%TD*%
%TO.P,REF\u002A\u002A,1*%
%TO.N,N/C*%
X111760000Y-35560000D03*
%TD*%
%TO.P,REF\u002A\u002A,1*%
%TO.N,N/C*%
X124460000Y-38100000D03*
%TD*%
D13*
%TO.P,J20,1,Pin_1*%
%TO.N,Net-(U4-Pad15)*%
X68580000Y-114300000D03*
%TD*%
D12*
%TO.P,REF\u002A\u002A,1*%
%TO.N,N/C*%
X83820000Y-78740000D03*
%TD*%
%TO.P,REF\u002A\u002A,1*%
%TO.N,N/C*%
X88900000Y-88900000D03*
%TD*%
%TO.P,REF\u002A\u002A,1*%
%TO.N,N/C*%
X86360000Y-106680000D03*
%TD*%
%TO.P,REF\u002A\u002A,1*%
%TO.N,N/C*%
X86360000Y-81280000D03*
%TD*%
%TO.P,REF\u002A\u002A,1*%
%TO.N,N/C*%
X66040000Y-76200000D03*
%TD*%
%TO.P,REF\u002A\u002A,1*%
%TO.N,N/C*%
X116840000Y-27940000D03*
%TD*%
%TO.P,REF\u002A\u002A,1*%
%TO.N,N/C*%
X124460000Y-43180000D03*
%TD*%
D13*
%TO.P,J18,1,Pin_1*%
%TO.N,Net-(U4-Pad17)*%
X71120000Y-113030000D03*
%TD*%
D14*
%TO.P,U4,1,A->B*%
%TO.N,Net-(J27-Pad2)*%
X74930000Y-147320000D03*
D21*
%TO.P,U4,2,A0*%
%TO.N,/IO3*%
X74930000Y-144780000D03*
%TO.P,U4,3,A1*%
%TO.N,/IO2*%
X74930000Y-142240000D03*
%TO.P,U4,4,A2*%
%TO.N,/IO4*%
X74930000Y-139700000D03*
%TO.P,U4,5,A3*%
%TO.N,/IO5*%
X74930000Y-137160000D03*
%TO.P,U4,6,A4*%
%TO.N,/IO6*%
X74930000Y-134620000D03*
%TO.P,U4,7,A5*%
%TO.N,/IO1*%
X74930000Y-132080000D03*
%TO.P,U4,8,A6*%
%TO.N,/IO0*%
X74930000Y-129540000D03*
%TO.P,U4,9,A7*%
%TO.N,/IO7*%
X74930000Y-127000000D03*
%TO.P,U4,10,GND*%
%TO.N,GND*%
X74930000Y-124460000D03*
%TO.P,U4,11,B7*%
%TO.N,Net-(J24-Pad1)*%
X67310000Y-124460000D03*
%TO.P,U4,12,B6*%
%TO.N,Net-(U4-Pad12)*%
X67310000Y-127000000D03*
%TO.P,U4,13,B5*%
%TO.N,Net-(U4-Pad13)*%
X67310000Y-129540000D03*
%TO.P,U4,14,B4*%
%TO.N,Net-(U4-Pad14)*%
X67310000Y-132080000D03*
%TO.P,U4,15,B3*%
%TO.N,Net-(U4-Pad15)*%
X67310000Y-134620000D03*
%TO.P,U4,16,B2*%
%TO.N,Net-(U4-Pad16)*%
X67310000Y-137160000D03*
%TO.P,U4,17,B1*%
%TO.N,Net-(U4-Pad17)*%
X67310000Y-139700000D03*
%TO.P,U4,18,B0*%
%TO.N,Net-(U4-Pad18)*%
X67310000Y-142240000D03*
%TO.P,U4,19,CE*%
%TO.N,Net-(U3-Pad19)*%
X67310000Y-144780000D03*
%TO.P,U4,20,VCC*%
%TO.N,+5V*%
X67310000Y-147320000D03*
%TD*%
D12*
%TO.P,REF\u002A\u002A,1*%
%TO.N,N/C*%
X91440000Y-86360000D03*
%TD*%
%TO.P,REF\u002A\u002A,1*%
%TO.N,N/C*%
X99060000Y-96520000D03*
%TD*%
%TO.P,REF\u002A\u002A,1*%
%TO.N,N/C*%
X63500000Y-58420000D03*
%TD*%
%TO.P,REF\u002A\u002A,1*%
%TO.N,N/C*%
X111760000Y-38100000D03*
%TD*%
%TO.P,REF\u002A\u002A,1*%
%TO.N,N/C*%
X104140000Y-78740000D03*
%TD*%
%TO.P,REF\u002A\u002A,1*%
%TO.N,N/C*%
X71120000Y-86360000D03*
%TD*%
%TO.P,REF\u002A\u002A,1*%
%TO.N,N/C*%
X91440000Y-53340000D03*
%TD*%
%TO.P,REF\u002A\u002A,1*%
%TO.N,N/C*%
X121920000Y-33020000D03*
%TD*%
%TO.P,REF\u002A\u002A,1*%
%TO.N,N/C*%
X88900000Y-91440000D03*
%TD*%
D14*
%TO.P,C3,1*%
%TO.N,+5V*%
X71922000Y-156796000D03*
D15*
%TO.P,C3,2*%
%TO.N,GND*%
X69422000Y-156796000D03*
%TD*%
D12*
%TO.P,REF\u002A\u002A,1*%
%TO.N,N/C*%
X60960000Y-35560000D03*
%TD*%
%TO.P,REF\u002A\u002A,1*%
%TO.N,N/C*%
X60960000Y-99060000D03*
%TD*%
%TO.P,REF\u002A\u002A,1*%
%TO.N,N/C*%
X93980000Y-53340000D03*
%TD*%
%TO.P,REF\u002A\u002A,1*%
%TO.N,N/C*%
X106680000Y-106680000D03*
%TD*%
%TO.P,REF\u002A\u002A,1*%
%TO.N,N/C*%
X60960000Y-93980000D03*
%TD*%
%TO.P,REF\u002A\u002A,1*%
%TO.N,N/C*%
X81280000Y-30480000D03*
%TD*%
%TO.P,REF\u002A\u002A,1*%
%TO.N,N/C*%
X111760000Y-43180000D03*
%TD*%
%TO.P,REF\u002A\u002A,1*%
%TO.N,N/C*%
X78740000Y-40640000D03*
%TD*%
%TO.P,REF\u002A\u002A,1*%
%TO.N,N/C*%
X101600000Y-76200000D03*
%TD*%
%TO.P,REF\u002A\u002A,1*%
%TO.N,N/C*%
X83820000Y-53340000D03*
%TD*%
%TO.P,REF\u002A\u002A,1*%
%TO.N,N/C*%
X78740000Y-91440000D03*
%TD*%
D13*
%TO.P,J64,1,Pin_1*%
%TO.N,Net-(J40-Pad1)*%
X114300000Y-50800000D03*
%TD*%
D12*
%TO.P,REF\u002A\u002A,1*%
%TO.N,N/C*%
X101600000Y-63500000D03*
%TD*%
%TO.P,REF\u002A\u002A,1*%
%TO.N,N/C*%
X93980000Y-106680000D03*
%TD*%
D13*
%TO.P,J42,1,Pin_1*%
%TO.N,Net-(J40-Pad12)*%
X114300000Y-92710000D03*
%TD*%
%TO.P,J5,1,Pin_1*%
%TO.N,-12V*%
X125730000Y-107950000D03*
%TD*%
D12*
%TO.P,REF\u002A\u002A,1*%
%TO.N,N/C*%
X88900000Y-66040000D03*
%TD*%
%TO.P,REF\u002A\u002A,1*%
%TO.N,N/C*%
X68580000Y-86360000D03*
%TD*%
%TO.P,REF\u002A\u002A,1*%
%TO.N,N/C*%
X124460000Y-33020000D03*
%TD*%
%TO.P,REF\u002A\u002A,1*%
%TO.N,N/C*%
X86360000Y-91440000D03*
%TD*%
%TO.P,REF\u002A\u002A,1*%
%TO.N,N/C*%
X109220000Y-83820000D03*
%TD*%
%TO.P,REF\u002A\u002A,1*%
%TO.N,N/C*%
X104140000Y-58420000D03*
%TD*%
%TO.P,REF\u002A\u002A,1*%
%TO.N,N/C*%
X60960000Y-78740000D03*
%TD*%
%TO.P,REF\u002A\u002A,1*%
%TO.N,N/C*%
X78740000Y-63500000D03*
%TD*%
%TO.P,REF\u002A\u002A,1*%
%TO.N,N/C*%
X66040000Y-43180000D03*
%TD*%
%TO.P,REF\u002A\u002A,1*%
%TO.N,N/C*%
X88900000Y-25400000D03*
%TD*%
D13*
%TO.P,J62,1,Pin_1*%
%TO.N,Net-(J40-Pad2)*%
X114300000Y-54610000D03*
%TD*%
D12*
%TO.P,REF\u002A\u002A,1*%
%TO.N,N/C*%
X78740000Y-96520000D03*
%TD*%
%TO.P,REF\u002A\u002A,1*%
%TO.N,N/C*%
X91440000Y-104140000D03*
%TD*%
%TO.P,REF\u002A\u002A,1*%
%TO.N,N/C*%
X91440000Y-68580000D03*
%TD*%
%TO.P,REF\u002A\u002A,1*%
%TO.N,N/C*%
X86360000Y-25400000D03*
%TD*%
%TO.P,REF\u002A\u002A,1*%
%TO.N,N/C*%
X68580000Y-50800000D03*
%TD*%
%TO.P,REF\u002A\u002A,1*%
%TO.N,N/C*%
X96520000Y-43180000D03*
%TD*%
D13*
%TO.P,J51,1,Pin_1*%
%TO.N,Net-(J40-Pad20)*%
X118110000Y-76200000D03*
%TD*%
D12*
%TO.P,REF\u002A\u002A,1*%
%TO.N,N/C*%
X81280000Y-66040000D03*
%TD*%
%TO.P,REF\u002A\u002A,1*%
%TO.N,N/C*%
X83820000Y-45720000D03*
%TD*%
%TO.P,REF\u002A\u002A,1*%
%TO.N,N/C*%
X86360000Y-104140000D03*
%TD*%
%TO.P,REF\u002A\u002A,1*%
%TO.N,N/C*%
X63500000Y-30480000D03*
%TD*%
%TO.P,REF\u002A\u002A,1*%
%TO.N,N/C*%
X106680000Y-35560000D03*
%TD*%
%TO.P,REF\u002A\u002A,1*%
%TO.N,N/C*%
X101600000Y-99060000D03*
%TD*%
%TO.P,REF\u002A\u002A,1*%
%TO.N,N/C*%
X68580000Y-104140000D03*
%TD*%
%TO.P,REF\u002A\u002A,1*%
%TO.N,N/C*%
X76200000Y-45720000D03*
%TD*%
D13*
%TO.P,J46,1,Pin_1*%
%TO.N,Net-(J40-Pad10)*%
X114300000Y-85090000D03*
%TD*%
D12*
%TO.P,REF\u002A\u002A,1*%
%TO.N,N/C*%
X60960000Y-63500000D03*
%TD*%
%TO.P,REF\u002A\u002A,1*%
%TO.N,N/C*%
X96520000Y-73660000D03*
%TD*%
%TO.P,REF\u002A\u002A,1*%
%TO.N,N/C*%
X109220000Y-50800000D03*
%TD*%
%TO.P,REF\u002A\u002A,1*%
%TO.N,N/C*%
X76200000Y-86360000D03*
%TD*%
%TO.P,REF\u002A\u002A,1*%
%TO.N,N/C*%
X60960000Y-43180000D03*
%TD*%
%TO.P,REF\u002A\u002A,1*%
%TO.N,N/C*%
X114300000Y-43180000D03*
%TD*%
%TO.P,REF\u002A\u002A,1*%
%TO.N,N/C*%
X129540000Y-38100000D03*
%TD*%
%TO.P,REF\u002A\u002A,1*%
%TO.N,N/C*%
X86360000Y-83820000D03*
%TD*%
%TO.P,REF\u002A\u002A,1*%
%TO.N,N/C*%
X63500000Y-48260000D03*
%TD*%
%TO.P,REF\u002A\u002A,1*%
%TO.N,N/C*%
X81280000Y-48260000D03*
%TD*%
%TO.P,REF\u002A\u002A,1*%
%TO.N,N/C*%
X114300000Y-33020000D03*
%TD*%
%TO.P,REF\u002A\u002A,1*%
%TO.N,N/C*%
X86360000Y-48260000D03*
%TD*%
%TO.P,REF\u002A\u002A,1*%
%TO.N,N/C*%
X88900000Y-33020000D03*
%TD*%
%TO.P,REF\u002A\u002A,1*%
%TO.N,N/C*%
X60960000Y-48260000D03*
%TD*%
%TO.P,REF\u002A\u002A,1*%
%TO.N,N/C*%
X86360000Y-33020000D03*
%TD*%
%TO.P,REF\u002A\u002A,1*%
%TO.N,N/C*%
X60960000Y-53340000D03*
%TD*%
%TO.P,REF\u002A\u002A,1*%
%TO.N,N/C*%
X99060000Y-99060000D03*
%TD*%
%TO.P,REF\u002A\u002A,1*%
%TO.N,N/C*%
X109220000Y-53340000D03*
%TD*%
%TO.P,REF\u002A\u002A,1*%
%TO.N,N/C*%
X109220000Y-106680000D03*
%TD*%
%TO.P,REF\u002A\u002A,1*%
%TO.N,N/C*%
X71120000Y-96520000D03*
%TD*%
%TO.P,REF\u002A\u002A,1*%
%TO.N,N/C*%
X106680000Y-73660000D03*
%TD*%
%TO.P,REF\u002A\u002A,1*%
%TO.N,N/C*%
X83820000Y-73660000D03*
%TD*%
%TO.P,REF\u002A\u002A,1*%
%TO.N,N/C*%
X96520000Y-71120000D03*
%TD*%
%TO.P,REF\u002A\u002A,1*%
%TO.N,N/C*%
X76200000Y-81280000D03*
%TD*%
%TO.P,REF\u002A\u002A,1*%
%TO.N,N/C*%
X109220000Y-104140000D03*
%TD*%
%TO.P,REF\u002A\u002A,1*%
%TO.N,N/C*%
X71120000Y-53340000D03*
%TD*%
%TO.P,REF\u002A\u002A,1*%
%TO.N,N/C*%
X73660000Y-101600000D03*
%TD*%
D13*
%TO.P,J34,1,Pin_1*%
%TO.N,Net-(U3-Pad11)*%
X90932000Y-112014000D03*
%TD*%
D12*
%TO.P,REF\u002A\u002A,1*%
%TO.N,N/C*%
X60960000Y-68580000D03*
%TD*%
%TO.P,REF\u002A\u002A,1*%
%TO.N,N/C*%
X81280000Y-96520000D03*
%TD*%
%TO.P,REF\u002A\u002A,1*%
%TO.N,N/C*%
X83820000Y-68580000D03*
%TD*%
%TO.P,REF\u002A\u002A,1*%
%TO.N,N/C*%
X109220000Y-35560000D03*
%TD*%
%TO.P,REF\u002A\u002A,1*%
%TO.N,N/C*%
X76200000Y-40640000D03*
%TD*%
%TO.P,REF\u002A\u002A,1*%
%TO.N,N/C*%
X109220000Y-48260000D03*
%TD*%
D13*
%TO.P,J16,1,Pin_1*%
%TO.N,Net-(U3-Pad16)*%
X98590002Y-110998000D03*
%TD*%
D12*
%TO.P,REF\u002A\u002A,1*%
%TO.N,N/C*%
X119380000Y-43180000D03*
%TD*%
%TO.P,REF\u002A\u002A,1*%
%TO.N,N/C*%
X91440000Y-35560000D03*
%TD*%
%TO.P,REF\u002A\u002A,1*%
%TO.N,N/C*%
X73660000Y-78740000D03*
%TD*%
D13*
%TO.P,J54,1,Pin_1*%
%TO.N,Net-(J40-Pad6)*%
X114300000Y-69850000D03*
%TD*%
D12*
%TO.P,REF\u002A\u002A,1*%
%TO.N,N/C*%
X73660000Y-76200000D03*
%TD*%
%TO.P,REF\u002A\u002A,1*%
%TO.N,N/C*%
X83820000Y-93980000D03*
%TD*%
%TO.P,REF\u002A\u002A,1*%
%TO.N,N/C*%
X111760000Y-27940000D03*
%TD*%
%TO.P,REF\u002A\u002A,1*%
%TO.N,N/C*%
X60960000Y-55880000D03*
%TD*%
%TO.P,REF\u002A\u002A,1*%
%TO.N,N/C*%
X96520000Y-91440000D03*
%TD*%
D13*
%TO.P,J49,1,Pin_1*%
%TO.N,Net-(J40-Pad21)*%
X118110000Y-80010000D03*
%TD*%
D12*
%TO.P,REF\u002A\u002A,1*%
%TO.N,N/C*%
X106680000Y-104140000D03*
%TD*%
%TO.P,REF\u002A\u002A,1*%
%TO.N,N/C*%
X88900000Y-86360000D03*
%TD*%
%TO.P,REF\u002A\u002A,1*%
%TO.N,N/C*%
X96520000Y-104140000D03*
%TD*%
%TO.P,REF\u002A\u002A,1*%
%TO.N,N/C*%
X73660000Y-50800000D03*
%TD*%
%TO.P,REF\u002A\u002A,1*%
%TO.N,N/C*%
X91440000Y-55880000D03*
%TD*%
%TO.P,REF\u002A\u002A,1*%
%TO.N,N/C*%
X66040000Y-71120000D03*
%TD*%
%TO.P,REF\u002A\u002A,1*%
%TO.N,N/C*%
X86360000Y-96520000D03*
%TD*%
%TO.P,REF\u002A\u002A,1*%
%TO.N,N/C*%
X104140000Y-99060000D03*
%TD*%
%TO.P,REF\u002A\u002A,1*%
%TO.N,N/C*%
X81280000Y-91440000D03*
%TD*%
%TO.P,REF\u002A\u002A,1*%
%TO.N,N/C*%
X109220000Y-40640000D03*
%TD*%
%TO.P,REF\u002A\u002A,1*%
%TO.N,N/C*%
X63500000Y-91440000D03*
%TD*%
%TO.P,REF\u002A\u002A,1*%
%TO.N,N/C*%
X73660000Y-68580000D03*
%TD*%
%TO.P,REF\u002A\u002A,1*%
%TO.N,N/C*%
X68580000Y-27940000D03*
%TD*%
%TO.P,REF\u002A\u002A,1*%
%TO.N,N/C*%
X96520000Y-40640000D03*
%TD*%
%TO.P,REF\u002A\u002A,1*%
%TO.N,N/C*%
X60960000Y-101600000D03*
%TD*%
%TO.P,REF\u002A\u002A,1*%
%TO.N,N/C*%
X93980000Y-58420000D03*
%TD*%
%TO.P,REF\u002A\u002A,1*%
%TO.N,N/C*%
X66040000Y-53340000D03*
%TD*%
%TO.P,REF\u002A\u002A,1*%
%TO.N,N/C*%
X63500000Y-73660000D03*
%TD*%
D13*
%TO.P,J10,1,Pin_1*%
%TO.N,Net-(U5-Pad16)*%
X106172000Y-112268000D03*
%TD*%
D12*
%TO.P,REF\u002A\u002A,1*%
%TO.N,N/C*%
X99060000Y-68580000D03*
%TD*%
%TO.P,REF\u002A\u002A,1*%
%TO.N,N/C*%
X78740000Y-93980000D03*
%TD*%
%TO.P,REF\u002A\u002A,1*%
%TO.N,N/C*%
X60960000Y-104140000D03*
%TD*%
%TO.P,REF\u002A\u002A,1*%
%TO.N,N/C*%
X66040000Y-66040000D03*
%TD*%
%TO.P,REF\u002A\u002A,1*%
%TO.N,N/C*%
X86360000Y-73660000D03*
%TD*%
%TO.P,REF\u002A\u002A,1*%
%TO.N,N/C*%
X106680000Y-99060000D03*
%TD*%
D13*
%TO.P,J38,1,Pin_1*%
%TO.N,Net-(U5-Pad11)*%
X111252000Y-114808000D03*
%TD*%
D12*
%TO.P,REF\u002A\u002A,1*%
%TO.N,N/C*%
X99060000Y-35560000D03*
%TD*%
%TO.P,REF\u002A\u002A,1*%
%TO.N,N/C*%
X101600000Y-53340000D03*
%TD*%
%TO.P,REF\u002A\u002A,1*%
%TO.N,N/C*%
X99060000Y-104140000D03*
%TD*%
%TO.P,REF\u002A\u002A,1*%
%TO.N,N/C*%
X88900000Y-45720000D03*
%TD*%
%TO.P,REF\u002A\u002A,1*%
%TO.N,N/C*%
X71120000Y-88900000D03*
%TD*%
%TO.P,REF\u002A\u002A,1*%
%TO.N,N/C*%
X101600000Y-81280000D03*
%TD*%
%TO.P,REF\u002A\u002A,1*%
%TO.N,N/C*%
X93980000Y-104140000D03*
%TD*%
%TO.P,REF\u002A\u002A,1*%
%TO.N,N/C*%
X104140000Y-48260000D03*
%TD*%
%TO.P,REF\u002A\u002A,1*%
%TO.N,N/C*%
X60960000Y-38100000D03*
%TD*%
%TO.P,REF\u002A\u002A,1*%
%TO.N,N/C*%
X88900000Y-27940000D03*
%TD*%
D13*
%TO.P,J53,1,Pin_1*%
%TO.N,Net-(J40-Pad19)*%
X118110000Y-72390000D03*
%TD*%
D12*
%TO.P,REF\u002A\u002A,1*%
%TO.N,N/C*%
X78740000Y-53340000D03*
%TD*%
%TO.P,REF\u002A\u002A,1*%
%TO.N,N/C*%
X101600000Y-43180000D03*
%TD*%
%TO.P,REF\u002A\u002A,1*%
%TO.N,N/C*%
X63500000Y-86360000D03*
%TD*%
%TO.P,REF\u002A\u002A,1*%
%TO.N,N/C*%
X99060000Y-86360000D03*
%TD*%
%TO.P,REF\u002A\u002A,1*%
%TO.N,N/C*%
X60960000Y-86360000D03*
%TD*%
%TO.P,REF\u002A\u002A,1*%
%TO.N,N/C*%
X99060000Y-88900000D03*
%TD*%
%TO.P,REF\u002A\u002A,1*%
%TO.N,N/C*%
X81280000Y-106680000D03*
%TD*%
%TO.P,REF\u002A\u002A,1*%
%TO.N,N/C*%
X91440000Y-81280000D03*
%TD*%
D22*
%TO.P,J40,1,1*%
%TO.N,Net-(J40-Pad1)*%
X122918000Y-56446000D03*
%TO.P,J40,2,2*%
%TO.N,Net-(J40-Pad2)*%
X122918000Y-59216000D03*
%TO.P,J40,3,3*%
%TO.N,Net-(J40-Pad3)*%
X122918000Y-61986000D03*
%TO.P,J40,4,4*%
%TO.N,Net-(J40-Pad4)*%
X122918000Y-64756000D03*
%TO.P,J40,5,5*%
%TO.N,Net-(J40-Pad5)*%
X122918000Y-67526000D03*
%TO.P,J40,6,6*%
%TO.N,Net-(J40-Pad6)*%
X122918000Y-70296000D03*
%TO.P,J40,7,7*%
%TO.N,Net-(J40-Pad7)*%
X122918000Y-73066000D03*
%TO.P,J40,8,8*%
%TO.N,Net-(J40-Pad8)*%
X122918000Y-75836000D03*
%TO.P,J40,9,9*%
%TO.N,Net-(J40-Pad9)*%
X122918000Y-78606000D03*
%TO.P,J40,10,10*%
%TO.N,Net-(J40-Pad10)*%
X122918000Y-81376000D03*
%TO.P,J40,11,11*%
%TO.N,Net-(J40-Pad11)*%
X122918000Y-84146000D03*
%TO.P,J40,12,12*%
%TO.N,Net-(J40-Pad12)*%
X122918000Y-86916000D03*
%TO.P,J40,13,13*%
%TO.N,Net-(J40-Pad13)*%
X122918000Y-89686000D03*
%TO.P,J40,14,P14*%
%TO.N,Net-(J40-Pad14)*%
X125458000Y-57831000D03*
%TO.P,J40,15,P15*%
%TO.N,Net-(J40-Pad15)*%
X125458000Y-60601000D03*
%TO.P,J40,16,P16*%
%TO.N,Net-(J40-Pad16)*%
X125458000Y-63371000D03*
%TO.P,J40,17,P17*%
%TO.N,Net-(J40-Pad17)*%
X125458000Y-66141000D03*
%TO.P,J40,18,P18*%
%TO.N,Net-(J40-Pad18)*%
X125458000Y-68911000D03*
%TO.P,J40,19,P19*%
%TO.N,Net-(J40-Pad19)*%
X125458000Y-71681000D03*
%TO.P,J40,20,P20*%
%TO.N,Net-(J40-Pad20)*%
X125458000Y-74451000D03*
%TO.P,J40,21,P21*%
%TO.N,Net-(J40-Pad21)*%
X125458000Y-77221000D03*
%TO.P,J40,22,P22*%
%TO.N,Net-(J40-Pad22)*%
X125458000Y-79991000D03*
%TO.P,J40,23,P23*%
%TO.N,Net-(J40-Pad23)*%
X125458000Y-82761000D03*
%TO.P,J40,24,P24*%
%TO.N,Net-(J40-Pad24)*%
X125458000Y-85531000D03*
%TO.P,J40,25,P25*%
%TO.N,Net-(J40-Pad25)*%
X125458000Y-88301000D03*
D23*
%TO.P,J40,MH1*%
%TO.N,N/C*%
X124188000Y-49546000D03*
%TO.P,J40,MH2*%
X124188000Y-96586000D03*
%TD*%
D12*
%TO.P,REF\u002A\u002A,1*%
%TO.N,N/C*%
X78740000Y-27940000D03*
%TD*%
%TO.P,REF\u002A\u002A,1*%
%TO.N,N/C*%
X99060000Y-91440000D03*
%TD*%
D13*
%TO.P,J43,1,Pin_1*%
%TO.N,Net-(J40-Pad24)*%
X118110000Y-91440000D03*
%TD*%
D12*
%TO.P,REF\u002A\u002A,1*%
%TO.N,N/C*%
X81280000Y-43180000D03*
%TD*%
%TO.P,REF\u002A\u002A,1*%
%TO.N,N/C*%
X99060000Y-76200000D03*
%TD*%
%TO.P,REF\u002A\u002A,1*%
%TO.N,N/C*%
X81280000Y-25400000D03*
%TD*%
%TO.P,REF\u002A\u002A,1*%
%TO.N,N/C*%
X76200000Y-71120000D03*
%TD*%
%TO.P,REF\u002A\u002A,1*%
%TO.N,N/C*%
X83820000Y-76200000D03*
%TD*%
%TO.P,REF\u002A\u002A,1*%
%TO.N,N/C*%
X83820000Y-88900000D03*
%TD*%
%TO.P,REF\u002A\u002A,1*%
%TO.N,N/C*%
X101600000Y-93980000D03*
%TD*%
%TO.P,REF\u002A\u002A,1*%
%TO.N,N/C*%
X76200000Y-33020000D03*
%TD*%
%TO.P,REF\u002A\u002A,1*%
%TO.N,N/C*%
X63500000Y-66040000D03*
%TD*%
D13*
%TO.P,J36,1,Pin_1*%
%TO.N,Net-(U5-Pad14)*%
X108712000Y-113538000D03*
%TD*%
D12*
%TO.P,REF\u002A\u002A,1*%
%TO.N,N/C*%
X71120000Y-83820000D03*
%TD*%
%TO.P,REF\u002A\u002A,1*%
%TO.N,N/C*%
X99060000Y-55880000D03*
%TD*%
%TO.P,REF\u002A\u002A,1*%
%TO.N,N/C*%
X71120000Y-48260000D03*
%TD*%
%TO.P,REF\u002A\u002A,1*%
%TO.N,N/C*%
X81280000Y-60960000D03*
%TD*%
%TO.P,REF\u002A\u002A,1*%
%TO.N,N/C*%
X76200000Y-88900000D03*
%TD*%
%TO.P,REF\u002A\u002A,1*%
%TO.N,N/C*%
X101600000Y-73660000D03*
%TD*%
D13*
%TO.P,J17,1,Pin_1*%
%TO.N,Net-(U4-Pad18)*%
X73660000Y-111760000D03*
%TD*%
D12*
%TO.P,REF\u002A\u002A,1*%
%TO.N,N/C*%
X96520000Y-63500000D03*
%TD*%
%TO.P,REF\u002A\u002A,1*%
%TO.N,N/C*%
X96520000Y-33020000D03*
%TD*%
%TO.P,REF\u002A\u002A,1*%
%TO.N,N/C*%
X83820000Y-101600000D03*
%TD*%
%TO.P,REF\u002A\u002A,1*%
%TO.N,N/C*%
X119380000Y-25400000D03*
%TD*%
%TO.P,REF\u002A\u002A,1*%
%TO.N,N/C*%
X93980000Y-35560000D03*
%TD*%
%TO.P,REF\u002A\u002A,1*%
%TO.N,N/C*%
X81280000Y-35560000D03*
%TD*%
%TO.P,REF\u002A\u002A,1*%
%TO.N,N/C*%
X93980000Y-38100000D03*
%TD*%
%TO.P,REF\u002A\u002A,1*%
%TO.N,N/C*%
X78740000Y-88900000D03*
%TD*%
%TO.P,REF\u002A\u002A,1*%
%TO.N,N/C*%
X68580000Y-33020000D03*
%TD*%
%TO.P,REF\u002A\u002A,1*%
%TO.N,N/C*%
X66040000Y-81280000D03*
%TD*%
%TO.P,REF\u002A\u002A,1*%
%TO.N,N/C*%
X83820000Y-66040000D03*
%TD*%
D13*
%TO.P,J22,1,Pin_1*%
%TO.N,Net-(U4-Pad13)*%
X68580000Y-111760000D03*
%TD*%
D12*
%TO.P,REF\u002A\u002A,1*%
%TO.N,N/C*%
X88900000Y-58420000D03*
%TD*%
%TO.P,REF\u002A\u002A,1*%
%TO.N,N/C*%
X60960000Y-58420000D03*
%TD*%
%TO.P,REF\u002A\u002A,1*%
%TO.N,N/C*%
X71120000Y-101600000D03*
%TD*%
%TO.P,REF\u002A\u002A,1*%
%TO.N,N/C*%
X71120000Y-104140000D03*
%TD*%
%TO.P,REF\u002A\u002A,1*%
%TO.N,N/C*%
X114300000Y-40640000D03*
%TD*%
%TO.P,REF\u002A\u002A,1*%
%TO.N,N/C*%
X106680000Y-71120000D03*
%TD*%
%TO.P,REF\u002A\u002A,1*%
%TO.N,N/C*%
X60960000Y-81280000D03*
%TD*%
%TO.P,REF\u002A\u002A,1*%
%TO.N,N/C*%
X96520000Y-38100000D03*
%TD*%
D16*
%TO.P,J14,1,Pin_1*%
%TO.N,GND*%
X85090000Y-110505000D03*
D17*
%TO.P,J14,2,Pin_2*%
%TO.N,Net-(U3-Pad19)*%
X85090000Y-113045000D03*
%TO.P,J14,3,Pin_3*%
%TO.N,+5V*%
X85090000Y-115585000D03*
%TD*%
D12*
%TO.P,REF\u002A\u002A,1*%
%TO.N,N/C*%
X106680000Y-53340000D03*
%TD*%
%TO.P,REF\u002A\u002A,1*%
%TO.N,N/C*%
X71120000Y-40640000D03*
%TD*%
%TO.P,REF\u002A\u002A,1*%
%TO.N,N/C*%
X73660000Y-91440000D03*
%TD*%
%TO.P,REF\u002A\u002A,1*%
%TO.N,N/C*%
X91440000Y-58420000D03*
%TD*%
D13*
%TO.P,J11,1,Pin_1*%
%TO.N,Net-(U3-Pad4)*%
X98552000Y-113538000D03*
%TD*%
D12*
%TO.P,REF\u002A\u002A,1*%
%TO.N,N/C*%
X71120000Y-71120000D03*
%TD*%
%TO.P,REF\u002A\u002A,1*%
%TO.N,N/C*%
X129540000Y-40640000D03*
%TD*%
%TO.P,REF\u002A\u002A,1*%
%TO.N,N/C*%
X104140000Y-81280000D03*
%TD*%
%TO.P,REF\u002A\u002A,1*%
%TO.N,N/C*%
X81280000Y-45720000D03*
%TD*%
D13*
%TO.P,J8,1,Pin_1*%
%TO.N,Net-(U5-Pad18)*%
X113576002Y-111252000D03*
%TD*%
D12*
%TO.P,REF\u002A\u002A,1*%
%TO.N,N/C*%
X116840000Y-38100000D03*
%TD*%
%TO.P,REF\u002A\u002A,1*%
%TO.N,N/C*%
X101600000Y-83820000D03*
%TD*%
%TO.P,REF\u002A\u002A,1*%
%TO.N,N/C*%
X99060000Y-81280000D03*
%TD*%
%TO.P,REF\u002A\u002A,1*%
%TO.N,N/C*%
X60960000Y-106680000D03*
%TD*%
%TO.P,REF\u002A\u002A,1*%
%TO.N,N/C*%
X127000000Y-30480000D03*
%TD*%
%TO.P,REF\u002A\u002A,1*%
%TO.N,N/C*%
X101600000Y-33020000D03*
%TD*%
%TO.P,REF\u002A\u002A,1*%
%TO.N,N/C*%
X81280000Y-93980000D03*
%TD*%
%TO.P,REF\u002A\u002A,1*%
%TO.N,N/C*%
X121920000Y-40640000D03*
%TD*%
%TO.P,REF\u002A\u002A,1*%
%TO.N,N/C*%
X83820000Y-96520000D03*
%TD*%
%TO.P,REF\u002A\u002A,1*%
%TO.N,N/C*%
X96520000Y-106680000D03*
%TD*%
%TO.P,REF\u002A\u002A,1*%
%TO.N,N/C*%
X96520000Y-58420000D03*
%TD*%
%TO.P,REF\u002A\u002A,1*%
%TO.N,N/C*%
X68580000Y-60960000D03*
%TD*%
%TO.P,REF\u002A\u002A,1*%
%TO.N,N/C*%
X99060000Y-106680000D03*
%TD*%
D13*
%TO.P,J7,1,Pin_1*%
%TO.N,Net-(U3-Pad3)*%
X101092000Y-114808000D03*
%TD*%
D12*
%TO.P,REF\u002A\u002A,1*%
%TO.N,N/C*%
X66040000Y-91440000D03*
%TD*%
%TO.P,REF\u002A\u002A,1*%
%TO.N,N/C*%
X73660000Y-104140000D03*
%TD*%
D13*
%TO.P,J32,1,Pin_1*%
%TO.N,Net-(U3-Pad13)*%
X90932000Y-114808000D03*
%TD*%
D12*
%TO.P,REF\u002A\u002A,1*%
%TO.N,N/C*%
X91440000Y-106680000D03*
%TD*%
%TO.P,REF\u002A\u002A,1*%
%TO.N,N/C*%
X68580000Y-78740000D03*
%TD*%
%TO.P,REF\u002A\u002A,1*%
%TO.N,N/C*%
X73660000Y-43180000D03*
%TD*%
%TO.P,REF\u002A\u002A,1*%
%TO.N,N/C*%
X96520000Y-50800000D03*
%TD*%
D14*
%TO.P,U3,1,A->B*%
%TO.N,+5V*%
X87630000Y-147320000D03*
D21*
%TO.P,U3,2,A0*%
%TO.N,Net-(U3-Pad2)*%
X87630000Y-144780000D03*
%TO.P,U3,3,A1*%
%TO.N,Net-(U3-Pad3)*%
X87630000Y-142240000D03*
%TO.P,U3,4,A2*%
%TO.N,Net-(U3-Pad4)*%
X87630000Y-139700000D03*
%TO.P,U3,5,A3*%
%TO.N,Net-(U3-Pad5)*%
X87630000Y-137160000D03*
%TO.P,U3,6,A4*%
%TO.N,Net-(U3-Pad6)*%
X87630000Y-134620000D03*
%TO.P,U3,7,A5*%
%TO.N,/{slash}SELECT*%
X87630000Y-132080000D03*
%TO.P,U3,8,A6*%
%TO.N,/{slash}BIO RES*%
X87630000Y-129540000D03*
%TO.P,U3,9,A7*%
%TO.N,/IO 8MHz*%
X87630000Y-127000000D03*
%TO.P,U3,10,GND*%
%TO.N,GND*%
X87630000Y-124460000D03*
%TO.P,U3,11,B7*%
%TO.N,Net-(U3-Pad11)*%
X80010000Y-124460000D03*
%TO.P,U3,12,B6*%
%TO.N,Net-(U3-Pad12)*%
X80010000Y-127000000D03*
%TO.P,U3,13,B5*%
%TO.N,Net-(U3-Pad13)*%
X80010000Y-129540000D03*
%TO.P,U3,14,B4*%
%TO.N,Net-(U3-Pad14)*%
X80010000Y-132080000D03*
%TO.P,U3,15,B3*%
%TO.N,Net-(U3-Pad15)*%
X80010000Y-134620000D03*
%TO.P,U3,16,B2*%
%TO.N,Net-(U3-Pad16)*%
X80010000Y-137160000D03*
%TO.P,U3,17,B1*%
%TO.N,Net-(U3-Pad17)*%
X80010000Y-139700000D03*
%TO.P,U3,18,B0*%
%TO.N,Net-(U3-Pad18)*%
X80010000Y-142240000D03*
%TO.P,U3,19,CE*%
%TO.N,Net-(U3-Pad19)*%
X80010000Y-144780000D03*
%TO.P,U3,20,VCC*%
%TO.N,+5V*%
X80010000Y-147320000D03*
%TD*%
D12*
%TO.P,REF\u002A\u002A,1*%
%TO.N,N/C*%
X73660000Y-88900000D03*
%TD*%
%TO.P,REF\u002A\u002A,1*%
%TO.N,N/C*%
X104140000Y-86360000D03*
%TD*%
%TO.P,REF\u002A\u002A,1*%
%TO.N,N/C*%
X104140000Y-53340000D03*
%TD*%
%TO.P,REF\u002A\u002A,1*%
%TO.N,N/C*%
X101600000Y-58420000D03*
%TD*%
%TO.P,REF\u002A\u002A,1*%
%TO.N,N/C*%
X76200000Y-60960000D03*
%TD*%
%TO.P,REF\u002A\u002A,1*%
%TO.N,N/C*%
X66040000Y-58420000D03*
%TD*%
%TO.P,REF\u002A\u002A,1*%
%TO.N,N/C*%
X109220000Y-76200000D03*
%TD*%
%TO.P,REF\u002A\u002A,1*%
%TO.N,N/C*%
X91440000Y-96520000D03*
%TD*%
%TO.P,REF\u002A\u002A,1*%
%TO.N,N/C*%
X78740000Y-45720000D03*
%TD*%
%TO.P,REF\u002A\u002A,1*%
%TO.N,N/C*%
X68580000Y-81280000D03*
%TD*%
D13*
%TO.P,J31,1,Pin_1*%
%TO.N,Net-(U3-Pad14)*%
X93472000Y-110744000D03*
%TD*%
D12*
%TO.P,REF\u002A\u002A,1*%
%TO.N,N/C*%
X66040000Y-30480000D03*
%TD*%
%TO.P,REF\u002A\u002A,1*%
%TO.N,N/C*%
X104140000Y-68580000D03*
%TD*%
%TO.P,REF\u002A\u002A,1*%
%TO.N,N/C*%
X91440000Y-48260000D03*
%TD*%
%TO.P,REF\u002A\u002A,1*%
%TO.N,N/C*%
X81280000Y-101600000D03*
%TD*%
%TO.P,REF\u002A\u002A,1*%
%TO.N,N/C*%
X101600000Y-68580000D03*
%TD*%
%TO.P,REF\u002A\u002A,1*%
%TO.N,N/C*%
X91440000Y-50800000D03*
%TD*%
%TO.P,REF\u002A\u002A,1*%
%TO.N,N/C*%
X76200000Y-78740000D03*
%TD*%
%TO.P,REF\u002A\u002A,1*%
%TO.N,N/C*%
X66040000Y-38100000D03*
%TD*%
%TO.P,REF\u002A\u002A,1*%
%TO.N,N/C*%
X99060000Y-48260000D03*
%TD*%
%TO.P,REF\u002A\u002A,1*%
%TO.N,N/C*%
X63500000Y-106680000D03*
%TD*%
%TO.P,REF\u002A\u002A,1*%
%TO.N,N/C*%
X99060000Y-83820000D03*
%TD*%
%TO.P,REF\u002A\u002A,1*%
%TO.N,N/C*%
X86360000Y-86360000D03*
%TD*%
%TO.P,REF\u002A\u002A,1*%
%TO.N,N/C*%
X81280000Y-73660000D03*
%TD*%
%TO.P,REF\u002A\u002A,1*%
%TO.N,N/C*%
X83820000Y-50800000D03*
%TD*%
%TO.P,REF\u002A\u002A,1*%
%TO.N,N/C*%
X93980000Y-30480000D03*
%TD*%
%TO.P,REF\u002A\u002A,1*%
%TO.N,N/C*%
X78740000Y-35560000D03*
%TD*%
%TO.P,REF\u002A\u002A,1*%
%TO.N,N/C*%
X109220000Y-96520000D03*
%TD*%
%TO.P,REF\u002A\u002A,1*%
%TO.N,N/C*%
X88900000Y-53340000D03*
%TD*%
D13*
%TO.P,J44,1,Pin_1*%
%TO.N,Net-(J40-Pad11)*%
X114300000Y-88900000D03*
%TD*%
D24*
%TO.N,+5V*%
X126365000Y-117475000D03*
X129540000Y-27940000D03*
%TO.N,GND*%
X97332000Y-157938000D03*
X97233520Y-155496480D03*
X81915000Y-155575000D03*
X129540000Y-25400000D03*
%TO.N,-12V*%
X118110000Y-146050000D03*
X121920000Y-146050000D03*
%TO.N,-9V*%
X118110000Y-148590000D03*
X120650000Y-148590000D03*
%TO.N,/{slash}ID REQ*%
X109220000Y-156210000D03*
%TO.N,/{slash}IO INT*%
X106044641Y-153035359D03*
%TO.N,/IO A2*%
X104902000Y-153416000D03*
%TO.N,/IO A3*%
X101600000Y-158750000D03*
X104648000Y-151130000D03*
%TO.N,/IO A1*%
X98298000Y-145796000D03*
X103632000Y-152146000D03*
X100584000Y-152146000D03*
%TO.N,/IO A0*%
X95885000Y-160020000D03*
%TO.N,/{slash}BWR*%
X92964000Y-160020000D03*
%TO.N,/{slash}BIO RES*%
X92710000Y-157988000D03*
%TO.N,/IO4*%
X78994000Y-158242000D03*
%TO.N,/IO5*%
X77724000Y-157988000D03*
%TO.N,/IO1*%
X76454000Y-159004000D03*
%TO.N,/IO7*%
X73406000Y-156718000D03*
%TO.N,/{slash}SELECT*%
X92456000Y-151892000D03*
X67564000Y-157226000D03*
%TO.N,Net-(J24-Pad1)*%
X70358000Y-123952000D03*
%TO.N,Net-(U5-Pad16)*%
X104648000Y-121666000D03*
%TO.N,Net-(U5-Pad15)*%
X106172000Y-119888000D03*
%TO.N,Net-(U3-Pad3)*%
X101092000Y-117348000D03*
X99214572Y-122328572D03*
%TO.N,Net-(U3-Pad2)*%
X97028000Y-124714000D03*
%TO.N,Net-(U3-Pad4)*%
X99060000Y-116586000D03*
X95758000Y-123190000D03*
%TO.N,Net-(U3-Pad6)*%
X89154000Y-123444000D03*
X88900000Y-118872000D03*
%TO.N,Net-(U4-Pad15)*%
X63754000Y-119634000D03*
%TO.N,Net-(U4-Pad16)*%
X62230000Y-119634000D03*
%TO.N,Net-(U3-Pad5)*%
X90678000Y-119380000D03*
X89662000Y-124714000D03*
%TD*%
D25*
%TO.N,GND*%
X126365000Y-22225000D02*
X129540000Y-25400000D01*
X65920778Y-22225000D02*
X126365000Y-22225000D01*
X60214617Y-26140489D02*
X62005289Y-26140489D01*
X58587000Y-27768106D02*
X60214617Y-26140489D01*
X58587000Y-52538000D02*
X58587000Y-27768106D01*
X62005289Y-26140489D02*
X65920778Y-22225000D01*
D26*
%TO.N,+5V*%
X94020000Y-120650000D02*
X93370009Y-121299991D01*
X60521520Y-117475000D02*
X62865000Y-117475000D01*
D27*
X85910480Y-115882480D02*
X85910480Y-119067520D01*
D26*
X128905000Y-153037114D02*
X131709520Y-150232593D01*
X110007600Y-161886000D02*
X113748089Y-158145511D01*
X93370009Y-121299991D02*
X89161332Y-121299991D01*
X80010000Y-147320000D02*
X80010000Y-149860000D01*
X67310000Y-147320000D02*
X67310000Y-149860000D01*
X67270000Y-149900000D02*
X79970000Y-149900000D01*
X126611511Y-158145511D02*
X128905000Y-155852022D01*
D27*
X74261830Y-118778170D02*
X74261830Y-119100489D01*
D26*
X68620000Y-120650000D02*
X59886520Y-120650000D01*
X75811341Y-120650000D02*
X77724000Y-120650000D01*
X80010000Y-149860000D02*
X79970000Y-149900000D01*
X89161332Y-121299991D02*
X86961830Y-119100489D01*
X86961830Y-119100489D02*
X85369511Y-119100489D01*
D27*
X85910480Y-119067520D02*
X85877511Y-119100489D01*
D26*
X82869511Y-119100489D02*
X81320000Y-120650000D01*
X59886520Y-118110000D02*
X60521520Y-117475000D01*
X68620000Y-120650000D02*
X70169511Y-119100489D01*
X131709520Y-117210480D02*
X131709520Y-32120480D01*
X87630000Y-147320000D02*
X87630000Y-149860000D01*
X67310000Y-149860000D02*
X67270000Y-149900000D01*
X126365000Y-117475000D02*
X131445000Y-117475000D01*
X90115000Y-149900000D02*
X92700000Y-147315000D01*
X63500000Y-149900000D02*
X67270000Y-149900000D01*
D27*
X77470000Y-115570000D02*
X74261830Y-118778170D01*
D26*
X77724000Y-120650000D02*
X81320000Y-120650000D01*
X85369511Y-119100489D02*
X82869511Y-119100489D01*
X70169511Y-119100489D02*
X74261830Y-119100489D01*
X110007600Y-164736000D02*
X110007600Y-161886000D01*
X87630000Y-149860000D02*
X87670000Y-149900000D01*
D27*
X85090000Y-115585000D02*
X85613000Y-115585000D01*
D26*
X59886520Y-120650000D02*
X59886520Y-118110000D01*
X79970000Y-149900000D02*
X87670000Y-149900000D01*
X131445000Y-117475000D02*
X131709520Y-117210480D01*
X128905000Y-155852022D02*
X128905000Y-153037114D01*
X113748089Y-158145511D02*
X126611511Y-158145511D01*
X92700000Y-147315000D02*
X100320000Y-147315000D01*
D27*
X85613000Y-115585000D02*
X85910480Y-115882480D01*
D26*
X131709520Y-150232593D02*
X131709520Y-117210480D01*
X131709520Y-32120480D02*
X131709520Y-30109520D01*
X131709520Y-30109520D02*
X129540000Y-27940000D01*
X87670000Y-149900000D02*
X90115000Y-149900000D01*
X74261830Y-119100489D02*
X75811341Y-120650000D01*
%TO.N,GND*%
X95478489Y-122199511D02*
X97470489Y-122199511D01*
D27*
X95478489Y-122199511D02*
X95478489Y-120235346D01*
D25*
X58587000Y-108536000D02*
X58587000Y-114768000D01*
D26*
X119300000Y-143590000D02*
X116680000Y-140970000D01*
D25*
X60174500Y-157113500D02*
X61762000Y-158701000D01*
D26*
X87630000Y-124460000D02*
X87630000Y-122439022D01*
X97633520Y-155896480D02*
X97233520Y-155496480D01*
X117642000Y-156796000D02*
X117642000Y-152280659D01*
D25*
X68812000Y-158766000D02*
X69422000Y-158156000D01*
D26*
X116680000Y-140970000D02*
X111420000Y-140970000D01*
X111420000Y-132080000D02*
X111931522Y-132080000D01*
X81915000Y-155575000D02*
X81786489Y-155446489D01*
D25*
X58587000Y-155526000D02*
X60174500Y-157113500D01*
X68812000Y-158766000D02*
X68812000Y-164736000D01*
D26*
X112750489Y-156487397D02*
X111387406Y-157850480D01*
X109895000Y-140970000D02*
X108585000Y-142280000D01*
D27*
X93471368Y-119325489D02*
X92177471Y-120619385D01*
D26*
X59055000Y-114300000D02*
X58587000Y-114768000D01*
X61286500Y-157113500D02*
X60174500Y-157113500D01*
D27*
X86360000Y-111775000D02*
X86360000Y-118425969D01*
D26*
X62865000Y-114300000D02*
X59055000Y-114300000D01*
X63500000Y-154900000D02*
X61286500Y-157113500D01*
X113309511Y-149580489D02*
X112750489Y-150139511D01*
X87630000Y-122439022D02*
X87869511Y-122199511D01*
D27*
X89440728Y-120625471D02*
X87241226Y-118425969D01*
D25*
X58587000Y-65991000D02*
X58587000Y-70436000D01*
D26*
X107785594Y-157850480D02*
X105831593Y-155896480D01*
X119300000Y-134540000D02*
X116840000Y-132080000D01*
X70771511Y-155446489D02*
X69422000Y-156796000D01*
D27*
X94568632Y-119325489D02*
X93471368Y-119325489D01*
D26*
X100320000Y-121950000D02*
X99020000Y-120650000D01*
X106869113Y-130850000D02*
X104140000Y-133579113D01*
X72070489Y-122199511D02*
X58699511Y-122199511D01*
D25*
X58587000Y-58371000D02*
X58587000Y-65991000D01*
X61762000Y-158701000D02*
X68747000Y-158701000D01*
X58587000Y-122087000D02*
X58587000Y-134571000D01*
X58587000Y-134571000D02*
X58587000Y-155526000D01*
D26*
X111931522Y-132080000D02*
X120650000Y-123361522D01*
D25*
X58587000Y-50116000D02*
X58587000Y-52538000D01*
D26*
X111420000Y-132080000D02*
X109815000Y-132080000D01*
D25*
X58587000Y-70436000D02*
X58587000Y-83136000D01*
D26*
X86320000Y-120650000D02*
X87869511Y-122199511D01*
D25*
X68747000Y-158701000D02*
X68812000Y-158766000D01*
D26*
X73620000Y-120650000D02*
X75169511Y-122199511D01*
X98405000Y-121265000D02*
X99020000Y-120650000D01*
D25*
X58587000Y-83136000D02*
X58587000Y-100916000D01*
D26*
X108585000Y-142280000D02*
X105370000Y-142280000D01*
X119300000Y-151130000D02*
X119300000Y-143590000D01*
X112750489Y-150139511D02*
X112750489Y-156487397D01*
X111420000Y-140970000D02*
X109895000Y-140970000D01*
D27*
X86360000Y-118425969D02*
X87060031Y-118425969D01*
D26*
X111387406Y-157850480D02*
X107785594Y-157850480D01*
X58626520Y-50155520D02*
X58587000Y-50116000D01*
X87869511Y-122199511D02*
X95478489Y-122199511D01*
D25*
X58587000Y-100916000D02*
X58587000Y-108536000D01*
X58587000Y-52538000D02*
X58587000Y-58371000D01*
D27*
X92177471Y-120619385D02*
X92177471Y-120625471D01*
D26*
X114941830Y-149580489D02*
X113309511Y-149580489D01*
X119300000Y-143590000D02*
X119300000Y-134540000D01*
X97470489Y-122199511D02*
X98405000Y-121265000D01*
X97332000Y-164736000D02*
X97332000Y-157938000D01*
X74930000Y-124460000D02*
X74930000Y-122439022D01*
D25*
X69422000Y-158156000D02*
X69422000Y-156796000D01*
D26*
X117642000Y-152280659D02*
X114941830Y-149580489D01*
D27*
X85090000Y-110505000D02*
X86360000Y-111775000D01*
D26*
X100320000Y-124455000D02*
X100320000Y-121950000D01*
D27*
X92177471Y-120625471D02*
X89440728Y-120625471D01*
D26*
X58699511Y-122199511D02*
X58587000Y-122087000D01*
X84770489Y-122199511D02*
X86320000Y-120650000D01*
X108585000Y-130850000D02*
X106869113Y-130850000D01*
X73620000Y-120650000D02*
X72070489Y-122199511D01*
X81786489Y-155446489D02*
X70771511Y-155446489D01*
D27*
X87241226Y-118425969D02*
X87060031Y-118425969D01*
D26*
X75169511Y-122199511D02*
X84770489Y-122199511D01*
X105370000Y-142280000D02*
X104140000Y-143510000D01*
X109815000Y-132080000D02*
X108585000Y-130850000D01*
X74930000Y-122439022D02*
X75169511Y-122199511D01*
X120650000Y-123361522D02*
X120650000Y-114300000D01*
X105831593Y-155896480D02*
X97633520Y-155896480D01*
X116840000Y-132080000D02*
X111420000Y-132080000D01*
D27*
X95478489Y-120235346D02*
X94568632Y-119325489D01*
D25*
X58587000Y-114768000D02*
X58587000Y-122087000D01*
D26*
%TO.N,-12V*%
X114300000Y-153454000D02*
X114300000Y-151130000D01*
X125730000Y-114300000D02*
X125730000Y-107950000D01*
X75149780Y-164736000D02*
X75149780Y-158530220D01*
X113714000Y-156796000D02*
X111760000Y-158750000D01*
X115570000Y-143510000D02*
X118110000Y-146050000D01*
X123190000Y-116840000D02*
X125730000Y-114300000D01*
X111760000Y-158750000D02*
X107413000Y-158750000D01*
X115142000Y-154296000D02*
X114300000Y-153454000D01*
X121920000Y-125730000D02*
X123190000Y-124460000D01*
X107413000Y-158750000D02*
X105459000Y-156796000D01*
X121920000Y-146050000D02*
X121920000Y-125730000D01*
X115142000Y-156796000D02*
X115142000Y-154296000D01*
X111420000Y-143510000D02*
X115570000Y-143510000D01*
X115142000Y-156796000D02*
X113714000Y-156796000D01*
X123190000Y-124460000D02*
X123190000Y-116840000D01*
X76884000Y-156796000D02*
X75149780Y-158530220D01*
X105459000Y-156796000D02*
X76884000Y-156796000D01*
%TO.N,-9V*%
X111420000Y-146050000D02*
X115570000Y-146050000D01*
X120650000Y-148590000D02*
X120650000Y-124633636D01*
X111420000Y-146050000D02*
X109815000Y-146050000D01*
X123190000Y-114300000D02*
X123190000Y-111125000D01*
X109815000Y-146050000D02*
X108585000Y-147280000D01*
X120650000Y-124633636D02*
X121920000Y-123363636D01*
X115570000Y-146050000D02*
X118110000Y-148590000D01*
X108585000Y-147280000D02*
X105410000Y-147280000D01*
X121920000Y-115570000D02*
X123190000Y-114300000D01*
X105410000Y-147280000D02*
X104140000Y-146010000D01*
X121920000Y-123363636D02*
X121920000Y-115570000D01*
%TO.N,+9V*%
X109815000Y-134620000D02*
X108585000Y-135850000D01*
X104369113Y-135850000D02*
X104140000Y-136079113D01*
X111420000Y-134620000D02*
X109815000Y-134620000D01*
X108585000Y-135850000D02*
X104369113Y-135850000D01*
D27*
%TO.N,/{slash}ID REQ*%
X101595000Y-126995000D02*
X100320000Y-126995000D01*
X109220000Y-153035000D02*
X102870000Y-146685000D01*
X102870000Y-146685000D02*
X102870000Y-128270000D01*
X109220000Y-156210000D02*
X109220000Y-153035000D01*
X102870000Y-128270000D02*
X101595000Y-126995000D01*
%TO.N,/{slash}IO INT*%
X100004700Y-128270000D02*
X98729700Y-126995000D01*
X106044641Y-153035359D02*
X106044641Y-150495359D01*
X98729700Y-126995000D02*
X92700000Y-126995000D01*
X102420480Y-128456198D02*
X102234282Y-128270000D01*
X106044641Y-150495359D02*
X102420480Y-146871198D01*
X102234282Y-128270000D02*
X100004700Y-128270000D01*
X102420480Y-146871198D02*
X102420480Y-128456198D01*
%TO.N,/IO A2*%
X101595000Y-132075000D02*
X101970960Y-132450960D01*
X105595121Y-152400000D02*
X104902000Y-153093121D01*
X101970960Y-132450960D02*
X101970960Y-147057395D01*
X105595121Y-150681557D02*
X105595121Y-152400000D01*
X104902000Y-153093121D02*
X104902000Y-153416000D01*
X101970960Y-147057395D02*
X105595121Y-150681557D01*
X100320000Y-132075000D02*
X101595000Y-132075000D01*
%TO.N,/IO A3*%
X100320000Y-134615000D02*
X100960000Y-134615000D01*
X102870000Y-149225000D02*
X104648000Y-151003000D01*
X101521440Y-135176440D02*
X101521440Y-145971440D01*
X101521440Y-145971440D02*
X101521440Y-147241440D01*
X102870000Y-149225000D02*
X101521440Y-147876440D01*
X101600000Y-147955000D02*
X102870000Y-149225000D01*
X101521440Y-147876440D02*
X101521440Y-145971440D01*
X100500900Y-159849100D02*
X100500900Y-164736000D01*
X104648000Y-151003000D02*
X104648000Y-151130000D01*
X101600000Y-158750000D02*
X100500900Y-159849100D01*
X101521440Y-147241440D02*
X101521440Y-147243593D01*
X100960000Y-134615000D02*
X101521440Y-135176440D01*
%TO.N,/IO A1*%
X103632000Y-152146000D02*
X100584000Y-152146000D01*
X98298000Y-145796000D02*
X98298000Y-139177000D01*
X98298000Y-139177000D02*
X100320000Y-137155000D01*
%TO.N,/IO A0*%
X94163100Y-164736000D02*
X94163100Y-161741900D01*
X94163100Y-161741900D02*
X95885000Y-160020000D01*
%TO.N,/{slash}BWR*%
X90994200Y-160973800D02*
X90994200Y-164736000D01*
X91948000Y-160020000D02*
X90994200Y-160973800D01*
X92964000Y-160020000D02*
X91948000Y-160020000D01*
%TO.N,/{slash}BIO RES*%
X87825300Y-162110700D02*
X91948000Y-157988000D01*
X91948000Y-157988000D02*
X92710000Y-157988000D01*
X87825300Y-164736000D02*
X87825300Y-162110700D01*
%TO.N,/IO4*%
X80518000Y-160274000D02*
X78994000Y-158750000D01*
X84656400Y-164736000D02*
X84656400Y-161886000D01*
X83044400Y-160274000D02*
X80518000Y-160274000D01*
X78994000Y-158750000D02*
X78994000Y-158242000D01*
X84656400Y-161886000D02*
X83044400Y-160274000D01*
%TO.N,/IO5*%
X81487600Y-164736000D02*
X81487600Y-162259600D01*
X77724000Y-158496000D02*
X77724000Y-157988000D01*
X81487600Y-162259600D02*
X77724000Y-158496000D01*
%TO.N,/IO1*%
X78318700Y-160614700D02*
X76708000Y-159004000D01*
X78318700Y-164736000D02*
X78318700Y-160614700D01*
X76708000Y-159004000D02*
X76454000Y-159004000D01*
%TO.N,/IO7*%
X73406000Y-157480000D02*
X73406000Y-156718000D01*
X71980890Y-158905110D02*
X73406000Y-157480000D01*
X71980890Y-164736000D02*
X71980890Y-158905110D01*
%TO.N,/{slash}SELECT*%
X67564000Y-157226000D02*
X67564000Y-157063700D01*
X92456000Y-152146000D02*
X92456000Y-151892000D01*
X69855731Y-154771969D02*
X89830031Y-154771969D01*
X89830031Y-154771969D02*
X92456000Y-152146000D01*
X67564000Y-157063700D02*
X69855731Y-154771969D01*
%TO.N,Net-(J24-Pad1)*%
X69850000Y-124460000D02*
X67310000Y-124460000D01*
X70358000Y-123952000D02*
X69850000Y-124460000D01*
D28*
%TO.N,Net-(J40-Pad13)*%
X122918000Y-92982000D02*
X118110000Y-97790000D01*
X122918000Y-89686000D02*
X122918000Y-92982000D01*
X118110000Y-97790000D02*
X115570000Y-97790000D01*
X115570000Y-97790000D02*
X114300000Y-96520000D01*
%TO.N,Net-(J40-Pad1)*%
X122918000Y-56446000D02*
X122918000Y-55385340D01*
X118332660Y-50800000D02*
X114300000Y-50800000D01*
X122918000Y-55385340D02*
X118332660Y-50800000D01*
%TO.N,Net-(J40-Pad2)*%
X115440489Y-55750489D02*
X114300000Y-54610000D01*
X122918000Y-59216000D02*
X119452489Y-55750489D01*
X119452489Y-55750489D02*
X115440489Y-55750489D01*
%TO.N,Net-(J40-Pad3)*%
X118689698Y-59560489D02*
X115440489Y-59560489D01*
X122918000Y-61986000D02*
X121115209Y-61986000D01*
X115440489Y-59560489D02*
X114300000Y-58420000D01*
X121115209Y-61986000D02*
X118689698Y-59560489D01*
%TO.N,Net-(J40-Pad4)*%
X122918000Y-64756000D02*
X120075209Y-64756000D01*
X115440489Y-63370489D02*
X114300000Y-62230000D01*
X120075209Y-64756000D02*
X118689698Y-63370489D01*
X118689698Y-63370489D02*
X115440489Y-63370489D01*
%TO.N,Net-(J40-Pad5)*%
X122168000Y-66776000D02*
X115036000Y-66776000D01*
X122918000Y-67526000D02*
X122168000Y-66776000D01*
X115036000Y-66776000D02*
X114300000Y-66040000D01*
%TO.N,Net-(J40-Pad6)*%
X122918000Y-70296000D02*
X114746000Y-70296000D01*
X114746000Y-70296000D02*
X114300000Y-69850000D01*
%TO.N,Net-(J40-Pad7)*%
X114456000Y-73816000D02*
X114300000Y-73660000D01*
X122168000Y-73816000D02*
X114456000Y-73816000D01*
X122918000Y-73066000D02*
X122168000Y-73816000D01*
%TO.N,Net-(J40-Pad8)*%
X120453209Y-75836000D02*
X118689698Y-77599511D01*
X118689698Y-77599511D02*
X114429511Y-77599511D01*
X114429511Y-77599511D02*
X114300000Y-77470000D01*
X122918000Y-75836000D02*
X120453209Y-75836000D01*
%TO.N,Net-(J40-Pad9)*%
X114300000Y-81280000D02*
X114429511Y-81409511D01*
X120114489Y-81409511D02*
X122918000Y-78606000D01*
X114429511Y-81409511D02*
X120114489Y-81409511D01*
%TO.N,Net-(J40-Pad10)*%
X114429511Y-85219511D02*
X114300000Y-85090000D01*
X122918000Y-81376000D02*
X119074489Y-85219511D01*
X119074489Y-85219511D02*
X114429511Y-85219511D01*
%TO.N,Net-(J40-Pad11)*%
X114429511Y-89029511D02*
X114300000Y-88900000D01*
X119509511Y-87554489D02*
X119509511Y-88209698D01*
X119509511Y-88209698D02*
X118689698Y-89029511D01*
X118689698Y-89029511D02*
X114429511Y-89029511D01*
X122918000Y-84146000D02*
X119509511Y-87554489D01*
%TO.N,Net-(J40-Pad12)*%
X114429511Y-92839511D02*
X114300000Y-92710000D01*
X118689698Y-92839511D02*
X114429511Y-92839511D01*
X119509511Y-90324489D02*
X119509511Y-92019698D01*
X122918000Y-86916000D02*
X119509511Y-90324489D01*
X119509511Y-92019698D02*
X118689698Y-92839511D01*
%TO.N,Net-(J40-Pad14)*%
X125458000Y-57831000D02*
X122601000Y-57831000D01*
X122601000Y-57831000D02*
X118110000Y-53340000D01*
%TO.N,Net-(J40-Pad15)*%
X121561000Y-60601000D02*
X118110000Y-57150000D01*
X125458000Y-60601000D02*
X121561000Y-60601000D01*
%TO.N,Net-(J40-Pad16)*%
X120521000Y-63371000D02*
X118110000Y-60960000D01*
X125458000Y-63371000D02*
X120521000Y-63371000D01*
%TO.N,Net-(J40-Pad17)*%
X125458000Y-66141000D02*
X119481000Y-66141000D01*
X119481000Y-66141000D02*
X118110000Y-64770000D01*
%TO.N,Net-(J40-Pad18)*%
X118441000Y-68911000D02*
X118110000Y-68580000D01*
X125458000Y-68911000D02*
X118441000Y-68911000D01*
%TO.N,Net-(J40-Pad19)*%
X125458000Y-71681000D02*
X118819000Y-71681000D01*
X118819000Y-71681000D02*
X118110000Y-72390000D01*
%TO.N,Net-(J40-Pad20)*%
X125458000Y-74451000D02*
X119859000Y-74451000D01*
X119859000Y-74451000D02*
X118110000Y-76200000D01*
%TO.N,Net-(J40-Pad21)*%
X125458000Y-77221000D02*
X120899000Y-77221000D01*
X120899000Y-77221000D02*
X118110000Y-80010000D01*
%TO.N,Net-(J40-Pad22)*%
X125458000Y-79991000D02*
X122380850Y-79991000D01*
X122380850Y-79991000D02*
X118551850Y-83820000D01*
X118551850Y-83820000D02*
X118110000Y-83820000D01*
%TO.N,Net-(J40-Pad23)*%
X125458000Y-82761000D02*
X122380850Y-82761000D01*
X122380850Y-82761000D02*
X118110000Y-87031850D01*
X118110000Y-87031850D02*
X118110000Y-87630000D01*
%TO.N,Net-(J40-Pad24)*%
X122677345Y-85531000D02*
X120650000Y-87558345D01*
X120650000Y-87917059D02*
X118110000Y-90457059D01*
X118110000Y-90457059D02*
X118110000Y-91440000D01*
X120650000Y-87558345D02*
X120650000Y-87917059D01*
X125458000Y-85531000D02*
X122677345Y-85531000D01*
%TO.N,Net-(J40-Pad25)*%
X125458000Y-88301000D02*
X122677345Y-88301000D01*
X120650000Y-92710000D02*
X118110000Y-95250000D01*
X122677345Y-88301000D02*
X120650000Y-90328345D01*
X120650000Y-90328345D02*
X120650000Y-92710000D01*
D27*
%TO.N,Net-(U5-Pad11)*%
X96656332Y-123952000D02*
X97536000Y-123952000D01*
X99163511Y-125579511D02*
X104290489Y-125579511D01*
X96153332Y-124455000D02*
X96656332Y-123952000D01*
X111252000Y-118618000D02*
X111252000Y-114808000D01*
X92700000Y-124455000D02*
X96153332Y-124455000D01*
X104290489Y-125579511D02*
X111252000Y-118618000D01*
X97536000Y-123952000D02*
X99163511Y-125579511D01*
%TO.N,Net-(U3-Pad19)*%
X80010000Y-146050000D02*
X79689700Y-146050000D01*
X80010000Y-144780000D02*
X80010000Y-146050000D01*
X91425000Y-146050000D02*
X80010000Y-146050000D01*
X79689700Y-146050000D02*
X76514220Y-149225480D01*
X76514220Y-149225480D02*
X71755480Y-149225480D01*
X92700000Y-144775000D02*
X91425000Y-146050000D01*
X71755480Y-149225480D02*
X67310000Y-144780000D01*
%TO.N,Net-(U5-Pad16)*%
X103886000Y-115220857D02*
X103886000Y-120142000D01*
X106172000Y-112934857D02*
X103886000Y-115220857D01*
X106172000Y-112268000D02*
X106172000Y-112934857D01*
X104648000Y-121666000D02*
X103886000Y-120904000D01*
X103886000Y-120904000D02*
X103886000Y-120142000D01*
%TO.N,Net-(U5-Pad15)*%
X106172000Y-119888000D02*
X106172000Y-114808000D01*
%TO.N,Net-(U3-Pad3)*%
X96397307Y-123575307D02*
X96058103Y-123914511D01*
X92234211Y-123330489D02*
X91125969Y-124438731D01*
X95326022Y-123914511D02*
X94742000Y-123330489D01*
X96058103Y-123914511D02*
X95326022Y-123914511D01*
X94742000Y-123330489D02*
X92234211Y-123330489D01*
X101092000Y-117348000D02*
X101092000Y-114808000D01*
X97036614Y-122936000D02*
X97687916Y-122936000D01*
X98295344Y-122328572D02*
X99214572Y-122328572D01*
X96397307Y-123575307D02*
X97036614Y-122936000D01*
X91125969Y-138744031D02*
X87630000Y-142240000D01*
X97687916Y-122936000D02*
X98295344Y-122328572D01*
X91125969Y-124438731D02*
X91125969Y-138744031D01*
%TO.N,Net-(U3-Pad2)*%
X91575489Y-140834511D02*
X91575489Y-126529211D01*
X95925650Y-125816350D02*
X97028000Y-124714000D01*
X92288350Y-125816350D02*
X95925650Y-125816350D01*
X91575489Y-126529211D02*
X92288350Y-125816350D01*
X87630000Y-144780000D02*
X91575489Y-140834511D01*
%TO.N,Net-(U3-Pad4)*%
X90676449Y-124252533D02*
X92048014Y-122880969D01*
X90676449Y-136653551D02*
X90676449Y-124252533D01*
X92048014Y-122880969D02*
X92400969Y-122880969D01*
X95448969Y-122880969D02*
X92400969Y-122880969D01*
X87630000Y-139700000D02*
X90676449Y-136653551D01*
X95758000Y-123190000D02*
X95448969Y-122880969D01*
X98552000Y-116078000D02*
X99060000Y-116586000D01*
X98552000Y-113538000D02*
X98552000Y-116078000D01*
%TO.N,Net-(U3-Pad6)*%
X88754511Y-133495489D02*
X88754511Y-123843489D01*
X92291702Y-116132511D02*
X90115489Y-116132511D01*
X88754511Y-123843489D02*
X89154000Y-123444000D01*
X93472000Y-114952213D02*
X92291702Y-116132511D01*
X90115489Y-116132511D02*
X88900000Y-117348000D01*
X93472000Y-113538000D02*
X93472000Y-114952213D01*
X87630000Y-134620000D02*
X88754511Y-133495489D01*
X88900000Y-117348000D02*
X88900000Y-118872000D01*
%TO.N,Net-(U4-Pad15)*%
X67564000Y-119634000D02*
X68580000Y-118618000D01*
X68580000Y-118618000D02*
X68580000Y-114300000D01*
X63754000Y-119634000D02*
X67564000Y-119634000D01*
%TO.N,Net-(U4-Pad16)*%
X62230000Y-119634000D02*
X62992000Y-118872000D01*
X66040000Y-118618000D02*
X66040000Y-115570000D01*
X62992000Y-118872000D02*
X65786000Y-118872000D01*
X65786000Y-118872000D02*
X66040000Y-118618000D01*
%TO.N,Net-(U3-Pad5)*%
X89662000Y-135128000D02*
X89662000Y-124714000D01*
X87630000Y-137160000D02*
X89662000Y-135128000D01*
X90678000Y-119380000D02*
X91440000Y-119380000D01*
X91440000Y-119380000D02*
X96012000Y-114808000D01*
%TD*%
M02*
