M48
; DRILL file {KiCad (6.0.0)} date Sun Mar 13 19:33:14 2022
; FORMAT={-:-/ absolute / metric / decimal}
; #@! TF.CreationDate,2022-03-13T19:33:14-04:00
; #@! TF.GenerationSoftware,Kicad,Pcbnew,(6.0.0)
; #@! TF.FileFunction,Plated,1,2,PTH
FMAT,2
METRIC
; #@! TA.AperFunction,Plated,PTH,ViaDrill
T1C0.400
; #@! TA.AperFunction,Plated,PTH,ComponentDrill
T2C0.800
; #@! TA.AperFunction,Plated,PTH,ComponentDrill
T3C1.000
; #@! TA.AperFunction,Plated,PTH,ComponentDrill
T4C1.100
; #@! TA.AperFunction,Plated,PTH,ComponentDrill
T5C3.200
%
G90
G05
T1
X62.23Y-119.634
X63.754Y-119.634
X67.564Y-157.226
X70.358Y-123.952
X73.406Y-156.718
X76.454Y-159.004
X77.724Y-157.988
X78.994Y-158.242
X81.915Y-155.575
X88.9Y-118.872
X89.154Y-123.444
X89.662Y-124.714
X90.678Y-119.38
X92.456Y-151.892
X92.71Y-157.988
X92.964Y-160.02
X95.758Y-123.19
X95.885Y-160.02
X97.028Y-124.714
X97.234Y-155.496
X97.332Y-157.938
X98.298Y-145.796
X99.06Y-116.586
X99.215Y-122.329
X100.584Y-152.146
X101.092Y-117.348
X101.6Y-158.75
X103.632Y-152.146
X104.648Y-121.666
X104.648Y-151.13
X104.902Y-153.416
X106.045Y-153.035
X106.172Y-119.888
X109.22Y-156.21
X118.11Y-146.05
X118.11Y-148.59
X120.65Y-148.59
X121.92Y-146.05
X126.365Y-117.475
X129.54Y-25.4
X129.54Y-27.94
T2
X67.31Y-124.46
X67.31Y-127.0
X67.31Y-129.54
X67.31Y-132.08
X67.31Y-134.62
X67.31Y-137.16
X67.31Y-139.7
X67.31Y-142.24
X67.31Y-144.78
X67.31Y-147.32
X69.422Y-156.796
X71.922Y-156.796
X74.93Y-124.46
X74.93Y-127.0
X74.93Y-129.54
X74.93Y-132.08
X74.93Y-134.62
X74.93Y-137.16
X74.93Y-139.7
X74.93Y-142.24
X74.93Y-144.78
X74.93Y-147.32
X80.01Y-124.46
X80.01Y-127.0
X80.01Y-129.54
X80.01Y-132.08
X80.01Y-134.62
X80.01Y-137.16
X80.01Y-139.7
X80.01Y-142.24
X80.01Y-144.78
X80.01Y-147.32
X87.63Y-124.46
X87.63Y-127.0
X87.63Y-129.54
X87.63Y-132.08
X87.63Y-134.62
X87.63Y-137.16
X87.63Y-139.7
X87.63Y-142.24
X87.63Y-144.78
X87.63Y-147.32
X92.7Y-124.455
X92.7Y-126.995
X92.7Y-129.535
X92.7Y-132.075
X92.7Y-134.615
X92.7Y-137.155
X92.7Y-139.695
X92.7Y-142.235
X92.7Y-144.775
X92.7Y-147.315
X100.32Y-124.455
X100.32Y-126.995
X100.32Y-129.535
X100.32Y-132.075
X100.32Y-134.615
X100.32Y-137.155
X100.32Y-139.695
X100.32Y-142.235
X100.32Y-144.775
X100.32Y-147.315
X104.14Y-133.579
X104.14Y-136.079
X104.14Y-143.51
X104.14Y-146.01
X115.142Y-156.796
X117.642Y-156.796
X122.762Y-156.796
X125.262Y-156.796
T3
X60.96Y-27.94
X60.96Y-30.48
X60.96Y-33.02
X60.96Y-35.56
X60.96Y-38.1
X60.96Y-40.64
X60.96Y-43.18
X60.96Y-45.72
X60.96Y-48.26
X60.96Y-50.8
X60.96Y-53.34
X60.96Y-55.88
X60.96Y-58.42
X60.96Y-60.96
X60.96Y-63.5
X60.96Y-66.04
X60.96Y-68.58
X60.96Y-71.12
X60.96Y-73.66
X60.96Y-76.2
X60.96Y-78.74
X60.96Y-81.28
X60.96Y-83.82
X60.96Y-86.36
X60.96Y-88.9
X60.96Y-91.44
X60.96Y-93.98
X60.96Y-96.52
X60.96Y-99.06
X60.96Y-101.6
X60.96Y-104.14
X60.96Y-106.68
X62.865Y-114.3
X62.865Y-117.475
X63.5Y-27.94
X63.5Y-30.48
X63.5Y-33.02
X63.5Y-35.56
X63.5Y-38.1
X63.5Y-40.64
X63.5Y-43.18
X63.5Y-45.72
X63.5Y-48.26
X63.5Y-50.8
X63.5Y-53.34
X63.5Y-55.88
X63.5Y-58.42
X63.5Y-60.96
X63.5Y-63.5
X63.5Y-66.04
X63.5Y-68.58
X63.5Y-71.12
X63.5Y-73.66
X63.5Y-76.2
X63.5Y-78.74
X63.5Y-81.28
X63.5Y-83.82
X63.5Y-86.36
X63.5Y-88.9
X63.5Y-91.44
X63.5Y-93.98
X63.5Y-96.52
X63.5Y-99.06
X63.5Y-101.6
X63.5Y-104.14
X63.5Y-106.68
X63.5Y-149.9
X63.5Y-154.9
X66.04Y-25.4
X66.04Y-27.94
X66.04Y-30.48
X66.04Y-33.02
X66.04Y-35.56
X66.04Y-38.1
X66.04Y-40.64
X66.04Y-43.18
X66.04Y-45.72
X66.04Y-48.26
X66.04Y-50.8
X66.04Y-53.34
X66.04Y-55.88
X66.04Y-58.42
X66.04Y-60.96
X66.04Y-63.5
X66.04Y-66.04
X66.04Y-68.58
X66.04Y-71.12
X66.04Y-73.66
X66.04Y-76.2
X66.04Y-78.74
X66.04Y-81.28
X66.04Y-83.82
X66.04Y-86.36
X66.04Y-88.9
X66.04Y-91.44
X66.04Y-93.98
X66.04Y-96.52
X66.04Y-99.06
X66.04Y-101.6
X66.04Y-104.14
X66.04Y-106.68
X66.04Y-113.03
X66.04Y-115.57
X68.58Y-25.4
X68.58Y-27.94
X68.58Y-30.48
X68.58Y-33.02
X68.58Y-35.56
X68.58Y-38.1
X68.58Y-40.64
X68.58Y-43.18
X68.58Y-45.72
X68.58Y-48.26
X68.58Y-50.8
X68.58Y-53.34
X68.58Y-55.88
X68.58Y-58.42
X68.58Y-60.96
X68.58Y-63.5
X68.58Y-66.04
X68.58Y-68.58
X68.58Y-71.12
X68.58Y-73.66
X68.58Y-76.2
X68.58Y-78.74
X68.58Y-81.28
X68.58Y-83.82
X68.58Y-86.36
X68.58Y-88.9
X68.58Y-91.44
X68.58Y-93.98
X68.58Y-96.52
X68.58Y-99.06
X68.58Y-101.6
X68.58Y-104.14
X68.58Y-106.68
X68.58Y-111.76
X68.58Y-114.3
X68.62Y-120.65
X71.12Y-25.4
X71.12Y-27.94
X71.12Y-30.48
X71.12Y-33.02
X71.12Y-35.56
X71.12Y-38.1
X71.12Y-40.64
X71.12Y-43.18
X71.12Y-45.72
X71.12Y-48.26
X71.12Y-50.8
X71.12Y-53.34
X71.12Y-55.88
X71.12Y-58.42
X71.12Y-60.96
X71.12Y-63.5
X71.12Y-66.04
X71.12Y-68.58
X71.12Y-71.12
X71.12Y-73.66
X71.12Y-76.2
X71.12Y-78.74
X71.12Y-81.28
X71.12Y-83.82
X71.12Y-86.36
X71.12Y-88.9
X71.12Y-91.44
X71.12Y-93.98
X71.12Y-96.52
X71.12Y-99.06
X71.12Y-101.6
X71.12Y-104.14
X71.12Y-106.68
X71.12Y-113.03
X71.12Y-115.57
X73.62Y-120.65
X73.66Y-25.4
X73.66Y-27.94
X73.66Y-30.48
X73.66Y-33.02
X73.66Y-35.56
X73.66Y-38.1
X73.66Y-40.64
X73.66Y-43.18
X73.66Y-45.72
X73.66Y-48.26
X73.66Y-50.8
X73.66Y-53.34
X73.66Y-55.88
X73.66Y-58.42
X73.66Y-60.96
X73.66Y-63.5
X73.66Y-66.04
X73.66Y-68.58
X73.66Y-71.12
X73.66Y-73.66
X73.66Y-76.2
X73.66Y-78.74
X73.66Y-81.28
X73.66Y-83.82
X73.66Y-86.36
X73.66Y-88.9
X73.66Y-91.44
X73.66Y-93.98
X73.66Y-96.52
X73.66Y-99.06
X73.66Y-101.6
X73.66Y-104.14
X73.66Y-106.68
X73.66Y-111.76
X73.66Y-114.3
X76.2Y-25.4
X76.2Y-27.94
X76.2Y-30.48
X76.2Y-33.02
X76.2Y-35.56
X76.2Y-38.1
X76.2Y-40.64
X76.2Y-43.18
X76.2Y-45.72
X76.2Y-48.26
X76.2Y-50.8
X76.2Y-53.34
X76.2Y-55.88
X76.2Y-58.42
X76.2Y-60.96
X76.2Y-63.5
X76.2Y-66.04
X76.2Y-68.58
X76.2Y-71.12
X76.2Y-73.66
X76.2Y-76.2
X76.2Y-78.74
X76.2Y-81.28
X76.2Y-83.82
X76.2Y-86.36
X76.2Y-88.9
X76.2Y-91.44
X76.2Y-93.98
X76.2Y-96.52
X76.2Y-99.06
X76.2Y-101.6
X76.2Y-104.14
X76.2Y-106.68
X77.47Y-110.49
X77.47Y-113.03
X77.47Y-115.57
X78.74Y-25.4
X78.74Y-27.94
X78.74Y-30.48
X78.74Y-33.02
X78.74Y-35.56
X78.74Y-38.1
X78.74Y-40.64
X78.74Y-43.18
X78.74Y-45.72
X78.74Y-48.26
X78.74Y-50.8
X78.74Y-53.34
X78.74Y-55.88
X78.74Y-58.42
X78.74Y-60.96
X78.74Y-63.5
X78.74Y-66.04
X78.74Y-68.58
X78.74Y-71.12
X78.74Y-73.66
X78.74Y-76.2
X78.74Y-78.74
X78.74Y-81.28
X78.74Y-83.82
X78.74Y-86.36
X78.74Y-88.9
X78.74Y-91.44
X78.74Y-93.98
X78.74Y-96.52
X78.74Y-99.06
X78.74Y-101.6
X78.74Y-104.14
X78.74Y-106.68
X81.28Y-25.4
X81.28Y-27.94
X81.28Y-30.48
X81.28Y-33.02
X81.28Y-35.56
X81.28Y-38.1
X81.28Y-40.64
X81.28Y-43.18
X81.28Y-45.72
X81.28Y-48.26
X81.28Y-50.8
X81.28Y-53.34
X81.28Y-55.88
X81.28Y-58.42
X81.28Y-60.96
X81.28Y-63.5
X81.28Y-66.04
X81.28Y-68.58
X81.28Y-71.12
X81.28Y-73.66
X81.28Y-76.2
X81.28Y-78.74
X81.28Y-81.28
X81.28Y-83.82
X81.28Y-86.36
X81.28Y-88.9
X81.28Y-91.44
X81.28Y-93.98
X81.28Y-96.52
X81.28Y-99.06
X81.28Y-101.6
X81.28Y-104.14
X81.28Y-106.68
X81.32Y-120.65
X83.82Y-25.4
X83.82Y-27.94
X83.82Y-30.48
X83.82Y-33.02
X83.82Y-35.56
X83.82Y-38.1
X83.82Y-40.64
X83.82Y-43.18
X83.82Y-45.72
X83.82Y-48.26
X83.82Y-50.8
X83.82Y-53.34
X83.82Y-55.88
X83.82Y-58.42
X83.82Y-60.96
X83.82Y-63.5
X83.82Y-66.04
X83.82Y-68.58
X83.82Y-71.12
X83.82Y-73.66
X83.82Y-76.2
X83.82Y-78.74
X83.82Y-81.28
X83.82Y-83.82
X83.82Y-86.36
X83.82Y-88.9
X83.82Y-91.44
X83.82Y-93.98
X83.82Y-96.52
X83.82Y-99.06
X83.82Y-101.6
X83.82Y-104.14
X83.82Y-106.68
X85.09Y-110.505
X85.09Y-113.045
X85.09Y-115.585
X86.32Y-120.65
X86.36Y-25.4
X86.36Y-27.94
X86.36Y-30.48
X86.36Y-33.02
X86.36Y-35.56
X86.36Y-38.1
X86.36Y-40.64
X86.36Y-43.18
X86.36Y-45.72
X86.36Y-48.26
X86.36Y-50.8
X86.36Y-53.34
X86.36Y-55.88
X86.36Y-58.42
X86.36Y-60.96
X86.36Y-63.5
X86.36Y-66.04
X86.36Y-68.58
X86.36Y-71.12
X86.36Y-73.66
X86.36Y-76.2
X86.36Y-78.74
X86.36Y-81.28
X86.36Y-83.82
X86.36Y-86.36
X86.36Y-88.9
X86.36Y-91.44
X86.36Y-93.98
X86.36Y-96.52
X86.36Y-99.06
X86.36Y-101.6
X86.36Y-104.14
X86.36Y-106.68
X88.392Y-113.538
X88.9Y-25.4
X88.9Y-27.94
X88.9Y-30.48
X88.9Y-33.02
X88.9Y-35.56
X88.9Y-38.1
X88.9Y-40.64
X88.9Y-43.18
X88.9Y-45.72
X88.9Y-48.26
X88.9Y-50.8
X88.9Y-53.34
X88.9Y-55.88
X88.9Y-58.42
X88.9Y-60.96
X88.9Y-63.5
X88.9Y-66.04
X88.9Y-68.58
X88.9Y-71.12
X88.9Y-73.66
X88.9Y-76.2
X88.9Y-78.74
X88.9Y-81.28
X88.9Y-83.82
X88.9Y-86.36
X88.9Y-88.9
X88.9Y-91.44
X88.9Y-93.98
X88.9Y-96.52
X88.9Y-99.06
X88.9Y-101.6
X88.9Y-104.14
X88.9Y-106.68
X90.932Y-112.014
X90.932Y-114.808
X91.44Y-25.4
X91.44Y-27.94
X91.44Y-30.48
X91.44Y-33.02
X91.44Y-35.56
X91.44Y-38.1
X91.44Y-40.64
X91.44Y-43.18
X91.44Y-45.72
X91.44Y-48.26
X91.44Y-50.8
X91.44Y-53.34
X91.44Y-55.88
X91.44Y-58.42
X91.44Y-60.96
X91.44Y-63.5
X91.44Y-66.04
X91.44Y-68.58
X91.44Y-71.12
X91.44Y-73.66
X91.44Y-76.2
X91.44Y-78.74
X91.44Y-81.28
X91.44Y-83.82
X91.44Y-86.36
X91.44Y-88.9
X91.44Y-91.44
X91.44Y-93.98
X91.44Y-96.52
X91.44Y-99.06
X91.44Y-101.6
X91.44Y-104.14
X91.44Y-106.68
X93.472Y-110.744
X93.472Y-113.538
X93.98Y-25.4
X93.98Y-27.94
X93.98Y-30.48
X93.98Y-33.02
X93.98Y-35.56
X93.98Y-38.1
X93.98Y-40.64
X93.98Y-43.18
X93.98Y-45.72
X93.98Y-48.26
X93.98Y-50.8
X93.98Y-53.34
X93.98Y-55.88
X93.98Y-58.42
X93.98Y-60.96
X93.98Y-63.5
X93.98Y-66.04
X93.98Y-68.58
X93.98Y-71.12
X93.98Y-73.66
X93.98Y-76.2
X93.98Y-78.74
X93.98Y-81.28
X93.98Y-83.82
X93.98Y-86.36
X93.98Y-88.9
X93.98Y-91.44
X93.98Y-93.98
X93.98Y-96.52
X93.98Y-99.06
X93.98Y-101.6
X93.98Y-104.14
X93.98Y-106.68
X94.02Y-120.65
X96.012Y-112.014
X96.012Y-114.808
X96.52Y-25.4
X96.52Y-27.94
X96.52Y-30.48
X96.52Y-33.02
X96.52Y-35.56
X96.52Y-38.1
X96.52Y-40.64
X96.52Y-43.18
X96.52Y-45.72
X96.52Y-48.26
X96.52Y-50.8
X96.52Y-53.34
X96.52Y-55.88
X96.52Y-58.42
X96.52Y-60.96
X96.52Y-63.5
X96.52Y-66.04
X96.52Y-68.58
X96.52Y-71.12
X96.52Y-73.66
X96.52Y-76.2
X96.52Y-78.74
X96.52Y-81.28
X96.52Y-83.82
X96.52Y-86.36
X96.52Y-88.9
X96.52Y-91.44
X96.52Y-93.98
X96.52Y-96.52
X96.52Y-99.06
X96.52Y-101.6
X96.52Y-104.14
X96.52Y-106.68
X98.552Y-113.538
X98.59Y-110.998
X99.02Y-120.65
X99.06Y-25.4
X99.06Y-27.94
X99.06Y-30.48
X99.06Y-33.02
X99.06Y-35.56
X99.06Y-38.1
X99.06Y-40.64
X99.06Y-43.18
X99.06Y-45.72
X99.06Y-48.26
X99.06Y-50.8
X99.06Y-53.34
X99.06Y-55.88
X99.06Y-58.42
X99.06Y-60.96
X99.06Y-63.5
X99.06Y-66.04
X99.06Y-68.58
X99.06Y-71.12
X99.06Y-73.66
X99.06Y-76.2
X99.06Y-78.74
X99.06Y-81.28
X99.06Y-83.82
X99.06Y-86.36
X99.06Y-88.9
X99.06Y-91.44
X99.06Y-93.98
X99.06Y-96.52
X99.06Y-99.06
X99.06Y-101.6
X99.06Y-104.14
X99.06Y-106.68
X101.092Y-114.808
X101.13Y-112.268
X101.6Y-25.4
X101.6Y-27.94
X101.6Y-30.48
X101.6Y-33.02
X101.6Y-35.56
X101.6Y-38.1
X101.6Y-40.64
X101.6Y-43.18
X101.6Y-45.72
X101.6Y-48.26
X101.6Y-50.8
X101.6Y-53.34
X101.6Y-55.88
X101.6Y-58.42
X101.6Y-60.96
X101.6Y-63.5
X101.6Y-66.04
X101.6Y-68.58
X101.6Y-71.12
X101.6Y-73.66
X101.6Y-76.2
X101.6Y-78.74
X101.6Y-81.28
X101.6Y-83.82
X101.6Y-86.36
X101.6Y-88.9
X101.6Y-91.44
X101.6Y-93.98
X101.6Y-96.52
X101.6Y-99.06
X101.6Y-101.6
X101.6Y-104.14
X101.6Y-106.68
X103.632Y-113.538
X103.67Y-110.998
X104.14Y-25.4
X104.14Y-27.94
X104.14Y-30.48
X104.14Y-33.02
X104.14Y-35.56
X104.14Y-38.1
X104.14Y-40.64
X104.14Y-43.18
X104.14Y-45.72
X104.14Y-48.26
X104.14Y-50.8
X104.14Y-53.34
X104.14Y-55.88
X104.14Y-58.42
X104.14Y-60.96
X104.14Y-63.5
X104.14Y-66.04
X104.14Y-68.58
X104.14Y-71.12
X104.14Y-73.66
X104.14Y-76.2
X104.14Y-78.74
X104.14Y-81.28
X104.14Y-83.82
X104.14Y-86.36
X104.14Y-88.9
X104.14Y-91.44
X104.14Y-93.98
X104.14Y-96.52
X104.14Y-99.06
X104.14Y-101.6
X104.14Y-104.14
X104.14Y-106.68
X106.172Y-112.268
X106.172Y-114.808
X106.68Y-25.4
X106.68Y-27.94
X106.68Y-30.48
X106.68Y-33.02
X106.68Y-35.56
X106.68Y-38.1
X106.68Y-40.64
X106.68Y-43.18
X106.68Y-45.72
X106.68Y-48.26
X106.68Y-50.8
X106.68Y-53.34
X106.68Y-55.88
X106.68Y-58.42
X106.68Y-60.96
X106.68Y-63.5
X106.68Y-66.04
X106.68Y-68.58
X106.68Y-71.12
X106.68Y-73.66
X106.68Y-76.2
X106.68Y-78.74
X106.68Y-81.28
X106.68Y-83.82
X106.68Y-86.36
X106.68Y-88.9
X106.68Y-91.44
X106.68Y-93.98
X106.68Y-96.52
X106.68Y-99.06
X106.68Y-101.6
X106.68Y-104.14
X106.68Y-106.68
X108.585Y-130.85
X108.585Y-135.85
X108.585Y-142.28
X108.585Y-147.28
X108.712Y-110.998
X108.712Y-113.538
X109.22Y-25.4
X109.22Y-27.94
X109.22Y-30.48
X109.22Y-33.02
X109.22Y-35.56
X109.22Y-38.1
X109.22Y-40.64
X109.22Y-43.18
X109.22Y-45.72
X109.22Y-48.26
X109.22Y-50.8
X109.22Y-53.34
X109.22Y-55.88
X109.22Y-58.42
X109.22Y-60.96
X109.22Y-63.5
X109.22Y-66.04
X109.22Y-68.58
X109.22Y-71.12
X109.22Y-73.66
X109.22Y-76.2
X109.22Y-78.74
X109.22Y-81.28
X109.22Y-83.82
X109.22Y-86.36
X109.22Y-88.9
X109.22Y-91.44
X109.22Y-93.98
X109.22Y-96.52
X109.22Y-99.06
X109.22Y-101.6
X109.22Y-104.14
X109.22Y-106.68
X111.252Y-112.268
X111.252Y-114.808
X111.76Y-25.4
X111.76Y-27.94
X111.76Y-30.48
X111.76Y-33.02
X111.76Y-35.56
X111.76Y-38.1
X111.76Y-40.64
X111.76Y-43.18
X111.76Y-45.72
X113.576Y-111.252
X113.576Y-113.792
X114.3Y-25.4
X114.3Y-27.94
X114.3Y-30.48
X114.3Y-33.02
X114.3Y-35.56
X114.3Y-38.1
X114.3Y-40.64
X114.3Y-43.18
X114.3Y-45.72
X114.3Y-50.8
X114.3Y-54.61
X114.3Y-58.42
X114.3Y-62.23
X114.3Y-66.04
X114.3Y-69.85
X114.3Y-73.66
X114.3Y-77.47
X114.3Y-81.28
X114.3Y-85.09
X114.3Y-88.9
X114.3Y-92.71
X114.3Y-96.52
X114.3Y-151.13
X115.57Y-124.46
X116.84Y-25.4
X116.84Y-27.94
X116.84Y-30.48
X116.84Y-33.02
X116.84Y-35.56
X116.84Y-38.1
X116.84Y-40.64
X116.84Y-43.18
X116.84Y-45.72
X116.84Y-120.65
X118.11Y-53.34
X118.11Y-57.15
X118.11Y-60.96
X118.11Y-64.77
X118.11Y-68.58
X118.11Y-72.39
X118.11Y-76.2
X118.11Y-80.01
X118.11Y-83.82
X118.11Y-87.63
X118.11Y-91.44
X118.11Y-95.25
X118.11Y-117.475
X119.3Y-151.13
X119.38Y-25.4
X119.38Y-27.94
X119.38Y-30.48
X119.38Y-33.02
X119.38Y-35.56
X119.38Y-38.1
X119.38Y-40.64
X119.38Y-43.18
X119.38Y-45.72
X120.65Y-114.3
X121.92Y-25.4
X121.92Y-27.94
X121.92Y-30.48
X121.92Y-33.02
X121.92Y-35.56
X121.92Y-38.1
X121.92Y-40.64
X121.92Y-43.18
X122.0Y-151.13
X122.918Y-56.446
X122.918Y-59.216
X122.918Y-61.986
X122.918Y-64.756
X122.918Y-67.526
X122.918Y-70.296
X122.918Y-73.066
X122.918Y-75.836
X122.918Y-78.606
X122.918Y-81.376
X122.918Y-84.146
X122.918Y-86.916
X122.918Y-89.686
X123.19Y-111.125
X124.46Y-27.94
X124.46Y-30.48
X124.46Y-33.02
X124.46Y-35.56
X124.46Y-38.1
X124.46Y-40.64
X124.46Y-43.18
X125.458Y-57.831
X125.458Y-60.601
X125.458Y-63.371
X125.458Y-66.141
X125.458Y-68.911
X125.458Y-71.681
X125.458Y-74.451
X125.458Y-77.221
X125.458Y-79.991
X125.458Y-82.761
X125.458Y-85.531
X125.458Y-88.301
X125.73Y-107.95
X127.0Y-30.48
X127.0Y-33.02
X127.0Y-35.56
X127.0Y-38.1
X127.0Y-40.64
X127.0Y-43.18
X127.0Y-151.13
X129.54Y-30.48
X129.54Y-33.02
X129.54Y-35.56
X129.54Y-38.1
X129.54Y-40.64
X129.54Y-43.18
T4
X111.42Y-129.54
X111.42Y-132.08
X111.42Y-134.62
X111.42Y-140.97
X111.42Y-143.51
X111.42Y-146.05
T5
X124.188Y-49.546
X124.188Y-96.586
T0
M30
