%TF.GenerationSoftware,KiCad,Pcbnew,(6.0.0)*%
%TF.CreationDate,2022-03-13T19:33:12-04:00*%
%TF.ProjectId,Northstar Protoboard,4e6f7274-6873-4746-9172-2050726f746f,rev?*%
%TF.SameCoordinates,Original*%
%TF.FileFunction,Legend,Top*%
%TF.FilePolarity,Positive*%
%FSLAX46Y46*%
G04 Gerber Fmt 4.6, Leading zero omitted, Abs format (unit mm)*
G04 Created by KiCad (PCBNEW (6.0.0)) date 2022-03-13 19:33:12*
%MOMM*%
%LPD*%
G01*
G04 APERTURE LIST*
%ADD10C,0.100000*%
%ADD11C,0.300000*%
%ADD12C,0.150000*%
%ADD13C,0.120000*%
%ADD14C,1.700000*%
%ADD15C,2.000000*%
%ADD16C,3.200000*%
%ADD17R,1.600000X1.600000*%
%ADD18C,1.600000*%
%ADD19R,1.700000X1.700000*%
%ADD20O,1.700000X1.700000*%
%ADD21O,3.500000X3.500000*%
%ADD22R,2.000000X1.905000*%
%ADD23O,2.000000X1.905000*%
%ADD24R,1.700000X7.400000*%
%ADD25O,1.600000X1.600000*%
%ADD26C,1.500000*%
%ADD27C,4.800000*%
G04 APERTURE END LIST*
D10*
X86502200Y-110135200D02*
X86735533Y-110135200D01*
X86835533Y-110501866D02*
X86502200Y-110501866D01*
X86502200Y-109801866D01*
X86835533Y-109801866D01*
X87135533Y-110035200D02*
X87135533Y-110501866D01*
X87135533Y-110101866D02*
X87168866Y-110068533D01*
X87235533Y-110035200D01*
X87335533Y-110035200D01*
X87402200Y-110068533D01*
X87435533Y-110135200D01*
X87435533Y-110501866D01*
X88068866Y-110501866D02*
X88068866Y-110135200D01*
X88035533Y-110068533D01*
X87968866Y-110035200D01*
X87835533Y-110035200D01*
X87768866Y-110068533D01*
X88068866Y-110468533D02*
X88002200Y-110501866D01*
X87835533Y-110501866D01*
X87768866Y-110468533D01*
X87735533Y-110401866D01*
X87735533Y-110335200D01*
X87768866Y-110268533D01*
X87835533Y-110235200D01*
X88002200Y-110235200D01*
X88068866Y-110201866D01*
X88402200Y-110435200D02*
X88435533Y-110468533D01*
X88402200Y-110501866D01*
X88368866Y-110468533D01*
X88402200Y-110435200D01*
X88402200Y-110501866D01*
D11*
X116951428Y-142688571D02*
X117951428Y-142688571D01*
X117308571Y-144188571D01*
X118737142Y-143331428D02*
X118594285Y-143260000D01*
X118522857Y-143188571D01*
X118451428Y-143045714D01*
X118451428Y-142974285D01*
X118522857Y-142831428D01*
X118594285Y-142760000D01*
X118737142Y-142688571D01*
X119022857Y-142688571D01*
X119165714Y-142760000D01*
X119237142Y-142831428D01*
X119308571Y-142974285D01*
X119308571Y-143045714D01*
X119237142Y-143188571D01*
X119165714Y-143260000D01*
X119022857Y-143331428D01*
X118737142Y-143331428D01*
X118594285Y-143402857D01*
X118522857Y-143474285D01*
X118451428Y-143617142D01*
X118451428Y-143902857D01*
X118522857Y-144045714D01*
X118594285Y-144117142D01*
X118737142Y-144188571D01*
X119022857Y-144188571D01*
X119165714Y-144117142D01*
X119237142Y-144045714D01*
X119308571Y-143902857D01*
X119308571Y-143617142D01*
X119237142Y-143474285D01*
X119165714Y-143402857D01*
X119022857Y-143331428D01*
X119808571Y-144188571D02*
X120594285Y-143188571D01*
X119808571Y-143188571D02*
X120594285Y-144188571D01*
X121022857Y-144188571D02*
X121808571Y-143188571D01*
X121022857Y-143188571D02*
X121808571Y-144188571D01*
D10*
X86676000Y-116140666D02*
X86676000Y-115440666D01*
X86676000Y-115774000D02*
X87076000Y-115774000D01*
X87076000Y-116140666D02*
X87076000Y-115440666D01*
X87409333Y-116140666D02*
X87409333Y-115674000D01*
X87409333Y-115440666D02*
X87376000Y-115474000D01*
X87409333Y-115507333D01*
X87442666Y-115474000D01*
X87409333Y-115440666D01*
X87409333Y-115507333D01*
X87676000Y-115440666D02*
X88142666Y-115440666D01*
X87676000Y-116140666D01*
X88142666Y-116140666D01*
X79081533Y-110467000D02*
X79348200Y-110467000D01*
X79181533Y-110233666D02*
X79181533Y-110833666D01*
X79214866Y-110900333D01*
X79281533Y-110933666D01*
X79348200Y-110933666D01*
X79681533Y-110933666D02*
X79614866Y-110900333D01*
X79581533Y-110867000D01*
X79548200Y-110800333D01*
X79548200Y-110600333D01*
X79581533Y-110533666D01*
X79614866Y-110500333D01*
X79681533Y-110467000D01*
X79781533Y-110467000D01*
X79848200Y-110500333D01*
X79881533Y-110533666D01*
X79914866Y-110600333D01*
X79914866Y-110800333D01*
X79881533Y-110867000D01*
X79848200Y-110900333D01*
X79781533Y-110933666D01*
X79681533Y-110933666D01*
X80714866Y-110733666D02*
X81048200Y-110733666D01*
X80648200Y-110933666D02*
X80881533Y-110233666D01*
X81114866Y-110933666D01*
X81648200Y-110933666D02*
X81648200Y-110233666D01*
X81648200Y-110900333D02*
X81581533Y-110933666D01*
X81448200Y-110933666D01*
X81381533Y-110900333D01*
X81348200Y-110867000D01*
X81314866Y-110800333D01*
X81314866Y-110600333D01*
X81348200Y-110533666D01*
X81381533Y-110500333D01*
X81448200Y-110467000D01*
X81581533Y-110467000D01*
X81648200Y-110500333D01*
X81914866Y-110467000D02*
X82081533Y-110933666D01*
X82248200Y-110467000D01*
X82514866Y-110867000D02*
X82548200Y-110900333D01*
X82514866Y-110933666D01*
X82481533Y-110900333D01*
X82514866Y-110867000D01*
X82514866Y-110933666D01*
D12*
X118192752Y-110399580D02*
X118859419Y-110399580D01*
X118430847Y-111399580D01*
X119287990Y-111399580D02*
X119478466Y-111399580D01*
X119573704Y-111351961D01*
X119621323Y-111304342D01*
X119716561Y-111161485D01*
X119764180Y-110971009D01*
X119764180Y-110590057D01*
X119716561Y-110494819D01*
X119668942Y-110447200D01*
X119573704Y-110399580D01*
X119383228Y-110399580D01*
X119287990Y-110447200D01*
X119240371Y-110494819D01*
X119192752Y-110590057D01*
X119192752Y-110828152D01*
X119240371Y-110923390D01*
X119287990Y-110971009D01*
X119383228Y-111018628D01*
X119573704Y-111018628D01*
X119668942Y-110971009D01*
X119716561Y-110923390D01*
X119764180Y-110828152D01*
X120097514Y-111399580D02*
X120621323Y-110732914D01*
X120097514Y-110732914D02*
X120621323Y-111399580D01*
X120907038Y-111399580D02*
X121430847Y-110732914D01*
X120907038Y-110732914D02*
X121430847Y-111399580D01*
D11*
X116951428Y-131258571D02*
X117951428Y-131258571D01*
X117308571Y-132758571D01*
X118594285Y-132758571D02*
X118880000Y-132758571D01*
X119022857Y-132687142D01*
X119094285Y-132615714D01*
X119237142Y-132401428D01*
X119308571Y-132115714D01*
X119308571Y-131544285D01*
X119237142Y-131401428D01*
X119165714Y-131330000D01*
X119022857Y-131258571D01*
X118737142Y-131258571D01*
X118594285Y-131330000D01*
X118522857Y-131401428D01*
X118451428Y-131544285D01*
X118451428Y-131901428D01*
X118522857Y-132044285D01*
X118594285Y-132115714D01*
X118737142Y-132187142D01*
X119022857Y-132187142D01*
X119165714Y-132115714D01*
X119237142Y-132044285D01*
X119308571Y-131901428D01*
X119808571Y-132758571D02*
X120594285Y-131758571D01*
X119808571Y-131758571D02*
X120594285Y-132758571D01*
X121022857Y-132758571D02*
X121808571Y-131758571D01*
X121022857Y-131758571D02*
X121808571Y-132758571D01*
D12*
X64127476Y-159423380D02*
X64746523Y-159423380D01*
X64413190Y-159804333D01*
X64556047Y-159804333D01*
X64651285Y-159851952D01*
X64698904Y-159899571D01*
X64746523Y-159994809D01*
X64746523Y-160232904D01*
X64698904Y-160328142D01*
X64651285Y-160375761D01*
X64556047Y-160423380D01*
X64270333Y-160423380D01*
X64175095Y-160375761D01*
X64127476Y-160328142D01*
X65365571Y-159423380D02*
X65460809Y-159423380D01*
X65556047Y-159471000D01*
X65603666Y-159518619D01*
X65651285Y-159613857D01*
X65698904Y-159804333D01*
X65698904Y-160042428D01*
X65651285Y-160232904D01*
X65603666Y-160328142D01*
X65556047Y-160375761D01*
X65460809Y-160423380D01*
X65365571Y-160423380D01*
X65270333Y-160375761D01*
X65222714Y-160328142D01*
X65175095Y-160232904D01*
X65127476Y-160042428D01*
X65127476Y-159804333D01*
X65175095Y-159613857D01*
X65222714Y-159518619D01*
X65270333Y-159471000D01*
X65365571Y-159423380D01*
D10*
X79081533Y-115318400D02*
X79348200Y-115318400D01*
X79181533Y-115085066D02*
X79181533Y-115685066D01*
X79214866Y-115751733D01*
X79281533Y-115785066D01*
X79348200Y-115785066D01*
X79681533Y-115785066D02*
X79614866Y-115751733D01*
X79581533Y-115718400D01*
X79548200Y-115651733D01*
X79548200Y-115451733D01*
X79581533Y-115385066D01*
X79614866Y-115351733D01*
X79681533Y-115318400D01*
X79781533Y-115318400D01*
X79848200Y-115351733D01*
X79881533Y-115385066D01*
X79914866Y-115451733D01*
X79914866Y-115651733D01*
X79881533Y-115718400D01*
X79848200Y-115751733D01*
X79781533Y-115785066D01*
X79681533Y-115785066D01*
X80981533Y-115418400D02*
X81081533Y-115451733D01*
X81114866Y-115485066D01*
X81148200Y-115551733D01*
X81148200Y-115651733D01*
X81114866Y-115718400D01*
X81081533Y-115751733D01*
X81014866Y-115785066D01*
X80748200Y-115785066D01*
X80748200Y-115085066D01*
X80981533Y-115085066D01*
X81048200Y-115118400D01*
X81081533Y-115151733D01*
X81114866Y-115218400D01*
X81114866Y-115285066D01*
X81081533Y-115351733D01*
X81048200Y-115385066D01*
X80981533Y-115418400D01*
X80748200Y-115418400D01*
X81448200Y-115785066D02*
X81448200Y-115318400D01*
X81448200Y-115451733D02*
X81481533Y-115385066D01*
X81514866Y-115351733D01*
X81581533Y-115318400D01*
X81648200Y-115318400D01*
X82181533Y-115785066D02*
X82181533Y-115085066D01*
X82181533Y-115751733D02*
X82114866Y-115785066D01*
X81981533Y-115785066D01*
X81914866Y-115751733D01*
X81881533Y-115718400D01*
X81848200Y-115651733D01*
X81848200Y-115451733D01*
X81881533Y-115385066D01*
X81914866Y-115351733D01*
X81981533Y-115318400D01*
X82114866Y-115318400D01*
X82181533Y-115351733D01*
X82514866Y-115718400D02*
X82548200Y-115751733D01*
X82514866Y-115785066D01*
X82481533Y-115751733D01*
X82514866Y-115718400D01*
X82514866Y-115785066D01*
D12*
X114816285Y-160153619D02*
X114863904Y-160106000D01*
X114959142Y-160058380D01*
X115197238Y-160058380D01*
X115292476Y-160106000D01*
X115340095Y-160153619D01*
X115387714Y-160248857D01*
X115387714Y-160344095D01*
X115340095Y-160486952D01*
X114768666Y-161058380D01*
X115387714Y-161058380D01*
X111918952Y-119924580D02*
X112585619Y-119924580D01*
X112157047Y-120924580D01*
X113109428Y-120353152D02*
X113014190Y-120305533D01*
X112966571Y-120257914D01*
X112918952Y-120162676D01*
X112918952Y-120115057D01*
X112966571Y-120019819D01*
X113014190Y-119972200D01*
X113109428Y-119924580D01*
X113299904Y-119924580D01*
X113395142Y-119972200D01*
X113442761Y-120019819D01*
X113490380Y-120115057D01*
X113490380Y-120162676D01*
X113442761Y-120257914D01*
X113395142Y-120305533D01*
X113299904Y-120353152D01*
X113109428Y-120353152D01*
X113014190Y-120400771D01*
X112966571Y-120448390D01*
X112918952Y-120543628D01*
X112918952Y-120734104D01*
X112966571Y-120829342D01*
X113014190Y-120876961D01*
X113109428Y-120924580D01*
X113299904Y-120924580D01*
X113395142Y-120876961D01*
X113442761Y-120829342D01*
X113490380Y-120734104D01*
X113490380Y-120543628D01*
X113442761Y-120448390D01*
X113395142Y-120400771D01*
X113299904Y-120353152D01*
X113823714Y-120924580D02*
X114347523Y-120257914D01*
X113823714Y-120257914D02*
X114347523Y-120924580D01*
X114633238Y-120924580D02*
X115157047Y-120257914D01*
X114633238Y-120257914D02*
X115157047Y-120924580D01*
%TO.C,J6*%
X102774857Y-116530380D02*
X102774857Y-115530380D01*
X103012952Y-116625619D02*
X103774857Y-116625619D01*
X104489142Y-115530380D02*
X104012952Y-115530380D01*
X103965333Y-116006571D01*
X104012952Y-115958952D01*
X104108190Y-115911333D01*
X104346285Y-115911333D01*
X104441523Y-115958952D01*
X104489142Y-116006571D01*
X104536761Y-116101809D01*
X104536761Y-116339904D01*
X104489142Y-116435142D01*
X104441523Y-116482761D01*
X104346285Y-116530380D01*
X104108190Y-116530380D01*
X104012952Y-116482761D01*
X103965333Y-116435142D01*
%TO.C,J41*%
X114808095Y-94162619D02*
X114855714Y-94115000D01*
X114950952Y-94067380D01*
X115189047Y-94067380D01*
X115284285Y-94115000D01*
X115331904Y-94162619D01*
X115379523Y-94257857D01*
X115379523Y-94353095D01*
X115331904Y-94495952D01*
X114760476Y-95067380D01*
X115379523Y-95067380D01*
X116284285Y-94067380D02*
X115808095Y-94067380D01*
X115760476Y-94543571D01*
X115808095Y-94495952D01*
X115903333Y-94448333D01*
X116141428Y-94448333D01*
X116236666Y-94495952D01*
X116284285Y-94543571D01*
X116331904Y-94638809D01*
X116331904Y-94876904D01*
X116284285Y-94972142D01*
X116236666Y-95019761D01*
X116141428Y-95067380D01*
X115903333Y-95067380D01*
X115808095Y-95019761D01*
X115760476Y-94972142D01*
D10*
%TO.C,J28*%
X109818666Y-110534666D02*
X109818666Y-109834666D01*
X110285333Y-109834666D02*
X110418666Y-109834666D01*
X110485333Y-109868000D01*
X110552000Y-109934666D01*
X110585333Y-110068000D01*
X110585333Y-110301333D01*
X110552000Y-110434666D01*
X110485333Y-110501333D01*
X110418666Y-110534666D01*
X110285333Y-110534666D01*
X110218666Y-110501333D01*
X110152000Y-110434666D01*
X110118666Y-110301333D01*
X110118666Y-110068000D01*
X110152000Y-109934666D01*
X110218666Y-109868000D01*
X110285333Y-109834666D01*
X111418666Y-110534666D02*
X111418666Y-109834666D01*
X111752000Y-110534666D02*
X111752000Y-109834666D01*
X112152000Y-110534666D01*
X112152000Y-109834666D01*
X112385333Y-109834666D02*
X112785333Y-109834666D01*
X112585333Y-110534666D02*
X112585333Y-109834666D01*
D12*
%TO.C,J45*%
X114808095Y-86542619D02*
X114855714Y-86495000D01*
X114950952Y-86447380D01*
X115189047Y-86447380D01*
X115284285Y-86495000D01*
X115331904Y-86542619D01*
X115379523Y-86637857D01*
X115379523Y-86733095D01*
X115331904Y-86875952D01*
X114760476Y-87447380D01*
X115379523Y-87447380D01*
X115712857Y-86447380D02*
X116331904Y-86447380D01*
X115998571Y-86828333D01*
X116141428Y-86828333D01*
X116236666Y-86875952D01*
X116284285Y-86923571D01*
X116331904Y-87018809D01*
X116331904Y-87256904D01*
X116284285Y-87352142D01*
X116236666Y-87399761D01*
X116141428Y-87447380D01*
X115855714Y-87447380D01*
X115760476Y-87399761D01*
X115712857Y-87352142D01*
%TO.C,J12*%
X92614857Y-116530380D02*
X92614857Y-115530380D01*
X92852952Y-116625619D02*
X93614857Y-116625619D01*
X94376761Y-116530380D02*
X93805333Y-116530380D01*
X94091047Y-116530380D02*
X94091047Y-115530380D01*
X93995809Y-115673238D01*
X93900571Y-115768476D01*
X93805333Y-115816095D01*
%TO.C,J3*%
X60309142Y-117054380D02*
X59832952Y-117054380D01*
X59785333Y-117530571D01*
X59832952Y-117482952D01*
X59928190Y-117435333D01*
X60166285Y-117435333D01*
X60261523Y-117482952D01*
X60309142Y-117530571D01*
X60356761Y-117625809D01*
X60356761Y-117863904D01*
X60309142Y-117959142D01*
X60261523Y-118006761D01*
X60166285Y-118054380D01*
X59928190Y-118054380D01*
X59832952Y-118006761D01*
X59785333Y-117959142D01*
X60690095Y-117387714D02*
X60928190Y-118054380D01*
X61166285Y-117387714D01*
%TO.C,J58*%
X112585476Y-62015714D02*
X112585476Y-62682380D01*
X112347380Y-61634761D02*
X112109285Y-62349047D01*
X112728333Y-62349047D01*
D10*
%TO.C,J37*%
X107445333Y-109264666D02*
X107445333Y-108564666D01*
X107912000Y-108564666D02*
X108045333Y-108564666D01*
X108112000Y-108598000D01*
X108178666Y-108664666D01*
X108212000Y-108798000D01*
X108212000Y-109031333D01*
X108178666Y-109164666D01*
X108112000Y-109231333D01*
X108045333Y-109264666D01*
X107912000Y-109264666D01*
X107845333Y-109231333D01*
X107778666Y-109164666D01*
X107745333Y-109031333D01*
X107745333Y-108798000D01*
X107778666Y-108664666D01*
X107845333Y-108598000D01*
X107912000Y-108564666D01*
X109012000Y-109064666D02*
X109345333Y-109064666D01*
X108945333Y-109264666D02*
X109178666Y-108564666D01*
X109412000Y-109264666D01*
X109612000Y-108631333D02*
X109645333Y-108598000D01*
X109712000Y-108564666D01*
X109878666Y-108564666D01*
X109945333Y-108598000D01*
X109978666Y-108631333D01*
X110012000Y-108698000D01*
X110012000Y-108764666D01*
X109978666Y-108864666D01*
X109578666Y-109264666D01*
X110012000Y-109264666D01*
D12*
%TO.C,J52*%
X112061666Y-72477380D02*
X112728333Y-72477380D01*
X112299761Y-73477380D01*
%TO.C,C8*%
X102719142Y-141644666D02*
X102766761Y-141692285D01*
X102814380Y-141835142D01*
X102814380Y-141930380D01*
X102766761Y-142073238D01*
X102671523Y-142168476D01*
X102576285Y-142216095D01*
X102385809Y-142263714D01*
X102242952Y-142263714D01*
X102052476Y-142216095D01*
X101957238Y-142168476D01*
X101862000Y-142073238D01*
X101814380Y-141930380D01*
X101814380Y-141835142D01*
X101862000Y-141692285D01*
X101909619Y-141644666D01*
X102242952Y-141073238D02*
X102195333Y-141168476D01*
X102147714Y-141216095D01*
X102052476Y-141263714D01*
X102004857Y-141263714D01*
X101909619Y-141216095D01*
X101862000Y-141168476D01*
X101814380Y-141073238D01*
X101814380Y-140882761D01*
X101862000Y-140787523D01*
X101909619Y-140739904D01*
X102004857Y-140692285D01*
X102052476Y-140692285D01*
X102147714Y-140739904D01*
X102195333Y-140787523D01*
X102242952Y-140882761D01*
X102242952Y-141073238D01*
X102290571Y-141168476D01*
X102338190Y-141216095D01*
X102433428Y-141263714D01*
X102623904Y-141263714D01*
X102719142Y-141216095D01*
X102766761Y-141168476D01*
X102814380Y-141073238D01*
X102814380Y-140882761D01*
X102766761Y-140787523D01*
X102719142Y-140739904D01*
X102623904Y-140692285D01*
X102433428Y-140692285D01*
X102338190Y-140739904D01*
X102290571Y-140787523D01*
X102242952Y-140882761D01*
%TO.C,J29*%
X100177621Y-109670380D02*
X100368097Y-109670380D01*
X100463335Y-109718000D01*
X100558573Y-109813238D01*
X100606192Y-110003714D01*
X100606192Y-110337047D01*
X100558573Y-110527523D01*
X100463335Y-110622761D01*
X100368097Y-110670380D01*
X100177621Y-110670380D01*
X100082382Y-110622761D01*
X99987144Y-110527523D01*
X99939525Y-110337047D01*
X99939525Y-110003714D01*
X99987144Y-109813238D01*
X100082382Y-109718000D01*
X100177621Y-109670380D01*
X100796668Y-110765619D02*
X101558573Y-110765619D01*
X102225240Y-110003714D02*
X102225240Y-110670380D01*
X101987144Y-109622761D02*
X101749049Y-110337047D01*
X102368097Y-110337047D01*
%TO.C,C5*%
X124333333Y-151487142D02*
X124285714Y-151534761D01*
X124142857Y-151582380D01*
X124047619Y-151582380D01*
X123904761Y-151534761D01*
X123809523Y-151439523D01*
X123761904Y-151344285D01*
X123714285Y-151153809D01*
X123714285Y-151010952D01*
X123761904Y-150820476D01*
X123809523Y-150725238D01*
X123904761Y-150630000D01*
X124047619Y-150582380D01*
X124142857Y-150582380D01*
X124285714Y-150630000D01*
X124333333Y-150677619D01*
X125238095Y-150582380D02*
X124761904Y-150582380D01*
X124714285Y-151058571D01*
X124761904Y-151010952D01*
X124857142Y-150963333D01*
X125095238Y-150963333D01*
X125190476Y-151010952D01*
X125238095Y-151058571D01*
X125285714Y-151153809D01*
X125285714Y-151391904D01*
X125238095Y-151487142D01*
X125190476Y-151534761D01*
X125095238Y-151582380D01*
X124857142Y-151582380D01*
X124761904Y-151534761D01*
X124714285Y-151487142D01*
%TO.C,C13*%
X95877142Y-121007142D02*
X95829523Y-121054761D01*
X95686666Y-121102380D01*
X95591428Y-121102380D01*
X95448571Y-121054761D01*
X95353333Y-120959523D01*
X95305714Y-120864285D01*
X95258095Y-120673809D01*
X95258095Y-120530952D01*
X95305714Y-120340476D01*
X95353333Y-120245238D01*
X95448571Y-120150000D01*
X95591428Y-120102380D01*
X95686666Y-120102380D01*
X95829523Y-120150000D01*
X95877142Y-120197619D01*
X96829523Y-121102380D02*
X96258095Y-121102380D01*
X96543809Y-121102380D02*
X96543809Y-120102380D01*
X96448571Y-120245238D01*
X96353333Y-120340476D01*
X96258095Y-120388095D01*
X97162857Y-120102380D02*
X97781904Y-120102380D01*
X97448571Y-120483333D01*
X97591428Y-120483333D01*
X97686666Y-120530952D01*
X97734285Y-120578571D01*
X97781904Y-120673809D01*
X97781904Y-120911904D01*
X97734285Y-121007142D01*
X97686666Y-121054761D01*
X97591428Y-121102380D01*
X97305714Y-121102380D01*
X97210476Y-121054761D01*
X97162857Y-121007142D01*
%TO.C,J4*%
X116865495Y-113749200D02*
X116770257Y-113701580D01*
X116627400Y-113701580D01*
X116484542Y-113749200D01*
X116389304Y-113844438D01*
X116341685Y-113939676D01*
X116294066Y-114130152D01*
X116294066Y-114273009D01*
X116341685Y-114463485D01*
X116389304Y-114558723D01*
X116484542Y-114653961D01*
X116627400Y-114701580D01*
X116722638Y-114701580D01*
X116865495Y-114653961D01*
X116913114Y-114606342D01*
X116913114Y-114273009D01*
X116722638Y-114273009D01*
X117341685Y-114701580D02*
X117341685Y-113701580D01*
X117913114Y-114701580D01*
X117913114Y-113701580D01*
X118389304Y-114701580D02*
X118389304Y-113701580D01*
X118627400Y-113701580D01*
X118770257Y-113749200D01*
X118865495Y-113844438D01*
X118913114Y-113939676D01*
X118960733Y-114130152D01*
X118960733Y-114273009D01*
X118913114Y-114463485D01*
X118865495Y-114558723D01*
X118770257Y-114653961D01*
X118627400Y-114701580D01*
X118389304Y-114701580D01*
%TO.C,J27*%
X74850952Y-118352380D02*
X74850952Y-117352380D01*
X74850952Y-118304761D02*
X74755714Y-118352380D01*
X74565238Y-118352380D01*
X74470000Y-118304761D01*
X74422380Y-118257142D01*
X74374761Y-118161904D01*
X74374761Y-117876190D01*
X74422380Y-117780952D01*
X74470000Y-117733333D01*
X74565238Y-117685714D01*
X74755714Y-117685714D01*
X74850952Y-117733333D01*
X75327142Y-118352380D02*
X75327142Y-117685714D01*
X75327142Y-117352380D02*
X75279523Y-117400000D01*
X75327142Y-117447619D01*
X75374761Y-117400000D01*
X75327142Y-117352380D01*
X75327142Y-117447619D01*
X75803333Y-118352380D02*
X75803333Y-117685714D01*
X75803333Y-117876190D02*
X75850952Y-117780952D01*
X75898571Y-117733333D01*
X75993809Y-117685714D01*
X76089047Y-117685714D01*
X76803333Y-118304761D02*
X76708095Y-118352380D01*
X76517619Y-118352380D01*
X76422380Y-118304761D01*
X76374761Y-118209523D01*
X76374761Y-117828571D01*
X76422380Y-117733333D01*
X76517619Y-117685714D01*
X76708095Y-117685714D01*
X76803333Y-117733333D01*
X76850952Y-117828571D01*
X76850952Y-117923809D01*
X76374761Y-118019047D01*
X77708095Y-118304761D02*
X77612857Y-118352380D01*
X77422380Y-118352380D01*
X77327142Y-118304761D01*
X77279523Y-118257142D01*
X77231904Y-118161904D01*
X77231904Y-117876190D01*
X77279523Y-117780952D01*
X77327142Y-117733333D01*
X77422380Y-117685714D01*
X77612857Y-117685714D01*
X77708095Y-117733333D01*
X77993809Y-117685714D02*
X78374761Y-117685714D01*
X78136666Y-117352380D02*
X78136666Y-118209523D01*
X78184285Y-118304761D01*
X78279523Y-118352380D01*
X78374761Y-118352380D01*
X78708095Y-118352380D02*
X78708095Y-117685714D01*
X78708095Y-117352380D02*
X78660476Y-117400000D01*
X78708095Y-117447619D01*
X78755714Y-117400000D01*
X78708095Y-117352380D01*
X78708095Y-117447619D01*
X79327142Y-118352380D02*
X79231904Y-118304761D01*
X79184285Y-118257142D01*
X79136666Y-118161904D01*
X79136666Y-117876190D01*
X79184285Y-117780952D01*
X79231904Y-117733333D01*
X79327142Y-117685714D01*
X79470000Y-117685714D01*
X79565238Y-117733333D01*
X79612857Y-117780952D01*
X79660476Y-117876190D01*
X79660476Y-118161904D01*
X79612857Y-118257142D01*
X79565238Y-118304761D01*
X79470000Y-118352380D01*
X79327142Y-118352380D01*
X80089047Y-117685714D02*
X80089047Y-118352380D01*
X80089047Y-117780952D02*
X80136666Y-117733333D01*
X80231904Y-117685714D01*
X80374761Y-117685714D01*
X80470000Y-117733333D01*
X80517619Y-117828571D01*
X80517619Y-118352380D01*
D10*
%TO.C,J35*%
X104905333Y-117918666D02*
X104905333Y-117218666D01*
X105372000Y-117218666D02*
X105505333Y-117218666D01*
X105572000Y-117252000D01*
X105638666Y-117318666D01*
X105672000Y-117452000D01*
X105672000Y-117685333D01*
X105638666Y-117818666D01*
X105572000Y-117885333D01*
X105505333Y-117918666D01*
X105372000Y-117918666D01*
X105305333Y-117885333D01*
X105238666Y-117818666D01*
X105205333Y-117685333D01*
X105205333Y-117452000D01*
X105238666Y-117318666D01*
X105305333Y-117252000D01*
X105372000Y-117218666D01*
X106472000Y-117718666D02*
X106805333Y-117718666D01*
X106405333Y-117918666D02*
X106638666Y-117218666D01*
X106872000Y-117918666D01*
X107472000Y-117918666D02*
X107072000Y-117918666D01*
X107272000Y-117918666D02*
X107272000Y-117218666D01*
X107205333Y-117318666D01*
X107138666Y-117385333D01*
X107072000Y-117418666D01*
D12*
%TO.C,J47*%
X114808095Y-82732619D02*
X114855714Y-82685000D01*
X114950952Y-82637380D01*
X115189047Y-82637380D01*
X115284285Y-82685000D01*
X115331904Y-82732619D01*
X115379523Y-82827857D01*
X115379523Y-82923095D01*
X115331904Y-83065952D01*
X114760476Y-83637380D01*
X115379523Y-83637380D01*
X115760476Y-82732619D02*
X115808095Y-82685000D01*
X115903333Y-82637380D01*
X116141428Y-82637380D01*
X116236666Y-82685000D01*
X116284285Y-82732619D01*
X116331904Y-82827857D01*
X116331904Y-82923095D01*
X116284285Y-83065952D01*
X115712857Y-83637380D01*
X116331904Y-83637380D01*
%TO.C,C4*%
X63857142Y-152566666D02*
X63904761Y-152614285D01*
X63952380Y-152757142D01*
X63952380Y-152852380D01*
X63904761Y-152995238D01*
X63809523Y-153090476D01*
X63714285Y-153138095D01*
X63523809Y-153185714D01*
X63380952Y-153185714D01*
X63190476Y-153138095D01*
X63095238Y-153090476D01*
X63000000Y-152995238D01*
X62952380Y-152852380D01*
X62952380Y-152757142D01*
X63000000Y-152614285D01*
X63047619Y-152566666D01*
X63285714Y-151709523D02*
X63952380Y-151709523D01*
X62904761Y-151947619D02*
X63619047Y-152185714D01*
X63619047Y-151566666D01*
%TO.C,C2*%
X125563333Y-154027142D02*
X125515714Y-154074761D01*
X125372857Y-154122380D01*
X125277619Y-154122380D01*
X125134761Y-154074761D01*
X125039523Y-153979523D01*
X124991904Y-153884285D01*
X124944285Y-153693809D01*
X124944285Y-153550952D01*
X124991904Y-153360476D01*
X125039523Y-153265238D01*
X125134761Y-153170000D01*
X125277619Y-153122380D01*
X125372857Y-153122380D01*
X125515714Y-153170000D01*
X125563333Y-153217619D01*
X125944285Y-153217619D02*
X125991904Y-153170000D01*
X126087142Y-153122380D01*
X126325238Y-153122380D01*
X126420476Y-153170000D01*
X126468095Y-153217619D01*
X126515714Y-153312857D01*
X126515714Y-153408095D01*
X126468095Y-153550952D01*
X125896666Y-154122380D01*
X126515714Y-154122380D01*
X120464438Y-152995380D02*
X120273961Y-152995380D01*
X120178723Y-153043000D01*
X120131104Y-153090619D01*
X120035866Y-153233476D01*
X119988247Y-153423952D01*
X119988247Y-153804904D01*
X120035866Y-153900142D01*
X120083485Y-153947761D01*
X120178723Y-153995380D01*
X120369200Y-153995380D01*
X120464438Y-153947761D01*
X120512057Y-153900142D01*
X120559676Y-153804904D01*
X120559676Y-153566809D01*
X120512057Y-153471571D01*
X120464438Y-153423952D01*
X120369200Y-153376333D01*
X120178723Y-153376333D01*
X120083485Y-153423952D01*
X120035866Y-153471571D01*
X119988247Y-153566809D01*
X120988247Y-153900142D02*
X121035866Y-153947761D01*
X120988247Y-153995380D01*
X120940628Y-153947761D01*
X120988247Y-153900142D01*
X120988247Y-153995380D01*
X121607295Y-153423952D02*
X121512057Y-153376333D01*
X121464438Y-153328714D01*
X121416819Y-153233476D01*
X121416819Y-153185857D01*
X121464438Y-153090619D01*
X121512057Y-153043000D01*
X121607295Y-152995380D01*
X121797771Y-152995380D01*
X121893009Y-153043000D01*
X121940628Y-153090619D01*
X121988247Y-153185857D01*
X121988247Y-153233476D01*
X121940628Y-153328714D01*
X121893009Y-153376333D01*
X121797771Y-153423952D01*
X121607295Y-153423952D01*
X121512057Y-153471571D01*
X121464438Y-153519190D01*
X121416819Y-153614428D01*
X121416819Y-153804904D01*
X121464438Y-153900142D01*
X121512057Y-153947761D01*
X121607295Y-153995380D01*
X121797771Y-153995380D01*
X121893009Y-153947761D01*
X121940628Y-153900142D01*
X121988247Y-153804904D01*
X121988247Y-153614428D01*
X121940628Y-153519190D01*
X121893009Y-153471571D01*
X121797771Y-153423952D01*
X122845390Y-153328714D02*
X122845390Y-153995380D01*
X122416819Y-153328714D02*
X122416819Y-153852523D01*
X122464438Y-153947761D01*
X122559676Y-153995380D01*
X122702533Y-153995380D01*
X122797771Y-153947761D01*
X122845390Y-153900142D01*
X123654914Y-153471571D02*
X123321580Y-153471571D01*
X123321580Y-153995380D02*
X123321580Y-152995380D01*
X123797771Y-152995380D01*
%TO.C,J39*%
X111569523Y-96972380D02*
X110998095Y-96972380D01*
X111283809Y-96972380D02*
X111283809Y-95972380D01*
X111188571Y-96115238D01*
X111093333Y-96210476D01*
X110998095Y-96258095D01*
X111902857Y-95972380D02*
X112521904Y-95972380D01*
X112188571Y-96353333D01*
X112331428Y-96353333D01*
X112426666Y-96400952D01*
X112474285Y-96448571D01*
X112521904Y-96543809D01*
X112521904Y-96781904D01*
X112474285Y-96877142D01*
X112426666Y-96924761D01*
X112331428Y-96972380D01*
X112045714Y-96972380D01*
X111950476Y-96924761D01*
X111902857Y-96877142D01*
%TO.C,J55*%
X115379523Y-68397380D02*
X114808095Y-68397380D01*
X115093809Y-68397380D02*
X115093809Y-67397380D01*
X114998571Y-67540238D01*
X114903333Y-67635476D01*
X114808095Y-67683095D01*
X115950952Y-67825952D02*
X115855714Y-67778333D01*
X115808095Y-67730714D01*
X115760476Y-67635476D01*
X115760476Y-67587857D01*
X115808095Y-67492619D01*
X115855714Y-67445000D01*
X115950952Y-67397380D01*
X116141428Y-67397380D01*
X116236666Y-67445000D01*
X116284285Y-67492619D01*
X116331904Y-67587857D01*
X116331904Y-67635476D01*
X116284285Y-67730714D01*
X116236666Y-67778333D01*
X116141428Y-67825952D01*
X115950952Y-67825952D01*
X115855714Y-67873571D01*
X115808095Y-67921190D01*
X115760476Y-68016428D01*
X115760476Y-68206904D01*
X115808095Y-68302142D01*
X115855714Y-68349761D01*
X115950952Y-68397380D01*
X116141428Y-68397380D01*
X116236666Y-68349761D01*
X116284285Y-68302142D01*
X116331904Y-68206904D01*
X116331904Y-68016428D01*
X116284285Y-67921190D01*
X116236666Y-67873571D01*
X116141428Y-67825952D01*
%TO.C,J2*%
X112001371Y-124785380D02*
X111429942Y-124785380D01*
X111715657Y-124785380D02*
X111715657Y-123785380D01*
X111620419Y-123928238D01*
X111525180Y-124023476D01*
X111429942Y-124071095D01*
X112382323Y-123880619D02*
X112429942Y-123833000D01*
X112525180Y-123785380D01*
X112763276Y-123785380D01*
X112858514Y-123833000D01*
X112906133Y-123880619D01*
X112953752Y-123975857D01*
X112953752Y-124071095D01*
X112906133Y-124213952D01*
X112334704Y-124785380D01*
X112953752Y-124785380D01*
X113287085Y-124118714D02*
X113525180Y-124785380D01*
X113763276Y-124118714D01*
%TO.C,J56*%
X112633095Y-65492380D02*
X112156904Y-65492380D01*
X112109285Y-65968571D01*
X112156904Y-65920952D01*
X112252142Y-65873333D01*
X112490238Y-65873333D01*
X112585476Y-65920952D01*
X112633095Y-65968571D01*
X112680714Y-66063809D01*
X112680714Y-66301904D01*
X112633095Y-66397142D01*
X112585476Y-66444761D01*
X112490238Y-66492380D01*
X112252142Y-66492380D01*
X112156904Y-66444761D01*
X112109285Y-66397142D01*
%TO.C,J30*%
X95059619Y-109416380D02*
X95250095Y-109416380D01*
X95345333Y-109464000D01*
X95440571Y-109559238D01*
X95488190Y-109749714D01*
X95488190Y-110083047D01*
X95440571Y-110273523D01*
X95345333Y-110368761D01*
X95250095Y-110416380D01*
X95059619Y-110416380D01*
X94964380Y-110368761D01*
X94869142Y-110273523D01*
X94821523Y-110083047D01*
X94821523Y-109749714D01*
X94869142Y-109559238D01*
X94964380Y-109464000D01*
X95059619Y-109416380D01*
X95678666Y-110511619D02*
X96440571Y-110511619D01*
X96631047Y-109511619D02*
X96678666Y-109464000D01*
X96773904Y-109416380D01*
X97012000Y-109416380D01*
X97107238Y-109464000D01*
X97154857Y-109511619D01*
X97202476Y-109606857D01*
X97202476Y-109702095D01*
X97154857Y-109844952D01*
X96583428Y-110416380D01*
X97202476Y-110416380D01*
%TO.C,C6*%
X116633333Y-151487142D02*
X116585714Y-151534761D01*
X116442857Y-151582380D01*
X116347619Y-151582380D01*
X116204761Y-151534761D01*
X116109523Y-151439523D01*
X116061904Y-151344285D01*
X116014285Y-151153809D01*
X116014285Y-151010952D01*
X116061904Y-150820476D01*
X116109523Y-150725238D01*
X116204761Y-150630000D01*
X116347619Y-150582380D01*
X116442857Y-150582380D01*
X116585714Y-150630000D01*
X116633333Y-150677619D01*
X117490476Y-150582380D02*
X117300000Y-150582380D01*
X117204761Y-150630000D01*
X117157142Y-150677619D01*
X117061904Y-150820476D01*
X117014285Y-151010952D01*
X117014285Y-151391904D01*
X117061904Y-151487142D01*
X117109523Y-151534761D01*
X117204761Y-151582380D01*
X117395238Y-151582380D01*
X117490476Y-151534761D01*
X117538095Y-151487142D01*
X117585714Y-151391904D01*
X117585714Y-151153809D01*
X117538095Y-151058571D01*
X117490476Y-151010952D01*
X117395238Y-150963333D01*
X117204761Y-150963333D01*
X117109523Y-151010952D01*
X117061904Y-151058571D01*
X117014285Y-151153809D01*
D10*
%TO.C,J9*%
X112926002Y-116028000D02*
X113026002Y-116061333D01*
X113059335Y-116094666D01*
X113092668Y-116161333D01*
X113092668Y-116261333D01*
X113059335Y-116328000D01*
X113026002Y-116361333D01*
X112959335Y-116394666D01*
X112692668Y-116394666D01*
X112692668Y-115694666D01*
X112926002Y-115694666D01*
X112992668Y-115728000D01*
X113026002Y-115761333D01*
X113059335Y-115828000D01*
X113059335Y-115894666D01*
X113026002Y-115961333D01*
X112992668Y-115994666D01*
X112926002Y-116028000D01*
X112692668Y-116028000D01*
X113792668Y-116394666D02*
X113559335Y-116061333D01*
X113392668Y-116394666D02*
X113392668Y-115694666D01*
X113659335Y-115694666D01*
X113726002Y-115728000D01*
X113759335Y-115761333D01*
X113792668Y-115828000D01*
X113792668Y-115928000D01*
X113759335Y-115994666D01*
X113726002Y-116028000D01*
X113659335Y-116061333D01*
X113392668Y-116061333D01*
X114092668Y-116394666D02*
X114092668Y-115694666D01*
X114259335Y-115694666D01*
X114359335Y-115728000D01*
X114426002Y-115794666D01*
X114459335Y-115861333D01*
X114492668Y-115994666D01*
X114492668Y-116094666D01*
X114459335Y-116228000D01*
X114426002Y-116294666D01*
X114359335Y-116361333D01*
X114259335Y-116394666D01*
X114092668Y-116394666D01*
D12*
%TO.C,J21*%
X70381904Y-118054380D02*
X70381904Y-117054380D01*
X70620000Y-117054380D01*
X70762857Y-117102000D01*
X70858095Y-117197238D01*
X70905714Y-117292476D01*
X70953333Y-117482952D01*
X70953333Y-117625809D01*
X70905714Y-117816285D01*
X70858095Y-117911523D01*
X70762857Y-118006761D01*
X70620000Y-118054380D01*
X70381904Y-118054380D01*
X71810476Y-117054380D02*
X71620000Y-117054380D01*
X71524761Y-117102000D01*
X71477142Y-117149619D01*
X71381904Y-117292476D01*
X71334285Y-117482952D01*
X71334285Y-117863904D01*
X71381904Y-117959142D01*
X71429523Y-118006761D01*
X71524761Y-118054380D01*
X71715238Y-118054380D01*
X71810476Y-118006761D01*
X71858095Y-117959142D01*
X71905714Y-117863904D01*
X71905714Y-117625809D01*
X71858095Y-117530571D01*
X71810476Y-117482952D01*
X71715238Y-117435333D01*
X71524761Y-117435333D01*
X71429523Y-117482952D01*
X71381904Y-117530571D01*
X71334285Y-117625809D01*
%TO.C,C1*%
X117943333Y-154027142D02*
X117895714Y-154074761D01*
X117752857Y-154122380D01*
X117657619Y-154122380D01*
X117514761Y-154074761D01*
X117419523Y-153979523D01*
X117371904Y-153884285D01*
X117324285Y-153693809D01*
X117324285Y-153550952D01*
X117371904Y-153360476D01*
X117419523Y-153265238D01*
X117514761Y-153170000D01*
X117657619Y-153122380D01*
X117752857Y-153122380D01*
X117895714Y-153170000D01*
X117943333Y-153217619D01*
X118895714Y-154122380D02*
X118324285Y-154122380D01*
X118610000Y-154122380D02*
X118610000Y-153122380D01*
X118514761Y-153265238D01*
X118419523Y-153360476D01*
X118324285Y-153408095D01*
X112336438Y-153173180D02*
X112145961Y-153173180D01*
X112050723Y-153220800D01*
X112003104Y-153268419D01*
X111907866Y-153411276D01*
X111860247Y-153601752D01*
X111860247Y-153982704D01*
X111907866Y-154077942D01*
X111955485Y-154125561D01*
X112050723Y-154173180D01*
X112241200Y-154173180D01*
X112336438Y-154125561D01*
X112384057Y-154077942D01*
X112431676Y-153982704D01*
X112431676Y-153744609D01*
X112384057Y-153649371D01*
X112336438Y-153601752D01*
X112241200Y-153554133D01*
X112050723Y-153554133D01*
X111955485Y-153601752D01*
X111907866Y-153649371D01*
X111860247Y-153744609D01*
X112860247Y-154077942D02*
X112907866Y-154125561D01*
X112860247Y-154173180D01*
X112812628Y-154125561D01*
X112860247Y-154077942D01*
X112860247Y-154173180D01*
X113479295Y-153601752D02*
X113384057Y-153554133D01*
X113336438Y-153506514D01*
X113288819Y-153411276D01*
X113288819Y-153363657D01*
X113336438Y-153268419D01*
X113384057Y-153220800D01*
X113479295Y-153173180D01*
X113669771Y-153173180D01*
X113765009Y-153220800D01*
X113812628Y-153268419D01*
X113860247Y-153363657D01*
X113860247Y-153411276D01*
X113812628Y-153506514D01*
X113765009Y-153554133D01*
X113669771Y-153601752D01*
X113479295Y-153601752D01*
X113384057Y-153649371D01*
X113336438Y-153696990D01*
X113288819Y-153792228D01*
X113288819Y-153982704D01*
X113336438Y-154077942D01*
X113384057Y-154125561D01*
X113479295Y-154173180D01*
X113669771Y-154173180D01*
X113765009Y-154125561D01*
X113812628Y-154077942D01*
X113860247Y-153982704D01*
X113860247Y-153792228D01*
X113812628Y-153696990D01*
X113765009Y-153649371D01*
X113669771Y-153601752D01*
X114717390Y-153506514D02*
X114717390Y-154173180D01*
X114288819Y-153506514D02*
X114288819Y-154030323D01*
X114336438Y-154125561D01*
X114431676Y-154173180D01*
X114574533Y-154173180D01*
X114669771Y-154125561D01*
X114717390Y-154077942D01*
X115526914Y-153649371D02*
X115193580Y-153649371D01*
X115193580Y-154173180D02*
X115193580Y-153173180D01*
X115669771Y-153173180D01*
%TO.C,J63*%
X115379523Y-53157380D02*
X114808095Y-53157380D01*
X115093809Y-53157380D02*
X115093809Y-52157380D01*
X114998571Y-52300238D01*
X114903333Y-52395476D01*
X114808095Y-52443095D01*
X116236666Y-52490714D02*
X116236666Y-53157380D01*
X115998571Y-52109761D02*
X115760476Y-52824047D01*
X116379523Y-52824047D01*
%TO.C,U1*%
X131452380Y-144271904D02*
X132261904Y-144271904D01*
X132357142Y-144224285D01*
X132404761Y-144176666D01*
X132452380Y-144081428D01*
X132452380Y-143890952D01*
X132404761Y-143795714D01*
X132357142Y-143748095D01*
X132261904Y-143700476D01*
X131452380Y-143700476D01*
X132452380Y-142700476D02*
X132452380Y-143271904D01*
X132452380Y-142986190D02*
X131452380Y-142986190D01*
X131595238Y-143081428D01*
X131690476Y-143176666D01*
X131738095Y-143271904D01*
%TO.C,J57*%
X115379523Y-64587380D02*
X114808095Y-64587380D01*
X115093809Y-64587380D02*
X115093809Y-63587380D01*
X114998571Y-63730238D01*
X114903333Y-63825476D01*
X114808095Y-63873095D01*
X115712857Y-63587380D02*
X116379523Y-63587380D01*
X115950952Y-64587380D01*
%TO.C,J66*%
X115503342Y-116825780D02*
X115027152Y-116825780D01*
X114979533Y-117301971D01*
X115027152Y-117254352D01*
X115122390Y-117206733D01*
X115360485Y-117206733D01*
X115455723Y-117254352D01*
X115503342Y-117301971D01*
X115550961Y-117397209D01*
X115550961Y-117635304D01*
X115503342Y-117730542D01*
X115455723Y-117778161D01*
X115360485Y-117825780D01*
X115122390Y-117825780D01*
X115027152Y-117778161D01*
X114979533Y-117730542D01*
X115884295Y-117159114D02*
X116122390Y-117825780D01*
X116360485Y-117159114D01*
%TO.C,J65*%
X58928095Y-113800000D02*
X58832857Y-113752380D01*
X58690000Y-113752380D01*
X58547142Y-113800000D01*
X58451904Y-113895238D01*
X58404285Y-113990476D01*
X58356666Y-114180952D01*
X58356666Y-114323809D01*
X58404285Y-114514285D01*
X58451904Y-114609523D01*
X58547142Y-114704761D01*
X58690000Y-114752380D01*
X58785238Y-114752380D01*
X58928095Y-114704761D01*
X58975714Y-114657142D01*
X58975714Y-114323809D01*
X58785238Y-114323809D01*
X59404285Y-114752380D02*
X59404285Y-113752380D01*
X59975714Y-114752380D01*
X59975714Y-113752380D01*
X60451904Y-114752380D02*
X60451904Y-113752380D01*
X60690000Y-113752380D01*
X60832857Y-113800000D01*
X60928095Y-113895238D01*
X60975714Y-113990476D01*
X61023333Y-114180952D01*
X61023333Y-114323809D01*
X60975714Y-114514285D01*
X60928095Y-114609523D01*
X60832857Y-114704761D01*
X60690000Y-114752380D01*
X60451904Y-114752380D01*
%TO.C,J13*%
X95154857Y-117800380D02*
X95154857Y-116800380D01*
X95392952Y-117895619D02*
X96154857Y-117895619D01*
X96345333Y-116895619D02*
X96392952Y-116848000D01*
X96488190Y-116800380D01*
X96726285Y-116800380D01*
X96821523Y-116848000D01*
X96869142Y-116895619D01*
X96916761Y-116990857D01*
X96916761Y-117086095D01*
X96869142Y-117228952D01*
X96297714Y-117800380D01*
X96916761Y-117800380D01*
%TO.C,C9*%
X108942142Y-133516666D02*
X108989761Y-133564285D01*
X109037380Y-133707142D01*
X109037380Y-133802380D01*
X108989761Y-133945238D01*
X108894523Y-134040476D01*
X108799285Y-134088095D01*
X108608809Y-134135714D01*
X108465952Y-134135714D01*
X108275476Y-134088095D01*
X108180238Y-134040476D01*
X108085000Y-133945238D01*
X108037380Y-133802380D01*
X108037380Y-133707142D01*
X108085000Y-133564285D01*
X108132619Y-133516666D01*
X109037380Y-133040476D02*
X109037380Y-132850000D01*
X108989761Y-132754761D01*
X108942142Y-132707142D01*
X108799285Y-132611904D01*
X108608809Y-132564285D01*
X108227857Y-132564285D01*
X108132619Y-132611904D01*
X108085000Y-132659523D01*
X108037380Y-132754761D01*
X108037380Y-132945238D01*
X108085000Y-133040476D01*
X108132619Y-133088095D01*
X108227857Y-133135714D01*
X108465952Y-133135714D01*
X108561190Y-133088095D01*
X108608809Y-133040476D01*
X108656428Y-132945238D01*
X108656428Y-132754761D01*
X108608809Y-132659523D01*
X108561190Y-132611904D01*
X108465952Y-132564285D01*
%TO.C,C10*%
X108942142Y-145422857D02*
X108989761Y-145470476D01*
X109037380Y-145613333D01*
X109037380Y-145708571D01*
X108989761Y-145851428D01*
X108894523Y-145946666D01*
X108799285Y-145994285D01*
X108608809Y-146041904D01*
X108465952Y-146041904D01*
X108275476Y-145994285D01*
X108180238Y-145946666D01*
X108085000Y-145851428D01*
X108037380Y-145708571D01*
X108037380Y-145613333D01*
X108085000Y-145470476D01*
X108132619Y-145422857D01*
X109037380Y-144470476D02*
X109037380Y-145041904D01*
X109037380Y-144756190D02*
X108037380Y-144756190D01*
X108180238Y-144851428D01*
X108275476Y-144946666D01*
X108323095Y-145041904D01*
X108037380Y-143851428D02*
X108037380Y-143756190D01*
X108085000Y-143660952D01*
X108132619Y-143613333D01*
X108227857Y-143565714D01*
X108418333Y-143518095D01*
X108656428Y-143518095D01*
X108846904Y-143565714D01*
X108942142Y-143613333D01*
X108989761Y-143660952D01*
X109037380Y-143756190D01*
X109037380Y-143851428D01*
X108989761Y-143946666D01*
X108942142Y-143994285D01*
X108846904Y-144041904D01*
X108656428Y-144089523D01*
X108418333Y-144089523D01*
X108227857Y-144041904D01*
X108132619Y-143994285D01*
X108085000Y-143946666D01*
X108037380Y-143851428D01*
%TO.C,U2*%
X131452380Y-132841904D02*
X132261904Y-132841904D01*
X132357142Y-132794285D01*
X132404761Y-132746666D01*
X132452380Y-132651428D01*
X132452380Y-132460952D01*
X132404761Y-132365714D01*
X132357142Y-132318095D01*
X132261904Y-132270476D01*
X131452380Y-132270476D01*
X131547619Y-131841904D02*
X131500000Y-131794285D01*
X131452380Y-131699047D01*
X131452380Y-131460952D01*
X131500000Y-131365714D01*
X131547619Y-131318095D01*
X131642857Y-131270476D01*
X131738095Y-131270476D01*
X131880952Y-131318095D01*
X132452380Y-131889523D01*
X132452380Y-131270476D01*
D10*
%TO.C,J33*%
X87704666Y-112076666D02*
X87471333Y-111743333D01*
X87304666Y-112076666D02*
X87304666Y-111376666D01*
X87571333Y-111376666D01*
X87638000Y-111410000D01*
X87671333Y-111443333D01*
X87704666Y-111510000D01*
X87704666Y-111610000D01*
X87671333Y-111676666D01*
X87638000Y-111710000D01*
X87571333Y-111743333D01*
X87304666Y-111743333D01*
X88004666Y-111710000D02*
X88238000Y-111710000D01*
X88338000Y-112076666D02*
X88004666Y-112076666D01*
X88004666Y-111376666D01*
X88338000Y-111376666D01*
X88604666Y-112043333D02*
X88704666Y-112076666D01*
X88871333Y-112076666D01*
X88938000Y-112043333D01*
X88971333Y-112010000D01*
X89004666Y-111943333D01*
X89004666Y-111876666D01*
X88971333Y-111810000D01*
X88938000Y-111776666D01*
X88871333Y-111743333D01*
X88738000Y-111710000D01*
X88671333Y-111676666D01*
X88638000Y-111643333D01*
X88604666Y-111576666D01*
X88604666Y-111510000D01*
X88638000Y-111443333D01*
X88671333Y-111410000D01*
X88738000Y-111376666D01*
X88904666Y-111376666D01*
X89004666Y-111410000D01*
D12*
%TO.C,J59*%
X115379523Y-60777380D02*
X114808095Y-60777380D01*
X115093809Y-60777380D02*
X115093809Y-59777380D01*
X114998571Y-59920238D01*
X114903333Y-60015476D01*
X114808095Y-60063095D01*
X116236666Y-59777380D02*
X116046190Y-59777380D01*
X115950952Y-59825000D01*
X115903333Y-59872619D01*
X115808095Y-60015476D01*
X115760476Y-60205952D01*
X115760476Y-60586904D01*
X115808095Y-60682142D01*
X115855714Y-60729761D01*
X115950952Y-60777380D01*
X116141428Y-60777380D01*
X116236666Y-60729761D01*
X116284285Y-60682142D01*
X116331904Y-60586904D01*
X116331904Y-60348809D01*
X116284285Y-60253571D01*
X116236666Y-60205952D01*
X116141428Y-60158333D01*
X115950952Y-60158333D01*
X115855714Y-60205952D01*
X115808095Y-60253571D01*
X115760476Y-60348809D01*
%TO.C,J15*%
X102717621Y-108400380D02*
X102908097Y-108400380D01*
X103003335Y-108448000D01*
X103098573Y-108543238D01*
X103146192Y-108733714D01*
X103146192Y-109067047D01*
X103098573Y-109257523D01*
X103003335Y-109352761D01*
X102908097Y-109400380D01*
X102717621Y-109400380D01*
X102622382Y-109352761D01*
X102527144Y-109257523D01*
X102479525Y-109067047D01*
X102479525Y-108733714D01*
X102527144Y-108543238D01*
X102622382Y-108448000D01*
X102717621Y-108400380D01*
X103336668Y-109495619D02*
X104098573Y-109495619D01*
X104812859Y-108400380D02*
X104336668Y-108400380D01*
X104289049Y-108876571D01*
X104336668Y-108828952D01*
X104431906Y-108781333D01*
X104670002Y-108781333D01*
X104765240Y-108828952D01*
X104812859Y-108876571D01*
X104860478Y-108971809D01*
X104860478Y-109209904D01*
X104812859Y-109305142D01*
X104765240Y-109352761D01*
X104670002Y-109400380D01*
X104431906Y-109400380D01*
X104336668Y-109352761D01*
X104289049Y-109305142D01*
%TO.C,C11*%
X70477142Y-121007142D02*
X70429523Y-121054761D01*
X70286666Y-121102380D01*
X70191428Y-121102380D01*
X70048571Y-121054761D01*
X69953333Y-120959523D01*
X69905714Y-120864285D01*
X69858095Y-120673809D01*
X69858095Y-120530952D01*
X69905714Y-120340476D01*
X69953333Y-120245238D01*
X70048571Y-120150000D01*
X70191428Y-120102380D01*
X70286666Y-120102380D01*
X70429523Y-120150000D01*
X70477142Y-120197619D01*
X71429523Y-121102380D02*
X70858095Y-121102380D01*
X71143809Y-121102380D02*
X71143809Y-120102380D01*
X71048571Y-120245238D01*
X70953333Y-120340476D01*
X70858095Y-120388095D01*
X72381904Y-121102380D02*
X71810476Y-121102380D01*
X72096190Y-121102380D02*
X72096190Y-120102380D01*
X72000952Y-120245238D01*
X71905714Y-120340476D01*
X71810476Y-120388095D01*
%TO.C,C12*%
X83177142Y-121007142D02*
X83129523Y-121054761D01*
X82986666Y-121102380D01*
X82891428Y-121102380D01*
X82748571Y-121054761D01*
X82653333Y-120959523D01*
X82605714Y-120864285D01*
X82558095Y-120673809D01*
X82558095Y-120530952D01*
X82605714Y-120340476D01*
X82653333Y-120245238D01*
X82748571Y-120150000D01*
X82891428Y-120102380D01*
X82986666Y-120102380D01*
X83129523Y-120150000D01*
X83177142Y-120197619D01*
X84129523Y-121102380D02*
X83558095Y-121102380D01*
X83843809Y-121102380D02*
X83843809Y-120102380D01*
X83748571Y-120245238D01*
X83653333Y-120340476D01*
X83558095Y-120388095D01*
X84510476Y-120197619D02*
X84558095Y-120150000D01*
X84653333Y-120102380D01*
X84891428Y-120102380D01*
X84986666Y-120150000D01*
X85034285Y-120197619D01*
X85081904Y-120292857D01*
X85081904Y-120388095D01*
X85034285Y-120530952D01*
X84462857Y-121102380D01*
X85081904Y-121102380D01*
%TO.C,J50*%
X112299761Y-77350952D02*
X112204523Y-77303333D01*
X112156904Y-77255714D01*
X112109285Y-77160476D01*
X112109285Y-77112857D01*
X112156904Y-77017619D01*
X112204523Y-76970000D01*
X112299761Y-76922380D01*
X112490238Y-76922380D01*
X112585476Y-76970000D01*
X112633095Y-77017619D01*
X112680714Y-77112857D01*
X112680714Y-77160476D01*
X112633095Y-77255714D01*
X112585476Y-77303333D01*
X112490238Y-77350952D01*
X112299761Y-77350952D01*
X112204523Y-77398571D01*
X112156904Y-77446190D01*
X112109285Y-77541428D01*
X112109285Y-77731904D01*
X112156904Y-77827142D01*
X112204523Y-77874761D01*
X112299761Y-77922380D01*
X112490238Y-77922380D01*
X112585476Y-77874761D01*
X112633095Y-77827142D01*
X112680714Y-77731904D01*
X112680714Y-77541428D01*
X112633095Y-77446190D01*
X112585476Y-77398571D01*
X112490238Y-77350952D01*
%TO.C,J60*%
X112061666Y-57872380D02*
X112680714Y-57872380D01*
X112347380Y-58253333D01*
X112490238Y-58253333D01*
X112585476Y-58300952D01*
X112633095Y-58348571D01*
X112680714Y-58443809D01*
X112680714Y-58681904D01*
X112633095Y-58777142D01*
X112585476Y-58824761D01*
X112490238Y-58872380D01*
X112204523Y-58872380D01*
X112109285Y-58824761D01*
X112061666Y-58777142D01*
%TO.C,J61*%
X115379523Y-56967380D02*
X114808095Y-56967380D01*
X115093809Y-56967380D02*
X115093809Y-55967380D01*
X114998571Y-56110238D01*
X114903333Y-56205476D01*
X114808095Y-56253095D01*
X116284285Y-55967380D02*
X115808095Y-55967380D01*
X115760476Y-56443571D01*
X115808095Y-56395952D01*
X115903333Y-56348333D01*
X116141428Y-56348333D01*
X116236666Y-56395952D01*
X116284285Y-56443571D01*
X116331904Y-56538809D01*
X116331904Y-56776904D01*
X116284285Y-56872142D01*
X116236666Y-56919761D01*
X116141428Y-56967380D01*
X115903333Y-56967380D01*
X115808095Y-56919761D01*
X115760476Y-56872142D01*
%TO.C,C7*%
X102719142Y-131738666D02*
X102766761Y-131786285D01*
X102814380Y-131929142D01*
X102814380Y-132024380D01*
X102766761Y-132167238D01*
X102671523Y-132262476D01*
X102576285Y-132310095D01*
X102385809Y-132357714D01*
X102242952Y-132357714D01*
X102052476Y-132310095D01*
X101957238Y-132262476D01*
X101862000Y-132167238D01*
X101814380Y-132024380D01*
X101814380Y-131929142D01*
X101862000Y-131786285D01*
X101909619Y-131738666D01*
X101814380Y-131405333D02*
X101814380Y-130738666D01*
X102814380Y-131167238D01*
%TO.C,J23*%
X65301904Y-111432380D02*
X65301904Y-110432380D01*
X65540000Y-110432380D01*
X65682857Y-110480000D01*
X65778095Y-110575238D01*
X65825714Y-110670476D01*
X65873333Y-110860952D01*
X65873333Y-111003809D01*
X65825714Y-111194285D01*
X65778095Y-111289523D01*
X65682857Y-111384761D01*
X65540000Y-111432380D01*
X65301904Y-111432380D01*
X66492380Y-110432380D02*
X66587619Y-110432380D01*
X66682857Y-110480000D01*
X66730476Y-110527619D01*
X66778095Y-110622857D01*
X66825714Y-110813333D01*
X66825714Y-111051428D01*
X66778095Y-111241904D01*
X66730476Y-111337142D01*
X66682857Y-111384761D01*
X66587619Y-111432380D01*
X66492380Y-111432380D01*
X66397142Y-111384761D01*
X66349523Y-111337142D01*
X66301904Y-111241904D01*
X66254285Y-111051428D01*
X66254285Y-110813333D01*
X66301904Y-110622857D01*
X66349523Y-110527619D01*
X66397142Y-110480000D01*
X66492380Y-110432380D01*
%TO.C,J24*%
X72921904Y-117038380D02*
X72921904Y-116038380D01*
X73160000Y-116038380D01*
X73302857Y-116086000D01*
X73398095Y-116181238D01*
X73445714Y-116276476D01*
X73493333Y-116466952D01*
X73493333Y-116609809D01*
X73445714Y-116800285D01*
X73398095Y-116895523D01*
X73302857Y-116990761D01*
X73160000Y-117038380D01*
X72921904Y-117038380D01*
X73826666Y-116038380D02*
X74493333Y-116038380D01*
X74064761Y-117038380D01*
%TO.C,U5*%
X95748095Y-135342380D02*
X95748095Y-136151904D01*
X95795714Y-136247142D01*
X95843333Y-136294761D01*
X95938571Y-136342380D01*
X96129047Y-136342380D01*
X96224285Y-136294761D01*
X96271904Y-136247142D01*
X96319523Y-136151904D01*
X96319523Y-135342380D01*
X97271904Y-135342380D02*
X96795714Y-135342380D01*
X96748095Y-135818571D01*
X96795714Y-135770952D01*
X96890952Y-135723333D01*
X97129047Y-135723333D01*
X97224285Y-135770952D01*
X97271904Y-135818571D01*
X97319523Y-135913809D01*
X97319523Y-136151904D01*
X97271904Y-136247142D01*
X97224285Y-136294761D01*
X97129047Y-136342380D01*
X96890952Y-136342380D01*
X96795714Y-136294761D01*
X96748095Y-136247142D01*
X92938571Y-149312380D02*
X93605238Y-149312380D01*
X93176666Y-150312380D01*
X94414761Y-149645714D02*
X94414761Y-150312380D01*
X94176666Y-149264761D02*
X93938571Y-149979047D01*
X94557619Y-149979047D01*
X95414761Y-150312380D02*
X94938571Y-150312380D01*
X94938571Y-149312380D01*
X95748095Y-150312380D02*
X95748095Y-149312380D01*
X95748095Y-149788571D02*
X96319523Y-149788571D01*
X96319523Y-150312380D02*
X96319523Y-149312380D01*
X97367142Y-150217142D02*
X97319523Y-150264761D01*
X97176666Y-150312380D01*
X97081428Y-150312380D01*
X96938571Y-150264761D01*
X96843333Y-150169523D01*
X96795714Y-150074285D01*
X96748095Y-149883809D01*
X96748095Y-149740952D01*
X96795714Y-149550476D01*
X96843333Y-149455238D01*
X96938571Y-149360000D01*
X97081428Y-149312380D01*
X97176666Y-149312380D01*
X97319523Y-149360000D01*
X97367142Y-149407619D01*
X97652857Y-149312380D02*
X98224285Y-149312380D01*
X97938571Y-150312380D02*
X97938571Y-149312380D01*
X98986190Y-149645714D02*
X98986190Y-150312380D01*
X98748095Y-149264761D02*
X98510000Y-149979047D01*
X99129047Y-149979047D01*
X99986190Y-149312380D02*
X99510000Y-149312380D01*
X99462380Y-149788571D01*
X99510000Y-149740952D01*
X99605238Y-149693333D01*
X99843333Y-149693333D01*
X99938571Y-149740952D01*
X99986190Y-149788571D01*
X100033809Y-149883809D01*
X100033809Y-150121904D01*
X99986190Y-150217142D01*
X99938571Y-150264761D01*
X99843333Y-150312380D01*
X99605238Y-150312380D01*
X99510000Y-150264761D01*
X99462380Y-150217142D01*
%TO.C,J48*%
X112204523Y-81732380D02*
X112395000Y-81732380D01*
X112490238Y-81684761D01*
X112537857Y-81637142D01*
X112633095Y-81494285D01*
X112680714Y-81303809D01*
X112680714Y-80922857D01*
X112633095Y-80827619D01*
X112585476Y-80780000D01*
X112490238Y-80732380D01*
X112299761Y-80732380D01*
X112204523Y-80780000D01*
X112156904Y-80827619D01*
X112109285Y-80922857D01*
X112109285Y-81160952D01*
X112156904Y-81256190D01*
X112204523Y-81303809D01*
X112299761Y-81351428D01*
X112490238Y-81351428D01*
X112585476Y-81303809D01*
X112633095Y-81256190D01*
X112680714Y-81160952D01*
%TO.C,J19*%
X65301904Y-118562380D02*
X65301904Y-117562380D01*
X65540000Y-117562380D01*
X65682857Y-117610000D01*
X65778095Y-117705238D01*
X65825714Y-117800476D01*
X65873333Y-117990952D01*
X65873333Y-118133809D01*
X65825714Y-118324285D01*
X65778095Y-118419523D01*
X65682857Y-118514761D01*
X65540000Y-118562380D01*
X65301904Y-118562380D01*
X66730476Y-117895714D02*
X66730476Y-118562380D01*
X66492380Y-117514761D02*
X66254285Y-118229047D01*
X66873333Y-118229047D01*
%TO.C,J20*%
X67841904Y-117038380D02*
X67841904Y-116038380D01*
X68080000Y-116038380D01*
X68222857Y-116086000D01*
X68318095Y-116181238D01*
X68365714Y-116276476D01*
X68413333Y-116466952D01*
X68413333Y-116609809D01*
X68365714Y-116800285D01*
X68318095Y-116895523D01*
X68222857Y-116990761D01*
X68080000Y-117038380D01*
X67841904Y-117038380D01*
X69318095Y-116038380D02*
X68841904Y-116038380D01*
X68794285Y-116514571D01*
X68841904Y-116466952D01*
X68937142Y-116419333D01*
X69175238Y-116419333D01*
X69270476Y-116466952D01*
X69318095Y-116514571D01*
X69365714Y-116609809D01*
X69365714Y-116847904D01*
X69318095Y-116943142D01*
X69270476Y-116990761D01*
X69175238Y-117038380D01*
X68937142Y-117038380D01*
X68841904Y-116990761D01*
X68794285Y-116943142D01*
%TO.C,J18*%
X70381904Y-111432380D02*
X70381904Y-110432380D01*
X70620000Y-110432380D01*
X70762857Y-110480000D01*
X70858095Y-110575238D01*
X70905714Y-110670476D01*
X70953333Y-110860952D01*
X70953333Y-111003809D01*
X70905714Y-111194285D01*
X70858095Y-111289523D01*
X70762857Y-111384761D01*
X70620000Y-111432380D01*
X70381904Y-111432380D01*
X71334285Y-110527619D02*
X71381904Y-110480000D01*
X71477142Y-110432380D01*
X71715238Y-110432380D01*
X71810476Y-110480000D01*
X71858095Y-110527619D01*
X71905714Y-110622857D01*
X71905714Y-110718095D01*
X71858095Y-110860952D01*
X71286666Y-111432380D01*
X71905714Y-111432380D01*
%TO.C,U4*%
X70358095Y-135342380D02*
X70358095Y-136151904D01*
X70405714Y-136247142D01*
X70453333Y-136294761D01*
X70548571Y-136342380D01*
X70739047Y-136342380D01*
X70834285Y-136294761D01*
X70881904Y-136247142D01*
X70929523Y-136151904D01*
X70929523Y-135342380D01*
X71834285Y-135675714D02*
X71834285Y-136342380D01*
X71596190Y-135294761D02*
X71358095Y-136009047D01*
X71977142Y-136009047D01*
X67548571Y-149312380D02*
X68215238Y-149312380D01*
X67786666Y-150312380D01*
X69024761Y-149645714D02*
X69024761Y-150312380D01*
X68786666Y-149264761D02*
X68548571Y-149979047D01*
X69167619Y-149979047D01*
X70024761Y-150312380D02*
X69548571Y-150312380D01*
X69548571Y-149312380D01*
X70358095Y-150312380D02*
X70358095Y-149312380D01*
X70358095Y-149788571D02*
X70929523Y-149788571D01*
X70929523Y-150312380D02*
X70929523Y-149312380D01*
X71977142Y-150217142D02*
X71929523Y-150264761D01*
X71786666Y-150312380D01*
X71691428Y-150312380D01*
X71548571Y-150264761D01*
X71453333Y-150169523D01*
X71405714Y-150074285D01*
X71358095Y-149883809D01*
X71358095Y-149740952D01*
X71405714Y-149550476D01*
X71453333Y-149455238D01*
X71548571Y-149360000D01*
X71691428Y-149312380D01*
X71786666Y-149312380D01*
X71929523Y-149360000D01*
X71977142Y-149407619D01*
X72262857Y-149312380D02*
X72834285Y-149312380D01*
X72548571Y-150312380D02*
X72548571Y-149312380D01*
X73596190Y-149645714D02*
X73596190Y-150312380D01*
X73358095Y-149264761D02*
X73120000Y-149979047D01*
X73739047Y-149979047D01*
X74596190Y-149312380D02*
X74120000Y-149312380D01*
X74072380Y-149788571D01*
X74120000Y-149740952D01*
X74215238Y-149693333D01*
X74453333Y-149693333D01*
X74548571Y-149740952D01*
X74596190Y-149788571D01*
X74643809Y-149883809D01*
X74643809Y-150121904D01*
X74596190Y-150217142D01*
X74548571Y-150264761D01*
X74453333Y-150312380D01*
X74215238Y-150312380D01*
X74120000Y-150264761D01*
X74072380Y-150217142D01*
%TO.C,C3*%
X70505333Y-152073142D02*
X70457714Y-152120761D01*
X70314857Y-152168380D01*
X70219619Y-152168380D01*
X70076761Y-152120761D01*
X69981523Y-152025523D01*
X69933904Y-151930285D01*
X69886285Y-151739809D01*
X69886285Y-151596952D01*
X69933904Y-151406476D01*
X69981523Y-151311238D01*
X70076761Y-151216000D01*
X70219619Y-151168380D01*
X70314857Y-151168380D01*
X70457714Y-151216000D01*
X70505333Y-151263619D01*
X70838666Y-151168380D02*
X71457714Y-151168380D01*
X71124380Y-151549333D01*
X71267238Y-151549333D01*
X71362476Y-151596952D01*
X71410095Y-151644571D01*
X71457714Y-151739809D01*
X71457714Y-151977904D01*
X71410095Y-152073142D01*
X71362476Y-152120761D01*
X71267238Y-152168380D01*
X70981523Y-152168380D01*
X70886285Y-152120761D01*
X70838666Y-152073142D01*
X69267238Y-152438380D02*
X69076761Y-152438380D01*
X68981523Y-152486000D01*
X68933904Y-152533619D01*
X68838666Y-152676476D01*
X68791047Y-152866952D01*
X68791047Y-153247904D01*
X68838666Y-153343142D01*
X68886285Y-153390761D01*
X68981523Y-153438380D01*
X69172000Y-153438380D01*
X69267238Y-153390761D01*
X69314857Y-153343142D01*
X69362476Y-153247904D01*
X69362476Y-153009809D01*
X69314857Y-152914571D01*
X69267238Y-152866952D01*
X69172000Y-152819333D01*
X68981523Y-152819333D01*
X68886285Y-152866952D01*
X68838666Y-152914571D01*
X68791047Y-153009809D01*
X69791047Y-153343142D02*
X69838666Y-153390761D01*
X69791047Y-153438380D01*
X69743428Y-153390761D01*
X69791047Y-153343142D01*
X69791047Y-153438380D01*
X70410095Y-152866952D02*
X70314857Y-152819333D01*
X70267238Y-152771714D01*
X70219619Y-152676476D01*
X70219619Y-152628857D01*
X70267238Y-152533619D01*
X70314857Y-152486000D01*
X70410095Y-152438380D01*
X70600571Y-152438380D01*
X70695809Y-152486000D01*
X70743428Y-152533619D01*
X70791047Y-152628857D01*
X70791047Y-152676476D01*
X70743428Y-152771714D01*
X70695809Y-152819333D01*
X70600571Y-152866952D01*
X70410095Y-152866952D01*
X70314857Y-152914571D01*
X70267238Y-152962190D01*
X70219619Y-153057428D01*
X70219619Y-153247904D01*
X70267238Y-153343142D01*
X70314857Y-153390761D01*
X70410095Y-153438380D01*
X70600571Y-153438380D01*
X70695809Y-153390761D01*
X70743428Y-153343142D01*
X70791047Y-153247904D01*
X70791047Y-153057428D01*
X70743428Y-152962190D01*
X70695809Y-152914571D01*
X70600571Y-152866952D01*
X71648190Y-152771714D02*
X71648190Y-153438380D01*
X71219619Y-152771714D02*
X71219619Y-153295523D01*
X71267238Y-153390761D01*
X71362476Y-153438380D01*
X71505333Y-153438380D01*
X71600571Y-153390761D01*
X71648190Y-153343142D01*
X72457714Y-152914571D02*
X72124380Y-152914571D01*
X72124380Y-153438380D02*
X72124380Y-152438380D01*
X72600571Y-152438380D01*
%TO.C,J64*%
X112680714Y-51252380D02*
X112109285Y-51252380D01*
X112395000Y-51252380D02*
X112395000Y-50252380D01*
X112299761Y-50395238D01*
X112204523Y-50490476D01*
X112109285Y-50538095D01*
%TO.C,J42*%
X111569523Y-93162380D02*
X110998095Y-93162380D01*
X111283809Y-93162380D02*
X111283809Y-92162380D01*
X111188571Y-92305238D01*
X111093333Y-92400476D01*
X110998095Y-92448095D01*
X111950476Y-92257619D02*
X111998095Y-92210000D01*
X112093333Y-92162380D01*
X112331428Y-92162380D01*
X112426666Y-92210000D01*
X112474285Y-92257619D01*
X112521904Y-92352857D01*
X112521904Y-92448095D01*
X112474285Y-92590952D01*
X111902857Y-93162380D01*
X112521904Y-93162380D01*
%TO.C,J5*%
X120510514Y-107919828D02*
X121272419Y-107919828D01*
X122272419Y-108300780D02*
X121700990Y-108300780D01*
X121986704Y-108300780D02*
X121986704Y-107300780D01*
X121891466Y-107443638D01*
X121796228Y-107538876D01*
X121700990Y-107586495D01*
X122653371Y-107396019D02*
X122700990Y-107348400D01*
X122796228Y-107300780D01*
X123034323Y-107300780D01*
X123129561Y-107348400D01*
X123177180Y-107396019D01*
X123224800Y-107491257D01*
X123224800Y-107586495D01*
X123177180Y-107729352D01*
X122605752Y-108300780D01*
X123224800Y-108300780D01*
X123558133Y-107634114D02*
X123796228Y-108300780D01*
X124034323Y-107634114D01*
%TO.C,J62*%
X112109285Y-54157619D02*
X112156904Y-54110000D01*
X112252142Y-54062380D01*
X112490238Y-54062380D01*
X112585476Y-54110000D01*
X112633095Y-54157619D01*
X112680714Y-54252857D01*
X112680714Y-54348095D01*
X112633095Y-54490952D01*
X112061666Y-55062380D01*
X112680714Y-55062380D01*
%TO.C,J51*%
X114808095Y-75112619D02*
X114855714Y-75065000D01*
X114950952Y-75017380D01*
X115189047Y-75017380D01*
X115284285Y-75065000D01*
X115331904Y-75112619D01*
X115379523Y-75207857D01*
X115379523Y-75303095D01*
X115331904Y-75445952D01*
X114760476Y-76017380D01*
X115379523Y-76017380D01*
X115998571Y-75017380D02*
X116093809Y-75017380D01*
X116189047Y-75065000D01*
X116236666Y-75112619D01*
X116284285Y-75207857D01*
X116331904Y-75398333D01*
X116331904Y-75636428D01*
X116284285Y-75826904D01*
X116236666Y-75922142D01*
X116189047Y-75969761D01*
X116093809Y-76017380D01*
X115998571Y-76017380D01*
X115903333Y-75969761D01*
X115855714Y-75922142D01*
X115808095Y-75826904D01*
X115760476Y-75636428D01*
X115760476Y-75398333D01*
X115808095Y-75207857D01*
X115855714Y-75112619D01*
X115903333Y-75065000D01*
X115998571Y-75017380D01*
%TO.C,J46*%
X111569523Y-85542380D02*
X110998095Y-85542380D01*
X111283809Y-85542380D02*
X111283809Y-84542380D01*
X111188571Y-84685238D01*
X111093333Y-84780476D01*
X110998095Y-84828095D01*
X112188571Y-84542380D02*
X112283809Y-84542380D01*
X112379047Y-84590000D01*
X112426666Y-84637619D01*
X112474285Y-84732857D01*
X112521904Y-84923333D01*
X112521904Y-85161428D01*
X112474285Y-85351904D01*
X112426666Y-85447142D01*
X112379047Y-85494761D01*
X112283809Y-85542380D01*
X112188571Y-85542380D01*
X112093333Y-85494761D01*
X112045714Y-85447142D01*
X111998095Y-85351904D01*
X111950476Y-85161428D01*
X111950476Y-84923333D01*
X111998095Y-84732857D01*
X112045714Y-84637619D01*
X112093333Y-84590000D01*
X112188571Y-84542380D01*
D10*
%TO.C,J34*%
X89561333Y-110152666D02*
X89494666Y-110119333D01*
X89461333Y-110086000D01*
X89428000Y-110019333D01*
X89428000Y-109986000D01*
X89461333Y-109919333D01*
X89494666Y-109886000D01*
X89561333Y-109852666D01*
X89694666Y-109852666D01*
X89761333Y-109886000D01*
X89794666Y-109919333D01*
X89828000Y-109986000D01*
X89828000Y-110019333D01*
X89794666Y-110086000D01*
X89761333Y-110119333D01*
X89694666Y-110152666D01*
X89561333Y-110152666D01*
X89494666Y-110186000D01*
X89461333Y-110219333D01*
X89428000Y-110286000D01*
X89428000Y-110419333D01*
X89461333Y-110486000D01*
X89494666Y-110519333D01*
X89561333Y-110552666D01*
X89694666Y-110552666D01*
X89761333Y-110519333D01*
X89794666Y-110486000D01*
X89828000Y-110419333D01*
X89828000Y-110286000D01*
X89794666Y-110219333D01*
X89761333Y-110186000D01*
X89694666Y-110152666D01*
X90128000Y-110552666D02*
X90128000Y-109852666D01*
X90361333Y-110352666D01*
X90594666Y-109852666D01*
X90594666Y-110552666D01*
X90928000Y-110552666D02*
X90928000Y-109852666D01*
X90928000Y-110186000D02*
X91328000Y-110186000D01*
X91328000Y-110552666D02*
X91328000Y-109852666D01*
X91594666Y-110086000D02*
X91961333Y-110086000D01*
X91594666Y-110552666D01*
X91961333Y-110552666D01*
D12*
%TO.C,J16*%
X97637621Y-108400380D02*
X97828097Y-108400380D01*
X97923335Y-108448000D01*
X98018573Y-108543238D01*
X98066192Y-108733714D01*
X98066192Y-109067047D01*
X98018573Y-109257523D01*
X97923335Y-109352761D01*
X97828097Y-109400380D01*
X97637621Y-109400380D01*
X97542382Y-109352761D01*
X97447144Y-109257523D01*
X97399525Y-109067047D01*
X97399525Y-108733714D01*
X97447144Y-108543238D01*
X97542382Y-108448000D01*
X97637621Y-108400380D01*
X98256668Y-109495619D02*
X99018573Y-109495619D01*
X99161430Y-108400380D02*
X99780478Y-108400380D01*
X99447144Y-108781333D01*
X99590002Y-108781333D01*
X99685240Y-108828952D01*
X99732859Y-108876571D01*
X99780478Y-108971809D01*
X99780478Y-109209904D01*
X99732859Y-109305142D01*
X99685240Y-109352761D01*
X99590002Y-109400380D01*
X99304287Y-109400380D01*
X99209049Y-109352761D01*
X99161430Y-109305142D01*
%TO.C,J54*%
X112585476Y-69302380D02*
X112395000Y-69302380D01*
X112299761Y-69350000D01*
X112252142Y-69397619D01*
X112156904Y-69540476D01*
X112109285Y-69730952D01*
X112109285Y-70111904D01*
X112156904Y-70207142D01*
X112204523Y-70254761D01*
X112299761Y-70302380D01*
X112490238Y-70302380D01*
X112585476Y-70254761D01*
X112633095Y-70207142D01*
X112680714Y-70111904D01*
X112680714Y-69873809D01*
X112633095Y-69778571D01*
X112585476Y-69730952D01*
X112490238Y-69683333D01*
X112299761Y-69683333D01*
X112204523Y-69730952D01*
X112156904Y-69778571D01*
X112109285Y-69873809D01*
%TO.C,J49*%
X114808095Y-78922619D02*
X114855714Y-78875000D01*
X114950952Y-78827380D01*
X115189047Y-78827380D01*
X115284285Y-78875000D01*
X115331904Y-78922619D01*
X115379523Y-79017857D01*
X115379523Y-79113095D01*
X115331904Y-79255952D01*
X114760476Y-79827380D01*
X115379523Y-79827380D01*
X116331904Y-79827380D02*
X115760476Y-79827380D01*
X116046190Y-79827380D02*
X116046190Y-78827380D01*
X115950952Y-78970238D01*
X115855714Y-79065476D01*
X115760476Y-79113095D01*
D10*
%TO.C,J10*%
X104905333Y-110534666D02*
X104905333Y-109834666D01*
X105372000Y-109834666D02*
X105505333Y-109834666D01*
X105572000Y-109868000D01*
X105638666Y-109934666D01*
X105672000Y-110068000D01*
X105672000Y-110301333D01*
X105638666Y-110434666D01*
X105572000Y-110501333D01*
X105505333Y-110534666D01*
X105372000Y-110534666D01*
X105305333Y-110501333D01*
X105238666Y-110434666D01*
X105205333Y-110301333D01*
X105205333Y-110068000D01*
X105238666Y-109934666D01*
X105305333Y-109868000D01*
X105372000Y-109834666D01*
X106472000Y-110334666D02*
X106805333Y-110334666D01*
X106405333Y-110534666D02*
X106638666Y-109834666D01*
X106872000Y-110534666D01*
X107238666Y-109834666D02*
X107305333Y-109834666D01*
X107372000Y-109868000D01*
X107405333Y-109901333D01*
X107438666Y-109968000D01*
X107472000Y-110101333D01*
X107472000Y-110268000D01*
X107438666Y-110401333D01*
X107405333Y-110468000D01*
X107372000Y-110501333D01*
X107305333Y-110534666D01*
X107238666Y-110534666D01*
X107172000Y-110501333D01*
X107138666Y-110468000D01*
X107105333Y-110401333D01*
X107072000Y-110268000D01*
X107072000Y-110101333D01*
X107105333Y-109968000D01*
X107138666Y-109901333D01*
X107172000Y-109868000D01*
X107238666Y-109834666D01*
%TO.C,J38*%
X109602000Y-117664666D02*
X109602000Y-116964666D01*
X109935333Y-117664666D02*
X109935333Y-116964666D01*
X110102000Y-116964666D01*
X110202000Y-116998000D01*
X110268666Y-117064666D01*
X110302000Y-117131333D01*
X110335333Y-117264666D01*
X110335333Y-117364666D01*
X110302000Y-117498000D01*
X110268666Y-117564666D01*
X110202000Y-117631333D01*
X110102000Y-117664666D01*
X109935333Y-117664666D01*
X111568666Y-117664666D02*
X111335333Y-117331333D01*
X111168666Y-117664666D02*
X111168666Y-116964666D01*
X111435333Y-116964666D01*
X111502000Y-116998000D01*
X111535333Y-117031333D01*
X111568666Y-117098000D01*
X111568666Y-117198000D01*
X111535333Y-117264666D01*
X111502000Y-117298000D01*
X111435333Y-117331333D01*
X111168666Y-117331333D01*
X111868666Y-117298000D02*
X112102000Y-117298000D01*
X112202000Y-117664666D02*
X111868666Y-117664666D01*
X111868666Y-116964666D01*
X112202000Y-116964666D01*
X112968666Y-117731333D02*
X112902000Y-117698000D01*
X112835333Y-117631333D01*
X112735333Y-117531333D01*
X112668666Y-117498000D01*
X112602000Y-117498000D01*
X112635333Y-117664666D02*
X112568666Y-117631333D01*
X112502000Y-117564666D01*
X112468666Y-117431333D01*
X112468666Y-117198000D01*
X112502000Y-117064666D01*
X112568666Y-116998000D01*
X112635333Y-116964666D01*
X112768666Y-116964666D01*
X112835333Y-116998000D01*
X112902000Y-117064666D01*
X112935333Y-117198000D01*
X112935333Y-117431333D01*
X112902000Y-117564666D01*
X112835333Y-117631333D01*
X112768666Y-117664666D01*
X112635333Y-117664666D01*
D12*
%TO.C,J53*%
X115379523Y-72207380D02*
X114808095Y-72207380D01*
X115093809Y-72207380D02*
X115093809Y-71207380D01*
X114998571Y-71350238D01*
X114903333Y-71445476D01*
X114808095Y-71493095D01*
X115855714Y-72207380D02*
X116046190Y-72207380D01*
X116141428Y-72159761D01*
X116189047Y-72112142D01*
X116284285Y-71969285D01*
X116331904Y-71778809D01*
X116331904Y-71397857D01*
X116284285Y-71302619D01*
X116236666Y-71255000D01*
X116141428Y-71207380D01*
X115950952Y-71207380D01*
X115855714Y-71255000D01*
X115808095Y-71302619D01*
X115760476Y-71397857D01*
X115760476Y-71635952D01*
X115808095Y-71731190D01*
X115855714Y-71778809D01*
X115950952Y-71826428D01*
X116141428Y-71826428D01*
X116236666Y-71778809D01*
X116284285Y-71731190D01*
X116331904Y-71635952D01*
%TO.C,J43*%
X114808095Y-90352619D02*
X114855714Y-90305000D01*
X114950952Y-90257380D01*
X115189047Y-90257380D01*
X115284285Y-90305000D01*
X115331904Y-90352619D01*
X115379523Y-90447857D01*
X115379523Y-90543095D01*
X115331904Y-90685952D01*
X114760476Y-91257380D01*
X115379523Y-91257380D01*
X116236666Y-90590714D02*
X116236666Y-91257380D01*
X115998571Y-90209761D02*
X115760476Y-90924047D01*
X116379523Y-90924047D01*
D10*
%TO.C,J36*%
X107445333Y-116394666D02*
X107445333Y-115694666D01*
X107912000Y-115694666D02*
X108045333Y-115694666D01*
X108112000Y-115728000D01*
X108178666Y-115794666D01*
X108212000Y-115928000D01*
X108212000Y-116161333D01*
X108178666Y-116294666D01*
X108112000Y-116361333D01*
X108045333Y-116394666D01*
X107912000Y-116394666D01*
X107845333Y-116361333D01*
X107778666Y-116294666D01*
X107745333Y-116161333D01*
X107745333Y-115928000D01*
X107778666Y-115794666D01*
X107845333Y-115728000D01*
X107912000Y-115694666D01*
X109012000Y-116194666D02*
X109345333Y-116194666D01*
X108945333Y-116394666D02*
X109178666Y-115694666D01*
X109412000Y-116394666D01*
X109578666Y-115694666D02*
X110012000Y-115694666D01*
X109778666Y-115961333D01*
X109878666Y-115961333D01*
X109945333Y-115994666D01*
X109978666Y-116028000D01*
X110012000Y-116094666D01*
X110012000Y-116261333D01*
X109978666Y-116328000D01*
X109945333Y-116361333D01*
X109878666Y-116394666D01*
X109678666Y-116394666D01*
X109612000Y-116361333D01*
X109578666Y-116328000D01*
D12*
%TO.C,J17*%
X72921904Y-110162380D02*
X72921904Y-109162380D01*
X73160000Y-109162380D01*
X73302857Y-109210000D01*
X73398095Y-109305238D01*
X73445714Y-109400476D01*
X73493333Y-109590952D01*
X73493333Y-109733809D01*
X73445714Y-109924285D01*
X73398095Y-110019523D01*
X73302857Y-110114761D01*
X73160000Y-110162380D01*
X72921904Y-110162380D01*
X73826666Y-109162380D02*
X74445714Y-109162380D01*
X74112380Y-109543333D01*
X74255238Y-109543333D01*
X74350476Y-109590952D01*
X74398095Y-109638571D01*
X74445714Y-109733809D01*
X74445714Y-109971904D01*
X74398095Y-110067142D01*
X74350476Y-110114761D01*
X74255238Y-110162380D01*
X73969523Y-110162380D01*
X73874285Y-110114761D01*
X73826666Y-110067142D01*
%TO.C,J22*%
X67841904Y-110162380D02*
X67841904Y-109162380D01*
X68080000Y-109162380D01*
X68222857Y-109210000D01*
X68318095Y-109305238D01*
X68365714Y-109400476D01*
X68413333Y-109590952D01*
X68413333Y-109733809D01*
X68365714Y-109924285D01*
X68318095Y-110019523D01*
X68222857Y-110114761D01*
X68080000Y-110162380D01*
X67841904Y-110162380D01*
X69365714Y-110162380D02*
X68794285Y-110162380D01*
X69080000Y-110162380D02*
X69080000Y-109162380D01*
X68984761Y-109305238D01*
X68889523Y-109400476D01*
X68794285Y-109448095D01*
%TO.C,J14*%
X83232857Y-118319761D02*
X83137619Y-118367380D01*
X82947142Y-118367380D01*
X82851904Y-118319761D01*
X82804285Y-118224523D01*
X82804285Y-117843571D01*
X82851904Y-117748333D01*
X82947142Y-117700714D01*
X83137619Y-117700714D01*
X83232857Y-117748333D01*
X83280476Y-117843571D01*
X83280476Y-117938809D01*
X82804285Y-118034047D01*
X83709047Y-117700714D02*
X83709047Y-118367380D01*
X83709047Y-117795952D02*
X83756666Y-117748333D01*
X83851904Y-117700714D01*
X83994761Y-117700714D01*
X84090000Y-117748333D01*
X84137619Y-117843571D01*
X84137619Y-118367380D01*
X85042380Y-118367380D02*
X85042380Y-117843571D01*
X84994761Y-117748333D01*
X84899523Y-117700714D01*
X84709047Y-117700714D01*
X84613809Y-117748333D01*
X85042380Y-118319761D02*
X84947142Y-118367380D01*
X84709047Y-118367380D01*
X84613809Y-118319761D01*
X84566190Y-118224523D01*
X84566190Y-118129285D01*
X84613809Y-118034047D01*
X84709047Y-117986428D01*
X84947142Y-117986428D01*
X85042380Y-117938809D01*
X85518571Y-118367380D02*
X85518571Y-117367380D01*
X85518571Y-117748333D02*
X85613809Y-117700714D01*
X85804285Y-117700714D01*
X85899523Y-117748333D01*
X85947142Y-117795952D01*
X85994761Y-117891190D01*
X85994761Y-118176904D01*
X85947142Y-118272142D01*
X85899523Y-118319761D01*
X85804285Y-118367380D01*
X85613809Y-118367380D01*
X85518571Y-118319761D01*
X86566190Y-118367380D02*
X86470952Y-118319761D01*
X86423333Y-118224523D01*
X86423333Y-117367380D01*
X87328095Y-118319761D02*
X87232857Y-118367380D01*
X87042380Y-118367380D01*
X86947142Y-118319761D01*
X86899523Y-118224523D01*
X86899523Y-117843571D01*
X86947142Y-117748333D01*
X87042380Y-117700714D01*
X87232857Y-117700714D01*
X87328095Y-117748333D01*
X87375714Y-117843571D01*
X87375714Y-117938809D01*
X86899523Y-118034047D01*
%TO.C,J11*%
X97694857Y-116530380D02*
X97694857Y-115530380D01*
X97932952Y-116625619D02*
X98694857Y-116625619D01*
X98837714Y-115530380D02*
X99456761Y-115530380D01*
X99123428Y-115911333D01*
X99266285Y-115911333D01*
X99361523Y-115958952D01*
X99409142Y-116006571D01*
X99456761Y-116101809D01*
X99456761Y-116339904D01*
X99409142Y-116435142D01*
X99361523Y-116482761D01*
X99266285Y-116530380D01*
X98980571Y-116530380D01*
X98885333Y-116482761D01*
X98837714Y-116435142D01*
D10*
%TO.C,J8*%
X112876002Y-109152000D02*
X112976002Y-109185333D01*
X113009335Y-109218666D01*
X113042668Y-109285333D01*
X113042668Y-109385333D01*
X113009335Y-109452000D01*
X112976002Y-109485333D01*
X112909335Y-109518666D01*
X112642668Y-109518666D01*
X112642668Y-108818666D01*
X112876002Y-108818666D01*
X112942668Y-108852000D01*
X112976002Y-108885333D01*
X113009335Y-108952000D01*
X113009335Y-109018666D01*
X112976002Y-109085333D01*
X112942668Y-109118666D01*
X112876002Y-109152000D01*
X112642668Y-109152000D01*
X113276002Y-108818666D02*
X113442668Y-109518666D01*
X113576002Y-109018666D01*
X113709335Y-109518666D01*
X113876002Y-108818666D01*
X114542668Y-109518666D02*
X114309335Y-109185333D01*
X114142668Y-109518666D02*
X114142668Y-108818666D01*
X114409335Y-108818666D01*
X114476002Y-108852000D01*
X114509335Y-108885333D01*
X114542668Y-108952000D01*
X114542668Y-109052000D01*
X114509335Y-109118666D01*
X114476002Y-109152000D01*
X114409335Y-109185333D01*
X114142668Y-109185333D01*
D12*
%TO.C,J7*%
X100234857Y-117800380D02*
X100234857Y-116800380D01*
X100472952Y-117895619D02*
X101234857Y-117895619D01*
X101901523Y-117133714D02*
X101901523Y-117800380D01*
X101663428Y-116752761D02*
X101425333Y-117467047D01*
X102044380Y-117467047D01*
D10*
%TO.C,J32*%
X89198666Y-117631333D02*
X89298666Y-117664666D01*
X89465333Y-117664666D01*
X89532000Y-117631333D01*
X89565333Y-117598000D01*
X89598666Y-117531333D01*
X89598666Y-117464666D01*
X89565333Y-117398000D01*
X89532000Y-117364666D01*
X89465333Y-117331333D01*
X89332000Y-117298000D01*
X89265333Y-117264666D01*
X89232000Y-117231333D01*
X89198666Y-117164666D01*
X89198666Y-117098000D01*
X89232000Y-117031333D01*
X89265333Y-116998000D01*
X89332000Y-116964666D01*
X89498666Y-116964666D01*
X89598666Y-116998000D01*
X89898666Y-117298000D02*
X90132000Y-117298000D01*
X90232000Y-117664666D02*
X89898666Y-117664666D01*
X89898666Y-116964666D01*
X90232000Y-116964666D01*
X90865333Y-117664666D02*
X90532000Y-117664666D01*
X90532000Y-116964666D01*
X91098666Y-117298000D02*
X91332000Y-117298000D01*
X91432000Y-117664666D02*
X91098666Y-117664666D01*
X91098666Y-116964666D01*
X91432000Y-116964666D01*
X92132000Y-117598000D02*
X92098666Y-117631333D01*
X91998666Y-117664666D01*
X91932000Y-117664666D01*
X91832000Y-117631333D01*
X91765333Y-117564666D01*
X91732000Y-117498000D01*
X91698666Y-117364666D01*
X91698666Y-117264666D01*
X91732000Y-117131333D01*
X91765333Y-117064666D01*
X91832000Y-116998000D01*
X91932000Y-116964666D01*
X91998666Y-116964666D01*
X92098666Y-116998000D01*
X92132000Y-117031333D01*
X92332000Y-116964666D02*
X92732000Y-116964666D01*
X92532000Y-117664666D02*
X92532000Y-116964666D01*
D12*
%TO.C,U3*%
X83058095Y-135342380D02*
X83058095Y-136151904D01*
X83105714Y-136247142D01*
X83153333Y-136294761D01*
X83248571Y-136342380D01*
X83439047Y-136342380D01*
X83534285Y-136294761D01*
X83581904Y-136247142D01*
X83629523Y-136151904D01*
X83629523Y-135342380D01*
X84010476Y-135342380D02*
X84629523Y-135342380D01*
X84296190Y-135723333D01*
X84439047Y-135723333D01*
X84534285Y-135770952D01*
X84581904Y-135818571D01*
X84629523Y-135913809D01*
X84629523Y-136151904D01*
X84581904Y-136247142D01*
X84534285Y-136294761D01*
X84439047Y-136342380D01*
X84153333Y-136342380D01*
X84058095Y-136294761D01*
X84010476Y-136247142D01*
X80248571Y-149312380D02*
X80915238Y-149312380D01*
X80486666Y-150312380D01*
X81724761Y-149645714D02*
X81724761Y-150312380D01*
X81486666Y-149264761D02*
X81248571Y-149979047D01*
X81867619Y-149979047D01*
X82724761Y-150312380D02*
X82248571Y-150312380D01*
X82248571Y-149312380D01*
X83058095Y-150312380D02*
X83058095Y-149312380D01*
X83058095Y-149788571D02*
X83629523Y-149788571D01*
X83629523Y-150312380D02*
X83629523Y-149312380D01*
X84677142Y-150217142D02*
X84629523Y-150264761D01*
X84486666Y-150312380D01*
X84391428Y-150312380D01*
X84248571Y-150264761D01*
X84153333Y-150169523D01*
X84105714Y-150074285D01*
X84058095Y-149883809D01*
X84058095Y-149740952D01*
X84105714Y-149550476D01*
X84153333Y-149455238D01*
X84248571Y-149360000D01*
X84391428Y-149312380D01*
X84486666Y-149312380D01*
X84629523Y-149360000D01*
X84677142Y-149407619D01*
X84962857Y-149312380D02*
X85534285Y-149312380D01*
X85248571Y-150312380D02*
X85248571Y-149312380D01*
X86296190Y-149645714D02*
X86296190Y-150312380D01*
X86058095Y-149264761D02*
X85820000Y-149979047D01*
X86439047Y-149979047D01*
X87296190Y-149312380D02*
X86820000Y-149312380D01*
X86772380Y-149788571D01*
X86820000Y-149740952D01*
X86915238Y-149693333D01*
X87153333Y-149693333D01*
X87248571Y-149740952D01*
X87296190Y-149788571D01*
X87343809Y-149883809D01*
X87343809Y-150121904D01*
X87296190Y-150217142D01*
X87248571Y-150264761D01*
X87153333Y-150312380D01*
X86915238Y-150312380D01*
X86820000Y-150264761D01*
X86772380Y-150217142D01*
%TO.C,J31*%
X92519619Y-108146380D02*
X92710095Y-108146380D01*
X92805333Y-108194000D01*
X92900571Y-108289238D01*
X92948190Y-108479714D01*
X92948190Y-108813047D01*
X92900571Y-109003523D01*
X92805333Y-109098761D01*
X92710095Y-109146380D01*
X92519619Y-109146380D01*
X92424380Y-109098761D01*
X92329142Y-109003523D01*
X92281523Y-108813047D01*
X92281523Y-108479714D01*
X92329142Y-108289238D01*
X92424380Y-108194000D01*
X92519619Y-108146380D01*
X93138666Y-109241619D02*
X93900571Y-109241619D01*
X94662476Y-109146380D02*
X94091047Y-109146380D01*
X94376761Y-109146380D02*
X94376761Y-108146380D01*
X94281523Y-108289238D01*
X94186285Y-108384476D01*
X94091047Y-108432095D01*
%TO.C,J44*%
X111569523Y-89352380D02*
X110998095Y-89352380D01*
X111283809Y-89352380D02*
X111283809Y-88352380D01*
X111188571Y-88495238D01*
X111093333Y-88590476D01*
X110998095Y-88638095D01*
X112521904Y-89352380D02*
X111950476Y-89352380D01*
X112236190Y-89352380D02*
X112236190Y-88352380D01*
X112140952Y-88495238D01*
X112045714Y-88590476D01*
X111950476Y-88638095D01*
D13*
%TO.C,J6*%
X104883000Y-113538000D02*
G75*
G03*
X104883000Y-113538000I-1251000J0D01*
G01*
%TO.C,J41*%
X119361000Y-95250000D02*
G75*
G03*
X119361000Y-95250000I-1251000J0D01*
G01*
%TO.C,J26*%
X124441000Y-111125000D02*
G75*
G03*
X124441000Y-111125000I-1251000J0D01*
G01*
%TO.C,J28*%
X112503000Y-112268000D02*
G75*
G03*
X112503000Y-112268000I-1251000J0D01*
G01*
%TO.C,J45*%
X119361000Y-87630000D02*
G75*
G03*
X119361000Y-87630000I-1251000J0D01*
G01*
%TO.C,J12*%
X94723000Y-113538000D02*
G75*
G03*
X94723000Y-113538000I-1251000J0D01*
G01*
%TO.C,J3*%
X64116000Y-117475000D02*
G75*
G03*
X64116000Y-117475000I-1251000J0D01*
G01*
%TO.C,J58*%
X115551000Y-62230000D02*
G75*
G03*
X115551000Y-62230000I-1251000J0D01*
G01*
%TO.C,J37*%
X109963000Y-110998000D02*
G75*
G03*
X109963000Y-110998000I-1251000J0D01*
G01*
%TO.C,J52*%
X115551000Y-73660000D02*
G75*
G03*
X115551000Y-73660000I-1251000J0D01*
G01*
%TO.C,C8*%
X103100000Y-147001000D02*
X102821000Y-147001000D01*
X106522000Y-145761000D02*
X105180000Y-145761000D01*
X103100000Y-146081000D02*
X101916000Y-146081000D01*
X105793000Y-146761000D02*
X105180000Y-146761000D01*
X106696000Y-145120000D02*
X105180000Y-145120000D01*
X103100000Y-145601000D02*
X101698000Y-145601000D01*
X105966000Y-146601000D02*
X105180000Y-146601000D01*
X106651000Y-145360000D02*
X105180000Y-145360000D01*
X103100000Y-146561000D02*
X102276000Y-146561000D01*
X103100000Y-145921000D02*
X101830000Y-145921000D01*
X105583000Y-146921000D02*
X105180000Y-146921000D01*
X103100000Y-146281000D02*
X102045000Y-146281000D01*
X105615000Y-141955225D02*
X105615000Y-142455225D01*
X103100000Y-145440000D02*
X101649000Y-145440000D01*
X106554000Y-145681000D02*
X105180000Y-145681000D01*
X103100000Y-146001000D02*
X101872000Y-146001000D01*
X104424000Y-147361000D02*
X103856000Y-147361000D01*
X103100000Y-145360000D02*
X101629000Y-145360000D01*
X103100000Y-145561000D02*
X101685000Y-145561000D01*
X103100000Y-145400000D02*
X101639000Y-145400000D01*
X103100000Y-145841000D02*
X101792000Y-145841000D01*
X103100000Y-145280000D02*
X101612000Y-145280000D01*
X106668000Y-145280000D02*
X105180000Y-145280000D01*
X103100000Y-146361000D02*
X102105000Y-146361000D01*
X106488000Y-145841000D02*
X105180000Y-145841000D01*
X106718000Y-144880000D02*
X101562000Y-144880000D01*
X103100000Y-146241000D02*
X102018000Y-146241000D01*
X105391000Y-147041000D02*
X105180000Y-147041000D01*
X103100000Y-145641000D02*
X101712000Y-145641000D01*
X103100000Y-145761000D02*
X101758000Y-145761000D01*
X106719000Y-144840000D02*
X101561000Y-144840000D01*
X103100000Y-145881000D02*
X101811000Y-145881000D01*
X103100000Y-146841000D02*
X102586000Y-146841000D01*
X106077000Y-146481000D02*
X105180000Y-146481000D01*
X103100000Y-145681000D02*
X101726000Y-145681000D01*
X106631000Y-145440000D02*
X105180000Y-145440000D01*
X103100000Y-145160000D02*
X101590000Y-145160000D01*
X106595000Y-145561000D02*
X105180000Y-145561000D01*
X106608000Y-145521000D02*
X105180000Y-145521000D01*
X104658000Y-147321000D02*
X103622000Y-147321000D01*
X105459000Y-147001000D02*
X105180000Y-147001000D01*
X103100000Y-145240000D02*
X101604000Y-145240000D01*
X106713000Y-144960000D02*
X101567000Y-144960000D01*
X106683000Y-145200000D02*
X105180000Y-145200000D01*
X106430000Y-145961000D02*
X105180000Y-145961000D01*
X103100000Y-145200000D02*
X101597000Y-145200000D01*
X103100000Y-146521000D02*
X102239000Y-146521000D01*
X106568000Y-145641000D02*
X105180000Y-145641000D01*
X105640000Y-146881000D02*
X105180000Y-146881000D01*
X103100000Y-146801000D02*
X102535000Y-146801000D01*
X103100000Y-145801000D02*
X101775000Y-145801000D01*
X105839000Y-146721000D02*
X105180000Y-146721000D01*
X103100000Y-145721000D02*
X101742000Y-145721000D01*
X103100000Y-146881000D02*
X102640000Y-146881000D01*
X103100000Y-146201000D02*
X101991000Y-146201000D01*
X106408000Y-146001000D02*
X105180000Y-146001000D01*
X103100000Y-145481000D02*
X101660000Y-145481000D01*
X106289000Y-146201000D02*
X105180000Y-146201000D01*
X103100000Y-146681000D02*
X102397000Y-146681000D01*
X103100000Y-145080000D02*
X101579000Y-145080000D01*
X105238000Y-147121000D02*
X103042000Y-147121000D01*
X106709000Y-145000000D02*
X105180000Y-145000000D01*
X105523000Y-146961000D02*
X105180000Y-146961000D01*
X106364000Y-146081000D02*
X105180000Y-146081000D01*
X103100000Y-146041000D02*
X101893000Y-146041000D01*
X106340000Y-146121000D02*
X105180000Y-146121000D01*
X103100000Y-146481000D02*
X102203000Y-146481000D01*
X103100000Y-146761000D02*
X102487000Y-146761000D01*
X105055000Y-147201000D02*
X103225000Y-147201000D01*
X104945000Y-147241000D02*
X103335000Y-147241000D01*
X106705000Y-145040000D02*
X105180000Y-145040000D01*
X106720000Y-144760000D02*
X101560000Y-144760000D01*
X105745000Y-146801000D02*
X105180000Y-146801000D01*
X106690000Y-145160000D02*
X105180000Y-145160000D01*
X103100000Y-145521000D02*
X101672000Y-145521000D01*
X106582000Y-145601000D02*
X105180000Y-145601000D01*
X106387000Y-146041000D02*
X105180000Y-146041000D01*
X105694000Y-146841000D02*
X105180000Y-146841000D01*
X103100000Y-146921000D02*
X102697000Y-146921000D01*
X105318000Y-147081000D02*
X102962000Y-147081000D01*
X106315000Y-146161000D02*
X105180000Y-146161000D01*
X104817000Y-147281000D02*
X103463000Y-147281000D01*
X103100000Y-147041000D02*
X102889000Y-147041000D01*
X106660000Y-145320000D02*
X105180000Y-145320000D01*
X103100000Y-146601000D02*
X102314000Y-146601000D01*
X103100000Y-145000000D02*
X101571000Y-145000000D01*
X106205000Y-146321000D02*
X105180000Y-146321000D01*
X106701000Y-145080000D02*
X105180000Y-145080000D01*
X106111000Y-146441000D02*
X105180000Y-146441000D01*
X106175000Y-146361000D02*
X105180000Y-146361000D01*
X106620000Y-145481000D02*
X105180000Y-145481000D01*
X103100000Y-146641000D02*
X102355000Y-146641000D01*
X103100000Y-146721000D02*
X102441000Y-146721000D01*
X103100000Y-145120000D02*
X101584000Y-145120000D01*
X103100000Y-146961000D02*
X102757000Y-146961000D01*
X103100000Y-146401000D02*
X102136000Y-146401000D01*
X106235000Y-146281000D02*
X105180000Y-146281000D01*
X105865000Y-142205225D02*
X105365000Y-142205225D01*
X103100000Y-145320000D02*
X101620000Y-145320000D01*
X103100000Y-145961000D02*
X101850000Y-145961000D01*
X106469000Y-145881000D02*
X105180000Y-145881000D01*
X106004000Y-146561000D02*
X105180000Y-146561000D01*
X103100000Y-146321000D02*
X102075000Y-146321000D01*
X103100000Y-146161000D02*
X101965000Y-146161000D01*
X106041000Y-146521000D02*
X105180000Y-146521000D01*
X106505000Y-145801000D02*
X105180000Y-145801000D01*
X103100000Y-146441000D02*
X102169000Y-146441000D01*
X106450000Y-145921000D02*
X105180000Y-145921000D01*
X105151000Y-147161000D02*
X103129000Y-147161000D01*
X106641000Y-145400000D02*
X105180000Y-145400000D01*
X106144000Y-146401000D02*
X105180000Y-146401000D01*
X106538000Y-145721000D02*
X105180000Y-145721000D01*
X106716000Y-144920000D02*
X101564000Y-144920000D01*
X106720000Y-144800000D02*
X101560000Y-144800000D01*
X105925000Y-146641000D02*
X105180000Y-146641000D01*
X106262000Y-146241000D02*
X105180000Y-146241000D01*
X105883000Y-146681000D02*
X105180000Y-146681000D01*
X103100000Y-145040000D02*
X101575000Y-145040000D01*
X106676000Y-145240000D02*
X105180000Y-145240000D01*
X103100000Y-146121000D02*
X101940000Y-146121000D01*
X106760000Y-144760000D02*
G75*
G03*
X106760000Y-144760000I-2620000J0D01*
G01*
%TO.C,J29*%
X102381002Y-112268000D02*
G75*
G03*
X102381002Y-112268000I-1251000J0D01*
G01*
%TO.C,C5*%
X128370000Y-152500000D02*
X128370000Y-149760000D01*
X120630000Y-152500000D02*
X120630000Y-149760000D01*
X128370000Y-152500000D02*
X120630000Y-152500000D01*
X128370000Y-149760000D02*
X120630000Y-149760000D01*
%TO.C,C13*%
X92650000Y-119280000D02*
X92650000Y-122020000D01*
X92650000Y-119280000D02*
X100390000Y-119280000D01*
X92650000Y-122020000D02*
X100390000Y-122020000D01*
X100390000Y-119280000D02*
X100390000Y-122020000D01*
%TO.C,J4*%
X121901000Y-114300000D02*
G75*
G03*
X121901000Y-114300000I-1251000J0D01*
G01*
%TO.C,J25*%
X118091000Y-120650000D02*
G75*
G03*
X118091000Y-120650000I-1251000J0D01*
G01*
%TO.C,J27*%
X78800000Y-111760000D02*
X78800000Y-116900000D01*
X76140000Y-111760000D02*
X76140000Y-116900000D01*
X76140000Y-109160000D02*
X77470000Y-109160000D01*
X76140000Y-110490000D02*
X76140000Y-109160000D01*
X76140000Y-116900000D02*
X78800000Y-116900000D01*
X76140000Y-111760000D02*
X78800000Y-111760000D01*
%TO.C,J35*%
X107423000Y-114808000D02*
G75*
G03*
X107423000Y-114808000I-1251000J0D01*
G01*
%TO.C,J47*%
X119361000Y-83820000D02*
G75*
G03*
X119361000Y-83820000I-1251000J0D01*
G01*
%TO.C,C4*%
X62130000Y-148530000D02*
X62130000Y-156270000D01*
X64870000Y-156270000D02*
X62130000Y-156270000D01*
X64870000Y-148530000D02*
X64870000Y-156270000D01*
X64870000Y-148530000D02*
X62130000Y-148530000D01*
%TO.C,C2*%
X123051000Y-155756000D02*
X123051000Y-154398000D01*
X123572000Y-155756000D02*
X123572000Y-154253000D01*
X123332000Y-155756000D02*
X123332000Y-154305000D01*
X123211000Y-159251000D02*
X123211000Y-157836000D01*
X123692000Y-155756000D02*
X123692000Y-154235000D01*
X123452000Y-159316000D02*
X123452000Y-157836000D01*
X122411000Y-155756000D02*
X122411000Y-154761000D01*
X122531000Y-155756000D02*
X122531000Y-154674000D01*
X123171000Y-159238000D02*
X123171000Y-157836000D01*
X123492000Y-155756000D02*
X123492000Y-154268000D01*
X121811000Y-158179000D02*
X121811000Y-157836000D01*
X121931000Y-155756000D02*
X121931000Y-155242000D01*
X123572000Y-159339000D02*
X123572000Y-157836000D01*
X123211000Y-155756000D02*
X123211000Y-154341000D01*
X122051000Y-158495000D02*
X122051000Y-157836000D01*
X121731000Y-158047000D02*
X121731000Y-157836000D01*
X123932000Y-159375000D02*
X123932000Y-154217000D01*
X123612000Y-159346000D02*
X123612000Y-157836000D01*
X122931000Y-155756000D02*
X122931000Y-154448000D01*
X122651000Y-158996000D02*
X122651000Y-157836000D01*
X123171000Y-155756000D02*
X123171000Y-154354000D01*
X122771000Y-155756000D02*
X122771000Y-154528000D01*
X122451000Y-155756000D02*
X122451000Y-154731000D01*
X121851000Y-155756000D02*
X121851000Y-155353000D01*
X124012000Y-159376000D02*
X124012000Y-154216000D01*
X123131000Y-159224000D02*
X123131000Y-157836000D01*
X123892000Y-159374000D02*
X123892000Y-154218000D01*
X123532000Y-155756000D02*
X123532000Y-154260000D01*
X122331000Y-155756000D02*
X122331000Y-154825000D01*
X122091000Y-155756000D02*
X122091000Y-155053000D01*
X121411000Y-157080000D02*
X121411000Y-156512000D01*
X121931000Y-158350000D02*
X121931000Y-157836000D01*
X123772000Y-155756000D02*
X123772000Y-154227000D01*
X122971000Y-159161000D02*
X122971000Y-157836000D01*
X122931000Y-159144000D02*
X122931000Y-157836000D01*
X126566775Y-158521000D02*
X126566775Y-158021000D01*
X123131000Y-155756000D02*
X123131000Y-154368000D01*
X123652000Y-159352000D02*
X123652000Y-157836000D01*
X122731000Y-159043000D02*
X122731000Y-157836000D01*
X123412000Y-155756000D02*
X123412000Y-154285000D01*
X123372000Y-159297000D02*
X123372000Y-157836000D01*
X122131000Y-155756000D02*
X122131000Y-155011000D01*
X123091000Y-155756000D02*
X123091000Y-154382000D01*
X123972000Y-159376000D02*
X123972000Y-154216000D01*
X123492000Y-159324000D02*
X123492000Y-157836000D01*
X121451000Y-157314000D02*
X121451000Y-156278000D01*
X123291000Y-155756000D02*
X123291000Y-154316000D01*
X123412000Y-159307000D02*
X123412000Y-157836000D01*
X123812000Y-159369000D02*
X123812000Y-154223000D01*
X121771000Y-155756000D02*
X121771000Y-155477000D01*
X122011000Y-155756000D02*
X122011000Y-155143000D01*
X122651000Y-155756000D02*
X122651000Y-154596000D01*
X121611000Y-157807000D02*
X121611000Y-155785000D01*
X121691000Y-157974000D02*
X121691000Y-155618000D01*
X122251000Y-158697000D02*
X122251000Y-157836000D01*
X122691000Y-155756000D02*
X122691000Y-154572000D01*
X122451000Y-158861000D02*
X122451000Y-157836000D01*
X123011000Y-155756000D02*
X123011000Y-154414000D01*
X123612000Y-155756000D02*
X123612000Y-154246000D01*
X122211000Y-158660000D02*
X122211000Y-157836000D01*
X122251000Y-155756000D02*
X122251000Y-154895000D01*
X122491000Y-155756000D02*
X122491000Y-154701000D01*
X122331000Y-158767000D02*
X122331000Y-157836000D01*
X123291000Y-159276000D02*
X123291000Y-157836000D01*
X123772000Y-159365000D02*
X123772000Y-157836000D01*
X122011000Y-158449000D02*
X122011000Y-157836000D01*
X122171000Y-158622000D02*
X122171000Y-157836000D01*
X123091000Y-159210000D02*
X123091000Y-157836000D01*
X122571000Y-158945000D02*
X122571000Y-157836000D01*
X122171000Y-155756000D02*
X122171000Y-154970000D01*
X122891000Y-155756000D02*
X122891000Y-154467000D01*
X123051000Y-159194000D02*
X123051000Y-157836000D01*
X126816775Y-158271000D02*
X126316775Y-158271000D01*
X121531000Y-157601000D02*
X121531000Y-155991000D01*
X122371000Y-155756000D02*
X122371000Y-154792000D01*
X123692000Y-159357000D02*
X123692000Y-157836000D01*
X123011000Y-159178000D02*
X123011000Y-157836000D01*
X122891000Y-159125000D02*
X122891000Y-157836000D01*
X122051000Y-155756000D02*
X122051000Y-155097000D01*
X122531000Y-158918000D02*
X122531000Y-157836000D01*
X122211000Y-155756000D02*
X122211000Y-154932000D01*
X121651000Y-157894000D02*
X121651000Y-155698000D01*
X122291000Y-158733000D02*
X122291000Y-157836000D01*
X123251000Y-159264000D02*
X123251000Y-157836000D01*
X123852000Y-159372000D02*
X123852000Y-154220000D01*
X121491000Y-157473000D02*
X121491000Y-156119000D01*
X121811000Y-155756000D02*
X121811000Y-155413000D01*
X121891000Y-155756000D02*
X121891000Y-155296000D01*
X122731000Y-155756000D02*
X122731000Y-154549000D01*
X121971000Y-158401000D02*
X121971000Y-157836000D01*
X122611000Y-155756000D02*
X122611000Y-154621000D01*
X121731000Y-155756000D02*
X121731000Y-155545000D01*
X122811000Y-155756000D02*
X122811000Y-154506000D01*
X122131000Y-158581000D02*
X122131000Y-157836000D01*
X123372000Y-155756000D02*
X123372000Y-154295000D01*
X121571000Y-157711000D02*
X121571000Y-155881000D01*
X122291000Y-155756000D02*
X122291000Y-154859000D01*
X122691000Y-159020000D02*
X122691000Y-157836000D01*
X123332000Y-159287000D02*
X123332000Y-157836000D01*
X122811000Y-159086000D02*
X122811000Y-157836000D01*
X122851000Y-155756000D02*
X122851000Y-154486000D01*
X122971000Y-155756000D02*
X122971000Y-154431000D01*
X123452000Y-155756000D02*
X123452000Y-154276000D01*
X122771000Y-159064000D02*
X122771000Y-157836000D01*
X121851000Y-158239000D02*
X121851000Y-157836000D01*
X122491000Y-158891000D02*
X122491000Y-157836000D01*
X123732000Y-155756000D02*
X123732000Y-154231000D01*
X122611000Y-158971000D02*
X122611000Y-157836000D01*
X122371000Y-158800000D02*
X122371000Y-157836000D01*
X123532000Y-159332000D02*
X123532000Y-157836000D01*
X122851000Y-159106000D02*
X122851000Y-157836000D01*
X121971000Y-155756000D02*
X121971000Y-155191000D01*
X123732000Y-159361000D02*
X123732000Y-157836000D01*
X123652000Y-155756000D02*
X123652000Y-154240000D01*
X121771000Y-158115000D02*
X121771000Y-157836000D01*
X122411000Y-158831000D02*
X122411000Y-157836000D01*
X123251000Y-155756000D02*
X123251000Y-154328000D01*
X121891000Y-158296000D02*
X121891000Y-157836000D01*
X122091000Y-158539000D02*
X122091000Y-157836000D01*
X122571000Y-155756000D02*
X122571000Y-154647000D01*
X126632000Y-156796000D02*
G75*
G03*
X126632000Y-156796000I-2620000J0D01*
G01*
%TO.C,J39*%
X115551000Y-96520000D02*
G75*
G03*
X115551000Y-96520000I-1251000J0D01*
G01*
%TO.C,J55*%
X119361000Y-68580000D02*
G75*
G03*
X119361000Y-68580000I-1251000J0D01*
G01*
%TO.C,J2*%
X116821000Y-124460000D02*
G75*
G03*
X116821000Y-124460000I-1251000J0D01*
G01*
%TO.C,J56*%
X115551000Y-66040000D02*
G75*
G03*
X115551000Y-66040000I-1251000J0D01*
G01*
%TO.C,J30*%
X97263000Y-112014000D02*
G75*
G03*
X97263000Y-112014000I-1251000J0D01*
G01*
%TO.C,C6*%
X112930000Y-149760000D02*
X112930000Y-152500000D01*
X112930000Y-149760000D02*
X120670000Y-149760000D01*
X120670000Y-149760000D02*
X120670000Y-152500000D01*
X112930000Y-152500000D02*
X120670000Y-152500000D01*
%TO.C,J9*%
X114827002Y-113792000D02*
G75*
G03*
X114827002Y-113792000I-1251000J0D01*
G01*
%TO.C,J21*%
X72371000Y-115570000D02*
G75*
G03*
X72371000Y-115570000I-1251000J0D01*
G01*
%TO.C,C1*%
X114911000Y-155756000D02*
X114911000Y-154674000D01*
X114351000Y-158401000D02*
X114351000Y-157836000D01*
X115792000Y-159307000D02*
X115792000Y-157836000D01*
X116392000Y-159376000D02*
X116392000Y-154216000D01*
X115591000Y-159251000D02*
X115591000Y-157836000D01*
X114431000Y-155756000D02*
X114431000Y-155097000D01*
X115591000Y-155756000D02*
X115591000Y-154341000D01*
X115471000Y-155756000D02*
X115471000Y-154382000D01*
X115271000Y-159125000D02*
X115271000Y-157836000D01*
X114871000Y-155756000D02*
X114871000Y-154701000D01*
X114991000Y-155756000D02*
X114991000Y-154621000D01*
X115231000Y-155756000D02*
X115231000Y-154486000D01*
X116032000Y-155756000D02*
X116032000Y-154240000D01*
X115231000Y-159106000D02*
X115231000Y-157836000D01*
X114111000Y-155756000D02*
X114111000Y-155545000D01*
X115992000Y-155756000D02*
X115992000Y-154246000D01*
X115271000Y-155756000D02*
X115271000Y-154467000D01*
X116192000Y-159369000D02*
X116192000Y-154223000D01*
X115832000Y-155756000D02*
X115832000Y-154276000D01*
X115351000Y-159161000D02*
X115351000Y-157836000D01*
X116312000Y-159375000D02*
X116312000Y-154217000D01*
X115712000Y-155756000D02*
X115712000Y-154305000D01*
X114591000Y-158660000D02*
X114591000Y-157836000D01*
X114231000Y-155756000D02*
X114231000Y-155353000D01*
X118946775Y-158521000D02*
X118946775Y-158021000D01*
X113831000Y-157314000D02*
X113831000Y-156278000D01*
X115792000Y-155756000D02*
X115792000Y-154285000D01*
X115311000Y-155756000D02*
X115311000Y-154448000D01*
X115151000Y-155756000D02*
X115151000Y-154528000D01*
X114511000Y-158581000D02*
X114511000Y-157836000D01*
X116112000Y-159361000D02*
X116112000Y-157836000D01*
X114471000Y-158539000D02*
X114471000Y-157836000D01*
X114791000Y-158831000D02*
X114791000Y-157836000D01*
X114871000Y-158891000D02*
X114871000Y-157836000D01*
X115471000Y-159210000D02*
X115471000Y-157836000D01*
X115952000Y-159339000D02*
X115952000Y-157836000D01*
X114511000Y-155756000D02*
X114511000Y-155011000D01*
X114431000Y-158495000D02*
X114431000Y-157836000D01*
X114711000Y-158767000D02*
X114711000Y-157836000D01*
X116152000Y-155756000D02*
X116152000Y-154227000D01*
X114231000Y-158239000D02*
X114231000Y-157836000D01*
X114191000Y-158179000D02*
X114191000Y-157836000D01*
X115031000Y-158996000D02*
X115031000Y-157836000D01*
X114751000Y-155756000D02*
X114751000Y-154792000D01*
X114271000Y-158296000D02*
X114271000Y-157836000D01*
X115431000Y-155756000D02*
X115431000Y-154398000D01*
X115752000Y-155756000D02*
X115752000Y-154295000D01*
X115111000Y-159043000D02*
X115111000Y-157836000D01*
X114391000Y-158449000D02*
X114391000Y-157836000D01*
X115551000Y-159238000D02*
X115551000Y-157836000D01*
X115311000Y-159144000D02*
X115311000Y-157836000D01*
X113951000Y-157711000D02*
X113951000Y-155881000D01*
X114751000Y-158800000D02*
X114751000Y-157836000D01*
X114151000Y-155756000D02*
X114151000Y-155477000D01*
X114951000Y-158945000D02*
X114951000Y-157836000D01*
X114471000Y-155756000D02*
X114471000Y-155053000D01*
X115832000Y-159316000D02*
X115832000Y-157836000D01*
X114311000Y-155756000D02*
X114311000Y-155242000D01*
X114351000Y-155756000D02*
X114351000Y-155191000D01*
X114631000Y-155756000D02*
X114631000Y-154895000D01*
X114831000Y-158861000D02*
X114831000Y-157836000D01*
X115431000Y-159194000D02*
X115431000Y-157836000D01*
X114831000Y-155756000D02*
X114831000Y-154731000D01*
X113991000Y-157807000D02*
X113991000Y-155785000D01*
X116352000Y-159376000D02*
X116352000Y-154216000D01*
X114631000Y-158697000D02*
X114631000Y-157836000D01*
X115752000Y-159297000D02*
X115752000Y-157836000D01*
X114911000Y-158918000D02*
X114911000Y-157836000D01*
X115071000Y-159020000D02*
X115071000Y-157836000D01*
X115872000Y-159324000D02*
X115872000Y-157836000D01*
X115631000Y-159264000D02*
X115631000Y-157836000D01*
X115511000Y-155756000D02*
X115511000Y-154368000D01*
X114271000Y-155756000D02*
X114271000Y-155296000D01*
X114071000Y-157974000D02*
X114071000Y-155618000D01*
X116112000Y-155756000D02*
X116112000Y-154231000D01*
X115671000Y-155756000D02*
X115671000Y-154316000D01*
X116072000Y-159357000D02*
X116072000Y-157836000D01*
X114191000Y-155756000D02*
X114191000Y-155413000D01*
X114151000Y-158115000D02*
X114151000Y-157836000D01*
X114031000Y-157894000D02*
X114031000Y-155698000D01*
X114111000Y-158047000D02*
X114111000Y-157836000D01*
X115391000Y-159178000D02*
X115391000Y-157836000D01*
X115351000Y-155756000D02*
X115351000Y-154431000D01*
X113791000Y-157080000D02*
X113791000Y-156512000D01*
X116032000Y-159352000D02*
X116032000Y-157836000D01*
X114951000Y-155756000D02*
X114951000Y-154647000D01*
X115912000Y-159332000D02*
X115912000Y-157836000D01*
X114671000Y-158733000D02*
X114671000Y-157836000D01*
X115111000Y-155756000D02*
X115111000Y-154549000D01*
X115872000Y-155756000D02*
X115872000Y-154268000D01*
X115671000Y-159276000D02*
X115671000Y-157836000D01*
X114791000Y-155756000D02*
X114791000Y-154761000D01*
X115031000Y-155756000D02*
X115031000Y-154596000D01*
X115551000Y-155756000D02*
X115551000Y-154354000D01*
X115191000Y-155756000D02*
X115191000Y-154506000D01*
X114311000Y-158350000D02*
X114311000Y-157836000D01*
X116232000Y-159372000D02*
X116232000Y-154220000D01*
X113871000Y-157473000D02*
X113871000Y-156119000D01*
X115511000Y-159224000D02*
X115511000Y-157836000D01*
X114551000Y-155756000D02*
X114551000Y-154970000D01*
X116272000Y-159374000D02*
X116272000Y-154218000D01*
X116072000Y-155756000D02*
X116072000Y-154235000D01*
X115071000Y-155756000D02*
X115071000Y-154572000D01*
X115191000Y-159086000D02*
X115191000Y-157836000D01*
X114551000Y-158622000D02*
X114551000Y-157836000D01*
X114991000Y-158971000D02*
X114991000Y-157836000D01*
X114391000Y-155756000D02*
X114391000Y-155143000D01*
X115952000Y-155756000D02*
X115952000Y-154253000D01*
X114671000Y-155756000D02*
X114671000Y-154859000D01*
X115712000Y-159287000D02*
X115712000Y-157836000D01*
X115992000Y-159346000D02*
X115992000Y-157836000D01*
X116152000Y-159365000D02*
X116152000Y-157836000D01*
X115151000Y-159064000D02*
X115151000Y-157836000D01*
X114591000Y-155756000D02*
X114591000Y-154932000D01*
X115912000Y-155756000D02*
X115912000Y-154260000D01*
X114711000Y-155756000D02*
X114711000Y-154825000D01*
X113911000Y-157601000D02*
X113911000Y-155991000D01*
X115631000Y-155756000D02*
X115631000Y-154328000D01*
X119196775Y-158271000D02*
X118696775Y-158271000D01*
X115391000Y-155756000D02*
X115391000Y-154414000D01*
X119012000Y-156796000D02*
G75*
G03*
X119012000Y-156796000I-2620000J0D01*
G01*
%TO.C,J63*%
X119361000Y-53340000D02*
G75*
G03*
X119361000Y-53340000I-1251000J0D01*
G01*
%TO.C,U1*%
X115110000Y-146050000D02*
X112570000Y-146050000D01*
X131000000Y-148630000D02*
X115110000Y-148630000D01*
X115110000Y-140970000D02*
X112570000Y-140970000D01*
X115110000Y-143510000D02*
X112570000Y-143510000D01*
X115110000Y-138390000D02*
X115110000Y-148630000D01*
X131000000Y-138390000D02*
X131000000Y-148630000D01*
X131000000Y-138390000D02*
X115110000Y-138390000D01*
%TO.C,J57*%
X119361000Y-64770000D02*
G75*
G03*
X119361000Y-64770000I-1251000J0D01*
G01*
%TO.C,J66*%
X119361000Y-117475000D02*
G75*
G03*
X119361000Y-117475000I-1251000J0D01*
G01*
%TO.C,J65*%
X64116000Y-114300000D02*
G75*
G03*
X64116000Y-114300000I-1251000J0D01*
G01*
%TO.C,J13*%
X97263000Y-114808000D02*
G75*
G03*
X97263000Y-114808000I-1251000J0D01*
G01*
%TO.C,C9*%
X107215000Y-137220000D02*
X109955000Y-137220000D01*
X107215000Y-129480000D02*
X109955000Y-129480000D01*
X107215000Y-137220000D02*
X107215000Y-129480000D01*
X109955000Y-137220000D02*
X109955000Y-129480000D01*
%TO.C,C10*%
X107215000Y-148650000D02*
X109955000Y-148650000D01*
X109955000Y-148650000D02*
X109955000Y-140910000D01*
X107215000Y-148650000D02*
X107215000Y-140910000D01*
X107215000Y-140910000D02*
X109955000Y-140910000D01*
%TO.C,U2*%
X115110000Y-129540000D02*
X112570000Y-129540000D01*
X131000000Y-126960000D02*
X131000000Y-137200000D01*
X131000000Y-137200000D02*
X115110000Y-137200000D01*
X115110000Y-126960000D02*
X115110000Y-137200000D01*
X115110000Y-132080000D02*
X112570000Y-132080000D01*
X115110000Y-134620000D02*
X112570000Y-134620000D01*
X131000000Y-126960000D02*
X115110000Y-126960000D01*
%TO.C,J33*%
X89643000Y-113538000D02*
G75*
G03*
X89643000Y-113538000I-1251000J0D01*
G01*
%TO.C,J59*%
X119361000Y-60960000D02*
G75*
G03*
X119361000Y-60960000I-1251000J0D01*
G01*
%TO.C,J15*%
X104921002Y-110998000D02*
G75*
G03*
X104921002Y-110998000I-1251000J0D01*
G01*
%TO.C,C11*%
X67250000Y-119280000D02*
X74990000Y-119280000D01*
X74990000Y-119280000D02*
X74990000Y-122020000D01*
X67250000Y-122020000D02*
X74990000Y-122020000D01*
X67250000Y-119280000D02*
X67250000Y-122020000D01*
%TO.C,C12*%
X79950000Y-119280000D02*
X87690000Y-119280000D01*
X79950000Y-119280000D02*
X79950000Y-122020000D01*
X87690000Y-119280000D02*
X87690000Y-122020000D01*
X79950000Y-122020000D02*
X87690000Y-122020000D01*
%TO.C,J50*%
X115551000Y-77470000D02*
G75*
G03*
X115551000Y-77470000I-1251000J0D01*
G01*
%TO.C,J60*%
X115551000Y-58420000D02*
G75*
G03*
X115551000Y-58420000I-1251000J0D01*
G01*
%TO.C,J61*%
X119361000Y-57150000D02*
G75*
G03*
X119361000Y-57150000I-1251000J0D01*
G01*
%TO.C,C7*%
X105180000Y-133708113D02*
X106469000Y-133708113D01*
X105180000Y-132908113D02*
X105883000Y-132908113D01*
X105180000Y-133228113D02*
X106175000Y-133228113D01*
X105180000Y-132748113D02*
X105694000Y-132748113D01*
X101940000Y-133468113D02*
X103100000Y-133468113D01*
X102075000Y-133268113D02*
X103100000Y-133268113D01*
X101575000Y-134549113D02*
X103100000Y-134549113D01*
X105180000Y-134469113D02*
X106696000Y-134469113D01*
X101639000Y-134189113D02*
X103100000Y-134189113D01*
X101612000Y-134309113D02*
X103100000Y-134309113D01*
X103335000Y-132348113D02*
X104945000Y-132348113D01*
X105180000Y-134349113D02*
X106676000Y-134349113D01*
X105180000Y-133988113D02*
X106582000Y-133988113D01*
X105180000Y-132588113D02*
X105459000Y-132588113D01*
X103225000Y-132388113D02*
X105055000Y-132388113D01*
X101597000Y-134389113D02*
X103100000Y-134389113D01*
X105180000Y-133628113D02*
X106430000Y-133628113D01*
X105180000Y-134149113D02*
X106631000Y-134149113D01*
X101698000Y-133988113D02*
X103100000Y-133988113D01*
X101649000Y-134149113D02*
X103100000Y-134149113D01*
X105180000Y-133948113D02*
X106568000Y-133948113D01*
X103622000Y-132268113D02*
X104658000Y-132268113D01*
X101916000Y-133508113D02*
X103100000Y-133508113D01*
X105180000Y-133148113D02*
X106111000Y-133148113D01*
X102535000Y-132788113D02*
X103100000Y-132788113D01*
X105180000Y-133668113D02*
X106450000Y-133668113D01*
X101742000Y-133868113D02*
X103100000Y-133868113D01*
X102314000Y-132988113D02*
X103100000Y-132988113D01*
X101561000Y-134749113D02*
X106719000Y-134749113D01*
X105180000Y-133068113D02*
X106041000Y-133068113D01*
X101564000Y-134669113D02*
X106716000Y-134669113D01*
X102697000Y-132668113D02*
X103100000Y-132668113D01*
X101712000Y-133948113D02*
X103100000Y-133948113D01*
X102415000Y-137383888D02*
X102915000Y-137383888D01*
X103463000Y-132308113D02*
X104817000Y-132308113D01*
X105180000Y-132548113D02*
X105391000Y-132548113D01*
X105180000Y-133348113D02*
X106262000Y-133348113D01*
X105180000Y-132628113D02*
X105523000Y-132628113D01*
X105180000Y-133828113D02*
X106522000Y-133828113D01*
X105180000Y-132828113D02*
X105793000Y-132828113D01*
X102355000Y-132948113D02*
X103100000Y-132948113D01*
X101604000Y-134349113D02*
X103100000Y-134349113D01*
X105180000Y-133308113D02*
X106235000Y-133308113D01*
X105180000Y-133188113D02*
X106144000Y-133188113D01*
X102018000Y-133348113D02*
X103100000Y-133348113D01*
X102821000Y-132588113D02*
X103100000Y-132588113D01*
X101872000Y-133588113D02*
X103100000Y-133588113D01*
X105180000Y-133108113D02*
X106077000Y-133108113D01*
X101567000Y-134629113D02*
X106713000Y-134629113D01*
X105180000Y-133028113D02*
X106004000Y-133028113D01*
X103129000Y-132428113D02*
X105151000Y-132428113D01*
X102276000Y-133028113D02*
X103100000Y-133028113D01*
X105180000Y-134068113D02*
X106608000Y-134068113D01*
X101584000Y-134469113D02*
X103100000Y-134469113D01*
X102169000Y-133148113D02*
X103100000Y-133148113D01*
X105180000Y-134189113D02*
X106641000Y-134189113D01*
X105180000Y-132948113D02*
X105925000Y-132948113D01*
X105180000Y-134589113D02*
X106709000Y-134589113D01*
X102757000Y-132628113D02*
X103100000Y-132628113D01*
X105180000Y-134389113D02*
X106683000Y-134389113D01*
X102136000Y-133188113D02*
X103100000Y-133188113D01*
X102640000Y-132708113D02*
X103100000Y-132708113D01*
X101562000Y-134709113D02*
X106718000Y-134709113D01*
X105180000Y-132988113D02*
X105966000Y-132988113D01*
X101758000Y-133828113D02*
X103100000Y-133828113D01*
X102397000Y-132908113D02*
X103100000Y-132908113D01*
X101850000Y-133628113D02*
X103100000Y-133628113D01*
X105180000Y-133748113D02*
X106488000Y-133748113D01*
X105180000Y-132868113D02*
X105839000Y-132868113D01*
X103856000Y-132228113D02*
X104424000Y-132228113D01*
X102203000Y-133108113D02*
X103100000Y-133108113D01*
X101726000Y-133908113D02*
X103100000Y-133908113D01*
X102239000Y-133068113D02*
X103100000Y-133068113D01*
X101775000Y-133788113D02*
X103100000Y-133788113D01*
X101590000Y-134429113D02*
X103100000Y-134429113D01*
X101560000Y-134829113D02*
X106720000Y-134829113D01*
X105180000Y-133548113D02*
X106387000Y-133548113D01*
X102441000Y-132868113D02*
X103100000Y-132868113D01*
X101620000Y-134269113D02*
X103100000Y-134269113D01*
X105180000Y-133388113D02*
X106289000Y-133388113D01*
X105180000Y-132708113D02*
X105640000Y-132708113D01*
X101571000Y-134589113D02*
X103100000Y-134589113D01*
X105180000Y-133508113D02*
X106364000Y-133508113D01*
X105180000Y-133428113D02*
X106315000Y-133428113D01*
X101792000Y-133748113D02*
X103100000Y-133748113D01*
X102487000Y-132828113D02*
X103100000Y-132828113D01*
X105180000Y-134429113D02*
X106690000Y-134429113D01*
X101629000Y-134229113D02*
X103100000Y-134229113D01*
X101672000Y-134068113D02*
X103100000Y-134068113D01*
X102889000Y-132548113D02*
X103100000Y-132548113D01*
X105180000Y-134269113D02*
X106660000Y-134269113D01*
X102045000Y-133308113D02*
X103100000Y-133308113D01*
X105180000Y-133468113D02*
X106340000Y-133468113D01*
X105180000Y-133908113D02*
X106554000Y-133908113D01*
X103042000Y-132468113D02*
X105238000Y-132468113D01*
X105180000Y-133588113D02*
X106408000Y-133588113D01*
X101830000Y-133668113D02*
X103100000Y-133668113D01*
X105180000Y-132668113D02*
X105583000Y-132668113D01*
X105180000Y-134549113D02*
X106705000Y-134549113D01*
X102665000Y-137633888D02*
X102665000Y-137133888D01*
X101991000Y-133388113D02*
X103100000Y-133388113D01*
X105180000Y-134309113D02*
X106668000Y-134309113D01*
X105180000Y-134509113D02*
X106701000Y-134509113D01*
X101965000Y-133428113D02*
X103100000Y-133428113D01*
X105180000Y-134028113D02*
X106595000Y-134028113D01*
X101660000Y-134108113D02*
X103100000Y-134108113D01*
X102105000Y-133228113D02*
X103100000Y-133228113D01*
X101685000Y-134028113D02*
X103100000Y-134028113D01*
X105180000Y-134108113D02*
X106620000Y-134108113D01*
X105180000Y-133788113D02*
X106505000Y-133788113D01*
X102962000Y-132508113D02*
X105318000Y-132508113D01*
X102586000Y-132748113D02*
X103100000Y-132748113D01*
X101579000Y-134509113D02*
X103100000Y-134509113D01*
X101893000Y-133548113D02*
X103100000Y-133548113D01*
X105180000Y-132788113D02*
X105745000Y-132788113D01*
X101811000Y-133708113D02*
X103100000Y-133708113D01*
X105180000Y-134229113D02*
X106651000Y-134229113D01*
X101560000Y-134789113D02*
X106720000Y-134789113D01*
X105180000Y-133268113D02*
X106205000Y-133268113D01*
X105180000Y-133868113D02*
X106538000Y-133868113D01*
X106760000Y-134829113D02*
G75*
G03*
X106760000Y-134829113I-2620000J0D01*
G01*
%TO.C,J23*%
X67291000Y-113030000D02*
G75*
G03*
X67291000Y-113030000I-1251000J0D01*
G01*
%TO.C,J24*%
X74911000Y-114300000D02*
G75*
G03*
X74911000Y-114300000I-1251000J0D01*
G01*
%TO.C,U5*%
X99160000Y-148645000D02*
X99160000Y-123125000D01*
X99160000Y-123125000D02*
X93860000Y-123125000D01*
X93860000Y-148645000D02*
X95510000Y-148645000D01*
X93860000Y-123125000D02*
X93860000Y-148645000D01*
X97510000Y-148645000D02*
X99160000Y-148645000D01*
X97510000Y-148645000D02*
G75*
G03*
X95510000Y-148645000I-1000000J0D01*
G01*
%TO.C,J48*%
X115551000Y-81280000D02*
G75*
G03*
X115551000Y-81280000I-1251000J0D01*
G01*
%TO.C,J19*%
X67291000Y-115570000D02*
G75*
G03*
X67291000Y-115570000I-1251000J0D01*
G01*
%TO.C,J20*%
X69831000Y-114300000D02*
G75*
G03*
X69831000Y-114300000I-1251000J0D01*
G01*
%TO.C,J18*%
X72371000Y-113030000D02*
G75*
G03*
X72371000Y-113030000I-1251000J0D01*
G01*
%TO.C,U4*%
X72120000Y-148650000D02*
X73770000Y-148650000D01*
X68470000Y-123130000D02*
X68470000Y-148650000D01*
X68470000Y-148650000D02*
X70120000Y-148650000D01*
X73770000Y-148650000D02*
X73770000Y-123130000D01*
X73770000Y-123130000D02*
X68470000Y-123130000D01*
X72120000Y-148650000D02*
G75*
G03*
X70120000Y-148650000I-1000000J0D01*
G01*
%TO.C,C3*%
X68431000Y-155756000D02*
X68431000Y-155477000D01*
X70112000Y-159316000D02*
X70112000Y-157836000D01*
X68871000Y-158660000D02*
X68871000Y-157836000D01*
X68631000Y-155756000D02*
X68631000Y-155191000D01*
X69791000Y-159224000D02*
X69791000Y-157836000D01*
X68951000Y-158733000D02*
X68951000Y-157836000D01*
X68911000Y-158697000D02*
X68911000Y-157836000D01*
X68471000Y-158179000D02*
X68471000Y-157836000D01*
X73226775Y-158521000D02*
X73226775Y-158021000D01*
X69671000Y-155756000D02*
X69671000Y-154414000D01*
X69751000Y-159210000D02*
X69751000Y-157836000D01*
X68591000Y-155756000D02*
X68591000Y-155242000D01*
X70072000Y-155756000D02*
X70072000Y-154285000D01*
X69591000Y-159144000D02*
X69591000Y-157836000D01*
X68151000Y-157473000D02*
X68151000Y-156119000D01*
X68911000Y-155756000D02*
X68911000Y-154895000D01*
X69551000Y-159125000D02*
X69551000Y-157836000D01*
X70352000Y-155756000D02*
X70352000Y-154235000D01*
X70232000Y-159339000D02*
X70232000Y-157836000D01*
X68831000Y-158622000D02*
X68831000Y-157836000D01*
X69671000Y-159178000D02*
X69671000Y-157836000D01*
X68351000Y-157974000D02*
X68351000Y-155618000D01*
X70432000Y-159365000D02*
X70432000Y-157836000D01*
X70632000Y-159376000D02*
X70632000Y-154216000D01*
X68231000Y-157711000D02*
X68231000Y-155881000D01*
X69951000Y-155756000D02*
X69951000Y-154316000D01*
X69511000Y-155756000D02*
X69511000Y-154486000D01*
X70432000Y-155756000D02*
X70432000Y-154227000D01*
X68671000Y-155756000D02*
X68671000Y-155143000D01*
X68471000Y-155756000D02*
X68471000Y-155413000D01*
X69031000Y-155756000D02*
X69031000Y-154792000D01*
X69992000Y-159287000D02*
X69992000Y-157836000D01*
X70192000Y-159332000D02*
X70192000Y-157836000D01*
X70072000Y-159307000D02*
X70072000Y-157836000D01*
X70152000Y-159324000D02*
X70152000Y-157836000D01*
X69311000Y-155756000D02*
X69311000Y-154596000D01*
X70112000Y-155756000D02*
X70112000Y-154276000D01*
X69271000Y-158971000D02*
X69271000Y-157836000D01*
X69951000Y-159276000D02*
X69951000Y-157836000D01*
X69631000Y-159161000D02*
X69631000Y-157836000D01*
X69111000Y-158861000D02*
X69111000Y-157836000D01*
X68191000Y-157601000D02*
X68191000Y-155991000D01*
X69911000Y-159264000D02*
X69911000Y-157836000D01*
X69831000Y-159238000D02*
X69831000Y-157836000D01*
X70152000Y-155756000D02*
X70152000Y-154268000D01*
X68991000Y-155756000D02*
X68991000Y-154825000D01*
X69351000Y-155756000D02*
X69351000Y-154572000D01*
X70392000Y-155756000D02*
X70392000Y-154231000D01*
X69471000Y-155756000D02*
X69471000Y-154506000D01*
X68271000Y-157807000D02*
X68271000Y-155785000D01*
X69871000Y-159251000D02*
X69871000Y-157836000D01*
X69551000Y-155756000D02*
X69551000Y-154467000D01*
X68391000Y-155756000D02*
X68391000Y-155545000D01*
X68311000Y-157894000D02*
X68311000Y-155698000D01*
X68751000Y-155756000D02*
X68751000Y-155053000D01*
X69231000Y-155756000D02*
X69231000Y-154647000D01*
X69311000Y-158996000D02*
X69311000Y-157836000D01*
X68551000Y-155756000D02*
X68551000Y-155296000D01*
X70352000Y-159357000D02*
X70352000Y-157836000D01*
X69471000Y-159086000D02*
X69471000Y-157836000D01*
X68391000Y-158047000D02*
X68391000Y-157836000D01*
X68711000Y-155756000D02*
X68711000Y-155097000D01*
X69111000Y-155756000D02*
X69111000Y-154731000D01*
X68511000Y-155756000D02*
X68511000Y-155353000D01*
X69591000Y-155756000D02*
X69591000Y-154448000D01*
X69071000Y-158831000D02*
X69071000Y-157836000D01*
X69151000Y-155756000D02*
X69151000Y-154701000D01*
X68831000Y-155756000D02*
X68831000Y-154970000D01*
X69511000Y-159106000D02*
X69511000Y-157836000D01*
X69751000Y-155756000D02*
X69751000Y-154382000D01*
X68791000Y-155756000D02*
X68791000Y-155011000D01*
X69031000Y-158800000D02*
X69031000Y-157836000D01*
X68111000Y-157314000D02*
X68111000Y-156278000D01*
X69231000Y-158945000D02*
X69231000Y-157836000D01*
X69391000Y-159043000D02*
X69391000Y-157836000D01*
X68711000Y-158495000D02*
X68711000Y-157836000D01*
X70272000Y-155756000D02*
X70272000Y-154246000D01*
X70312000Y-159352000D02*
X70312000Y-157836000D01*
X69431000Y-155756000D02*
X69431000Y-154528000D01*
X69351000Y-159020000D02*
X69351000Y-157836000D01*
X70552000Y-159374000D02*
X70552000Y-154218000D01*
X68511000Y-158239000D02*
X68511000Y-157836000D01*
X70192000Y-155756000D02*
X70192000Y-154260000D01*
X70032000Y-159297000D02*
X70032000Y-157836000D01*
X69992000Y-155756000D02*
X69992000Y-154305000D01*
X69791000Y-155756000D02*
X69791000Y-154368000D01*
X69431000Y-159064000D02*
X69431000Y-157836000D01*
X69191000Y-155756000D02*
X69191000Y-154674000D01*
X69871000Y-155756000D02*
X69871000Y-154341000D01*
X68871000Y-155756000D02*
X68871000Y-154932000D01*
X69911000Y-155756000D02*
X69911000Y-154328000D01*
X68591000Y-158350000D02*
X68591000Y-157836000D01*
X70592000Y-159375000D02*
X70592000Y-154217000D01*
X69711000Y-159194000D02*
X69711000Y-157836000D01*
X68991000Y-158767000D02*
X68991000Y-157836000D01*
X70032000Y-155756000D02*
X70032000Y-154295000D01*
X68631000Y-158401000D02*
X68631000Y-157836000D01*
X70672000Y-159376000D02*
X70672000Y-154216000D01*
X68071000Y-157080000D02*
X68071000Y-156512000D01*
X68791000Y-158581000D02*
X68791000Y-157836000D01*
X69831000Y-155756000D02*
X69831000Y-154354000D01*
X68951000Y-155756000D02*
X68951000Y-154859000D01*
X70312000Y-155756000D02*
X70312000Y-154240000D01*
X69631000Y-155756000D02*
X69631000Y-154431000D01*
X73476775Y-158271000D02*
X72976775Y-158271000D01*
X69151000Y-158891000D02*
X69151000Y-157836000D01*
X70392000Y-159361000D02*
X70392000Y-157836000D01*
X69271000Y-155756000D02*
X69271000Y-154621000D01*
X69391000Y-155756000D02*
X69391000Y-154549000D01*
X70512000Y-159372000D02*
X70512000Y-154220000D01*
X70272000Y-159346000D02*
X70272000Y-157836000D01*
X68751000Y-158539000D02*
X68751000Y-157836000D01*
X70472000Y-159369000D02*
X70472000Y-154223000D01*
X68431000Y-158115000D02*
X68431000Y-157836000D01*
X69191000Y-158918000D02*
X69191000Y-157836000D01*
X69711000Y-155756000D02*
X69711000Y-154398000D01*
X68551000Y-158296000D02*
X68551000Y-157836000D01*
X68671000Y-158449000D02*
X68671000Y-157836000D01*
X70232000Y-155756000D02*
X70232000Y-154253000D01*
X69071000Y-155756000D02*
X69071000Y-154761000D01*
X73292000Y-156796000D02*
G75*
G03*
X73292000Y-156796000I-2620000J0D01*
G01*
%TO.C,J64*%
X115551000Y-50800000D02*
G75*
G03*
X115551000Y-50800000I-1251000J0D01*
G01*
%TO.C,J42*%
X115551000Y-92710000D02*
G75*
G03*
X115551000Y-92710000I-1251000J0D01*
G01*
%TO.C,J5*%
X126981000Y-107950000D02*
G75*
G03*
X126981000Y-107950000I-1251000J0D01*
G01*
%TO.C,J62*%
X115551000Y-54610000D02*
G75*
G03*
X115551000Y-54610000I-1251000J0D01*
G01*
%TO.C,J51*%
X119361000Y-76200000D02*
G75*
G03*
X119361000Y-76200000I-1251000J0D01*
G01*
%TO.C,J46*%
X115551000Y-85090000D02*
G75*
G03*
X115551000Y-85090000I-1251000J0D01*
G01*
%TO.C,J34*%
X92183000Y-112014000D02*
G75*
G03*
X92183000Y-112014000I-1251000J0D01*
G01*
%TO.C,J16*%
X99841002Y-110998000D02*
G75*
G03*
X99841002Y-110998000I-1251000J0D01*
G01*
%TO.C,J54*%
X115551000Y-69850000D02*
G75*
G03*
X115551000Y-69850000I-1251000J0D01*
G01*
%TO.C,J49*%
X119361000Y-80010000D02*
G75*
G03*
X119361000Y-80010000I-1251000J0D01*
G01*
%TO.C,J10*%
X107423000Y-112268000D02*
G75*
G03*
X107423000Y-112268000I-1251000J0D01*
G01*
%TO.C,J38*%
X112503000Y-114808000D02*
G75*
G03*
X112503000Y-114808000I-1251000J0D01*
G01*
%TO.C,J53*%
X119361000Y-72390000D02*
G75*
G03*
X119361000Y-72390000I-1251000J0D01*
G01*
D11*
%TO.C,J40*%
X120918000Y-56346000D02*
X120918000Y-56346000D01*
X120918000Y-56446000D02*
X120918000Y-56446000D01*
D10*
X121688000Y-93586000D02*
X121688000Y-52586000D01*
X121688000Y-99586000D02*
X121688000Y-98586000D01*
X121688000Y-46546000D02*
X121688000Y-47586000D01*
X135758000Y-99586000D02*
X135758000Y-46546000D01*
X121688000Y-99586000D02*
X135758000Y-99586000D01*
X135758000Y-46546000D02*
X121688000Y-46546000D01*
D11*
X120918000Y-56446000D02*
G75*
G03*
X120918000Y-56346000I0J50000D01*
G01*
X120918000Y-56346000D02*
G75*
G03*
X120918000Y-56446000I0J-50000D01*
G01*
D13*
%TO.C,J43*%
X119361000Y-91440000D02*
G75*
G03*
X119361000Y-91440000I-1251000J0D01*
G01*
%TO.C,J36*%
X109963000Y-113538000D02*
G75*
G03*
X109963000Y-113538000I-1251000J0D01*
G01*
%TO.C,J17*%
X74911000Y-111760000D02*
G75*
G03*
X74911000Y-111760000I-1251000J0D01*
G01*
%TO.C,J22*%
X69831000Y-111760000D02*
G75*
G03*
X69831000Y-111760000I-1251000J0D01*
G01*
%TO.C,J14*%
X83760000Y-109175000D02*
X85090000Y-109175000D01*
X83760000Y-111775000D02*
X86420000Y-111775000D01*
X83760000Y-110505000D02*
X83760000Y-109175000D01*
X86420000Y-111775000D02*
X86420000Y-116915000D01*
X83760000Y-116915000D02*
X86420000Y-116915000D01*
X83760000Y-111775000D02*
X83760000Y-116915000D01*
%TO.C,J11*%
X99803000Y-113538000D02*
G75*
G03*
X99803000Y-113538000I-1251000J0D01*
G01*
%TO.C,J8*%
X114827002Y-111252000D02*
G75*
G03*
X114827002Y-111252000I-1251000J0D01*
G01*
%TO.C,J7*%
X102343000Y-114808000D02*
G75*
G03*
X102343000Y-114808000I-1251000J0D01*
G01*
%TO.C,J32*%
X92183000Y-114808000D02*
G75*
G03*
X92183000Y-114808000I-1251000J0D01*
G01*
%TO.C,U3*%
X86470000Y-148650000D02*
X86470000Y-123130000D01*
X81170000Y-123130000D02*
X81170000Y-148650000D01*
X84820000Y-148650000D02*
X86470000Y-148650000D01*
X86470000Y-123130000D02*
X81170000Y-123130000D01*
X81170000Y-148650000D02*
X82820000Y-148650000D01*
X84820000Y-148650000D02*
G75*
G03*
X82820000Y-148650000I-1000000J0D01*
G01*
%TO.C,J31*%
X94723000Y-110744000D02*
G75*
G03*
X94723000Y-110744000I-1251000J0D01*
G01*
%TO.C,J44*%
X115551000Y-88900000D02*
G75*
G03*
X115551000Y-88900000I-1251000J0D01*
G01*
%TD*%
%LPC*%
D14*
%TO.C,REF\u002A\u002A*%
X76200000Y-35560000D03*
%TD*%
%TO.C,REF\u002A\u002A*%
X104140000Y-66040000D03*
%TD*%
%TO.C,REF\u002A\u002A*%
X104140000Y-73660000D03*
%TD*%
%TO.C,REF\u002A\u002A*%
X73660000Y-81280000D03*
%TD*%
%TO.C,REF\u002A\u002A*%
X93980000Y-81280000D03*
%TD*%
%TO.C,REF\u002A\u002A*%
X63500000Y-71120000D03*
%TD*%
%TO.C,REF\u002A\u002A*%
X96520000Y-78740000D03*
%TD*%
%TO.C,REF\u002A\u002A*%
X78740000Y-99060000D03*
%TD*%
%TO.C,REF\u002A\u002A*%
X76200000Y-104140000D03*
%TD*%
D15*
%TO.C,J6*%
X103632000Y-113538000D03*
%TD*%
%TO.C,J41*%
X118110000Y-95250000D03*
%TD*%
D14*
%TO.C,REF\u002A\u002A*%
X66040000Y-55880000D03*
%TD*%
D15*
%TO.C,J26*%
X123190000Y-111125000D03*
%TD*%
D14*
%TO.C,REF\u002A\u002A*%
X106680000Y-58420000D03*
%TD*%
%TO.C,REF\u002A\u002A*%
X93980000Y-78740000D03*
%TD*%
%TO.C,REF\u002A\u002A*%
X91440000Y-43180000D03*
%TD*%
D15*
%TO.C,J28*%
X111252000Y-112268000D03*
%TD*%
D14*
%TO.C,REF\u002A\u002A*%
X111760000Y-40640000D03*
%TD*%
%TO.C,REF\u002A\u002A*%
X93980000Y-33020000D03*
%TD*%
%TO.C,REF\u002A\u002A*%
X104140000Y-93980000D03*
%TD*%
%TO.C,REF\u002A\u002A*%
X106680000Y-40640000D03*
%TD*%
%TO.C,REF\u002A\u002A*%
X119380000Y-45720000D03*
%TD*%
%TO.C,REF\u002A\u002A*%
X88900000Y-43180000D03*
%TD*%
D15*
%TO.C,J45*%
X118110000Y-87630000D03*
%TD*%
D14*
%TO.C,REF\u002A\u002A*%
X116840000Y-35560000D03*
%TD*%
%TO.C,REF\u002A\u002A*%
X104140000Y-45720000D03*
%TD*%
%TO.C,REF\u002A\u002A*%
X96520000Y-30480000D03*
%TD*%
D15*
%TO.C,J12*%
X93472000Y-113538000D03*
%TD*%
D14*
%TO.C,REF\u002A\u002A*%
X66040000Y-60960000D03*
%TD*%
%TO.C,REF\u002A\u002A*%
X63500000Y-88900000D03*
%TD*%
%TO.C,REF\u002A\u002A*%
X109220000Y-73660000D03*
%TD*%
%TO.C,REF\u002A\u002A*%
X86360000Y-50800000D03*
%TD*%
%TO.C,REF\u002A\u002A*%
X63500000Y-78740000D03*
%TD*%
%TO.C,REF\u002A\u002A*%
X63500000Y-38100000D03*
%TD*%
%TO.C,REF\u002A\u002A*%
X111760000Y-33020000D03*
%TD*%
%TO.C,REF\u002A\u002A*%
X114300000Y-45720000D03*
%TD*%
%TO.C,REF\u002A\u002A*%
X124460000Y-30480000D03*
%TD*%
%TO.C,REF\u002A\u002A*%
X83820000Y-27940000D03*
%TD*%
%TO.C,REF\u002A\u002A*%
X127000000Y-43180000D03*
%TD*%
%TO.C,REF\u002A\u002A*%
X109220000Y-43180000D03*
%TD*%
%TO.C,REF\u002A\u002A*%
X76200000Y-58420000D03*
%TD*%
%TO.C,REF\u002A\u002A*%
X88900000Y-78740000D03*
%TD*%
%TO.C,REF\u002A\u002A*%
X91440000Y-60960000D03*
%TD*%
%TO.C,REF\u002A\u002A*%
X104140000Y-43180000D03*
%TD*%
%TO.C,REF\u002A\u002A*%
X88900000Y-76200000D03*
%TD*%
%TO.C,REF\u002A\u002A*%
X101600000Y-86360000D03*
%TD*%
%TO.C,REF\u002A\u002A*%
X60960000Y-76200000D03*
%TD*%
%TO.C,REF\u002A\u002A*%
X111760000Y-25400000D03*
%TD*%
%TO.C,REF\u002A\u002A*%
X63500000Y-96520000D03*
%TD*%
%TO.C,REF\u002A\u002A*%
X73660000Y-96520000D03*
%TD*%
%TO.C,REF\u002A\u002A*%
X99060000Y-25400000D03*
%TD*%
%TO.C,REF\u002A\u002A*%
X88900000Y-99060000D03*
%TD*%
%TO.C,REF\u002A\u002A*%
X60960000Y-88900000D03*
%TD*%
%TO.C,REF\u002A\u002A*%
X63500000Y-45720000D03*
%TD*%
%TO.C,REF\u002A\u002A*%
X104140000Y-55880000D03*
%TD*%
%TO.C,REF\u002A\u002A*%
X76200000Y-63500000D03*
%TD*%
%TO.C,REF\u002A\u002A*%
X68580000Y-76200000D03*
%TD*%
%TO.C,REF\u002A\u002A*%
X86360000Y-55880000D03*
%TD*%
%TO.C,REF\u002A\u002A*%
X106680000Y-76200000D03*
%TD*%
%TO.C,REF\u002A\u002A*%
X93980000Y-50800000D03*
%TD*%
D15*
%TO.C,J3*%
X62865000Y-117475000D03*
%TD*%
D14*
%TO.C,REF\u002A\u002A*%
X109220000Y-71120000D03*
%TD*%
%TO.C,REF\u002A\u002A*%
X119380000Y-27940000D03*
%TD*%
%TO.C,REF\u002A\u002A*%
X76200000Y-53340000D03*
%TD*%
%TO.C,REF\u002A\u002A*%
X76200000Y-48260000D03*
%TD*%
%TO.C,REF\u002A\u002A*%
X88900000Y-96520000D03*
%TD*%
%TO.C,REF\u002A\u002A*%
X106680000Y-33020000D03*
%TD*%
%TO.C,REF\u002A\u002A*%
X66040000Y-101600000D03*
%TD*%
%TO.C,REF\u002A\u002A*%
X99060000Y-33020000D03*
%TD*%
%TO.C,REF\u002A\u002A*%
X60960000Y-96520000D03*
%TD*%
%TO.C,REF\u002A\u002A*%
X96520000Y-101600000D03*
%TD*%
%TO.C,REF\u002A\u002A*%
X104140000Y-35560000D03*
%TD*%
%TO.C,REF\u002A\u002A*%
X111760000Y-45720000D03*
%TD*%
%TO.C,REF\u002A\u002A*%
X60960000Y-71120000D03*
%TD*%
%TO.C,REF\u002A\u002A*%
X78740000Y-48260000D03*
%TD*%
%TO.C,REF\u002A\u002A*%
X96520000Y-96520000D03*
%TD*%
%TO.C,REF\u002A\u002A*%
X68580000Y-83820000D03*
%TD*%
%TO.C,REF\u002A\u002A*%
X106680000Y-86360000D03*
%TD*%
%TO.C,REF\u002A\u002A*%
X66040000Y-33020000D03*
%TD*%
D16*
%TO.C,REF\u002A\u002A*%
X130222000Y-158186000D03*
%TD*%
D14*
%TO.C,REF\u002A\u002A*%
X119380000Y-30480000D03*
%TD*%
%TO.C,REF\u002A\u002A*%
X104140000Y-71120000D03*
%TD*%
%TO.C,REF\u002A\u002A*%
X121920000Y-30480000D03*
%TD*%
%TO.C,REF\u002A\u002A*%
X71120000Y-58420000D03*
%TD*%
%TO.C,REF\u002A\u002A*%
X60960000Y-30480000D03*
%TD*%
%TO.C,REF\u002A\u002A*%
X63500000Y-63500000D03*
%TD*%
%TO.C,REF\u002A\u002A*%
X93980000Y-43180000D03*
%TD*%
%TO.C,REF\u002A\u002A*%
X73660000Y-33020000D03*
%TD*%
%TO.C,REF\u002A\u002A*%
X63500000Y-33020000D03*
%TD*%
%TO.C,REF\u002A\u002A*%
X83820000Y-55880000D03*
%TD*%
%TO.C,REF\u002A\u002A*%
X66040000Y-88900000D03*
%TD*%
%TO.C,REF\u002A\u002A*%
X76200000Y-93980000D03*
%TD*%
%TO.C,REF\u002A\u002A*%
X101600000Y-91440000D03*
%TD*%
%TO.C,REF\u002A\u002A*%
X88900000Y-106680000D03*
%TD*%
%TO.C,REF\u002A\u002A*%
X71120000Y-35560000D03*
%TD*%
%TO.C,REF\u002A\u002A*%
X101600000Y-48260000D03*
%TD*%
%TO.C,REF\u002A\u002A*%
X76200000Y-25400000D03*
%TD*%
%TO.C,REF\u002A\u002A*%
X78740000Y-30480000D03*
%TD*%
%TO.C,REF\u002A\u002A*%
X121920000Y-38100000D03*
%TD*%
%TO.C,REF\u002A\u002A*%
X111760000Y-30480000D03*
%TD*%
%TO.C,REF\u002A\u002A*%
X129540000Y-30480000D03*
%TD*%
%TO.C,REF\u002A\u002A*%
X93980000Y-25400000D03*
%TD*%
%TO.C,REF\u002A\u002A*%
X66040000Y-63500000D03*
%TD*%
%TO.C,REF\u002A\u002A*%
X76200000Y-91440000D03*
%TD*%
%TO.C,REF\u002A\u002A*%
X71120000Y-45720000D03*
%TD*%
D15*
%TO.C,J58*%
X114300000Y-62230000D03*
%TD*%
D14*
%TO.C,REF\u002A\u002A*%
X78740000Y-86360000D03*
%TD*%
%TO.C,REF\u002A\u002A*%
X81280000Y-78740000D03*
%TD*%
%TO.C,REF\u002A\u002A*%
X76200000Y-27940000D03*
%TD*%
%TO.C,REF\u002A\u002A*%
X71120000Y-63500000D03*
%TD*%
%TO.C,REF\u002A\u002A*%
X88900000Y-60960000D03*
%TD*%
%TO.C,REF\u002A\u002A*%
X116840000Y-43180000D03*
%TD*%
%TO.C,REF\u002A\u002A*%
X99060000Y-73660000D03*
%TD*%
%TO.C,REF\u002A\u002A*%
X114300000Y-38100000D03*
%TD*%
%TO.C,REF\u002A\u002A*%
X86360000Y-35560000D03*
%TD*%
%TO.C,REF\u002A\u002A*%
X104140000Y-83820000D03*
%TD*%
%TO.C,REF\u002A\u002A*%
X127000000Y-38100000D03*
%TD*%
%TO.C,REF\u002A\u002A*%
X121920000Y-27940000D03*
%TD*%
%TO.C,REF\u002A\u002A*%
X91440000Y-91440000D03*
%TD*%
%TO.C,REF\u002A\u002A*%
X68580000Y-30480000D03*
%TD*%
%TO.C,REF\u002A\u002A*%
X93980000Y-27940000D03*
%TD*%
%TO.C,REF\u002A\u002A*%
X106680000Y-30480000D03*
%TD*%
%TO.C,REF\u002A\u002A*%
X101600000Y-35560000D03*
%TD*%
%TO.C,REF\u002A\u002A*%
X88900000Y-40640000D03*
%TD*%
%TO.C,REF\u002A\u002A*%
X86360000Y-27940000D03*
%TD*%
%TO.C,REF\u002A\u002A*%
X104140000Y-27940000D03*
%TD*%
%TO.C,REF\u002A\u002A*%
X106680000Y-81280000D03*
%TD*%
%TO.C,REF\u002A\u002A*%
X68580000Y-66040000D03*
%TD*%
%TO.C,REF\u002A\u002A*%
X83820000Y-25400000D03*
%TD*%
%TO.C,REF\u002A\u002A*%
X104140000Y-106680000D03*
%TD*%
%TO.C,REF\u002A\u002A*%
X63500000Y-68580000D03*
%TD*%
%TO.C,REF\u002A\u002A*%
X71120000Y-76200000D03*
%TD*%
%TO.C,REF\u002A\u002A*%
X109220000Y-86360000D03*
%TD*%
%TO.C,REF\u002A\u002A*%
X106680000Y-78740000D03*
%TD*%
%TO.C,REF\u002A\u002A*%
X60960000Y-50800000D03*
%TD*%
%TO.C,REF\u002A\u002A*%
X81280000Y-71120000D03*
%TD*%
%TO.C,REF\u002A\u002A*%
X88900000Y-30480000D03*
%TD*%
%TO.C,REF\u002A\u002A*%
X91440000Y-66040000D03*
%TD*%
%TO.C,REF\u002A\u002A*%
X96520000Y-35560000D03*
%TD*%
%TO.C,REF\u002A\u002A*%
X91440000Y-83820000D03*
%TD*%
%TO.C,REF\u002A\u002A*%
X101600000Y-45720000D03*
%TD*%
%TO.C,REF\u002A\u002A*%
X86360000Y-45720000D03*
%TD*%
%TO.C,REF\u002A\u002A*%
X83820000Y-63500000D03*
%TD*%
%TO.C,REF\u002A\u002A*%
X101600000Y-38100000D03*
%TD*%
%TO.C,REF\u002A\u002A*%
X81280000Y-58420000D03*
%TD*%
%TO.C,REF\u002A\u002A*%
X109220000Y-58420000D03*
%TD*%
%TO.C,REF\u002A\u002A*%
X104140000Y-50800000D03*
%TD*%
%TO.C,REF\u002A\u002A*%
X101600000Y-66040000D03*
%TD*%
%TO.C,REF\u002A\u002A*%
X81280000Y-33020000D03*
%TD*%
%TO.C,REF\u002A\u002A*%
X76200000Y-106680000D03*
%TD*%
%TO.C,REF\u002A\u002A*%
X78740000Y-50800000D03*
%TD*%
%TO.C,REF\u002A\u002A*%
X78740000Y-76200000D03*
%TD*%
%TO.C,REF\u002A\u002A*%
X78740000Y-38100000D03*
%TD*%
%TO.C,REF\u002A\u002A*%
X106680000Y-45720000D03*
%TD*%
%TO.C,REF\u002A\u002A*%
X86360000Y-66040000D03*
%TD*%
%TO.C,REF\u002A\u002A*%
X83820000Y-40640000D03*
%TD*%
D15*
%TO.C,J37*%
X108712000Y-110998000D03*
%TD*%
D14*
%TO.C,REF\u002A\u002A*%
X88900000Y-104140000D03*
%TD*%
%TO.C,REF\u002A\u002A*%
X99060000Y-45720000D03*
%TD*%
%TO.C,REF\u002A\u002A*%
X127000000Y-40640000D03*
%TD*%
%TO.C,REF\u002A\u002A*%
X68580000Y-48260000D03*
%TD*%
%TO.C,REF\u002A\u002A*%
X83820000Y-81280000D03*
%TD*%
%TO.C,REF\u002A\u002A*%
X78740000Y-106680000D03*
%TD*%
%TO.C,REF\u002A\u002A*%
X101600000Y-60960000D03*
%TD*%
%TO.C,REF\u002A\u002A*%
X66040000Y-73660000D03*
%TD*%
%TO.C,REF\u002A\u002A*%
X83820000Y-48260000D03*
%TD*%
%TO.C,REF\u002A\u002A*%
X86360000Y-76200000D03*
%TD*%
%TO.C,REF\u002A\u002A*%
X114300000Y-35560000D03*
%TD*%
D15*
%TO.C,J52*%
X114300000Y-73660000D03*
%TD*%
D17*
%TO.C,C8*%
X104140000Y-143510000D03*
D18*
X104140000Y-146010000D03*
%TD*%
D14*
%TO.C,REF\u002A\u002A*%
X93980000Y-55880000D03*
%TD*%
%TO.C,REF\u002A\u002A*%
X66040000Y-104140000D03*
%TD*%
D15*
%TO.C,J29*%
X101130002Y-112268000D03*
%TD*%
D14*
%TO.C,REF\u002A\u002A*%
X68580000Y-71120000D03*
%TD*%
D15*
%TO.C,C5*%
X127000000Y-151130000D03*
X122000000Y-151130000D03*
%TD*%
D14*
%TO.C,REF\u002A\u002A*%
X83820000Y-58420000D03*
%TD*%
%TO.C,REF\u002A\u002A*%
X86360000Y-63500000D03*
%TD*%
%TO.C,REF\u002A\u002A*%
X96520000Y-86360000D03*
%TD*%
D15*
%TO.C,C13*%
X94020000Y-120650000D03*
X99020000Y-120650000D03*
%TD*%
D14*
%TO.C,REF\u002A\u002A*%
X78740000Y-81280000D03*
%TD*%
%TO.C,REF\u002A\u002A*%
X124460000Y-40640000D03*
%TD*%
%TO.C,REF\u002A\u002A*%
X129540000Y-35560000D03*
%TD*%
%TO.C,REF\u002A\u002A*%
X104140000Y-63500000D03*
%TD*%
%TO.C,REF\u002A\u002A*%
X91440000Y-78740000D03*
%TD*%
%TO.C,REF\u002A\u002A*%
X73660000Y-38100000D03*
%TD*%
%TO.C,REF\u002A\u002A*%
X99060000Y-53340000D03*
%TD*%
D15*
%TO.C,J4*%
X120650000Y-114300000D03*
%TD*%
D14*
%TO.C,REF\u002A\u002A*%
X63500000Y-53340000D03*
%TD*%
%TO.C,REF\u002A\u002A*%
X116840000Y-33020000D03*
%TD*%
%TO.C,REF\u002A\u002A*%
X101600000Y-96520000D03*
%TD*%
%TO.C,REF\u002A\u002A*%
X86360000Y-58420000D03*
%TD*%
%TO.C,REF\u002A\u002A*%
X86360000Y-60960000D03*
%TD*%
%TO.C,REF\u002A\u002A*%
X66040000Y-99060000D03*
%TD*%
D15*
%TO.C,J25*%
X116840000Y-120650000D03*
%TD*%
D14*
%TO.C,REF\u002A\u002A*%
X86360000Y-101600000D03*
%TD*%
%TO.C,REF\u002A\u002A*%
X68580000Y-35560000D03*
%TD*%
%TO.C,REF\u002A\u002A*%
X96520000Y-48260000D03*
%TD*%
%TO.C,REF\u002A\u002A*%
X109220000Y-66040000D03*
%TD*%
%TO.C,REF\u002A\u002A*%
X68580000Y-88900000D03*
%TD*%
%TO.C,REF\u002A\u002A*%
X93980000Y-40640000D03*
%TD*%
%TO.C,REF\u002A\u002A*%
X91440000Y-63500000D03*
%TD*%
%TO.C,REF\u002A\u002A*%
X93980000Y-60960000D03*
%TD*%
%TO.C,REF\u002A\u002A*%
X91440000Y-27940000D03*
%TD*%
%TO.C,REF\u002A\u002A*%
X101600000Y-71120000D03*
%TD*%
%TO.C,REF\u002A\u002A*%
X71120000Y-27940000D03*
%TD*%
%TO.C,REF\u002A\u002A*%
X106680000Y-50800000D03*
%TD*%
%TO.C,REF\u002A\u002A*%
X71120000Y-68580000D03*
%TD*%
%TO.C,REF\u002A\u002A*%
X101600000Y-106680000D03*
%TD*%
%TO.C,REF\u002A\u002A*%
X93980000Y-83820000D03*
%TD*%
%TO.C,REF\u002A\u002A*%
X106680000Y-27940000D03*
%TD*%
D19*
%TO.C,J27*%
X77470000Y-110490000D03*
D20*
X77470000Y-113030000D03*
X77470000Y-115570000D03*
%TD*%
D14*
%TO.C,REF\u002A\u002A*%
X93980000Y-101600000D03*
%TD*%
%TO.C,REF\u002A\u002A*%
X91440000Y-38100000D03*
%TD*%
%TO.C,REF\u002A\u002A*%
X96520000Y-76200000D03*
%TD*%
D15*
%TO.C,J35*%
X106172000Y-114808000D03*
%TD*%
D14*
%TO.C,REF\u002A\u002A*%
X73660000Y-30480000D03*
%TD*%
%TO.C,REF\u002A\u002A*%
X109220000Y-25400000D03*
%TD*%
%TO.C,REF\u002A\u002A*%
X109220000Y-63500000D03*
%TD*%
%TO.C,REF\u002A\u002A*%
X66040000Y-50800000D03*
%TD*%
%TO.C,REF\u002A\u002A*%
X109220000Y-38100000D03*
%TD*%
%TO.C,REF\u002A\u002A*%
X78740000Y-78740000D03*
%TD*%
%TO.C,REF\u002A\u002A*%
X60960000Y-60960000D03*
%TD*%
D15*
%TO.C,J47*%
X118110000Y-83820000D03*
%TD*%
D14*
%TO.C,REF\u002A\u002A*%
X96520000Y-88900000D03*
%TD*%
%TO.C,REF\u002A\u002A*%
X101600000Y-104140000D03*
%TD*%
%TO.C,REF\u002A\u002A*%
X71120000Y-50800000D03*
%TD*%
%TO.C,REF\u002A\u002A*%
X78740000Y-33020000D03*
%TD*%
%TO.C,REF\u002A\u002A*%
X116840000Y-25400000D03*
%TD*%
%TO.C,REF\u002A\u002A*%
X109220000Y-93980000D03*
%TD*%
%TO.C,REF\u002A\u002A*%
X78740000Y-58420000D03*
%TD*%
%TO.C,REF\u002A\u002A*%
X71120000Y-93980000D03*
%TD*%
%TO.C,REF\u002A\u002A*%
X83820000Y-91440000D03*
%TD*%
%TO.C,REF\u002A\u002A*%
X60960000Y-83820000D03*
%TD*%
%TO.C,REF\u002A\u002A*%
X106680000Y-91440000D03*
%TD*%
%TO.C,REF\u002A\u002A*%
X76200000Y-66040000D03*
%TD*%
%TO.C,REF\u002A\u002A*%
X73660000Y-53340000D03*
%TD*%
D15*
%TO.C,C4*%
X63500000Y-149900000D03*
X63500000Y-154900000D03*
%TD*%
D17*
%TO.C,C2*%
X125262000Y-156796000D03*
D18*
X122762000Y-156796000D03*
%TD*%
D14*
%TO.C,REF\u002A\u002A*%
X60960000Y-33020000D03*
%TD*%
%TO.C,REF\u002A\u002A*%
X68580000Y-40640000D03*
%TD*%
%TO.C,REF\u002A\u002A*%
X66040000Y-106680000D03*
%TD*%
%TO.C,REF\u002A\u002A*%
X86360000Y-43180000D03*
%TD*%
%TO.C,REF\u002A\u002A*%
X71120000Y-55880000D03*
%TD*%
%TO.C,REF\u002A\u002A*%
X101600000Y-27940000D03*
%TD*%
D15*
%TO.C,J39*%
X114300000Y-96520000D03*
%TD*%
D14*
%TO.C,REF\u002A\u002A*%
X106680000Y-63500000D03*
%TD*%
D15*
%TO.C,J55*%
X118110000Y-68580000D03*
%TD*%
%TO.C,J2*%
X115570000Y-124460000D03*
%TD*%
%TO.C,J56*%
X114300000Y-66040000D03*
%TD*%
D14*
%TO.C,REF\u002A\u002A*%
X71120000Y-25400000D03*
%TD*%
%TO.C,REF\u002A\u002A*%
X99060000Y-27940000D03*
%TD*%
%TO.C,REF\u002A\u002A*%
X76200000Y-101600000D03*
%TD*%
%TO.C,REF\u002A\u002A*%
X91440000Y-73660000D03*
%TD*%
%TO.C,REF\u002A\u002A*%
X81280000Y-81280000D03*
%TD*%
%TO.C,REF\u002A\u002A*%
X63500000Y-76200000D03*
%TD*%
%TO.C,REF\u002A\u002A*%
X101600000Y-78740000D03*
%TD*%
%TO.C,REF\u002A\u002A*%
X96520000Y-25400000D03*
%TD*%
%TO.C,REF\u002A\u002A*%
X71120000Y-81280000D03*
%TD*%
%TO.C,REF\u002A\u002A*%
X104140000Y-88900000D03*
%TD*%
%TO.C,REF\u002A\u002A*%
X109220000Y-27940000D03*
%TD*%
%TO.C,REF\u002A\u002A*%
X88900000Y-68580000D03*
%TD*%
%TO.C,REF\u002A\u002A*%
X93980000Y-66040000D03*
%TD*%
%TO.C,REF\u002A\u002A*%
X127000000Y-33020000D03*
%TD*%
%TO.C,REF\u002A\u002A*%
X109220000Y-68580000D03*
%TD*%
%TO.C,REF\u002A\u002A*%
X119380000Y-38100000D03*
%TD*%
D15*
%TO.C,J30*%
X96012000Y-112014000D03*
%TD*%
D14*
%TO.C,REF\u002A\u002A*%
X124460000Y-27940000D03*
%TD*%
%TO.C,REF\u002A\u002A*%
X104140000Y-30480000D03*
%TD*%
%TO.C,REF\u002A\u002A*%
X66040000Y-40640000D03*
%TD*%
%TO.C,REF\u002A\u002A*%
X68580000Y-101600000D03*
%TD*%
%TO.C,REF\u002A\u002A*%
X114300000Y-30480000D03*
%TD*%
%TO.C,REF\u002A\u002A*%
X86360000Y-40640000D03*
%TD*%
%TO.C,REF\u002A\u002A*%
X109220000Y-45720000D03*
%TD*%
%TO.C,REF\u002A\u002A*%
X71120000Y-33020000D03*
%TD*%
%TO.C,REF\u002A\u002A*%
X68580000Y-73660000D03*
%TD*%
%TO.C,REF\u002A\u002A*%
X81280000Y-50800000D03*
%TD*%
%TO.C,REF\u002A\u002A*%
X66040000Y-68580000D03*
%TD*%
%TO.C,REF\u002A\u002A*%
X96520000Y-60960000D03*
%TD*%
%TO.C,REF\u002A\u002A*%
X73660000Y-45720000D03*
%TD*%
%TO.C,REF\u002A\u002A*%
X78740000Y-68580000D03*
%TD*%
D15*
%TO.C,C6*%
X114300000Y-151130000D03*
X119300000Y-151130000D03*
%TD*%
D14*
%TO.C,REF\u002A\u002A*%
X91440000Y-25400000D03*
%TD*%
%TO.C,REF\u002A\u002A*%
X83820000Y-35560000D03*
%TD*%
%TO.C,REF\u002A\u002A*%
X73660000Y-58420000D03*
%TD*%
%TO.C,REF\u002A\u002A*%
X71120000Y-43180000D03*
%TD*%
D15*
%TO.C,J9*%
X113576002Y-113792000D03*
%TD*%
D14*
%TO.C,REF\u002A\u002A*%
X124460000Y-35560000D03*
%TD*%
%TO.C,REF\u002A\u002A*%
X68580000Y-99060000D03*
%TD*%
%TO.C,REF\u002A\u002A*%
X129540000Y-43180000D03*
%TD*%
%TO.C,REF\u002A\u002A*%
X63500000Y-40640000D03*
%TD*%
%TO.C,REF\u002A\u002A*%
X91440000Y-71120000D03*
%TD*%
%TO.C,REF\u002A\u002A*%
X60960000Y-45720000D03*
%TD*%
%TO.C,REF\u002A\u002A*%
X83820000Y-43180000D03*
%TD*%
%TO.C,REF\u002A\u002A*%
X91440000Y-33020000D03*
%TD*%
%TO.C,REF\u002A\u002A*%
X96520000Y-66040000D03*
%TD*%
%TO.C,REF\u002A\u002A*%
X71120000Y-78740000D03*
%TD*%
%TO.C,REF\u002A\u002A*%
X86360000Y-53340000D03*
%TD*%
%TO.C,REF\u002A\u002A*%
X81280000Y-76200000D03*
%TD*%
%TO.C,REF\u002A\u002A*%
X101600000Y-101600000D03*
%TD*%
%TO.C,REF\u002A\u002A*%
X73660000Y-40640000D03*
%TD*%
%TO.C,REF\u002A\u002A*%
X63500000Y-99060000D03*
%TD*%
%TO.C,REF\u002A\u002A*%
X104140000Y-91440000D03*
%TD*%
%TO.C,REF\u002A\u002A*%
X81280000Y-53340000D03*
%TD*%
D15*
%TO.C,J21*%
X71120000Y-115570000D03*
%TD*%
D14*
%TO.C,REF\u002A\u002A*%
X93980000Y-48260000D03*
%TD*%
D17*
%TO.C,C1*%
X117642000Y-156796000D03*
D18*
X115142000Y-156796000D03*
%TD*%
D14*
%TO.C,REF\u002A\u002A*%
X66040000Y-27940000D03*
%TD*%
D15*
%TO.C,J63*%
X118110000Y-53340000D03*
%TD*%
D14*
%TO.C,REF\u002A\u002A*%
X60960000Y-66040000D03*
%TD*%
%TO.C,REF\u002A\u002A*%
X91440000Y-45720000D03*
%TD*%
D21*
%TO.C,U1*%
X128080000Y-143510000D03*
D22*
X111420000Y-140970000D03*
D23*
X111420000Y-143510000D03*
X111420000Y-146050000D03*
%TD*%
D14*
%TO.C,REF\u002A\u002A*%
X63500000Y-83820000D03*
%TD*%
%TO.C,REF\u002A\u002A*%
X96520000Y-55880000D03*
%TD*%
%TO.C,REF\u002A\u002A*%
X93980000Y-91440000D03*
%TD*%
%TO.C,REF\u002A\u002A*%
X101600000Y-40640000D03*
%TD*%
%TO.C,REF\u002A\u002A*%
X63500000Y-104140000D03*
%TD*%
%TO.C,REF\u002A\u002A*%
X71120000Y-30480000D03*
%TD*%
%TO.C,REF\u002A\u002A*%
X88900000Y-101600000D03*
%TD*%
%TO.C,REF\u002A\u002A*%
X106680000Y-38100000D03*
%TD*%
%TO.C,REF\u002A\u002A*%
X73660000Y-99060000D03*
%TD*%
D15*
%TO.C,J57*%
X118110000Y-64770000D03*
%TD*%
D14*
%TO.C,REF\u002A\u002A*%
X81280000Y-83820000D03*
%TD*%
%TO.C,REF\u002A\u002A*%
X109220000Y-88900000D03*
%TD*%
%TO.C,REF\u002A\u002A*%
X93980000Y-63500000D03*
%TD*%
%TO.C,REF\u002A\u002A*%
X66040000Y-45720000D03*
%TD*%
%TO.C,REF\u002A\u002A*%
X106680000Y-101600000D03*
%TD*%
%TO.C,REF\u002A\u002A*%
X81280000Y-55880000D03*
%TD*%
%TO.C,REF\u002A\u002A*%
X96520000Y-68580000D03*
%TD*%
%TO.C,REF\u002A\u002A*%
X88900000Y-63500000D03*
%TD*%
%TO.C,REF\u002A\u002A*%
X73660000Y-86360000D03*
%TD*%
D15*
%TO.C,J66*%
X118110000Y-117475000D03*
%TD*%
D14*
%TO.C,REF\u002A\u002A*%
X81280000Y-38100000D03*
%TD*%
%TO.C,REF\u002A\u002A*%
X68580000Y-106680000D03*
%TD*%
%TO.C,REF\u002A\u002A*%
X93980000Y-73660000D03*
%TD*%
%TO.C,REF\u002A\u002A*%
X119380000Y-33020000D03*
%TD*%
%TO.C,REF\u002A\u002A*%
X104140000Y-104140000D03*
%TD*%
%TO.C,REF\u002A\u002A*%
X109220000Y-60960000D03*
%TD*%
%TO.C,REF\u002A\u002A*%
X99060000Y-78740000D03*
%TD*%
%TO.C,REF\u002A\u002A*%
X121920000Y-35560000D03*
%TD*%
%TO.C,REF\u002A\u002A*%
X104140000Y-101600000D03*
%TD*%
%TO.C,REF\u002A\u002A*%
X73660000Y-106680000D03*
%TD*%
%TO.C,REF\u002A\u002A*%
X83820000Y-83820000D03*
%TD*%
%TO.C,REF\u002A\u002A*%
X91440000Y-30480000D03*
%TD*%
%TO.C,REF\u002A\u002A*%
X96520000Y-81280000D03*
%TD*%
%TO.C,REF\u002A\u002A*%
X63500000Y-43180000D03*
%TD*%
%TO.C,REF\u002A\u002A*%
X109220000Y-55880000D03*
%TD*%
%TO.C,REF\u002A\u002A*%
X68580000Y-53340000D03*
%TD*%
%TO.C,REF\u002A\u002A*%
X93980000Y-76200000D03*
%TD*%
%TO.C,REF\u002A\u002A*%
X88900000Y-81280000D03*
%TD*%
%TO.C,REF\u002A\u002A*%
X93980000Y-88900000D03*
%TD*%
%TO.C,REF\u002A\u002A*%
X66040000Y-35560000D03*
%TD*%
%TO.C,REF\u002A\u002A*%
X104140000Y-33020000D03*
%TD*%
%TO.C,REF\u002A\u002A*%
X104140000Y-60960000D03*
%TD*%
%TO.C,REF\u002A\u002A*%
X109220000Y-81280000D03*
%TD*%
%TO.C,REF\u002A\u002A*%
X63500000Y-60960000D03*
%TD*%
%TO.C,REF\u002A\u002A*%
X73660000Y-48260000D03*
%TD*%
%TO.C,REF\u002A\u002A*%
X99060000Y-60960000D03*
%TD*%
%TO.C,REF\u002A\u002A*%
X104140000Y-96520000D03*
%TD*%
%TO.C,REF\u002A\u002A*%
X109220000Y-30480000D03*
%TD*%
%TO.C,REF\u002A\u002A*%
X66040000Y-96520000D03*
%TD*%
%TO.C,REF\u002A\u002A*%
X81280000Y-88900000D03*
%TD*%
%TO.C,REF\u002A\u002A*%
X106680000Y-25400000D03*
%TD*%
%TO.C,REF\u002A\u002A*%
X71120000Y-60960000D03*
%TD*%
D15*
%TO.C,J65*%
X62865000Y-114300000D03*
%TD*%
D14*
%TO.C,REF\u002A\u002A*%
X99060000Y-93980000D03*
%TD*%
%TO.C,REF\u002A\u002A*%
X93980000Y-99060000D03*
%TD*%
%TO.C,REF\u002A\u002A*%
X73660000Y-63500000D03*
%TD*%
%TO.C,REF\u002A\u002A*%
X81280000Y-104140000D03*
%TD*%
%TO.C,REF\u002A\u002A*%
X99060000Y-71120000D03*
%TD*%
%TO.C,REF\u002A\u002A*%
X81280000Y-99060000D03*
%TD*%
%TO.C,REF\u002A\u002A*%
X106680000Y-43180000D03*
%TD*%
%TO.C,REF\u002A\u002A*%
X99060000Y-40640000D03*
%TD*%
%TO.C,REF\u002A\u002A*%
X101600000Y-55880000D03*
%TD*%
%TO.C,REF\u002A\u002A*%
X68580000Y-68580000D03*
%TD*%
%TO.C,REF\u002A\u002A*%
X99060000Y-58420000D03*
%TD*%
%TO.C,REF\u002A\u002A*%
X104140000Y-38100000D03*
%TD*%
%TO.C,REF\u002A\u002A*%
X86360000Y-93980000D03*
%TD*%
%TO.C,REF\u002A\u002A*%
X96520000Y-45720000D03*
%TD*%
%TO.C,REF\u002A\u002A*%
X88900000Y-73660000D03*
%TD*%
%TO.C,REF\u002A\u002A*%
X68580000Y-58420000D03*
%TD*%
%TO.C,REF\u002A\u002A*%
X93980000Y-86360000D03*
%TD*%
%TO.C,REF\u002A\u002A*%
X63500000Y-35560000D03*
%TD*%
%TO.C,REF\u002A\u002A*%
X86360000Y-30480000D03*
%TD*%
%TO.C,REF\u002A\u002A*%
X104140000Y-76200000D03*
%TD*%
D15*
%TO.C,J13*%
X96012000Y-114808000D03*
%TD*%
%TO.C,C9*%
X108585000Y-135850000D03*
X108585000Y-130850000D03*
%TD*%
D14*
%TO.C,REF\u002A\u002A*%
X91440000Y-76200000D03*
%TD*%
%TO.C,REF\u002A\u002A*%
X106680000Y-66040000D03*
%TD*%
%TO.C,REF\u002A\u002A*%
X78740000Y-25400000D03*
%TD*%
%TO.C,REF\u002A\u002A*%
X73660000Y-71120000D03*
%TD*%
%TO.C,REF\u002A\u002A*%
X71120000Y-99060000D03*
%TD*%
%TO.C,REF\u002A\u002A*%
X86360000Y-88900000D03*
%TD*%
%TO.C,REF\u002A\u002A*%
X83820000Y-33020000D03*
%TD*%
%TO.C,REF\u002A\u002A*%
X76200000Y-99060000D03*
%TD*%
%TO.C,REF\u002A\u002A*%
X68580000Y-93980000D03*
%TD*%
%TO.C,REF\u002A\u002A*%
X63500000Y-50800000D03*
%TD*%
%TO.C,REF\u002A\u002A*%
X106680000Y-60960000D03*
%TD*%
%TO.C,REF\u002A\u002A*%
X76200000Y-43180000D03*
%TD*%
%TO.C,REF\u002A\u002A*%
X68580000Y-55880000D03*
%TD*%
%TO.C,REF\u002A\u002A*%
X91440000Y-99060000D03*
%TD*%
%TO.C,REF\u002A\u002A*%
X86360000Y-68580000D03*
%TD*%
%TO.C,REF\u002A\u002A*%
X71120000Y-91440000D03*
%TD*%
%TO.C,REF\u002A\u002A*%
X93980000Y-68580000D03*
%TD*%
%TO.C,REF\u002A\u002A*%
X76200000Y-73660000D03*
%TD*%
%TO.C,REF\u002A\u002A*%
X76200000Y-55880000D03*
%TD*%
%TO.C,REF\u002A\u002A*%
X119380000Y-35560000D03*
%TD*%
%TO.C,REF\u002A\u002A*%
X83820000Y-106680000D03*
%TD*%
%TO.C,REF\u002A\u002A*%
X96520000Y-99060000D03*
%TD*%
D15*
%TO.C,C10*%
X108585000Y-147280000D03*
X108585000Y-142280000D03*
%TD*%
D21*
%TO.C,U2*%
X128080000Y-132080000D03*
D22*
X111420000Y-129540000D03*
D23*
X111420000Y-132080000D03*
X111420000Y-134620000D03*
%TD*%
D14*
%TO.C,REF\u002A\u002A*%
X78740000Y-73660000D03*
%TD*%
%TO.C,REF\u002A\u002A*%
X129540000Y-33020000D03*
%TD*%
%TO.C,REF\u002A\u002A*%
X121920000Y-43180000D03*
%TD*%
D24*
%TO.C,J1*%
X113176400Y-164736000D03*
X110007600Y-164736000D03*
X106838700Y-164736000D03*
X103669800Y-164736000D03*
X100500900Y-164736000D03*
X97332000Y-164736000D03*
X94163100Y-164736000D03*
X90994200Y-164736000D03*
X87825300Y-164736000D03*
X84656400Y-164736000D03*
X81487600Y-164736000D03*
X78318700Y-164736000D03*
X75149780Y-164736000D03*
X71980890Y-164736000D03*
X68812000Y-164736000D03*
X68812000Y-164736000D03*
%TD*%
D14*
%TO.C,REF\u002A\u002A*%
X78740000Y-104140000D03*
%TD*%
D15*
%TO.C,J33*%
X88392000Y-113538000D03*
%TD*%
D14*
%TO.C,REF\u002A\u002A*%
X104140000Y-40640000D03*
%TD*%
%TO.C,REF\u002A\u002A*%
X68580000Y-38100000D03*
%TD*%
D16*
%TO.C,REF\u002A\u002A*%
X59092000Y-23576000D03*
%TD*%
D15*
%TO.C,J59*%
X118110000Y-60960000D03*
%TD*%
D14*
%TO.C,REF\u002A\u002A*%
X68580000Y-96520000D03*
%TD*%
%TO.C,REF\u002A\u002A*%
X66040000Y-48260000D03*
%TD*%
D15*
%TO.C,J15*%
X103670002Y-110998000D03*
%TD*%
D14*
%TO.C,REF\u002A\u002A*%
X91440000Y-101600000D03*
%TD*%
%TO.C,REF\u002A\u002A*%
X66040000Y-83820000D03*
%TD*%
%TO.C,REF\u002A\u002A*%
X60960000Y-73660000D03*
%TD*%
%TO.C,REF\u002A\u002A*%
X68580000Y-45720000D03*
%TD*%
D15*
%TO.C,C11*%
X68620000Y-120650000D03*
X73620000Y-120650000D03*
%TD*%
D14*
%TO.C,REF\u002A\u002A*%
X99060000Y-50800000D03*
%TD*%
%TO.C,REF\u002A\u002A*%
X99060000Y-30480000D03*
%TD*%
%TO.C,REF\u002A\u002A*%
X127000000Y-35560000D03*
%TD*%
%TO.C,REF\u002A\u002A*%
X81280000Y-63500000D03*
%TD*%
%TO.C,REF\u002A\u002A*%
X60960000Y-40640000D03*
%TD*%
%TO.C,REF\u002A\u002A*%
X76200000Y-76200000D03*
%TD*%
%TO.C,REF\u002A\u002A*%
X96520000Y-83820000D03*
%TD*%
%TO.C,REF\u002A\u002A*%
X83820000Y-104140000D03*
%TD*%
%TO.C,REF\u002A\u002A*%
X83820000Y-99060000D03*
%TD*%
%TO.C,REF\u002A\u002A*%
X73660000Y-73660000D03*
%TD*%
%TO.C,REF\u002A\u002A*%
X66040000Y-86360000D03*
%TD*%
%TO.C,REF\u002A\u002A*%
X99060000Y-66040000D03*
%TD*%
D15*
%TO.C,C12*%
X81320000Y-120650000D03*
X86320000Y-120650000D03*
%TD*%
D14*
%TO.C,REF\u002A\u002A*%
X60960000Y-27940000D03*
%TD*%
%TO.C,REF\u002A\u002A*%
X106680000Y-93980000D03*
%TD*%
%TO.C,REF\u002A\u002A*%
X78740000Y-83820000D03*
%TD*%
%TO.C,REF\u002A\u002A*%
X88900000Y-83820000D03*
%TD*%
%TO.C,REF\u002A\u002A*%
X83820000Y-71120000D03*
%TD*%
%TO.C,REF\u002A\u002A*%
X101600000Y-88900000D03*
%TD*%
%TO.C,REF\u002A\u002A*%
X76200000Y-68580000D03*
%TD*%
%TO.C,REF\u002A\u002A*%
X88900000Y-55880000D03*
%TD*%
%TO.C,REF\u002A\u002A*%
X76200000Y-30480000D03*
%TD*%
%TO.C,REF\u002A\u002A*%
X109220000Y-101600000D03*
%TD*%
%TO.C,REF\u002A\u002A*%
X86360000Y-38100000D03*
%TD*%
%TO.C,REF\u002A\u002A*%
X68580000Y-63500000D03*
%TD*%
%TO.C,REF\u002A\u002A*%
X73660000Y-35560000D03*
%TD*%
%TO.C,REF\u002A\u002A*%
X81280000Y-68580000D03*
%TD*%
%TO.C,REF\u002A\u002A*%
X63500000Y-55880000D03*
%TD*%
%TO.C,REF\u002A\u002A*%
X76200000Y-50800000D03*
%TD*%
%TO.C,REF\u002A\u002A*%
X93980000Y-45720000D03*
%TD*%
%TO.C,REF\u002A\u002A*%
X86360000Y-78740000D03*
%TD*%
D15*
%TO.C,J50*%
X114300000Y-77470000D03*
%TD*%
D14*
%TO.C,REF\u002A\u002A*%
X78740000Y-60960000D03*
%TD*%
%TO.C,REF\u002A\u002A*%
X106680000Y-48260000D03*
%TD*%
%TO.C,REF\u002A\u002A*%
X83820000Y-38100000D03*
%TD*%
%TO.C,REF\u002A\u002A*%
X73660000Y-27940000D03*
%TD*%
%TO.C,REF\u002A\u002A*%
X76200000Y-83820000D03*
%TD*%
%TO.C,REF\u002A\u002A*%
X66040000Y-78740000D03*
%TD*%
%TO.C,REF\u002A\u002A*%
X71120000Y-66040000D03*
%TD*%
%TO.C,REF\u002A\u002A*%
X73660000Y-66040000D03*
%TD*%
%TO.C,REF\u002A\u002A*%
X63500000Y-101600000D03*
%TD*%
%TO.C,REF\u002A\u002A*%
X81280000Y-86360000D03*
%TD*%
%TO.C,REF\u002A\u002A*%
X86360000Y-99060000D03*
%TD*%
%TO.C,REF\u002A\u002A*%
X106680000Y-68580000D03*
%TD*%
%TO.C,REF\u002A\u002A*%
X73660000Y-83820000D03*
%TD*%
%TO.C,REF\u002A\u002A*%
X66040000Y-25400000D03*
%TD*%
%TO.C,REF\u002A\u002A*%
X99060000Y-101600000D03*
%TD*%
%TO.C,REF\u002A\u002A*%
X78740000Y-66040000D03*
%TD*%
%TO.C,REF\u002A\u002A*%
X109220000Y-33020000D03*
%TD*%
%TO.C,REF\u002A\u002A*%
X93980000Y-96520000D03*
%TD*%
%TO.C,REF\u002A\u002A*%
X116840000Y-45720000D03*
%TD*%
%TO.C,REF\u002A\u002A*%
X78740000Y-55880000D03*
%TD*%
%TO.C,REF\u002A\u002A*%
X119380000Y-40640000D03*
%TD*%
%TO.C,REF\u002A\u002A*%
X96520000Y-27940000D03*
%TD*%
%TO.C,REF\u002A\u002A*%
X91440000Y-40640000D03*
%TD*%
%TO.C,REF\u002A\u002A*%
X101600000Y-30480000D03*
%TD*%
%TO.C,REF\u002A\u002A*%
X73660000Y-93980000D03*
%TD*%
%TO.C,REF\u002A\u002A*%
X83820000Y-60960000D03*
%TD*%
%TO.C,REF\u002A\u002A*%
X106680000Y-83820000D03*
%TD*%
%TO.C,REF\u002A\u002A*%
X78740000Y-71120000D03*
%TD*%
%TO.C,REF\u002A\u002A*%
X109220000Y-78740000D03*
%TD*%
%TO.C,REF\u002A\u002A*%
X121920000Y-25400000D03*
%TD*%
%TO.C,REF\u002A\u002A*%
X83820000Y-86360000D03*
%TD*%
%TO.C,REF\u002A\u002A*%
X73660000Y-25400000D03*
%TD*%
%TO.C,REF\u002A\u002A*%
X63500000Y-93980000D03*
%TD*%
%TO.C,REF\u002A\u002A*%
X81280000Y-40640000D03*
%TD*%
%TO.C,REF\u002A\u002A*%
X106680000Y-55880000D03*
%TD*%
%TO.C,REF\u002A\u002A*%
X60960000Y-91440000D03*
%TD*%
%TO.C,REF\u002A\u002A*%
X88900000Y-35560000D03*
%TD*%
%TO.C,REF\u002A\u002A*%
X88900000Y-38100000D03*
%TD*%
%TO.C,REF\u002A\u002A*%
X99060000Y-63500000D03*
%TD*%
D15*
%TO.C,J60*%
X114300000Y-58420000D03*
%TD*%
D14*
%TO.C,REF\u002A\u002A*%
X86360000Y-71120000D03*
%TD*%
%TO.C,REF\u002A\u002A*%
X91440000Y-93980000D03*
%TD*%
%TO.C,REF\u002A\u002A*%
X93980000Y-71120000D03*
%TD*%
D15*
%TO.C,J61*%
X118110000Y-57150000D03*
%TD*%
D14*
%TO.C,REF\u002A\u002A*%
X78740000Y-43180000D03*
%TD*%
%TO.C,REF\u002A\u002A*%
X116840000Y-30480000D03*
%TD*%
%TO.C,REF\u002A\u002A*%
X71120000Y-106680000D03*
%TD*%
D17*
%TO.C,C7*%
X104140000Y-136079113D03*
D18*
X104140000Y-133579113D03*
%TD*%
D15*
%TO.C,J23*%
X66040000Y-113030000D03*
%TD*%
D14*
%TO.C,REF\u002A\u002A*%
X99060000Y-43180000D03*
%TD*%
%TO.C,REF\u002A\u002A*%
X96520000Y-53340000D03*
%TD*%
%TO.C,REF\u002A\u002A*%
X106680000Y-88900000D03*
%TD*%
D15*
%TO.C,J24*%
X73660000Y-114300000D03*
%TD*%
D14*
%TO.C,REF\u002A\u002A*%
X88900000Y-50800000D03*
%TD*%
%TO.C,REF\u002A\u002A*%
X93980000Y-93980000D03*
%TD*%
%TO.C,REF\u002A\u002A*%
X88900000Y-48260000D03*
%TD*%
%TO.C,REF\u002A\u002A*%
X91440000Y-88900000D03*
%TD*%
%TO.C,REF\u002A\u002A*%
X68580000Y-25400000D03*
%TD*%
%TO.C,REF\u002A\u002A*%
X101600000Y-50800000D03*
%TD*%
%TO.C,REF\u002A\u002A*%
X83820000Y-30480000D03*
%TD*%
%TO.C,REF\u002A\u002A*%
X73660000Y-60960000D03*
%TD*%
%TO.C,REF\u002A\u002A*%
X96520000Y-93980000D03*
%TD*%
%TO.C,REF\u002A\u002A*%
X106680000Y-96520000D03*
%TD*%
%TO.C,REF\u002A\u002A*%
X114300000Y-27940000D03*
%TD*%
%TO.C,REF\u002A\u002A*%
X114300000Y-25400000D03*
%TD*%
%TO.C,REF\u002A\u002A*%
X68580000Y-91440000D03*
%TD*%
%TO.C,REF\u002A\u002A*%
X81280000Y-27940000D03*
%TD*%
%TO.C,REF\u002A\u002A*%
X109220000Y-91440000D03*
%TD*%
%TO.C,REF\u002A\u002A*%
X109220000Y-99060000D03*
%TD*%
%TO.C,REF\u002A\u002A*%
X99060000Y-38100000D03*
%TD*%
D17*
%TO.C,U5*%
X100320000Y-147315000D03*
D25*
X100320000Y-144775000D03*
X100320000Y-142235000D03*
X100320000Y-139695000D03*
X100320000Y-137155000D03*
X100320000Y-134615000D03*
X100320000Y-132075000D03*
X100320000Y-129535000D03*
X100320000Y-126995000D03*
X100320000Y-124455000D03*
X92700000Y-124455000D03*
X92700000Y-126995000D03*
X92700000Y-129535000D03*
X92700000Y-132075000D03*
X92700000Y-134615000D03*
X92700000Y-137155000D03*
X92700000Y-139695000D03*
X92700000Y-142235000D03*
X92700000Y-144775000D03*
X92700000Y-147315000D03*
%TD*%
D14*
%TO.C,REF\u002A\u002A*%
X88900000Y-71120000D03*
%TD*%
D15*
%TO.C,J48*%
X114300000Y-81280000D03*
%TD*%
D14*
%TO.C,REF\u002A\u002A*%
X78740000Y-101600000D03*
%TD*%
%TO.C,REF\u002A\u002A*%
X76200000Y-38100000D03*
%TD*%
%TO.C,REF\u002A\u002A*%
X66040000Y-93980000D03*
%TD*%
%TO.C,REF\u002A\u002A*%
X73660000Y-55880000D03*
%TD*%
%TO.C,REF\u002A\u002A*%
X71120000Y-38100000D03*
%TD*%
%TO.C,REF\u002A\u002A*%
X63500000Y-81280000D03*
%TD*%
D15*
%TO.C,J19*%
X66040000Y-115570000D03*
%TD*%
D14*
%TO.C,REF\u002A\u002A*%
X71120000Y-73660000D03*
%TD*%
%TO.C,REF\u002A\u002A*%
X63500000Y-27940000D03*
%TD*%
%TO.C,REF\u002A\u002A*%
X101600000Y-25400000D03*
%TD*%
%TO.C,REF\u002A\u002A*%
X76200000Y-96520000D03*
%TD*%
%TO.C,REF\u002A\u002A*%
X88900000Y-93980000D03*
%TD*%
%TO.C,REF\u002A\u002A*%
X116840000Y-40640000D03*
%TD*%
%TO.C,REF\u002A\u002A*%
X104140000Y-25400000D03*
%TD*%
%TO.C,REF\u002A\u002A*%
X68580000Y-43180000D03*
%TD*%
%TO.C,REF\u002A\u002A*%
X111760000Y-35560000D03*
%TD*%
%TO.C,REF\u002A\u002A*%
X124460000Y-38100000D03*
%TD*%
D15*
%TO.C,J20*%
X68580000Y-114300000D03*
%TD*%
D14*
%TO.C,REF\u002A\u002A*%
X83820000Y-78740000D03*
%TD*%
%TO.C,REF\u002A\u002A*%
X88900000Y-88900000D03*
%TD*%
%TO.C,REF\u002A\u002A*%
X86360000Y-106680000D03*
%TD*%
%TO.C,REF\u002A\u002A*%
X86360000Y-81280000D03*
%TD*%
%TO.C,REF\u002A\u002A*%
X66040000Y-76200000D03*
%TD*%
%TO.C,REF\u002A\u002A*%
X116840000Y-27940000D03*
%TD*%
%TO.C,REF\u002A\u002A*%
X124460000Y-43180000D03*
%TD*%
D15*
%TO.C,J18*%
X71120000Y-113030000D03*
%TD*%
D17*
%TO.C,U4*%
X74930000Y-147320000D03*
D25*
X74930000Y-144780000D03*
X74930000Y-142240000D03*
X74930000Y-139700000D03*
X74930000Y-137160000D03*
X74930000Y-134620000D03*
X74930000Y-132080000D03*
X74930000Y-129540000D03*
X74930000Y-127000000D03*
X74930000Y-124460000D03*
X67310000Y-124460000D03*
X67310000Y-127000000D03*
X67310000Y-129540000D03*
X67310000Y-132080000D03*
X67310000Y-134620000D03*
X67310000Y-137160000D03*
X67310000Y-139700000D03*
X67310000Y-142240000D03*
X67310000Y-144780000D03*
X67310000Y-147320000D03*
%TD*%
D14*
%TO.C,REF\u002A\u002A*%
X91440000Y-86360000D03*
%TD*%
%TO.C,REF\u002A\u002A*%
X99060000Y-96520000D03*
%TD*%
%TO.C,REF\u002A\u002A*%
X63500000Y-58420000D03*
%TD*%
%TO.C,REF\u002A\u002A*%
X111760000Y-38100000D03*
%TD*%
%TO.C,REF\u002A\u002A*%
X104140000Y-78740000D03*
%TD*%
%TO.C,REF\u002A\u002A*%
X71120000Y-86360000D03*
%TD*%
%TO.C,REF\u002A\u002A*%
X91440000Y-53340000D03*
%TD*%
%TO.C,REF\u002A\u002A*%
X121920000Y-33020000D03*
%TD*%
%TO.C,REF\u002A\u002A*%
X88900000Y-91440000D03*
%TD*%
D17*
%TO.C,C3*%
X71922000Y-156796000D03*
D18*
X69422000Y-156796000D03*
%TD*%
D14*
%TO.C,REF\u002A\u002A*%
X60960000Y-35560000D03*
%TD*%
%TO.C,REF\u002A\u002A*%
X60960000Y-99060000D03*
%TD*%
%TO.C,REF\u002A\u002A*%
X93980000Y-53340000D03*
%TD*%
%TO.C,REF\u002A\u002A*%
X106680000Y-106680000D03*
%TD*%
%TO.C,REF\u002A\u002A*%
X60960000Y-93980000D03*
%TD*%
%TO.C,REF\u002A\u002A*%
X81280000Y-30480000D03*
%TD*%
%TO.C,REF\u002A\u002A*%
X111760000Y-43180000D03*
%TD*%
%TO.C,REF\u002A\u002A*%
X78740000Y-40640000D03*
%TD*%
%TO.C,REF\u002A\u002A*%
X101600000Y-76200000D03*
%TD*%
%TO.C,REF\u002A\u002A*%
X83820000Y-53340000D03*
%TD*%
%TO.C,REF\u002A\u002A*%
X78740000Y-91440000D03*
%TD*%
D15*
%TO.C,J64*%
X114300000Y-50800000D03*
%TD*%
D14*
%TO.C,REF\u002A\u002A*%
X101600000Y-63500000D03*
%TD*%
%TO.C,REF\u002A\u002A*%
X93980000Y-106680000D03*
%TD*%
D15*
%TO.C,J42*%
X114300000Y-92710000D03*
%TD*%
%TO.C,J5*%
X125730000Y-107950000D03*
%TD*%
D14*
%TO.C,REF\u002A\u002A*%
X88900000Y-66040000D03*
%TD*%
%TO.C,REF\u002A\u002A*%
X68580000Y-86360000D03*
%TD*%
%TO.C,REF\u002A\u002A*%
X124460000Y-33020000D03*
%TD*%
%TO.C,REF\u002A\u002A*%
X86360000Y-91440000D03*
%TD*%
%TO.C,REF\u002A\u002A*%
X109220000Y-83820000D03*
%TD*%
%TO.C,REF\u002A\u002A*%
X104140000Y-58420000D03*
%TD*%
%TO.C,REF\u002A\u002A*%
X60960000Y-78740000D03*
%TD*%
%TO.C,REF\u002A\u002A*%
X78740000Y-63500000D03*
%TD*%
%TO.C,REF\u002A\u002A*%
X66040000Y-43180000D03*
%TD*%
%TO.C,REF\u002A\u002A*%
X88900000Y-25400000D03*
%TD*%
D15*
%TO.C,J62*%
X114300000Y-54610000D03*
%TD*%
D14*
%TO.C,REF\u002A\u002A*%
X78740000Y-96520000D03*
%TD*%
%TO.C,REF\u002A\u002A*%
X91440000Y-104140000D03*
%TD*%
%TO.C,REF\u002A\u002A*%
X91440000Y-68580000D03*
%TD*%
%TO.C,REF\u002A\u002A*%
X86360000Y-25400000D03*
%TD*%
%TO.C,REF\u002A\u002A*%
X68580000Y-50800000D03*
%TD*%
%TO.C,REF\u002A\u002A*%
X96520000Y-43180000D03*
%TD*%
D15*
%TO.C,J51*%
X118110000Y-76200000D03*
%TD*%
D14*
%TO.C,REF\u002A\u002A*%
X81280000Y-66040000D03*
%TD*%
%TO.C,REF\u002A\u002A*%
X83820000Y-45720000D03*
%TD*%
%TO.C,REF\u002A\u002A*%
X86360000Y-104140000D03*
%TD*%
%TO.C,REF\u002A\u002A*%
X63500000Y-30480000D03*
%TD*%
%TO.C,REF\u002A\u002A*%
X106680000Y-35560000D03*
%TD*%
%TO.C,REF\u002A\u002A*%
X101600000Y-99060000D03*
%TD*%
%TO.C,REF\u002A\u002A*%
X68580000Y-104140000D03*
%TD*%
%TO.C,REF\u002A\u002A*%
X76200000Y-45720000D03*
%TD*%
D15*
%TO.C,J46*%
X114300000Y-85090000D03*
%TD*%
D14*
%TO.C,REF\u002A\u002A*%
X60960000Y-63500000D03*
%TD*%
%TO.C,REF\u002A\u002A*%
X96520000Y-73660000D03*
%TD*%
%TO.C,REF\u002A\u002A*%
X109220000Y-50800000D03*
%TD*%
%TO.C,REF\u002A\u002A*%
X76200000Y-86360000D03*
%TD*%
%TO.C,REF\u002A\u002A*%
X60960000Y-43180000D03*
%TD*%
%TO.C,REF\u002A\u002A*%
X114300000Y-43180000D03*
%TD*%
%TO.C,REF\u002A\u002A*%
X129540000Y-38100000D03*
%TD*%
%TO.C,REF\u002A\u002A*%
X86360000Y-83820000D03*
%TD*%
%TO.C,REF\u002A\u002A*%
X63500000Y-48260000D03*
%TD*%
%TO.C,REF\u002A\u002A*%
X81280000Y-48260000D03*
%TD*%
%TO.C,REF\u002A\u002A*%
X114300000Y-33020000D03*
%TD*%
%TO.C,REF\u002A\u002A*%
X86360000Y-48260000D03*
%TD*%
%TO.C,REF\u002A\u002A*%
X88900000Y-33020000D03*
%TD*%
%TO.C,REF\u002A\u002A*%
X60960000Y-48260000D03*
%TD*%
%TO.C,REF\u002A\u002A*%
X86360000Y-33020000D03*
%TD*%
%TO.C,REF\u002A\u002A*%
X60960000Y-53340000D03*
%TD*%
%TO.C,REF\u002A\u002A*%
X99060000Y-99060000D03*
%TD*%
%TO.C,REF\u002A\u002A*%
X109220000Y-53340000D03*
%TD*%
%TO.C,REF\u002A\u002A*%
X109220000Y-106680000D03*
%TD*%
%TO.C,REF\u002A\u002A*%
X71120000Y-96520000D03*
%TD*%
%TO.C,REF\u002A\u002A*%
X106680000Y-73660000D03*
%TD*%
%TO.C,REF\u002A\u002A*%
X83820000Y-73660000D03*
%TD*%
%TO.C,REF\u002A\u002A*%
X96520000Y-71120000D03*
%TD*%
%TO.C,REF\u002A\u002A*%
X76200000Y-81280000D03*
%TD*%
%TO.C,REF\u002A\u002A*%
X109220000Y-104140000D03*
%TD*%
%TO.C,REF\u002A\u002A*%
X71120000Y-53340000D03*
%TD*%
%TO.C,REF\u002A\u002A*%
X73660000Y-101600000D03*
%TD*%
D15*
%TO.C,J34*%
X90932000Y-112014000D03*
%TD*%
D14*
%TO.C,REF\u002A\u002A*%
X60960000Y-68580000D03*
%TD*%
%TO.C,REF\u002A\u002A*%
X81280000Y-96520000D03*
%TD*%
%TO.C,REF\u002A\u002A*%
X83820000Y-68580000D03*
%TD*%
%TO.C,REF\u002A\u002A*%
X109220000Y-35560000D03*
%TD*%
%TO.C,REF\u002A\u002A*%
X76200000Y-40640000D03*
%TD*%
%TO.C,REF\u002A\u002A*%
X109220000Y-48260000D03*
%TD*%
D15*
%TO.C,J16*%
X98590002Y-110998000D03*
%TD*%
D14*
%TO.C,REF\u002A\u002A*%
X119380000Y-43180000D03*
%TD*%
%TO.C,REF\u002A\u002A*%
X91440000Y-35560000D03*
%TD*%
%TO.C,REF\u002A\u002A*%
X73660000Y-78740000D03*
%TD*%
D15*
%TO.C,J54*%
X114300000Y-69850000D03*
%TD*%
D14*
%TO.C,REF\u002A\u002A*%
X73660000Y-76200000D03*
%TD*%
%TO.C,REF\u002A\u002A*%
X83820000Y-93980000D03*
%TD*%
%TO.C,REF\u002A\u002A*%
X111760000Y-27940000D03*
%TD*%
%TO.C,REF\u002A\u002A*%
X60960000Y-55880000D03*
%TD*%
%TO.C,REF\u002A\u002A*%
X96520000Y-91440000D03*
%TD*%
D15*
%TO.C,J49*%
X118110000Y-80010000D03*
%TD*%
D14*
%TO.C,REF\u002A\u002A*%
X106680000Y-104140000D03*
%TD*%
%TO.C,REF\u002A\u002A*%
X88900000Y-86360000D03*
%TD*%
%TO.C,REF\u002A\u002A*%
X96520000Y-104140000D03*
%TD*%
%TO.C,REF\u002A\u002A*%
X73660000Y-50800000D03*
%TD*%
%TO.C,REF\u002A\u002A*%
X91440000Y-55880000D03*
%TD*%
%TO.C,REF\u002A\u002A*%
X66040000Y-71120000D03*
%TD*%
%TO.C,REF\u002A\u002A*%
X86360000Y-96520000D03*
%TD*%
%TO.C,REF\u002A\u002A*%
X104140000Y-99060000D03*
%TD*%
%TO.C,REF\u002A\u002A*%
X81280000Y-91440000D03*
%TD*%
%TO.C,REF\u002A\u002A*%
X109220000Y-40640000D03*
%TD*%
%TO.C,REF\u002A\u002A*%
X63500000Y-91440000D03*
%TD*%
%TO.C,REF\u002A\u002A*%
X73660000Y-68580000D03*
%TD*%
%TO.C,REF\u002A\u002A*%
X68580000Y-27940000D03*
%TD*%
%TO.C,REF\u002A\u002A*%
X96520000Y-40640000D03*
%TD*%
%TO.C,REF\u002A\u002A*%
X60960000Y-101600000D03*
%TD*%
%TO.C,REF\u002A\u002A*%
X93980000Y-58420000D03*
%TD*%
%TO.C,REF\u002A\u002A*%
X66040000Y-53340000D03*
%TD*%
%TO.C,REF\u002A\u002A*%
X63500000Y-73660000D03*
%TD*%
D15*
%TO.C,J10*%
X106172000Y-112268000D03*
%TD*%
D14*
%TO.C,REF\u002A\u002A*%
X99060000Y-68580000D03*
%TD*%
%TO.C,REF\u002A\u002A*%
X78740000Y-93980000D03*
%TD*%
%TO.C,REF\u002A\u002A*%
X60960000Y-104140000D03*
%TD*%
%TO.C,REF\u002A\u002A*%
X66040000Y-66040000D03*
%TD*%
%TO.C,REF\u002A\u002A*%
X86360000Y-73660000D03*
%TD*%
%TO.C,REF\u002A\u002A*%
X106680000Y-99060000D03*
%TD*%
D15*
%TO.C,J38*%
X111252000Y-114808000D03*
%TD*%
D14*
%TO.C,REF\u002A\u002A*%
X99060000Y-35560000D03*
%TD*%
%TO.C,REF\u002A\u002A*%
X101600000Y-53340000D03*
%TD*%
%TO.C,REF\u002A\u002A*%
X99060000Y-104140000D03*
%TD*%
%TO.C,REF\u002A\u002A*%
X88900000Y-45720000D03*
%TD*%
%TO.C,REF\u002A\u002A*%
X71120000Y-88900000D03*
%TD*%
%TO.C,REF\u002A\u002A*%
X101600000Y-81280000D03*
%TD*%
%TO.C,REF\u002A\u002A*%
X93980000Y-104140000D03*
%TD*%
%TO.C,REF\u002A\u002A*%
X104140000Y-48260000D03*
%TD*%
%TO.C,REF\u002A\u002A*%
X60960000Y-38100000D03*
%TD*%
%TO.C,REF\u002A\u002A*%
X88900000Y-27940000D03*
%TD*%
D15*
%TO.C,J53*%
X118110000Y-72390000D03*
%TD*%
D14*
%TO.C,REF\u002A\u002A*%
X78740000Y-53340000D03*
%TD*%
%TO.C,REF\u002A\u002A*%
X101600000Y-43180000D03*
%TD*%
%TO.C,REF\u002A\u002A*%
X63500000Y-86360000D03*
%TD*%
%TO.C,REF\u002A\u002A*%
X99060000Y-86360000D03*
%TD*%
%TO.C,REF\u002A\u002A*%
X60960000Y-86360000D03*
%TD*%
%TO.C,REF\u002A\u002A*%
X99060000Y-88900000D03*
%TD*%
%TO.C,REF\u002A\u002A*%
X81280000Y-106680000D03*
%TD*%
%TO.C,REF\u002A\u002A*%
X91440000Y-81280000D03*
%TD*%
D26*
%TO.C,J40*%
X122918000Y-56446000D03*
X122918000Y-59216000D03*
X122918000Y-61986000D03*
X122918000Y-64756000D03*
X122918000Y-67526000D03*
X122918000Y-70296000D03*
X122918000Y-73066000D03*
X122918000Y-75836000D03*
X122918000Y-78606000D03*
X122918000Y-81376000D03*
X122918000Y-84146000D03*
X122918000Y-86916000D03*
X122918000Y-89686000D03*
X125458000Y-57831000D03*
X125458000Y-60601000D03*
X125458000Y-63371000D03*
X125458000Y-66141000D03*
X125458000Y-68911000D03*
X125458000Y-71681000D03*
X125458000Y-74451000D03*
X125458000Y-77221000D03*
X125458000Y-79991000D03*
X125458000Y-82761000D03*
X125458000Y-85531000D03*
X125458000Y-88301000D03*
D27*
X124188000Y-49546000D03*
X124188000Y-96586000D03*
%TD*%
D14*
%TO.C,REF\u002A\u002A*%
X78740000Y-27940000D03*
%TD*%
%TO.C,REF\u002A\u002A*%
X99060000Y-91440000D03*
%TD*%
D15*
%TO.C,J43*%
X118110000Y-91440000D03*
%TD*%
D14*
%TO.C,REF\u002A\u002A*%
X81280000Y-43180000D03*
%TD*%
%TO.C,REF\u002A\u002A*%
X99060000Y-76200000D03*
%TD*%
%TO.C,REF\u002A\u002A*%
X81280000Y-25400000D03*
%TD*%
%TO.C,REF\u002A\u002A*%
X76200000Y-71120000D03*
%TD*%
%TO.C,REF\u002A\u002A*%
X83820000Y-76200000D03*
%TD*%
%TO.C,REF\u002A\u002A*%
X83820000Y-88900000D03*
%TD*%
%TO.C,REF\u002A\u002A*%
X101600000Y-93980000D03*
%TD*%
%TO.C,REF\u002A\u002A*%
X76200000Y-33020000D03*
%TD*%
%TO.C,REF\u002A\u002A*%
X63500000Y-66040000D03*
%TD*%
D15*
%TO.C,J36*%
X108712000Y-113538000D03*
%TD*%
D14*
%TO.C,REF\u002A\u002A*%
X71120000Y-83820000D03*
%TD*%
%TO.C,REF\u002A\u002A*%
X99060000Y-55880000D03*
%TD*%
%TO.C,REF\u002A\u002A*%
X71120000Y-48260000D03*
%TD*%
%TO.C,REF\u002A\u002A*%
X81280000Y-60960000D03*
%TD*%
%TO.C,REF\u002A\u002A*%
X76200000Y-88900000D03*
%TD*%
%TO.C,REF\u002A\u002A*%
X101600000Y-73660000D03*
%TD*%
D15*
%TO.C,J17*%
X73660000Y-111760000D03*
%TD*%
D14*
%TO.C,REF\u002A\u002A*%
X96520000Y-63500000D03*
%TD*%
%TO.C,REF\u002A\u002A*%
X96520000Y-33020000D03*
%TD*%
%TO.C,REF\u002A\u002A*%
X83820000Y-101600000D03*
%TD*%
%TO.C,REF\u002A\u002A*%
X119380000Y-25400000D03*
%TD*%
%TO.C,REF\u002A\u002A*%
X93980000Y-35560000D03*
%TD*%
%TO.C,REF\u002A\u002A*%
X81280000Y-35560000D03*
%TD*%
%TO.C,REF\u002A\u002A*%
X93980000Y-38100000D03*
%TD*%
%TO.C,REF\u002A\u002A*%
X78740000Y-88900000D03*
%TD*%
%TO.C,REF\u002A\u002A*%
X68580000Y-33020000D03*
%TD*%
%TO.C,REF\u002A\u002A*%
X66040000Y-81280000D03*
%TD*%
%TO.C,REF\u002A\u002A*%
X83820000Y-66040000D03*
%TD*%
D15*
%TO.C,J22*%
X68580000Y-111760000D03*
%TD*%
D14*
%TO.C,REF\u002A\u002A*%
X88900000Y-58420000D03*
%TD*%
%TO.C,REF\u002A\u002A*%
X60960000Y-58420000D03*
%TD*%
%TO.C,REF\u002A\u002A*%
X71120000Y-101600000D03*
%TD*%
%TO.C,REF\u002A\u002A*%
X71120000Y-104140000D03*
%TD*%
%TO.C,REF\u002A\u002A*%
X114300000Y-40640000D03*
%TD*%
%TO.C,REF\u002A\u002A*%
X106680000Y-71120000D03*
%TD*%
%TO.C,REF\u002A\u002A*%
X60960000Y-81280000D03*
%TD*%
%TO.C,REF\u002A\u002A*%
X96520000Y-38100000D03*
%TD*%
D19*
%TO.C,J14*%
X85090000Y-110505000D03*
D20*
X85090000Y-113045000D03*
X85090000Y-115585000D03*
%TD*%
D14*
%TO.C,REF\u002A\u002A*%
X106680000Y-53340000D03*
%TD*%
%TO.C,REF\u002A\u002A*%
X71120000Y-40640000D03*
%TD*%
%TO.C,REF\u002A\u002A*%
X73660000Y-91440000D03*
%TD*%
%TO.C,REF\u002A\u002A*%
X91440000Y-58420000D03*
%TD*%
D15*
%TO.C,J11*%
X98552000Y-113538000D03*
%TD*%
D14*
%TO.C,REF\u002A\u002A*%
X71120000Y-71120000D03*
%TD*%
%TO.C,REF\u002A\u002A*%
X129540000Y-40640000D03*
%TD*%
%TO.C,REF\u002A\u002A*%
X104140000Y-81280000D03*
%TD*%
%TO.C,REF\u002A\u002A*%
X81280000Y-45720000D03*
%TD*%
D15*
%TO.C,J8*%
X113576002Y-111252000D03*
%TD*%
D14*
%TO.C,REF\u002A\u002A*%
X116840000Y-38100000D03*
%TD*%
%TO.C,REF\u002A\u002A*%
X101600000Y-83820000D03*
%TD*%
%TO.C,REF\u002A\u002A*%
X99060000Y-81280000D03*
%TD*%
%TO.C,REF\u002A\u002A*%
X60960000Y-106680000D03*
%TD*%
%TO.C,REF\u002A\u002A*%
X127000000Y-30480000D03*
%TD*%
%TO.C,REF\u002A\u002A*%
X101600000Y-33020000D03*
%TD*%
%TO.C,REF\u002A\u002A*%
X81280000Y-93980000D03*
%TD*%
%TO.C,REF\u002A\u002A*%
X121920000Y-40640000D03*
%TD*%
%TO.C,REF\u002A\u002A*%
X83820000Y-96520000D03*
%TD*%
%TO.C,REF\u002A\u002A*%
X96520000Y-106680000D03*
%TD*%
%TO.C,REF\u002A\u002A*%
X96520000Y-58420000D03*
%TD*%
%TO.C,REF\u002A\u002A*%
X68580000Y-60960000D03*
%TD*%
%TO.C,REF\u002A\u002A*%
X99060000Y-106680000D03*
%TD*%
D15*
%TO.C,J7*%
X101092000Y-114808000D03*
%TD*%
D14*
%TO.C,REF\u002A\u002A*%
X66040000Y-91440000D03*
%TD*%
%TO.C,REF\u002A\u002A*%
X73660000Y-104140000D03*
%TD*%
D15*
%TO.C,J32*%
X90932000Y-114808000D03*
%TD*%
D14*
%TO.C,REF\u002A\u002A*%
X91440000Y-106680000D03*
%TD*%
%TO.C,REF\u002A\u002A*%
X68580000Y-78740000D03*
%TD*%
%TO.C,REF\u002A\u002A*%
X73660000Y-43180000D03*
%TD*%
%TO.C,REF\u002A\u002A*%
X96520000Y-50800000D03*
%TD*%
D17*
%TO.C,U3*%
X87630000Y-147320000D03*
D25*
X87630000Y-144780000D03*
X87630000Y-142240000D03*
X87630000Y-139700000D03*
X87630000Y-137160000D03*
X87630000Y-134620000D03*
X87630000Y-132080000D03*
X87630000Y-129540000D03*
X87630000Y-127000000D03*
X87630000Y-124460000D03*
X80010000Y-124460000D03*
X80010000Y-127000000D03*
X80010000Y-129540000D03*
X80010000Y-132080000D03*
X80010000Y-134620000D03*
X80010000Y-137160000D03*
X80010000Y-139700000D03*
X80010000Y-142240000D03*
X80010000Y-144780000D03*
X80010000Y-147320000D03*
%TD*%
D14*
%TO.C,REF\u002A\u002A*%
X73660000Y-88900000D03*
%TD*%
%TO.C,REF\u002A\u002A*%
X104140000Y-86360000D03*
%TD*%
%TO.C,REF\u002A\u002A*%
X104140000Y-53340000D03*
%TD*%
%TO.C,REF\u002A\u002A*%
X101600000Y-58420000D03*
%TD*%
%TO.C,REF\u002A\u002A*%
X76200000Y-60960000D03*
%TD*%
%TO.C,REF\u002A\u002A*%
X66040000Y-58420000D03*
%TD*%
%TO.C,REF\u002A\u002A*%
X109220000Y-76200000D03*
%TD*%
%TO.C,REF\u002A\u002A*%
X91440000Y-96520000D03*
%TD*%
%TO.C,REF\u002A\u002A*%
X78740000Y-45720000D03*
%TD*%
%TO.C,REF\u002A\u002A*%
X68580000Y-81280000D03*
%TD*%
D15*
%TO.C,J31*%
X93472000Y-110744000D03*
%TD*%
D14*
%TO.C,REF\u002A\u002A*%
X66040000Y-30480000D03*
%TD*%
%TO.C,REF\u002A\u002A*%
X104140000Y-68580000D03*
%TD*%
%TO.C,REF\u002A\u002A*%
X91440000Y-48260000D03*
%TD*%
%TO.C,REF\u002A\u002A*%
X81280000Y-101600000D03*
%TD*%
%TO.C,REF\u002A\u002A*%
X101600000Y-68580000D03*
%TD*%
%TO.C,REF\u002A\u002A*%
X91440000Y-50800000D03*
%TD*%
%TO.C,REF\u002A\u002A*%
X76200000Y-78740000D03*
%TD*%
%TO.C,REF\u002A\u002A*%
X66040000Y-38100000D03*
%TD*%
%TO.C,REF\u002A\u002A*%
X99060000Y-48260000D03*
%TD*%
%TO.C,REF\u002A\u002A*%
X63500000Y-106680000D03*
%TD*%
%TO.C,REF\u002A\u002A*%
X99060000Y-83820000D03*
%TD*%
%TO.C,REF\u002A\u002A*%
X86360000Y-86360000D03*
%TD*%
%TO.C,REF\u002A\u002A*%
X81280000Y-73660000D03*
%TD*%
%TO.C,REF\u002A\u002A*%
X83820000Y-50800000D03*
%TD*%
%TO.C,REF\u002A\u002A*%
X93980000Y-30480000D03*
%TD*%
%TO.C,REF\u002A\u002A*%
X78740000Y-35560000D03*
%TD*%
%TO.C,REF\u002A\u002A*%
X109220000Y-96520000D03*
%TD*%
%TO.C,REF\u002A\u002A*%
X88900000Y-53340000D03*
%TD*%
D15*
%TO.C,J44*%
X114300000Y-88900000D03*
%TD*%
M02*
